<svg width="1440" height="95" viewBox="0 0 1440 95" fill="none" xmlns="http://www.w3.org/2000/svg">
<path d="M288.76 85H286.96V74.22L284.84 74.96V73.24L288.76 71.82V85ZM292 78.5C292 76.52 292.28 75.04 292.94 73.76C293.64 72.48 294.92 71.78 296.74 71.78C298.58 71.78 299.86 72.48 300.52 73.76C301.22 75.04 301.46 76.5 301.46 78.5C301.46 80.48 301.22 81.92 300.52 83.2C299.86 84.48 298.56 85.18 296.74 85.18C293 85.18 292 82.16 292 78.5ZM293.8 78.5C293.8 81.54 294.56 83.4 296.74 83.4C298.92 83.4 299.68 81.54 299.68 78.5C299.68 75.44 298.92 73.58 296.74 73.58C294.56 73.58 293.8 75.44 293.8 78.5ZM304.529 84.86C304.029 84.38 304.029 83.54 304.529 83.06C305.029 82.58 305.869 82.58 306.369 83.06C306.909 83.54 306.909 84.38 306.369 84.86C305.869 85.32 305.029 85.32 304.529 84.86ZM309.422 78.5C309.422 76.52 309.702 75.04 310.362 73.76C311.062 72.48 312.342 71.78 314.162 71.78C316.002 71.78 317.282 72.48 317.942 73.76C318.642 75.04 318.882 76.5 318.882 78.5C318.882 80.48 318.642 81.92 317.942 83.2C317.282 84.48 315.982 85.18 314.162 85.18C310.422 85.18 309.422 82.16 309.422 78.5ZM311.222 78.5C311.222 81.54 311.982 83.4 314.162 83.4C316.342 83.4 317.102 81.54 317.102 78.5C317.102 75.44 316.342 73.58 314.162 73.58C311.982 73.58 311.222 75.44 311.222 78.5ZM321.531 78.5C321.531 76.52 321.811 75.04 322.471 73.76C323.171 72.48 324.451 71.78 326.271 71.78C328.111 71.78 329.391 72.48 330.051 73.76C330.751 75.04 330.991 76.5 330.991 78.5C330.991 80.48 330.751 81.92 330.051 83.2C329.391 84.48 328.091 85.18 326.271 85.18C322.531 85.18 321.531 82.16 321.531 78.5ZM323.331 78.5C323.331 81.54 324.091 83.4 326.271 83.4C328.451 83.4 329.211 81.54 329.211 78.5C329.211 75.44 328.451 73.58 326.271 73.58C324.091 73.58 323.331 75.44 323.331 78.5ZM333.64 78.5C333.64 76.52 333.92 75.04 334.58 73.76C335.28 72.48 336.56 71.78 338.38 71.78C340.22 71.78 341.5 72.48 342.16 73.76C342.86 75.04 343.1 76.5 343.1 78.5C343.1 80.48 342.86 81.92 342.16 83.2C341.5 84.48 340.2 85.18 338.38 85.18C334.64 85.18 333.64 82.16 333.64 78.5ZM335.44 78.5C335.44 81.54 336.2 83.4 338.38 83.4C340.56 83.4 341.32 81.54 341.32 78.5C341.32 75.44 340.56 73.58 338.38 73.58C336.2 73.58 335.44 75.44 335.44 78.5Z" fill="white"/>
<path d="M414.76 85H412.96V74.22L410.84 74.96V73.24L414.76 71.82V85ZM417.64 82.22L419.18 81.38C419.68 82.66 420.76 83.46 421.98 83.46C424.06 83.46 425.12 82.38 425.12 80.8C425.12 79.2 423.96 78.3 422.42 78.3C421.86 78.3 421.36 78.38 420.9 78.54C420.44 78.68 419.88 78.96 419.18 79.38L418.06 78.46L419.2 71.96H426.16V73.68H420.68L419.96 77.38C420.54 76.96 421.62 76.62 422.42 76.62C423.68 76.62 424.74 77 425.6 77.74C426.46 78.48 426.88 79.5 426.88 80.8C426.88 82.14 426.42 83.2 425.52 84C424.62 84.8 423.44 85.2 421.98 85.2C420.14 85.2 418.44 84.04 417.64 82.22ZM429.709 84.86C429.209 84.38 429.209 83.54 429.709 83.06C430.209 82.58 431.049 82.58 431.549 83.06C432.089 83.54 432.089 84.38 431.549 84.86C431.049 85.32 430.209 85.32 429.709 84.86ZM434.601 78.5C434.601 76.52 434.881 75.04 435.541 73.76C436.241 72.48 437.521 71.78 439.341 71.78C441.181 71.78 442.461 72.48 443.121 73.76C443.821 75.04 444.061 76.5 444.061 78.5C444.061 80.48 443.821 81.92 443.121 83.2C442.461 84.48 441.161 85.18 439.341 85.18C435.601 85.18 434.601 82.16 434.601 78.5ZM436.401 78.5C436.401 81.54 437.161 83.4 439.341 83.4C441.521 83.4 442.281 81.54 442.281 78.5C442.281 75.44 441.521 73.58 439.341 73.58C437.161 73.58 436.401 75.44 436.401 78.5ZM446.711 78.5C446.711 76.52 446.991 75.04 447.651 73.76C448.351 72.48 449.631 71.78 451.451 71.78C453.291 71.78 454.571 72.48 455.231 73.76C455.931 75.04 456.171 76.5 456.171 78.5C456.171 80.48 455.931 81.92 455.231 83.2C454.571 84.48 453.271 85.18 451.451 85.18C447.711 85.18 446.711 82.16 446.711 78.5ZM448.511 78.5C448.511 81.54 449.271 83.4 451.451 83.4C453.631 83.4 454.391 81.54 454.391 78.5C454.391 75.44 453.631 73.58 451.451 73.58C449.271 73.58 448.511 75.44 448.511 78.5ZM458.82 78.5C458.82 76.52 459.1 75.04 459.76 73.76C460.46 72.48 461.74 71.78 463.56 71.78C465.4 71.78 466.68 72.48 467.34 73.76C468.04 75.04 468.28 76.5 468.28 78.5C468.28 80.48 468.04 81.92 467.34 83.2C466.68 84.48 465.38 85.18 463.56 85.18C459.82 85.18 458.82 82.16 458.82 78.5ZM460.62 78.5C460.62 81.54 461.38 83.4 463.56 83.4C465.74 83.4 466.5 81.54 466.5 78.5C466.5 75.44 465.74 73.58 463.56 73.58C461.38 73.58 460.62 75.44 460.62 78.5Z" fill="white"/>
<path d="M166.96 82.22L168.5 81.38C169 82.66 170.08 83.46 171.3 83.46C173.38 83.46 174.44 82.38 174.44 80.8C174.44 79.2 173.28 78.3 171.74 78.3C171.18 78.3 170.68 78.38 170.22 78.54C169.76 78.68 169.2 78.96 168.5 79.38L167.38 78.46L168.52 71.96H175.48V73.68H170L169.28 77.38C169.86 76.96 170.94 76.62 171.74 76.62C173 76.62 174.06 77 174.92 77.74C175.78 78.48 176.2 79.5 176.2 80.8C176.2 82.14 175.74 83.2 174.84 84C173.94 84.8 172.76 85.2 171.3 85.2C169.46 85.2 167.76 84.04 166.96 82.22ZM179.029 84.86C178.529 84.38 178.529 83.54 179.029 83.06C179.529 82.58 180.369 82.58 180.869 83.06C181.409 83.54 181.409 84.38 180.869 84.86C180.369 85.32 179.529 85.32 179.029 84.86ZM183.922 78.5C183.922 76.52 184.202 75.04 184.862 73.76C185.562 72.48 186.842 71.78 188.662 71.78C190.502 71.78 191.782 72.48 192.442 73.76C193.142 75.04 193.382 76.5 193.382 78.5C193.382 80.48 193.142 81.92 192.442 83.2C191.782 84.48 190.482 85.18 188.662 85.18C184.922 85.18 183.922 82.16 183.922 78.5ZM185.722 78.5C185.722 81.54 186.482 83.4 188.662 83.4C190.842 83.4 191.602 81.54 191.602 78.5C191.602 75.44 190.842 73.58 188.662 73.58C186.482 73.58 185.722 75.44 185.722 78.5ZM196.031 78.5C196.031 76.52 196.311 75.04 196.971 73.76C197.671 72.48 198.951 71.78 200.771 71.78C202.611 71.78 203.891 72.48 204.551 73.76C205.251 75.04 205.491 76.5 205.491 78.5C205.491 80.48 205.251 81.92 204.551 83.2C203.891 84.48 202.591 85.18 200.771 85.18C197.031 85.18 196.031 82.16 196.031 78.5ZM197.831 78.5C197.831 81.54 198.591 83.4 200.771 83.4C202.951 83.4 203.711 81.54 203.711 78.5C203.711 75.44 202.951 73.58 200.771 73.58C198.591 73.58 197.831 75.44 197.831 78.5ZM208.14 78.5C208.14 76.52 208.42 75.04 209.08 73.76C209.78 72.48 211.06 71.78 212.88 71.78C214.72 71.78 216 72.48 216.66 73.76C217.36 75.04 217.6 76.5 217.6 78.5C217.6 80.48 217.36 81.92 216.66 83.2C216 84.48 214.7 85.18 212.88 85.18C209.14 85.18 208.14 82.16 208.14 78.5ZM209.94 78.5C209.94 81.54 210.7 83.4 212.88 83.4C215.06 83.4 215.82 81.54 215.82 78.5C215.82 75.44 215.06 73.58 212.88 73.58C210.7 73.58 209.94 75.44 209.94 78.5Z" fill="white"/>
<path d="M536.2 85V84.2L541.5 77.78C542.14 77.04 542.46 76.32 542.46 75.64C542.46 74.42 541.44 73.58 540.14 73.58C538.94 73.58 537.96 74.36 537.78 75.64L536.04 75.22C536.22 74.18 536.68 73.34 537.44 72.72C538.2 72.1 539.1 71.78 540.14 71.78C541.3 71.78 542.28 72.14 543.06 72.86C543.84 73.58 544.24 74.5 544.24 75.64C544.24 76.82 543.76 77.94 542.82 79.02L539.28 83.2H544.26V85H536.2ZM546.867 78.5C546.867 76.52 547.147 75.04 547.807 73.76C548.507 72.48 549.787 71.78 551.607 71.78C553.447 71.78 554.727 72.48 555.387 73.76C556.087 75.04 556.327 76.5 556.327 78.5C556.327 80.48 556.087 81.92 555.387 83.2C554.727 84.48 553.427 85.18 551.607 85.18C547.867 85.18 546.867 82.16 546.867 78.5ZM548.667 78.5C548.667 81.54 549.427 83.4 551.607 83.4C553.787 83.4 554.547 81.54 554.547 78.5C554.547 75.44 553.787 73.58 551.607 73.58C549.427 73.58 548.667 75.44 548.667 78.5ZM559.396 84.86C558.896 84.38 558.896 83.54 559.396 83.06C559.896 82.58 560.736 82.58 561.236 83.06C561.776 83.54 561.776 84.38 561.236 84.86C560.736 85.32 559.896 85.32 559.396 84.86ZM564.289 78.5C564.289 76.52 564.569 75.04 565.229 73.76C565.929 72.48 567.209 71.78 569.029 71.78C570.869 71.78 572.149 72.48 572.809 73.76C573.509 75.04 573.749 76.5 573.749 78.5C573.749 80.48 573.509 81.92 572.809 83.2C572.149 84.48 570.849 85.18 569.029 85.18C565.289 85.18 564.289 82.16 564.289 78.5ZM566.089 78.5C566.089 81.54 566.849 83.4 569.029 83.4C571.209 83.4 571.969 81.54 571.969 78.5C571.969 75.44 571.209 73.58 569.029 73.58C566.849 73.58 566.089 75.44 566.089 78.5ZM576.398 78.5C576.398 76.52 576.678 75.04 577.338 73.76C578.038 72.48 579.318 71.78 581.138 71.78C582.978 71.78 584.258 72.48 584.918 73.76C585.618 75.04 585.858 76.5 585.858 78.5C585.858 80.48 585.618 81.92 584.918 83.2C584.258 84.48 582.958 85.18 581.138 85.18C577.398 85.18 576.398 82.16 576.398 78.5ZM578.198 78.5C578.198 81.54 578.958 83.4 581.138 83.4C583.318 83.4 584.078 81.54 584.078 78.5C584.078 75.44 583.318 73.58 581.138 73.58C578.958 73.58 578.198 75.44 578.198 78.5ZM588.507 78.5C588.507 76.52 588.788 75.04 589.448 73.76C590.148 72.48 591.428 71.78 593.248 71.78C595.088 71.78 596.368 72.48 597.028 73.76C597.728 75.04 597.968 76.5 597.968 78.5C597.968 80.48 597.728 81.92 597.028 83.2C596.368 84.48 595.068 85.18 593.248 85.18C589.508 85.18 588.507 82.16 588.507 78.5ZM590.308 78.5C590.308 81.54 591.068 83.4 593.248 83.4C595.428 83.4 596.188 81.54 596.188 78.5C596.188 75.44 595.428 73.58 593.248 73.58C591.068 73.58 590.308 75.44 590.308 78.5Z" fill="white"/>
<path d="M666.2 85V84.2L671.5 77.78C672.14 77.04 672.46 76.32 672.46 75.64C672.46 74.42 671.44 73.58 670.14 73.58C668.94 73.58 667.96 74.36 667.78 75.64L666.04 75.22C666.22 74.18 666.68 73.34 667.44 72.72C668.2 72.1 669.1 71.78 670.14 71.78C671.3 71.78 672.28 72.14 673.06 72.86C673.84 73.58 674.24 74.5 674.24 75.64C674.24 76.82 673.76 77.94 672.82 79.02L669.28 83.2H674.26V85H666.2ZM676.507 82.22L678.047 81.38C678.547 82.66 679.627 83.46 680.847 83.46C682.927 83.46 683.987 82.38 683.987 80.8C683.987 79.2 682.827 78.3 681.287 78.3C680.727 78.3 680.227 78.38 679.767 78.54C679.307 78.68 678.747 78.96 678.047 79.38L676.927 78.46L678.067 71.96H685.027V73.68H679.547L678.827 77.38C679.407 76.96 680.487 76.62 681.287 76.62C682.547 76.62 683.607 77 684.467 77.74C685.327 78.48 685.747 79.5 685.747 80.8C685.747 82.14 685.287 83.2 684.387 84C683.487 84.8 682.307 85.2 680.847 85.2C679.007 85.2 677.307 84.04 676.507 82.22ZM688.576 84.86C688.076 84.38 688.076 83.54 688.576 83.06C689.076 82.58 689.916 82.58 690.416 83.06C690.956 83.54 690.956 84.38 690.416 84.86C689.916 85.32 689.076 85.32 688.576 84.86ZM693.468 78.5C693.468 76.52 693.748 75.04 694.408 73.76C695.108 72.48 696.388 71.78 698.208 71.78C700.048 71.78 701.328 72.48 701.988 73.76C702.688 75.04 702.928 76.5 702.928 78.5C702.928 80.48 702.688 81.92 701.988 83.2C701.328 84.48 700.028 85.18 698.208 85.18C694.468 85.18 693.468 82.16 693.468 78.5ZM695.268 78.5C695.268 81.54 696.028 83.4 698.208 83.4C700.388 83.4 701.148 81.54 701.148 78.5C701.148 75.44 700.388 73.58 698.208 73.58C696.028 73.58 695.268 75.44 695.268 78.5ZM705.578 78.5C705.578 76.52 705.858 75.04 706.518 73.76C707.218 72.48 708.498 71.78 710.318 71.78C712.158 71.78 713.438 72.48 714.098 73.76C714.798 75.04 715.038 76.5 715.038 78.5C715.038 80.48 714.798 81.92 714.098 83.2C713.438 84.48 712.138 85.18 710.318 85.18C706.578 85.18 705.578 82.16 705.578 78.5ZM707.378 78.5C707.378 81.54 708.138 83.4 710.318 83.4C712.498 83.4 713.258 81.54 713.258 78.5C713.258 75.44 712.498 73.58 710.318 73.58C708.138 73.58 707.378 75.44 707.378 78.5ZM717.687 78.5C717.687 76.52 717.967 75.04 718.627 73.76C719.327 72.48 720.607 71.78 722.427 71.78C724.267 71.78 725.547 72.48 726.207 73.76C726.907 75.04 727.147 76.5 727.147 78.5C727.147 80.48 726.907 81.92 726.207 83.2C725.547 84.48 724.247 85.18 722.427 85.18C718.687 85.18 717.687 82.16 717.687 78.5ZM719.487 78.5C719.487 81.54 720.247 83.4 722.427 83.4C724.607 83.4 725.367 81.54 725.367 78.5C725.367 75.44 724.607 73.58 722.427 73.58C720.247 73.58 719.487 75.44 719.487 78.5Z" fill="white"/>
<path d="M796.96 74.74L795.62 73.68C796.34 72.42 797.8 71.66 799.4 71.76C800.46 71.82 801.32 72.2 802 72.92C802.7 73.62 803.02 74.44 803 75.38C803 75.64 802.96 75.9 802.88 76.18C802.64 76.96 802.16 77.56 801.46 77.96C802.12 78.2 802.64 78.66 803.02 79.36C803.42 80.06 803.58 80.76 803.52 81.48C803.42 82.58 802.9 83.5 801.96 84.22C801.02 84.94 799.96 85.26 798.74 85.16C797.04 85.06 795.56 83.96 794.86 82.44L796.44 81.58C796.86 82.52 797.86 83.3 798.88 83.38H798.86C799.6 83.42 800.24 83.24 800.8 82.82C801.38 82.4 801.68 81.86 801.7 81.24C801.72 80.62 801.46 80.06 800.96 79.6C800.46 79.14 799.88 78.9 799.18 78.9H797.7V77.16H799.18C800.08 77.18 800.82 76.54 800.98 75.66C801.08 75.12 801 74.66 800.76 74.32C800.46 73.86 799.94 73.6 799.24 73.56C798.3 73.48 797.54 73.88 796.96 74.74ZM806.023 78.5C806.023 76.52 806.303 75.04 806.963 73.76C807.663 72.48 808.943 71.78 810.763 71.78C812.603 71.78 813.883 72.48 814.543 73.76C815.243 75.04 815.483 76.5 815.483 78.5C815.483 80.48 815.243 81.92 814.543 83.2C813.883 84.48 812.583 85.18 810.763 85.18C807.023 85.18 806.023 82.16 806.023 78.5ZM807.823 78.5C807.823 81.54 808.583 83.4 810.763 83.4C812.943 83.4 813.703 81.54 813.703 78.5C813.703 75.44 812.943 73.58 810.763 73.58C808.583 73.58 807.823 75.44 807.823 78.5ZM818.553 84.86C818.053 84.38 818.053 83.54 818.553 83.06C819.053 82.58 819.893 82.58 820.393 83.06C820.933 83.54 820.933 84.38 820.393 84.86C819.893 85.32 819.053 85.32 818.553 84.86ZM823.445 78.5C823.445 76.52 823.725 75.04 824.385 73.76C825.085 72.48 826.365 71.78 828.185 71.78C830.025 71.78 831.305 72.48 831.965 73.76C832.665 75.04 832.905 76.5 832.905 78.5C832.905 80.48 832.665 81.92 831.965 83.2C831.305 84.48 830.005 85.18 828.185 85.18C824.445 85.18 823.445 82.16 823.445 78.5ZM825.245 78.5C825.245 81.54 826.005 83.4 828.185 83.4C830.365 83.4 831.125 81.54 831.125 78.5C831.125 75.44 830.365 73.58 828.185 73.58C826.005 73.58 825.245 75.44 825.245 78.5ZM835.554 78.5C835.554 76.52 835.834 75.04 836.494 73.76C837.194 72.48 838.474 71.78 840.294 71.78C842.134 71.78 843.414 72.48 844.074 73.76C844.774 75.04 845.014 76.5 845.014 78.5C845.014 80.48 844.774 81.92 844.074 83.2C843.414 84.48 842.114 85.18 840.294 85.18C836.554 85.18 835.554 82.16 835.554 78.5ZM837.354 78.5C837.354 81.54 838.114 83.4 840.294 83.4C842.474 83.4 843.234 81.54 843.234 78.5C843.234 75.44 842.474 73.58 840.294 73.58C838.114 73.58 837.354 75.44 837.354 78.5ZM847.664 78.5C847.664 76.52 847.944 75.04 848.604 73.76C849.304 72.48 850.584 71.78 852.404 71.78C854.244 71.78 855.524 72.48 856.184 73.76C856.884 75.04 857.124 76.5 857.124 78.5C857.124 80.48 856.884 81.92 856.184 83.2C855.524 84.48 854.224 85.18 852.404 85.18C848.664 85.18 847.664 82.16 847.664 78.5ZM849.464 78.5C849.464 81.54 850.224 83.4 852.404 83.4C854.584 83.4 855.344 81.54 855.344 78.5C855.344 75.44 854.584 73.58 852.404 73.58C850.224 73.58 849.464 75.44 849.464 78.5Z" fill="white"/>
<path d="M926.96 74.74L925.62 73.68C926.34 72.42 927.8 71.66 929.4 71.76C930.46 71.82 931.32 72.2 932 72.92C932.7 73.62 933.02 74.44 933 75.38C933 75.64 932.96 75.9 932.88 76.18C932.64 76.96 932.16 77.56 931.46 77.96C932.12 78.2 932.64 78.66 933.02 79.36C933.42 80.06 933.58 80.76 933.52 81.48C933.42 82.58 932.9 83.5 931.96 84.22C931.02 84.94 929.96 85.26 928.74 85.16C927.04 85.06 925.56 83.96 924.86 82.44L926.44 81.58C926.86 82.52 927.86 83.3 928.88 83.38H928.86C929.6 83.42 930.24 83.24 930.8 82.82C931.38 82.4 931.68 81.86 931.7 81.24C931.72 80.62 931.46 80.06 930.96 79.6C930.46 79.14 929.88 78.9 929.18 78.9H927.7V77.16H929.18C930.08 77.18 930.82 76.54 930.98 75.66C931.08 75.12 931 74.66 930.76 74.32C930.46 73.86 929.94 73.6 929.24 73.56C928.3 73.48 927.54 73.88 926.96 74.74ZM935.663 82.22L937.203 81.38C937.703 82.66 938.783 83.46 940.003 83.46C942.083 83.46 943.143 82.38 943.143 80.8C943.143 79.2 941.983 78.3 940.443 78.3C939.883 78.3 939.383 78.38 938.923 78.54C938.463 78.68 937.903 78.96 937.203 79.38L936.083 78.46L937.223 71.96H944.183V73.68H938.703L937.983 77.38C938.563 76.96 939.643 76.62 940.443 76.62C941.703 76.62 942.763 77 943.623 77.74C944.483 78.48 944.903 79.5 944.903 80.8C944.903 82.14 944.443 83.2 943.543 84C942.643 84.8 941.463 85.2 940.003 85.2C938.163 85.2 936.463 84.04 935.663 82.22ZM947.732 84.86C947.232 84.38 947.232 83.54 947.732 83.06C948.232 82.58 949.072 82.58 949.572 83.06C950.112 83.54 950.112 84.38 949.572 84.86C949.072 85.32 948.232 85.32 947.732 84.86ZM952.625 78.5C952.625 76.52 952.905 75.04 953.565 73.76C954.265 72.48 955.545 71.78 957.365 71.78C959.205 71.78 960.485 72.48 961.145 73.76C961.845 75.04 962.085 76.5 962.085 78.5C962.085 80.48 961.845 81.92 961.145 83.2C960.485 84.48 959.185 85.18 957.365 85.18C953.625 85.18 952.625 82.16 952.625 78.5ZM954.425 78.5C954.425 81.54 955.185 83.4 957.365 83.4C959.545 83.4 960.305 81.54 960.305 78.5C960.305 75.44 959.545 73.58 957.365 73.58C955.185 73.58 954.425 75.44 954.425 78.5ZM964.734 78.5C964.734 76.52 965.014 75.04 965.674 73.76C966.374 72.48 967.654 71.78 969.474 71.78C971.314 71.78 972.594 72.48 973.254 73.76C973.954 75.04 974.194 76.5 974.194 78.5C974.194 80.48 973.954 81.92 973.254 83.2C972.594 84.48 971.294 85.18 969.474 85.18C965.734 85.18 964.734 82.16 964.734 78.5ZM966.534 78.5C966.534 81.54 967.294 83.4 969.474 83.4C971.654 83.4 972.414 81.54 972.414 78.5C972.414 75.44 971.654 73.58 969.474 73.58C967.294 73.58 966.534 75.44 966.534 78.5ZM976.843 78.5C976.843 76.52 977.123 75.04 977.783 73.76C978.483 72.48 979.763 71.78 981.583 71.78C983.423 71.78 984.703 72.48 985.363 73.76C986.063 75.04 986.303 76.5 986.303 78.5C986.303 80.48 986.063 81.92 985.363 83.2C984.703 84.48 983.403 85.18 981.583 85.18C977.843 85.18 976.843 82.16 976.843 78.5ZM978.643 78.5C978.643 81.54 979.403 83.4 981.583 83.4C983.763 83.4 984.523 81.54 984.523 78.5C984.523 75.44 983.763 73.58 981.583 73.58C979.403 73.58 978.643 75.44 978.643 78.5Z" fill="white"/>
<path d="M1063.98 82.32H1062.1V85H1060.32V82.32H1053.52L1060.76 71.94H1062.1V80.62H1063.98V82.32ZM1060.32 75.18L1056.58 80.62H1060.32V75.18ZM1066.16 78.5C1066.16 76.52 1066.44 75.04 1067.1 73.76C1067.8 72.48 1069.08 71.78 1070.9 71.78C1072.74 71.78 1074.02 72.48 1074.68 73.76C1075.38 75.04 1075.62 76.5 1075.62 78.5C1075.62 80.48 1075.38 81.92 1074.68 83.2C1074.02 84.48 1072.72 85.18 1070.9 85.18C1067.16 85.18 1066.16 82.16 1066.16 78.5ZM1067.96 78.5C1067.96 81.54 1068.72 83.4 1070.9 83.4C1073.08 83.4 1073.84 81.54 1073.84 78.5C1073.84 75.44 1073.08 73.58 1070.9 73.58C1068.72 73.58 1067.96 75.44 1067.96 78.5ZM1078.69 84.86C1078.19 84.38 1078.19 83.54 1078.69 83.06C1079.19 82.58 1080.03 82.58 1080.53 83.06C1081.07 83.54 1081.07 84.38 1080.53 84.86C1080.03 85.32 1079.19 85.32 1078.69 84.86ZM1083.58 78.5C1083.58 76.52 1083.86 75.04 1084.52 73.76C1085.22 72.48 1086.5 71.78 1088.32 71.78C1090.16 71.78 1091.44 72.48 1092.1 73.76C1092.8 75.04 1093.04 76.5 1093.04 78.5C1093.04 80.48 1092.8 81.92 1092.1 83.2C1091.44 84.48 1090.14 85.18 1088.32 85.18C1084.58 85.18 1083.58 82.16 1083.58 78.5ZM1085.38 78.5C1085.38 81.54 1086.14 83.4 1088.32 83.4C1090.5 83.4 1091.26 81.54 1091.26 78.5C1091.26 75.44 1090.5 73.58 1088.32 73.58C1086.14 73.58 1085.38 75.44 1085.38 78.5ZM1095.69 78.5C1095.69 76.52 1095.97 75.04 1096.63 73.76C1097.33 72.48 1098.61 71.78 1100.43 71.78C1102.27 71.78 1103.55 72.48 1104.21 73.76C1104.91 75.04 1105.15 76.5 1105.15 78.5C1105.15 80.48 1104.91 81.92 1104.21 83.2C1103.55 84.48 1102.25 85.18 1100.43 85.18C1096.69 85.18 1095.69 82.16 1095.69 78.5ZM1097.49 78.5C1097.49 81.54 1098.25 83.4 1100.43 83.4C1102.61 83.4 1103.37 81.54 1103.37 78.5C1103.37 75.44 1102.61 73.58 1100.43 73.58C1098.25 73.58 1097.49 75.44 1097.49 78.5ZM1107.8 78.5C1107.8 76.52 1108.08 75.04 1108.74 73.76C1109.44 72.48 1110.72 71.78 1112.54 71.78C1114.38 71.78 1115.66 72.48 1116.32 73.76C1117.02 75.04 1117.26 76.5 1117.26 78.5C1117.26 80.48 1117.02 81.92 1116.32 83.2C1115.66 84.48 1114.36 85.18 1112.54 85.18C1108.8 85.18 1107.8 82.16 1107.8 78.5ZM1109.6 78.5C1109.6 81.54 1110.36 83.4 1112.54 83.4C1114.72 83.4 1115.48 81.54 1115.48 78.5C1115.48 75.44 1114.72 73.58 1112.54 73.58C1110.36 73.58 1109.6 75.44 1109.6 78.5Z" fill="white"/>
<path d="M2.784 25.256C2.784 14.36 6.72 8.936 14.544 8.936C18.96 8.936 22.128 10.664 23.808 13.736C25.536 16.808 26.208 20.456 26.208 25.256C26.208 30.056 25.536 33.608 23.808 36.68C22.128 39.752 18.96 41.48 14.544 41.48C6.72 41.48 2.784 36.056 2.784 25.256ZM9.504 25.256C9.504 31.736 11.184 34.952 14.544 34.952C17.856 34.952 19.488 31.736 19.488 25.256C19.488 18.728 17.856 15.464 14.544 15.464C11.184 15.464 9.504 18.728 9.504 25.256Z" fill="white"/>
<path d="M1301.44 29.912C1301.44 26.504 1299.09 24.776 1295.63 24.776C1293.18 24.776 1290.3 25.736 1288.72 28.232L1285.02 26.312L1287.62 9.56H1306.05V15.704H1292.94L1292.13 20.792C1293.33 19.688 1295.25 19.16 1297.89 19.16C1300.82 19.16 1303.26 20.12 1305.23 21.992C1307.2 23.864 1308.16 26.504 1308.16 29.912C1308.16 33.32 1306.96 36.104 1304.61 38.264C1302.26 40.424 1299.09 41.48 1295.2 41.48C1290.83 41.48 1286.51 38.936 1284.06 35.144L1289.73 31.496C1290.93 33.416 1293.23 34.76 1295.2 34.76C1298.8 34.76 1301.44 32.552 1301.44 29.912ZM1313.19 25.256C1313.19 14.36 1317.13 8.936 1324.95 8.936C1329.37 8.936 1332.53 10.664 1334.21 13.736C1335.94 16.808 1336.61 20.456 1336.61 25.256C1336.61 30.056 1335.94 33.608 1334.21 36.68C1332.53 39.752 1329.37 41.48 1324.95 41.48C1317.13 41.48 1313.19 36.056 1313.19 25.256ZM1319.91 25.256C1319.91 31.736 1321.59 34.952 1324.95 34.952C1328.26 34.952 1329.89 31.736 1329.89 25.256C1329.89 18.728 1328.26 15.464 1324.95 15.464C1321.59 15.464 1319.91 18.728 1319.91 25.256ZM1350.22 37.448C1350.22 39.752 1348.35 41.48 1346.05 41.48C1343.74 41.48 1341.92 39.752 1341.92 37.448C1341.92 35.144 1343.74 33.464 1346.05 33.464C1348.35 33.464 1350.22 35.192 1350.22 37.448ZM1355.57 25.256C1355.57 14.36 1359.5 8.936 1367.33 8.936C1371.74 8.936 1374.91 10.664 1376.59 13.736C1378.32 16.808 1378.99 20.456 1378.99 25.256C1378.99 30.056 1378.32 33.608 1376.59 36.68C1374.91 39.752 1371.74 41.48 1367.33 41.48C1359.5 41.48 1355.57 36.056 1355.57 25.256ZM1362.29 25.256C1362.29 31.736 1363.97 34.952 1367.33 34.952C1370.64 34.952 1372.27 31.736 1372.27 25.256C1372.27 18.728 1370.64 15.464 1367.33 15.464C1363.97 15.464 1362.29 18.728 1362.29 25.256ZM1384.53 25.256C1384.53 14.36 1388.47 8.936 1396.29 8.936C1400.71 8.936 1403.88 10.664 1405.56 13.736C1407.29 16.808 1407.96 20.456 1407.96 25.256C1407.96 30.056 1407.29 33.608 1405.56 36.68C1403.88 39.752 1400.71 41.48 1396.29 41.48C1388.47 41.48 1384.53 36.056 1384.53 25.256ZM1391.25 25.256C1391.25 31.736 1392.93 34.952 1396.29 34.952C1399.61 34.952 1401.24 31.736 1401.24 25.256C1401.24 18.728 1399.61 15.464 1396.29 15.464C1392.93 15.464 1391.25 18.728 1391.25 25.256ZM1413.5 25.256C1413.5 14.36 1417.44 8.936 1425.26 8.936C1429.68 8.936 1432.85 10.664 1434.53 13.736C1436.25 16.808 1436.93 20.456 1436.93 25.256C1436.93 30.056 1436.25 33.608 1434.53 36.68C1432.85 39.752 1429.68 41.48 1425.26 41.48C1417.44 41.48 1413.5 36.056 1413.5 25.256ZM1420.22 25.256C1420.22 31.736 1421.9 34.952 1425.26 34.952C1428.57 34.952 1430.21 31.736 1430.21 25.256C1430.21 18.728 1428.57 15.464 1425.26 15.464C1421.9 15.464 1420.22 18.728 1420.22 25.256Z" fill="white"/>
<rect x="488" width="16" height="53" rx="8" fill="#13AFB6"/>
<rect x="88" width="16" height="53" rx="8" fill="#13AFB6"/>
<rect x="514" width="16" height="53" rx="8" fill="#13AFB6"/>
<rect x="114" width="16" height="53" rx="8" fill="#13AFB6"/>
<rect x="540" width="17" height="53" rx="8.5" fill="#13AFB6"/>
<rect x="140" width="17" height="53" rx="8.5" fill="#13AFB6"/>
<rect x="567" width="17" height="53" rx="8.5" fill="#13AFB6"/>
<rect x="167" width="17" height="53" rx="8.5" fill="#13AFB6"/>
<rect x="594" width="17" height="53" rx="8.5" fill="#13AFB6"/>
<rect x="194" width="17" height="53" rx="8.5" fill="#13AFB6"/>
<rect x="621" width="17" height="53" rx="8.5" fill="#13AFB6"/>
<rect x="221" width="17" height="53" rx="8.5" fill="#13AFB6"/>
<rect x="648" width="17" height="53" rx="8.5" fill="#13AFB6"/>
<rect x="248" width="17" height="53" rx="8.5" fill="#13AFB6"/>
<rect x="675" width="17" height="53" rx="8.5" fill="#13AFB6"/>
<rect x="275" width="17" height="53" rx="8.5" fill="#13AFB6"/>
<rect x="702" width="16" height="53" rx="8" fill="#13AFB6"/>
<rect x="302" width="16" height="53" rx="8" fill="#13AFB6"/>
<rect x="728" width="17" height="53" rx="8.5" fill="#13AFB6"/>
<rect x="328" width="17" height="53" rx="8.5" fill="#13AFB6"/>
<rect x="755" width="17" height="53" rx="8.5" fill="#13AFB6"/>
<rect x="355" width="17" height="53" rx="8.5" fill="#13AFB6"/>
<rect x="782" width="16" height="53" rx="8" fill="#13AFB6"/>
<rect x="382" width="16" height="53" rx="8" fill="#13AFB6"/>
<rect x="808" width="17" height="53" rx="8.5" fill="#13AFB6"/>
<rect x="408" width="17" height="53" rx="8.5" fill="#13AFB6"/>
<rect x="835" width="17" height="53" rx="8.5" fill="white"/>
<rect x="435" width="17" height="53" rx="8.5" fill="#13AFB6"/>
<rect x="862" width="16" height="53" rx="8" fill="white"/>
<rect x="462" width="16" height="53" rx="8" fill="#13AFB6"/>
<rect x="888" width="17" height="53" rx="8.5" fill="white"/>
<rect x="915" width="17" height="53" rx="8.5" fill="white"/>
<rect x="942" width="16" height="53" rx="8" fill="white"/>
<rect x="968" width="17" height="53" rx="8.5" fill="white"/>
<rect x="995" width="17" height="53" rx="8.5" fill="white"/>
<rect x="1022" width="16" height="53" rx="8" fill="white"/>
<rect x="1048" width="17" height="53" rx="8.5" fill="white"/>
<rect x="1075" width="17" height="53" rx="8.5" fill="#D9D9D9"/>
<rect x="1102" width="17" height="53" rx="8.5" fill="#D9D9D9"/>
<rect x="1129" width="17" height="53" rx="8.5" fill="#D9D9D9"/>
<rect x="1156" width="17" height="53" rx="8.5" fill="#D9D9D9"/>
<rect x="1183" width="17" height="53" rx="8.5" fill="#D9D9D9"/>
<rect x="1210" width="16" height="53" rx="8" fill="#D9D9D9"/>
<rect x="1236" width="16" height="53" rx="8" fill="#D9D9D9"/>
</svg>
