<svg width="970" height="253" viewBox="0 0 970 253" fill="none" xmlns="http://www.w3.org/2000/svg">
    <path d="M841 123L831 117.226V128.774L841 123ZM145 124H832V122H145V124Z" fill="#505D65"/>
    <path d="M57.6166 205.88V201.665H59.8366V212H57.6166V207.845H53.9416V212H51.7516V201.665H53.9416V205.88H57.6166ZM69.9642 206.855C69.9642 205.985 69.6642 205.25 69.0642 204.635C68.4792 204.02 67.7592 203.72 66.9042 203.72C66.0492 203.72 65.3292 204.02 64.7442 204.635C64.1592 205.25 63.8592 205.985 63.8592 206.855C63.8592 207.725 64.1592 208.46 64.7442 209.075C65.3292 209.675 66.0492 209.975 66.9042 209.975C67.7592 209.975 68.4792 209.675 69.0642 209.06C69.6642 208.445 69.9642 207.71 69.9642 206.855ZM61.6692 206.855C61.6692 205.385 62.1792 204.14 63.1842 203.105C64.2042 202.07 65.4492 201.545 66.9042 201.545C68.3742 201.545 69.6192 202.07 70.6242 203.105C71.6442 204.14 72.1542 205.385 72.1542 206.855C72.1542 208.31 71.6442 209.57 70.6242 210.605C69.6042 211.64 68.3592 212.15 66.9042 212.15C65.4492 212.15 64.2042 211.64 63.1842 210.605C62.1792 209.57 61.6692 208.31 61.6692 206.855ZM75.7486 203.645H72.9586V201.665H80.7586V203.645H77.9686V212H75.7486V203.645ZM89.0712 212H82.3962V201.665H88.9362V203.6H84.5862V205.955H88.3962V207.86H84.5862V210.065H89.0712V212ZM97.1137 212H91.0387V201.665H93.2437V210.065H97.1137V212ZM98.1449 208.97H100.35C100.395 209.675 100.95 210.215 101.895 210.215C102.795 210.215 103.395 209.78 103.41 209.12C103.425 208.595 103.14 208.235 102.165 207.95L100.92 207.605C99.1349 207.05 98.2499 206.06 98.2499 204.635C98.2499 203.72 98.5949 202.985 99.2699 202.415C99.9449 201.83 100.8 201.545 101.805 201.545C102.825 201.545 103.665 201.83 104.31 202.4C104.97 202.97 105.3 203.735 105.3 204.71H103.11C103.11 204.005 102.63 203.54 101.775 203.54C100.995 203.54 100.44 203.975 100.44 204.575C100.44 205.07 100.815 205.415 101.55 205.625L102.78 206.015C104.715 206.57 105.66 207.62 105.615 209.135C105.6 209.78 105.42 210.35 105.045 210.83C104.31 211.775 103.17 212.165 101.895 212.165C100.77 212.165 99.8699 211.865 99.1799 211.28C98.4899 210.68 98.1449 209.915 98.1449 208.97ZM107.58 214.025L106.23 213.515C106.935 212.555 107.415 211.055 107.4 209.63H109.515C109.5 210.665 109.305 211.565 108.9 212.3C108.51 213.035 108.075 213.62 107.58 214.025ZM3.5684 226.645H0.778398V224.665H8.5784V226.645H5.7884V235H3.5684V226.645ZM14.341 226.6H12.421V229.51H14.281C15.076 229.51 15.586 228.79 15.586 228.055C15.586 227.335 15.106 226.6 14.341 226.6ZM15.301 231.34L17.866 235H15.226L12.916 231.43H12.421V235H10.216V224.665H14.446C15.541 224.665 16.396 224.995 16.981 225.67C17.581 226.33 17.881 227.125 17.881 228.055C17.881 229.63 16.981 230.98 15.301 231.34ZM23.4868 227.05L22.4368 230.65H24.5818L23.4868 227.05ZM26.2018 235L25.2868 232.555H21.7168L20.8018 235H18.4618L22.3018 224.665H24.6868L28.5118 235H26.2018ZM31.3168 235L28.1668 224.665H30.4468L32.2918 231.445L34.1218 224.665H36.4168L33.2668 235H31.3168ZM44.5472 235H37.8722V224.665H44.4122V226.6H40.0622V228.955H43.8722V230.86H40.0622V233.065H44.5472V235ZM52.5898 235H46.5148V224.665H48.7198V233.065H52.5898V235ZM63.2745 226.12L64.6395 231.175L66.6645 224.665H69.0495L65.5395 235H63.8145L62.3595 229.57L60.9345 235H59.1945L55.7145 224.665H58.0845L60.0945 231.175L61.4745 226.12H63.2745ZM76.0956 228.88V224.665H78.3156V235H76.0956V230.845H72.4206V235H70.2306V224.665H72.4206V228.88H76.0956ZM88.4432 229.855C88.4432 228.985 88.1432 228.25 87.5432 227.635C86.9582 227.02 86.2382 226.72 85.3832 226.72C84.5282 226.72 83.8082 227.02 83.2232 227.635C82.6382 228.25 82.3382 228.985 82.3382 229.855C82.3382 230.725 82.6382 231.46 83.2232 232.075C83.8082 232.675 84.5282 232.975 85.3832 232.975C86.2382 232.975 86.9582 232.675 87.5432 232.06C88.1432 231.445 88.4432 230.71 88.4432 229.855ZM80.1482 229.855C80.1482 228.385 80.6582 227.14 81.6632 226.105C82.6832 225.07 83.9282 224.545 85.3832 224.545C86.8532 224.545 88.0982 225.07 89.1032 226.105C90.1232 227.14 90.6332 228.385 90.6332 229.855C90.6332 231.31 90.1232 232.57 89.1032 233.605C88.0832 234.64 86.8382 235.15 85.3832 235.15C83.9282 235.15 82.6832 234.64 81.6632 233.605C80.6582 232.57 80.1482 231.31 80.1482 229.855ZM98.542 235H92.467V224.665H94.672V233.065H98.542V235ZM106.803 235H100.128V224.665H106.668V226.6H102.318V228.955H106.128V230.86H102.318V233.065H106.803V235ZM108.098 231.97H110.303C110.348 232.675 110.903 233.215 111.848 233.215C112.748 233.215 113.348 232.78 113.363 232.12C113.378 231.595 113.093 231.235 112.118 230.95L110.873 230.605C109.088 230.05 108.203 229.06 108.203 227.635C108.203 226.72 108.548 225.985 109.223 225.415C109.898 224.83 110.753 224.545 111.758 224.545C112.778 224.545 113.618 224.83 114.263 225.4C114.923 225.97 115.253 226.735 115.253 227.71H113.063C113.063 227.005 112.583 226.54 111.728 226.54C110.948 226.54 110.393 226.975 110.393 227.575C110.393 228.07 110.768 228.415 111.503 228.625L112.733 229.015C114.668 229.57 115.613 230.62 115.568 232.135C115.553 232.78 115.373 233.35 114.998 233.83C114.263 234.775 113.123 235.165 111.848 235.165C110.723 235.165 109.823 234.865 109.133 234.28C108.443 233.68 108.098 232.915 108.098 231.97ZM121.104 227.05L120.054 230.65H122.199L121.104 227.05ZM123.819 235L122.904 232.555H119.334L118.419 235H116.079L119.919 224.665H122.304L126.129 235H123.819ZM133.347 235H127.272V224.665H129.477V233.065H133.347V235ZM141.608 235H134.933V224.665H141.473V226.6H137.123V228.955H140.933V230.86H137.123V233.065H141.608V235ZM147.7 226.6H145.78V229.51H147.64C148.435 229.51 148.945 228.79 148.945 228.055C148.945 227.335 148.465 226.6 147.7 226.6ZM148.66 231.34L151.225 235H148.585L146.275 231.43H145.78V235H143.575V224.665H147.805C148.9 224.665 149.755 224.995 150.34 225.67C150.94 226.33 151.24 227.125 151.24 228.055C151.24 229.63 150.34 230.98 148.66 231.34ZM152.571 231.97H154.776C154.821 232.675 155.376 233.215 156.321 233.215C157.221 233.215 157.821 232.78 157.836 232.12C157.851 231.595 157.566 231.235 156.591 230.95L155.346 230.605C153.561 230.05 152.676 229.06 152.676 227.635C152.676 226.72 153.021 225.985 153.696 225.415C154.371 224.83 155.226 224.545 156.231 224.545C157.251 224.545 158.091 224.83 158.736 225.4C159.396 225.97 159.726 226.735 159.726 227.71H157.536C157.536 227.005 157.056 226.54 156.201 226.54C155.421 226.54 154.866 226.975 154.866 227.575C154.866 228.07 155.241 228.415 155.976 228.625L157.206 229.015C159.141 229.57 160.086 230.62 160.041 232.135C160.026 232.78 159.846 233.35 159.471 233.83C158.736 234.775 157.596 235.165 156.321 235.165C155.196 235.165 154.296 234.865 153.606 234.28C152.916 233.68 152.571 232.915 152.571 231.97Z"
          fill="#70757E"/>
    <path d="M895.443 207.35V212H893.208V207.32L889.218 201.665H891.828L894.318 205.535L896.838 201.665H899.448L895.443 207.35ZM907.523 206.855C907.523 205.985 907.223 205.25 906.623 204.635C906.038 204.02 905.318 203.72 904.463 203.72C903.608 203.72 902.888 204.02 902.303 204.635C901.718 205.25 901.418 205.985 901.418 206.855C901.418 207.725 901.718 208.46 902.303 209.075C902.888 209.675 903.608 209.975 904.463 209.975C905.318 209.975 906.038 209.675 906.623 209.06C907.223 208.445 907.523 207.71 907.523 206.855ZM899.228 206.855C899.228 205.385 899.738 204.14 900.743 203.105C901.763 202.07 903.008 201.545 904.463 201.545C905.933 201.545 907.178 202.07 908.183 203.105C909.203 204.14 909.713 205.385 909.713 206.855C909.713 208.31 909.203 209.57 908.183 210.605C907.163 211.64 905.918 212.15 904.463 212.15C903.008 212.15 901.763 211.64 900.743 210.605C899.738 209.57 899.228 208.31 899.228 206.855ZM917.247 208.31V201.665H919.452V208.31C919.452 209.45 919.062 210.38 918.282 211.085C917.502 211.79 916.557 212.15 915.462 212.15C914.367 212.15 913.422 211.79 912.627 211.085C911.832 210.38 911.442 209.45 911.442 208.31V201.665H913.677V208.31C913.677 208.835 913.857 209.255 914.202 209.585C914.562 209.915 914.982 210.08 915.462 210.08C915.942 210.08 916.362 209.915 916.707 209.585C917.067 209.24 917.247 208.82 917.247 208.31Z"
          fill="#70757E"/>
    <g filter="url(#filter0_d_0_154)">
        <circle cx="493.5" cy="122.5" r="106.5" fill="white"/>
    </g>
    <g filter="url(#filter1_d_0_154)">
        <circle cx="266" cy="123" r="45" fill="white"/>
    </g>
    <g filter="url(#filter2_d_0_154)">
        <circle cx="721" cy="123" r="45" fill="white"/>
    </g>
    <circle cx="80.5" cy="122.5" r="64.5" fill="#505D65"/>
    <circle cx="905.5" cy="122.5" r="64.5" fill="#505D65"/>
    <path d="M237.476 114.94L239.096 109.732H241.004L238.196 118H236.816L235.652 113.656L234.512 118H233.12L230.336 109.732H232.232L233.84 114.94C233.984 114.42 234.352 113.072 234.944 110.896H236.384L237.476 114.94ZM246.641 109.732H248.417V118H246.641V114.676H243.701V118H241.949V109.732H243.701V113.104H246.641V109.732ZM252.343 112.108C251.871 112.596 251.635 113.188 251.635 113.884C251.635 114.58 251.871 115.172 252.343 115.66C252.815 116.14 253.391 116.38 254.071 116.38C254.751 116.38 255.327 116.136 255.799 115.648C256.279 115.16 256.519 114.572 256.519 113.884C256.519 113.188 256.279 112.596 255.799 112.108C255.327 111.62 254.751 111.376 254.071 111.376C253.391 111.376 252.815 111.62 252.343 112.108ZM249.883 113.884C249.883 112.708 250.287 111.708 251.095 110.884C251.911 110.052 252.903 109.636 254.071 109.636C255.247 109.636 256.239 110.052 257.047 110.884C257.863 111.708 258.271 112.708 258.271 113.884C258.271 115.052 257.863 116.052 257.047 116.884C256.231 117.708 255.239 118.12 254.071 118.12C252.903 118.12 251.911 117.708 251.095 116.884C250.287 116.052 249.883 115.052 249.883 113.884ZM259.738 118V109.732H261.502V116.452H264.598V118H259.738ZM265.867 118V109.732H271.099V111.28H267.619V113.164H270.667V114.688H267.619V116.452H271.207V118H265.867ZM272.243 115.576H274.007C274.023 115.856 274.139 116.092 274.355 116.284C274.571 116.476 274.867 116.572 275.243 116.572C275.603 116.572 275.891 116.492 276.107 116.332C276.331 116.172 276.447 115.96 276.455 115.696C276.463 115.488 276.395 115.308 276.251 115.156C276.115 115.004 275.851 114.872 275.459 114.76L274.463 114.484C273.039 114.044 272.327 113.252 272.327 112.108C272.327 111.38 272.599 110.788 273.143 110.332C273.687 109.868 274.363 109.636 275.171 109.636C275.987 109.636 276.655 109.864 277.175 110.32C277.703 110.776 277.967 111.392 277.967 112.168H276.215C276.215 111.888 276.123 111.664 275.939 111.496C275.755 111.32 275.491 111.232 275.147 111.232C274.835 111.232 274.579 111.312 274.379 111.472C274.179 111.624 274.079 111.82 274.079 112.06C274.079 112.452 274.375 112.732 274.967 112.9L275.951 113.212C277.503 113.66 278.259 114.492 278.219 115.708C278.211 116.228 278.059 116.68 277.763 117.064C277.467 117.44 277.099 117.712 276.659 117.88C276.227 118.048 275.755 118.132 275.243 118.132C274.347 118.132 273.623 117.896 273.071 117.424C272.519 116.944 272.243 116.328 272.243 115.576ZM281.807 114.52H283.523L282.647 111.64L281.807 114.52ZM284.087 116.044H281.231L280.499 118H278.627L281.699 109.732H283.607L286.667 118H284.819L284.087 116.044ZM287.581 118V109.732H289.345V116.452H292.441V118H287.581ZM293.71 118V109.732H298.942V111.28H295.462V113.164H298.51V114.688H295.462V116.452H299.05V118H293.71ZM252.328 129.28H250.732V131.608H252.28C252.6 131.608 252.852 131.488 253.036 131.248C253.228 131.008 253.324 130.74 253.324 130.444C253.324 130.156 253.232 129.892 253.048 129.652C252.872 129.404 252.632 129.28 252.328 129.28ZM248.968 136V127.732H252.364C253.252 127.732 253.928 128 254.392 128.536C254.856 129.064 255.088 129.7 255.088 130.444C255.088 131.188 254.856 131.824 254.392 132.352C253.928 132.88 253.252 133.144 252.364 133.144H250.732V136H248.968ZM259.639 129.28H258.103V131.608H259.591C259.911 131.608 260.163 131.488 260.347 131.248C260.539 131.008 260.635 130.74 260.635 130.444C260.635 130.156 260.543 129.892 260.359 129.652C260.183 129.404 259.943 129.28 259.639 129.28ZM260.407 133.072L262.459 136H260.347L258.499 133.144H258.103V136H256.339V127.732H259.723C260.603 127.732 261.279 128 261.751 128.536C262.231 129.064 262.471 129.7 262.471 130.444C262.471 131.076 262.295 131.636 261.943 132.124C261.591 132.612 261.079 132.928 260.407 133.072ZM263.98 127.732H265.732V136H263.98V127.732ZM273.407 133.324L274.823 134.308C274.455 134.868 273.967 135.312 273.359 135.64C272.751 135.96 272.079 136.12 271.343 136.12C270.167 136.12 269.179 135.708 268.379 134.884C267.587 134.06 267.191 133.06 267.191 131.884C267.191 130.7 267.587 129.696 268.379 128.872C269.179 128.048 270.167 127.636 271.343 127.636C272.063 127.636 272.723 127.796 273.323 128.116C273.931 128.428 274.419 128.852 274.787 129.388L273.359 130.372C272.863 129.652 272.191 129.292 271.343 129.292C270.663 129.292 270.095 129.544 269.639 130.048C269.183 130.544 268.955 131.156 268.955 131.884C268.955 132.604 269.183 133.216 269.639 133.72C270.095 134.216 270.663 134.464 271.343 134.464C271.767 134.464 272.159 134.36 272.519 134.152C272.879 133.944 273.175 133.668 273.407 133.324ZM276.062 136V127.732H281.294V129.28H277.814V131.164H280.862V132.688H277.814V134.452H281.402V136H276.062Z"
          fill="#70757E"/>
    <path d="M692.476 114.94L694.096 109.732H696.004L693.196 118H691.816L690.652 113.656L689.512 118H688.12L685.336 109.732H687.232L688.84 114.94C688.984 114.42 689.352 113.072 689.944 110.896H691.384L692.476 114.94ZM701.641 109.732H703.417V118H701.641V114.676H698.701V118H696.949V109.732H698.701V113.104H701.641V109.732ZM707.343 112.108C706.871 112.596 706.635 113.188 706.635 113.884C706.635 114.58 706.871 115.172 707.343 115.66C707.815 116.14 708.391 116.38 709.071 116.38C709.751 116.38 710.327 116.136 710.799 115.648C711.279 115.16 711.519 114.572 711.519 113.884C711.519 113.188 711.279 112.596 710.799 112.108C710.327 111.62 709.751 111.376 709.071 111.376C708.391 111.376 707.815 111.62 707.343 112.108ZM704.883 113.884C704.883 112.708 705.287 111.708 706.095 110.884C706.911 110.052 707.903 109.636 709.071 109.636C710.247 109.636 711.239 110.052 712.047 110.884C712.863 111.708 713.271 112.708 713.271 113.884C713.271 115.052 712.863 116.052 712.047 116.884C711.231 117.708 710.239 118.12 709.071 118.12C707.903 118.12 706.911 117.708 706.095 116.884C705.287 116.052 704.883 115.052 704.883 113.884ZM714.738 118V109.732H716.502V116.452H719.598V118H714.738ZM720.867 118V109.732H726.099V111.28H722.619V113.164H725.667V114.688H722.619V116.452H726.207V118H720.867ZM727.243 115.576H729.007C729.023 115.856 729.139 116.092 729.355 116.284C729.571 116.476 729.867 116.572 730.243 116.572C730.603 116.572 730.891 116.492 731.107 116.332C731.331 116.172 731.447 115.96 731.455 115.696C731.463 115.488 731.395 115.308 731.251 115.156C731.115 115.004 730.851 114.872 730.459 114.76L729.463 114.484C728.039 114.044 727.327 113.252 727.327 112.108C727.327 111.38 727.599 110.788 728.143 110.332C728.687 109.868 729.363 109.636 730.171 109.636C730.987 109.636 731.655 109.864 732.175 110.32C732.703 110.776 732.967 111.392 732.967 112.168H731.215C731.215 111.888 731.123 111.664 730.939 111.496C730.755 111.32 730.491 111.232 730.147 111.232C729.835 111.232 729.579 111.312 729.379 111.472C729.179 111.624 729.079 111.82 729.079 112.06C729.079 112.452 729.375 112.732 729.967 112.9L730.951 113.212C732.503 113.66 733.259 114.492 733.219 115.708C733.211 116.228 733.059 116.68 732.763 117.064C732.467 117.44 732.099 117.712 731.659 117.88C731.227 118.048 730.755 118.132 730.243 118.132C729.347 118.132 728.623 117.896 728.071 117.424C727.519 116.944 727.243 116.328 727.243 115.576ZM736.807 114.52H738.523L737.647 111.64L736.807 114.52ZM739.087 116.044H736.231L735.499 118H733.627L736.699 109.732H738.607L741.667 118H739.819L739.087 116.044ZM742.581 118V109.732H744.345V116.452H747.441V118H742.581ZM748.71 118V109.732H753.942V111.28H750.462V113.164H753.51V114.688H750.462V116.452H754.05V118H748.71ZM707.328 129.28H705.732V131.608H707.28C707.6 131.608 707.852 131.488 708.036 131.248C708.228 131.008 708.324 130.74 708.324 130.444C708.324 130.156 708.232 129.892 708.048 129.652C707.872 129.404 707.632 129.28 707.328 129.28ZM703.968 136V127.732H707.364C708.252 127.732 708.928 128 709.392 128.536C709.856 129.064 710.088 129.7 710.088 130.444C710.088 131.188 709.856 131.824 709.392 132.352C708.928 132.88 708.252 133.144 707.364 133.144H705.732V136H703.968ZM714.639 129.28H713.103V131.608H714.591C714.911 131.608 715.163 131.488 715.347 131.248C715.539 131.008 715.635 130.74 715.635 130.444C715.635 130.156 715.543 129.892 715.359 129.652C715.183 129.404 714.943 129.28 714.639 129.28ZM715.407 133.072L717.459 136H715.347L713.499 133.144H713.103V136H711.339V127.732H714.723C715.603 127.732 716.279 128 716.751 128.536C717.231 129.064 717.471 129.7 717.471 130.444C717.471 131.076 717.295 131.636 716.943 132.124C716.591 132.612 716.079 132.928 715.407 133.072ZM718.98 127.732H720.732V136H718.98V127.732ZM728.407 133.324L729.823 134.308C729.455 134.868 728.967 135.312 728.359 135.64C727.751 135.96 727.079 136.12 726.343 136.12C725.167 136.12 724.179 135.708 723.379 134.884C722.587 134.06 722.191 133.06 722.191 131.884C722.191 130.7 722.587 129.696 723.379 128.872C724.179 128.048 725.167 127.636 726.343 127.636C727.063 127.636 727.723 127.796 728.323 128.116C728.931 128.428 729.419 128.852 729.787 129.388L728.359 130.372C727.863 129.652 727.191 129.292 726.343 129.292C725.663 129.292 725.095 129.544 724.639 130.048C724.183 130.544 723.955 131.156 723.955 131.884C723.955 132.604 724.183 133.216 724.639 133.72C725.095 134.216 725.663 134.464 726.343 134.464C726.767 134.464 727.159 134.36 727.519 134.152C727.879 133.944 728.175 133.668 728.407 133.324ZM731.062 136V127.732H736.294V129.28H732.814V131.164H735.862V132.688H732.814V134.452H736.402V136H731.062Z"
          fill="#70757E"/>
    <path d="M70.829 117.101H66.3439C65.0088 117.101 63.907 118.175 63.907 119.506V123.933C63.907 125.251 64.9958 126.338 66.3439 126.338H70.829C72.1641 126.338 73.2659 125.264 73.2659 123.933V119.506C73.2659 118.188 72.1771 117.101 70.829 117.101ZM70.9716 123.933C70.9716 124.01 70.9068 124.074 70.829 124.074H66.3439C66.2661 124.074 66.2013 124.01 66.2013 123.933V119.506C66.2013 119.429 66.2661 119.365 66.3439 119.365H70.829C70.9068 119.365 70.9716 119.429 70.9716 119.506V123.933Z"
          fill="#D9D9D9"/>
    <path d="M82.236 117.101H77.751C76.4158 117.101 75.314 118.175 75.314 119.506V123.933C75.314 125.251 76.4029 126.338 77.751 126.338H82.236C83.5712 126.338 84.673 125.264 84.673 123.933V119.506C84.673 118.188 83.5841 117.101 82.236 117.101ZM82.3786 123.933C82.3786 124.01 82.3138 124.074 82.236 124.074H77.751C77.6732 124.074 77.6084 124.01 77.6084 123.933V119.506C77.6084 119.429 77.6732 119.365 77.751 119.365H82.236C82.3138 119.365 82.3786 119.429 82.3786 119.506V123.933Z"
          fill="#D9D9D9"/>
    <path d="M93.6431 117.101H89.1581C87.8229 117.101 86.7211 118.175 86.7211 119.506V123.933C86.7211 125.251 87.8099 126.338 89.1581 126.338H93.6431C94.9783 126.338 96.0801 125.264 96.0801 123.933V119.506C96.0801 118.188 94.9912 117.101 93.6431 117.101ZM93.7857 123.933C93.7857 124.01 93.7209 124.074 93.6431 124.074H89.1581C89.0803 124.074 89.0155 124.01 89.0155 123.933V119.506C89.0155 119.429 89.0803 119.365 89.1581 119.365H93.6431C93.7209 119.365 93.7857 119.429 93.7857 119.506V123.933Z"
          fill="#D9D9D9"/>
    <path d="M70.829 128.795H66.3439C65.0088 128.795 63.907 129.87 63.907 131.2V135.627C63.907 136.945 64.9958 138.032 66.3439 138.032H70.829C72.1641 138.032 73.2659 136.958 73.2659 135.627V131.2C73.2659 129.882 72.1771 128.795 70.829 128.795ZM70.9716 135.627C70.9716 135.704 70.9068 135.768 70.829 135.768H66.3439C66.2661 135.768 66.2013 135.704 66.2013 135.627V131.2C66.2013 131.123 66.2661 131.06 66.3439 131.06H70.829C70.9068 131.06 70.9716 131.123 70.9716 131.2V135.627Z"
          fill="#D9D9D9"/>
    <path d="M82.236 128.795H77.751C76.4158 128.795 75.314 129.87 75.314 131.2V135.627C75.314 136.945 76.4029 138.032 77.751 138.032H82.236C83.5712 138.032 84.673 136.958 84.673 135.627V131.2C84.673 129.882 83.5841 128.795 82.236 128.795ZM82.3786 135.627C82.3786 135.704 82.3138 135.768 82.236 135.768H77.751C77.6732 135.768 77.6084 135.704 77.6084 135.627V131.2C77.6084 131.123 77.6732 131.06 77.751 131.06H82.236C82.3138 131.06 82.3786 131.123 82.3786 131.2V135.627Z"
          fill="#D9D9D9"/>
    <path d="M93.6431 128.795H89.1581C87.8229 128.795 86.7211 129.87 86.7211 131.2V135.627C86.7211 136.945 87.8099 138.032 89.1581 138.032H93.6431C94.9783 138.032 96.0801 136.958 96.0801 135.627V131.2C96.0801 129.882 94.9912 128.795 93.6431 128.795ZM93.7857 135.627C93.7857 135.704 93.7209 135.768 93.6431 135.768H89.1581C89.0803 135.768 89.0155 135.704 89.0155 135.627V131.2C89.0155 131.123 89.0803 131.06 89.1581 131.06H93.6431C93.7209 131.06 93.7857 131.123 93.7857 131.2V135.627Z"
          fill="#D9D9D9"/>
    <path d="M70.829 105.419H66.3439C65.0088 105.419 63.907 106.494 63.907 107.825V112.252C63.907 113.569 64.9958 114.657 66.3439 114.657H70.829C72.1641 114.657 73.2659 113.582 73.2659 112.252V107.825C73.2659 106.507 72.1771 105.419 70.829 105.419ZM70.9716 112.252C70.9716 112.328 70.9068 112.392 70.829 112.392H66.3439C66.2661 112.392 66.2013 112.328 66.2013 112.252V107.825C66.2013 107.748 66.2661 107.684 66.3439 107.684H70.829C70.9068 107.684 70.9716 107.748 70.9716 107.825V112.252Z"
          fill="#D9D9D9"/>
    <path d="M82.236 105.419H77.751C76.4158 105.419 75.314 106.494 75.314 107.825V112.252C75.314 113.569 76.4029 114.657 77.751 114.657H82.236C83.5712 114.657 84.673 113.582 84.673 112.252V107.825C84.673 106.507 83.5841 105.419 82.236 105.419ZM82.3786 112.252C82.3786 112.328 82.3138 112.392 82.236 112.392H77.751C77.6732 112.392 77.6084 112.328 77.6084 112.252V107.825C77.6084 107.748 77.6732 107.684 77.751 107.684H82.236C82.3138 107.684 82.3786 107.748 82.3786 107.825V112.252Z"
          fill="#D9D9D9"/>
    <path d="M93.6431 105.419H89.1581C87.8229 105.419 86.7211 106.494 86.7211 107.825V112.252C86.7211 113.569 87.8099 114.657 89.1581 114.657H93.6431C94.9783 114.657 96.0801 113.582 96.0801 112.252V107.825C96.0801 106.507 94.9912 105.419 93.6431 105.419ZM93.7857 112.252C93.7857 112.328 93.7209 112.392 93.6431 112.392H89.1581C89.0803 112.392 89.0155 112.328 89.0155 112.252V107.825C89.0155 107.748 89.0803 107.684 89.1581 107.684H93.6431C93.7209 107.684 93.7857 107.748 93.7857 107.825V112.252Z"
          fill="#D9D9D9"/>
    <path d="M68.7809 100.43L67.3939 102.093L68.379 102.707L69.2216 100.711L69.2475 100.685L70.0512 102.694L71.1012 102.093L69.7012 100.455V100.404L71.8401 100.737V99.5723L69.7142 99.9305V99.8922L71.1012 98.1905L70.0642 97.6147L69.2735 99.5979H69.2346L68.4439 97.6147L67.3939 98.2161L68.7679 99.8794L68.755 99.9305L66.6939 99.5723V100.737L68.7809 100.391V100.43Z"
          fill="#D9D9D9"/>
    <path d="M74.5492 102.093L75.5344 102.707L76.377 100.711L76.4029 100.685L77.2066 102.694L78.2565 102.093L76.8566 100.455V100.404L78.9954 100.737V99.5723L76.8695 99.9305V99.8922L78.2565 98.1905L77.2195 97.6147L76.4288 99.5979H76.3899L75.5992 97.6147L74.5492 98.2161L75.9233 99.8794L75.9103 99.9305L73.8493 99.5723V100.737L75.9362 100.391V100.43L74.5492 102.093Z"
          fill="#D9D9D9"/>
    <path d="M84.0249 99.8922L85.4119 98.1905L84.3749 97.6147L83.5842 99.5979H83.5453L82.7545 97.6147L81.7046 98.2161L83.0786 99.8794L83.0656 99.9305L81.0046 99.5723V100.737L83.0916 100.391V100.43L81.7046 102.093L82.6897 102.707L83.5323 100.711L83.5582 100.685L84.3619 102.694L85.4119 102.093L84.0119 100.455V100.404L86.1507 100.737V99.5723L84.0249 99.9305V99.8922Z"
          fill="#D9D9D9"/>
    <path d="M90.2469 100.43L88.8599 102.093L89.8451 102.707L90.6876 100.711L90.7136 100.685L91.5172 102.694L92.5672 102.093L91.1543 100.455V100.404L93.3061 100.737V99.5723L91.1802 99.9305V99.8922L92.5672 98.1905L91.5302 97.6147L90.7395 99.5979H90.7006L89.9099 97.6147L88.8599 98.2161L90.234 99.8794L90.221 99.9305L88.1599 99.5723V100.737L90.2469 100.391V100.43Z"
          fill="#D9D9D9"/>
    <path d="M109.12 150.277H103.339C103.352 150.174 103.365 150.085 103.365 149.97V95.8875C103.365 93.0983 101.395 91 98.7892 91H61.1978C58.5923 91 56.622 93.0983 56.622 95.8875V149.983C56.622 150.085 56.622 150.187 56.6479 150.29H50.8796C49.8426 150.29 49 151.121 49 152.145C49 153.168 49.8426 154 50.8796 154H109.12C110.157 154 111 153.168 111 152.145C111 151.121 110.157 150.29 109.12 150.29V150.277ZM73.9789 150.277V143.483C73.9789 142.741 74.6789 142.127 75.5344 142.127H78.8658V150.277H73.9789ZM86.0211 150.277H81.1472V142.127H84.4786C85.3341 142.127 86.0211 142.728 86.0211 143.483V150.277ZM88.3025 143.483C88.3025 141.487 86.5785 139.875 84.4656 139.875H75.5214C73.4085 139.875 71.6845 141.5 71.6845 143.483V150.277H60.3552C60.3682 150.174 60.3811 150.085 60.3811 149.97V95.8875C60.3811 95.3501 60.6015 94.7104 61.1978 94.7104H98.8022C99.3985 94.7104 99.6189 95.3501 99.6189 95.8875V149.983C99.6189 150.085 99.6189 150.187 99.6448 150.29H88.3025V143.483Z"
          fill="#D9D9D9"/>
    <circle cx="905.5" cy="102.5" r="6" stroke="#D9D9D9" stroke-width="3"/>
    <path d="M894 117.173C894 116.838 894.168 116.525 894.447 116.34L904.947 109.367C905.282 109.145 905.718 109.145 906.053 109.367L916.553 116.34C916.832 116.525 917 116.838 917 117.173V133.294C917 133.622 916.839 133.93 916.569 134.116L910.531 138.293C910.261 138.479 910.1 138.787 910.1 139.115V150.6C910.1 150.821 909.921 151 909.7 151H901.3C901.079 151 900.9 150.821 900.9 150.6V139.115C900.9 138.787 900.739 138.479 900.469 138.293L894.431 134.116C894.161 133.93 894 133.622 894 133.294V117.173Z"
          stroke="#D9D9D9" stroke-width="3"/>
    <g clip-path="url(#clip0_0_154)">
        <path d="M435.222 128.987C436.263 126.98 437.472 124.846 438.822 122.686C437.445 124.679 436.236 126.786 435.222 128.987Z"
              fill="url(#paint0_linear_0_154)"/>
        <path d="M493.019 87.0132V86.3979C492.939 85.7624 492.744 85.147 492.435 84.5851C488.48 77.4815 467.909 81.2674 446.438 93.0333C424.967 104.799 410.723 120.017 414.651 127.094C416.915 131.207 424.819 131.642 435.249 128.986C438.835 121.254 444.651 114.759 451.958 110.331C459.151 106.144 467.707 105.187 475.619 102.558C481.226 100.692 488.13 97.4413 491.3 92.7858C492.368 91.0467 492.959 89.0534 493.019 87.0132Z"
              fill="url(#paint1_linear_0_154)"/>
        <path d="M493.026 87.0132C492.972 89.06 492.381 91.06 491.307 92.8125C488.137 97.4948 481.233 100.719 475.625 102.585C467.707 105.187 459.151 106.144 451.958 110.331C446.733 113.455 442.254 117.669 438.829 122.685C437.486 124.846 436.27 126.96 435.229 128.986C430.266 138.632 428.929 146.485 432.482 149.608C438.56 154.96 456.619 144.438 472.825 126.137C486.364 110.846 494.316 94.9597 493.026 87.0132Z"
              fill="url(#paint2_linear_0_154)"/>
        <path d="M461.159 131.04V116.759C461.126 116.391 461.394 116.063 461.764 116.03C461.804 116.03 461.844 116.03 461.884 116.03H470.561C470.897 116.03 471.173 116.304 471.173 116.638C471.173 116.973 470.897 117.247 470.561 117.247H462.502V123.033H470.394C470.729 123.033 471.005 123.307 471.005 123.642C471.005 123.976 470.729 124.251 470.394 124.251H462.496V131.04C462.496 131.408 462.193 131.709 461.824 131.709C461.455 131.709 461.159 131.408 461.159 131.04Z"
              fill="#505D65"/>
        <path d="M475.659 131.04V116.639C475.659 116.271 475.961 115.97 476.33 115.97C476.7 115.97 477.002 116.271 477.002 116.639V131.04C477.002 131.408 476.7 131.709 476.33 131.709C475.961 131.709 475.659 131.408 475.659 131.04Z"
              fill="#505D65"/>
        <path d="M493.174 130.645C493.255 130.772 493.295 130.919 493.288 131.067C493.288 131.421 493.013 131.715 492.657 131.735C492.428 131.735 492.207 131.635 492.066 131.455L487.694 125.2H484.007V131.053C484.007 131.421 483.705 131.722 483.335 131.722C482.966 131.722 482.664 131.421 482.664 131.053V116.759C482.63 116.391 482.899 116.063 483.268 116.03C483.308 116.03 483.355 116.03 483.396 116.03H488.527C491.213 116.03 493.295 117.742 493.295 120.598C493.416 122.946 491.602 124.953 489.238 125.073C489.225 125.073 489.212 125.073 489.198 125.073L493.174 130.645ZM484.007 123.956H488.399C490.253 123.956 491.757 122.458 491.757 120.612C491.757 118.766 490.253 117.267 488.399 117.267H484.007V123.956Z"
              fill="#505D65"/>
        <path d="M498.392 130.926V116.759C498.359 116.391 498.627 116.063 498.997 116.03C499.037 116.03 499.077 116.03 499.118 116.03H507.794C508.13 116.03 508.406 116.304 508.406 116.638C508.406 116.973 508.13 117.247 507.794 117.247H499.735V123.033H507.633C507.969 123.033 508.244 123.307 508.244 123.642C508.244 123.976 507.969 124.251 507.633 124.251H499.729V130.431H507.788C508.124 130.431 508.399 130.705 508.399 131.04C508.399 131.374 508.124 131.649 507.788 131.649H499.118C498.748 131.682 498.426 131.408 498.392 131.04C498.392 131 498.392 130.966 498.392 130.926Z"
              fill="#505D65"/>
        <path d="M513.409 131.04V116.759C513.375 116.391 513.644 116.063 514.013 116.03C514.054 116.03 514.094 116.03 514.134 116.03H522.811C523.147 116.03 523.422 116.304 523.422 116.638C523.422 116.973 523.147 117.247 522.811 117.247H514.752V123.033H522.65C522.986 123.033 523.261 123.307 523.261 123.642C523.261 123.976 522.986 124.251 522.65 124.251H514.752V131.04C514.752 131.408 514.45 131.709 514.081 131.709C513.711 131.709 513.409 131.408 513.409 131.04Z"
              fill="#505D65"/>
        <path d="M527.909 130.926V116.639C527.909 116.271 528.211 115.97 528.58 115.97C528.95 115.97 529.252 116.271 529.252 116.639V130.431H536.304C536.639 130.431 536.915 130.706 536.915 131.04C536.915 131.374 536.639 131.649 536.304 131.649H528.641C528.271 131.682 527.942 131.415 527.909 131.047C527.909 131.007 527.909 130.966 527.909 130.926Z"
              fill="#505D65"/>
        <path d="M541.522 131.04V116.639C541.522 116.271 541.824 115.97 542.193 115.97C542.563 115.97 542.865 116.271 542.865 116.639V131.04C542.865 131.408 542.563 131.709 542.193 131.709C541.824 131.709 541.522 131.408 541.522 131.04Z"
              fill="#505D65"/>
        <path d="M548.527 130.926V116.759C548.493 116.391 548.762 116.063 549.131 116.03C549.171 116.03 549.212 116.03 549.252 116.03H557.929C558.265 116.03 558.54 116.304 558.54 116.638C558.54 116.973 558.265 117.247 557.929 117.247H549.87V123.033H557.768C558.103 123.033 558.379 123.307 558.379 123.642C558.379 123.976 558.103 124.251 557.768 124.251H549.863V130.431H557.922C558.258 130.431 558.533 130.705 558.533 131.04C558.533 131.374 558.258 131.649 557.922 131.649H549.252C548.882 131.682 548.56 131.408 548.527 131.04C548.527 131 548.527 130.966 548.527 130.926Z"
              fill="#505D65"/>
        <path d="M562.865 129.381C562.865 129.014 563.167 128.712 563.537 128.712C563.704 128.712 563.872 128.773 564.007 128.88C565.182 130.05 566.78 130.712 568.446 130.712C571.663 130.712 572.583 128.933 572.583 127.602C572.583 125.395 570.488 124.793 568.278 124.204C565.807 123.535 563.174 122.82 563.174 119.943C563.174 117.388 565.477 115.776 568.399 115.776C570.185 115.723 571.925 116.365 573.241 117.575C573.402 117.689 573.496 117.876 573.496 118.07C573.496 118.438 573.194 118.739 572.825 118.739C572.664 118.753 572.509 118.692 572.402 118.572C571.314 117.522 569.843 116.96 568.332 117.007C566.169 117.007 564.591 118.197 564.591 119.883C564.591 121.736 566.545 122.271 568.688 122.833C571.226 123.562 574 124.358 574 127.515C574 129.522 572.657 131.937 568.426 131.937C566.438 131.983 564.51 131.241 563.073 129.87C562.932 129.749 562.852 129.569 562.865 129.381Z"
              fill="#505D65"/>
        <path d="M481.811 141.936V138.003H480.467C480.373 138.003 480.293 137.923 480.293 137.829C480.293 137.736 480.373 137.655 480.467 137.655H483.483C483.577 137.655 483.657 137.736 483.657 137.829C483.657 137.923 483.577 138.003 483.483 138.003H482.14V141.936C482.14 142.043 482.052 142.13 481.945 142.13C481.837 142.13 481.75 142.043 481.75 141.936H481.811Z"
              fill="#505D65"/>
        <path d="M487.855 141.823C487.868 141.863 487.868 141.903 487.855 141.943C487.855 142.044 487.774 142.124 487.674 142.131C487.606 142.131 487.546 142.104 487.506 142.05L486.257 140.271H485.236V141.937C485.236 142.044 485.155 142.124 485.048 142.131C484.94 142.131 484.86 142.044 484.853 141.937V137.85C484.839 137.749 484.913 137.656 485.021 137.642C485.034 137.642 485.048 137.642 485.061 137.642H486.512C487.21 137.602 487.815 138.131 487.855 138.826C487.855 138.88 487.855 138.927 487.855 138.98C487.889 139.649 487.371 140.224 486.693 140.258H486.68L487.855 141.823ZM485.236 139.923H486.512C487.042 139.97 487.512 139.575 487.553 139.04C487.6 138.512 487.203 138.044 486.666 138.003C486.612 138.003 486.559 138.003 486.505 138.003H485.229V139.923H485.236Z"
              fill="#505D65"/>
        <path d="M492.825 141.93C492.825 142.043 492.737 142.13 492.623 142.13C492.543 142.13 492.469 142.077 492.435 142.003L492.039 141.013H489.641L489.245 142.003C489.212 142.077 489.138 142.13 489.057 142.13C488.943 142.13 488.856 142.043 488.856 141.93C488.856 141.93 488.856 141.876 488.856 141.849L490.541 137.849C490.595 137.722 490.716 137.642 490.85 137.642C490.985 137.642 491.112 137.722 491.166 137.849L492.818 141.863C492.818 141.863 492.825 141.91 492.825 141.93ZM491.884 140.672L490.823 137.997L489.769 140.672H491.884Z"
              fill="#505D65"/>
        <path d="M494.873 141.916L493.221 137.903C493.221 137.903 493.221 137.849 493.221 137.823C493.221 137.709 493.315 137.615 493.429 137.615C493.516 137.615 493.59 137.669 493.624 137.742L495.202 141.662L496.787 137.742C496.821 137.662 496.895 137.615 496.982 137.615C497.096 137.615 497.183 137.702 497.183 137.816C497.183 137.816 497.183 137.876 497.183 137.903L495.531 141.916C495.464 142.09 495.269 142.17 495.095 142.104C495.007 142.07 494.94 142.003 494.907 141.916H494.873Z"
              fill="#505D65"/>
        <path d="M498.298 141.903V137.849C498.285 137.749 498.359 137.655 498.466 137.642C498.48 137.642 498.493 137.642 498.506 137.642H500.985C501.079 137.642 501.159 137.722 501.159 137.816C501.159 137.91 501.079 137.99 500.985 137.99H498.681V139.655H500.938C501.032 139.655 501.112 139.736 501.112 139.829C501.112 139.923 501.032 140.003 500.938 140.003H498.681V141.762H500.985C501.079 141.762 501.159 141.843 501.159 141.936C501.159 142.03 501.079 142.11 500.985 142.11H498.506C498.406 142.124 498.312 142.05 498.298 141.943C498.298 141.93 498.298 141.916 498.298 141.903Z"
              fill="#505D65"/>
        <path d="M502.469 141.903V137.849C502.469 137.742 502.556 137.655 502.664 137.655C502.764 137.655 502.852 137.742 502.852 137.843C502.852 137.843 502.852 137.843 502.852 137.849V141.782H504.866C504.96 141.782 505.041 141.863 505.041 141.956C505.041 142.05 504.96 142.13 504.866 142.13H502.677C502.576 142.144 502.482 142.07 502.469 141.97C502.469 141.95 502.469 141.923 502.469 141.903Z"
              fill="#505D65"/>
        <path d="M508.359 141.903V137.849C508.345 137.749 508.419 137.655 508.527 137.642C508.54 137.642 508.553 137.642 508.567 137.642H511.045C511.139 137.642 511.22 137.722 511.22 137.816C511.22 137.91 511.139 137.99 511.045 137.99H508.741V139.655H510.998C511.092 139.655 511.173 139.736 511.173 139.829C511.173 139.923 511.092 140.003 510.998 140.003H508.741V141.762H511.045C511.139 141.762 511.22 141.843 511.22 141.936C511.22 142.03 511.139 142.11 511.045 142.11H508.567C508.466 142.124 508.372 142.05 508.359 141.943C508.359 141.93 508.359 141.916 508.359 141.903Z"
              fill="#505D65"/>
        <path d="M515.672 142.03L512.912 138.264V141.936C512.912 142.043 512.831 142.124 512.724 142.13C512.617 142.13 512.536 142.043 512.529 141.936V137.923C512.529 137.789 512.637 137.675 512.771 137.669C512.771 137.669 512.771 137.669 512.778 137.669C512.858 137.669 512.939 137.709 512.986 137.776L515.726 141.481V137.849C515.726 137.749 515.807 137.662 515.907 137.655C515.907 137.655 515.907 137.655 515.914 137.655C516.021 137.655 516.109 137.742 516.109 137.849V141.863C516.109 141.99 516.001 142.097 515.874 142.103C515.8 142.11 515.726 142.083 515.672 142.03Z"
              fill="#505D65"/>
        <path d="M517.606 141.903V137.849C517.606 137.742 517.694 137.655 517.801 137.655C517.902 137.655 517.989 137.742 517.989 137.843C517.989 137.843 517.989 137.843 517.989 137.849V141.782H520.004C520.098 141.782 520.179 141.863 520.179 141.956C520.179 142.05 520.098 142.13 520.004 142.13H517.815C517.714 142.144 517.62 142.07 517.606 141.97C517.606 141.95 517.606 141.923 517.606 141.903Z"
              fill="#505D65"/>
        <path d="M521.374 141.936V137.849C521.374 137.742 521.461 137.655 521.569 137.655C521.67 137.655 521.757 137.742 521.757 137.843C521.757 137.843 521.757 137.843 521.757 137.849V141.956C521.757 142.063 521.676 142.144 521.569 142.15C521.455 142.15 521.367 142.057 521.374 141.943C521.374 141.943 521.374 141.943 521.374 141.936Z"
              fill="#505D65"/>
        <path d="M527.056 140.11V141.301C527.062 141.401 527.022 141.495 526.948 141.555C526.015 142.418 524.557 142.364 523.691 141.441C522.825 140.511 522.878 139.06 523.805 138.197C524.228 137.809 524.779 137.588 525.357 137.582C525.941 137.568 526.505 137.789 526.921 138.204C526.955 138.237 526.968 138.277 526.968 138.324C526.982 138.418 526.915 138.505 526.814 138.518C526.814 138.518 526.814 138.518 526.807 138.518C526.76 138.518 526.72 138.498 526.686 138.471C525.874 137.782 524.651 137.876 523.96 138.685C523.268 139.495 523.362 140.712 524.175 141.401C524.504 141.682 524.92 141.843 525.357 141.863C525.86 141.863 526.344 141.669 526.7 141.321V140.244H525.155C525.061 140.264 524.967 140.204 524.947 140.11C524.927 140.016 524.987 139.923 525.081 139.903C525.101 139.903 525.128 139.903 525.148 139.903H526.868C526.968 139.903 527.056 139.99 527.049 140.097C527.049 140.097 527.049 140.103 527.049 140.11H527.056Z"
              fill="#505D65"/>
        <path d="M531.636 141.936V139.996H528.822V141.936C528.822 142.043 528.741 142.124 528.634 142.13C528.527 142.13 528.446 142.043 528.439 141.936V137.849C528.439 137.742 528.527 137.655 528.634 137.655C528.735 137.655 528.822 137.742 528.822 137.843C528.822 137.843 528.822 137.843 528.822 137.849V139.669H531.663V137.849C531.663 137.742 531.75 137.655 531.858 137.655C531.965 137.655 532.052 137.742 532.052 137.849V141.956C532.052 142.063 531.965 142.15 531.858 142.15C531.75 142.15 531.663 142.063 531.663 141.956L531.636 141.936Z"
              fill="#505D65"/>
        <path d="M534.658 141.936V138.003H533.349C533.255 138.003 533.174 137.923 533.174 137.829C533.174 137.736 533.255 137.655 533.349 137.655H536.364C536.458 137.655 536.539 137.736 536.539 137.829C536.539 137.923 536.458 138.003 536.364 138.003H535.021V141.936C535.021 142.043 534.934 142.13 534.826 142.13C534.719 142.13 534.631 142.043 534.631 141.936H534.658Z"
              fill="#505D65"/>
        <path d="M537.687 141.903V137.849C537.674 137.749 537.747 137.655 537.855 137.642C537.868 137.642 537.882 137.642 537.895 137.642H540.373C540.467 137.642 540.548 137.722 540.548 137.816C540.548 137.91 540.467 137.99 540.373 137.99H538.07V139.655H540.326C540.42 139.655 540.501 139.736 540.501 139.829C540.501 139.923 540.42 140.003 540.326 140.003H538.07V141.762H540.373C540.467 141.762 540.548 141.843 540.548 141.936C540.548 142.03 540.467 142.11 540.373 142.11H537.895C537.794 142.124 537.7 142.05 537.687 141.943C537.687 141.93 537.687 141.916 537.687 141.903Z"
              fill="#505D65"/>
        <path d="M545.001 142.03L542.254 138.264V141.936C542.254 142.043 542.173 142.124 542.066 142.13C541.958 142.13 541.878 142.043 541.871 141.936V137.923C541.871 137.789 541.978 137.675 542.113 137.669C542.113 137.669 542.113 137.669 542.12 137.669C542.2 137.669 542.281 137.709 542.328 137.776L545.068 141.481V137.849C545.068 137.749 545.148 137.662 545.249 137.655C545.249 137.655 545.249 137.655 545.256 137.655C545.363 137.655 545.451 137.742 545.451 137.849V141.863C545.451 141.99 545.343 142.097 545.216 142.103C545.135 142.117 545.054 142.09 545.001 142.03Z"
              fill="#505D65"/>
        <path d="M546.955 141.903V137.849C546.942 137.749 547.015 137.655 547.123 137.642C547.136 137.642 547.15 137.642 547.163 137.642H549.641C549.735 137.642 549.816 137.722 549.816 137.816C549.816 137.91 549.735 137.99 549.641 137.99H547.338V139.655H549.594C549.688 139.655 549.769 139.736 549.769 139.829C549.769 139.923 549.688 140.003 549.594 140.003H547.338V141.762H549.641C549.735 141.762 549.816 141.843 549.816 141.936C549.816 142.03 549.735 142.11 549.641 142.11H547.163C547.062 142.124 546.968 142.05 546.955 141.943C546.955 141.93 546.955 141.916 546.955 141.903Z"
              fill="#505D65"/>
        <path d="M551.105 141.903V137.849C551.092 137.749 551.166 137.655 551.273 137.642C551.287 137.642 551.3 137.642 551.314 137.642H552.536C553.772 137.642 554.772 138.639 554.772 139.87C554.772 141.1 553.772 142.097 552.536 142.097H551.314C551.213 142.11 551.119 142.037 551.105 141.93C551.105 141.923 551.105 141.91 551.105 141.903ZM552.536 141.762C553.577 141.762 554.423 140.92 554.423 139.883C554.423 138.846 553.577 138.003 552.536 138.003H551.488V141.762H552.536Z"
              fill="#505D65"/>
    </g>
    <defs>
        <filter id="filter0_d_0_154" x="367" y="0" width="253" height="253" filterUnits="userSpaceOnUse"
                color-interpolation-filters="sRGB">
            <feFlood flood-opacity="0" result="BackgroundImageFix"/>
            <feColorMatrix in="SourceAlpha" type="matrix" values="0 0 0 0 0 0 0 0 0 0 0 0 0 0 0 0 0 0 127 0"
                           result="hardAlpha"/>
            <feOffset dy="4"/>
            <feGaussianBlur stdDeviation="10"/>
            <feComposite in2="hardAlpha" operator="out"/>
            <feColorMatrix type="matrix" values="0 0 0 0 0 0 0 0 0 0 0 0 0 0 0 0 0 0 0.15 0"/>
            <feBlend mode="normal" in2="BackgroundImageFix" result="effect1_dropShadow_0_154"/>
            <feBlend mode="normal" in="SourceGraphic" in2="effect1_dropShadow_0_154" result="shape"/>
        </filter>
        <filter id="filter1_d_0_154" x="201" y="62" width="130" height="130" filterUnits="userSpaceOnUse"
                color-interpolation-filters="sRGB">
            <feFlood flood-opacity="0" result="BackgroundImageFix"/>
            <feColorMatrix in="SourceAlpha" type="matrix" values="0 0 0 0 0 0 0 0 0 0 0 0 0 0 0 0 0 0 127 0"
                           result="hardAlpha"/>
            <feOffset dy="4"/>
            <feGaussianBlur stdDeviation="10"/>
            <feComposite in2="hardAlpha" operator="out"/>
            <feColorMatrix type="matrix" values="0 0 0 0 0 0 0 0 0 0 0 0 0 0 0 0 0 0 0.15 0"/>
            <feBlend mode="normal" in2="BackgroundImageFix" result="effect1_dropShadow_0_154"/>
            <feBlend mode="normal" in="SourceGraphic" in2="effect1_dropShadow_0_154" result="shape"/>
        </filter>
        <filter id="filter2_d_0_154" x="656" y="62" width="130" height="130" filterUnits="userSpaceOnUse"
                color-interpolation-filters="sRGB">
            <feFlood flood-opacity="0" result="BackgroundImageFix"/>
            <feColorMatrix in="SourceAlpha" type="matrix" values="0 0 0 0 0 0 0 0 0 0 0 0 0 0 0 0 0 0 127 0"
                           result="hardAlpha"/>
            <feOffset dy="4"/>
            <feGaussianBlur stdDeviation="10"/>
            <feComposite in2="hardAlpha" operator="out"/>
            <feColorMatrix type="matrix" values="0 0 0 0 0 0 0 0 0 0 0 0 0 0 0 0 0 0 0.15 0"/>
            <feBlend mode="normal" in2="BackgroundImageFix" result="effect1_dropShadow_0_154"/>
            <feBlend mode="normal" in="SourceGraphic" in2="effect1_dropShadow_0_154" result="shape"/>
        </filter>
        <linearGradient id="paint0_linear_0_154" x1="435.222" y1="125.829" x2="438.829" y2="125.829"
                        gradientUnits="userSpaceOnUse">
            <stop stop-color="white"/>
            <stop offset="1"/>
        </linearGradient>
        <linearGradient id="paint1_linear_0_154" x1="414" y1="105.823" x2="493.019" y2="105.823"
                        gradientUnits="userSpaceOnUse">
            <stop stop-color="#03659C"/>
            <stop offset="1" stop-color="#06B2B8"/>
        </linearGradient>
        <linearGradient id="paint2_linear_0_154" x1="432.099" y1="143.047" x2="492.618" y2="95.3118"
                        gradientUnits="userSpaceOnUse">
            <stop stop-color="#06B2B8"/>
            <stop offset="0.2" stop-color="#06ABB5"/>
            <stop offset="0.49" stop-color="#0596AE"/>
            <stop offset="0.85" stop-color="#0476A2"/>
            <stop offset="1" stop-color="#03659C"/>
        </linearGradient>
        <clipPath id="clip0_0_154">
            <rect width="160" height="70" fill="white" transform="translate(414 81)"/>
        </clipPath>
    </defs>
</svg>


