<svg width="970" height="420" viewBox="0 0 970 420" fill="none" xmlns="http://www.w3.org/2000/svg">
    <path d="M429 68L417.838 65.0421L420.858 76.1874L429 68ZM130.261 149.965L420.575 71.3185L420.052 69.3881L129.739 148.035L130.261 149.965Z"
          fill="#505D65"/>
    <path d="M857.222 148.176L846.068 151.165L849.057 140.011L857.222 148.176ZM558.259 67.0341L848.787 144.881L848.27 146.813L557.741 68.9659L558.259 67.0341Z"
          fill="#505D65"/>
    <path d="M857.222 243L846.068 240.011L849.057 251.165L857.222 243ZM558.259 324.142L848.787 246.295L848.27 244.363L557.741 322.21L558.259 324.142Z"
          fill="#505D65"/>
    <path d="M429 316L417.838 318.958L420.858 307.813L429 316ZM130.261 234.035L420.575 312.681L420.052 314.612L129.739 235.965L130.261 234.035Z"
          fill="#505D65"/>
    <path d="M432.21 145.645H429.42V143.665H437.22V145.645H434.43V154H432.21V145.645ZM442.983 145.6H441.063V148.51H442.923C443.718 148.51 444.228 147.79 444.228 147.055C444.228 146.335 443.748 145.6 442.983 145.6ZM443.943 150.34L446.508 154H443.868L441.558 150.43H441.063V154H438.858V143.665H443.088C444.183 143.665 445.038 143.995 445.623 144.67C446.223 145.33 446.523 146.125 446.523 147.055C446.523 148.63 445.623 149.98 443.943 150.34ZM452.128 146.05L451.078 149.65H453.223L452.128 146.05ZM454.843 154L453.928 151.555H450.358L449.443 154H447.103L450.943 143.665H453.328L457.153 154H454.843ZM459.958 154L456.808 143.665H459.088L460.933 150.445L462.763 143.665H465.058L461.908 154H459.958ZM473.189 154H466.514V143.665H473.054V145.6H468.704V147.955H472.514V149.86H468.704V152.065H473.189V154ZM481.231 154H475.156V143.665H477.361V152.065H481.231V154ZM489.306 146.05L488.256 149.65H490.401L489.306 146.05ZM492.021 154L491.106 151.555H487.536L486.621 154H484.281L488.121 143.665H490.506L494.331 154H492.021ZM503.878 145.24L502.258 146.635C501.643 145.93 500.878 145.585 499.993 145.585C499.123 145.585 498.388 145.9 497.788 146.545C497.203 147.19 496.903 147.955 496.903 148.855C496.903 149.755 497.203 150.535 497.803 151.18C498.403 151.825 499.138 152.14 499.993 152.14C500.593 152.14 501.163 151.975 501.688 151.645C502.213 151.3 502.483 150.88 502.498 150.355H499.723V148.57H505.033C505.033 150.445 504.583 151.84 503.668 152.77C502.768 153.685 501.538 154.15 499.993 154.15C498.508 154.15 497.263 153.64 496.228 152.605C495.208 151.57 494.698 150.31 494.698 148.855C494.698 147.385 495.208 146.14 496.228 145.105C497.263 144.07 498.508 143.545 499.993 143.545C501.553 143.545 502.963 144.175 503.878 145.24ZM513.311 154H506.636V143.665H513.176V145.6H508.826V147.955H512.636V149.86H508.826V152.065H513.311V154ZM520.828 143.665H523.033V154H521.068L517.468 147.745V154H515.278V143.665H517.288L520.828 149.845V143.665ZM532.629 150.655L534.399 151.885C533.484 153.28 531.894 154.15 530.049 154.15C528.579 154.15 527.349 153.64 526.344 152.605C525.354 151.57 524.859 150.325 524.859 148.855C524.859 147.37 525.354 146.125 526.344 145.09C527.349 144.055 528.579 143.545 530.049 143.545C531.849 143.545 533.439 144.4 534.354 145.735L532.569 146.965C531.954 146.065 531.114 145.615 530.049 145.615C529.194 145.615 528.489 145.93 527.919 146.56C527.349 147.175 527.064 147.94 527.064 148.855C527.064 149.755 527.349 150.52 527.919 151.15C528.489 151.765 529.194 152.08 530.049 152.08C531.114 152.08 532.044 151.51 532.629 150.655ZM535.947 154V143.665H538.137V154H535.947ZM547.237 154H540.562V143.665H547.102V145.6H542.752V147.955H546.562V149.86H542.752V152.065H547.237V154ZM548.532 150.97H550.737C550.782 151.675 551.337 152.215 552.282 152.215C553.182 152.215 553.782 151.78 553.797 151.12C553.812 150.595 553.527 150.235 552.552 149.95L551.307 149.605C549.522 149.05 548.637 148.06 548.637 146.635C548.637 145.72 548.982 144.985 549.657 144.415C550.332 143.83 551.187 143.545 552.192 143.545C553.212 143.545 554.052 143.83 554.697 144.4C555.357 144.97 555.687 145.735 555.687 146.71H553.497C553.497 146.005 553.017 145.54 552.162 145.54C551.382 145.54 550.827 145.975 550.827 146.575C550.827 147.07 551.202 147.415 551.937 147.625L553.167 148.015C555.102 148.57 556.047 149.62 556.002 151.135C555.987 151.78 555.807 152.35 555.432 152.83C554.697 153.775 553.557 154.165 552.282 154.165C551.157 154.165 550.257 153.865 549.567 153.28C548.877 152.68 548.532 151.915 548.532 150.97Z"
          fill="#70757E"/>
    <path d="M57.6166 276.88V272.665H59.8366V283H57.6166V278.845H53.9416V283H51.7516V272.665H53.9416V276.88H57.6166ZM69.9642 277.855C69.9642 276.985 69.6642 276.25 69.0642 275.635C68.4792 275.02 67.7592 274.72 66.9042 274.72C66.0492 274.72 65.3292 275.02 64.7442 275.635C64.1592 276.25 63.8592 276.985 63.8592 277.855C63.8592 278.725 64.1592 279.46 64.7442 280.075C65.3292 280.675 66.0492 280.975 66.9042 280.975C67.7592 280.975 68.4792 280.675 69.0642 280.06C69.6642 279.445 69.9642 278.71 69.9642 277.855ZM61.6692 277.855C61.6692 276.385 62.1792 275.14 63.1842 274.105C64.2042 273.07 65.4492 272.545 66.9042 272.545C68.3742 272.545 69.6192 273.07 70.6242 274.105C71.6442 275.14 72.1542 276.385 72.1542 277.855C72.1542 279.31 71.6442 280.57 70.6242 281.605C69.6042 282.64 68.3592 283.15 66.9042 283.15C65.4492 283.15 64.2042 282.64 63.1842 281.605C62.1792 280.57 61.6692 279.31 61.6692 277.855ZM75.7486 274.645H72.9586V272.665H80.7586V274.645H77.9686V283H75.7486V274.645ZM89.0712 283H82.3962V272.665H88.9362V274.6H84.5862V276.955H88.3962V278.86H84.5862V281.065H89.0712V283ZM97.1137 283H91.0387V272.665H93.2437V281.065H97.1137V283ZM98.1449 279.97H100.35C100.395 280.675 100.95 281.215 101.895 281.215C102.795 281.215 103.395 280.78 103.41 280.12C103.425 279.595 103.14 279.235 102.165 278.95L100.92 278.605C99.1349 278.05 98.2499 277.06 98.2499 275.635C98.2499 274.72 98.5949 273.985 99.2699 273.415C99.9449 272.83 100.8 272.545 101.805 272.545C102.825 272.545 103.665 272.83 104.31 273.4C104.97 273.97 105.3 274.735 105.3 275.71H103.11C103.11 275.005 102.63 274.54 101.775 274.54C100.995 274.54 100.44 274.975 100.44 275.575C100.44 276.07 100.815 276.415 101.55 276.625L102.78 277.015C104.715 277.57 105.66 278.62 105.615 280.135C105.6 280.78 105.42 281.35 105.045 281.83C104.31 282.775 103.17 283.165 101.895 283.165C100.77 283.165 99.8699 282.865 99.1799 282.28C98.4899 281.68 98.1449 280.915 98.1449 279.97ZM107.58 285.025L106.23 284.515C106.935 283.555 107.415 282.055 107.4 280.63H109.515C109.5 281.665 109.305 282.565 108.9 283.3C108.51 284.035 108.075 284.62 107.58 285.025ZM3.5684 297.645H0.778398V295.665H8.5784V297.645H5.7884V306H3.5684V297.645ZM14.341 297.6H12.421V300.51H14.281C15.076 300.51 15.586 299.79 15.586 299.055C15.586 298.335 15.106 297.6 14.341 297.6ZM15.301 302.34L17.866 306H15.226L12.916 302.43H12.421V306H10.216V295.665H14.446C15.541 295.665 16.396 295.995 16.981 296.67C17.581 297.33 17.881 298.125 17.881 299.055C17.881 300.63 16.981 301.98 15.301 302.34ZM23.4868 298.05L22.4368 301.65H24.5818L23.4868 298.05ZM26.2018 306L25.2868 303.555H21.7168L20.8018 306H18.4618L22.3018 295.665H24.6868L28.5118 306H26.2018ZM31.3168 306L28.1668 295.665H30.4468L32.2918 302.445L34.1218 295.665H36.4168L33.2668 306H31.3168ZM44.5472 306H37.8722V295.665H44.4122V297.6H40.0622V299.955H43.8722V301.86H40.0622V304.065H44.5472V306ZM52.5898 306H46.5148V295.665H48.7198V304.065H52.5898V306ZM63.2745 297.12L64.6395 302.175L66.6645 295.665H69.0495L65.5395 306H63.8145L62.3595 300.57L60.9345 306H59.1945L55.7145 295.665H58.0845L60.0945 302.175L61.4745 297.12H63.2745ZM76.0956 299.88V295.665H78.3156V306H76.0956V301.845H72.4206V306H70.2306V295.665H72.4206V299.88H76.0956ZM88.4432 300.855C88.4432 299.985 88.1432 299.25 87.5432 298.635C86.9582 298.02 86.2382 297.72 85.3832 297.72C84.5282 297.72 83.8082 298.02 83.2232 298.635C82.6382 299.25 82.3382 299.985 82.3382 300.855C82.3382 301.725 82.6382 302.46 83.2232 303.075C83.8082 303.675 84.5282 303.975 85.3832 303.975C86.2382 303.975 86.9582 303.675 87.5432 303.06C88.1432 302.445 88.4432 301.71 88.4432 300.855ZM80.1482 300.855C80.1482 299.385 80.6582 298.14 81.6632 297.105C82.6832 296.07 83.9282 295.545 85.3832 295.545C86.8532 295.545 88.0982 296.07 89.1032 297.105C90.1232 298.14 90.6332 299.385 90.6332 300.855C90.6332 302.31 90.1232 303.57 89.1032 304.605C88.0832 305.64 86.8382 306.15 85.3832 306.15C83.9282 306.15 82.6832 305.64 81.6632 304.605C80.6582 303.57 80.1482 302.31 80.1482 300.855ZM98.542 306H92.467V295.665H94.672V304.065H98.542V306ZM106.803 306H100.128V295.665H106.668V297.6H102.318V299.955H106.128V301.86H102.318V304.065H106.803V306ZM108.098 302.97H110.303C110.348 303.675 110.903 304.215 111.848 304.215C112.748 304.215 113.348 303.78 113.363 303.12C113.378 302.595 113.093 302.235 112.118 301.95L110.873 301.605C109.088 301.05 108.203 300.06 108.203 298.635C108.203 297.72 108.548 296.985 109.223 296.415C109.898 295.83 110.753 295.545 111.758 295.545C112.778 295.545 113.618 295.83 114.263 296.4C114.923 296.97 115.253 297.735 115.253 298.71H113.063C113.063 298.005 112.583 297.54 111.728 297.54C110.948 297.54 110.393 297.975 110.393 298.575C110.393 299.07 110.768 299.415 111.503 299.625L112.733 300.015C114.668 300.57 115.613 301.62 115.568 303.135C115.553 303.78 115.373 304.35 114.998 304.83C114.263 305.775 113.123 306.165 111.848 306.165C110.723 306.165 109.823 305.865 109.133 305.28C108.443 304.68 108.098 303.915 108.098 302.97ZM121.104 298.05L120.054 301.65H122.199L121.104 298.05ZM123.819 306L122.904 303.555H119.334L118.419 306H116.079L119.919 295.665H122.304L126.129 306H123.819ZM133.347 306H127.272V295.665H129.477V304.065H133.347V306ZM141.608 306H134.933V295.665H141.473V297.6H137.123V299.955H140.933V301.86H137.123V304.065H141.608V306ZM147.7 297.6H145.78V300.51H147.64C148.435 300.51 148.945 299.79 148.945 299.055C148.945 298.335 148.465 297.6 147.7 297.6ZM148.66 302.34L151.225 306H148.585L146.275 302.43H145.78V306H143.575V295.665H147.805C148.9 295.665 149.755 295.995 150.34 296.67C150.94 297.33 151.24 298.125 151.24 299.055C151.24 300.63 150.34 301.98 148.66 302.34ZM152.571 302.97H154.776C154.821 303.675 155.376 304.215 156.321 304.215C157.221 304.215 157.821 303.78 157.836 303.12C157.851 302.595 157.566 302.235 156.591 301.95L155.346 301.605C153.561 301.05 152.676 300.06 152.676 298.635C152.676 297.72 153.021 296.985 153.696 296.415C154.371 295.83 155.226 295.545 156.231 295.545C157.251 295.545 158.091 295.83 158.736 296.4C159.396 296.97 159.726 297.735 159.726 298.71H157.536C157.536 298.005 157.056 297.54 156.201 297.54C155.421 297.54 154.866 297.975 154.866 298.575C154.866 299.07 155.241 299.415 155.976 299.625L157.206 300.015C159.141 300.57 160.086 301.62 160.041 303.135C160.026 303.78 159.846 304.35 159.471 304.83C158.736 305.775 157.596 306.165 156.321 306.165C155.196 306.165 154.296 305.865 153.606 305.28C152.916 304.68 152.571 303.915 152.571 302.97Z"
          fill="#70757E"/>
    <path d="M895.443 278.35V283H893.208V278.32L889.218 272.665H891.828L894.318 276.535L896.838 272.665H899.448L895.443 278.35ZM907.523 277.855C907.523 276.985 907.223 276.25 906.623 275.635C906.038 275.02 905.318 274.72 904.463 274.72C903.608 274.72 902.888 275.02 902.303 275.635C901.718 276.25 901.418 276.985 901.418 277.855C901.418 278.725 901.718 279.46 902.303 280.075C902.888 280.675 903.608 280.975 904.463 280.975C905.318 280.975 906.038 280.675 906.623 280.06C907.223 279.445 907.523 278.71 907.523 277.855ZM899.228 277.855C899.228 276.385 899.738 275.14 900.743 274.105C901.763 273.07 903.008 272.545 904.463 272.545C905.933 272.545 907.178 273.07 908.183 274.105C909.203 275.14 909.713 276.385 909.713 277.855C909.713 279.31 909.203 280.57 908.183 281.605C907.163 282.64 905.918 283.15 904.463 283.15C903.008 283.15 901.763 282.64 900.743 281.605C899.738 280.57 899.228 279.31 899.228 277.855ZM917.247 279.31V272.665H919.452V279.31C919.452 280.45 919.062 281.38 918.282 282.085C917.502 282.79 916.557 283.15 915.462 283.15C914.367 283.15 913.422 282.79 912.627 282.085C911.832 281.38 911.442 280.45 911.442 279.31V272.665H913.677V279.31C913.677 279.835 913.857 280.255 914.202 280.585C914.562 280.915 914.982 281.08 915.462 281.08C915.942 281.08 916.362 280.915 916.707 280.585C917.067 280.24 917.247 279.82 917.247 279.31Z"
          fill="#70757E"/>
    <path d="M436.21 403.645H433.42V401.665H441.22V403.645H438.43V412H436.21V403.645ZM446.983 403.6H445.063V406.51H446.923C447.718 406.51 448.228 405.79 448.228 405.055C448.228 404.335 447.748 403.6 446.983 403.6ZM447.943 408.34L450.508 412H447.868L445.558 408.43H445.063V412H442.858V401.665H447.088C448.183 401.665 449.038 401.995 449.623 402.67C450.223 403.33 450.523 404.125 450.523 405.055C450.523 406.63 449.623 407.98 447.943 408.34ZM456.128 404.05L455.078 407.65H457.223L456.128 404.05ZM458.843 412L457.928 409.555H454.358L453.443 412H451.103L454.943 401.665H457.328L461.153 412H458.843ZM463.958 412L460.808 401.665H463.088L464.933 408.445L466.763 401.665H469.058L465.908 412H463.958ZM477.189 412H470.514V401.665H477.054V403.6H472.704V405.955H476.514V407.86H472.704V410.065H477.189V412ZM485.231 412H479.156V401.665H481.361V410.065H485.231V412ZM494.255 403.6H492.26V406.51H494.195C494.99 406.51 495.5 405.79 495.5 405.055C495.5 404.335 495.02 403.6 494.255 403.6ZM492.26 412H490.055V401.665H494.3C495.41 401.665 496.25 401.995 496.835 402.67C497.42 403.33 497.705 404.125 497.705 405.055C497.705 405.985 497.42 406.78 496.835 407.44C496.25 408.1 495.41 408.43 494.3 408.43H492.26V412ZM506.964 406.855C506.964 405.985 506.664 405.25 506.064 404.635C505.479 404.02 504.759 403.72 503.904 403.72C503.049 403.72 502.329 404.02 501.744 404.635C501.159 405.25 500.859 405.985 500.859 406.855C500.859 407.725 501.159 408.46 501.744 409.075C502.329 409.675 503.049 409.975 503.904 409.975C504.759 409.975 505.479 409.675 506.064 409.06C506.664 408.445 506.964 407.71 506.964 406.855ZM498.669 406.855C498.669 405.385 499.179 404.14 500.184 403.105C501.204 402.07 502.449 401.545 503.904 401.545C505.374 401.545 506.619 402.07 507.624 403.105C508.644 404.14 509.154 405.385 509.154 406.855C509.154 408.31 508.644 409.57 507.624 410.605C506.604 411.64 505.359 412.15 503.904 412.15C502.449 412.15 501.204 411.64 500.184 410.605C499.179 409.57 498.669 408.31 498.669 406.855ZM515.112 403.6H513.192V406.51H515.052C515.847 406.51 516.357 405.79 516.357 405.055C516.357 404.335 515.877 403.6 515.112 403.6ZM516.072 408.34L518.637 412H515.997L513.687 408.43H513.192V412H510.987V401.665H515.217C516.312 401.665 517.167 401.995 517.752 402.67C518.352 403.33 518.652 404.125 518.652 405.055C518.652 406.63 517.752 407.98 516.072 408.34ZM522.533 403.645H519.743V401.665H527.543V403.645H524.753V412H522.533V403.645ZM532.081 404.05L531.031 407.65H533.176L532.081 404.05ZM534.796 412L533.881 409.555H530.311L529.396 412H527.056L530.896 401.665H533.281L537.106 412H534.796ZM544.323 412H538.248V401.665H540.453V410.065H544.323V412ZM545.354 408.97H547.559C547.604 409.675 548.159 410.215 549.104 410.215C550.004 410.215 550.604 409.78 550.619 409.12C550.634 408.595 550.349 408.235 549.374 407.95L548.129 407.605C546.344 407.05 545.459 406.06 545.459 404.635C545.459 403.72 545.804 402.985 546.479 402.415C547.154 401.83 548.009 401.545 549.014 401.545C550.034 401.545 550.874 401.83 551.519 402.4C552.179 402.97 552.509 403.735 552.509 404.71H550.319C550.319 404.005 549.839 403.54 548.984 403.54C548.204 403.54 547.649 403.975 547.649 404.575C547.649 405.07 548.024 405.415 548.759 405.625L549.989 406.015C551.924 406.57 552.869 407.62 552.824 409.135C552.809 409.78 552.629 410.35 552.254 410.83C551.519 411.775 550.379 412.165 549.104 412.165C547.979 412.165 547.079 411.865 546.389 411.28C545.699 410.68 545.354 409.915 545.354 408.97Z"
          fill="#70757E"/>
    <circle cx="493.5" cy="64.5" r="64.5" fill="#13AFB6"/>
    <g filter="url(#filter0_d_0_207)">
        <circle cx="287" cy="104" r="45" fill="white"/>
    </g>
    <g filter="url(#filter1_d_0_207)">
        <circle cx="699" cy="104" r="45" fill="white"/>
    </g>
    <g filter="url(#filter2_d_0_207)">
        <circle cx="287" cy="283" r="45" fill="white"/>
    </g>
    <g filter="url(#filter3_d_0_207)">
        <circle cx="699" cy="283" r="45" fill="white"/>
    </g>
    <circle cx="80.5" cy="193.5" r="64.5" fill="#13AFB6"/>
    <circle cx="905.5" cy="193.5" r="64.5" fill="#13AFB6"/>
    <circle cx="493.5" cy="322.5" r="64.5" fill="#13AFB6"/>
    <path d="M258.476 96.94L260.096 91.732H262.004L259.196 100H257.816L256.652 95.656L255.512 100H254.12L251.336 91.732H253.232L254.84 96.94C254.984 96.42 255.352 95.072 255.944 92.896H257.384L258.476 96.94ZM267.641 91.732H269.417V100H267.641V96.676H264.701V100H262.949V91.732H264.701V95.104H267.641V91.732ZM273.343 94.108C272.871 94.596 272.635 95.188 272.635 95.884C272.635 96.58 272.871 97.172 273.343 97.66C273.815 98.14 274.391 98.38 275.071 98.38C275.751 98.38 276.327 98.136 276.799 97.648C277.279 97.16 277.519 96.572 277.519 95.884C277.519 95.188 277.279 94.596 276.799 94.108C276.327 93.62 275.751 93.376 275.071 93.376C274.391 93.376 273.815 93.62 273.343 94.108ZM270.883 95.884C270.883 94.708 271.287 93.708 272.095 92.884C272.911 92.052 273.903 91.636 275.071 91.636C276.247 91.636 277.239 92.052 278.047 92.884C278.863 93.708 279.271 94.708 279.271 95.884C279.271 97.052 278.863 98.052 278.047 98.884C277.231 99.708 276.239 100.12 275.071 100.12C273.903 100.12 272.911 99.708 272.095 98.884C271.287 98.052 270.883 97.052 270.883 95.884ZM280.738 100V91.732H282.502V98.452H285.598V100H280.738ZM286.867 100V91.732H292.099V93.28H288.619V95.164H291.667V96.688H288.619V98.452H292.207V100H286.867ZM293.243 97.576H295.007C295.023 97.856 295.139 98.092 295.355 98.284C295.571 98.476 295.867 98.572 296.243 98.572C296.603 98.572 296.891 98.492 297.107 98.332C297.331 98.172 297.447 97.96 297.455 97.696C297.463 97.488 297.395 97.308 297.251 97.156C297.115 97.004 296.851 96.872 296.459 96.76L295.463 96.484C294.039 96.044 293.327 95.252 293.327 94.108C293.327 93.38 293.599 92.788 294.143 92.332C294.687 91.868 295.363 91.636 296.171 91.636C296.987 91.636 297.655 91.864 298.175 92.32C298.703 92.776 298.967 93.392 298.967 94.168H297.215C297.215 93.888 297.123 93.664 296.939 93.496C296.755 93.32 296.491 93.232 296.147 93.232C295.835 93.232 295.579 93.312 295.379 93.472C295.179 93.624 295.079 93.82 295.079 94.06C295.079 94.452 295.375 94.732 295.967 94.9L296.951 95.212C298.503 95.66 299.259 96.492 299.219 97.708C299.211 98.228 299.059 98.68 298.763 99.064C298.467 99.44 298.099 99.712 297.659 99.88C297.227 100.048 296.755 100.132 296.243 100.132C295.347 100.132 294.623 99.896 294.071 99.424C293.519 98.944 293.243 98.328 293.243 97.576ZM302.807 96.52H304.523L303.647 93.64L302.807 96.52ZM305.087 98.044H302.231L301.499 100H299.627L302.699 91.732H304.607L307.667 100H305.819L305.087 98.044ZM308.581 100V91.732H310.345V98.452H313.441V100H308.581ZM314.71 100V91.732H319.942V93.28H316.462V95.164H319.51V96.688H316.462V98.452H320.05V100H314.71ZM273.328 111.28H271.732V113.608H273.28C273.6 113.608 273.852 113.488 274.036 113.248C274.228 113.008 274.324 112.74 274.324 112.444C274.324 112.156 274.232 111.892 274.048 111.652C273.872 111.404 273.632 111.28 273.328 111.28ZM269.968 118V109.732H273.364C274.252 109.732 274.928 110 275.392 110.536C275.856 111.064 276.088 111.7 276.088 112.444C276.088 113.188 275.856 113.824 275.392 114.352C274.928 114.88 274.252 115.144 273.364 115.144H271.732V118H269.968ZM280.639 111.28H279.103V113.608H280.591C280.911 113.608 281.163 113.488 281.347 113.248C281.539 113.008 281.635 112.74 281.635 112.444C281.635 112.156 281.543 111.892 281.359 111.652C281.183 111.404 280.943 111.28 280.639 111.28ZM281.407 115.072L283.459 118H281.347L279.499 115.144H279.103V118H277.339V109.732H280.723C281.603 109.732 282.279 110 282.751 110.536C283.231 111.064 283.471 111.7 283.471 112.444C283.471 113.076 283.295 113.636 282.943 114.124C282.591 114.612 282.079 114.928 281.407 115.072ZM284.98 109.732H286.732V118H284.98V109.732ZM294.407 115.324L295.823 116.308C295.455 116.868 294.967 117.312 294.359 117.64C293.751 117.96 293.079 118.12 292.343 118.12C291.167 118.12 290.179 117.708 289.379 116.884C288.587 116.06 288.191 115.06 288.191 113.884C288.191 112.7 288.587 111.696 289.379 110.872C290.179 110.048 291.167 109.636 292.343 109.636C293.063 109.636 293.723 109.796 294.323 110.116C294.931 110.428 295.419 110.852 295.787 111.388L294.359 112.372C293.863 111.652 293.191 111.292 292.343 111.292C291.663 111.292 291.095 111.544 290.639 112.048C290.183 112.544 289.955 113.156 289.955 113.884C289.955 114.604 290.183 115.216 290.639 115.72C291.095 116.216 291.663 116.464 292.343 116.464C292.767 116.464 293.159 116.36 293.519 116.152C293.879 115.944 294.175 115.668 294.407 115.324ZM297.062 118V109.732H302.294V111.28H298.814V113.164H301.862V114.688H298.814V116.452H302.402V118H297.062Z"
          fill="#70757E"/>
    <path d="M683.501 93.28H681.965V95.608H683.453C684.089 95.608 684.497 95.032 684.497 94.444C684.497 93.868 684.113 93.28 683.501 93.28ZM684.269 97.072L686.321 100H684.209L682.361 97.144H681.965V100H680.201V91.732H683.585C684.461 91.732 685.145 91.996 685.613 92.536C686.093 93.064 686.333 93.7 686.333 94.444C686.333 95.704 685.613 96.784 684.269 97.072ZM693.181 100H687.841V91.732H693.073V93.28H689.593V95.164H692.641V96.688H689.593V98.452H693.181V100ZM696.351 93.316H694.119V91.732H700.359V93.316H698.127V100H696.351V93.316ZM703.989 93.64L703.149 96.52H704.865L703.989 93.64ZM706.161 100L705.429 98.044H702.573L701.841 100H699.969L703.041 91.732H704.949L708.009 100H706.161ZM708.923 100V91.732H710.675V100H708.923ZM717.475 100H712.615V91.732H714.379V98.452H717.475V100ZM685.828 111.28H684.232V113.608H685.78C686.416 113.608 686.824 113.032 686.824 112.444C686.824 111.868 686.44 111.28 685.828 111.28ZM684.232 118H682.468V109.732H685.864C686.752 109.732 687.424 109.996 687.892 110.536C688.36 111.064 688.588 111.7 688.588 112.444C688.588 113.188 688.36 113.824 687.892 114.352C687.424 114.88 686.752 115.144 685.864 115.144H684.232V118ZM693.139 111.28H691.603V113.608H693.091C693.727 113.608 694.135 113.032 694.135 112.444C694.135 111.868 693.751 111.28 693.139 111.28ZM693.907 115.072L695.959 118H693.847L691.999 115.144H691.603V118H689.839V109.732H693.223C694.099 109.732 694.783 109.996 695.251 110.536C695.731 111.064 695.971 111.7 695.971 112.444C695.971 113.704 695.251 114.784 693.907 115.072ZM697.48 118V109.732H699.232V118H697.48ZM706.907 115.324L708.323 116.308C707.591 117.424 706.319 118.12 704.843 118.12C703.667 118.12 702.683 117.712 701.879 116.884C701.087 116.056 700.691 115.06 700.691 113.884C700.691 112.696 701.087 111.7 701.879 110.872C702.683 110.044 703.667 109.636 704.843 109.636C706.283 109.636 707.555 110.32 708.287 111.388L706.859 112.372C706.367 111.652 705.695 111.292 704.843 111.292C704.159 111.292 703.595 111.544 703.139 112.048C702.683 112.54 702.455 113.152 702.455 113.884C702.455 114.604 702.683 115.216 703.139 115.72C703.595 116.212 704.159 116.464 704.843 116.464C705.695 116.464 706.439 116.008 706.907 115.324ZM714.902 118H709.562V109.732H714.794V111.28H711.314V113.164H714.362V114.688H711.314V116.452H714.902V118Z"
          fill="#70757E"/>
    <path d="M258.476 275.94L260.096 270.732H262.004L259.196 279H257.816L256.652 274.656L255.512 279H254.12L251.336 270.732H253.232L254.84 275.94C254.984 275.42 255.352 274.072 255.944 271.896H257.384L258.476 275.94ZM267.641 270.732H269.417V279H267.641V275.676H264.701V279H262.949V270.732H264.701V274.104H267.641V270.732ZM273.343 273.108C272.871 273.596 272.635 274.188 272.635 274.884C272.635 275.58 272.871 276.172 273.343 276.66C273.815 277.14 274.391 277.38 275.071 277.38C275.751 277.38 276.327 277.136 276.799 276.648C277.279 276.16 277.519 275.572 277.519 274.884C277.519 274.188 277.279 273.596 276.799 273.108C276.327 272.62 275.751 272.376 275.071 272.376C274.391 272.376 273.815 272.62 273.343 273.108ZM270.883 274.884C270.883 273.708 271.287 272.708 272.095 271.884C272.911 271.052 273.903 270.636 275.071 270.636C276.247 270.636 277.239 271.052 278.047 271.884C278.863 272.708 279.271 273.708 279.271 274.884C279.271 276.052 278.863 277.052 278.047 277.884C277.231 278.708 276.239 279.12 275.071 279.12C273.903 279.12 272.911 278.708 272.095 277.884C271.287 277.052 270.883 276.052 270.883 274.884ZM280.738 279V270.732H282.502V277.452H285.598V279H280.738ZM286.867 279V270.732H292.099V272.28H288.619V274.164H291.667V275.688H288.619V277.452H292.207V279H286.867ZM293.243 276.576H295.007C295.023 276.856 295.139 277.092 295.355 277.284C295.571 277.476 295.867 277.572 296.243 277.572C296.603 277.572 296.891 277.492 297.107 277.332C297.331 277.172 297.447 276.96 297.455 276.696C297.463 276.488 297.395 276.308 297.251 276.156C297.115 276.004 296.851 275.872 296.459 275.76L295.463 275.484C294.039 275.044 293.327 274.252 293.327 273.108C293.327 272.38 293.599 271.788 294.143 271.332C294.687 270.868 295.363 270.636 296.171 270.636C296.987 270.636 297.655 270.864 298.175 271.32C298.703 271.776 298.967 272.392 298.967 273.168H297.215C297.215 272.888 297.123 272.664 296.939 272.496C296.755 272.32 296.491 272.232 296.147 272.232C295.835 272.232 295.579 272.312 295.379 272.472C295.179 272.624 295.079 272.82 295.079 273.06C295.079 273.452 295.375 273.732 295.967 273.9L296.951 274.212C298.503 274.66 299.259 275.492 299.219 276.708C299.211 277.228 299.059 277.68 298.763 278.064C298.467 278.44 298.099 278.712 297.659 278.88C297.227 279.048 296.755 279.132 296.243 279.132C295.347 279.132 294.623 278.896 294.071 278.424C293.519 277.944 293.243 277.328 293.243 276.576ZM302.807 275.52H304.523L303.647 272.64L302.807 275.52ZM305.087 277.044H302.231L301.499 279H299.627L302.699 270.732H304.607L307.667 279H305.819L305.087 277.044ZM308.581 279V270.732H310.345V277.452H313.441V279H308.581ZM314.71 279V270.732H319.942V272.28H316.462V274.164H319.51V275.688H316.462V277.452H320.05V279H314.71ZM273.328 290.28H271.732V292.608H273.28C273.6 292.608 273.852 292.488 274.036 292.248C274.228 292.008 274.324 291.74 274.324 291.444C274.324 291.156 274.232 290.892 274.048 290.652C273.872 290.404 273.632 290.28 273.328 290.28ZM269.968 297V288.732H273.364C274.252 288.732 274.928 289 275.392 289.536C275.856 290.064 276.088 290.7 276.088 291.444C276.088 292.188 275.856 292.824 275.392 293.352C274.928 293.88 274.252 294.144 273.364 294.144H271.732V297H269.968ZM280.639 290.28H279.103V292.608H280.591C280.911 292.608 281.163 292.488 281.347 292.248C281.539 292.008 281.635 291.74 281.635 291.444C281.635 291.156 281.543 290.892 281.359 290.652C281.183 290.404 280.943 290.28 280.639 290.28ZM281.407 294.072L283.459 297H281.347L279.499 294.144H279.103V297H277.339V288.732H280.723C281.603 288.732 282.279 289 282.751 289.536C283.231 290.064 283.471 290.7 283.471 291.444C283.471 292.076 283.295 292.636 282.943 293.124C282.591 293.612 282.079 293.928 281.407 294.072ZM284.98 288.732H286.732V297H284.98V288.732ZM294.407 294.324L295.823 295.308C295.455 295.868 294.967 296.312 294.359 296.64C293.751 296.96 293.079 297.12 292.343 297.12C291.167 297.12 290.179 296.708 289.379 295.884C288.587 295.06 288.191 294.06 288.191 292.884C288.191 291.7 288.587 290.696 289.379 289.872C290.179 289.048 291.167 288.636 292.343 288.636C293.063 288.636 293.723 288.796 294.323 289.116C294.931 289.428 295.419 289.852 295.787 290.388L294.359 291.372C293.863 290.652 293.191 290.292 292.343 290.292C291.663 290.292 291.095 290.544 290.639 291.048C290.183 291.544 289.955 292.156 289.955 292.884C289.955 293.604 290.183 294.216 290.639 294.72C291.095 295.216 291.663 295.464 292.343 295.464C292.767 295.464 293.159 295.36 293.519 295.152C293.879 294.944 294.175 294.668 294.407 294.324ZM297.062 297V288.732H302.294V290.28H298.814V292.164H301.862V293.688H298.814V295.452H302.402V297H297.062Z"
          fill="#70757E"/>
    <path d="M683.501 272.28H681.965V274.608H683.453C684.089 274.608 684.497 274.032 684.497 273.444C684.497 272.868 684.113 272.28 683.501 272.28ZM684.269 276.072L686.321 279H684.209L682.361 276.144H681.965V279H680.201V270.732H683.585C684.461 270.732 685.145 270.996 685.613 271.536C686.093 272.064 686.333 272.7 686.333 273.444C686.333 274.704 685.613 275.784 684.269 276.072ZM693.181 279H687.841V270.732H693.073V272.28H689.593V274.164H692.641V275.688H689.593V277.452H693.181V279ZM696.351 272.316H694.119V270.732H700.359V272.316H698.127V279H696.351V272.316ZM703.989 272.64L703.149 275.52H704.865L703.989 272.64ZM706.161 279L705.429 277.044H702.573L701.841 279H699.969L703.041 270.732H704.949L708.009 279H706.161ZM708.923 279V270.732H710.675V279H708.923ZM717.475 279H712.615V270.732H714.379V277.452H717.475V279ZM685.828 290.28H684.232V292.608H685.78C686.416 292.608 686.824 292.032 686.824 291.444C686.824 290.868 686.44 290.28 685.828 290.28ZM684.232 297H682.468V288.732H685.864C686.752 288.732 687.424 288.996 687.892 289.536C688.36 290.064 688.588 290.7 688.588 291.444C688.588 292.188 688.36 292.824 687.892 293.352C687.424 293.88 686.752 294.144 685.864 294.144H684.232V297ZM693.139 290.28H691.603V292.608H693.091C693.727 292.608 694.135 292.032 694.135 291.444C694.135 290.868 693.751 290.28 693.139 290.28ZM693.907 294.072L695.959 297H693.847L691.999 294.144H691.603V297H689.839V288.732H693.223C694.099 288.732 694.783 288.996 695.251 289.536C695.731 290.064 695.971 290.7 695.971 291.444C695.971 292.704 695.251 293.784 693.907 294.072ZM697.48 297V288.732H699.232V297H697.48ZM706.907 294.324L708.323 295.308C707.591 296.424 706.319 297.12 704.843 297.12C703.667 297.12 702.683 296.712 701.879 295.884C701.087 295.056 700.691 294.06 700.691 292.884C700.691 291.696 701.087 290.7 701.879 289.872C702.683 289.044 703.667 288.636 704.843 288.636C706.283 288.636 707.555 289.32 708.287 290.388L706.859 291.372C706.367 290.652 705.695 290.292 704.843 290.292C704.159 290.292 703.595 290.544 703.139 291.048C702.683 291.54 702.455 292.152 702.455 292.884C702.455 293.604 702.683 294.216 703.139 294.72C703.595 295.212 704.159 295.464 704.843 295.464C705.695 295.464 706.439 295.008 706.907 294.324ZM714.902 297H709.562V288.732H714.794V290.28H711.314V292.164H714.362V293.688H711.314V295.452H714.902V297Z"
          fill="#70757E"/>
    <circle cx="753" cy="65" r="35" fill="#D5484E"/>
    <circle cx="753" cy="244" r="35" fill="#D5484E"/>
    <path d="M732.557 65.48H730.697V67.34H729.473V65.48H727.625V64.256H729.473V62.408H730.697V64.256H732.557V65.48ZM733.611 61.472L736.635 60.032V68H734.955V62.372L733.611 62.948V61.472ZM738.362 64.064C738.362 61.34 739.346 59.984 741.302 59.984C742.406 59.984 743.198 60.416 743.618 61.184C744.05 61.952 744.218 62.864 744.218 64.064C744.218 65.264 744.05 66.152 743.618 66.92C743.198 67.688 742.406 68.12 741.302 68.12C739.346 68.12 738.362 66.764 738.362 64.064ZM740.042 64.064C740.042 65.684 740.462 66.488 741.302 66.488C742.13 66.488 742.538 65.684 742.538 64.064C742.538 62.432 742.13 61.616 741.302 61.616C740.462 61.616 740.042 62.432 740.042 64.064ZM749.876 65.708H745.64V64.388H749.876V65.708ZM755.464 65.228C755.464 64.376 754.876 63.944 754.012 63.944C753.4 63.944 752.68 64.184 752.284 64.808L751.36 64.328L752.008 60.14H756.616V61.676H753.34L753.136 62.948C753.436 62.672 753.916 62.54 754.576 62.54C755.308 62.54 755.92 62.78 756.412 63.248C756.904 63.716 757.144 64.376 757.144 65.228C757.144 66.08 756.844 66.776 756.256 67.316C755.668 67.856 754.876 68.12 753.904 68.12C752.812 68.12 751.732 67.484 751.12 66.536L752.536 65.624C752.836 66.104 753.412 66.44 753.904 66.44C754.804 66.44 755.464 65.888 755.464 65.228ZM758.401 64.064C758.401 61.34 759.385 59.984 761.341 59.984C762.445 59.984 763.237 60.416 763.657 61.184C764.089 61.952 764.257 62.864 764.257 64.064C764.257 65.264 764.089 66.152 763.657 66.92C763.237 67.688 762.445 68.12 761.341 68.12C759.385 68.12 758.401 66.764 758.401 64.064ZM760.081 64.064C760.081 65.684 760.501 66.488 761.341 66.488C762.169 66.488 762.577 65.684 762.577 64.064C762.577 62.432 762.169 61.616 761.341 61.616C760.501 61.616 760.081 62.432 760.081 64.064ZM771.415 60.14L767.551 68H766.723L770.587 60.14H771.415ZM766.975 60.056C767.419 60.056 767.791 60.212 768.103 60.524C768.427 60.836 768.583 61.22 768.583 61.664C768.583 62.108 768.427 62.492 768.115 62.804C767.803 63.104 767.419 63.26 766.975 63.26C766.531 63.26 766.147 63.104 765.835 62.804C765.535 62.492 765.379 62.108 765.379 61.664C765.379 61.22 765.535 60.836 765.835 60.524C766.147 60.212 766.531 60.056 766.975 60.056ZM766.975 62.288C767.323 62.288 767.611 62.012 767.611 61.664C767.611 61.316 767.323 61.028 766.975 61.028C766.627 61.028 766.351 61.316 766.351 61.664C766.351 62.012 766.603 62.288 766.975 62.288ZM771.223 64.916C771.667 64.916 772.039 65.072 772.351 65.396C772.675 65.708 772.831 66.08 772.831 66.524C772.831 66.968 772.675 67.352 772.363 67.664C772.051 67.964 771.667 68.12 771.223 68.12C770.779 68.12 770.395 67.964 770.083 67.664C769.783 67.352 769.627 66.968 769.627 66.524C769.627 66.08 769.783 65.696 770.083 65.384C770.395 65.072 770.779 64.916 771.223 64.916ZM770.599 66.524C770.599 66.896 770.851 67.148 771.223 67.148C771.775 67.148 772.087 66.464 771.667 66.08C771.283 65.66 770.599 65.972 770.599 66.524ZM776.136 62.648L775.224 63.968L774.312 63.272L775.296 62.06L773.784 61.628L774.156 60.512L775.608 61.088L775.512 59.516H776.712L776.604 61.076L778.08 60.512L778.428 61.628L776.928 62.036L777.924 63.284L776.988 63.944L776.136 62.648Z"
          fill="white"/>
    <path d="M732.557 244.48H730.697V246.34H729.473V244.48H727.625V243.256H729.473V241.408H730.697V243.256H732.557V244.48ZM733.611 240.472L736.635 239.032V247H734.955V241.372L733.611 241.948V240.472ZM738.362 243.064C738.362 240.34 739.346 238.984 741.302 238.984C742.406 238.984 743.198 239.416 743.618 240.184C744.05 240.952 744.218 241.864 744.218 243.064C744.218 244.264 744.05 245.152 743.618 245.92C743.198 246.688 742.406 247.12 741.302 247.12C739.346 247.12 738.362 245.764 738.362 243.064ZM740.042 243.064C740.042 244.684 740.462 245.488 741.302 245.488C742.13 245.488 742.538 244.684 742.538 243.064C742.538 241.432 742.13 240.616 741.302 240.616C740.462 240.616 740.042 241.432 740.042 243.064ZM749.876 244.708H745.64V243.388H749.876V244.708ZM755.464 244.228C755.464 243.376 754.876 242.944 754.012 242.944C753.4 242.944 752.68 243.184 752.284 243.808L751.36 243.328L752.008 239.14H756.616V240.676H753.34L753.136 241.948C753.436 241.672 753.916 241.54 754.576 241.54C755.308 241.54 755.92 241.78 756.412 242.248C756.904 242.716 757.144 243.376 757.144 244.228C757.144 245.08 756.844 245.776 756.256 246.316C755.668 246.856 754.876 247.12 753.904 247.12C752.812 247.12 751.732 246.484 751.12 245.536L752.536 244.624C752.836 245.104 753.412 245.44 753.904 245.44C754.804 245.44 755.464 244.888 755.464 244.228ZM758.401 243.064C758.401 240.34 759.385 238.984 761.341 238.984C762.445 238.984 763.237 239.416 763.657 240.184C764.089 240.952 764.257 241.864 764.257 243.064C764.257 244.264 764.089 245.152 763.657 245.92C763.237 246.688 762.445 247.12 761.341 247.12C759.385 247.12 758.401 245.764 758.401 243.064ZM760.081 243.064C760.081 244.684 760.501 245.488 761.341 245.488C762.169 245.488 762.577 244.684 762.577 243.064C762.577 241.432 762.169 240.616 761.341 240.616C760.501 240.616 760.081 241.432 760.081 243.064ZM771.415 239.14L767.551 247H766.723L770.587 239.14H771.415ZM766.975 239.056C767.419 239.056 767.791 239.212 768.103 239.524C768.427 239.836 768.583 240.22 768.583 240.664C768.583 241.108 768.427 241.492 768.115 241.804C767.803 242.104 767.419 242.26 766.975 242.26C766.531 242.26 766.147 242.104 765.835 241.804C765.535 241.492 765.379 241.108 765.379 240.664C765.379 240.22 765.535 239.836 765.835 239.524C766.147 239.212 766.531 239.056 766.975 239.056ZM766.975 241.288C767.323 241.288 767.611 241.012 767.611 240.664C767.611 240.316 767.323 240.028 766.975 240.028C766.627 240.028 766.351 240.316 766.351 240.664C766.351 241.012 766.603 241.288 766.975 241.288ZM771.223 243.916C771.667 243.916 772.039 244.072 772.351 244.396C772.675 244.708 772.831 245.08 772.831 245.524C772.831 245.968 772.675 246.352 772.363 246.664C772.051 246.964 771.667 247.12 771.223 247.12C770.779 247.12 770.395 246.964 770.083 246.664C769.783 246.352 769.627 245.968 769.627 245.524C769.627 245.08 769.783 244.696 770.083 244.384C770.395 244.072 770.779 243.916 771.223 243.916ZM770.599 245.524C770.599 245.896 770.851 246.148 771.223 246.148C771.775 246.148 772.087 245.464 771.667 245.08C771.283 244.66 770.599 244.972 770.599 245.524ZM776.136 241.648L775.224 242.968L774.312 242.272L775.296 241.06L773.784 240.628L774.156 239.512L775.608 240.088L775.512 238.516H776.712L776.604 240.076L778.08 239.512L778.428 240.628L776.928 241.036L777.924 242.284L776.988 242.944L776.136 241.648Z"
          fill="white"/>
    <path d="M70.829 188.101H66.3439C65.0088 188.101 63.907 189.175 63.907 190.506V194.933C63.907 196.251 64.9958 197.338 66.3439 197.338H70.829C72.1641 197.338 73.2659 196.264 73.2659 194.933V190.506C73.2659 189.188 72.1771 188.101 70.829 188.101ZM70.9716 194.933C70.9716 195.01 70.9068 195.074 70.829 195.074H66.3439C66.2661 195.074 66.2013 195.01 66.2013 194.933V190.506C66.2013 190.429 66.2661 190.365 66.3439 190.365H70.829C70.9068 190.365 70.9716 190.429 70.9716 190.506V194.933Z"
          fill="white"/>
    <path d="M82.236 188.101H77.751C76.4158 188.101 75.314 189.175 75.314 190.506V194.933C75.314 196.251 76.4029 197.338 77.751 197.338H82.236C83.5712 197.338 84.673 196.264 84.673 194.933V190.506C84.673 189.188 83.5841 188.101 82.236 188.101ZM82.3786 194.933C82.3786 195.01 82.3138 195.074 82.236 195.074H77.751C77.6732 195.074 77.6084 195.01 77.6084 194.933V190.506C77.6084 190.429 77.6732 190.365 77.751 190.365H82.236C82.3138 190.365 82.3786 190.429 82.3786 190.506V194.933Z"
          fill="white"/>
    <path d="M93.6431 188.101H89.1581C87.8229 188.101 86.7211 189.175 86.7211 190.506V194.933C86.7211 196.251 87.8099 197.338 89.1581 197.338H93.6431C94.9783 197.338 96.0801 196.264 96.0801 194.933V190.506C96.0801 189.188 94.9912 188.101 93.6431 188.101ZM93.7857 194.933C93.7857 195.01 93.7209 195.074 93.6431 195.074H89.1581C89.0803 195.074 89.0155 195.01 89.0155 194.933V190.506C89.0155 190.429 89.0803 190.365 89.1581 190.365H93.6431C93.7209 190.365 93.7857 190.429 93.7857 190.506V194.933Z"
          fill="white"/>
    <path d="M70.829 199.795H66.3439C65.0088 199.795 63.907 200.87 63.907 202.2V206.627C63.907 207.945 64.9958 209.032 66.3439 209.032H70.829C72.1641 209.032 73.2659 207.958 73.2659 206.627V202.2C73.2659 200.882 72.1771 199.795 70.829 199.795ZM70.9716 206.627C70.9716 206.704 70.9068 206.768 70.829 206.768H66.3439C66.2661 206.768 66.2013 206.704 66.2013 206.627V202.2C66.2013 202.123 66.2661 202.06 66.3439 202.06H70.829C70.9068 202.06 70.9716 202.123 70.9716 202.2V206.627Z"
          fill="white"/>
    <path d="M82.236 199.795H77.751C76.4158 199.795 75.314 200.87 75.314 202.2V206.627C75.314 207.945 76.4029 209.032 77.751 209.032H82.236C83.5712 209.032 84.673 207.958 84.673 206.627V202.2C84.673 200.882 83.5841 199.795 82.236 199.795ZM82.3786 206.627C82.3786 206.704 82.3138 206.768 82.236 206.768H77.751C77.6732 206.768 77.6084 206.704 77.6084 206.627V202.2C77.6084 202.123 77.6732 202.06 77.751 202.06H82.236C82.3138 202.06 82.3786 202.123 82.3786 202.2V206.627Z"
          fill="white"/>
    <path d="M93.6431 199.795H89.1581C87.8229 199.795 86.7211 200.87 86.7211 202.2V206.627C86.7211 207.945 87.8099 209.032 89.1581 209.032H93.6431C94.9783 209.032 96.0801 207.958 96.0801 206.627V202.2C96.0801 200.882 94.9912 199.795 93.6431 199.795ZM93.7857 206.627C93.7857 206.704 93.7209 206.768 93.6431 206.768H89.1581C89.0803 206.768 89.0155 206.704 89.0155 206.627V202.2C89.0155 202.123 89.0803 202.06 89.1581 202.06H93.6431C93.7209 202.06 93.7857 202.123 93.7857 202.2V206.627Z"
          fill="white"/>
    <path d="M70.829 176.419H66.3439C65.0088 176.419 63.907 177.494 63.907 178.825V183.252C63.907 184.569 64.9958 185.657 66.3439 185.657H70.829C72.1641 185.657 73.2659 184.582 73.2659 183.252V178.825C73.2659 177.507 72.1771 176.419 70.829 176.419ZM70.9716 183.252C70.9716 183.328 70.9068 183.392 70.829 183.392H66.3439C66.2661 183.392 66.2013 183.328 66.2013 183.252V178.825C66.2013 178.748 66.2661 178.684 66.3439 178.684H70.829C70.9068 178.684 70.9716 178.748 70.9716 178.825V183.252Z"
          fill="white"/>
    <path d="M82.236 176.419H77.751C76.4158 176.419 75.314 177.494 75.314 178.825V183.252C75.314 184.569 76.4029 185.657 77.751 185.657H82.236C83.5712 185.657 84.673 184.582 84.673 183.252V178.825C84.673 177.507 83.5841 176.419 82.236 176.419ZM82.3786 183.252C82.3786 183.328 82.3138 183.392 82.236 183.392H77.751C77.6732 183.392 77.6084 183.328 77.6084 183.252V178.825C77.6084 178.748 77.6732 178.684 77.751 178.684H82.236C82.3138 178.684 82.3786 178.748 82.3786 178.825V183.252Z"
          fill="white"/>
    <path d="M93.6431 176.419H89.1581C87.8229 176.419 86.7211 177.494 86.7211 178.825V183.252C86.7211 184.569 87.8099 185.657 89.1581 185.657H93.6431C94.9783 185.657 96.0801 184.582 96.0801 183.252V178.825C96.0801 177.507 94.9912 176.419 93.6431 176.419ZM93.7857 183.252C93.7857 183.328 93.7209 183.392 93.6431 183.392H89.1581C89.0803 183.392 89.0155 183.328 89.0155 183.252V178.825C89.0155 178.748 89.0803 178.684 89.1581 178.684H93.6431C93.7209 178.684 93.7857 178.748 93.7857 178.825V183.252Z"
          fill="white"/>
    <path d="M68.7809 171.43L67.3939 173.093L68.379 173.707L69.2216 171.711L69.2475 171.685L70.0512 173.694L71.1012 173.093L69.7012 171.455V171.404L71.8401 171.737V170.572L69.7142 170.931V170.892L71.1012 169.19L70.0642 168.615L69.2735 170.598H69.2346L68.4439 168.615L67.3939 169.216L68.7679 170.879L68.755 170.931L66.6939 170.572V171.737L68.7809 171.391V171.43Z"
          fill="white"/>
    <path d="M74.5492 173.093L75.5344 173.707L76.377 171.711L76.4029 171.685L77.2066 173.694L78.2565 173.093L76.8566 171.455V171.404L78.9954 171.737V170.572L76.8695 170.931V170.892L78.2565 169.19L77.2195 168.615L76.4288 170.598H76.3899L75.5992 168.615L74.5492 169.216L75.9233 170.879L75.9103 170.931L73.8493 170.572V171.737L75.9362 171.391V171.43L74.5492 173.093Z"
          fill="white"/>
    <path d="M84.0249 170.892L85.4119 169.19L84.3749 168.615L83.5842 170.598H83.5453L82.7545 168.615L81.7046 169.216L83.0786 170.879L83.0656 170.931L81.0046 170.572V171.737L83.0916 171.391V171.43L81.7046 173.093L82.6897 173.707L83.5323 171.711L83.5582 171.685L84.3619 173.694L85.4119 173.093L84.0119 171.455V171.404L86.1507 171.737V170.572L84.0249 170.931V170.892Z"
          fill="white"/>
    <path d="M90.2469 171.43L88.8599 173.093L89.8451 173.707L90.6876 171.711L90.7136 171.685L91.5172 173.694L92.5672 173.093L91.1543 171.455V171.404L93.3061 171.737V170.572L91.1802 170.931V170.892L92.5672 169.19L91.5302 168.615L90.7395 170.598H90.7006L89.9099 168.615L88.8599 169.216L90.234 170.879L90.221 170.931L88.1599 170.572V171.737L90.2469 171.391V171.43Z"
          fill="white"/>
    <path d="M109.12 221.277H103.339C103.352 221.174 103.365 221.085 103.365 220.97V166.887C103.365 164.098 101.395 162 98.7892 162H61.1978C58.5923 162 56.622 164.098 56.622 166.887V220.983C56.622 221.085 56.622 221.187 56.6479 221.29H50.8796C49.8426 221.29 49 222.121 49 223.145C49 224.168 49.8426 225 50.8796 225H109.12C110.157 225 111 224.168 111 223.145C111 222.121 110.157 221.29 109.12 221.29V221.277ZM73.9789 221.277V214.483C73.9789 213.741 74.6789 213.127 75.5344 213.127H78.8658V221.277H73.9789ZM86.0211 221.277H81.1472V213.127H84.4786C85.3341 213.127 86.0211 213.728 86.0211 214.483V221.277ZM88.3025 214.483C88.3025 212.487 86.5785 210.875 84.4656 210.875H75.5214C73.4085 210.875 71.6845 212.5 71.6845 214.483V221.277H60.3552C60.3682 221.174 60.3811 221.085 60.3811 220.97V166.887C60.3811 166.35 60.6015 165.71 61.1978 165.71H98.8022C99.3985 165.71 99.6189 166.35 99.6189 166.887V220.983C99.6189 221.085 99.6189 221.187 99.6448 221.29H88.3025V214.483Z"
          fill="white"/>
    <path d="M506.788 339L481.235 339C473.047 339 471 336.835 471 328.199L471 312.801C471 304.141 473.047 302 481.212 302L506.788 302C514.953 301.976 517 304.141 517 312.777L517 328.199C517 336.835 514.953 339 506.788 339Z"
          stroke="white" stroke-width="4" stroke-linecap="round" stroke-linejoin="round"/>
    <path d="M517 312L471 312" stroke="white" stroke-width="4" stroke-linecap="round" stroke-linejoin="round"/>
    <path d="M497.562 79.7503H479.67C477.205 79.7503 475.186 77.774 475.186 75.3515V43.8165C475.186 38.249 479.33 35.7203 484.409 38.2065L493.844 42.839C495.884 43.8378 497.562 46.494 497.562 48.7465V79.7503Z"
          stroke="white" stroke-width="3" stroke-linecap="round" stroke-linejoin="round"/>
    <path d="M517.686 65.0031V73.0356C517.686 77.6256 515.561 79.7506 510.971 79.7506H497.562V55.1431L498.561 55.3556L508.124 57.5018L512.437 58.4581C515.242 59.0743 517.537 60.5193 517.665 64.5993C517.686 64.7268 517.686 64.8543 517.686 65.0031Z"
          stroke="white" stroke-width="3" stroke-linecap="round" stroke-linejoin="round"/>
    <path d="M482.687 52.1255H490.061" stroke="white" stroke-width="3" stroke-linecap="round" stroke-linejoin="round"/>
    <path d="M482.687 60.6255H490.061" stroke="white" stroke-width="3" stroke-linecap="round" stroke-linejoin="round"/>
    <path d="M508.124 57.5017V64.3442C508.124 66.9792 505.977 69.1255 503.342 69.1255C500.707 69.1255 498.561 66.9792 498.561 64.3442V55.3555L508.124 57.5017Z"
          stroke="white" stroke-width="3" stroke-linecap="round" stroke-linejoin="round"/>
    <path d="M517.665 64.599C517.537 67.1065 515.455 69.1252 512.905 69.1252C510.27 69.1252 508.124 66.979 508.124 64.344V57.5015L512.437 58.4577C515.242 59.074 517.537 60.519 517.665 64.599Z"
          stroke="white" stroke-width="3" stroke-linecap="round" stroke-linejoin="round"/>
    <circle cx="905.5" cy="173.5" r="6" stroke="white" stroke-width="3"/>
    <path d="M894 188.173C894 187.838 894.168 187.525 894.447 187.34L904.947 180.367C905.282 180.145 905.718 180.145 906.053 180.367L916.553 187.34C916.832 187.525 917 187.838 917 188.173V204.294C917 204.622 916.839 204.93 916.569 205.116L910.531 209.293C910.261 209.479 910.1 209.787 910.1 210.115V221.6C910.1 221.821 909.921 222 909.7 222H901.3C901.079 222 900.9 221.821 900.9 221.6V210.115C900.9 209.787 900.739 209.479 900.469 209.293L894.431 205.116C894.161 204.93 894 204.622 894 204.294V188.173Z"
          stroke="white" stroke-width="3"/>
    <defs>
        <filter id="filter0_d_0_207" x="222" y="43" width="130" height="130" filterUnits="userSpaceOnUse"
                color-interpolation-filters="sRGB">
            <feFlood flood-opacity="0" result="BackgroundImageFix"/>
            <feColorMatrix in="SourceAlpha" type="matrix" values="0 0 0 0 0 0 0 0 0 0 0 0 0 0 0 0 0 0 127 0"
                           result="hardAlpha"/>
            <feOffset dy="4"/>
            <feGaussianBlur stdDeviation="10"/>
            <feComposite in2="hardAlpha" operator="out"/>
            <feColorMatrix type="matrix" values="0 0 0 0 0 0 0 0 0 0 0 0 0 0 0 0 0 0 0.15 0"/>
            <feBlend mode="normal" in2="BackgroundImageFix" result="effect1_dropShadow_0_207"/>
            <feBlend mode="normal" in="SourceGraphic" in2="effect1_dropShadow_0_207" result="shape"/>
        </filter>
        <filter id="filter1_d_0_207" x="634" y="43" width="130" height="130" filterUnits="userSpaceOnUse"
                color-interpolation-filters="sRGB">
            <feFlood flood-opacity="0" result="BackgroundImageFix"/>
            <feColorMatrix in="SourceAlpha" type="matrix" values="0 0 0 0 0 0 0 0 0 0 0 0 0 0 0 0 0 0 127 0"
                           result="hardAlpha"/>
            <feOffset dy="4"/>
            <feGaussianBlur stdDeviation="10"/>
            <feComposite in2="hardAlpha" operator="out"/>
            <feColorMatrix type="matrix" values="0 0 0 0 0 0 0 0 0 0 0 0 0 0 0 0 0 0 0.15 0"/>
            <feBlend mode="normal" in2="BackgroundImageFix" result="effect1_dropShadow_0_207"/>
            <feBlend mode="normal" in="SourceGraphic" in2="effect1_dropShadow_0_207" result="shape"/>
        </filter>
        <filter id="filter2_d_0_207" x="222" y="222" width="130" height="130" filterUnits="userSpaceOnUse"
                color-interpolation-filters="sRGB">
            <feFlood flood-opacity="0" result="BackgroundImageFix"/>
            <feColorMatrix in="SourceAlpha" type="matrix" values="0 0 0 0 0 0 0 0 0 0 0 0 0 0 0 0 0 0 127 0"
                           result="hardAlpha"/>
            <feOffset dy="4"/>
            <feGaussianBlur stdDeviation="10"/>
            <feComposite in2="hardAlpha" operator="out"/>
            <feColorMatrix type="matrix" values="0 0 0 0 0 0 0 0 0 0 0 0 0 0 0 0 0 0 0.15 0"/>
            <feBlend mode="normal" in2="BackgroundImageFix" result="effect1_dropShadow_0_207"/>
            <feBlend mode="normal" in="SourceGraphic" in2="effect1_dropShadow_0_207" result="shape"/>
        </filter>
        <filter id="filter3_d_0_207" x="634" y="222" width="130" height="130" filterUnits="userSpaceOnUse"
                color-interpolation-filters="sRGB">
            <feFlood flood-opacity="0" result="BackgroundImageFix"/>
            <feColorMatrix in="SourceAlpha" type="matrix" values="0 0 0 0 0 0 0 0 0 0 0 0 0 0 0 0 0 0 127 0"
                           result="hardAlpha"/>
            <feOffset dy="4"/>
            <feGaussianBlur stdDeviation="10"/>
            <feComposite in2="hardAlpha" operator="out"/>
            <feColorMatrix type="matrix" values="0 0 0 0 0 0 0 0 0 0 0 0 0 0 0 0 0 0 0.15 0"/>
            <feBlend mode="normal" in2="BackgroundImageFix" result="effect1_dropShadow_0_207"/>
            <feBlend mode="normal" in="SourceGraphic" in2="effect1_dropShadow_0_207" result="shape"/>
        </filter>
    </defs>
</svg>


