<svg width="158" height="159" viewBox="0 0 158 159" fill="none" xmlns="http://www.w3.org/2000/svg">
<circle cx="79" cy="79.4863" r="79" fill="#050E31"/>
<g clip-path="url(#clip0_10_51)">
<path d="M72.3594 63.4863H51.9295V68.8896H59.5949H59.6116V96.4763H64.9773V68.8896H72.3594V63.4863Z" fill="white"/>
<path d="M34.3824 81.7264H44.3974V76.3232H34.3824V68.8896H49.13V63.4863H29V96.4763H49.8965V91.0562H34.3824V81.7264Z" fill="white"/>
<path d="M115.952 63.5869L102.904 96.4594H108.637L110.436 91.9455H121.468L123.268 96.4594H129L115.952 63.5869ZM112.536 86.5758L115.469 78.6723L115.936 77.1957L116.402 78.6556L119.352 86.5758H112.536Z" fill="white"/>
<path d="M93.6226 64.6439C85.224 61.3047 75.6922 65.4829 72.3761 73.9402C69.06 82.3974 73.2093 91.9957 81.6079 95.335C90.0065 98.6742 99.5382 94.496 102.854 86.0387C106.17 77.5647 102.021 67.9664 93.6226 64.6439ZM86.8204 91.2607L86.8237 91.2406C86.7904 91.2574 86.757 91.2574 86.7404 91.2406L86.4071 93.0864L86.4238 91.207C86.3904 91.207 86.3738 91.207 86.3404 91.1903V91.2188C84.8907 91.0493 83.5242 90.6164 82.3028 89.9552L82.3078 89.9485C82.3078 89.9485 82.2745 89.9317 82.2578 89.915L81.208 91.4587L81.9745 89.7472C81.9578 89.7304 81.9245 89.7136 81.9078 89.7136C81.008 89.175 80.1865 88.5105 79.4583 87.7503C79.4249 87.7168 79.4083 87.7 79.3916 87.6832L75.6256 88.9753L77.9252 85.7199C77.9168 85.7115 77.9068 85.6981 77.8985 85.6847L77.9035 85.678C77.3736 84.7567 76.9587 83.7365 76.692 82.6676V82.6172L74.8424 82.8689L76.6087 82.2984C76.6087 82.285 76.6054 82.2766 76.6021 82.2665H76.6071C76.5887 82.1088 76.3754 80.7731 76.3754 79.9827C76.3754 79.2948 76.4421 78.6235 76.5587 77.9691H76.5521C76.5571 77.9473 76.5587 77.9288 76.5587 77.9188L74.7757 77.3986L76.6254 77.5999C76.6254 77.5664 76.6421 77.5496 76.6421 77.516H76.6371C76.8687 76.4723 77.242 75.4621 77.7402 74.5459C77.7569 74.5292 77.7735 74.4956 77.7902 74.4788L75.4073 71.2738L79.2066 72.482C79.2233 72.4652 79.24 72.4316 79.2566 72.4149L79.2433 72.4098C79.9465 71.6245 80.7597 70.9348 81.6696 70.3576L81.6746 70.366C81.6912 70.3492 81.7079 70.3324 81.7412 70.3157L80.9247 68.6208L82.0078 70.1478C82.0245 70.1478 82.0578 70.1311 82.0745 70.1143C83.2993 69.4179 84.6541 68.938 86.0905 68.7551H86.1405L86.0738 66.8757L86.4404 68.7047H86.4904H86.5237C86.8787 68.6712 87.2353 68.6544 87.6069 68.6544C88.3118 68.6544 89.0167 68.7199 89.6882 68.8507L89.6732 68.8726C89.7065 68.8558 89.7399 68.8558 89.7732 68.8726L92.0562 65.6004L92.0895 69.6109C92.1228 69.6277 92.1395 69.6277 92.1728 69.6444V69.6344C93.1526 70.069 94.0525 70.6462 94.8723 71.3392L94.8773 71.3342C94.8873 71.3409 94.899 71.3476 94.9057 71.356L96.2555 70.0639L95.1556 71.5742L95.2056 71.6245C96.2471 72.5827 97.097 73.7338 97.7219 75.0158C97.7219 75.0477 97.7385 75.0645 97.7552 75.098L99.5049 74.4604L97.8885 75.3833C97.8968 75.3917 97.9018 75.4034 97.9052 75.4168C98.3384 76.3901 98.6217 77.4472 98.755 78.5547H98.7567C98.7567 78.5698 98.7617 78.5849 98.7717 78.6051L102.571 79.7797L98.805 81.055V81.1003L98.7884 81.1053C98.6734 82.1944 98.4134 83.2348 98.0235 84.2114H98.0218C98.0052 84.2265 98.0052 84.26 97.9885 84.2768L99.6216 85.1662L97.8552 84.5788C97.8385 84.5956 97.8385 84.6292 97.8219 84.646L97.8435 84.6527C97.2503 85.9548 96.4321 87.1244 95.4056 88.1195L95.3556 88.1698L96.5054 89.6465L95.1223 88.388C95.1106 88.3997 95.0956 88.4131 95.0756 88.4249L95.0723 88.4215C94.2775 89.1397 93.3659 89.7404 92.3894 90.2086V90.2136C92.3744 90.2187 92.3594 90.2237 92.3394 90.2338L92.4061 94.2443L90.0398 91.0225C90.0065 91.0225 89.9898 91.0392 89.9565 91.0392L89.9598 91.0443C89.2016 91.2087 88.4118 91.2909 87.6069 91.2909C87.3403 91.2909 87.0737 91.2758 86.8204 91.2607Z" fill="white"/>
</g>
<defs>
<clipPath id="clip0_10_51">
<rect width="100" height="33" fill="white" transform="translate(29 63.4863)"/>
</clipPath>
</defs>
</svg>
