<svg width="158" height="159" viewBox="0 0 158 159" fill="none" xmlns="http://www.w3.org/2000/svg">
<circle cx="79" cy="79.4863" r="79" fill="#C72C2A"/>
<g clip-path="url(#clip0_10_50)">
<path d="M91.4323 71.3399H65.1602L58.3651 49.4668L51.5701 71.3399H24.7905L46.5301 87.5626L39.796 109.241L58.3651 96.395L76.9342 109.241L70.1658 87.4557L91.4323 71.3399Z" fill="white"/>
<path d="M77.3157 77.9561H47.3008V85.331H77.3157V77.9561Z" fill="#C72C2A"/>
<path d="M65.9957 96.6507V66.6357H58.6207V96.6507H65.9957Z" fill="#C72C2A"/>
<path d="M92.4815 66.1512L94.6944 65.9375C94.8279 66.6815 95.0988 67.2233 95.5033 67.5743C95.9115 67.9215 96.4609 68.097 97.1515 68.097C97.884 68.097 98.4334 67.9406 98.8073 67.6315C99.1774 67.3225 99.3643 66.96 99.3643 66.5442C99.3643 66.2771 99.288 66.052 99.1316 65.865C98.9752 65.6781 98.7043 65.514 98.3151 65.3767C98.0481 65.2851 97.4414 65.1211 96.4952 64.8845C95.2782 64.5831 94.4235 64.213 93.9314 63.7704C93.2408 63.1524 92.8936 62.3969 92.8936 61.5042C92.8936 60.9319 93.0576 60.3939 93.3819 59.8941C93.7062 59.3943 94.1755 59.0166 94.786 58.7533C95.3964 58.4939 96.1366 58.3604 97.0027 58.3604C98.4143 58.3604 99.4788 58.6694 100.192 59.2913C100.906 59.9094 101.28 60.7373 101.318 61.7712L99.0439 61.8704C98.9485 61.2905 98.7386 60.8746 98.4181 60.6228C98.0977 60.371 97.6169 60.2413 96.9798 60.2413C96.3426 60.2413 95.8008 60.3786 95.4269 60.6495C95.1866 60.825 95.0645 61.0578 95.0645 61.3477C95.0645 61.6148 95.179 61.8399 95.4041 62.0307C95.6902 62.271 96.3884 62.5228 97.491 62.7823C98.5975 63.0417 99.4139 63.3126 99.9443 63.5911C100.475 63.8696 100.89 64.2512 101.188 64.7357C101.486 65.2203 101.638 65.8154 101.638 66.5289C101.638 67.1737 101.459 67.7765 101.1 68.3412C100.742 68.9058 100.234 69.3217 99.578 69.5964C98.9218 69.8711 98.1053 70.0085 97.1286 70.0085C95.7055 70.0085 94.6143 69.6803 93.8512 69.0203C93.0882 68.3641 92.6341 67.4026 92.4854 66.1436L92.4815 66.1512Z" fill="white"/>
<path d="M106.079 69.8137V60.4624H102.741V58.5586H111.688V60.4624H108.357V69.8137H106.083H106.079Z" fill="white"/>
<path d="M122.134 69.8137H119.662L118.677 67.2575H114.179L113.248 69.8137H110.837L115.221 58.5586H117.624L122.13 69.8137H122.134ZM117.949 65.3613L116.4 61.1835L114.877 65.3613H117.949Z" fill="white"/>
<path d="M123.347 69.8137V58.5586H128.132C129.334 58.5586 130.207 58.6616 130.753 58.86C131.298 59.0622 131.733 59.4209 132.061 59.9397C132.39 60.4586 132.554 61.0462 132.554 61.7138C132.554 62.557 132.306 63.2552 131.81 63.8046C131.314 64.354 130.57 64.7012 129.582 64.8462C130.074 65.1324 130.478 65.449 130.799 65.7924C131.119 66.1358 131.55 66.7462 132.092 67.6199L133.465 69.8175H130.749L129.105 67.3681C128.521 66.4944 128.12 65.9412 127.907 65.7123C127.693 65.4834 127.464 65.3269 127.224 65.243C126.983 65.1591 126.602 65.1171 126.079 65.1171H125.617V69.8175H123.344L123.347 69.8137ZM125.621 63.3163H127.304C128.395 63.3163 129.074 63.2705 129.345 63.1789C129.616 63.0874 129.83 62.9271 129.982 62.702C130.135 62.4769 130.211 62.1946 130.211 61.8588C130.211 61.4811 130.112 61.1759 129.91 60.9432C129.707 60.7104 129.421 60.5616 129.055 60.5006C128.872 60.4739 128.319 60.4624 127.395 60.4624H125.621V63.3201V63.3163Z" fill="white"/>
</g>
<defs>
<clipPath id="clip0_10_50">
<rect width="108.679" height="59.7743" fill="white" transform="translate(24.7905 49.4668)"/>
</clipPath>
</defs>
</svg>
