<svg width="159" height="70" viewBox="0 0 159 70" fill="none" xmlns="http://www.w3.org/2000/svg">
<g id="Layer_1" clip-path="url(#clip0_0_1167)">
<g id="Layer 2">
<g id="Layer 1-2">
<path id="Vector" d="M21.0897 47.9865C22.1241 45.9799 23.3254 43.8461 24.6669 41.6855C23.2987 43.6789 22.0974 45.7859 21.0897 47.9865Z" fill="url(#paint0_linear_0_1167)"/>
<path id="Vector_2" d="M78.5256 6.01373V5.39835C78.4455 4.76289 78.252 4.14751 77.945 3.58564C74.014 -3.51804 53.5717 0.267911 32.2351 12.0338C10.8985 23.7997 -3.25689 39.0171 0.64737 46.094C2.89649 50.2077 10.7517 50.6425 21.1164 47.987C24.6802 40.2545 30.4599 33.7595 37.7211 29.3315C44.8689 25.1442 53.3715 24.1876 61.2334 21.5589C66.8062 19.6927 73.667 16.4418 76.8171 11.7863C77.8782 10.0472 78.4655 8.05386 78.5256 6.01373Z" fill="url(#paint1_linear_0_1167)"/>
<path id="Vector_3" d="M78.5323 6.01367C78.4789 8.06049 77.8916 10.0605 76.8237 11.813C73.6736 16.4953 66.8128 19.7194 61.2401 21.5856C53.3715 24.1876 44.8689 25.1441 37.7211 29.3314C32.5288 32.4551 28.0773 36.6692 24.6736 41.6859C23.3388 43.8464 22.1308 45.9602 21.0963 47.9869C16.1643 57.6324 14.8362 65.4852 18.3667 68.609C24.4066 73.9602 42.3528 63.4384 58.4571 45.1374C71.9117 29.8464 79.8137 13.9602 78.5323 6.01367Z" fill="url(#paint2_linear_0_1167)"/>
<path id="Vector_4" d="M46.8644 50.0403V35.7594C46.8311 35.3915 47.098 35.0637 47.4651 35.0303C47.5051 35.0303 47.5452 35.0303 47.5852 35.0303H56.208C56.5417 35.0303 56.8153 35.3045 56.8153 35.639C56.8153 35.9734 56.5417 36.2477 56.208 36.2477H48.1992V42.0336H56.0411C56.3748 42.0336 56.6484 42.3079 56.6484 42.6423C56.6484 42.9768 56.3748 43.251 56.0411 43.251H48.1926V50.0403C48.1926 50.4082 47.8922 50.7092 47.5252 50.7092C47.1581 50.7092 46.8644 50.4082 46.8644 50.0403Z" fill="#505D65"/>
<path id="Vector_5" d="M61.2734 50.0409V35.6396C61.2734 35.2717 61.5738 34.9707 61.9408 34.9707C62.3079 34.9707 62.6082 35.2717 62.6082 35.6396V50.0409C62.6082 50.4088 62.3079 50.7098 61.9408 50.7098C61.5738 50.7098 61.2734 50.4088 61.2734 50.0409Z" fill="#505D65"/>
<path id="Vector_6" d="M78.6791 49.6457C78.7592 49.7727 78.7992 49.9199 78.7926 50.0671C78.7926 50.4216 78.5189 50.7159 78.1652 50.736C77.9383 50.736 77.7181 50.6356 77.5779 50.455L73.2332 44.2008H69.5692V50.0537C69.5692 50.4216 69.2688 50.7226 68.9018 50.7226C68.5347 50.7226 68.2344 50.4216 68.2344 50.0537V35.7594C68.201 35.3915 68.468 35.0637 68.835 35.0303C68.8751 35.0303 68.9218 35.0303 68.9618 35.0303H74.0607C76.7303 35.0303 78.7992 36.7426 78.7992 39.5988C78.9194 41.9467 77.1174 43.9534 74.7682 44.0738C74.7548 44.0738 74.7415 44.0738 74.7281 44.0738L78.6791 49.6457ZM69.5692 42.9567H73.9339C75.7759 42.9567 77.2709 41.4584 77.2709 39.6122C77.2709 37.7661 75.7759 36.2677 73.9339 36.2677H69.5692V42.9567Z" fill="#505D65"/>
<path id="Vector_7" d="M83.8648 49.9266V35.7594C83.8314 35.3915 84.0983 35.0637 84.4654 35.0303C84.5054 35.0303 84.5455 35.0303 84.5855 35.0303H93.2083C93.542 35.0303 93.8156 35.3045 93.8156 35.639C93.8156 35.9734 93.542 36.2477 93.2083 36.2477H85.1995V42.0336H93.0481C93.3818 42.0336 93.6554 42.3079 93.6554 42.6423C93.6554 42.9768 93.3818 43.251 93.0481 43.251H85.1929V49.4316H93.2016C93.5353 49.4316 93.8089 49.7059 93.8089 50.0403C93.8089 50.3748 93.5353 50.649 93.2016 50.649H84.5855C84.2185 50.6824 83.8981 50.4082 83.8648 50.0403C83.8648 50.0002 83.8648 49.9667 83.8648 49.9266Z" fill="#505D65"/>
<path id="Vector_8" d="M98.7877 50.0403V35.7594C98.7544 35.3915 99.0213 35.0637 99.3884 35.0303C99.4284 35.0303 99.4685 35.0303 99.5085 35.0303H108.131C108.465 35.0303 108.739 35.3045 108.739 35.639C108.739 35.9734 108.465 36.2477 108.131 36.2477H100.123V42.0336H107.971C108.305 42.0336 108.578 42.3079 108.578 42.6423C108.578 42.9768 108.305 43.251 107.971 43.251H100.123V50.0403C100.123 50.4082 99.8222 50.7092 99.4551 50.7092C99.0881 50.7092 98.7877 50.4082 98.7877 50.0403Z" fill="#505D65"/>
<path id="Vector_9" d="M113.197 49.9272V35.6396C113.197 35.2717 113.497 34.9707 113.864 34.9707C114.231 34.9707 114.532 35.2717 114.532 35.6396V49.4322H121.539C121.873 49.4322 122.146 49.7065 122.146 50.0409C122.146 50.3754 121.873 50.6496 121.539 50.6496H113.924C113.557 50.6831 113.23 50.4155 113.197 50.0476C113.197 50.0075 113.197 49.9674 113.197 49.9272Z" fill="#505D65"/>
<path id="Vector_10" d="M126.725 50.0409V35.6396C126.725 35.2717 127.025 34.9707 127.392 34.9707C127.759 34.9707 128.06 35.2717 128.06 35.6396V50.0409C128.06 50.4088 127.759 50.7098 127.392 50.7098C127.025 50.7098 126.725 50.4088 126.725 50.0409Z" fill="#505D65"/>
<path id="Vector_11" d="M133.686 49.9266V35.7594C133.652 35.3915 133.919 35.0637 134.286 35.0303C134.326 35.0303 134.366 35.0303 134.407 35.0303H143.029C143.363 35.0303 143.637 35.3045 143.637 35.639C143.637 35.9734 143.363 36.2477 143.029 36.2477H135.021V42.0336H142.869C143.203 42.0336 143.476 42.3079 143.476 42.6423C143.476 42.9768 143.203 43.251 142.869 43.251H135.014V49.4316H143.023C143.356 49.4316 143.63 49.7059 143.63 50.0403C143.63 50.3748 143.356 50.649 143.023 50.649H134.407C134.039 50.6824 133.719 50.4082 133.686 50.0403C133.686 50.0002 133.686 49.9667 133.686 49.9266Z" fill="#505D65"/>
<path id="Vector_12" d="M147.935 48.3819C147.935 48.014 148.235 47.713 148.602 47.713C148.769 47.713 148.936 47.7732 149.069 47.8802C150.237 49.0508 151.826 49.713 153.481 49.713C156.677 49.713 157.592 47.9337 157.592 46.6026C157.592 44.3953 155.51 43.7933 153.314 43.2046C150.858 42.5357 148.242 41.82 148.242 38.9438C148.242 36.3886 150.531 34.7765 153.434 34.7765C155.209 34.723 156.938 35.3652 158.246 36.5759C158.406 36.6896 158.499 36.8769 158.499 37.0708C158.499 37.4387 158.199 37.7397 157.832 37.7397C157.672 37.7531 157.518 37.6929 157.412 37.5725C156.33 36.5223 154.869 35.9605 153.367 36.0073C151.218 36.0073 149.65 37.1979 149.65 38.8836C149.65 40.7364 151.592 41.2715 153.721 41.8334C156.244 42.5625 159 43.3585 159 46.5157C159 48.5224 157.665 50.9371 153.461 50.9371C151.485 50.9839 149.57 50.2414 148.141 48.8702C148.001 48.7498 147.921 48.5692 147.935 48.3819Z" fill="#505D65"/>
<path id="Vector_13" d="M67.3868 60.9372V57.0041H66.052C65.9586 57.0041 65.8785 56.9238 65.8785 56.8302C65.8785 56.7365 65.9586 56.6562 66.052 56.6562H69.0486C69.142 56.6562 69.2221 56.7365 69.2221 56.8302C69.2221 56.9238 69.142 57.0041 69.0486 57.0041H67.7138V60.9372C67.7138 61.0442 67.6271 61.1312 67.5203 61.1312C67.4135 61.1312 67.3267 61.0442 67.3267 60.9372H67.3868Z" fill="#505D65"/>
<path id="Vector_14" d="M73.3933 60.8234C73.4067 60.8635 73.4067 60.9036 73.3933 60.9438C73.3933 61.0441 73.3132 61.1244 73.2131 61.1311C73.1464 61.1311 73.0863 61.1043 73.0463 61.0508L71.8049 59.2715H70.7905V60.9371C70.7905 61.0441 70.7104 61.1244 70.6036 61.1311C70.4968 61.1311 70.4167 61.0441 70.4101 60.9371V56.8501C70.3967 56.7498 70.4701 56.6561 70.5769 56.6428C70.5903 56.6428 70.6036 56.6428 70.617 56.6428H72.0585C72.7526 56.6026 73.3533 57.1311 73.3933 57.8267C73.3933 57.8802 73.3933 57.927 73.3933 57.9806C73.4267 58.6495 72.9128 59.2247 72.2387 59.2581H72.2254L73.3933 60.8234ZM70.7905 58.9237H72.0585C72.5858 58.9705 73.053 58.5759 73.093 58.0408C73.1397 57.5123 72.746 57.0441 72.212 57.004C72.1586 57.004 72.1053 57.004 72.0519 57.004H70.7838V58.9237H70.7905Z" fill="#505D65"/>
<path id="Vector_15" d="M78.3321 60.9302C78.3321 61.0439 78.2453 61.1309 78.1318 61.1309C78.0518 61.1309 77.9783 61.0774 77.945 61.0038L77.5512 60.0138H75.1686L74.7748 61.0038C74.7415 61.0774 74.6681 61.1309 74.588 61.1309C74.4745 61.1309 74.3878 61.0439 74.3878 60.9302C74.3878 60.9302 74.3878 60.8767 74.3878 60.8499L76.0629 56.8499C76.1163 56.7228 76.2364 56.6426 76.3699 56.6426C76.5034 56.6426 76.6302 56.7228 76.6836 56.8499L78.3254 60.8633C78.3254 60.8633 78.3321 60.9101 78.3321 60.9302ZM77.3977 59.6727L76.3432 56.9971L75.2954 59.6727H77.3977Z" fill="#505D65"/>
<path id="Vector_16" d="M80.3676 60.9162L78.7258 56.9029C78.7258 56.9029 78.7258 56.8493 78.7258 56.8226C78.7258 56.7089 78.8193 56.6152 78.9327 56.6152C79.0195 56.6152 79.0929 56.6687 79.1263 56.7423L80.6946 60.6621L82.2697 56.7423C82.3031 56.6621 82.3765 56.6152 82.4632 56.6152C82.5767 56.6152 82.6635 56.7022 82.6635 56.8159C82.6635 56.8159 82.6635 56.8761 82.6635 56.9029L81.0217 60.9162C80.9549 61.0902 80.7614 61.1704 80.5879 61.1035C80.5011 61.0701 80.4344 61.0032 80.401 60.9162H80.3676Z" fill="#505D65"/>
<path id="Vector_17" d="M83.7713 60.9034V56.8499C83.758 56.7496 83.8314 56.656 83.9382 56.6426C83.9515 56.6426 83.9649 56.6426 83.9782 56.6426H86.4409C86.5344 56.6426 86.6144 56.7228 86.6144 56.8165C86.6144 56.9101 86.5344 56.9904 86.4409 56.9904H84.1518V58.656H86.3942C86.4876 58.656 86.5677 58.7362 86.5677 58.8299C86.5677 58.9235 86.4876 59.0038 86.3942 59.0038H84.1518V60.763H86.4409C86.5344 60.763 86.6144 60.8432 86.6144 60.9369C86.6144 61.0305 86.5344 61.1108 86.4409 61.1108H83.9782C83.8781 61.1242 83.7847 61.0506 83.7713 60.9436C83.7713 60.9302 83.7713 60.9168 83.7713 60.9034Z" fill="#505D65"/>
<path id="Vector_18" d="M87.9158 60.9037V56.8502C87.9158 56.7432 88.0026 56.6562 88.1094 56.6562C88.2095 56.6562 88.2963 56.7432 88.2963 56.8435C88.2963 56.8435 88.2963 56.8435 88.2963 56.8502V60.7833H90.2984C90.3919 60.7833 90.472 60.8636 90.472 60.9573C90.472 61.0509 90.3919 61.1312 90.2984 61.1312H88.1227C88.0226 61.1445 87.9292 61.071 87.9158 60.9706C87.9158 60.9506 87.9158 60.9238 87.9158 60.9037Z" fill="#505D65"/>
<path id="Vector_19" d="M93.7689 60.9034V56.8499C93.7556 56.7496 93.829 56.656 93.9357 56.6426C93.9491 56.6426 93.9624 56.6426 93.9758 56.6426H96.4385C96.5319 56.6426 96.612 56.7228 96.612 56.8165C96.612 56.9101 96.5319 56.9904 96.4385 56.9904H94.1493V58.656H96.3918C96.4852 58.656 96.5653 58.7362 96.5653 58.8299C96.5653 58.9235 96.4852 59.0038 96.3918 59.0038H94.1493V60.763H96.4385C96.5319 60.763 96.612 60.8432 96.612 60.9369C96.612 61.0305 96.5319 61.1108 96.4385 61.1108H93.9758C93.8757 61.1242 93.7822 61.0506 93.7689 60.9436C93.7689 60.9302 93.7689 60.9168 93.7689 60.9034Z" fill="#505D65"/>
<path id="Vector_20" d="M101.037 61.0308L98.2938 57.2649V60.9372C98.2938 61.0442 98.2137 61.1245 98.1069 61.1312C98.0001 61.1312 97.9201 61.0442 97.9134 60.9372V56.9238C97.9134 56.79 98.0202 56.6763 98.1537 56.6696C98.1537 56.6696 98.1536 56.6696 98.1603 56.6696C98.2404 56.6696 98.3205 56.7098 98.3672 56.7767L101.09 60.4823V56.8502C101.09 56.7499 101.17 56.6629 101.27 56.6562C101.27 56.6562 101.27 56.6562 101.277 56.6562C101.384 56.6562 101.471 56.7432 101.471 56.8502V60.8636C101.471 60.9907 101.364 61.0977 101.237 61.1044C101.164 61.1111 101.09 61.0843 101.037 61.0308Z" fill="#505D65"/>
<path id="Vector_21" d="M102.959 60.9037V56.8502C102.959 56.7432 103.046 56.6562 103.152 56.6562C103.253 56.6562 103.339 56.7432 103.339 56.8435C103.339 56.8435 103.339 56.8435 103.339 56.8502V60.7833H105.342C105.435 60.7833 105.515 60.8636 105.515 60.9573C105.515 61.0509 105.435 61.1312 105.342 61.1312H103.166C103.066 61.1445 102.972 61.071 102.959 60.9706C102.959 60.9506 102.959 60.9238 102.959 60.9037Z" fill="#505D65"/>
<path id="Vector_22" d="M106.703 60.9372V56.8502C106.703 56.7432 106.79 56.6562 106.897 56.6562C106.997 56.6562 107.083 56.7432 107.083 56.8435C107.083 56.8435 107.083 56.8435 107.083 56.8502V60.9573C107.083 61.0643 107.003 61.1445 106.897 61.1512C106.783 61.1512 106.696 61.0576 106.703 60.9439C106.703 60.9439 106.703 60.9439 106.703 60.9372Z" fill="#505D65"/>
<path id="Vector_23" d="M112.349 59.111V60.3017C112.356 60.402 112.316 60.4957 112.242 60.5559C111.315 61.4187 109.866 61.3652 109.005 60.4421C108.145 59.5124 108.198 58.0609 109.119 57.198C109.539 56.81 110.087 56.5893 110.661 56.5826C111.241 56.5692 111.802 56.79 112.216 57.2047C112.249 57.2381 112.262 57.2783 112.262 57.3251C112.276 57.4187 112.209 57.5057 112.109 57.5191C112.109 57.5191 112.109 57.5191 112.102 57.5191C112.055 57.5191 112.015 57.499 111.982 57.4722C111.175 56.7833 109.96 56.8769 109.272 57.6863C108.585 58.4957 108.678 59.713 109.486 60.402C109.813 60.6829 110.227 60.8435 110.661 60.8635C111.161 60.8635 111.642 60.6696 111.995 60.3217V59.2448H110.46C110.367 59.2649 110.274 59.2047 110.254 59.111C110.233 59.0174 110.294 58.9237 110.387 58.9037C110.407 58.9037 110.434 58.9037 110.454 58.9037H112.162C112.262 58.9037 112.349 58.9906 112.342 59.0977C112.342 59.0977 112.342 59.1043 112.342 59.111H112.349Z" fill="#505D65"/>
<path id="Vector_24" d="M116.901 60.9372V58.9974H114.104V60.9372C114.104 61.0442 114.024 61.1245 113.918 61.1312C113.811 61.1312 113.731 61.0442 113.724 60.9372V56.8502C113.724 56.7432 113.811 56.6562 113.918 56.6562C114.018 56.6562 114.104 56.7432 114.104 56.8435C114.104 56.8435 114.104 56.8435 114.104 56.8502V58.6696H116.927V56.8502C116.927 56.7432 117.014 56.6562 117.121 56.6562C117.228 56.6562 117.315 56.7432 117.315 56.8502V60.9573C117.315 61.0643 117.228 61.1512 117.121 61.1512C117.014 61.1512 116.927 61.0643 116.927 60.9573L116.901 60.9372Z" fill="#505D65"/>
<path id="Vector_25" d="M119.904 60.9372V57.0041H118.603C118.509 57.0041 118.429 56.9238 118.429 56.8302C118.429 56.7365 118.509 56.6562 118.603 56.6562H121.599C121.693 56.6562 121.773 56.7365 121.773 56.8302C121.773 56.9238 121.693 57.0041 121.599 57.0041H120.264V60.9372C120.264 61.0442 120.178 61.1312 120.071 61.1312C119.964 61.1312 119.877 61.0442 119.877 60.9372H119.904Z" fill="#505D65"/>
<path id="Vector_26" d="M122.914 60.9034V56.8499C122.901 56.7496 122.974 56.656 123.081 56.6426C123.094 56.6426 123.108 56.6426 123.121 56.6426H125.584C125.677 56.6426 125.757 56.7228 125.757 56.8165C125.757 56.9101 125.677 56.9904 125.584 56.9904H123.294V58.656H125.537C125.63 58.656 125.71 58.7362 125.71 58.8299C125.71 58.9235 125.63 59.0038 125.537 59.0038H123.294V60.763H125.584C125.677 60.763 125.757 60.8432 125.757 60.9369C125.757 61.0305 125.677 61.1108 125.584 61.1108H123.121C123.021 61.1242 122.927 61.0506 122.914 60.9436C122.914 60.9302 122.914 60.9168 122.914 60.9034Z" fill="#505D65"/>
<path id="Vector_27" d="M130.182 61.0308L127.452 57.2649V60.9372C127.452 61.0442 127.372 61.1245 127.265 61.1312C127.159 61.1312 127.079 61.0442 127.072 60.9372V56.9238C127.072 56.79 127.179 56.6763 127.312 56.6696C127.312 56.6696 127.312 56.6696 127.319 56.6696C127.399 56.6696 127.479 56.7098 127.526 56.7767L130.249 60.4823V56.8502C130.249 56.7499 130.329 56.6629 130.429 56.6562C130.429 56.6562 130.429 56.6562 130.436 56.6562C130.542 56.6562 130.629 56.7432 130.629 56.8502V60.8636C130.629 60.9907 130.522 61.0977 130.395 61.1044C130.315 61.1178 130.235 61.091 130.182 61.0308Z" fill="#505D65"/>
<path id="Vector_28" d="M132.124 60.9034V56.8499C132.111 56.7496 132.184 56.656 132.291 56.6426C132.304 56.6426 132.318 56.6426 132.331 56.6426H134.794C134.887 56.6426 134.967 56.7228 134.967 56.8165C134.967 56.9101 134.887 56.9904 134.794 56.9904H132.504V58.656H134.747C134.84 58.656 134.92 58.7362 134.92 58.8299C134.92 58.9235 134.84 59.0038 134.747 59.0038H132.504V60.763H134.794C134.887 60.763 134.967 60.8432 134.967 60.9369C134.967 61.0305 134.887 61.1108 134.794 61.1108H132.331C132.231 61.1242 132.137 61.0506 132.124 60.9436C132.124 60.9302 132.124 60.9168 132.124 60.9034Z" fill="#505D65"/>
<path id="Vector_29" d="M136.249 60.9034V56.8499C136.235 56.7496 136.309 56.656 136.415 56.6426C136.429 56.6426 136.442 56.6426 136.455 56.6426H137.67C138.898 56.6426 139.892 57.6392 139.892 58.87C139.892 60.1008 138.898 61.0974 137.67 61.0974H136.455C136.355 61.1108 136.262 61.0372 136.249 60.9302C136.249 60.9235 136.249 60.9101 136.249 60.9034ZM137.67 60.763C138.705 60.763 139.545 59.9202 139.545 58.8834C139.545 57.8466 138.705 57.0038 137.67 57.0038H136.629V60.763H137.67Z" fill="#505D65"/>
</g>
</g>
</g>
<defs>
<linearGradient id="paint0_linear_0_1167" x1="21.0897" y1="44.8294" x2="24.6736" y2="44.8294" gradientUnits="userSpaceOnUse">
<stop stop-color="white"/>
<stop offset="1"/>
</linearGradient>
<linearGradient id="paint1_linear_0_1167" x1="-2.03853e-06" y1="24.8231" x2="78.5256" y2="24.8231" gradientUnits="userSpaceOnUse">
<stop stop-color="#03659C"/>
<stop offset="1" stop-color="#06B2B8"/>
</linearGradient>
<linearGradient id="paint2_linear_0_1167" x1="17.9863" y1="62.0471" x2="78.4155" y2="14.6808" gradientUnits="userSpaceOnUse">
<stop stop-color="#06B2B8"/>
<stop offset="0.2" stop-color="#06ABB5"/>
<stop offset="0.49" stop-color="#0596AE"/>
<stop offset="0.85" stop-color="#0476A2"/>
<stop offset="1" stop-color="#03659C"/>
</linearGradient>
<clipPath id="clip0_0_1167">
<rect width="159" height="70" fill="white"/>
</clipPath>
</defs>
</svg>
