<svg width="158" height="159" viewBox="0 0 158 159" fill="none" xmlns="http://www.w3.org/2000/svg">
<circle cx="79" cy="79.4863" r="79" fill="#050E31"/>
<path d="M79.5 62.9074C74.7261 62.9074 70.1477 64.7705 66.7721 68.087C63.3964 71.4034 61.5 75.9014 61.5 80.5916H68.25C69.4435 80.5916 70.5881 81.0574 71.432 81.8865C72.2759 82.7156 72.75 83.8401 72.75 85.0126V96.0653C72.75 97.2378 72.2759 98.3623 71.432 99.1914C70.5881 100.021 69.4435 100.486 68.25 100.486H61.5C60.3065 100.486 59.1619 100.021 58.318 99.1914C57.4741 98.3623 57 97.2378 57 96.0653V80.5916C57 68.3829 67.0733 58.4863 79.5 58.4863C91.9268 58.4863 102 68.3829 102 80.5916V96.0653C102 97.2378 101.526 98.3623 100.682 99.1914C99.8381 100.021 98.6935 100.486 97.5 100.486H90.75C89.5565 100.486 88.4119 100.021 87.568 99.1914C86.7241 98.3623 86.25 97.2378 86.25 96.0653V85.0126C86.25 83.8401 86.7241 82.7156 87.568 81.8865C88.4119 81.0574 89.5565 80.5916 90.75 80.5916H97.5C97.5 75.9014 95.6036 71.4034 92.2279 68.087C88.8523 64.7705 84.2739 62.9074 79.5 62.9074ZM61.5 85.0126V96.0653H68.25V85.0126H61.5ZM90.75 85.0126V96.0653H97.5V85.0126H90.75Z" fill="white"/>
</svg>
