<svg width="158" height="159" viewBox="0 0 158 159" fill="none" xmlns="http://www.w3.org/2000/svg">
<circle cx="79" cy="79.4863" r="79" fill="#E62737"/>
<path d="M43.7921 76.2692C43.1893 75.6628 42.3409 75.3708 41.2692 75.3708C40.1976 75.3708 39.2376 75.6179 38.3669 76.0671C37.4962 76.5387 36.7594 77.1452 36.1789 77.8414C35.3529 78.8296 34.7724 80.02 34.4598 81.3452C34.1473 82.6927 33.9687 84.0179 33.9687 85.3206C33.9687 86.9377 34.3036 88.1954 34.9957 89.0938C35.6878 89.9922 36.6924 90.4414 38.0097 90.4414C39.1036 90.4414 40.1083 90.2393 40.979 89.8575C41.8497 89.4756 42.5641 89.0264 43.1446 88.5323L43.1669 88.5099V88.4874C43.2562 88.2628 43.3456 87.9933 43.4125 87.7013C43.4795 87.4093 43.5242 87.0949 43.5242 86.8254V86.7131L43.4125 86.8029C43.1 87.005 42.7651 87.2072 42.3855 87.3644C42.006 87.5216 41.6265 87.6788 41.2469 87.7911C40.8451 87.9034 40.4655 88.0157 40.1083 88.0607C39.7288 88.128 39.3939 88.173 39.0813 88.173C37.4962 88.173 36.7371 87.005 36.7371 84.6243V83.8157C38.3446 83.7484 39.6841 83.5687 40.6888 83.2542C41.7381 82.9398 42.5641 82.5355 43.1446 82.0639C43.7251 81.5922 44.1493 81.0532 44.3725 80.4692C44.5958 79.8853 44.7074 79.3013 44.7074 78.6949C44.6851 77.6842 44.3949 76.8532 43.7921 76.2692ZM42.006 79.9302C41.8944 80.2671 41.6488 80.5815 41.2916 80.8735C40.912 81.1655 40.3762 81.4125 39.6618 81.5922C38.9697 81.7943 38.0543 81.9066 36.871 81.9516C36.938 81.435 37.0497 80.9184 37.1836 80.4243C37.3176 79.9077 37.5408 79.4136 37.8087 78.9644C38.1436 78.4029 38.5678 77.9537 39.059 77.6168C39.5725 77.2799 40.1306 77.1227 40.7111 77.1227C41.2246 77.1227 41.6041 77.2799 41.8051 77.6168C42.0283 77.9537 42.14 78.358 42.14 78.8746C42.1846 79.2339 42.1176 79.5933 42.006 79.9302Z" fill="white"/>
<path d="M30.5305 73.7088C30.9993 73.7088 31.4012 73.5516 31.7138 73.2371C32.0263 72.9227 32.1826 72.4735 32.1826 71.8895C32.1826 71.3505 32.0263 70.9238 31.7138 70.6318C31.4012 70.3398 30.9993 70.1826 30.5305 70.1826C30.0616 70.1826 29.6598 70.3398 29.3472 70.6542C29.0123 70.9687 28.856 71.3954 28.856 71.8895C28.856 73.0799 29.4142 73.7088 30.5305 73.7088Z" fill="white"/>
<path d="M29.9277 87.9933C29.883 87.8585 29.883 87.7911 29.883 87.7911L31.3565 75.6853L31.2896 75.6628C31.1556 75.6179 30.977 75.5954 30.7091 75.573C30.4189 75.5505 30.2179 75.5505 30.084 75.5505C29.4812 75.5505 28.923 75.6179 28.4319 75.7526C27.9407 75.8874 27.5165 76.0446 27.137 76.2468C26.9807 76.404 26.869 76.651 26.7574 77.0104C26.6458 77.3698 26.6011 77.6393 26.6011 77.7965V77.8863L28.7221 77.6617L27.2263 88.1954C27.2263 88.4649 27.3379 88.8243 27.5388 89.2735C27.7398 89.7002 27.9853 90.1045 28.2533 90.4414L28.2756 90.4639H28.3202C28.5435 90.4639 28.8114 90.4414 29.1016 90.3965C29.3919 90.3516 29.7044 90.3067 30.0393 90.2393C30.3519 90.1719 30.6644 90.1045 30.9993 90.0371C31.3119 89.9473 31.6021 89.8575 31.8254 89.7676H31.8477L31.87 89.7452C31.9817 89.543 32.0933 89.251 32.2049 88.9141C32.2942 88.5548 32.3612 88.2628 32.3612 88.0382V87.9484L30.0393 88.1954C29.9723 88.1505 29.9277 88.0831 29.9277 87.9933Z" fill="white"/>
<path d="M22.7834 87.9259C22.7611 87.8585 22.7388 87.7013 22.7388 87.6788L24.9267 69.6211L24.8597 69.5986C24.7258 69.5537 24.5472 69.5312 24.2792 69.5088C24.0113 69.4863 23.8104 69.4863 23.6541 69.4863C23.0736 69.4863 22.5155 69.5537 22.0243 69.6885C21.5332 69.8232 21.109 70.0029 20.7294 70.1826C20.5955 70.3398 20.4615 70.5869 20.3499 70.9462C20.2383 71.3056 20.1936 71.5751 20.1936 71.7323V71.8222L22.2699 71.5976L21.6894 75.9099C21.3545 75.7751 20.9973 75.6403 20.6401 75.5505C20.2383 75.4382 19.8364 75.3933 19.4122 75.3933C18.2512 75.3933 17.2019 75.6628 16.2642 76.2243C15.3266 76.7633 14.5452 77.5045 13.92 78.4254C13.2949 79.3238 12.8261 80.3569 12.4912 81.5248C12.1786 82.6927 12 83.928 12 85.1633C12 86.1066 12.0893 86.9377 12.2902 87.6115C12.4912 88.2853 12.7591 88.8243 13.1163 89.251C13.4735 89.6778 13.8754 89.9922 14.3665 90.1943C14.8354 90.3965 15.3712 90.4863 15.9517 90.4863C16.6661 90.4863 17.4475 90.3066 18.2512 89.9697C19.0327 89.6329 19.7248 89.0714 20.3052 88.2853H20.3499C20.4169 88.6222 20.5062 89.004 20.6401 89.3858C20.7741 89.7901 20.9304 90.1494 21.0866 90.4414L21.109 90.4863H21.1536C21.3545 90.4863 21.6001 90.4639 21.9127 90.4189C22.2029 90.374 22.5155 90.3291 22.8504 90.2842C23.1629 90.2168 23.4755 90.1494 23.8104 90.082C24.123 89.9922 24.3909 89.9024 24.6365 89.8125H24.6588L24.6811 89.7901C24.7927 89.5879 24.9044 89.3184 25.016 88.9815C25.1053 88.6446 25.1723 88.3526 25.1723 88.128V88.0382L22.895 88.2403C22.8281 88.128 22.8057 88.0382 22.7834 87.9259ZM14.7461 83.4339C14.7907 82.9623 14.8577 82.4681 14.9693 81.9965C15.0586 81.5248 15.1926 81.0307 15.3712 80.5591C15.5275 80.1099 15.7284 79.7056 15.9517 79.3462C16.3312 78.7398 16.8224 78.2232 17.4252 77.7965C18.0057 77.3698 18.7201 77.1676 19.5238 77.1676C19.8587 77.1676 20.1936 77.2125 20.5731 77.3248C20.9304 77.4147 21.2206 77.527 21.4662 77.6842L20.3722 86.1965C19.9927 86.8703 19.5238 87.3869 18.9434 87.7462C18.3852 88.0831 17.8047 88.2628 17.1796 88.2628C16.4205 88.2628 15.8177 87.9933 15.3712 87.4542C14.9247 86.9152 14.6791 86.0168 14.6791 84.7815C14.6791 84.3548 14.7014 83.9056 14.7461 83.4339Z" fill="white"/>
<path d="M137.762 90.1494V75.7751H141.111L141.691 77.1901C142.227 76.2468 143.142 75.5056 145.308 75.5056H146L145.487 79.0542C145.487 79.0542 144.995 79.0093 144.638 79.0093C143.41 79.0093 142.495 79.7056 141.914 80.7612V90.1494H137.762Z" fill="white"/>
<path d="M78.5535 79.0992C77.1023 79.0992 76.2986 80.4692 76.2986 82.9623C76.2986 85.4553 77.1023 86.8029 78.5535 86.8029C80.0047 86.8029 80.8084 85.4778 80.8084 82.9623C80.8084 80.4468 80.027 79.0992 78.5535 79.0992ZM78.5535 90.4863C73.7981 90.4863 72.1013 86.4435 72.1013 82.9623C72.1013 77.3922 75.4279 75.4157 78.5535 75.4157C81.6791 75.4157 85.0057 77.3922 85.0057 82.9623C85.0057 88.5323 81.6791 90.4863 78.5535 90.4863Z" fill="white"/>
<path d="M91.2346 86.5558C91.5248 86.7355 91.949 86.8927 92.7304 86.8927C93.869 86.8927 95.3872 86.466 95.3872 82.7601C95.3872 80.2895 94.6504 79.0992 93.11 79.0992C92.3955 79.0992 91.7704 79.4136 91.2346 79.9976V86.5558ZM92.5072 90.4863C89.4262 90.4863 87.8634 89.3858 87.1936 88.9141L87.1043 88.8468V70.1601L91.2123 69.5986V76.8307C91.8151 76.2018 92.909 75.4157 94.5835 75.4157C97.7537 75.4157 99.5845 77.9088 99.5845 82.2435C99.6068 87.7238 97.2179 90.4863 92.5072 90.4863Z" fill="white"/>
<path d="M103.983 74.45C102.665 74.45 101.884 73.6639 101.884 72.3612V72.2264C101.884 70.9238 102.643 70.1826 103.983 70.1826C105.322 70.1826 106.081 70.9238 106.081 72.2264V72.3612C106.081 73.6863 105.278 74.45 103.983 74.45ZM106.037 90.1494H101.929V75.7751H106.037V90.1494Z" fill="white"/>
<path d="M109.028 90.1494H113.159V69.5986L109.028 70.1826V90.1494Z" fill="white"/>
<path d="M118.204 74.45C116.887 74.45 116.106 73.6639 116.106 72.3612V72.2264C116.106 70.9238 116.865 70.1826 118.204 70.1826C119.544 70.1826 120.303 70.9238 120.303 72.2264V72.3612C120.303 73.6863 119.521 74.45 118.204 74.45ZM120.258 90.1494H116.15V75.7751H120.258V90.1494Z" fill="white"/>
<path d="M130.908 85.9943C130.506 86.5334 129.881 86.8029 129.077 86.8029C127.961 86.8029 126.688 86.3762 126.688 83.0072C126.688 80.3569 127.648 79.0318 129.568 79.0318C130.104 79.0318 130.528 79.0992 130.885 79.2564V85.9943H130.908ZM134.949 76.5837C134.346 76.2692 132.761 75.4157 129.992 75.4157C125.215 75.4157 122.491 78.2457 122.491 83.1644C122.491 88.0831 124.411 90.4863 127.938 90.4863C129.077 90.4863 130.327 90.127 130.997 89.2735C131.086 89.1612 131.153 89.0489 131.153 89.0489L131.6 90.127H135.06V76.6286L134.949 76.5837Z" fill="white"/>
<path d="M64.8231 70.1826L60.023 83.2767L55.2453 70.1826H50.847L49.5521 90.1494H53.7048L54.3299 79.3238L58.4379 90.1494H61.5858L65.6491 79.3238L66.2966 90.1494H70.4492L69.1766 70.1826H64.8231Z" fill="white"/>
</svg>
