<svg width="1479" height="236" viewBox="0 0 1479 236" fill="none" xmlns="http://www.w3.org/2000/svg">
<g filter="url(#filter0_d_0_254)">
<path d="M1420 10C1431.05 10 1440 18.9543 1440 30L1440 70.6871C1440 74.4838 1441.08 78.2021 1443.12 81.4073L1457.28 103.712C1458.94 106.329 1458.94 109.671 1457.28 112.288L1443.12 134.593C1441.08 137.798 1440 141.516 1440 145.313L1440 186C1440 197.046 1431.05 206 1420 206L40 206C28.9543 206 20 197.046 20 186L20 30C20 18.9543 28.9543 9.99998 40 9.99998L1420 10Z" fill="url(#paint0_linear_0_254)"/>
</g>
<defs>
<filter id="filter0_d_0_254" x="0" y="-1.52588e-05" width="1478.52" height="236" filterUnits="userSpaceOnUse" color-interpolation-filters="sRGB">
<feFlood flood-opacity="0" result="BackgroundImageFix"/>
<feColorMatrix in="SourceAlpha" type="matrix" values="0 0 0 0 0 0 0 0 0 0 0 0 0 0 0 0 0 0 127 0" result="hardAlpha"/>
<feOffset dy="10"/>
<feGaussianBlur stdDeviation="10"/>
<feComposite in2="hardAlpha" operator="out"/>
<feColorMatrix type="matrix" values="0 0 0 0 0 0 0 0 0 0 0 0 0 0 0 0 0 0 0.15 0"/>
<feBlend mode="normal" in2="BackgroundImageFix" result="effect1_dropShadow_0_254"/>
<feBlend mode="normal" in="SourceGraphic" in2="effect1_dropShadow_0_254" result="shape"/>
</filter>
<linearGradient id="paint0_linear_0_254" x1="1435.5" y1="9.99998" x2="20.0002" y2="206.001" gradientUnits="userSpaceOnUse">
<stop stop-color="#505D65"/>
<stop offset="1"/>
</linearGradient>
</defs>
</svg>
