<svg width="1479" height="156" viewBox="0 0 1479 156" fill="none" xmlns="http://www.w3.org/2000/svg">
<g filter="url(#filter0_d_0_1164)">
<path d="M1420 10C1431.05 10 1440 18.9543 1440 30L1440 30.6871C1440 34.4838 1441.08 38.2021 1443.12 41.4073L1457.28 63.7119C1458.94 66.3292 1458.94 69.6708 1457.28 72.2881L1443.12 94.5927C1441.08 97.7979 1440 101.516 1440 105.313L1440 106C1440 117.046 1431.05 126 1420 126L40 126C28.9543 126 20 117.046 20 106L20 30C20 18.9543 28.9543 9.99998 40 9.99998L1420 10Z" fill="white"/>
<path d="M1420 11.5C1430.22 11.5 1438.5 19.7827 1438.5 30L1438.5 30.6871C1438.5 34.7686 1439.66 38.7657 1441.85 42.2113L1456.01 64.5159C1457.36 66.6424 1457.36 69.3576 1456.01 71.4841L1441.85 93.7887C1439.66 97.2343 1438.5 101.231 1438.5 105.313L1438.5 106C1438.5 116.217 1430.22 124.5 1420 124.5L40 124.5C29.7827 124.5 21.5 116.217 21.5 106L21.5 30C21.5 19.7827 29.7827 11.5 40 11.5L1420 11.5Z" stroke="#13AFB6" stroke-width="3"/>
</g>
<defs>
<filter id="filter0_d_0_1164" x="0" y="-3.05176e-05" width="1478.52" height="156" filterUnits="userSpaceOnUse" color-interpolation-filters="sRGB">
<feFlood flood-opacity="0" result="BackgroundImageFix"/>
<feColorMatrix in="SourceAlpha" type="matrix" values="0 0 0 0 0 0 0 0 0 0 0 0 0 0 0 0 0 0 127 0" result="hardAlpha"/>
<feOffset dy="10"/>
<feGaussianBlur stdDeviation="10"/>
<feComposite in2="hardAlpha" operator="out"/>
<feColorMatrix type="matrix" values="0 0 0 0 0 0 0 0 0 0 0 0 0 0 0 0 0 0 0.15 0"/>
<feBlend mode="normal" in2="BackgroundImageFix" result="effect1_dropShadow_0_1164"/>
<feBlend mode="normal" in="SourceGraphic" in2="effect1_dropShadow_0_1164" result="shape"/>
</filter>
</defs>
</svg>
