<svg width="491" height="554" viewBox="0 0 491 554" fill="none" xmlns="http://www.w3.org/2000/svg">
    <line opacity="0.3" x1="181" y1="9.5" x2="419" y2="9.49998" stroke="#505D65"/>
    <line opacity="0.3" x1="169" y1="39.5" x2="419" y2="39.5" stroke="#505D65"/>
    <line opacity="0.3" x1="169" y1="69.5" x2="419" y2="69.5" stroke="#505D65"/>
    <line opacity="0.3" x1="169" y1="99.5" x2="419" y2="99.5" stroke="#505D65"/>
    <line opacity="0.3" x1="220" y1="129.5" x2="419" y2="129.5" stroke="#505D65"/>
    <line opacity="0.3" x1="131" y1="159.5" x2="419" y2="159.5" stroke="#505D65"/>
    <line opacity="0.3" x1="169" y1="189.5" x2="419" y2="189.5" stroke="#505D65"/>
    <line opacity="0.3" x1="192" y1="219.5" x2="419" y2="219.5" stroke="#505D65"/>
    <line opacity="0.3" x1="157" y1="249.5" x2="419" y2="249.5" stroke="#505D65"/>
    <line opacity="0.3" x1="197" y1="279.5" x2="419" y2="279.5" stroke="#505D65"/>
    <path d="M65.88 15V1.22H71.38C72.74 1.22 73.76 1.64 74.44 2.48C75.14 3.32 75.48 4.34 75.48 5.54C75.48 6.74 75.14 7.76 74.44 8.6C73.76 9.42 72.74 9.84 71.38 9.84H67.76V15H65.88ZM71.36 2.96H67.76V8.1H71.26C72.84 8.1 73.62 6.96 73.62 5.54C73.62 4.12 72.86 2.96 71.36 2.96ZM84.0489 10.7V5.66H85.8689V15H84.0489V13.6C83.5089 14.64 82.2889 15.2 81.1489 15.2C78.8289 15.2 77.5289 13.7 77.5489 11.06V5.66H79.3689V10.94C79.3689 12.48 80.1289 13.42 81.4089 13.42C82.9089 13.42 84.0489 12.56 84.0489 10.7ZM90.6994 13.56V15H88.8794V0.58H90.6994V7.06C91.3194 6.02 92.5594 5.46 93.9794 5.46C95.3194 5.46 96.4394 5.9 97.3394 6.8C98.2394 7.7 98.6994 8.86 98.6994 10.32C98.6994 11.76 98.2394 12.94 97.3194 13.84C96.3994 14.74 95.2794 15.2 93.9594 15.2C92.6194 15.2 91.3194 14.6 90.6994 13.56ZM90.7194 10.3C90.7194 11.26 91.0194 12.02 91.6194 12.58C92.2194 13.14 92.9594 13.42 93.8194 13.42C94.6794 13.42 95.3794 13.12 95.9594 12.54C96.5394 11.96 96.8394 11.2 96.8394 10.3C96.8394 9.4 96.5394 8.66 95.9594 8.1C95.3794 7.52 94.6794 7.24 93.8194 7.24C92.9994 7.24 92.2794 7.52 91.6594 8.06C91.0394 8.6 90.7194 9.36 90.7194 10.3ZM101.125 15V0.58H102.945V15H101.125ZM107.789 15H105.989V5.66H107.789V15ZM105.989 3.06C105.509 2.6 105.509 1.84 105.989 1.38C106.489 0.919999 107.289 0.919999 107.769 1.38C108.269 1.84 108.269 2.6 107.769 3.06C107.289 3.52 106.489 3.52 105.989 3.06ZM115.153 5.46C116.633 5.46 117.833 5.96 118.753 6.96L117.373 8.12C116.793 7.54 116.053 7.24 115.153 7.24C114.293 7.24 113.553 7.52 112.933 8.1C112.313 8.66 112.013 9.4 112.013 10.3C112.013 11.22 112.313 11.98 112.933 12.56C113.553 13.14 114.293 13.44 115.153 13.44C116.053 13.44 116.793 13.14 117.373 12.52L118.773 13.68C117.833 14.7 116.633 15.2 115.153 15.2C113.773 15.2 112.613 14.74 111.653 13.84C110.693 12.92 110.213 11.74 110.213 10.3C110.213 8.86 110.693 7.7 111.653 6.8C112.613 5.9 113.773 5.46 115.153 5.46ZM125.782 11.02H127.642C127.662 11.64 127.942 12.22 128.502 12.72C129.062 13.22 129.762 13.46 130.602 13.46C132.262 13.46 133.202 12.58 133.382 11.44C133.482 10.08 132.482 9.3 131.042 8.98L129.262 8.54C127.022 7.96 125.902 6.76 125.902 4.94C125.902 3.8 126.342 2.88 127.222 2.16C128.102 1.42 129.142 1.06 130.362 1.06C131.642 1.06 132.702 1.44 133.542 2.18C134.382 2.92 134.802 3.88 134.802 5.1H132.942C132.942 3.74 131.862 2.84 130.342 2.84C129.642 2.84 129.042 3.04 128.522 3.42C128.022 3.8 127.762 4.3 127.762 4.92C127.762 5.88 128.422 6.52 129.722 6.84L131.522 7.28C134.142 7.94 135.462 9.44 135.202 11.6C135.082 12.64 134.602 13.5 133.782 14.18C132.962 14.86 131.902 15.2 130.602 15.2C129.222 15.2 128.082 14.78 127.162 13.96C126.242 13.12 125.782 12.14 125.782 11.02ZM146.927 15H145.127V13.56C144.507 14.6 143.207 15.2 141.847 15.2C140.527 15.2 139.407 14.74 138.487 13.84C137.567 12.94 137.107 11.76 137.107 10.32C137.107 8.86 137.567 7.7 138.487 6.8C139.407 5.9 140.527 5.46 141.847 5.46C143.207 5.46 144.547 6.04 145.127 7.06V5.66H146.927V15ZM145.107 10.3C145.107 9.36 144.787 8.6 144.167 8.06C143.547 7.52 142.827 7.24 142.007 7.24C141.147 7.24 140.407 7.52 139.827 8.1C139.247 8.66 138.967 9.4 138.967 10.3C138.967 11.2 139.267 11.96 139.847 12.54C140.427 13.12 141.147 13.42 142.007 13.42C142.867 13.42 143.607 13.14 144.207 12.58C144.807 12.02 145.107 11.26 145.107 10.3ZM149.973 15V0.58H151.793V15H149.973ZM156.036 9.6H161.836C161.616 8.06 160.516 7.1 158.996 7.1C157.416 7.1 156.256 8.06 156.036 9.6ZM163.636 10.3C163.636 10.64 163.636 10.88 163.616 11.02H156.036C156.256 12.56 157.456 13.56 159.056 13.56C160.196 13.56 161.236 13.02 161.736 12.12C161.916 12.18 162.176 12.3 162.536 12.44L163.296 12.72C162.516 14.32 160.856 15.2 158.996 15.2C157.636 15.2 156.496 14.74 155.576 13.84C154.676 12.94 154.216 11.76 154.216 10.3C154.216 8.84 154.676 7.68 155.576 6.8C156.496 5.9 157.636 5.46 158.996 5.46C160.336 5.46 161.456 5.9 162.316 6.8C163.196 7.68 163.636 8.84 163.636 10.3ZM65.88 45V31.22H71.38C72.74 31.22 73.76 31.64 74.44 32.48C75.14 33.32 75.48 34.34 75.48 35.54C75.48 36.74 75.14 37.76 74.44 38.6C73.76 39.42 72.74 39.84 71.38 39.84H67.76V45H65.88ZM71.36 32.96H67.76V38.1H71.26C72.84 38.1 73.62 36.96 73.62 35.54C73.62 34.12 72.86 32.96 71.36 32.96ZM79.3517 41.6V45H77.5317V35.66H79.3517V37.76C79.8117 36.22 80.6717 35.46 81.9517 35.46C82.6917 35.46 83.2317 35.58 83.5717 35.82L83.2917 37.52C82.8517 37.3 82.3917 37.2 81.9117 37.2C80.2117 37.2 79.3517 38.96 79.3517 41.6ZM86.388 39.6H92.188C91.968 38.06 90.868 37.1 89.348 37.1C87.768 37.1 86.608 38.06 86.388 39.6ZM93.988 40.3C93.988 40.64 93.988 40.88 93.968 41.02H86.388C86.608 42.56 87.808 43.56 89.408 43.56C90.548 43.56 91.588 43.02 92.088 42.12C92.268 42.18 92.528 42.3 92.888 42.44L93.648 42.72C92.868 44.32 91.208 45.2 89.348 45.2C87.988 45.2 86.848 44.74 85.928 43.84C85.028 42.94 84.568 41.76 84.568 40.3C84.568 38.84 85.028 37.68 85.928 36.8C86.848 35.9 87.988 35.46 89.348 35.46C90.688 35.46 91.808 35.9 92.668 36.8C93.548 37.68 93.988 38.84 93.988 40.3ZM101.017 41.02H102.877C102.897 41.64 103.177 42.22 103.737 42.72C104.297 43.22 104.997 43.46 105.837 43.46C107.497 43.46 108.437 42.58 108.617 41.44C108.717 40.08 107.717 39.3 106.277 38.98L104.497 38.54C102.257 37.96 101.137 36.76 101.137 34.94C101.137 33.8 101.577 32.88 102.457 32.16C103.337 31.42 104.377 31.06 105.597 31.06C106.877 31.06 107.937 31.44 108.777 32.18C109.617 32.92 110.037 33.88 110.037 35.1H108.177C108.177 33.74 107.097 32.84 105.577 32.84C104.877 32.84 104.277 33.04 103.757 33.42C103.257 33.8 102.997 34.3 102.997 34.92C102.997 35.88 103.657 36.52 104.957 36.84L106.757 37.28C109.377 37.94 110.697 39.44 110.437 41.6C110.317 42.64 109.837 43.5 109.017 44.18C108.197 44.86 107.137 45.2 105.837 45.2C104.457 45.2 103.317 44.78 102.397 43.96C101.477 43.12 101.017 42.14 101.017 41.02ZM122.161 45H120.361V43.56C119.741 44.6 118.441 45.2 117.081 45.2C115.761 45.2 114.641 44.74 113.721 43.84C112.801 42.94 112.341 41.76 112.341 40.32C112.341 38.86 112.801 37.7 113.721 36.8C114.641 35.9 115.761 35.46 117.081 35.46C118.441 35.46 119.781 36.04 120.361 37.06V35.66H122.161V45ZM120.341 40.3C120.341 39.36 120.021 38.6 119.401 38.06C118.781 37.52 118.061 37.24 117.241 37.24C116.381 37.24 115.641 37.52 115.061 38.1C114.481 38.66 114.201 39.4 114.201 40.3C114.201 41.2 114.501 41.96 115.081 42.54C115.661 43.12 116.381 43.42 117.241 43.42C118.101 43.42 118.841 43.14 119.441 42.58C120.041 42.02 120.341 41.26 120.341 40.3ZM125.208 45V30.58H127.028V45H125.208ZM131.271 39.6H137.071C136.851 38.06 135.751 37.1 134.231 37.1C132.651 37.1 131.491 38.06 131.271 39.6ZM138.871 40.3C138.871 40.64 138.871 40.88 138.851 41.02H131.271C131.491 42.56 132.691 43.56 134.291 43.56C135.431 43.56 136.471 43.02 136.971 42.12C137.151 42.18 137.411 42.3 137.771 42.44L138.531 42.72C137.751 44.32 136.091 45.2 134.231 45.2C132.871 45.2 131.731 44.74 130.811 43.84C129.911 42.94 129.451 41.76 129.451 40.3C129.451 38.84 129.911 37.68 130.811 36.8C131.731 35.9 132.871 35.46 134.231 35.46C135.571 35.46 136.691 35.9 137.551 36.8C138.431 37.68 138.871 38.84 138.871 40.3ZM147.819 34.74L146.479 33.68C147.199 32.42 148.659 31.66 150.259 31.76C151.319 31.82 152.179 32.2 152.859 32.92C153.559 33.62 153.879 34.44 153.859 35.38C153.859 35.64 153.819 35.9 153.739 36.18C153.499 36.96 153.019 37.56 152.319 37.96C152.979 38.2 153.499 38.66 153.879 39.36C154.279 40.06 154.439 40.76 154.379 41.48C154.279 42.58 153.759 43.5 152.819 44.22C151.879 44.94 150.819 45.26 149.599 45.16C147.899 45.06 146.419 43.96 145.719 42.44L147.299 41.58C147.719 42.52 148.719 43.3 149.739 43.38H149.719C150.459 43.42 151.099 43.24 151.659 42.82C152.239 42.4 152.539 41.86 152.559 41.24C152.579 40.62 152.319 40.06 151.819 39.6C151.319 39.14 150.739 38.9 150.039 38.9H148.559V37.16H150.039C150.939 37.18 151.679 36.54 151.839 35.66C151.939 35.12 151.859 34.66 151.619 34.32C151.319 33.86 150.799 33.6 150.099 33.56C149.159 33.48 148.399 33.88 147.819 34.74ZM65.88 75V61.22H71.38C72.74 61.22 73.76 61.64 74.44 62.48C75.14 63.32 75.48 64.34 75.48 65.54C75.48 66.74 75.14 67.76 74.44 68.6C73.76 69.42 72.74 69.84 71.38 69.84H67.76V75H65.88ZM71.36 62.96H67.76V68.1H71.26C72.84 68.1 73.62 66.96 73.62 65.54C73.62 64.12 72.86 62.96 71.36 62.96ZM79.3517 71.6V75H77.5317V65.66H79.3517V67.76C79.8117 66.22 80.6717 65.46 81.9517 65.46C82.6917 65.46 83.2317 65.58 83.5717 65.82L83.2917 67.52C82.8517 67.3 82.3917 67.2 81.9117 67.2C80.2117 67.2 79.3517 68.96 79.3517 71.6ZM86.388 69.6H92.188C91.968 68.06 90.868 67.1 89.348 67.1C87.768 67.1 86.608 68.06 86.388 69.6ZM93.988 70.3C93.988 70.64 93.988 70.88 93.968 71.02H86.388C86.608 72.56 87.808 73.56 89.408 73.56C90.548 73.56 91.588 73.02 92.088 72.12C92.268 72.18 92.528 72.3 92.888 72.44L93.648 72.72C92.868 74.32 91.208 75.2 89.348 75.2C87.988 75.2 86.848 74.74 85.928 73.84C85.028 72.94 84.568 71.76 84.568 70.3C84.568 68.84 85.028 67.68 85.928 66.8C86.848 65.9 87.988 65.46 89.348 65.46C90.688 65.46 91.808 65.9 92.668 66.8C93.548 67.68 93.988 68.84 93.988 70.3ZM101.017 71.02H102.877C102.897 71.64 103.177 72.22 103.737 72.72C104.297 73.22 104.997 73.46 105.837 73.46C107.497 73.46 108.437 72.58 108.617 71.44C108.717 70.08 107.717 69.3 106.277 68.98L104.497 68.54C102.257 67.96 101.137 66.76 101.137 64.94C101.137 63.8 101.577 62.88 102.457 62.16C103.337 61.42 104.377 61.06 105.597 61.06C106.877 61.06 107.937 61.44 108.777 62.18C109.617 62.92 110.037 63.88 110.037 65.1H108.177C108.177 63.74 107.097 62.84 105.577 62.84C104.877 62.84 104.277 63.04 103.757 63.42C103.257 63.8 102.997 64.3 102.997 64.92C102.997 65.88 103.657 66.52 104.957 66.84L106.757 67.28C109.377 67.94 110.697 69.44 110.437 71.6C110.317 72.64 109.837 73.5 109.017 74.18C108.197 74.86 107.137 75.2 105.837 75.2C104.457 75.2 103.317 74.78 102.397 73.96C101.477 73.12 101.017 72.14 101.017 71.02ZM122.161 75H120.361V73.56C119.741 74.6 118.441 75.2 117.081 75.2C115.761 75.2 114.641 74.74 113.721 73.84C112.801 72.94 112.341 71.76 112.341 70.32C112.341 68.86 112.801 67.7 113.721 66.8C114.641 65.9 115.761 65.46 117.081 65.46C118.441 65.46 119.781 66.04 120.361 67.06V65.66H122.161V75ZM120.341 70.3C120.341 69.36 120.021 68.6 119.401 68.06C118.781 67.52 118.061 67.24 117.241 67.24C116.381 67.24 115.641 67.52 115.061 68.1C114.481 68.66 114.201 69.4 114.201 70.3C114.201 71.2 114.501 71.96 115.081 72.54C115.661 73.12 116.381 73.42 117.241 73.42C118.101 73.42 118.841 73.14 119.441 72.58C120.041 72.02 120.341 71.26 120.341 70.3ZM125.208 75V60.58H127.028V75H125.208ZM131.271 69.6H137.071C136.851 68.06 135.751 67.1 134.231 67.1C132.651 67.1 131.491 68.06 131.271 69.6ZM138.871 70.3C138.871 70.64 138.871 70.88 138.851 71.02H131.271C131.491 72.56 132.691 73.56 134.291 73.56C135.431 73.56 136.471 73.02 136.971 72.12C137.151 72.18 137.411 72.3 137.771 72.44L138.531 72.72C137.751 74.32 136.091 75.2 134.231 75.2C132.871 75.2 131.731 74.74 130.811 73.84C129.911 72.94 129.451 71.76 129.451 70.3C129.451 68.84 129.911 67.68 130.811 66.8C131.731 65.9 132.871 65.46 134.231 65.46C135.571 65.46 136.691 65.9 137.551 66.8C138.431 67.68 138.871 68.84 138.871 70.3ZM146.059 75V74.2L151.359 67.78C151.999 67.04 152.319 66.32 152.319 65.64C152.319 64.42 151.299 63.58 149.999 63.58C148.799 63.58 147.819 64.36 147.639 65.64L145.899 65.22C146.079 64.18 146.539 63.34 147.299 62.72C148.059 62.1 148.959 61.78 149.999 61.78C151.159 61.78 152.139 62.14 152.919 62.86C153.699 63.58 154.099 64.5 154.099 65.64C154.099 66.82 153.619 67.94 152.679 69.02L149.139 73.2H154.119V75H146.059ZM65.88 105V91.22H71.38C72.74 91.22 73.76 91.64 74.44 92.48C75.14 93.32 75.48 94.34 75.48 95.54C75.48 96.74 75.14 97.76 74.44 98.6C73.76 99.42 72.74 99.84 71.38 99.84H67.76V105H65.88ZM71.36 92.96H67.76V98.1H71.26C72.84 98.1 73.62 96.96 73.62 95.54C73.62 94.12 72.86 92.96 71.36 92.96ZM79.3517 101.6V105H77.5317V95.66H79.3517V97.76C79.8117 96.22 80.6717 95.46 81.9517 95.46C82.6917 95.46 83.2317 95.58 83.5717 95.82L83.2917 97.52C82.8517 97.3 82.3917 97.2 81.9117 97.2C80.2117 97.2 79.3517 98.96 79.3517 101.6ZM86.388 99.6H92.188C91.968 98.06 90.868 97.1 89.348 97.1C87.768 97.1 86.608 98.06 86.388 99.6ZM93.988 100.3C93.988 100.64 93.988 100.88 93.968 101.02H86.388C86.608 102.56 87.808 103.56 89.408 103.56C90.548 103.56 91.588 103.02 92.088 102.12C92.268 102.18 92.528 102.3 92.888 102.44L93.648 102.72C92.868 104.32 91.208 105.2 89.348 105.2C87.988 105.2 86.848 104.74 85.928 103.84C85.028 102.94 84.568 101.76 84.568 100.3C84.568 98.84 85.028 97.68 85.928 96.8C86.848 95.9 87.988 95.46 89.348 95.46C90.688 95.46 91.808 95.9 92.668 96.8C93.548 97.68 93.988 98.84 93.988 100.3ZM101.017 101.02H102.877C102.897 101.64 103.177 102.22 103.737 102.72C104.297 103.22 104.997 103.46 105.837 103.46C107.497 103.46 108.437 102.58 108.617 101.44C108.717 100.08 107.717 99.3 106.277 98.98L104.497 98.54C102.257 97.96 101.137 96.76 101.137 94.94C101.137 93.8 101.577 92.88 102.457 92.16C103.337 91.42 104.377 91.06 105.597 91.06C106.877 91.06 107.937 91.44 108.777 92.18C109.617 92.92 110.037 93.88 110.037 95.1H108.177C108.177 93.74 107.097 92.84 105.577 92.84C104.877 92.84 104.277 93.04 103.757 93.42C103.257 93.8 102.997 94.3 102.997 94.92C102.997 95.88 103.657 96.52 104.957 96.84L106.757 97.28C109.377 97.94 110.697 99.44 110.437 101.6C110.317 102.64 109.837 103.5 109.017 104.18C108.197 104.86 107.137 105.2 105.837 105.2C104.457 105.2 103.317 104.78 102.397 103.96C101.477 103.12 101.017 102.14 101.017 101.02ZM122.161 105H120.361V103.56C119.741 104.6 118.441 105.2 117.081 105.2C115.761 105.2 114.641 104.74 113.721 103.84C112.801 102.94 112.341 101.76 112.341 100.32C112.341 98.86 112.801 97.7 113.721 96.8C114.641 95.9 115.761 95.46 117.081 95.46C118.441 95.46 119.781 96.04 120.361 97.06V95.66H122.161V105ZM120.341 100.3C120.341 99.36 120.021 98.6 119.401 98.06C118.781 97.52 118.061 97.24 117.241 97.24C116.381 97.24 115.641 97.52 115.061 98.1C114.481 98.66 114.201 99.4 114.201 100.3C114.201 101.2 114.501 101.96 115.081 102.54C115.661 103.12 116.381 103.42 117.241 103.42C118.101 103.42 118.841 103.14 119.441 102.58C120.041 102.02 120.341 101.26 120.341 100.3ZM125.208 105V90.58H127.028V105H125.208ZM131.271 99.6H137.071C136.851 98.06 135.751 97.1 134.231 97.1C132.651 97.1 131.491 98.06 131.271 99.6ZM138.871 100.3C138.871 100.64 138.871 100.88 138.851 101.02H131.271C131.491 102.56 132.691 103.56 134.291 103.56C135.431 103.56 136.471 103.02 136.971 102.12C137.151 102.18 137.411 102.3 137.771 102.44L138.531 102.72C137.751 104.32 136.091 105.2 134.231 105.2C132.871 105.2 131.731 104.74 130.811 103.84C129.911 102.94 129.451 101.76 129.451 100.3C129.451 98.84 129.911 97.68 130.811 96.8C131.731 95.9 132.871 95.46 134.231 95.46C135.571 95.46 136.691 95.9 137.551 96.8C138.431 97.68 138.871 98.84 138.871 100.3ZM149.619 105H147.819V94.22L145.699 94.96V93.24L149.619 91.82V105ZM65.04 131.02H66.9C66.92 131.64 67.2 132.22 67.76 132.72C68.32 133.22 69.02 133.46 69.86 133.46C71.52 133.46 72.46 132.58 72.64 131.44C72.74 130.08 71.74 129.3 70.3 128.98L68.52 128.54C66.28 127.96 65.16 126.76 65.16 124.94C65.16 123.8 65.6 122.88 66.48 122.16C67.36 121.42 68.4 121.06 69.62 121.06C70.9 121.06 71.96 121.44 72.8 122.18C73.64 122.92 74.06 123.88 74.06 125.1H72.2C72.2 123.74 71.12 122.84 69.6 122.84C68.9 122.84 68.3 123.04 67.78 123.42C67.28 123.8 67.02 124.3 67.02 124.92C67.02 125.88 67.68 126.52 68.98 126.84L70.78 127.28C73.4 127.94 74.72 129.44 74.46 131.6C74.34 132.64 73.86 133.5 73.04 134.18C72.22 134.86 71.16 135.2 69.86 135.2C68.48 135.2 67.34 134.78 66.42 133.96C65.5 133.12 65.04 132.14 65.04 131.02ZM79.4072 122.14V125.66H81.3872V127.2H79.4072V135H77.5872V127.2H75.9072V125.66H77.5872V122.14H79.4072ZM85.2697 131.6V135H83.4497V125.66H85.2697V127.76C85.7297 126.22 86.5897 125.46 87.8697 125.46C88.6097 125.46 89.1497 125.58 89.4897 125.82L89.2097 127.52C88.7697 127.3 88.3097 127.2 87.8297 127.2C86.1297 127.2 85.2697 128.96 85.2697 131.6ZM100.306 135H98.5059V133.56C97.8859 134.6 96.5859 135.2 95.2259 135.2C93.9059 135.2 92.7859 134.74 91.8659 133.84C90.9459 132.94 90.4859 131.76 90.4859 130.32C90.4859 128.86 90.9459 127.7 91.8659 126.8C92.7859 125.9 93.9059 125.46 95.2259 125.46C96.5859 125.46 97.9259 126.04 98.5059 127.06V125.66H100.306V135ZM98.4859 130.3C98.4859 129.36 98.1659 128.6 97.5459 128.06C96.9259 127.52 96.2059 127.24 95.3859 127.24C94.5259 127.24 93.7859 127.52 93.2059 128.1C92.6259 128.66 92.3459 129.4 92.3459 130.3C92.3459 131.2 92.6459 131.96 93.2259 132.54C93.8059 133.12 94.5259 133.42 95.3859 133.42C96.2459 133.42 96.9859 133.14 97.5859 132.58C98.1859 132.02 98.4859 131.26 98.4859 130.3ZM105.872 122.14V125.66H107.852V127.2H105.872V135H104.052V127.2H102.372V125.66H104.052V122.14H105.872ZM110.978 129.6H116.778C116.558 128.06 115.458 127.1 113.938 127.1C112.358 127.1 111.198 128.06 110.978 129.6ZM118.578 130.3C118.578 130.64 118.578 130.88 118.558 131.02H110.978C111.198 132.56 112.398 133.56 113.998 133.56C115.138 133.56 116.178 133.02 116.678 132.12C116.858 132.18 117.118 132.3 117.478 132.44L118.238 132.72C117.458 134.32 115.798 135.2 113.938 135.2C112.578 135.2 111.438 134.74 110.518 133.84C109.618 132.94 109.158 131.76 109.158 130.3C109.158 128.84 109.618 127.68 110.518 126.8C111.438 125.9 112.578 125.46 113.938 125.46C115.278 125.46 116.398 125.9 117.258 126.8C118.138 127.68 118.578 128.84 118.578 130.3ZM121.571 136.72L122.291 136.34C122.831 137.36 123.931 137.94 124.991 137.94C127.211 137.94 128.311 136.52 128.311 133.7C128.311 133.64 128.291 133.54 128.291 133.48C127.751 134.54 126.371 135.2 125.011 135.2C123.691 135.2 122.571 134.76 121.651 133.86C120.731 132.96 120.271 131.8 120.271 130.36C120.271 128.9 120.731 127.72 121.651 126.82C122.571 125.92 123.691 125.46 125.011 125.46C126.371 125.46 127.711 126.08 128.291 127.12V125.66H130.091V133.58C130.091 137.64 128.391 139.66 124.991 139.66C123.231 139.66 121.651 138.74 120.771 137.14C120.871 137.1 121.131 136.96 121.571 136.72ZM128.271 130.34C128.271 129.38 127.971 128.62 127.371 128.08C126.771 127.52 126.031 127.24 125.171 127.24C124.311 127.24 123.591 127.54 123.011 128.12C122.431 128.7 122.131 129.44 122.131 130.34C122.131 131.28 122.411 132.02 122.991 132.58C123.571 133.14 124.311 133.42 125.171 133.42C125.991 133.42 126.711 133.14 127.331 132.58C127.951 132.02 128.271 131.28 128.271 130.34ZM134.918 135H133.118V125.66H134.918V135ZM133.118 123.06C132.638 122.6 132.638 121.84 133.118 121.38C133.618 120.92 134.418 120.92 134.898 121.38C135.398 121.84 135.398 122.6 134.898 123.06C134.418 123.52 133.618 123.52 133.118 123.06ZM142.281 125.46C143.761 125.46 144.961 125.96 145.881 126.96L144.501 128.12C143.921 127.54 143.181 127.24 142.281 127.24C141.421 127.24 140.681 127.52 140.061 128.1C139.441 128.66 139.141 129.4 139.141 130.3C139.141 131.22 139.441 131.98 140.061 132.56C140.681 133.14 141.421 133.44 142.281 133.44C143.181 133.44 143.921 133.14 144.501 132.52L145.901 133.68C144.961 134.7 143.761 135.2 142.281 135.2C140.901 135.2 139.741 134.74 138.781 133.84C137.821 132.92 137.341 131.74 137.341 130.3C137.341 128.86 137.821 127.7 138.781 126.8C139.741 125.9 140.901 125.46 142.281 125.46ZM159.531 129.78L163.211 135H160.951L157.391 129.84H155.631V135H153.751V121.22H159.051C160.411 121.22 161.431 121.64 162.111 122.48C162.791 123.32 163.131 124.34 163.131 125.54C163.131 126.66 162.831 127.62 162.231 128.42C161.651 129.22 160.751 129.68 159.531 129.78ZM158.991 122.96H155.631V128.1H158.911C160.491 128.1 161.211 126.98 161.211 125.54C161.211 124.12 160.491 122.96 158.991 122.96ZM164.724 130.3C164.724 128.86 165.184 127.7 166.124 126.8C167.064 125.9 168.224 125.46 169.604 125.46C170.984 125.46 172.144 125.9 173.084 126.8C174.024 127.7 174.504 128.86 174.504 130.3C174.504 131.74 174.024 132.92 173.064 133.84C172.124 134.74 170.964 135.2 169.604 135.2C168.244 135.2 167.084 134.74 166.144 133.84C165.204 132.94 164.724 131.76 164.724 130.3ZM172.684 130.3C172.684 129.38 172.384 128.64 171.784 128.08C171.204 127.52 170.464 127.24 169.604 127.24C168.744 127.24 168.004 127.52 167.404 128.08C166.824 128.64 166.524 129.38 166.524 130.3C166.524 131.24 166.824 132 167.404 132.58C168.004 133.16 168.744 133.44 169.604 133.44C170.464 133.44 171.204 133.16 171.784 132.58C172.384 132 172.684 131.24 172.684 130.3ZM183.326 130.7V125.66H185.146V135H183.326V133.6C182.786 134.64 181.566 135.2 180.426 135.2C178.106 135.2 176.806 133.7 176.826 131.06V125.66H178.646V130.94C178.646 132.48 179.406 133.42 180.686 133.42C182.186 133.42 183.326 132.56 183.326 130.7ZM189.977 129.96V135H188.157V125.66H189.977V127.06C190.517 126.02 191.757 125.46 192.897 125.46C195.217 125.46 196.497 126.96 196.497 129.6V135H194.677V129.72C194.677 128.18 193.897 127.24 192.617 127.24C191.157 127.24 189.977 128.12 189.977 129.96ZM208.626 135H206.806V133.56C206.186 134.6 204.886 135.2 203.526 135.2C202.206 135.2 201.086 134.74 200.166 133.84C199.266 132.94 198.806 131.76 198.806 130.32C198.806 128.86 199.266 127.7 200.166 126.8C201.066 125.9 202.186 125.46 203.506 125.46C204.926 125.46 206.186 126.02 206.806 127.06V120.58H208.626V135ZM203.686 127.24C202.826 127.24 202.106 127.52 201.526 128.1C200.946 128.66 200.666 129.4 200.666 130.3C200.666 131.2 200.946 131.96 201.526 132.54C202.106 133.12 202.826 133.42 203.686 133.42C204.546 133.42 205.266 133.14 205.866 132.58C206.486 132 206.786 131.24 206.786 130.3C206.786 129.36 206.466 128.6 205.846 128.06C205.226 127.52 204.506 127.24 203.686 127.24ZM64.56 152.98V151.22H74.8V152.98H70.62V165H68.74V152.98H64.56ZM76.2708 159.6H82.0708C81.8508 158.06 80.7508 157.1 79.2308 157.1C77.6508 157.1 76.4908 158.06 76.2708 159.6ZM83.8708 160.3C83.8708 160.64 83.8708 160.88 83.8508 161.02H76.2708C76.4908 162.56 77.6908 163.56 79.2908 163.56C80.4308 163.56 81.4708 163.02 81.9708 162.12C82.1508 162.18 82.4108 162.3 82.7708 162.44L83.5308 162.72C82.7508 164.32 81.0908 165.2 79.2308 165.2C77.8708 165.2 76.7308 164.74 75.8108 163.84C74.9108 162.94 74.4508 161.76 74.4508 160.3C74.4508 158.84 74.9108 157.68 75.8108 156.8C76.7308 155.9 77.8708 155.46 79.2308 155.46C80.5708 155.46 81.6908 155.9 82.5508 156.8C83.4308 157.68 83.8708 158.84 83.8708 160.3ZM95.3841 165H93.5841V163.56C92.9641 164.6 91.6641 165.2 90.3041 165.2C88.9841 165.2 87.8641 164.74 86.9441 163.84C86.0241 162.94 85.5641 161.76 85.5641 160.32C85.5641 158.86 86.0241 157.7 86.9441 156.8C87.8641 155.9 88.9841 155.46 90.3041 155.46C91.6641 155.46 93.0041 156.04 93.5841 157.06V155.66H95.3841V165ZM93.5641 160.3C93.5641 159.36 93.2441 158.6 92.6241 158.06C92.0041 157.52 91.2841 157.24 90.4641 157.24C89.6041 157.24 88.8641 157.52 88.2841 158.1C87.7041 158.66 87.4241 159.4 87.4241 160.3C87.4241 161.2 87.7241 161.96 88.3041 162.54C88.8841 163.12 89.6041 163.42 90.4641 163.42C91.3241 163.42 92.0641 163.14 92.6641 162.58C93.2641 162.02 93.5641 161.26 93.5641 160.3ZM109.17 157.24C107.65 157.22 106.69 158.36 106.69 159.96V165H104.87V159.7C104.87 158.18 104.07 157.24 102.85 157.24C101.41 157.24 100.25 158.14 100.25 159.96V165H98.4302V155.66H100.25V157.06C100.71 156.12 101.89 155.58 102.83 155.5C103.19 155.48 103.53 155.5 103.85 155.56C105.03 155.74 105.85 156.36 106.29 157.38C106.95 156.1 108.03 155.46 109.53 155.46C111.85 155.46 113.13 156.96 113.13 159.6V165H111.31V159.72C111.31 158.18 110.51 157.24 109.17 157.24ZM68.48 181.22L73.34 191.34L78.2 181.22H79.9L81.58 195H79.74L78.48 184.64L74.18 193.48H72.54L68.2 184.64L66.94 195H65.1L66.78 181.22H68.48ZM93.2747 195H91.4747V193.56C90.8547 194.6 89.5547 195.2 88.1947 195.2C86.8747 195.2 85.7547 194.74 84.8347 193.84C83.9147 192.94 83.4547 191.76 83.4547 190.32C83.4547 188.86 83.9147 187.7 84.8347 186.8C85.7547 185.9 86.8747 185.46 88.1947 185.46C89.5547 185.46 90.8947 186.04 91.4747 187.06V185.66H93.2747V195ZM91.4547 190.3C91.4547 189.36 91.1347 188.6 90.5147 188.06C89.8947 187.52 89.1747 187.24 88.3547 187.24C87.4947 187.24 86.7547 187.52 86.1747 188.1C85.5947 188.66 85.3147 189.4 85.3147 190.3C85.3147 191.2 85.6147 191.96 86.1947 192.54C86.7747 193.12 87.4947 193.42 88.3547 193.42C89.2147 193.42 89.9547 193.14 90.5547 192.58C91.1547 192.02 91.4547 191.26 91.4547 190.3ZM98.1408 191.6V195H96.3208V185.66H98.1408V187.76C98.6008 186.22 99.4608 185.46 100.741 185.46C101.481 185.46 102.021 185.58 102.361 185.82L102.081 187.52C101.641 187.3 101.181 187.2 100.701 187.2C99.0008 187.2 98.1408 188.96 98.1408 191.6ZM110.271 195L106.011 190.44V195H104.211V180.58H106.011V188.92L109.231 185.66H111.711L107.711 189.7L112.671 195H110.271ZM114.865 189.6H120.665C120.445 188.06 119.345 187.1 117.825 187.1C116.245 187.1 115.085 188.06 114.865 189.6ZM122.465 190.3C122.465 190.64 122.465 190.88 122.445 191.02H114.865C115.085 192.56 116.285 193.56 117.885 193.56C119.025 193.56 120.065 193.02 120.565 192.12C120.745 192.18 121.005 192.3 121.365 192.44L122.125 192.72C121.345 194.32 119.685 195.2 117.825 195.2C116.465 195.2 115.325 194.74 114.405 193.84C113.505 192.94 113.045 191.76 113.045 190.3C113.045 188.84 113.505 187.68 114.405 186.8C115.325 185.9 116.465 185.46 117.825 185.46C119.165 185.46 120.285 185.9 121.145 186.8C122.025 187.68 122.465 188.84 122.465 190.3ZM127.298 182.14V185.66H129.278V187.2H127.298V195H125.478V187.2H123.798V185.66H125.478V182.14H127.298ZM133.14 195H131.34V185.66H133.14V195ZM131.34 183.06C130.86 182.6 130.86 181.84 131.34 181.38C131.84 180.92 132.64 180.92 133.12 181.38C133.62 181.84 133.62 182.6 133.12 183.06C132.64 183.52 131.84 183.52 131.34 183.06ZM138.004 189.96V195H136.184V185.66H138.004V187.06C138.544 186.02 139.784 185.46 140.924 185.46C143.244 185.46 144.524 186.96 144.524 189.6V195H142.704V189.72C142.704 188.18 141.924 187.24 140.644 187.24C139.184 187.24 138.004 188.12 138.004 189.96ZM148.134 196.72L148.854 196.34C149.394 197.36 150.494 197.94 151.554 197.94C153.774 197.94 154.874 196.52 154.874 193.7C154.874 193.64 154.854 193.54 154.854 193.48C154.314 194.54 152.934 195.2 151.574 195.2C150.254 195.2 149.134 194.76 148.214 193.86C147.294 192.96 146.834 191.8 146.834 190.36C146.834 188.9 147.294 187.72 148.214 186.82C149.134 185.92 150.254 185.46 151.574 185.46C152.934 185.46 154.274 186.08 154.854 187.12V185.66H156.654V193.58C156.654 197.64 154.954 199.66 151.554 199.66C149.794 199.66 148.214 198.74 147.334 197.14C147.434 197.1 147.694 196.96 148.134 196.72ZM154.834 190.34C154.834 189.38 154.534 188.62 153.934 188.08C153.334 187.52 152.594 187.24 151.734 187.24C150.874 187.24 150.154 187.54 149.574 188.12C148.994 188.7 148.694 189.44 148.694 190.34C148.694 191.28 148.974 192.02 149.554 192.58C150.134 193.14 150.874 193.42 151.734 193.42C152.554 193.42 153.274 193.14 153.894 192.58C154.514 192.02 154.834 191.28 154.834 190.34ZM71.66 219.78L75.34 225H73.08L69.52 219.84H67.76V225H65.88V211.22H71.18C72.54 211.22 73.56 211.64 74.24 212.48C74.92 213.32 75.26 214.34 75.26 215.54C75.26 216.66 74.96 217.62 74.36 218.42C73.78 219.22 72.88 219.68 71.66 219.78ZM71.12 212.96H67.76V218.1H71.04C72.62 218.1 73.34 216.98 73.34 215.54C73.34 214.12 72.62 212.96 71.12 212.96ZM78.6731 219.6H84.4731C84.2531 218.06 83.1531 217.1 81.6331 217.1C80.0531 217.1 78.8931 218.06 78.6731 219.6ZM86.2731 220.3C86.2731 220.64 86.2731 220.88 86.2531 221.02H78.6731C78.8931 222.56 80.0931 223.56 81.6931 223.56C82.8331 223.56 83.8731 223.02 84.3731 222.12C84.5531 222.18 84.8131 222.3 85.1731 222.44L85.9331 222.72C85.1531 224.32 83.4931 225.2 81.6331 225.2C80.2731 225.2 79.1331 224.74 78.2131 223.84C77.3131 222.94 76.8531 221.76 76.8531 220.3C76.8531 218.84 77.3131 217.68 78.2131 216.8C79.1331 215.9 80.2731 215.46 81.6331 215.46C82.9731 215.46 84.0931 215.9 84.9531 216.8C85.8331 217.68 86.2731 218.84 86.2731 220.3ZM91.9864 221.18L90.7064 220.88C88.9264 220.4 88.0464 219.5 88.2064 217.84C88.2664 217.16 88.6264 216.6 89.2464 216.14C89.8664 215.68 90.6064 215.46 91.4464 215.46C93.1864 215.46 94.5264 216.32 94.6864 218.1H92.9464C92.8464 217.44 92.2264 217.04 91.4864 217.04C90.7864 217.04 90.2264 217.38 90.0864 217.88C90.0064 218.18 90.0064 218.42 90.1064 218.62C90.2464 218.92 90.6264 219.16 91.2064 219.34L92.5864 219.68C94.2064 220.08 95.0064 220.98 95.0064 222.4C95.0064 223.24 94.6464 223.92 93.9464 224.44C93.2464 224.94 92.4064 225.2 91.3864 225.2C90.4864 225.2 89.6864 224.92 88.9864 224.38C88.2864 223.84 87.9264 223.1 87.9064 222.2H89.5664C89.6464 222.7 89.9064 223.04 90.3264 223.26C90.7464 223.52 91.2264 223.62 91.8064 223.58C92.6664 223.52 93.2064 223.02 93.2264 222.36C93.2464 221.72 92.7664 221.36 91.9864 221.18ZM98.5755 219.6H104.375C104.155 218.06 103.055 217.1 101.535 217.1C99.9555 217.1 98.7955 218.06 98.5755 219.6ZM106.175 220.3C106.175 220.64 106.175 220.88 106.155 221.02H98.5755C98.7955 222.56 99.9955 223.56 101.595 223.56C102.735 223.56 103.775 223.02 104.275 222.12C104.455 222.18 104.715 222.3 105.075 222.44L105.835 222.72C105.055 224.32 103.395 225.2 101.535 225.2C100.175 225.2 99.0355 224.74 98.1155 223.84C97.2155 222.94 96.7555 221.76 96.7555 220.3C96.7555 218.84 97.2155 217.68 98.1155 216.8C99.0355 215.9 100.175 215.46 101.535 215.46C102.875 215.46 103.995 215.9 104.855 216.8C105.735 217.68 106.175 218.84 106.175 220.3ZM110.309 221.6V225H108.489V215.66H110.309V217.76C110.769 216.22 111.629 215.46 112.909 215.46C113.649 215.46 114.189 215.58 114.529 215.82L114.249 217.52C113.809 217.3 113.349 217.2 112.869 217.2C111.169 217.2 110.309 218.96 110.309 221.6ZM119.079 225L115.199 215.66H117.119L119.959 222.68L122.779 215.66H124.719L120.819 225H120.839H119.079ZM127.56 219.6H133.36C133.14 218.06 132.04 217.1 130.52 217.1C128.94 217.1 127.78 218.06 127.56 219.6ZM135.16 220.3C135.16 220.64 135.16 220.88 135.14 221.02H127.56C127.78 222.56 128.98 223.56 130.58 223.56C131.72 223.56 132.76 223.02 133.26 222.12C133.44 222.18 133.7 222.3 134.06 222.44L134.82 222.72C134.04 224.32 132.38 225.2 130.52 225.2C129.16 225.2 128.02 224.74 127.1 223.84C126.2 222.94 125.74 221.76 125.74 220.3C125.74 218.84 126.2 217.68 127.1 216.8C128.02 215.9 129.16 215.46 130.52 215.46C131.86 215.46 132.98 215.9 133.84 216.8C134.72 217.68 135.16 218.84 135.16 220.3ZM143.028 225V211.22H148.528C149.888 211.22 150.908 211.64 151.588 212.48C152.288 213.32 152.628 214.34 152.628 215.54C152.628 216.74 152.288 217.76 151.588 218.6C150.908 219.42 149.888 219.84 148.528 219.84H144.908V225H143.028ZM148.508 212.96H144.908V218.1H148.408C149.988 218.1 150.768 216.96 150.768 215.54C150.768 214.12 150.008 212.96 148.508 212.96ZM153.826 220.3C153.826 218.86 154.286 217.7 155.226 216.8C156.166 215.9 157.326 215.46 158.706 215.46C160.086 215.46 161.246 215.9 162.186 216.8C163.126 217.7 163.606 218.86 163.606 220.3C163.606 221.74 163.126 222.92 162.166 223.84C161.226 224.74 160.066 225.2 158.706 225.2C157.346 225.2 156.186 224.74 155.246 223.84C154.306 222.94 153.826 221.76 153.826 220.3ZM161.786 220.3C161.786 219.38 161.486 218.64 160.886 218.08C160.306 217.52 159.566 217.24 158.706 217.24C157.846 217.24 157.106 217.52 156.506 218.08C155.926 218.64 155.626 219.38 155.626 220.3C155.626 221.24 155.926 222 156.506 222.58C157.106 223.16 157.846 223.44 158.706 223.44C159.566 223.44 160.306 223.16 160.886 222.58C161.486 222 161.786 221.24 161.786 220.3ZM165.408 220.3C165.408 218.86 165.868 217.7 166.808 216.8C167.748 215.9 168.908 215.46 170.288 215.46C171.668 215.46 172.828 215.9 173.768 216.8C174.708 217.7 175.188 218.86 175.188 220.3C175.188 221.74 174.708 222.92 173.748 223.84C172.808 224.74 171.648 225.2 170.288 225.2C168.928 225.2 167.768 224.74 166.828 223.84C165.888 222.94 165.408 221.76 165.408 220.3ZM173.368 220.3C173.368 219.38 173.068 218.64 172.468 218.08C171.888 217.52 171.148 217.24 170.288 217.24C169.428 217.24 168.688 217.52 168.088 218.08C167.508 218.64 167.208 219.38 167.208 220.3C167.208 221.24 167.508 222 168.088 222.58C168.688 223.16 169.428 223.44 170.288 223.44C171.148 223.44 171.888 223.16 172.468 222.58C173.068 222 173.368 221.24 173.368 220.3ZM177.61 225V210.58H179.43V225H177.61ZM65.88 255V241.22H67.74V253.26H73.36V255H65.88ZM77.2223 255H75.4223V245.66H77.2223V255ZM75.4223 243.06C74.9423 242.6 74.9423 241.84 75.4223 241.38C75.9223 240.92 76.7223 240.92 77.2023 241.38C77.7023 241.84 77.7023 242.6 77.2023 243.06C76.7223 243.52 75.9223 243.52 75.4223 243.06ZM87.5861 247.12V245.66H89.4061V259.54H87.5861V253.6C87.0061 254.64 85.7061 255.2 84.3261 255.2C83.0061 255.2 81.8861 254.76 80.9861 253.86C80.0861 252.96 79.6461 251.8 79.6461 250.36C79.6461 248.9 80.1061 247.72 81.0061 246.82C81.9061 245.92 83.0261 245.46 84.3261 245.46C85.6661 245.46 87.0061 246.08 87.5861 247.12ZM87.5861 250.38C87.5861 249.42 87.2861 248.66 86.6861 248.1C86.1061 247.52 85.3661 247.24 84.5061 247.24C83.6461 247.24 82.9461 247.54 82.3661 248.12C81.7861 248.7 81.5061 249.46 81.5061 250.38C81.5061 251.28 81.7861 252.02 82.3661 252.58C82.9461 253.14 83.6461 253.42 84.5061 253.42C85.3261 253.42 86.0261 253.16 86.6461 252.62C87.2661 252.08 87.5861 251.32 87.5861 250.38ZM98.8536 250.7V245.66H100.674V255H98.8536V253.6C98.3136 254.64 97.0936 255.2 95.9536 255.2C93.6336 255.2 92.3336 253.7 92.3536 251.06V245.66H94.1736V250.94C94.1736 252.48 94.9336 253.42 96.2136 253.42C97.7136 253.42 98.8536 252.56 98.8536 250.7ZM105.484 255H103.684V245.66H105.484V255ZM103.684 243.06C103.204 242.6 103.204 241.84 103.684 241.38C104.184 240.92 104.984 240.92 105.464 241.38C105.964 241.84 105.964 242.6 105.464 243.06C104.984 243.52 104.184 243.52 103.684 243.06ZM117.728 255H115.908V253.56C115.288 254.6 113.988 255.2 112.628 255.2C111.308 255.2 110.188 254.74 109.268 253.84C108.368 252.94 107.908 251.76 107.908 250.32C107.908 248.86 108.368 247.7 109.268 246.8C110.168 245.9 111.288 245.46 112.608 245.46C114.028 245.46 115.288 246.02 115.908 247.06V240.58H117.728V255ZM112.788 247.24C111.928 247.24 111.208 247.52 110.628 248.1C110.048 248.66 109.768 249.4 109.768 250.3C109.768 251.2 110.048 251.96 110.628 252.54C111.208 253.12 111.928 253.42 112.788 253.42C113.648 253.42 114.368 253.14 114.968 252.58C115.588 252 115.888 251.24 115.888 250.3C115.888 249.36 115.568 248.6 114.948 248.06C114.328 247.52 113.608 247.24 112.788 247.24ZM122.574 255H120.774V245.66H122.574V255ZM120.774 243.06C120.294 242.6 120.294 241.84 120.774 241.38C121.274 240.92 122.074 240.92 122.554 241.38C123.054 241.84 123.054 242.6 122.554 243.06C122.074 243.52 121.274 243.52 120.774 243.06ZM128.138 242.14V245.66H130.118V247.2H128.138V255H126.318V247.2H124.638V245.66H126.318V242.14H128.138ZM140.5 245.66L134.7 259.54H132.8L134.76 254.72L131.02 245.66H132.96L135.76 252.42L138.56 245.66H140.5ZM75.78 281.64L77.18 282.82C75.92 284.32 74.06 285.2 71.96 285.2C70.02 285.2 68.36 284.52 67 283.14C65.66 281.76 64.98 280.1 64.98 278.14C64.98 276.18 65.66 274.52 67 273.14C68.36 271.76 70.02 271.06 71.96 271.06C74.04 271.06 75.88 271.94 77.14 273.4L75.74 274.56C74.7 273.42 73.44 272.86 71.96 272.86C70.52 272.86 69.3 273.38 68.32 274.4C67.34 275.42 66.84 276.68 66.84 278.14C66.84 279.6 67.34 280.86 68.32 281.88C69.3 282.9 70.52 283.4 71.96 283.4C73.5 283.4 74.78 282.82 75.78 281.64ZM78.5523 280.3C78.5523 278.86 79.0123 277.7 79.9523 276.8C80.8923 275.9 82.0523 275.46 83.4323 275.46C84.8123 275.46 85.9723 275.9 86.9123 276.8C87.8523 277.7 88.3323 278.86 88.3323 280.3C88.3323 281.74 87.8523 282.92 86.8923 283.84C85.9523 284.74 84.7923 285.2 83.4323 285.2C82.0723 285.2 80.9123 284.74 79.9723 283.84C79.0323 282.94 78.5523 281.76 78.5523 280.3ZM86.5123 280.3C86.5123 279.38 86.2123 278.64 85.6123 278.08C85.0323 277.52 84.2923 277.24 83.4323 277.24C82.5723 277.24 81.8323 277.52 81.2323 278.08C80.6523 278.64 80.3523 279.38 80.3523 280.3C80.3523 281.24 80.6523 282 81.2323 282.58C81.8323 283.16 82.5723 283.44 83.4323 283.44C84.2923 283.44 85.0323 283.16 85.6123 282.58C86.2123 282 86.5123 281.24 86.5123 280.3ZM101.494 277.24C99.9744 277.22 99.0144 278.36 99.0144 279.96V285H97.1944V279.7C97.1944 278.18 96.3944 277.24 95.1744 277.24C93.7344 277.24 92.5744 278.14 92.5744 279.96V285H90.7544V275.66H92.5744V277.06C93.0344 276.12 94.2144 275.58 95.1544 275.5C95.5144 275.48 95.8544 275.5 96.1744 275.56C97.3544 275.74 98.1744 276.36 98.6144 277.38C99.2744 276.1 100.354 275.46 101.854 275.46C104.174 275.46 105.454 276.96 105.454 279.6V285H103.634V279.72C103.634 278.18 102.834 277.24 101.494 277.24ZM119.112 277.24C117.592 277.22 116.632 278.36 116.632 279.96V285H114.812V279.7C114.812 278.18 114.012 277.24 112.792 277.24C111.352 277.24 110.192 278.14 110.192 279.96V285H108.372V275.66H110.192V277.06C110.652 276.12 111.832 275.58 112.772 275.5C113.132 275.48 113.472 275.5 113.792 275.56C114.972 275.74 115.792 276.36 116.232 277.38C116.892 276.1 117.972 275.46 119.472 275.46C121.792 275.46 123.072 276.96 123.072 279.6V285H121.252V279.72C121.252 278.18 120.452 277.24 119.112 277.24ZM127.789 285H125.989V275.66H127.789V285ZM125.989 273.06C125.509 272.6 125.509 271.84 125.989 271.38C126.489 270.92 127.289 270.92 127.769 271.38C128.269 271.84 128.269 272.6 127.769 273.06C127.289 273.52 126.489 273.52 125.989 273.06ZM134.233 281.18L132.953 280.88C131.173 280.4 130.293 279.5 130.453 277.84C130.513 277.16 130.873 276.6 131.493 276.14C132.113 275.68 132.853 275.46 133.693 275.46C135.433 275.46 136.773 276.32 136.933 278.1H135.192C135.093 277.44 134.473 277.04 133.733 277.04C133.033 277.04 132.473 277.38 132.333 277.88C132.252 278.18 132.252 278.42 132.353 278.62C132.493 278.92 132.873 279.16 133.453 279.34L134.833 279.68C136.453 280.08 137.253 280.98 137.253 282.4C137.253 283.24 136.893 283.92 136.193 284.44C135.493 284.94 134.653 285.2 133.633 285.2C132.733 285.2 131.933 284.92 131.233 284.38C130.533 283.84 130.173 283.1 130.153 282.2H131.812C131.893 282.7 132.153 283.04 132.573 283.26C132.993 283.52 133.473 283.62 134.053 283.58C134.913 283.52 135.453 283.02 135.473 282.36C135.493 281.72 135.013 281.36 134.233 281.18ZM143.022 281.18L141.742 280.88C139.962 280.4 139.082 279.5 139.242 277.84C139.302 277.16 139.662 276.6 140.282 276.14C140.902 275.68 141.642 275.46 142.482 275.46C144.222 275.46 145.562 276.32 145.722 278.1H143.982C143.882 277.44 143.262 277.04 142.522 277.04C141.822 277.04 141.262 277.38 141.122 277.88C141.042 278.18 141.042 278.42 141.142 278.62C141.282 278.92 141.662 279.16 142.242 279.34L143.622 279.68C145.242 280.08 146.042 280.98 146.042 282.4C146.042 283.24 145.682 283.92 144.982 284.44C144.282 284.94 143.442 285.2 142.422 285.2C141.522 285.2 140.722 284.92 140.022 284.38C139.322 283.84 138.962 283.1 138.942 282.2H140.602C140.682 282.7 140.942 283.04 141.362 283.26C141.782 283.52 142.262 283.62 142.842 283.58C143.702 283.52 144.242 283.02 144.262 282.36C144.282 281.72 143.802 281.36 143.022 281.18ZM150.211 285H148.411V275.66H150.211V285ZM148.411 273.06C147.931 272.6 147.931 271.84 148.411 271.38C148.911 270.92 149.711 270.92 150.191 271.38C150.691 271.84 150.691 272.6 150.191 273.06C149.711 273.52 148.911 273.52 148.411 273.06ZM152.634 280.3C152.634 278.86 153.094 277.7 154.034 276.8C154.974 275.9 156.134 275.46 157.514 275.46C158.894 275.46 160.054 275.9 160.994 276.8C161.934 277.7 162.414 278.86 162.414 280.3C162.414 281.74 161.934 282.92 160.974 283.84C160.034 284.74 158.874 285.2 157.514 285.2C156.154 285.2 154.994 284.74 154.054 283.84C153.114 282.94 152.634 281.76 152.634 280.3ZM160.594 280.3C160.594 279.38 160.294 278.64 159.694 278.08C159.114 277.52 158.374 277.24 157.514 277.24C156.654 277.24 155.914 277.52 155.314 278.08C154.734 278.64 154.434 279.38 154.434 280.3C154.434 281.24 154.734 282 155.314 282.58C155.914 283.16 156.654 283.44 157.514 283.44C158.374 283.44 159.114 283.16 159.694 282.58C160.294 282 160.594 281.24 160.594 280.3ZM166.656 279.96V285H164.836V275.66H166.656V277.06C167.196 276.02 168.436 275.46 169.576 275.46C171.896 275.46 173.176 276.96 173.176 279.6V285H171.356V279.72C171.356 278.18 170.576 277.24 169.296 277.24C167.836 277.24 166.656 278.12 166.656 279.96ZM179.506 281.18L178.226 280.88C176.446 280.4 175.566 279.5 175.726 277.84C175.786 277.16 176.146 276.6 176.766 276.14C177.386 275.68 178.126 275.46 178.966 275.46C180.706 275.46 182.046 276.32 182.206 278.1H180.466C180.366 277.44 179.746 277.04 179.006 277.04C178.306 277.04 177.746 277.38 177.606 277.88C177.526 278.18 177.526 278.42 177.626 278.62C177.766 278.92 178.146 279.16 178.726 279.34L180.106 279.68C181.726 280.08 182.526 280.98 182.526 282.4C182.526 283.24 182.166 283.92 181.466 284.44C180.766 284.94 179.926 285.2 178.906 285.2C178.006 285.2 177.206 284.92 176.506 284.38C175.806 283.84 175.446 283.1 175.426 282.2H177.086C177.166 282.7 177.426 283.04 177.846 283.26C178.266 283.52 178.746 283.62 179.326 283.58C180.186 283.52 180.726 283.02 180.746 282.36C180.766 281.72 180.286 281.36 179.506 281.18Z" fill="white"/>
    <path d="M428.831 4.12L433.871 1.72V15H431.071V5.62L428.831 6.58V4.12ZM443.69 10.38C443.69 8.96 442.71 8.24 441.27 8.24C440.25 8.24 439.05 8.64 438.39 9.68L436.85 8.88L437.93 1.9H445.61V4.46H440.15L439.81 6.58C440.31 6.12 441.11 5.9 442.21 5.9C443.43 5.9 444.45 6.3 445.27 7.08C446.09 7.86 446.49 8.96 446.49 10.38C446.49 11.8 445.99 12.96 445.01 13.86C444.03 14.76 442.71 15.2 441.09 15.2C439.27 15.2 437.47 14.14 436.45 12.56L438.81 11.04C439.31 11.84 440.27 12.4 441.09 12.4C442.59 12.4 443.69 11.48 443.69 10.38ZM451.946 13.52C451.946 14.48 451.166 15.2 450.206 15.2C449.246 15.2 448.486 14.48 448.486 13.52C448.486 12.56 449.246 11.86 450.206 11.86C451.166 11.86 451.946 12.58 451.946 13.52ZM454.172 8.44C454.172 3.9 455.812 1.64 459.072 1.64C460.912 1.64 462.232 2.36 462.932 3.64C463.652 4.92 463.932 6.44 463.932 8.44C463.932 10.44 463.652 11.92 462.932 13.2C462.232 14.48 460.912 15.2 459.072 15.2C455.812 15.2 454.172 12.94 454.172 8.44ZM456.972 8.44C456.972 11.14 457.672 12.48 459.072 12.48C460.452 12.48 461.132 11.14 461.132 8.44C461.132 5.72 460.452 4.36 459.072 4.36C457.672 4.36 456.972 5.72 456.972 8.44ZM466.242 8.44C466.242 3.9 467.882 1.64 471.142 1.64C472.982 1.64 474.302 2.36 475.002 3.64C475.722 4.92 476.002 6.44 476.002 8.44C476.002 10.44 475.722 11.92 475.002 13.2C474.302 14.48 472.982 15.2 471.142 15.2C467.882 15.2 466.242 12.94 466.242 8.44ZM469.042 8.44C469.042 11.14 469.742 12.48 471.142 12.48C472.522 12.48 473.202 11.14 473.202 8.44C473.202 5.72 472.522 4.36 471.142 4.36C469.742 4.36 469.042 5.72 469.042 8.44ZM487.932 1.9L481.492 15H480.112L486.552 1.9H487.932ZM480.532 1.76C481.272 1.76 481.892 2.02 482.412 2.54C482.952 3.06 483.212 3.7 483.212 4.44C483.212 5.18 482.952 5.82 482.432 6.34C481.912 6.84 481.272 7.1 480.532 7.1C479.792 7.1 479.152 6.84 478.632 6.34C478.132 5.82 477.872 5.18 477.872 4.44C477.872 3.7 478.132 3.06 478.632 2.54C479.152 2.02 479.792 1.76 480.532 1.76ZM480.532 5.48C481.112 5.48 481.592 5.02 481.592 4.44C481.592 3.86 481.112 3.38 480.532 3.38C479.952 3.38 479.492 3.86 479.492 4.44C479.492 5.02 479.912 5.48 480.532 5.48ZM487.612 9.86C488.352 9.86 488.972 10.12 489.492 10.66C490.032 11.18 490.292 11.8 490.292 12.54C490.292 13.28 490.032 13.92 489.512 14.44C488.992 14.94 488.352 15.2 487.612 15.2C486.872 15.2 486.232 14.94 485.712 14.44C485.212 13.92 484.952 13.28 484.952 12.54C484.952 11.8 485.212 11.16 485.712 10.64C486.232 10.12 486.872 9.86 487.612 9.86ZM486.572 12.54C486.572 13.16 486.992 13.58 487.612 13.58C488.532 13.58 489.052 12.44 488.352 11.8C487.712 11.1 486.572 11.62 486.572 12.54ZM443.69 40.38C443.69 38.96 442.71 38.24 441.27 38.24C440.25 38.24 439.05 38.64 438.39 39.68L436.85 38.88L437.93 31.9H445.61V34.46H440.15L439.81 36.58C440.31 36.12 441.11 35.9 442.21 35.9C443.43 35.9 444.45 36.3 445.27 37.08C446.09 37.86 446.49 38.96 446.49 40.38C446.49 41.8 445.99 42.96 445.01 43.86C444.03 44.76 442.71 45.2 441.09 45.2C439.27 45.2 437.47 44.14 436.45 42.56L438.81 41.04C439.31 41.84 440.27 42.4 441.09 42.4C442.59 42.4 443.69 41.48 443.69 40.38ZM451.946 43.52C451.946 44.48 451.166 45.2 450.206 45.2C449.246 45.2 448.486 44.48 448.486 43.52C448.486 42.56 449.246 41.86 450.206 41.86C451.166 41.86 451.946 42.58 451.946 43.52ZM454.172 38.44C454.172 33.9 455.812 31.64 459.072 31.64C460.912 31.64 462.232 32.36 462.932 33.64C463.652 34.92 463.932 36.44 463.932 38.44C463.932 40.44 463.652 41.92 462.932 43.2C462.232 44.48 460.912 45.2 459.072 45.2C455.812 45.2 454.172 42.94 454.172 38.44ZM456.972 38.44C456.972 41.14 457.672 42.48 459.072 42.48C460.452 42.48 461.132 41.14 461.132 38.44C461.132 35.72 460.452 34.36 459.072 34.36C457.672 34.36 456.972 35.72 456.972 38.44ZM466.242 38.44C466.242 33.9 467.882 31.64 471.142 31.64C472.982 31.64 474.302 32.36 475.002 33.64C475.722 34.92 476.002 36.44 476.002 38.44C476.002 40.44 475.722 41.92 475.002 43.2C474.302 44.48 472.982 45.2 471.142 45.2C467.882 45.2 466.242 42.94 466.242 38.44ZM469.042 38.44C469.042 41.14 469.742 42.48 471.142 42.48C472.522 42.48 473.202 41.14 473.202 38.44C473.202 35.72 472.522 34.36 471.142 34.36C469.742 34.36 469.042 35.72 469.042 38.44ZM487.932 31.9L481.492 45H480.112L486.552 31.9H487.932ZM480.532 31.76C481.272 31.76 481.892 32.02 482.412 32.54C482.952 33.06 483.212 33.7 483.212 34.44C483.212 35.18 482.952 35.82 482.432 36.34C481.912 36.84 481.272 37.1 480.532 37.1C479.792 37.1 479.152 36.84 478.632 36.34C478.132 35.82 477.872 35.18 477.872 34.44C477.872 33.7 478.132 33.06 478.632 32.54C479.152 32.02 479.792 31.76 480.532 31.76ZM480.532 35.48C481.112 35.48 481.592 35.02 481.592 34.44C481.592 33.86 481.112 33.38 480.532 33.38C479.952 33.38 479.492 33.86 479.492 34.44C479.492 35.02 479.912 35.48 480.532 35.48ZM487.612 39.86C488.352 39.86 488.972 40.12 489.492 40.66C490.032 41.18 490.292 41.8 490.292 42.54C490.292 43.28 490.032 43.92 489.512 44.44C488.992 44.94 488.352 45.2 487.612 45.2C486.872 45.2 486.232 44.94 485.712 44.44C485.212 43.92 484.952 43.28 484.952 42.54C484.952 41.8 485.212 41.16 485.712 40.64C486.232 40.12 486.872 39.86 487.612 39.86ZM486.572 42.54C486.572 43.16 486.992 43.58 487.612 43.58C488.532 43.58 489.052 42.44 488.352 41.8C487.712 41.1 486.572 41.62 486.572 42.54ZM442.035 65.62L439.595 69.7H442.035V65.62ZM446.515 69.7V72.06H444.855V75H442.035V72.06H435.775L441.895 61.9H444.855V69.7H446.515ZM451.946 73.52C451.946 74.48 451.166 75.2 450.206 75.2C449.246 75.2 448.486 74.48 448.486 73.52C448.486 72.56 449.246 71.86 450.206 71.86C451.166 71.86 451.946 72.58 451.946 73.52ZM454.172 68.44C454.172 63.9 455.812 61.64 459.072 61.64C460.912 61.64 462.232 62.36 462.932 63.64C463.652 64.92 463.932 66.44 463.932 68.44C463.932 70.44 463.652 71.92 462.932 73.2C462.232 74.48 460.912 75.2 459.072 75.2C455.812 75.2 454.172 72.94 454.172 68.44ZM456.972 68.44C456.972 71.14 457.672 72.48 459.072 72.48C460.452 72.48 461.132 71.14 461.132 68.44C461.132 65.72 460.452 64.36 459.072 64.36C457.672 64.36 456.972 65.72 456.972 68.44ZM466.242 68.44C466.242 63.9 467.882 61.64 471.142 61.64C472.982 61.64 474.302 62.36 475.002 63.64C475.722 64.92 476.002 66.44 476.002 68.44C476.002 70.44 475.722 71.92 475.002 73.2C474.302 74.48 472.982 75.2 471.142 75.2C467.882 75.2 466.242 72.94 466.242 68.44ZM469.042 68.44C469.042 71.14 469.742 72.48 471.142 72.48C472.522 72.48 473.202 71.14 473.202 68.44C473.202 65.72 472.522 64.36 471.142 64.36C469.742 64.36 469.042 65.72 469.042 68.44ZM487.932 61.9L481.492 75H480.112L486.552 61.9H487.932ZM480.532 61.76C481.272 61.76 481.892 62.02 482.412 62.54C482.952 63.06 483.212 63.7 483.212 64.44C483.212 65.18 482.952 65.82 482.432 66.34C481.912 66.84 481.272 67.1 480.532 67.1C479.792 67.1 479.152 66.84 478.632 66.34C478.132 65.82 477.872 65.18 477.872 64.44C477.872 63.7 478.132 63.06 478.632 62.54C479.152 62.02 479.792 61.76 480.532 61.76ZM480.532 65.48C481.112 65.48 481.592 65.02 481.592 64.44C481.592 63.86 481.112 63.38 480.532 63.38C479.952 63.38 479.492 63.86 479.492 64.44C479.492 65.02 479.912 65.48 480.532 65.48ZM487.612 69.86C488.352 69.86 488.972 70.12 489.492 70.66C490.032 71.18 490.292 71.8 490.292 72.54C490.292 73.28 490.032 73.92 489.512 74.44C488.992 74.94 488.352 75.2 487.612 75.2C486.872 75.2 486.232 74.94 485.712 74.44C485.212 73.92 484.952 73.28 484.952 72.54C484.952 71.8 485.212 71.16 485.712 70.64C486.232 70.12 486.872 69.86 487.612 69.86ZM486.572 72.54C486.572 73.16 486.992 73.58 487.612 73.58C488.532 73.58 489.052 72.44 488.352 71.8C487.712 71.1 486.572 71.62 486.572 72.54ZM441.551 99.32H440.171V96.92H441.551C442.411 96.92 442.831 96.44 442.831 95.5C442.831 94.96 442.391 94.24 441.511 94.24C440.891 94.24 440.431 94.48 440.131 94.96L437.871 93.58C438.671 92.32 440.211 91.54 441.951 91.64C443.071 91.7 444.011 92.08 444.751 92.82C445.491 93.54 445.851 94.38 445.831 95.32C445.831 96.36 445.171 97.32 444.151 97.88C444.851 98.14 445.431 98.62 445.851 99.32C446.271 100.02 446.451 100.72 446.391 101.44C446.291 102.56 445.731 103.48 444.711 104.22C443.691 104.94 442.531 105.26 441.231 105.16C439.411 105.06 437.771 103.94 437.051 102.42L439.511 101.2C439.651 101.5 439.931 101.8 440.311 102.06C440.691 102.32 441.071 102.44 441.451 102.46C442.411 102.52 443.251 101.78 443.331 101.06C443.371 100.8 443.511 99.26 441.551 99.32ZM451.946 103.52C451.946 104.48 451.166 105.2 450.206 105.2C449.246 105.2 448.486 104.48 448.486 103.52C448.486 102.56 449.246 101.86 450.206 101.86C451.166 101.86 451.946 102.58 451.946 103.52ZM454.172 98.44C454.172 93.9 455.812 91.64 459.072 91.64C460.912 91.64 462.232 92.36 462.932 93.64C463.652 94.92 463.932 96.44 463.932 98.44C463.932 100.44 463.652 101.92 462.932 103.2C462.232 104.48 460.912 105.2 459.072 105.2C455.812 105.2 454.172 102.94 454.172 98.44ZM456.972 98.44C456.972 101.14 457.672 102.48 459.072 102.48C460.452 102.48 461.132 101.14 461.132 98.44C461.132 95.72 460.452 94.36 459.072 94.36C457.672 94.36 456.972 95.72 456.972 98.44ZM466.242 98.44C466.242 93.9 467.882 91.64 471.142 91.64C472.982 91.64 474.302 92.36 475.002 93.64C475.722 94.92 476.002 96.44 476.002 98.44C476.002 100.44 475.722 101.92 475.002 103.2C474.302 104.48 472.982 105.2 471.142 105.2C467.882 105.2 466.242 102.94 466.242 98.44ZM469.042 98.44C469.042 101.14 469.742 102.48 471.142 102.48C472.522 102.48 473.202 101.14 473.202 98.44C473.202 95.72 472.522 94.36 471.142 94.36C469.742 94.36 469.042 95.72 469.042 98.44ZM487.932 91.9L481.492 105H480.112L486.552 91.9H487.932ZM480.532 91.76C481.272 91.76 481.892 92.02 482.412 92.54C482.952 93.06 483.212 93.7 483.212 94.44C483.212 95.18 482.952 95.82 482.432 96.34C481.912 96.84 481.272 97.1 480.532 97.1C479.792 97.1 479.152 96.84 478.632 96.34C478.132 95.82 477.872 95.18 477.872 94.44C477.872 93.7 478.132 93.06 478.632 92.54C479.152 92.02 479.792 91.76 480.532 91.76ZM480.532 95.48C481.112 95.48 481.592 95.02 481.592 94.44C481.592 93.86 481.112 93.38 480.532 93.38C479.952 93.38 479.492 93.86 479.492 94.44C479.492 95.02 479.912 95.48 480.532 95.48ZM487.612 99.86C488.352 99.86 488.972 100.12 489.492 100.66C490.032 101.18 490.292 101.8 490.292 102.54C490.292 103.28 490.032 103.92 489.512 104.44C488.992 104.94 488.352 105.2 487.612 105.2C486.872 105.2 486.232 104.94 485.712 104.44C485.212 103.92 484.952 103.28 484.952 102.54C484.952 101.8 485.212 101.16 485.712 100.64C486.232 100.12 486.872 99.86 487.612 99.86ZM486.572 102.54C486.572 103.16 486.992 103.58 487.612 103.58C488.532 103.58 489.052 102.44 488.352 101.8C487.712 101.1 486.572 101.62 486.572 102.54ZM437.432 125.3C437.432 124.28 437.832 123.42 438.612 122.72C439.412 122 440.372 121.64 441.472 121.64C442.572 121.64 443.532 122 444.332 122.72C445.132 123.42 445.532 124.28 445.532 125.3C445.532 126.2 445.212 126.92 444.572 127.5C445.712 128.16 446.452 129.38 446.452 130.8C446.452 132.04 445.972 133.08 444.992 133.94C444.032 134.78 442.852 135.2 441.472 135.2C440.092 135.2 438.912 134.78 437.932 133.94C436.972 133.08 436.492 132.04 436.492 130.8C436.492 129.38 437.192 128.16 438.372 127.5C437.752 126.9 437.432 126.16 437.432 125.3ZM439.292 130.66C439.292 131.76 440.292 132.6 441.472 132.6C442.652 132.6 443.652 131.76 443.652 130.66C443.652 129.6 442.832 128.7 441.452 128.7C440.092 128.7 439.292 129.6 439.292 130.66ZM440.132 125.38C440.132 126.1 440.612 126.64 441.472 126.64C442.332 126.64 442.812 126.1 442.812 125.38C442.812 124.72 442.292 124.16 441.472 124.16C440.652 124.16 440.132 124.72 440.132 125.38ZM451.946 133.52C451.946 134.48 451.166 135.2 450.206 135.2C449.246 135.2 448.486 134.48 448.486 133.52C448.486 132.56 449.246 131.86 450.206 131.86C451.166 131.86 451.946 132.58 451.946 133.52ZM454.172 128.44C454.172 123.9 455.812 121.64 459.072 121.64C460.912 121.64 462.232 122.36 462.932 123.64C463.652 124.92 463.932 126.44 463.932 128.44C463.932 130.44 463.652 131.92 462.932 133.2C462.232 134.48 460.912 135.2 459.072 135.2C455.812 135.2 454.172 132.94 454.172 128.44ZM456.972 128.44C456.972 131.14 457.672 132.48 459.072 132.48C460.452 132.48 461.132 131.14 461.132 128.44C461.132 125.72 460.452 124.36 459.072 124.36C457.672 124.36 456.972 125.72 456.972 128.44ZM466.242 128.44C466.242 123.9 467.882 121.64 471.142 121.64C472.982 121.64 474.302 122.36 475.002 123.64C475.722 124.92 476.002 126.44 476.002 128.44C476.002 130.44 475.722 131.92 475.002 133.2C474.302 134.48 472.982 135.2 471.142 135.2C467.882 135.2 466.242 132.94 466.242 128.44ZM469.042 128.44C469.042 131.14 469.742 132.48 471.142 132.48C472.522 132.48 473.202 131.14 473.202 128.44C473.202 125.72 472.522 124.36 471.142 124.36C469.742 124.36 469.042 125.72 469.042 128.44ZM487.932 121.9L481.492 135H480.112L486.552 121.9H487.932ZM480.532 121.76C481.272 121.76 481.892 122.02 482.412 122.54C482.952 123.06 483.212 123.7 483.212 124.44C483.212 125.18 482.952 125.82 482.432 126.34C481.912 126.84 481.272 127.1 480.532 127.1C479.792 127.1 479.152 126.84 478.632 126.34C478.132 125.82 477.872 125.18 477.872 124.44C477.872 123.7 478.132 123.06 478.632 122.54C479.152 122.02 479.792 121.76 480.532 121.76ZM480.532 125.48C481.112 125.48 481.592 125.02 481.592 124.44C481.592 123.86 481.112 123.38 480.532 123.38C479.952 123.38 479.492 123.86 479.492 124.44C479.492 125.02 479.912 125.48 480.532 125.48ZM487.612 129.86C488.352 129.86 488.972 130.12 489.492 130.66C490.032 131.18 490.292 131.8 490.292 132.54C490.292 133.28 490.032 133.92 489.512 134.44C488.992 134.94 488.352 135.2 487.612 135.2C486.872 135.2 486.232 134.94 485.712 134.44C485.212 133.92 484.952 133.28 484.952 132.54C484.952 131.8 485.212 131.16 485.712 130.64C486.232 130.12 486.872 129.86 487.612 129.86ZM486.572 132.54C486.572 133.16 486.992 133.58 487.612 133.58C488.532 133.58 489.052 132.44 488.352 131.8C487.712 131.1 486.572 131.62 486.572 132.54ZM428.831 154.12L433.871 151.72V165H431.071V155.62L428.831 156.58V154.12ZM443.69 160.38C443.69 158.96 442.71 158.24 441.27 158.24C440.25 158.24 439.05 158.64 438.39 159.68L436.85 158.88L437.93 151.9H445.61V154.46H440.15L439.81 156.58C440.31 156.12 441.11 155.9 442.21 155.9C443.43 155.9 444.45 156.3 445.27 157.08C446.09 157.86 446.49 158.96 446.49 160.38C446.49 161.8 445.99 162.96 445.01 163.86C444.03 164.76 442.71 165.2 441.09 165.2C439.27 165.2 437.47 164.14 436.45 162.56L438.81 161.04C439.31 161.84 440.27 162.4 441.09 162.4C442.59 162.4 443.69 161.48 443.69 160.38ZM451.946 163.52C451.946 164.48 451.166 165.2 450.206 165.2C449.246 165.2 448.486 164.48 448.486 163.52C448.486 162.56 449.246 161.86 450.206 161.86C451.166 161.86 451.946 162.58 451.946 163.52ZM454.172 158.44C454.172 153.9 455.812 151.64 459.072 151.64C460.912 151.64 462.232 152.36 462.932 153.64C463.652 154.92 463.932 156.44 463.932 158.44C463.932 160.44 463.652 161.92 462.932 163.2C462.232 164.48 460.912 165.2 459.072 165.2C455.812 165.2 454.172 162.94 454.172 158.44ZM456.972 158.44C456.972 161.14 457.672 162.48 459.072 162.48C460.452 162.48 461.132 161.14 461.132 158.44C461.132 155.72 460.452 154.36 459.072 154.36C457.672 154.36 456.972 155.72 456.972 158.44ZM466.242 158.44C466.242 153.9 467.882 151.64 471.142 151.64C472.982 151.64 474.302 152.36 475.002 153.64C475.722 154.92 476.002 156.44 476.002 158.44C476.002 160.44 475.722 161.92 475.002 163.2C474.302 164.48 472.982 165.2 471.142 165.2C467.882 165.2 466.242 162.94 466.242 158.44ZM469.042 158.44C469.042 161.14 469.742 162.48 471.142 162.48C472.522 162.48 473.202 161.14 473.202 158.44C473.202 155.72 472.522 154.36 471.142 154.36C469.742 154.36 469.042 155.72 469.042 158.44ZM487.932 151.9L481.492 165H480.112L486.552 151.9H487.932ZM480.532 151.76C481.272 151.76 481.892 152.02 482.412 152.54C482.952 153.06 483.212 153.7 483.212 154.44C483.212 155.18 482.952 155.82 482.432 156.34C481.912 156.84 481.272 157.1 480.532 157.1C479.792 157.1 479.152 156.84 478.632 156.34C478.132 155.82 477.872 155.18 477.872 154.44C477.872 153.7 478.132 153.06 478.632 152.54C479.152 152.02 479.792 151.76 480.532 151.76ZM480.532 155.48C481.112 155.48 481.592 155.02 481.592 154.44C481.592 153.86 481.112 153.38 480.532 153.38C479.952 153.38 479.492 153.86 479.492 154.44C479.492 155.02 479.912 155.48 480.532 155.48ZM487.612 159.86C488.352 159.86 488.972 160.12 489.492 160.66C490.032 161.18 490.292 161.8 490.292 162.54C490.292 163.28 490.032 163.92 489.512 164.44C488.992 164.94 488.352 165.2 487.612 165.2C486.872 165.2 486.232 164.94 485.712 164.44C485.212 163.92 484.952 163.28 484.952 162.54C484.952 161.8 485.212 161.16 485.712 160.64C486.232 160.12 486.872 159.86 487.612 159.86ZM486.572 162.54C486.572 163.16 486.992 163.58 487.612 163.58C488.532 163.58 489.052 162.44 488.352 161.8C487.712 161.1 486.572 161.62 486.572 162.54ZM442.035 185.62L439.595 189.7H442.035V185.62ZM446.515 189.7V192.06H444.855V195H442.035V192.06H435.775L441.895 181.9H444.855V189.7H446.515ZM451.946 193.52C451.946 194.48 451.166 195.2 450.206 195.2C449.246 195.2 448.486 194.48 448.486 193.52C448.486 192.56 449.246 191.86 450.206 191.86C451.166 191.86 451.946 192.58 451.946 193.52ZM454.172 188.44C454.172 183.9 455.812 181.64 459.072 181.64C460.912 181.64 462.232 182.36 462.932 183.64C463.652 184.92 463.932 186.44 463.932 188.44C463.932 190.44 463.652 191.92 462.932 193.2C462.232 194.48 460.912 195.2 459.072 195.2C455.812 195.2 454.172 192.94 454.172 188.44ZM456.972 188.44C456.972 191.14 457.672 192.48 459.072 192.48C460.452 192.48 461.132 191.14 461.132 188.44C461.132 185.72 460.452 184.36 459.072 184.36C457.672 184.36 456.972 185.72 456.972 188.44ZM466.242 188.44C466.242 183.9 467.882 181.64 471.142 181.64C472.982 181.64 474.302 182.36 475.002 183.64C475.722 184.92 476.002 186.44 476.002 188.44C476.002 190.44 475.722 191.92 475.002 193.2C474.302 194.48 472.982 195.2 471.142 195.2C467.882 195.2 466.242 192.94 466.242 188.44ZM469.042 188.44C469.042 191.14 469.742 192.48 471.142 192.48C472.522 192.48 473.202 191.14 473.202 188.44C473.202 185.72 472.522 184.36 471.142 184.36C469.742 184.36 469.042 185.72 469.042 188.44ZM487.932 181.9L481.492 195H480.112L486.552 181.9H487.932ZM480.532 181.76C481.272 181.76 481.892 182.02 482.412 182.54C482.952 183.06 483.212 183.7 483.212 184.44C483.212 185.18 482.952 185.82 482.432 186.34C481.912 186.84 481.272 187.1 480.532 187.1C479.792 187.1 479.152 186.84 478.632 186.34C478.132 185.82 477.872 185.18 477.872 184.44C477.872 183.7 478.132 183.06 478.632 182.54C479.152 182.02 479.792 181.76 480.532 181.76ZM480.532 185.48C481.112 185.48 481.592 185.02 481.592 184.44C481.592 183.86 481.112 183.38 480.532 183.38C479.952 183.38 479.492 183.86 479.492 184.44C479.492 185.02 479.912 185.48 480.532 185.48ZM487.612 189.86C488.352 189.86 488.972 190.12 489.492 190.66C490.032 191.18 490.292 191.8 490.292 192.54C490.292 193.28 490.032 193.92 489.512 194.44C488.992 194.94 488.352 195.2 487.612 195.2C486.872 195.2 486.232 194.94 485.712 194.44C485.212 193.92 484.952 193.28 484.952 192.54C484.952 191.8 485.212 191.16 485.712 190.64C486.232 190.12 486.872 189.86 487.612 189.86ZM486.572 192.54C486.572 193.16 486.992 193.58 487.612 193.58C488.532 193.58 489.052 192.44 488.352 191.8C487.712 191.1 486.572 191.62 486.572 192.54ZM431.116 214.12L436.156 211.72V225H433.356V215.62L431.116 216.58V214.12ZM438.735 214.48V211.9H448.615L442.835 225H439.655L444.275 214.48H438.735ZM452.18 223.52C452.18 224.48 451.4 225.2 450.44 225.2C449.48 225.2 448.72 224.48 448.72 223.52C448.72 222.56 449.48 221.86 450.44 221.86C451.4 221.86 452.18 222.58 452.18 223.52ZM461.346 220.38C461.346 218.96 460.366 218.24 458.926 218.24C457.906 218.24 456.706 218.64 456.046 219.68L454.506 218.88L455.586 211.9H463.266V214.46H457.806L457.466 216.58C457.966 216.12 458.766 215.9 459.866 215.9C461.086 215.9 462.106 216.3 462.926 217.08C463.746 217.86 464.146 218.96 464.146 220.38C464.146 221.8 463.646 222.96 462.666 223.86C461.686 224.76 460.366 225.2 458.746 225.2C456.926 225.2 455.126 224.14 454.106 222.56L456.466 221.04C456.966 221.84 457.926 222.4 458.746 222.4C460.246 222.4 461.346 221.48 461.346 220.38ZM466.242 218.44C466.242 213.9 467.882 211.64 471.142 211.64C472.982 211.64 474.302 212.36 475.002 213.64C475.722 214.92 476.002 216.44 476.002 218.44C476.002 220.44 475.722 221.92 475.002 223.2C474.302 224.48 472.982 225.2 471.142 225.2C467.882 225.2 466.242 222.94 466.242 218.44ZM469.042 218.44C469.042 221.14 469.742 222.48 471.142 222.48C472.522 222.48 473.202 221.14 473.202 218.44C473.202 215.72 472.522 214.36 471.142 214.36C469.742 214.36 469.042 215.72 469.042 218.44ZM487.932 211.9L481.492 225H480.112L486.552 211.9H487.932ZM480.532 211.76C481.272 211.76 481.892 212.02 482.412 212.54C482.952 213.06 483.212 213.7 483.212 214.44C483.212 215.18 482.952 215.82 482.432 216.34C481.912 216.84 481.272 217.1 480.532 217.1C479.792 217.1 479.152 216.84 478.632 216.34C478.132 215.82 477.872 215.18 477.872 214.44C477.872 213.7 478.132 213.06 478.632 212.54C479.152 212.02 479.792 211.76 480.532 211.76ZM480.532 215.48C481.112 215.48 481.592 215.02 481.592 214.44C481.592 213.86 481.112 213.38 480.532 213.38C479.952 213.38 479.492 213.86 479.492 214.44C479.492 215.02 479.912 215.48 480.532 215.48ZM487.612 219.86C488.352 219.86 488.972 220.12 489.492 220.66C490.032 221.18 490.292 221.8 490.292 222.54C490.292 223.28 490.032 223.92 489.512 224.44C488.992 224.94 488.352 225.2 487.612 225.2C486.872 225.2 486.232 224.94 485.712 224.44C485.212 223.92 484.952 223.28 484.952 222.54C484.952 221.8 485.212 221.16 485.712 220.64C486.232 220.12 486.872 219.86 487.612 219.86ZM486.572 222.54C486.572 223.16 486.992 223.58 487.612 223.58C488.532 223.58 489.052 222.44 488.352 221.8C487.712 221.1 486.572 221.62 486.572 222.54ZM434.173 252.36V255H425.653V253.48L431.033 247.1C431.493 246.56 431.733 246.08 431.733 245.62C431.733 244.9 431.113 244.32 430.093 244.32C429.113 244.32 428.393 245.08 428.233 246.14L425.673 245.7C426.073 243.2 427.793 241.64 430.253 241.64C431.433 241.64 432.453 242.02 433.273 242.76C434.113 243.5 434.533 244.46 434.533 245.62C434.533 246.8 434.073 247.9 433.153 248.94L430.133 252.36H434.173ZM443.69 250.38C443.69 248.96 442.71 248.24 441.27 248.24C440.25 248.24 439.05 248.64 438.39 249.68L436.85 248.88L437.93 241.9H445.61V244.46H440.15L439.81 246.58C440.31 246.12 441.11 245.9 442.21 245.9C443.43 245.9 444.45 246.3 445.27 247.08C446.09 247.86 446.49 248.96 446.49 250.38C446.49 251.8 445.99 252.96 445.01 253.86C444.03 254.76 442.71 255.2 441.09 255.2C439.27 255.2 437.47 254.14 436.45 252.56L438.81 251.04C439.31 251.84 440.27 252.4 441.09 252.4C442.59 252.4 443.69 251.48 443.69 250.38ZM451.946 253.52C451.946 254.48 451.166 255.2 450.206 255.2C449.246 255.2 448.486 254.48 448.486 253.52C448.486 252.56 449.246 251.86 450.206 251.86C451.166 251.86 451.946 252.58 451.946 253.52ZM454.172 248.44C454.172 243.9 455.812 241.64 459.072 241.64C460.912 241.64 462.232 242.36 462.932 243.64C463.652 244.92 463.932 246.44 463.932 248.44C463.932 250.44 463.652 251.92 462.932 253.2C462.232 254.48 460.912 255.2 459.072 255.2C455.812 255.2 454.172 252.94 454.172 248.44ZM456.972 248.44C456.972 251.14 457.672 252.48 459.072 252.48C460.452 252.48 461.132 251.14 461.132 248.44C461.132 245.72 460.452 244.36 459.072 244.36C457.672 244.36 456.972 245.72 456.972 248.44ZM466.242 248.44C466.242 243.9 467.882 241.64 471.142 241.64C472.982 241.64 474.302 242.36 475.002 243.64C475.722 244.92 476.002 246.44 476.002 248.44C476.002 250.44 475.722 251.92 475.002 253.2C474.302 254.48 472.982 255.2 471.142 255.2C467.882 255.2 466.242 252.94 466.242 248.44ZM469.042 248.44C469.042 251.14 469.742 252.48 471.142 252.48C472.522 252.48 473.202 251.14 473.202 248.44C473.202 245.72 472.522 244.36 471.142 244.36C469.742 244.36 469.042 245.72 469.042 248.44ZM487.932 241.9L481.492 255H480.112L486.552 241.9H487.932ZM480.532 241.76C481.272 241.76 481.892 242.02 482.412 242.54C482.952 243.06 483.212 243.7 483.212 244.44C483.212 245.18 482.952 245.82 482.432 246.34C481.912 246.84 481.272 247.1 480.532 247.1C479.792 247.1 479.152 246.84 478.632 246.34C478.132 245.82 477.872 245.18 477.872 244.44C477.872 243.7 478.132 243.06 478.632 242.54C479.152 242.02 479.792 241.76 480.532 241.76ZM480.532 245.48C481.112 245.48 481.592 245.02 481.592 244.44C481.592 243.86 481.112 243.38 480.532 243.38C479.952 243.38 479.492 243.86 479.492 244.44C479.492 245.02 479.912 245.48 480.532 245.48ZM487.612 249.86C488.352 249.86 488.972 250.12 489.492 250.66C490.032 251.18 490.292 251.8 490.292 252.54C490.292 253.28 490.032 253.92 489.512 254.44C488.992 254.94 488.352 255.2 487.612 255.2C486.872 255.2 486.232 254.94 485.712 254.44C485.212 253.92 484.952 253.28 484.952 252.54C484.952 251.8 485.212 251.16 485.712 250.64C486.232 250.12 486.872 249.86 487.612 249.86ZM486.572 252.54C486.572 253.16 486.992 253.58 487.612 253.58C488.532 253.58 489.052 252.44 488.352 251.8C487.712 251.1 486.572 251.62 486.572 252.54ZM441.785 279.32H440.405V276.92H441.785C442.645 276.92 443.065 276.44 443.065 275.5C443.065 274.96 442.625 274.24 441.745 274.24C441.125 274.24 440.665 274.48 440.365 274.96L438.105 273.58C438.905 272.32 440.445 271.54 442.185 271.64C443.305 271.7 444.245 272.08 444.985 272.82C445.725 273.54 446.085 274.38 446.065 275.32C446.065 276.36 445.405 277.32 444.385 277.88C445.085 278.14 445.665 278.62 446.085 279.32C446.505 280.02 446.685 280.72 446.625 281.44C446.525 282.56 445.965 283.48 444.945 284.22C443.925 284.94 442.765 285.26 441.465 285.16C439.645 285.06 438.005 283.94 437.285 282.42L439.745 281.2C439.885 281.5 440.165 281.8 440.545 282.06C440.925 282.32 441.305 282.44 441.685 282.46C442.645 282.52 443.485 281.78 443.565 281.06C443.605 280.8 443.745 279.26 441.785 279.32ZM452.18 283.52C452.18 284.48 451.4 285.2 450.44 285.2C449.48 285.2 448.72 284.48 448.72 283.52C448.72 282.56 449.48 281.86 450.44 281.86C451.4 281.86 452.18 282.58 452.18 283.52ZM461.346 280.38C461.346 278.96 460.366 278.24 458.926 278.24C457.906 278.24 456.706 278.64 456.046 279.68L454.506 278.88L455.586 271.9H463.266V274.46H457.806L457.466 276.58C457.966 276.12 458.766 275.9 459.866 275.9C461.086 275.9 462.106 276.3 462.926 277.08C463.746 277.86 464.146 278.96 464.146 280.38C464.146 281.8 463.646 282.96 462.666 283.86C461.686 284.76 460.366 285.2 458.746 285.2C456.926 285.2 455.126 284.14 454.106 282.56L456.466 281.04C456.966 281.84 457.926 282.4 458.746 282.4C460.246 282.4 461.346 281.48 461.346 280.38ZM466.242 278.44C466.242 273.9 467.882 271.64 471.142 271.64C472.982 271.64 474.302 272.36 475.002 273.64C475.722 274.92 476.002 276.44 476.002 278.44C476.002 280.44 475.722 281.92 475.002 283.2C474.302 284.48 472.982 285.2 471.142 285.2C467.882 285.2 466.242 282.94 466.242 278.44ZM469.042 278.44C469.042 281.14 469.742 282.48 471.142 282.48C472.522 282.48 473.202 281.14 473.202 278.44C473.202 275.72 472.522 274.36 471.142 274.36C469.742 274.36 469.042 275.72 469.042 278.44ZM487.932 271.9L481.492 285H480.112L486.552 271.9H487.932ZM480.532 271.76C481.272 271.76 481.892 272.02 482.412 272.54C482.952 273.06 483.212 273.7 483.212 274.44C483.212 275.18 482.952 275.82 482.432 276.34C481.912 276.84 481.272 277.1 480.532 277.1C479.792 277.1 479.152 276.84 478.632 276.34C478.132 275.82 477.872 275.18 477.872 274.44C477.872 273.7 478.132 273.06 478.632 272.54C479.152 272.02 479.792 271.76 480.532 271.76ZM480.532 275.48C481.112 275.48 481.592 275.02 481.592 274.44C481.592 273.86 481.112 273.38 480.532 273.38C479.952 273.38 479.492 273.86 479.492 274.44C479.492 275.02 479.912 275.48 480.532 275.48ZM487.612 279.86C488.352 279.86 488.972 280.12 489.492 280.66C490.032 281.18 490.292 281.8 490.292 282.54C490.292 283.28 490.032 283.92 489.512 284.44C488.992 284.94 488.352 285.2 487.612 285.2C486.872 285.2 486.232 284.94 485.712 284.44C485.212 283.92 484.952 283.28 484.952 282.54C484.952 281.8 485.212 281.16 485.712 280.64C486.232 280.12 486.872 279.86 487.612 279.86ZM486.572 282.54C486.572 283.16 486.992 283.58 487.612 283.58C488.532 283.58 489.052 282.44 488.352 281.8C487.712 281.1 486.572 281.62 486.572 282.54Z" fill="white"/>
    <path fill-rule="evenodd" clip-rule="evenodd" d="M0 8C0 4.68629 2.68629 2 6 2H46C49.3137 2 52 4.68629 52 8C52 11.3137 49.3137 14 46 14H6C2.68629 14 0 11.3137 0 8Z" fill="#13AFB6"/>
    <path fill-rule="evenodd" clip-rule="evenodd" d="M0 68C0 64.6863 2.68629 62 6 62H46C49.3137 62 52 64.6863 52 68C52 71.3137 49.3137 74 46 74H6C2.68629 74 0 71.3137 0 68Z" fill="#1987C4"/>
    <path fill-rule="evenodd" clip-rule="evenodd" d="M0 128C0 124.686 2.68629 122 6 122H46C49.3137 122 52 124.686 52 128C52 131.314 49.3137 134 46 134H6C2.68629 134 0 131.314 0 128Z" fill="#F3BA2F"/>
    <path fill-rule="evenodd" clip-rule="evenodd" d="M0 188C0 184.686 2.68629 182 6 182H46C49.3137 182 52 184.686 52 188C52 191.314 49.3137 194 46 194H6C2.68629 194 0 191.314 0 188Z" fill="#9095A0"/>
    <path fill-rule="evenodd" clip-rule="evenodd" d="M0 248C0 244.686 2.68629 242 6 242H46C49.3137 242 52 244.686 52 248C52 251.314 49.3137 254 46 254H6C2.68629 254 0 251.314 0 248Z" fill="#FFAEB2"/>
    <path fill-rule="evenodd" clip-rule="evenodd" d="M0 38C0 34.6863 2.68629 32 6 32H46C49.3137 32 52 34.6863 52 38C52 41.3137 49.3137 44 46 44H6C2.68629 44 0 41.3137 0 38Z" fill="#005788"/>
    <path fill-rule="evenodd" clip-rule="evenodd" d="M0 98C0 94.6863 2.68629 92 6 92H46C49.3137 92 52 94.6863 52 98C52 101.314 49.3137 104 46 104H6C2.68629 104 0 101.314 0 98Z" fill="#76CDFE"/>
    <path fill-rule="evenodd" clip-rule="evenodd" d="M0 158C0 154.686 2.68629 152 6 152H46C49.3137 152 52 154.686 52 158C52 161.314 49.3137 164 46 164H6C2.68629 164 0 161.314 0 158Z" fill="#F35E2F"/>
    <path fill-rule="evenodd" clip-rule="evenodd" d="M0 218C0 214.686 2.68629 212 6 212H46C49.3137 212 52 214.686 52 218C52 221.314 49.3137 224 46 224H6C2.68629 224 0 221.314 0 218Z" fill="#505D65"/>
    <path fill-rule="evenodd" clip-rule="evenodd" d="M0 278C0 274.686 2.68629 272 6 272H46C49.3137 272 52 274.686 52 278C52 281.314 49.3137 284 46 284H6C2.68629 284 0 281.314 0 278Z" fill="#B81A21"/>
    <g filter="url(#filter0_d_0_1)">
        <path d="M52 385C52 373.954 60.9543 365 72 365H207.687C211.484 365 215.202 363.919 218.407 361.884L240.712 347.723C243.329 346.061 246.671 346.061 249.288 347.723L271.593 361.884C274.798 363.919 278.516 365 282.313 365H418C429.046 365 438 373.954 438 385V504C438 515.046 429.046 524 418 524H72C60.9543 524 52 515.046 52 504V385Z" fill="url(#paint0_linear_0_1)"/>
    </g>
    <path d="M86.872 456.888L98.968 451.128V483H92.248V460.488L86.872 462.792V456.888ZM113.942 479.448C113.942 481.752 112.07 483.48 109.766 483.48C107.462 483.48 105.638 481.752 105.638 479.448C105.638 477.144 107.462 475.464 109.766 475.464C112.07 475.464 113.942 477.192 113.942 479.448ZM119.284 467.256C119.284 456.36 123.22 450.936 131.044 450.936C135.46 450.936 138.628 452.664 140.308 455.736C142.036 458.808 142.708 462.456 142.708 467.256C142.708 472.056 142.036 475.608 140.308 478.68C138.628 481.752 135.46 483.48 131.044 483.48C123.22 483.48 119.284 478.056 119.284 467.256ZM126.004 467.256C126.004 473.736 127.684 476.952 131.044 476.952C134.356 476.952 135.988 473.736 135.988 467.256C135.988 460.728 134.356 457.464 131.044 457.464C127.684 457.464 126.004 460.728 126.004 467.256ZM148.253 467.256C148.253 456.36 152.189 450.936 160.013 450.936C164.429 450.936 167.597 452.664 169.277 455.736C171.005 458.808 171.677 462.456 171.677 467.256C171.677 472.056 171.005 475.608 169.277 478.68C167.597 481.752 164.429 483.48 160.013 483.48C152.189 483.48 148.253 478.056 148.253 467.256ZM154.973 467.256C154.973 473.736 156.653 476.952 160.013 476.952C163.325 476.952 164.957 473.736 164.957 467.256C164.957 460.728 163.325 457.464 160.013 457.464C156.653 457.464 154.973 460.728 154.973 467.256ZM177.222 467.256C177.222 456.36 181.158 450.936 188.982 450.936C193.398 450.936 196.566 452.664 198.246 455.736C199.974 458.808 200.646 462.456 200.646 467.256C200.646 472.056 199.974 475.608 198.246 478.68C196.566 481.752 193.398 483.48 188.982 483.48C181.158 483.48 177.222 478.056 177.222 467.256ZM183.942 467.256C183.942 473.736 185.622 476.952 188.982 476.952C192.294 476.952 193.926 473.736 193.926 467.256C193.926 460.728 192.294 457.464 188.982 457.464C185.622 457.464 183.942 460.728 183.942 467.256ZM214.254 479.448C214.254 481.752 212.382 483.48 210.078 483.48C207.774 483.48 205.95 481.752 205.95 479.448C205.95 477.144 207.774 475.464 210.078 475.464C212.382 475.464 214.254 477.192 214.254 479.448ZM219.597 467.256C219.597 456.36 223.533 450.936 231.357 450.936C235.773 450.936 238.941 452.664 240.621 455.736C242.349 458.808 243.021 462.456 243.021 467.256C243.021 472.056 242.349 475.608 240.621 478.68C238.941 481.752 235.773 483.48 231.357 483.48C223.533 483.48 219.597 478.056 219.597 467.256ZM226.317 467.256C226.317 473.736 227.997 476.952 231.357 476.952C234.669 476.952 236.301 473.736 236.301 467.256C236.301 460.728 234.669 457.464 231.357 457.464C227.997 457.464 226.317 460.728 226.317 467.256ZM248.565 467.256C248.565 456.36 252.501 450.936 260.325 450.936C264.741 450.936 267.909 452.664 269.589 455.736C271.317 458.808 271.989 462.456 271.989 467.256C271.989 472.056 271.317 475.608 269.589 478.68C267.909 481.752 264.741 483.48 260.325 483.48C252.501 483.48 248.565 478.056 248.565 467.256ZM255.285 467.256C255.285 473.736 256.965 476.952 260.325 476.952C263.637 476.952 265.269 473.736 265.269 467.256C265.269 460.728 263.637 457.464 260.325 457.464C256.965 457.464 255.285 460.728 255.285 467.256ZM277.534 467.256C277.534 456.36 281.47 450.936 289.294 450.936C293.71 450.936 296.878 452.664 298.558 455.736C300.286 458.808 300.958 462.456 300.958 467.256C300.958 472.056 300.286 475.608 298.558 478.68C296.878 481.752 293.71 483.48 289.294 483.48C281.47 483.48 277.534 478.056 277.534 467.256ZM284.254 467.256C284.254 473.736 285.934 476.952 289.294 476.952C292.606 476.952 294.238 473.736 294.238 467.256C294.238 460.728 292.606 457.464 289.294 457.464C285.934 457.464 284.254 460.728 284.254 467.256ZM314.567 479.448C314.567 481.752 312.695 483.48 310.391 483.48C308.087 483.48 306.263 481.752 306.263 479.448C306.263 477.144 308.087 475.464 310.391 475.464C312.695 475.464 314.567 477.192 314.567 479.448ZM319.909 467.256C319.909 456.36 323.845 450.936 331.669 450.936C336.085 450.936 339.253 452.664 340.933 455.736C342.661 458.808 343.333 462.456 343.333 467.256C343.333 472.056 342.661 475.608 340.933 478.68C339.253 481.752 336.085 483.48 331.669 483.48C323.845 483.48 319.909 478.056 319.909 467.256ZM326.629 467.256C326.629 473.736 328.309 476.952 331.669 476.952C334.981 476.952 336.613 473.736 336.613 467.256C336.613 460.728 334.981 457.464 331.669 457.464C328.309 457.464 326.629 460.728 326.629 467.256ZM348.878 467.256C348.878 456.36 352.814 450.936 360.638 450.936C365.054 450.936 368.222 452.664 369.902 455.736C371.63 458.808 372.302 462.456 372.302 467.256C372.302 472.056 371.63 475.608 369.902 478.68C368.222 481.752 365.054 483.48 360.638 483.48C352.814 483.48 348.878 478.056 348.878 467.256ZM355.598 467.256C355.598 473.736 357.278 476.952 360.638 476.952C363.95 476.952 365.582 473.736 365.582 467.256C365.582 460.728 363.95 457.464 360.638 457.464C357.278 457.464 355.598 460.728 355.598 467.256ZM377.847 467.256C377.847 456.36 381.783 450.936 389.607 450.936C394.023 450.936 397.191 452.664 398.871 455.736C400.599 458.808 401.271 462.456 401.271 467.256C401.271 472.056 400.599 475.608 398.871 478.68C397.191 481.752 394.023 483.48 389.607 483.48C381.783 483.48 377.847 478.056 377.847 467.256ZM384.567 467.256C384.567 473.736 386.247 476.952 389.607 476.952C392.919 476.952 394.551 473.736 394.551 467.256C394.551 460.728 392.919 457.464 389.607 457.464C386.247 457.464 384.567 460.728 384.567 467.256Z" fill="white"/>
    <path d="M163.067 406.176H157.115V401.952H173.755V406.176H167.803V424H163.067V406.176ZM181.146 419.904C183.066 419.904 184.538 418.528 184.538 416.48C184.538 414.528 183.034 413.088 181.146 413.088C179.258 413.088 177.786 414.528 177.786 416.48C177.786 418.528 179.258 419.904 181.146 419.904ZM186.65 422.112C185.146 423.552 183.322 424.256 181.146 424.256C178.97 424.256 177.146 423.552 175.642 422.112C174.138 420.672 173.402 418.784 173.402 416.48C173.402 414.176 174.138 412.32 175.642 410.88C177.146 409.44 178.97 408.736 181.146 408.736C183.322 408.736 185.146 409.44 186.65 410.88C188.154 412.32 188.922 414.176 188.922 416.48C188.922 418.784 188.154 420.672 186.65 422.112ZM197.778 403.328V409.056H200.914V412.576H197.778V424H193.362V412.576H190.642V409.056H193.362V403.328H197.778ZM218.911 424H214.495V422.304C214.079 422.944 213.407 423.424 212.511 423.776C211.647 424.128 210.847 424.288 210.143 424.288C208.127 424.288 206.367 423.584 204.831 422.144C203.295 420.704 202.527 418.816 202.527 416.512C202.527 414.208 203.295 412.352 204.831 410.912C206.367 409.472 208.127 408.736 210.143 408.736C211.551 408.736 213.471 409.28 214.495 410.72V409.056H218.911V424ZM210.879 420.064C212.799 420.064 214.495 418.656 214.495 416.512C214.495 414.368 212.799 412.96 210.879 412.96C209.887 412.96 209.023 413.312 208.255 413.984C207.519 414.656 207.135 415.488 207.135 416.512C207.135 417.536 207.519 418.4 208.255 419.072C209.023 419.744 209.887 420.064 210.879 420.064ZM223.017 424V400.928H227.465V424H223.017ZM245.185 418.368L243.233 417.856C241.153 417.312 239.777 416.448 239.265 415.456C238.785 414.432 238.721 413.92 238.753 412.992C238.785 411.872 239.361 410.912 240.513 410.048C241.665 409.184 243.009 408.736 244.577 408.736C246.273 408.736 247.713 409.152 248.897 409.952C250.081 410.752 250.689 412 250.721 413.696H246.529C246.497 412.832 245.953 412.384 244.833 412.384C243.841 412.384 243.233 412.832 243.265 413.504C243.297 414.048 243.745 414.4 244.577 414.624L247.105 415.296C248.225 415.584 249.089 416.064 249.729 416.672C251.041 417.92 251.169 418.752 251.169 419.648C251.169 421.152 250.529 422.304 249.217 423.104C247.937 423.904 246.433 424.32 244.705 424.32C243.073 424.32 241.601 423.872 240.353 422.944C239.105 422.016 238.497 420.736 238.465 419.168H242.625C242.657 420.064 243.649 420.896 244.833 420.896C245.857 420.864 246.657 420.384 246.657 419.648C246.657 419.008 246.241 418.656 245.185 418.368ZM263.93 416.96V409.056H268.378V424H263.93V421.952C263.162 423.392 261.562 424.32 260.058 424.32C256.57 424.32 254.138 422.08 254.138 417.984V409.056H258.586V417.024C258.586 419.168 259.93 420 261.242 420C262.778 420 263.93 419.04 263.93 416.96ZM276.998 416.576C276.998 418.752 278.534 420.128 280.454 420.128C282.374 420.128 283.91 418.656 283.91 416.576C283.91 414.432 282.374 412.96 280.454 412.96C278.534 412.96 276.998 414.496 276.998 416.576ZM272.486 431.328V409.056H276.902V410.912C277.638 409.536 279.366 408.736 281.286 408.736C283.27 408.736 284.966 409.472 286.374 410.912C287.814 412.352 288.517 414.208 288.517 416.48C288.517 418.816 287.814 420.704 286.374 422.144C284.966 423.584 283.27 424.32 281.286 424.32C279.366 424.32 277.638 423.488 276.902 422.176V431.328H272.486ZM296.248 416.576C296.248 418.752 297.784 420.128 299.704 420.128C301.624 420.128 303.16 418.656 303.16 416.576C303.16 414.432 301.624 412.96 299.704 412.96C297.784 412.96 296.248 414.496 296.248 416.576ZM291.736 431.328V409.056H296.152V410.912C296.888 409.536 298.616 408.736 300.536 408.736C302.52 408.736 304.216 409.472 305.624 410.912C307.064 412.352 307.767 414.208 307.767 416.48C307.767 418.816 307.064 420.704 305.624 422.144C304.216 423.584 302.52 424.32 300.536 424.32C298.616 424.32 296.888 423.488 296.152 422.176V431.328H291.736ZM310.986 424V400.928H315.434V424H310.986ZM328.925 409.056H333.661L324.445 431.328H319.741L323.325 422.464L317.565 409.056H322.301L325.597 417.536L328.925 409.056Z" fill="white"/>
    <defs>
        <filter id="filter0_d_0_1" x="32" y="336.477" width="426" height="217.523" filterUnits="userSpaceOnUse" color-interpolation-filters="sRGB">
            <feFlood flood-opacity="0" result="BackgroundImageFix"/>
            <feColorMatrix in="SourceAlpha" type="matrix" values="0 0 0 0 0 0 0 0 0 0 0 0 0 0 0 0 0 0 127 0" result="hardAlpha"/>
            <feOffset dy="10"/>
            <feGaussianBlur stdDeviation="10"/>
            <feComposite in2="hardAlpha" operator="out"/>
            <feColorMatrix type="matrix" values="0 0 0 0 0 0 0 0 0 0 0 0 0 0 0 0 0 0 0.15 0"/>
            <feBlend mode="normal" in2="BackgroundImageFix" result="effect1_dropShadow_0_1"/>
            <feBlend mode="normal" in="SourceGraphic" in2="effect1_dropShadow_0_1" result="shape"/>
        </filter>
        <linearGradient id="paint0_linear_0_1" x1="52" y1="389.138" x2="473.435" y2="463.692" gradientUnits="userSpaceOnUse">
            <stop offset="0.19" stop-color="#505D65"/>
            <stop offset="1"/>
        </linearGradient>
    </defs>
</svg>
