<svg width="365" height="861" viewBox="0 0 365 861" fill="none" xmlns="http://www.w3.org/2000/svg">
    <g filter="url(#filter0_d_0_1)">
        <path d="M325 682.775C336.046 682.775 345 691.73 345 702.775L345 811C345 822.046 336.046 831 325 831L40 831C28.9543 831 20 822.046 20 811L20 702.775C20 691.73 28.9543 682.775 40 682.775L153.776 682.775C157.092 682.775 160.357 681.951 163.275 680.376L177.751 672.563C180.715 670.963 184.285 670.963 187.249 672.563L201.725 680.376C204.643 681.951 207.908 682.775 211.224 682.775L325 682.775Z" fill="url(#paint0_linear_0_1)"/>
    </g>
    <circle opacity="0.3" cx="182.5" cy="165.355" r="162" stroke="#A6BBC8"/>
    <path opacity="0.3" d="M336.887 165.355C336.887 250.621 267.871 319.741 182.738 319.741C97.6048 319.741 28.5894 250.621 28.5894 165.355C28.5894 80.0887 97.6048 10.9683 182.738 10.9683C267.871 10.9683 336.887 80.0887 336.887 165.355Z" stroke="#A6BBC8"/>
    <path opacity="0.3" d="M328.322 165.593C328.322 245.995 263.036 311.176 182.5 311.176C101.964 311.176 36.6787 245.995 36.6787 165.593C36.6787 85.19 101.964 20.0093 182.5 20.0093C263.036 20.0093 328.322 85.19 328.322 165.593Z" stroke="#A6BBC8"/>
    <path opacity="0.3" d="M320.232 165.593C320.232 241.792 258.567 303.563 182.5 303.563C106.434 303.563 44.7681 241.792 44.7681 165.593C44.7681 89.393 106.434 27.6226 182.5 27.6226C258.567 27.6226 320.232 89.393 320.232 165.593Z" stroke="#A6BBC8"/>
    <path opacity="0.3" d="M311.667 165.354C311.667 236.69 253.731 294.521 182.262 294.521C110.793 294.521 52.8574 236.69 52.8574 165.354C52.8574 94.0184 110.793 36.1875 182.262 36.1875C253.731 36.1875 311.667 94.0184 311.667 165.354Z" stroke="#A6BBC8"/>
    <path opacity="0.3" d="M304.053 165.355C304.053 232.488 249.738 286.908 182.738 286.908C115.738 286.908 61.4224 232.488 61.4224 165.355C61.4224 98.2217 115.738 43.8013 182.738 43.8013C249.738 43.8013 304.053 98.2217 304.053 165.355Z" stroke="#A6BBC8"/>
    <path opacity="0.3" d="M295.488 165.593C295.488 227.862 244.903 278.343 182.5 278.343C120.097 278.343 69.5117 227.862 69.5117 165.593C69.5117 103.323 120.097 52.8423 182.5 52.8423C244.903 52.8423 295.488 103.323 295.488 165.593Z" stroke="#A6BBC8"/>
    <path opacity="0.3" d="M287.399 165.593C287.399 223.394 240.435 270.254 182.5 270.254C124.565 270.254 77.6011 223.394 77.6011 165.593C77.6011 107.791 124.565 60.9316 182.5 60.9316C240.435 60.9316 287.399 107.791 287.399 165.593Z" stroke="#A6BBC8"/>
    <path opacity="0.3" d="M278.834 165.354C278.834 218.559 235.809 261.688 182.738 261.688C129.667 261.688 86.6421 218.559 86.6421 165.354C86.6421 112.149 129.667 69.0205 182.738 69.0205C235.809 69.0205 278.834 112.149 278.834 165.354Z" stroke="#A6BBC8"/>
    <path opacity="0.3" d="M269.793 165.355C269.793 213.567 230.816 252.648 182.738 252.648C134.66 252.648 95.6831 213.567 95.6831 165.355C95.6831 117.143 134.66 78.062 182.738 78.062C230.816 78.062 269.793 117.143 269.793 165.355Z" stroke="#A6BBC8"/>
    <path d="M209.286 144.914V144.467C209.228 144.003 209.079 143.551 208.855 143.139C205.985 137.985 190.994 140.734 175.32 149.323C159.646 157.912 149.217 169.066 152.064 174.243C153.717 177.249 159.485 177.57 167.09 175.628C169.718 169.971 173.971 165.224 179.315 161.983C184.566 158.925 190.793 158.227 196.59 156.303C200.676 154.934 205.721 152.558 208.034 149.157C208.815 147.874 209.245 146.414 209.286 144.914Z" fill="url(#paint1_linear_0_1)"/>
    <path d="M209.284 144.886V144.852C209.244 146.351 208.814 147.81 208.033 149.092C205.714 152.491 200.669 154.866 196.583 156.233C190.815 158.156 184.53 158.854 179.307 161.91C175.496 164.193 172.23 167.271 169.728 170.939C168.735 172.519 167.856 174.058 167.093 175.517C163.472 182.567 162.502 188.306 165.09 190.584C169.527 194.486 182.71 186.807 194.54 173.417C204.423 162.287 210.231 150.677 209.284 144.886Z" fill="url(#paint2_linear_0_1)"/>
    <path fill-rule="evenodd" clip-rule="evenodd" d="M179.169 2.85505C179.169 1.27825 180.448 0 182.024 0C208.977 0 235.523 6.56928 259.364 19.1391C283.205 31.7089 303.624 49.9003 318.851 72.1385C319.742 73.4395 319.41 75.2164 318.109 76.1072C316.808 76.9981 315.031 76.6656 314.14 75.3646C299.437 53.8922 279.721 36.3271 256.701 24.1902C233.68 12.0532 208.049 5.7101 182.024 5.7101C180.448 5.7101 179.169 4.43185 179.169 2.85505Z" fill="#13AFB6"/>
    <path fill-rule="evenodd" clip-rule="evenodd" d="M308.394 76.1654C309.697 75.2775 311.473 75.6141 312.361 76.9171C322.058 91.1494 329.362 106.877 333.982 123.474C334.404 124.993 333.516 126.567 331.997 126.99C330.478 127.413 328.903 126.524 328.481 125.005C324.028 109.008 316.988 93.8495 307.642 80.1324C306.754 78.8293 307.091 77.0532 308.394 76.1654Z" fill="#005788"/>
    <path fill-rule="evenodd" clip-rule="evenodd" d="M322.5 124.752C324.022 124.34 325.59 125.24 326.002 126.761C329.275 138.841 331.017 151.284 331.187 163.799C331.208 165.376 329.948 166.671 328.371 166.693C326.794 166.714 325.499 165.453 325.477 163.877C325.314 151.84 323.638 139.872 320.491 128.255C320.078 126.733 320.978 125.165 322.5 124.752Z" fill="#1987C5"/>
    <path fill-rule="evenodd" clip-rule="evenodd" d="M320.212 161.33C321.789 161.311 323.082 162.574 323.101 164.151C323.211 173.336 322.419 182.509 320.737 191.54C320.448 193.09 318.958 194.113 317.407 193.824C315.857 193.535 314.835 192.044 315.123 190.494C316.737 181.831 317.497 173.03 317.392 164.219C317.373 162.643 318.636 161.349 320.212 161.33Z" fill="#77CDFE"/>
    <path fill-rule="evenodd" clip-rule="evenodd" d="M310.427 187.171C311.977 187.465 312.994 188.96 312.7 190.509C308.438 212.955 298.435 233.92 283.663 251.37C282.644 252.573 280.842 252.723 279.639 251.704C278.435 250.685 278.286 248.883 279.304 247.68C293.441 230.982 303.012 210.921 307.09 189.444C307.384 187.894 308.878 186.877 310.427 187.171Z" fill="#F3BA2F"/>
    <path fill-rule="evenodd" clip-rule="evenodd" d="M277.743 240.616C278.96 241.619 279.132 243.419 278.128 244.635C265.289 260.195 248.84 272.395 230.209 280.177C211.579 287.96 191.327 291.09 171.211 289.296C169.64 289.156 168.48 287.769 168.62 286.198C168.76 284.628 170.147 283.468 171.718 283.608C190.911 285.32 210.233 282.333 228.009 274.908C245.784 267.484 261.476 255.844 273.724 241.001C274.728 239.785 276.527 239.612 277.743 240.616Z" fill="#F35E2F"/>
    <path fill-rule="evenodd" clip-rule="evenodd" d="M159.848 276.626C160.123 275.074 161.604 274.038 163.157 274.312C166.857 274.967 170.589 275.431 174.337 275.702C175.909 275.816 177.092 277.183 176.978 278.756C176.864 280.329 175.497 281.511 173.924 281.397C169.981 281.112 166.055 280.624 162.162 279.935C160.61 279.66 159.574 278.179 159.848 276.626Z" fill="#9095A0"/>
    <path fill-rule="evenodd" clip-rule="evenodd" d="M80.7263 191.532C82.2443 191.105 83.8208 191.99 84.2474 193.508C89.5807 212.484 100.282 229.504 115.057 242.513C129.831 255.522 148.047 263.964 167.503 266.821C169.063 267.05 170.142 268.501 169.913 270.061C169.684 271.621 168.233 272.7 166.673 272.471C146.124 269.453 126.886 260.537 111.283 246.799C95.6807 233.061 84.3814 215.088 78.7503 195.053C78.3236 193.535 79.2084 191.959 80.7263 191.532Z" fill="#505D65"/>
    <path fill-rule="evenodd" clip-rule="evenodd" d="M163.761 70.7466C164.109 72.2844 163.145 73.8134 161.607 74.1617C149.087 76.9971 137.28 82.3802 126.92 89.978C116.559 97.5758 107.864 107.227 101.375 118.333C94.8864 129.439 90.7422 141.763 89.1999 154.542C87.6576 167.321 88.7503 180.281 92.4099 192.618C92.8583 194.13 91.9963 195.719 90.4846 196.168C88.9729 196.616 87.384 195.754 86.9356 194.242C83.054 181.156 81.8952 167.411 83.5309 153.858C85.1667 140.305 89.5622 127.233 96.4448 115.452C103.328 103.672 112.551 93.4339 123.543 85.3733C134.535 77.3127 147.061 71.6011 160.346 68.5926C161.884 68.2443 163.413 69.2087 163.761 70.7466Z" fill="#FFAEB2"/>
    <path fill-rule="evenodd" clip-rule="evenodd" d="M183.968 80.9102C177.003 80.7711 170.047 81.4847 163.256 83.0349C161.718 83.3858 160.188 82.4241 159.837 80.8868C159.486 79.3496 160.448 77.8189 161.985 77.468C169.23 75.8141 176.651 75.0529 184.082 75.2013C185.658 75.2328 186.911 76.5363 186.879 78.1128C186.848 79.6893 185.544 80.9417 183.968 80.9102Z" fill="#B81A21"/>
    <path d="M91.504 395V383.976H95.904C96.992 383.976 97.808 384.312 98.352 384.984C98.912 385.656 99.184 386.472 99.184 387.432C99.184 388.392 98.912 389.208 98.352 389.88C97.808 390.536 96.992 390.872 95.904 390.872H93.008V395H91.504ZM95.888 385.368H93.008V389.48H95.808C97.072 389.48 97.696 388.568 97.696 387.432C97.696 386.296 97.088 385.368 95.888 385.368ZM106.039 391.56V387.528H107.495V395H106.039V393.88C105.607 394.712 104.631 395.16 103.719 395.16C101.863 395.16 100.823 393.96 100.839 391.848V387.528H102.295V391.752C102.295 392.984 102.903 393.736 103.927 393.736C105.127 393.736 106.039 393.048 106.039 391.56ZM111.36 393.848V395H109.904V383.464H111.36V388.648C111.856 387.816 112.848 387.368 113.984 387.368C115.056 387.368 115.952 387.72 116.672 388.44C117.392 389.16 117.76 390.088 117.76 391.256C117.76 392.408 117.392 393.352 116.656 394.072C115.92 394.792 115.024 395.16 113.968 395.16C112.896 395.16 111.856 394.68 111.36 393.848ZM111.376 391.24C111.376 392.008 111.616 392.616 112.096 393.064C112.576 393.512 113.168 393.736 113.856 393.736C114.544 393.736 115.104 393.496 115.568 393.032C116.032 392.568 116.272 391.96 116.272 391.24C116.272 390.52 116.032 389.928 115.568 389.48C115.104 389.016 114.544 388.792 113.856 388.792C113.2 388.792 112.624 389.016 112.128 389.448C111.632 389.88 111.376 390.488 111.376 391.24ZM119.7 395V383.464H121.156V395H119.7ZM125.031 395H123.591V387.528H125.031V395ZM123.591 385.448C123.207 385.08 123.207 384.472 123.591 384.104C123.991 383.736 124.631 383.736 125.015 384.104C125.415 384.472 125.415 385.08 125.015 385.448C124.631 385.816 123.991 385.816 123.591 385.448ZM130.922 387.368C132.106 387.368 133.066 387.768 133.802 388.568L132.698 389.496C132.234 389.032 131.642 388.792 130.922 388.792C130.234 388.792 129.642 389.016 129.146 389.48C128.65 389.928 128.41 390.52 128.41 391.24C128.41 391.976 128.65 392.584 129.146 393.048C129.642 393.512 130.234 393.752 130.922 393.752C131.642 393.752 132.234 393.512 132.698 393.016L133.818 393.944C133.066 394.76 132.106 395.16 130.922 395.16C129.818 395.16 128.89 394.792 128.122 394.072C127.354 393.336 126.97 392.392 126.97 391.24C126.97 390.088 127.354 389.16 128.122 388.44C128.89 387.72 129.818 387.368 130.922 387.368ZM139.426 391.816H140.914C140.93 392.312 141.154 392.776 141.602 393.176C142.05 393.576 142.61 393.768 143.282 393.768C144.61 393.768 145.362 393.064 145.506 392.152C145.586 391.064 144.786 390.44 143.634 390.184L142.21 389.832C140.418 389.368 139.522 388.408 139.522 386.952C139.522 386.04 139.874 385.304 140.578 384.728C141.282 384.136 142.114 383.848 143.09 383.848C144.114 383.848 144.962 384.152 145.634 384.744C146.306 385.336 146.642 386.104 146.642 387.08H145.154C145.154 385.992 144.29 385.272 143.074 385.272C142.514 385.272 142.034 385.432 141.618 385.736C141.218 386.04 141.01 386.44 141.01 386.936C141.01 387.704 141.538 388.216 142.578 388.472L144.018 388.824C146.114 389.352 147.17 390.552 146.962 392.28C146.866 393.112 146.482 393.8 145.826 394.344C145.17 394.888 144.322 395.16 143.282 395.16C142.178 395.16 141.266 394.824 140.53 394.168C139.794 393.496 139.426 392.712 139.426 391.816ZM156.342 395H154.902V393.848C154.406 394.68 153.366 395.16 152.278 395.16C151.222 395.16 150.326 394.792 149.59 394.072C148.854 393.352 148.486 392.408 148.486 391.256C148.486 390.088 148.854 389.16 149.59 388.44C150.326 387.72 151.222 387.368 152.278 387.368C153.366 387.368 154.438 387.832 154.902 388.648V387.528H156.342V395ZM154.886 391.24C154.886 390.488 154.63 389.88 154.134 389.448C153.638 389.016 153.062 388.792 152.406 388.792C151.718 388.792 151.126 389.016 150.662 389.48C150.198 389.928 149.974 390.52 149.974 391.24C149.974 391.96 150.214 392.568 150.678 393.032C151.142 393.496 151.718 393.736 152.406 393.736C153.094 393.736 153.686 393.512 154.166 393.064C154.646 392.616 154.886 392.008 154.886 391.24ZM158.779 395V383.464H160.235V395H158.779ZM163.629 390.68H168.269C168.093 389.448 167.213 388.68 165.997 388.68C164.733 388.68 163.805 389.448 163.629 390.68ZM169.709 391.24C169.709 391.512 169.709 391.704 169.693 391.816H163.629C163.805 393.048 164.765 393.848 166.045 393.848C166.957 393.848 167.789 393.416 168.189 392.696C168.333 392.744 168.541 392.84 168.829 392.952L169.437 393.176C168.813 394.456 167.485 395.16 165.997 395.16C164.909 395.16 163.997 394.792 163.261 394.072C162.541 393.352 162.173 392.408 162.173 391.24C162.173 390.072 162.541 389.144 163.261 388.44C163.997 387.72 164.909 387.368 165.997 387.368C167.069 387.368 167.965 387.72 168.653 388.44C169.357 389.144 169.709 390.072 169.709 391.24ZM91.504 419V407.976H95.904C96.992 407.976 97.808 408.312 98.352 408.984C98.912 409.656 99.184 410.472 99.184 411.432C99.184 412.392 98.912 413.208 98.352 413.88C97.808 414.536 96.992 414.872 95.904 414.872H93.008V419H91.504ZM95.888 409.368H93.008V413.48H95.808C97.072 413.48 97.696 412.568 97.696 411.432C97.696 410.296 97.088 409.368 95.888 409.368ZM102.281 416.28V419H100.825V411.528H102.281V413.208C102.649 411.976 103.337 411.368 104.361 411.368C104.953 411.368 105.385 411.464 105.657 411.656L105.433 413.016C105.081 412.84 104.713 412.76 104.329 412.76C102.969 412.76 102.281 414.168 102.281 416.28ZM107.91 414.68H112.55C112.374 413.448 111.494 412.68 110.278 412.68C109.014 412.68 108.086 413.448 107.91 414.68ZM113.99 415.24C113.99 415.512 113.99 415.704 113.974 415.816H107.91C108.086 417.048 109.046 417.848 110.326 417.848C111.238 417.848 112.07 417.416 112.47 416.696C112.614 416.744 112.822 416.84 113.11 416.952L113.718 417.176C113.094 418.456 111.766 419.16 110.278 419.16C109.19 419.16 108.278 418.792 107.542 418.072C106.822 417.352 106.454 416.408 106.454 415.24C106.454 414.072 106.822 413.144 107.542 412.44C108.278 411.72 109.19 411.368 110.278 411.368C111.35 411.368 112.246 411.72 112.934 412.44C113.638 413.144 113.99 414.072 113.99 415.24ZM119.613 415.816H121.101C121.117 416.312 121.341 416.776 121.789 417.176C122.237 417.576 122.797 417.768 123.469 417.768C124.797 417.768 125.549 417.064 125.693 416.152C125.773 415.064 124.973 414.44 123.821 414.184L122.397 413.832C120.605 413.368 119.709 412.408 119.709 410.952C119.709 410.04 120.061 409.304 120.765 408.728C121.469 408.136 122.301 407.848 123.277 407.848C124.301 407.848 125.149 408.152 125.821 408.744C126.493 409.336 126.829 410.104 126.829 411.08H125.341C125.341 409.992 124.477 409.272 123.261 409.272C122.701 409.272 122.221 409.432 121.805 409.736C121.405 410.04 121.197 410.44 121.197 410.936C121.197 411.704 121.725 412.216 122.765 412.472L124.205 412.824C126.301 413.352 127.357 414.552 127.149 416.28C127.053 417.112 126.669 417.8 126.013 418.344C125.357 418.888 124.509 419.16 123.469 419.16C122.365 419.16 121.453 418.824 120.717 418.168C119.981 417.496 119.613 416.712 119.613 415.816ZM136.529 419H135.089V417.848C134.593 418.68 133.553 419.16 132.465 419.16C131.409 419.16 130.513 418.792 129.777 418.072C129.041 417.352 128.673 416.408 128.673 415.256C128.673 414.088 129.041 413.16 129.777 412.44C130.513 411.72 131.409 411.368 132.465 411.368C133.553 411.368 134.625 411.832 135.089 412.648V411.528H136.529V419ZM135.073 415.24C135.073 414.488 134.817 413.88 134.321 413.448C133.825 413.016 133.249 412.792 132.593 412.792C131.905 412.792 131.313 413.016 130.849 413.48C130.385 413.928 130.161 414.52 130.161 415.24C130.161 415.96 130.401 416.568 130.865 417.032C131.329 417.496 131.905 417.736 132.593 417.736C133.281 417.736 133.873 417.512 134.353 417.064C134.833 416.616 135.073 416.008 135.073 415.24ZM138.966 419V407.464H140.422V419H138.966ZM143.817 414.68H148.457C148.281 413.448 147.401 412.68 146.185 412.68C144.921 412.68 143.993 413.448 143.817 414.68ZM149.897 415.24C149.897 415.512 149.897 415.704 149.881 415.816H143.817C143.993 417.048 144.953 417.848 146.233 417.848C147.145 417.848 147.977 417.416 148.377 416.696C148.521 416.744 148.729 416.84 149.017 416.952L149.625 417.176C149.001 418.456 147.673 419.16 146.185 419.16C145.097 419.16 144.185 418.792 143.449 418.072C142.729 417.352 142.361 416.408 142.361 415.24C142.361 414.072 142.729 413.144 143.449 412.44C144.185 411.72 145.097 411.368 146.185 411.368C147.257 411.368 148.153 411.72 148.841 412.44C149.545 413.144 149.897 414.072 149.897 415.24ZM157.056 410.792L155.984 409.944C156.56 408.936 157.728 408.328 159.008 408.408C159.856 408.456 160.544 408.76 161.088 409.336C161.648 409.896 161.904 410.552 161.888 411.304C161.888 411.512 161.856 411.72 161.792 411.944C161.6 412.568 161.216 413.048 160.656 413.368C161.184 413.56 161.6 413.928 161.904 414.488C162.224 415.048 162.352 415.608 162.304 416.184C162.224 417.064 161.808 417.8 161.056 418.376C160.304 418.952 159.456 419.208 158.48 419.128C157.12 419.048 155.936 418.168 155.376 416.952L156.64 416.264C156.976 417.016 157.776 417.64 158.592 417.704H158.576C159.168 417.736 159.68 417.592 160.128 417.256C160.592 416.92 160.832 416.488 160.848 415.992C160.864 415.496 160.656 415.048 160.256 414.68C159.856 414.312 159.391 414.12 158.832 414.12H157.648V412.728H158.832C159.552 412.744 160.144 412.232 160.272 411.528C160.352 411.096 160.288 410.728 160.096 410.456C159.856 410.088 159.44 409.88 158.88 409.848C158.128 409.784 157.52 410.104 157.056 410.792ZM91.504 443V431.976H95.904C96.992 431.976 97.808 432.312 98.352 432.984C98.912 433.656 99.184 434.472 99.184 435.432C99.184 436.392 98.912 437.208 98.352 437.88C97.808 438.536 96.992 438.872 95.904 438.872H93.008V443H91.504ZM95.888 433.368H93.008V437.48H95.808C97.072 437.48 97.696 436.568 97.696 435.432C97.696 434.296 97.088 433.368 95.888 433.368ZM102.281 440.28V443H100.825V435.528H102.281V437.208C102.649 435.976 103.337 435.368 104.361 435.368C104.953 435.368 105.385 435.464 105.657 435.656L105.433 437.016C105.081 436.84 104.713 436.76 104.329 436.76C102.969 436.76 102.281 438.168 102.281 440.28ZM107.91 438.68H112.55C112.374 437.448 111.494 436.68 110.278 436.68C109.014 436.68 108.086 437.448 107.91 438.68ZM113.99 439.24C113.99 439.512 113.99 439.704 113.974 439.816H107.91C108.086 441.048 109.046 441.848 110.326 441.848C111.238 441.848 112.07 441.416 112.47 440.696C112.614 440.744 112.822 440.84 113.11 440.952L113.718 441.176C113.094 442.456 111.766 443.16 110.278 443.16C109.19 443.16 108.278 442.792 107.542 442.072C106.822 441.352 106.454 440.408 106.454 439.24C106.454 438.072 106.822 437.144 107.542 436.44C108.278 435.72 109.19 435.368 110.278 435.368C111.35 435.368 112.246 435.72 112.934 436.44C113.638 437.144 113.99 438.072 113.99 439.24ZM119.613 439.816H121.101C121.117 440.312 121.341 440.776 121.789 441.176C122.237 441.576 122.797 441.768 123.469 441.768C124.797 441.768 125.549 441.064 125.693 440.152C125.773 439.064 124.973 438.44 123.821 438.184L122.397 437.832C120.605 437.368 119.709 436.408 119.709 434.952C119.709 434.04 120.061 433.304 120.765 432.728C121.469 432.136 122.301 431.848 123.277 431.848C124.301 431.848 125.149 432.152 125.821 432.744C126.493 433.336 126.829 434.104 126.829 435.08H125.341C125.341 433.992 124.477 433.272 123.261 433.272C122.701 433.272 122.221 433.432 121.805 433.736C121.405 434.04 121.197 434.44 121.197 434.936C121.197 435.704 121.725 436.216 122.765 436.472L124.205 436.824C126.301 437.352 127.357 438.552 127.149 440.28C127.053 441.112 126.669 441.8 126.013 442.344C125.357 442.888 124.509 443.16 123.469 443.16C122.365 443.16 121.453 442.824 120.717 442.168C119.981 441.496 119.613 440.712 119.613 439.816ZM136.529 443H135.089V441.848C134.593 442.68 133.553 443.16 132.465 443.16C131.409 443.16 130.513 442.792 129.777 442.072C129.041 441.352 128.673 440.408 128.673 439.256C128.673 438.088 129.041 437.16 129.777 436.44C130.513 435.72 131.409 435.368 132.465 435.368C133.553 435.368 134.625 435.832 135.089 436.648V435.528H136.529V443ZM135.073 439.24C135.073 438.488 134.817 437.88 134.321 437.448C133.825 437.016 133.249 436.792 132.593 436.792C131.905 436.792 131.313 437.016 130.849 437.48C130.385 437.928 130.161 438.52 130.161 439.24C130.161 439.96 130.401 440.568 130.865 441.032C131.329 441.496 131.905 441.736 132.593 441.736C133.281 441.736 133.873 441.512 134.353 441.064C134.833 440.616 135.073 440.008 135.073 439.24ZM138.966 443V431.464H140.422V443H138.966ZM143.817 438.68H148.457C148.281 437.448 147.401 436.68 146.185 436.68C144.921 436.68 143.993 437.448 143.817 438.68ZM149.897 439.24C149.897 439.512 149.897 439.704 149.881 439.816H143.817C143.993 441.048 144.953 441.848 146.233 441.848C147.145 441.848 147.977 441.416 148.377 440.696C148.521 440.744 148.729 440.84 149.017 440.952L149.625 441.176C149.001 442.456 147.673 443.16 146.185 443.16C145.097 443.16 144.185 442.792 143.449 442.072C142.729 441.352 142.361 440.408 142.361 439.24C142.361 438.072 142.729 437.144 143.449 436.44C144.185 435.72 145.097 435.368 146.185 435.368C147.257 435.368 148.153 435.72 148.841 436.44C149.545 437.144 149.897 438.072 149.897 439.24ZM155.648 443V442.36L159.888 437.224C160.4 436.632 160.656 436.056 160.656 435.512C160.656 434.536 159.84 433.864 158.799 433.864C157.84 433.864 157.056 434.488 156.912 435.512L155.52 435.176C155.664 434.344 156.032 433.672 156.64 433.176C157.248 432.68 157.968 432.424 158.799 432.424C159.728 432.424 160.512 432.712 161.136 433.288C161.76 433.864 162.08 434.6 162.08 435.512C162.08 436.456 161.696 437.352 160.944 438.216L158.112 441.56H162.096V443H155.648ZM91.504 467V455.976H95.904C96.992 455.976 97.808 456.312 98.352 456.984C98.912 457.656 99.184 458.472 99.184 459.432C99.184 460.392 98.912 461.208 98.352 461.88C97.808 462.536 96.992 462.872 95.904 462.872H93.008V467H91.504ZM95.888 457.368H93.008V461.48H95.808C97.072 461.48 97.696 460.568 97.696 459.432C97.696 458.296 97.088 457.368 95.888 457.368ZM102.281 464.28V467H100.825V459.528H102.281V461.208C102.649 459.976 103.337 459.368 104.361 459.368C104.953 459.368 105.385 459.464 105.657 459.656L105.433 461.016C105.081 460.84 104.713 460.76 104.329 460.76C102.969 460.76 102.281 462.168 102.281 464.28ZM107.91 462.68H112.55C112.374 461.448 111.494 460.68 110.278 460.68C109.014 460.68 108.086 461.448 107.91 462.68ZM113.99 463.24C113.99 463.512 113.99 463.704 113.974 463.816H107.91C108.086 465.048 109.046 465.848 110.326 465.848C111.238 465.848 112.07 465.416 112.47 464.696C112.614 464.744 112.822 464.84 113.11 464.952L113.718 465.176C113.094 466.456 111.766 467.16 110.278 467.16C109.19 467.16 108.278 466.792 107.542 466.072C106.822 465.352 106.454 464.408 106.454 463.24C106.454 462.072 106.822 461.144 107.542 460.44C108.278 459.72 109.19 459.368 110.278 459.368C111.35 459.368 112.246 459.72 112.934 460.44C113.638 461.144 113.99 462.072 113.99 463.24ZM119.613 463.816H121.101C121.117 464.312 121.341 464.776 121.789 465.176C122.237 465.576 122.797 465.768 123.469 465.768C124.797 465.768 125.549 465.064 125.693 464.152C125.773 463.064 124.973 462.44 123.821 462.184L122.397 461.832C120.605 461.368 119.709 460.408 119.709 458.952C119.709 458.04 120.061 457.304 120.765 456.728C121.469 456.136 122.301 455.848 123.277 455.848C124.301 455.848 125.149 456.152 125.821 456.744C126.493 457.336 126.829 458.104 126.829 459.08H125.341C125.341 457.992 124.477 457.272 123.261 457.272C122.701 457.272 122.221 457.432 121.805 457.736C121.405 458.04 121.197 458.44 121.197 458.936C121.197 459.704 121.725 460.216 122.765 460.472L124.205 460.824C126.301 461.352 127.357 462.552 127.149 464.28C127.053 465.112 126.669 465.8 126.013 466.344C125.357 466.888 124.509 467.16 123.469 467.16C122.365 467.16 121.453 466.824 120.717 466.168C119.981 465.496 119.613 464.712 119.613 463.816ZM136.529 467H135.089V465.848C134.593 466.68 133.553 467.16 132.465 467.16C131.409 467.16 130.513 466.792 129.777 466.072C129.041 465.352 128.673 464.408 128.673 463.256C128.673 462.088 129.041 461.16 129.777 460.44C130.513 459.72 131.409 459.368 132.465 459.368C133.553 459.368 134.625 459.832 135.089 460.648V459.528H136.529V467ZM135.073 463.24C135.073 462.488 134.817 461.88 134.321 461.448C133.825 461.016 133.249 460.792 132.593 460.792C131.905 460.792 131.313 461.016 130.849 461.48C130.385 461.928 130.161 462.52 130.161 463.24C130.161 463.96 130.401 464.568 130.865 465.032C131.329 465.496 131.905 465.736 132.593 465.736C133.281 465.736 133.873 465.512 134.353 465.064C134.833 464.616 135.073 464.008 135.073 463.24ZM138.966 467V455.464H140.422V467H138.966ZM143.817 462.68H148.457C148.281 461.448 147.401 460.68 146.185 460.68C144.921 460.68 143.993 461.448 143.817 462.68ZM149.897 463.24C149.897 463.512 149.897 463.704 149.881 463.816H143.817C143.993 465.048 144.953 465.848 146.233 465.848C147.145 465.848 147.977 465.416 148.377 464.696C148.521 464.744 148.729 464.84 149.017 464.952L149.625 465.176C149.001 466.456 147.673 467.16 146.185 467.16C145.097 467.16 144.185 466.792 143.449 466.072C142.729 465.352 142.361 464.408 142.361 463.24C142.361 462.072 142.729 461.144 143.449 460.44C144.185 459.72 145.097 459.368 146.185 459.368C147.257 459.368 148.153 459.72 148.841 460.44C149.545 461.144 149.897 462.072 149.897 463.24ZM158.496 467H157.056V458.376L155.36 458.968V457.592L158.496 456.456V467ZM90.832 487.816H92.32C92.336 488.312 92.56 488.776 93.008 489.176C93.456 489.576 94.016 489.768 94.688 489.768C96.016 489.768 96.768 489.064 96.912 488.152C96.992 487.064 96.192 486.44 95.04 486.184L93.616 485.832C91.824 485.368 90.928 484.408 90.928 482.952C90.928 482.04 91.28 481.304 91.984 480.728C92.688 480.136 93.52 479.848 94.496 479.848C95.52 479.848 96.368 480.152 97.04 480.744C97.712 481.336 98.048 482.104 98.048 483.08H96.56C96.56 481.992 95.696 481.272 94.48 481.272C93.92 481.272 93.44 481.432 93.024 481.736C92.624 482.04 92.416 482.44 92.416 482.936C92.416 483.704 92.944 484.216 93.984 484.472L95.424 484.824C97.52 485.352 98.576 486.552 98.368 488.28C98.272 489.112 97.888 489.8 97.232 490.344C96.576 490.888 95.728 491.16 94.688 491.16C93.584 491.16 92.672 490.824 91.936 490.168C91.2 489.496 90.832 488.712 90.832 487.816ZM102.326 480.712V483.528H103.91V484.76H102.326V491H100.87V484.76H99.5258V483.528H100.87V480.712H102.326ZM107.016 488.28V491H105.56V483.528H107.016V485.208C107.384 483.976 108.072 483.368 109.096 483.368C109.688 483.368 110.12 483.464 110.392 483.656L110.168 485.016C109.816 484.84 109.448 484.76 109.064 484.76C107.704 484.76 107.016 486.168 107.016 488.28ZM119.045 491H117.605V489.848C117.109 490.68 116.069 491.16 114.981 491.16C113.925 491.16 113.029 490.792 112.293 490.072C111.557 489.352 111.189 488.408 111.189 487.256C111.189 486.088 111.557 485.16 112.293 484.44C113.029 483.72 113.925 483.368 114.981 483.368C116.069 483.368 117.141 483.832 117.605 484.648V483.528H119.045V491ZM117.589 487.24C117.589 486.488 117.333 485.88 116.837 485.448C116.341 485.016 115.765 484.792 115.109 484.792C114.421 484.792 113.829 485.016 113.365 485.48C112.901 485.928 112.677 486.52 112.677 487.24C112.677 487.96 112.917 488.568 113.381 489.032C113.845 489.496 114.421 489.736 115.109 489.736C115.797 489.736 116.389 489.512 116.869 489.064C117.349 488.616 117.589 488.008 117.589 487.24ZM123.498 480.712V483.528H125.082V484.76H123.498V491H122.042V484.76H120.698V483.528H122.042V480.712H123.498ZM127.582 486.68H132.222C132.046 485.448 131.166 484.68 129.95 484.68C128.686 484.68 127.758 485.448 127.582 486.68ZM133.662 487.24C133.662 487.512 133.662 487.704 133.646 487.816H127.582C127.758 489.048 128.718 489.848 129.998 489.848C130.91 489.848 131.742 489.416 132.142 488.696C132.286 488.744 132.494 488.84 132.782 488.952L133.39 489.176C132.766 490.456 131.438 491.16 129.95 491.16C128.862 491.16 127.95 490.792 127.214 490.072C126.494 489.352 126.126 488.408 126.126 487.24C126.126 486.072 126.494 485.144 127.214 484.44C127.95 483.72 128.862 483.368 129.95 483.368C131.022 483.368 131.918 483.72 132.606 484.44C133.31 485.144 133.662 486.072 133.662 487.24ZM136.057 492.376L136.633 492.072C137.065 492.888 137.945 493.352 138.793 493.352C140.569 493.352 141.449 492.216 141.449 489.96C141.449 489.912 141.433 489.832 141.433 489.784C141.001 490.632 139.897 491.16 138.809 491.16C137.753 491.16 136.857 490.808 136.121 490.088C135.385 489.368 135.017 488.44 135.017 487.288C135.017 486.12 135.385 485.176 136.121 484.456C136.857 483.736 137.753 483.368 138.809 483.368C139.897 483.368 140.969 483.864 141.433 484.696V483.528H142.873V489.864C142.873 493.112 141.513 494.728 138.793 494.728C137.385 494.728 136.121 493.992 135.417 492.712C135.497 492.68 135.705 492.568 136.057 492.376ZM141.417 487.272C141.417 486.504 141.177 485.896 140.697 485.464C140.217 485.016 139.625 484.792 138.937 484.792C138.249 484.792 137.673 485.032 137.209 485.496C136.745 485.96 136.505 486.552 136.505 487.272C136.505 488.024 136.729 488.616 137.193 489.064C137.657 489.512 138.249 489.736 138.937 489.736C139.593 489.736 140.169 489.512 140.665 489.064C141.161 488.616 141.417 488.024 141.417 487.272ZM146.734 491H145.294V483.528H146.734V491ZM145.294 481.448C144.91 481.08 144.91 480.472 145.294 480.104C145.694 479.736 146.334 479.736 146.718 480.104C147.118 480.472 147.118 481.08 146.718 481.448C146.334 481.816 145.694 481.816 145.294 481.448ZM152.625 483.368C153.809 483.368 154.769 483.768 155.505 484.568L154.401 485.496C153.937 485.032 153.345 484.792 152.625 484.792C151.937 484.792 151.345 485.016 150.849 485.48C150.353 485.928 150.113 486.52 150.113 487.24C150.113 487.976 150.353 488.584 150.849 489.048C151.345 489.512 151.937 489.752 152.625 489.752C153.345 489.752 153.937 489.512 154.401 489.016L155.521 489.944C154.769 490.76 153.809 491.16 152.625 491.16C151.521 491.16 150.593 490.792 149.825 490.072C149.057 489.336 148.673 488.392 148.673 487.24C148.673 486.088 149.057 485.16 149.825 484.44C150.593 483.72 151.521 483.368 152.625 483.368ZM166.425 486.824L169.369 491H167.561L164.713 486.872H163.305V491H161.801V479.976H166.041C167.129 479.976 167.945 480.312 168.489 480.984C169.033 481.656 169.305 482.472 169.305 483.432C169.305 484.328 169.065 485.096 168.585 485.736C168.121 486.376 167.401 486.744 166.425 486.824ZM165.993 481.368H163.305V485.48H165.929C167.193 485.48 167.769 484.584 167.769 483.432C167.769 482.296 167.193 481.368 165.993 481.368ZM170.579 487.24C170.579 486.088 170.947 485.16 171.699 484.44C172.451 483.72 173.379 483.368 174.483 483.368C175.587 483.368 176.515 483.72 177.267 484.44C178.019 485.16 178.403 486.088 178.403 487.24C178.403 488.392 178.019 489.336 177.251 490.072C176.499 490.792 175.571 491.16 174.483 491.16C173.395 491.16 172.467 490.792 171.715 490.072C170.963 489.352 170.579 488.408 170.579 487.24ZM176.947 487.24C176.947 486.504 176.707 485.912 176.227 485.464C175.763 485.016 175.171 484.792 174.483 484.792C173.795 484.792 173.203 485.016 172.723 485.464C172.259 485.912 172.019 486.504 172.019 487.24C172.019 487.992 172.259 488.6 172.723 489.064C173.203 489.528 173.795 489.752 174.483 489.752C175.171 489.752 175.763 489.528 176.227 489.064C176.707 488.6 176.947 487.992 176.947 487.24ZM185.461 487.56V483.528H186.917V491H185.461V489.88C185.029 490.712 184.053 491.16 183.141 491.16C181.285 491.16 180.245 489.96 180.261 487.848V483.528H181.717V487.752C181.717 488.984 182.325 489.736 183.349 489.736C184.549 489.736 185.461 489.048 185.461 487.56ZM190.781 486.968V491H189.325V483.528H190.781V484.648C191.213 483.816 192.205 483.368 193.117 483.368C194.973 483.368 195.997 484.568 195.997 486.68V491H194.541V486.776C194.541 485.544 193.917 484.792 192.893 484.792C191.725 484.792 190.781 485.496 190.781 486.968ZM205.701 491H204.245V489.848C203.749 490.68 202.709 491.16 201.621 491.16C200.565 491.16 199.669 490.792 198.933 490.072C198.213 489.352 197.845 488.408 197.845 487.256C197.845 486.088 198.213 485.16 198.933 484.44C199.653 483.72 200.549 483.368 201.605 483.368C202.741 483.368 203.749 483.816 204.245 484.648V479.464H205.701V491ZM201.749 484.792C201.061 484.792 200.485 485.016 200.021 485.48C199.557 485.928 199.333 486.52 199.333 487.24C199.333 487.96 199.557 488.568 200.021 489.032C200.485 489.496 201.061 489.736 201.749 489.736C202.437 489.736 203.013 489.512 203.493 489.064C203.989 488.6 204.229 487.992 204.229 487.24C204.229 486.488 203.973 485.88 203.477 485.448C202.981 485.016 202.405 484.792 201.749 484.792ZM90.448 505.384V503.976H98.64V505.384H95.296V515H93.792V505.384H90.448ZM99.8166 510.68H104.457C104.281 509.448 103.401 508.68 102.185 508.68C100.921 508.68 99.9926 509.448 99.8166 510.68ZM105.897 511.24C105.897 511.512 105.897 511.704 105.881 511.816H99.8166C99.9926 513.048 100.953 513.848 102.233 513.848C103.145 513.848 103.977 513.416 104.377 512.696C104.521 512.744 104.729 512.84 105.017 512.952L105.625 513.176C105.001 514.456 103.673 515.16 102.185 515.16C101.097 515.16 100.185 514.792 99.4486 514.072C98.7286 513.352 98.3606 512.408 98.3606 511.24C98.3606 510.072 98.7286 509.144 99.4486 508.44C100.185 507.72 101.097 507.368 102.185 507.368C103.257 507.368 104.153 507.72 104.841 508.44C105.545 509.144 105.897 510.072 105.897 511.24ZM115.107 515H113.667V513.848C113.171 514.68 112.131 515.16 111.043 515.16C109.987 515.16 109.091 514.792 108.355 514.072C107.619 513.352 107.251 512.408 107.251 511.256C107.251 510.088 107.619 509.16 108.355 508.44C109.091 507.72 109.987 507.368 111.043 507.368C112.131 507.368 113.203 507.832 113.667 508.648V507.528H115.107V515ZM113.651 511.24C113.651 510.488 113.395 509.88 112.899 509.448C112.403 509.016 111.827 508.792 111.171 508.792C110.483 508.792 109.891 509.016 109.427 509.48C108.963 509.928 108.739 510.52 108.739 511.24C108.739 511.96 108.979 512.568 109.443 513.032C109.907 513.496 110.483 513.736 111.171 513.736C111.859 513.736 112.451 513.512 112.931 513.064C113.411 512.616 113.651 512.008 113.651 511.24ZM126.136 508.792C124.92 508.776 124.152 509.688 124.152 510.968V515H122.696V510.76C122.696 509.544 122.056 508.792 121.08 508.792C119.928 508.792 119 509.512 119 510.968V515H117.544V507.528H119V508.648C119.368 507.896 120.312 507.464 121.064 507.4C121.352 507.384 121.624 507.4 121.88 507.448C122.824 507.592 123.48 508.088 123.832 508.904C124.36 507.88 125.224 507.368 126.424 507.368C128.28 507.368 129.304 508.568 129.304 510.68V515H127.848V510.776C127.848 509.544 127.208 508.792 126.136 508.792ZM93.584 527.976L97.472 536.072L101.36 527.976H102.72L104.064 539H102.592L101.584 530.712L98.144 537.784H96.832L93.36 530.712L92.352 539H90.88L92.224 527.976H93.584ZM113.42 539H111.98V537.848C111.484 538.68 110.444 539.16 109.356 539.16C108.3 539.16 107.404 538.792 106.668 538.072C105.932 537.352 105.564 536.408 105.564 535.256C105.564 534.088 105.932 533.16 106.668 532.44C107.404 531.72 108.3 531.368 109.356 531.368C110.444 531.368 111.516 531.832 111.98 532.648V531.528H113.42V539ZM111.964 535.24C111.964 534.488 111.708 533.88 111.212 533.448C110.716 533.016 110.14 532.792 109.484 532.792C108.796 532.792 108.204 533.016 107.74 533.48C107.276 533.928 107.052 534.52 107.052 535.24C107.052 535.96 107.292 536.568 107.756 537.032C108.22 537.496 108.796 537.736 109.484 537.736C110.172 537.736 110.764 537.512 111.244 537.064C111.724 536.616 111.964 536.008 111.964 535.24ZM117.313 536.28V539H115.857V531.528H117.313V533.208C117.681 531.976 118.369 531.368 119.393 531.368C119.985 531.368 120.417 531.464 120.689 531.656L120.465 533.016C120.113 532.84 119.745 532.76 119.361 532.76C118.001 532.76 117.313 534.168 117.313 536.28ZM127.017 539L123.609 535.352V539H122.169V527.464H123.609V534.136L126.185 531.528H128.169L124.969 534.76L128.937 539H127.017ZM130.692 534.68H135.332C135.156 533.448 134.276 532.68 133.06 532.68C131.796 532.68 130.868 533.448 130.692 534.68ZM136.772 535.24C136.772 535.512 136.772 535.704 136.756 535.816H130.692C130.868 537.048 131.828 537.848 133.108 537.848C134.02 537.848 134.852 537.416 135.252 536.696C135.396 536.744 135.604 536.84 135.892 536.952L136.5 537.176C135.876 538.456 134.548 539.16 133.06 539.16C131.972 539.16 131.06 538.792 130.324 538.072C129.604 537.352 129.236 536.408 129.236 535.24C129.236 534.072 129.604 533.144 130.324 532.44C131.06 531.72 131.972 531.368 133.06 531.368C134.132 531.368 135.028 531.72 135.716 532.44C136.42 533.144 136.772 534.072 136.772 535.24ZM140.638 528.712V531.528H142.222V532.76H140.638V539H139.182V532.76H137.838V531.528H139.182V528.712H140.638ZM145.312 539H143.872V531.528H145.312V539ZM143.872 529.448C143.488 529.08 143.488 528.472 143.872 528.104C144.272 527.736 144.912 527.736 145.296 528.104C145.696 528.472 145.696 529.08 145.296 529.448C144.912 529.816 144.272 529.816 143.872 529.448ZM149.203 534.968V539H147.747V531.528H149.203V532.648C149.635 531.816 150.627 531.368 151.539 531.368C153.395 531.368 154.419 532.568 154.419 534.68V539H152.963V534.776C152.963 533.544 152.339 532.792 151.315 532.792C150.147 532.792 149.203 533.496 149.203 534.968ZM157.307 540.376L157.883 540.072C158.315 540.888 159.195 541.352 160.043 541.352C161.819 541.352 162.699 540.216 162.699 537.96C162.699 537.912 162.683 537.832 162.683 537.784C162.251 538.632 161.147 539.16 160.059 539.16C159.003 539.16 158.107 538.808 157.371 538.088C156.635 537.368 156.267 536.44 156.267 535.288C156.267 534.12 156.635 533.176 157.371 532.456C158.107 531.736 159.003 531.368 160.059 531.368C161.147 531.368 162.219 531.864 162.683 532.696V531.528H164.123V537.864C164.123 541.112 162.763 542.728 160.043 542.728C158.635 542.728 157.371 541.992 156.667 540.712C156.747 540.68 156.955 540.568 157.307 540.376ZM162.667 535.272C162.667 534.504 162.427 533.896 161.947 533.464C161.467 533.016 160.875 532.792 160.187 532.792C159.499 532.792 158.923 533.032 158.459 533.496C157.995 533.96 157.755 534.552 157.755 535.272C157.755 536.024 157.979 536.616 158.443 537.064C158.907 537.512 159.499 537.736 160.187 537.736C160.843 537.736 161.419 537.512 161.915 537.064C162.411 536.616 162.667 536.024 162.667 535.272ZM96.128 558.824L99.072 563H97.264L94.416 558.872H93.008V563H91.504V551.976H95.744C96.832 551.976 97.648 552.312 98.192 552.984C98.736 553.656 99.008 554.472 99.008 555.432C99.008 556.328 98.768 557.096 98.288 557.736C97.824 558.376 97.104 558.744 96.128 558.824ZM95.696 553.368H93.008V557.48H95.632C96.896 557.48 97.472 556.584 97.472 555.432C97.472 554.296 96.896 553.368 95.696 553.368ZM101.739 558.68H106.379C106.203 557.448 105.323 556.68 104.107 556.68C102.843 556.68 101.914 557.448 101.739 558.68ZM107.819 559.24C107.819 559.512 107.819 559.704 107.803 559.816H101.739C101.914 561.048 102.875 561.848 104.155 561.848C105.067 561.848 105.899 561.416 106.299 560.696C106.443 560.744 106.651 560.84 106.939 560.952L107.547 561.176C106.923 562.456 105.595 563.16 104.107 563.16C103.019 563.16 102.107 562.792 101.371 562.072C100.651 561.352 100.283 560.408 100.283 559.24C100.283 558.072 100.651 557.144 101.371 556.44C102.107 555.72 103.019 555.368 104.107 555.368C105.179 555.368 106.075 555.72 106.763 556.44C107.467 557.144 107.819 558.072 107.819 559.24ZM112.389 559.944L111.365 559.704C109.941 559.32 109.237 558.6 109.365 557.272C109.413 556.728 109.701 556.28 110.197 555.912C110.693 555.544 111.285 555.368 111.957 555.368C113.349 555.368 114.421 556.056 114.549 557.48H113.157C113.077 556.952 112.581 556.632 111.989 556.632C111.429 556.632 110.981 556.904 110.869 557.304C110.805 557.544 110.805 557.736 110.885 557.896C110.997 558.136 111.301 558.328 111.765 558.472L112.869 558.744C114.165 559.064 114.805 559.784 114.805 560.92C114.805 561.592 114.517 562.136 113.957 562.552C113.397 562.952 112.725 563.16 111.909 563.16C111.189 563.16 110.549 562.936 109.989 562.504C109.429 562.072 109.141 561.48 109.125 560.76H110.453C110.517 561.16 110.725 561.432 111.061 561.608C111.397 561.816 111.781 561.896 112.245 561.864C112.933 561.816 113.365 561.416 113.381 560.888C113.397 560.376 113.013 560.088 112.389 559.944ZM117.66 558.68H122.3C122.124 557.448 121.244 556.68 120.028 556.68C118.764 556.68 117.836 557.448 117.66 558.68ZM123.74 559.24C123.74 559.512 123.74 559.704 123.724 559.816H117.66C117.836 561.048 118.796 561.848 120.076 561.848C120.988 561.848 121.82 561.416 122.22 560.696C122.364 560.744 122.572 560.84 122.86 560.952L123.468 561.176C122.844 562.456 121.516 563.16 120.028 563.16C118.94 563.16 118.028 562.792 117.292 562.072C116.572 561.352 116.204 560.408 116.204 559.24C116.204 558.072 116.572 557.144 117.292 556.44C118.028 555.72 118.94 555.368 120.028 555.368C121.1 555.368 121.996 555.72 122.684 556.44C123.388 557.144 123.74 558.072 123.74 559.24ZM127.047 560.28V563H125.591V555.528H127.047V557.208C127.415 555.976 128.103 555.368 129.127 555.368C129.719 555.368 130.151 555.464 130.423 555.656L130.199 557.016C129.847 556.84 129.479 556.76 129.095 556.76C127.735 556.76 127.047 558.168 127.047 560.28ZM134.064 563L130.96 555.528H132.496L134.768 561.144L137.024 555.528H138.576L135.456 563H135.472H134.064ZM140.848 558.68H145.488C145.312 557.448 144.432 556.68 143.216 556.68C141.952 556.68 141.024 557.448 140.848 558.68ZM146.928 559.24C146.928 559.512 146.928 559.704 146.912 559.816H140.848C141.024 561.048 141.984 561.848 143.264 561.848C144.176 561.848 145.008 561.416 145.408 560.696C145.552 560.744 145.76 560.84 146.048 560.952L146.656 561.176C146.032 562.456 144.704 563.16 143.216 563.16C142.128 563.16 141.216 562.792 140.48 562.072C139.76 561.352 139.392 560.408 139.392 559.24C139.392 558.072 139.76 557.144 140.48 556.44C141.216 555.72 142.128 555.368 143.216 555.368C144.288 555.368 145.184 555.72 145.872 556.44C146.576 557.144 146.928 558.072 146.928 559.24ZM153.223 563V551.976H157.623C158.711 551.976 159.527 552.312 160.071 552.984C160.631 553.656 160.903 554.472 160.903 555.432C160.903 556.392 160.631 557.208 160.071 557.88C159.527 558.536 158.711 558.872 157.623 558.872H154.727V563H153.223ZM157.607 553.368H154.727V557.48H157.527C158.791 557.48 159.415 556.568 159.415 555.432C159.415 554.296 158.807 553.368 157.607 553.368ZM161.861 559.24C161.861 558.088 162.229 557.16 162.981 556.44C163.733 555.72 164.661 555.368 165.765 555.368C166.869 555.368 167.797 555.72 168.549 556.44C169.301 557.16 169.685 558.088 169.685 559.24C169.685 560.392 169.301 561.336 168.533 562.072C167.781 562.792 166.853 563.16 165.765 563.16C164.677 563.16 163.749 562.792 162.997 562.072C162.245 561.352 161.861 560.408 161.861 559.24ZM168.229 559.24C168.229 558.504 167.989 557.912 167.509 557.464C167.045 557.016 166.453 556.792 165.765 556.792C165.077 556.792 164.485 557.016 164.005 557.464C163.541 557.912 163.301 558.504 163.301 559.24C163.301 559.992 163.541 560.6 164.005 561.064C164.485 561.528 165.077 561.752 165.765 561.752C166.453 561.752 167.045 561.528 167.509 561.064C167.989 560.6 168.229 559.992 168.229 559.24ZM171.126 559.24C171.126 558.088 171.494 557.16 172.246 556.44C172.998 555.72 173.926 555.368 175.03 555.368C176.134 555.368 177.062 555.72 177.814 556.44C178.566 557.16 178.95 558.088 178.95 559.24C178.95 560.392 178.566 561.336 177.798 562.072C177.046 562.792 176.118 563.16 175.03 563.16C173.942 563.16 173.014 562.792 172.262 562.072C171.51 561.352 171.126 560.408 171.126 559.24ZM177.494 559.24C177.494 558.504 177.254 557.912 176.774 557.464C176.31 557.016 175.718 556.792 175.03 556.792C174.342 556.792 173.75 557.016 173.27 557.464C172.806 557.912 172.566 558.504 172.566 559.24C172.566 559.992 172.806 560.6 173.27 561.064C173.75 561.528 174.342 561.752 175.03 561.752C175.718 561.752 176.31 561.528 176.774 561.064C177.254 560.6 177.494 559.992 177.494 559.24ZM180.888 563V551.464H182.344V563H180.888ZM91.504 587V575.976H92.992V585.608H97.488V587H91.504ZM100.578 587H99.1379V579.528H100.578V587ZM99.1379 577.448C98.7539 577.08 98.7539 576.472 99.1379 576.104C99.5379 575.736 100.178 575.736 100.562 576.104C100.962 576.472 100.962 577.08 100.562 577.448C100.178 577.816 99.5379 577.816 99.1379 577.448ZM108.869 580.696V579.528H110.325V590.632H108.869V585.88C108.405 586.712 107.365 587.16 106.261 587.16C105.205 587.16 104.309 586.808 103.589 586.088C102.869 585.368 102.517 584.44 102.517 583.288C102.517 582.12 102.885 581.176 103.605 580.456C104.325 579.736 105.221 579.368 106.261 579.368C107.333 579.368 108.405 579.864 108.869 580.696ZM108.869 583.304C108.869 582.536 108.629 581.928 108.149 581.48C107.685 581.016 107.093 580.792 106.405 580.792C105.717 580.792 105.157 581.032 104.693 581.496C104.229 581.96 104.005 582.568 104.005 583.304C104.005 584.024 104.229 584.616 104.693 585.064C105.157 585.512 105.717 585.736 106.405 585.736C107.061 585.736 107.621 585.528 108.117 585.096C108.613 584.664 108.869 584.056 108.869 583.304ZM117.883 583.56V579.528H119.339V587H117.883V585.88C117.451 586.712 116.475 587.16 115.563 587.16C113.707 587.16 112.667 585.96 112.683 583.848V579.528H114.139V583.752C114.139 584.984 114.747 585.736 115.771 585.736C116.971 585.736 117.883 585.048 117.883 583.56ZM123.187 587H121.747V579.528H123.187V587ZM121.747 577.448C121.363 577.08 121.363 576.472 121.747 576.104C122.147 575.736 122.787 575.736 123.171 576.104C123.571 576.472 123.571 577.08 123.171 577.448C122.787 577.816 122.147 577.816 121.747 577.448ZM132.982 587H131.526V585.848C131.03 586.68 129.99 587.16 128.902 587.16C127.846 587.16 126.95 586.792 126.214 586.072C125.494 585.352 125.126 584.408 125.126 583.256C125.126 582.088 125.494 581.16 126.214 580.44C126.934 579.72 127.83 579.368 128.886 579.368C130.022 579.368 131.03 579.816 131.526 580.648V575.464H132.982V587ZM129.03 580.792C128.342 580.792 127.766 581.016 127.302 581.48C126.838 581.928 126.614 582.52 126.614 583.24C126.614 583.96 126.838 584.568 127.302 585.032C127.766 585.496 128.342 585.736 129.03 585.736C129.718 585.736 130.294 585.512 130.774 585.064C131.27 584.6 131.51 583.992 131.51 583.24C131.51 582.488 131.254 581.88 130.758 581.448C130.262 581.016 129.686 580.792 129.03 580.792ZM136.859 587H135.419V579.528H136.859V587ZM135.419 577.448C135.035 577.08 135.035 576.472 135.419 576.104C135.819 575.736 136.459 575.736 136.843 576.104C137.243 576.472 137.243 577.08 136.843 577.448C136.459 577.816 135.819 577.816 135.419 577.448ZM141.31 576.712V579.528H142.894V580.76H141.31V587H139.854V580.76H138.51V579.528H139.854V576.712H141.31ZM151.2 579.528L146.56 590.632H145.04L146.608 586.776L143.616 579.528H145.168L147.408 584.936L149.648 579.528H151.2ZM99.424 608.312L100.544 609.256C99.536 610.456 98.048 611.16 96.368 611.16C94.816 611.16 93.488 610.616 92.4 609.512C91.328 608.408 90.784 607.08 90.784 605.512C90.784 603.944 91.328 602.616 92.4 601.512C93.488 600.408 94.816 599.848 96.368 599.848C98.032 599.848 99.504 600.552 100.512 601.72L99.392 602.648C98.56 601.736 97.552 601.288 96.368 601.288C95.216 601.288 94.24 601.704 93.456 602.52C92.672 603.336 92.272 604.344 92.272 605.512C92.272 606.68 92.672 607.688 93.456 608.504C94.24 609.32 95.216 609.72 96.368 609.72C97.6 609.72 98.624 609.256 99.424 608.312ZM101.642 607.24C101.642 606.088 102.01 605.16 102.762 604.44C103.514 603.72 104.442 603.368 105.546 603.368C106.65 603.368 107.578 603.72 108.33 604.44C109.082 605.16 109.466 606.088 109.466 607.24C109.466 608.392 109.082 609.336 108.314 610.072C107.562 610.792 106.634 611.16 105.546 611.16C104.458 611.16 103.53 610.792 102.778 610.072C102.026 609.352 101.642 608.408 101.642 607.24ZM108.01 607.24C108.01 606.504 107.77 605.912 107.29 605.464C106.826 605.016 106.234 604.792 105.546 604.792C104.858 604.792 104.266 605.016 103.786 605.464C103.322 605.912 103.082 606.504 103.082 607.24C103.082 607.992 103.322 608.6 103.786 609.064C104.266 609.528 104.858 609.752 105.546 609.752C106.234 609.752 106.826 609.528 107.29 609.064C107.77 608.6 108.01 607.992 108.01 607.24ZM119.996 604.792C118.78 604.776 118.012 605.688 118.012 606.968V611H116.556V606.76C116.556 605.544 115.916 604.792 114.94 604.792C113.788 604.792 112.86 605.512 112.86 606.968V611H111.404V603.528H112.86V604.648C113.228 603.896 114.172 603.464 114.924 603.4C115.212 603.384 115.484 603.4 115.74 603.448C116.684 603.592 117.34 604.088 117.692 604.904C118.22 603.88 119.084 603.368 120.284 603.368C122.14 603.368 123.164 604.568 123.164 606.68V611H121.708V606.776C121.708 605.544 121.068 604.792 119.996 604.792ZM134.089 604.792C132.873 604.776 132.105 605.688 132.105 606.968V611H130.649V606.76C130.649 605.544 130.009 604.792 129.033 604.792C127.881 604.792 126.953 605.512 126.953 606.968V611H125.497V603.528H126.953V604.648C127.321 603.896 128.265 603.464 129.017 603.4C129.305 603.384 129.577 603.4 129.833 603.448C130.777 603.592 131.433 604.088 131.785 604.904C132.313 603.88 133.177 603.368 134.377 603.368C136.233 603.368 137.257 604.568 137.257 606.68V611H135.801V606.776C135.801 605.544 135.161 604.792 134.089 604.792ZM141.031 611H139.591V603.528H141.031V611ZM139.591 601.448C139.207 601.08 139.207 600.472 139.591 600.104C139.991 599.736 140.631 599.736 141.015 600.104C141.415 600.472 141.415 601.08 141.015 601.448C140.631 601.816 139.991 601.816 139.591 601.448ZM146.186 607.944L145.162 607.704C143.738 607.32 143.034 606.6 143.162 605.272C143.21 604.728 143.498 604.28 143.994 603.912C144.49 603.544 145.082 603.368 145.754 603.368C147.146 603.368 148.218 604.056 148.346 605.48H146.954C146.874 604.952 146.378 604.632 145.786 604.632C145.226 604.632 144.778 604.904 144.666 605.304C144.602 605.544 144.602 605.736 144.682 605.896C144.794 606.136 145.098 606.328 145.562 606.472L146.666 606.744C147.962 607.064 148.602 607.784 148.602 608.92C148.602 609.592 148.314 610.136 147.754 610.552C147.194 610.952 146.522 611.16 145.706 611.16C144.986 611.16 144.346 610.936 143.786 610.504C143.226 610.072 142.938 609.48 142.922 608.76H144.25C144.314 609.16 144.522 609.432 144.858 609.608C145.194 609.816 145.578 609.896 146.042 609.864C146.73 609.816 147.162 609.416 147.178 608.888C147.194 608.376 146.81 608.088 146.186 607.944ZM153.217 607.944L152.193 607.704C150.769 607.32 150.065 606.6 150.193 605.272C150.241 604.728 150.529 604.28 151.025 603.912C151.521 603.544 152.113 603.368 152.785 603.368C154.177 603.368 155.249 604.056 155.377 605.48H153.985C153.905 604.952 153.409 604.632 152.817 604.632C152.257 604.632 151.809 604.904 151.697 605.304C151.633 605.544 151.633 605.736 151.713 605.896C151.825 606.136 152.129 606.328 152.593 606.472L153.697 606.744C154.993 607.064 155.633 607.784 155.633 608.92C155.633 609.592 155.345 610.136 154.785 610.552C154.225 610.952 153.553 611.16 152.737 611.16C152.017 611.16 151.377 610.936 150.817 610.504C150.257 610.072 149.969 609.48 149.953 608.76H151.281C151.345 609.16 151.553 609.432 151.889 609.608C152.225 609.816 152.609 609.896 153.073 609.864C153.761 609.816 154.193 609.416 154.209 608.888C154.225 608.376 153.841 608.088 153.217 607.944ZM158.969 611H157.529V603.528H158.969V611ZM157.529 601.448C157.145 601.08 157.145 600.472 157.529 600.104C157.929 599.736 158.569 599.736 158.953 600.104C159.353 600.472 159.353 601.08 158.953 601.448C158.569 601.816 157.929 601.816 157.529 601.448ZM160.908 607.24C160.908 606.088 161.276 605.16 162.028 604.44C162.78 603.72 163.708 603.368 164.812 603.368C165.916 603.368 166.844 603.72 167.596 604.44C168.348 605.16 168.732 606.088 168.732 607.24C168.732 608.392 168.348 609.336 167.58 610.072C166.828 610.792 165.9 611.16 164.812 611.16C163.724 611.16 162.796 610.792 162.044 610.072C161.292 609.352 160.908 608.408 160.908 607.24ZM167.276 607.24C167.276 606.504 167.036 605.912 166.556 605.464C166.092 605.016 165.5 604.792 164.812 604.792C164.124 604.792 163.532 605.016 163.052 605.464C162.588 605.912 162.348 606.504 162.348 607.24C162.348 607.992 162.588 608.6 163.052 609.064C163.532 609.528 164.124 609.752 164.812 609.752C165.5 609.752 166.092 609.528 166.556 609.064C167.036 608.6 167.276 607.992 167.276 607.24ZM172.125 606.968V611H170.669V603.528H172.125V604.648C172.557 603.816 173.549 603.368 174.461 603.368C176.317 603.368 177.341 604.568 177.341 606.68V611H175.885V606.776C175.885 605.544 175.261 604.792 174.237 604.792C173.069 604.792 172.125 605.496 172.125 606.968ZM182.405 607.944L181.381 607.704C179.957 607.32 179.253 606.6 179.381 605.272C179.429 604.728 179.717 604.28 180.213 603.912C180.709 603.544 181.301 603.368 181.973 603.368C183.365 603.368 184.437 604.056 184.565 605.48H183.173C183.093 604.952 182.597 604.632 182.005 604.632C181.445 604.632 180.997 604.904 180.885 605.304C180.821 605.544 180.821 605.736 180.901 605.896C181.013 606.136 181.317 606.328 181.781 606.472L182.885 606.744C184.181 607.064 184.821 607.784 184.821 608.92C184.821 609.592 184.533 610.136 183.973 610.552C183.413 610.952 182.741 611.16 181.925 611.16C181.205 611.16 180.565 610.936 180.005 610.504C179.445 610.072 179.157 609.48 179.141 608.76H180.469C180.533 609.16 180.741 609.432 181.077 609.608C181.413 609.816 181.797 609.896 182.261 609.864C182.949 609.816 183.381 609.416 183.397 608.888C183.413 608.376 183.029 608.088 182.405 607.944Z" fill="white"/>
    <path fill-rule="evenodd" clip-rule="evenodd" d="M20 390C20 386.686 22.6863 384 26 384H66C69.3137 384 72 386.686 72 390C72 393.314 69.3137 396 66 396H26C22.6863 396 20 393.314 20 390Z" fill="#13AFB6"/>
    <path fill-rule="evenodd" clip-rule="evenodd" d="M20 438C20 434.686 22.6863 432 26 432H66C69.3137 432 72 434.686 72 438C72 441.314 69.3137 444 66 444H26C22.6863 444 20 441.314 20 438Z" fill="#1987C4"/>
    <path fill-rule="evenodd" clip-rule="evenodd" d="M20 486C20 482.686 22.6863 480 26 480H66C69.3137 480 72 482.686 72 486C72 489.314 69.3137 492 66 492H26C22.6863 492 20 489.314 20 486Z" fill="#F3BA2F"/>
    <path fill-rule="evenodd" clip-rule="evenodd" d="M20 534C20 530.686 22.6863 528 26 528H66C69.3137 528 72 530.686 72 534C72 537.314 69.3137 540 66 540H26C22.6863 540 20 537.314 20 534Z" fill="#9095A0"/>
    <path fill-rule="evenodd" clip-rule="evenodd" d="M20 582C20 578.686 22.6863 576 26 576H66C69.3137 576 72 578.686 72 582C72 585.314 69.3137 588 66 588H26C22.6863 588 20 585.314 20 582Z" fill="#FFAEB2"/>
    <path fill-rule="evenodd" clip-rule="evenodd" d="M20 414C20 410.686 22.6863 408 26 408H66C69.3137 408 72 410.686 72 414C72 417.314 69.3137 420 66 420H26C22.6863 420 20 417.314 20 414Z" fill="#005788"/>
    <path fill-rule="evenodd" clip-rule="evenodd" d="M20 462C20 458.686 22.6863 456 26 456H66C69.3137 456 72 458.686 72 462C72 465.314 69.3137 468 66 468H26C22.6863 468 20 465.314 20 462Z" fill="#76CDFE"/>
    <path fill-rule="evenodd" clip-rule="evenodd" d="M20 510C20 506.686 22.6863 504 26 504H66C69.3137 504 72 506.686 72 510C72 513.314 69.3137 516 66 516H26C22.6863 516 20 513.314 20 510Z" fill="#F35E2F"/>
    <path fill-rule="evenodd" clip-rule="evenodd" d="M20 558C20 554.686 22.6863 552 26 552H66C69.3137 552 72 554.686 72 558C72 561.314 69.3137 564 66 564H26C22.6863 564 20 561.314 20 558Z" fill="#505D65"/>
    <path fill-rule="evenodd" clip-rule="evenodd" d="M20 606C20 602.686 22.6863 600 26 600H66C69.3137 600 72 602.686 72 606C72 609.314 69.3137 612 66 612H26C22.6863 612 20 609.314 20 606Z" fill="#B81A21"/>
    <path d="M295.265 386.296L299.297 384.376V395H297.057V387.496L295.265 388.264V386.296ZM307.152 391.304C307.152 390.168 306.368 389.592 305.216 389.592C304.4 389.592 303.44 389.912 302.912 390.744L301.68 390.104L302.544 384.52H308.688V386.568H304.32L304.048 388.264C304.448 387.896 305.088 387.72 305.968 387.72C306.944 387.72 307.76 388.04 308.416 388.664C309.072 389.288 309.392 390.168 309.392 391.304C309.392 392.44 308.992 393.368 308.208 394.088C307.424 394.808 306.368 395.16 305.072 395.16C303.616 395.16 302.176 394.312 301.36 393.048L303.248 391.832C303.648 392.472 304.416 392.92 305.072 392.92C306.272 392.92 307.152 392.184 307.152 391.304ZM313.757 393.816C313.757 394.584 313.133 395.16 312.365 395.16C311.597 395.16 310.989 394.584 310.989 393.816C310.989 393.048 311.597 392.488 312.365 392.488C313.133 392.488 313.757 393.064 313.757 393.816ZM315.537 389.752C315.537 386.12 316.849 384.312 319.457 384.312C320.929 384.312 321.985 384.888 322.545 385.912C323.121 386.936 323.345 388.152 323.345 389.752C323.345 391.352 323.121 392.536 322.545 393.56C321.985 394.584 320.929 395.16 319.457 395.16C316.849 395.16 315.537 393.352 315.537 389.752ZM317.777 389.752C317.777 391.912 318.337 392.984 319.457 392.984C320.561 392.984 321.105 391.912 321.105 389.752C321.105 387.576 320.561 386.488 319.457 386.488C318.337 386.488 317.777 387.576 317.777 389.752ZM325.194 389.752C325.194 386.12 326.506 384.312 329.114 384.312C330.586 384.312 331.642 384.888 332.202 385.912C332.778 386.936 333.002 388.152 333.002 389.752C333.002 391.352 332.778 392.536 332.202 393.56C331.642 394.584 330.586 395.16 329.114 395.16C326.506 395.16 325.194 393.352 325.194 389.752ZM327.434 389.752C327.434 391.912 327.994 392.984 329.114 392.984C330.218 392.984 330.762 391.912 330.762 389.752C330.762 387.576 330.218 386.488 329.114 386.488C327.994 386.488 327.434 387.576 327.434 389.752ZM342.546 384.52L337.394 395H336.29L341.442 384.52H342.546ZM336.626 384.408C337.218 384.408 337.714 384.616 338.13 385.032C338.562 385.448 338.77 385.96 338.77 386.552C338.77 387.144 338.562 387.656 338.146 388.072C337.73 388.472 337.218 388.68 336.626 388.68C336.034 388.68 335.522 388.472 335.106 388.072C334.706 387.656 334.498 387.144 334.498 386.552C334.498 385.96 334.706 385.448 335.106 385.032C335.522 384.616 336.034 384.408 336.626 384.408ZM336.626 387.384C337.09 387.384 337.474 387.016 337.474 386.552C337.474 386.088 337.09 385.704 336.626 385.704C336.162 385.704 335.794 386.088 335.794 386.552C335.794 387.016 336.13 387.384 336.626 387.384ZM342.29 390.888C342.882 390.888 343.378 391.096 343.794 391.528C344.226 391.944 344.434 392.44 344.434 393.032C344.434 393.624 344.226 394.136 343.81 394.552C343.394 394.952 342.882 395.16 342.29 395.16C341.698 395.16 341.186 394.952 340.77 394.552C340.37 394.136 340.162 393.624 340.162 393.032C340.162 392.44 340.37 391.928 340.77 391.512C341.186 391.096 341.698 390.888 342.29 390.888ZM341.458 393.032C341.458 393.528 341.794 393.864 342.29 393.864C343.026 393.864 343.442 392.952 342.882 392.44C342.37 391.88 341.458 392.296 341.458 393.032ZM307.152 415.304C307.152 414.168 306.368 413.592 305.216 413.592C304.4 413.592 303.44 413.912 302.912 414.744L301.68 414.104L302.544 408.52H308.688V410.568H304.32L304.048 412.264C304.448 411.896 305.088 411.72 305.968 411.72C306.944 411.72 307.76 412.04 308.416 412.664C309.072 413.288 309.392 414.168 309.392 415.304C309.392 416.44 308.992 417.368 308.208 418.088C307.424 418.808 306.368 419.16 305.072 419.16C303.616 419.16 302.176 418.312 301.36 417.048L303.248 415.832C303.648 416.472 304.416 416.92 305.072 416.92C306.272 416.92 307.152 416.184 307.152 415.304ZM313.757 417.816C313.757 418.584 313.133 419.16 312.365 419.16C311.597 419.16 310.989 418.584 310.989 417.816C310.989 417.048 311.597 416.488 312.365 416.488C313.133 416.488 313.757 417.064 313.757 417.816ZM315.537 413.752C315.537 410.12 316.849 408.312 319.457 408.312C320.929 408.312 321.985 408.888 322.545 409.912C323.121 410.936 323.345 412.152 323.345 413.752C323.345 415.352 323.121 416.536 322.545 417.56C321.985 418.584 320.929 419.16 319.457 419.16C316.849 419.16 315.537 417.352 315.537 413.752ZM317.777 413.752C317.777 415.912 318.337 416.984 319.457 416.984C320.561 416.984 321.105 415.912 321.105 413.752C321.105 411.576 320.561 410.488 319.457 410.488C318.337 410.488 317.777 411.576 317.777 413.752ZM325.194 413.752C325.194 410.12 326.506 408.312 329.114 408.312C330.586 408.312 331.642 408.888 332.202 409.912C332.778 410.936 333.002 412.152 333.002 413.752C333.002 415.352 332.778 416.536 332.202 417.56C331.642 418.584 330.586 419.16 329.114 419.16C326.506 419.16 325.194 417.352 325.194 413.752ZM327.434 413.752C327.434 415.912 327.994 416.984 329.114 416.984C330.218 416.984 330.762 415.912 330.762 413.752C330.762 411.576 330.218 410.488 329.114 410.488C327.994 410.488 327.434 411.576 327.434 413.752ZM342.546 408.52L337.394 419H336.29L341.442 408.52H342.546ZM336.626 408.408C337.218 408.408 337.714 408.616 338.13 409.032C338.562 409.448 338.77 409.96 338.77 410.552C338.77 411.144 338.562 411.656 338.146 412.072C337.73 412.472 337.218 412.68 336.626 412.68C336.034 412.68 335.522 412.472 335.106 412.072C334.706 411.656 334.498 411.144 334.498 410.552C334.498 409.96 334.706 409.448 335.106 409.032C335.522 408.616 336.034 408.408 336.626 408.408ZM336.626 411.384C337.09 411.384 337.474 411.016 337.474 410.552C337.474 410.088 337.09 409.704 336.626 409.704C336.162 409.704 335.794 410.088 335.794 410.552C335.794 411.016 336.13 411.384 336.626 411.384ZM342.29 414.888C342.882 414.888 343.378 415.096 343.794 415.528C344.226 415.944 344.434 416.44 344.434 417.032C344.434 417.624 344.226 418.136 343.81 418.552C343.394 418.952 342.882 419.16 342.29 419.16C341.698 419.16 341.186 418.952 340.77 418.552C340.37 418.136 340.162 417.624 340.162 417.032C340.162 416.44 340.37 415.928 340.77 415.512C341.186 415.096 341.698 414.888 342.29 414.888ZM341.458 417.032C341.458 417.528 341.794 417.864 342.29 417.864C343.026 417.864 343.442 416.952 342.882 416.44C342.37 415.88 341.458 416.296 341.458 417.032ZM305.828 435.496L303.876 438.76H305.828V435.496ZM309.412 438.76V440.648H308.084V443H305.828V440.648H300.82L305.716 432.52H308.084V438.76H309.412ZM313.757 441.816C313.757 442.584 313.133 443.16 312.365 443.16C311.597 443.16 310.989 442.584 310.989 441.816C310.989 441.048 311.597 440.488 312.365 440.488C313.133 440.488 313.757 441.064 313.757 441.816ZM315.537 437.752C315.537 434.12 316.849 432.312 319.457 432.312C320.929 432.312 321.985 432.888 322.545 433.912C323.121 434.936 323.345 436.152 323.345 437.752C323.345 439.352 323.121 440.536 322.545 441.56C321.985 442.584 320.929 443.16 319.457 443.16C316.849 443.16 315.537 441.352 315.537 437.752ZM317.777 437.752C317.777 439.912 318.337 440.984 319.457 440.984C320.561 440.984 321.105 439.912 321.105 437.752C321.105 435.576 320.561 434.488 319.457 434.488C318.337 434.488 317.777 435.576 317.777 437.752ZM325.194 437.752C325.194 434.12 326.506 432.312 329.114 432.312C330.586 432.312 331.642 432.888 332.202 433.912C332.778 434.936 333.002 436.152 333.002 437.752C333.002 439.352 332.778 440.536 332.202 441.56C331.642 442.584 330.586 443.16 329.114 443.16C326.506 443.16 325.194 441.352 325.194 437.752ZM327.434 437.752C327.434 439.912 327.994 440.984 329.114 440.984C330.218 440.984 330.762 439.912 330.762 437.752C330.762 435.576 330.218 434.488 329.114 434.488C327.994 434.488 327.434 435.576 327.434 437.752ZM342.546 432.52L337.394 443H336.29L341.442 432.52H342.546ZM336.626 432.408C337.218 432.408 337.714 432.616 338.13 433.032C338.562 433.448 338.77 433.96 338.77 434.552C338.77 435.144 338.562 435.656 338.146 436.072C337.73 436.472 337.218 436.68 336.626 436.68C336.034 436.68 335.522 436.472 335.106 436.072C334.706 435.656 334.498 435.144 334.498 434.552C334.498 433.96 334.706 433.448 335.106 433.032C335.522 432.616 336.034 432.408 336.626 432.408ZM336.626 435.384C337.09 435.384 337.474 435.016 337.474 434.552C337.474 434.088 337.09 433.704 336.626 433.704C336.162 433.704 335.794 434.088 335.794 434.552C335.794 435.016 336.13 435.384 336.626 435.384ZM342.29 438.888C342.882 438.888 343.378 439.096 343.794 439.528C344.226 439.944 344.434 440.44 344.434 441.032C344.434 441.624 344.226 442.136 343.81 442.552C343.394 442.952 342.882 443.16 342.29 443.16C341.698 443.16 341.186 442.952 340.77 442.552C340.37 442.136 340.162 441.624 340.162 441.032C340.162 440.44 340.37 439.928 340.77 439.512C341.186 439.096 341.698 438.888 342.29 438.888ZM341.458 441.032C341.458 441.528 341.794 441.864 342.29 441.864C343.026 441.864 343.442 440.952 342.882 440.44C342.37 439.88 341.458 440.296 341.458 441.032ZM305.441 462.456H304.337V460.536H305.441C306.129 460.536 306.465 460.152 306.465 459.4C306.465 458.968 306.113 458.392 305.409 458.392C304.913 458.392 304.545 458.584 304.305 458.968L302.497 457.864C303.137 456.856 304.369 456.232 305.761 456.312C306.657 456.36 307.409 456.664 308.001 457.256C308.593 457.832 308.881 458.504 308.865 459.256C308.865 460.088 308.337 460.856 307.521 461.304C308.081 461.512 308.545 461.896 308.881 462.456C309.217 463.016 309.361 463.576 309.312 464.152C309.233 465.048 308.785 465.784 307.969 466.376C307.153 466.952 306.225 467.208 305.185 467.128C303.729 467.048 302.417 466.152 301.84 464.936L303.809 463.96C303.921 464.2 304.145 464.44 304.449 464.648C304.753 464.856 305.057 464.952 305.361 464.968C306.129 465.016 306.801 464.424 306.865 463.848C306.897 463.64 307.009 462.408 305.441 462.456ZM313.757 465.816C313.757 466.584 313.133 467.16 312.365 467.16C311.597 467.16 310.989 466.584 310.989 465.816C310.989 465.048 311.597 464.488 312.365 464.488C313.133 464.488 313.757 465.064 313.757 465.816ZM315.537 461.752C315.537 458.12 316.849 456.312 319.457 456.312C320.929 456.312 321.985 456.888 322.545 457.912C323.121 458.936 323.345 460.152 323.345 461.752C323.345 463.352 323.121 464.536 322.545 465.56C321.985 466.584 320.929 467.16 319.457 467.16C316.849 467.16 315.537 465.352 315.537 461.752ZM317.777 461.752C317.777 463.912 318.337 464.984 319.457 464.984C320.561 464.984 321.105 463.912 321.105 461.752C321.105 459.576 320.561 458.488 319.457 458.488C318.337 458.488 317.777 459.576 317.777 461.752ZM325.194 461.752C325.194 458.12 326.506 456.312 329.114 456.312C330.586 456.312 331.642 456.888 332.202 457.912C332.778 458.936 333.002 460.152 333.002 461.752C333.002 463.352 332.778 464.536 332.202 465.56C331.642 466.584 330.586 467.16 329.114 467.16C326.506 467.16 325.194 465.352 325.194 461.752ZM327.434 461.752C327.434 463.912 327.994 464.984 329.114 464.984C330.218 464.984 330.762 463.912 330.762 461.752C330.762 459.576 330.218 458.488 329.114 458.488C327.994 458.488 327.434 459.576 327.434 461.752ZM342.546 456.52L337.394 467H336.29L341.442 456.52H342.546ZM336.626 456.408C337.218 456.408 337.714 456.616 338.13 457.032C338.562 457.448 338.77 457.96 338.77 458.552C338.77 459.144 338.562 459.656 338.146 460.072C337.73 460.472 337.218 460.68 336.626 460.68C336.034 460.68 335.522 460.472 335.106 460.072C334.706 459.656 334.498 459.144 334.498 458.552C334.498 457.96 334.706 457.448 335.106 457.032C335.522 456.616 336.034 456.408 336.626 456.408ZM336.626 459.384C337.09 459.384 337.474 459.016 337.474 458.552C337.474 458.088 337.09 457.704 336.626 457.704C336.162 457.704 335.794 458.088 335.794 458.552C335.794 459.016 336.13 459.384 336.626 459.384ZM342.29 462.888C342.882 462.888 343.378 463.096 343.794 463.528C344.226 463.944 344.434 464.44 344.434 465.032C344.434 465.624 344.226 466.136 343.81 466.552C343.394 466.952 342.882 467.16 342.29 467.16C341.698 467.16 341.186 466.952 340.77 466.552C340.37 466.136 340.162 465.624 340.162 465.032C340.162 464.44 340.37 463.928 340.77 463.512C341.186 463.096 341.698 462.888 342.29 462.888ZM341.458 465.032C341.458 465.528 341.794 465.864 342.29 465.864C343.026 465.864 343.442 464.952 342.882 464.44C342.37 463.88 341.458 464.296 341.458 465.032ZM302.145 483.24C302.145 482.424 302.465 481.736 303.089 481.176C303.729 480.6 304.497 480.312 305.377 480.312C306.257 480.312 307.025 480.6 307.665 481.176C308.305 481.736 308.625 482.424 308.625 483.24C308.625 483.96 308.369 484.536 307.857 485C308.769 485.528 309.361 486.504 309.361 487.64C309.361 488.632 308.977 489.464 308.193 490.152C307.425 490.824 306.481 491.16 305.377 491.16C304.273 491.16 303.329 490.824 302.545 490.152C301.777 489.464 301.393 488.632 301.393 487.64C301.393 486.504 301.953 485.528 302.897 485C302.401 484.52 302.145 483.928 302.145 483.24ZM303.633 487.528C303.633 488.408 304.433 489.08 305.377 489.08C306.321 489.08 307.121 488.408 307.121 487.528C307.121 486.68 306.465 485.96 305.361 485.96C304.273 485.96 303.633 486.68 303.633 487.528ZM304.305 483.304C304.305 483.88 304.689 484.312 305.377 484.312C306.065 484.312 306.449 483.88 306.449 483.304C306.449 482.776 306.033 482.328 305.377 482.328C304.721 482.328 304.305 482.776 304.305 483.304ZM313.757 489.816C313.757 490.584 313.133 491.16 312.365 491.16C311.597 491.16 310.989 490.584 310.989 489.816C310.989 489.048 311.597 488.488 312.365 488.488C313.133 488.488 313.757 489.064 313.757 489.816ZM315.537 485.752C315.537 482.12 316.849 480.312 319.457 480.312C320.929 480.312 321.985 480.888 322.545 481.912C323.121 482.936 323.345 484.152 323.345 485.752C323.345 487.352 323.121 488.536 322.545 489.56C321.985 490.584 320.929 491.16 319.457 491.16C316.849 491.16 315.537 489.352 315.537 485.752ZM317.777 485.752C317.777 487.912 318.337 488.984 319.457 488.984C320.561 488.984 321.105 487.912 321.105 485.752C321.105 483.576 320.561 482.488 319.457 482.488C318.337 482.488 317.777 483.576 317.777 485.752ZM325.194 485.752C325.194 482.12 326.506 480.312 329.114 480.312C330.586 480.312 331.642 480.888 332.202 481.912C332.778 482.936 333.002 484.152 333.002 485.752C333.002 487.352 332.778 488.536 332.202 489.56C331.642 490.584 330.586 491.16 329.114 491.16C326.506 491.16 325.194 489.352 325.194 485.752ZM327.434 485.752C327.434 487.912 327.994 488.984 329.114 488.984C330.218 488.984 330.762 487.912 330.762 485.752C330.762 483.576 330.218 482.488 329.114 482.488C327.994 482.488 327.434 483.576 327.434 485.752ZM342.546 480.52L337.394 491H336.29L341.442 480.52H342.546ZM336.626 480.408C337.218 480.408 337.714 480.616 338.13 481.032C338.562 481.448 338.77 481.96 338.77 482.552C338.77 483.144 338.562 483.656 338.146 484.072C337.73 484.472 337.218 484.68 336.626 484.68C336.034 484.68 335.522 484.472 335.106 484.072C334.706 483.656 334.498 483.144 334.498 482.552C334.498 481.96 334.706 481.448 335.106 481.032C335.522 480.616 336.034 480.408 336.626 480.408ZM336.626 483.384C337.09 483.384 337.474 483.016 337.474 482.552C337.474 482.088 337.09 481.704 336.626 481.704C336.162 481.704 335.794 482.088 335.794 482.552C335.794 483.016 336.13 483.384 336.626 483.384ZM342.29 486.888C342.882 486.888 343.378 487.096 343.794 487.528C344.226 487.944 344.434 488.44 344.434 489.032C344.434 489.624 344.226 490.136 343.81 490.552C343.394 490.952 342.882 491.16 342.29 491.16C341.698 491.16 341.186 490.952 340.77 490.552C340.37 490.136 340.162 489.624 340.162 489.032C340.162 488.44 340.37 487.928 340.77 487.512C341.186 487.096 341.698 486.888 342.29 486.888ZM341.458 489.032C341.458 489.528 341.794 489.864 342.29 489.864C343.026 489.864 343.442 488.952 342.882 488.44C342.37 487.88 341.458 488.296 341.458 489.032ZM295.265 506.296L299.297 504.376V515H297.057V507.496L295.265 508.264V506.296ZM307.152 511.304C307.152 510.168 306.368 509.592 305.216 509.592C304.4 509.592 303.44 509.912 302.912 510.744L301.68 510.104L302.544 504.52H308.688V506.568H304.32L304.048 508.264C304.448 507.896 305.088 507.72 305.968 507.72C306.944 507.72 307.76 508.04 308.416 508.664C309.072 509.288 309.392 510.168 309.392 511.304C309.392 512.44 308.992 513.368 308.208 514.088C307.424 514.808 306.368 515.16 305.072 515.16C303.616 515.16 302.176 514.312 301.36 513.048L303.248 511.832C303.648 512.472 304.416 512.92 305.072 512.92C306.272 512.92 307.152 512.184 307.152 511.304ZM313.757 513.816C313.757 514.584 313.133 515.16 312.365 515.16C311.597 515.16 310.989 514.584 310.989 513.816C310.989 513.048 311.597 512.488 312.365 512.488C313.133 512.488 313.757 513.064 313.757 513.816ZM315.537 509.752C315.537 506.12 316.849 504.312 319.457 504.312C320.929 504.312 321.985 504.888 322.545 505.912C323.121 506.936 323.345 508.152 323.345 509.752C323.345 511.352 323.121 512.536 322.545 513.56C321.985 514.584 320.929 515.16 319.457 515.16C316.849 515.16 315.537 513.352 315.537 509.752ZM317.777 509.752C317.777 511.912 318.337 512.984 319.457 512.984C320.561 512.984 321.105 511.912 321.105 509.752C321.105 507.576 320.561 506.488 319.457 506.488C318.337 506.488 317.777 507.576 317.777 509.752ZM325.194 509.752C325.194 506.12 326.506 504.312 329.114 504.312C330.586 504.312 331.642 504.888 332.202 505.912C332.778 506.936 333.002 508.152 333.002 509.752C333.002 511.352 332.778 512.536 332.202 513.56C331.642 514.584 330.586 515.16 329.114 515.16C326.506 515.16 325.194 513.352 325.194 509.752ZM327.434 509.752C327.434 511.912 327.994 512.984 329.114 512.984C330.218 512.984 330.762 511.912 330.762 509.752C330.762 507.576 330.218 506.488 329.114 506.488C327.994 506.488 327.434 507.576 327.434 509.752ZM342.546 504.52L337.394 515H336.29L341.442 504.52H342.546ZM336.626 504.408C337.218 504.408 337.714 504.616 338.13 505.032C338.562 505.448 338.77 505.96 338.77 506.552C338.77 507.144 338.562 507.656 338.146 508.072C337.73 508.472 337.218 508.68 336.626 508.68C336.034 508.68 335.522 508.472 335.106 508.072C334.706 507.656 334.498 507.144 334.498 506.552C334.498 505.96 334.706 505.448 335.106 505.032C335.522 504.616 336.034 504.408 336.626 504.408ZM336.626 507.384C337.09 507.384 337.474 507.016 337.474 506.552C337.474 506.088 337.09 505.704 336.626 505.704C336.162 505.704 335.794 506.088 335.794 506.552C335.794 507.016 336.13 507.384 336.626 507.384ZM342.29 510.888C342.882 510.888 343.378 511.096 343.794 511.528C344.226 511.944 344.434 512.44 344.434 513.032C344.434 513.624 344.226 514.136 343.81 514.552C343.394 514.952 342.882 515.16 342.29 515.16C341.698 515.16 341.186 514.952 340.77 514.552C340.37 514.136 340.162 513.624 340.162 513.032C340.162 512.44 340.37 511.928 340.77 511.512C341.186 511.096 341.698 510.888 342.29 510.888ZM341.458 513.032C341.458 513.528 341.794 513.864 342.29 513.864C343.026 513.864 343.442 512.952 342.882 512.44C342.37 511.88 341.458 512.296 341.458 513.032ZM305.828 531.496L303.876 534.76H305.828V531.496ZM309.412 534.76V536.648H308.084V539H305.828V536.648H300.82L305.716 528.52H308.084V534.76H309.412ZM313.757 537.816C313.757 538.584 313.133 539.16 312.365 539.16C311.597 539.16 310.989 538.584 310.989 537.816C310.989 537.048 311.597 536.488 312.365 536.488C313.133 536.488 313.757 537.064 313.757 537.816ZM315.537 533.752C315.537 530.12 316.849 528.312 319.457 528.312C320.929 528.312 321.985 528.888 322.545 529.912C323.121 530.936 323.345 532.152 323.345 533.752C323.345 535.352 323.121 536.536 322.545 537.56C321.985 538.584 320.929 539.16 319.457 539.16C316.849 539.16 315.537 537.352 315.537 533.752ZM317.777 533.752C317.777 535.912 318.337 536.984 319.457 536.984C320.561 536.984 321.105 535.912 321.105 533.752C321.105 531.576 320.561 530.488 319.457 530.488C318.337 530.488 317.777 531.576 317.777 533.752ZM325.194 533.752C325.194 530.12 326.506 528.312 329.114 528.312C330.586 528.312 331.642 528.888 332.202 529.912C332.778 530.936 333.002 532.152 333.002 533.752C333.002 535.352 332.778 536.536 332.202 537.56C331.642 538.584 330.586 539.16 329.114 539.16C326.506 539.16 325.194 537.352 325.194 533.752ZM327.434 533.752C327.434 535.912 327.994 536.984 329.114 536.984C330.218 536.984 330.762 535.912 330.762 533.752C330.762 531.576 330.218 530.488 329.114 530.488C327.994 530.488 327.434 531.576 327.434 533.752ZM342.546 528.52L337.394 539H336.29L341.442 528.52H342.546ZM336.626 528.408C337.218 528.408 337.714 528.616 338.13 529.032C338.562 529.448 338.77 529.96 338.77 530.552C338.77 531.144 338.562 531.656 338.146 532.072C337.73 532.472 337.218 532.68 336.626 532.68C336.034 532.68 335.522 532.472 335.106 532.072C334.706 531.656 334.498 531.144 334.498 530.552C334.498 529.96 334.706 529.448 335.106 529.032C335.522 528.616 336.034 528.408 336.626 528.408ZM336.626 531.384C337.09 531.384 337.474 531.016 337.474 530.552C337.474 530.088 337.09 529.704 336.626 529.704C336.162 529.704 335.794 530.088 335.794 530.552C335.794 531.016 336.13 531.384 336.626 531.384ZM342.29 534.888C342.882 534.888 343.378 535.096 343.794 535.528C344.226 535.944 344.434 536.44 344.434 537.032C344.434 537.624 344.226 538.136 343.81 538.552C343.394 538.952 342.882 539.16 342.29 539.16C341.698 539.16 341.186 538.952 340.77 538.552C340.37 538.136 340.162 537.624 340.162 537.032C340.162 536.44 340.37 535.928 340.77 535.512C341.186 535.096 341.698 534.888 342.29 534.888ZM341.458 537.032C341.458 537.528 341.794 537.864 342.29 537.864C343.026 537.864 343.442 536.952 342.882 536.44C342.37 535.88 341.458 536.296 341.458 537.032ZM297.093 554.296L301.125 552.376V563H298.885V555.496L297.093 556.264V554.296ZM303.188 554.584V552.52H311.092L306.468 563H303.924L307.62 554.584H303.188ZM313.944 561.816C313.944 562.584 313.32 563.16 312.552 563.16C311.784 563.16 311.176 562.584 311.176 561.816C311.176 561.048 311.784 560.488 312.552 560.488C313.32 560.488 313.944 561.064 313.944 561.816ZM321.277 559.304C321.277 558.168 320.493 557.592 319.341 557.592C318.525 557.592 317.565 557.912 317.037 558.744L315.805 558.104L316.669 552.52H322.813V554.568H318.445L318.173 556.264C318.573 555.896 319.213 555.72 320.093 555.72C321.069 555.72 321.885 556.04 322.541 556.664C323.197 557.288 323.517 558.168 323.517 559.304C323.517 560.44 323.117 561.368 322.333 562.088C321.549 562.808 320.493 563.16 319.197 563.16C317.741 563.16 316.301 562.312 315.485 561.048L317.373 559.832C317.773 560.472 318.541 560.92 319.197 560.92C320.397 560.92 321.277 560.184 321.277 559.304ZM325.194 557.752C325.194 554.12 326.506 552.312 329.114 552.312C330.586 552.312 331.642 552.888 332.202 553.912C332.778 554.936 333.002 556.152 333.002 557.752C333.002 559.352 332.778 560.536 332.202 561.56C331.642 562.584 330.586 563.16 329.114 563.16C326.506 563.16 325.194 561.352 325.194 557.752ZM327.434 557.752C327.434 559.912 327.994 560.984 329.114 560.984C330.218 560.984 330.762 559.912 330.762 557.752C330.762 555.576 330.218 554.488 329.114 554.488C327.994 554.488 327.434 555.576 327.434 557.752ZM342.546 552.52L337.394 563H336.29L341.442 552.52H342.546ZM336.626 552.408C337.218 552.408 337.714 552.616 338.13 553.032C338.562 553.448 338.77 553.96 338.77 554.552C338.77 555.144 338.562 555.656 338.146 556.072C337.73 556.472 337.218 556.68 336.626 556.68C336.034 556.68 335.522 556.472 335.106 556.072C334.706 555.656 334.498 555.144 334.498 554.552C334.498 553.96 334.706 553.448 335.106 553.032C335.522 552.616 336.034 552.408 336.626 552.408ZM336.626 555.384C337.09 555.384 337.474 555.016 337.474 554.552C337.474 554.088 337.09 553.704 336.626 553.704C336.162 553.704 335.794 554.088 335.794 554.552C335.794 555.016 336.13 555.384 336.626 555.384ZM342.29 558.888C342.882 558.888 343.378 559.096 343.794 559.528C344.226 559.944 344.434 560.44 344.434 561.032C344.434 561.624 344.226 562.136 343.81 562.552C343.394 562.952 342.882 563.16 342.29 563.16C341.698 563.16 341.186 562.952 340.77 562.552C340.37 562.136 340.162 561.624 340.162 561.032C340.162 560.44 340.37 559.928 340.77 559.512C341.186 559.096 341.698 558.888 342.29 558.888ZM341.458 561.032C341.458 561.528 341.794 561.864 342.29 561.864C343.026 561.864 343.442 560.952 342.882 560.44C342.37 559.88 341.458 560.296 341.458 561.032ZM299.538 584.888V587H292.722V585.784L297.026 580.68C297.394 580.248 297.586 579.864 297.586 579.496C297.586 578.92 297.09 578.456 296.274 578.456C295.49 578.456 294.914 579.064 294.786 579.912L292.738 579.56C293.058 577.56 294.434 576.312 296.402 576.312C297.346 576.312 298.162 576.616 298.818 577.208C299.49 577.8 299.826 578.568 299.826 579.496C299.826 580.44 299.458 581.32 298.722 582.152L296.306 584.888H299.538ZM307.152 583.304C307.152 582.168 306.368 581.592 305.216 581.592C304.4 581.592 303.44 581.912 302.912 582.744L301.68 582.104L302.544 576.52H308.688V578.568H304.32L304.048 580.264C304.448 579.896 305.088 579.72 305.968 579.72C306.944 579.72 307.76 580.04 308.416 580.664C309.072 581.288 309.392 582.168 309.392 583.304C309.392 584.44 308.992 585.368 308.208 586.088C307.424 586.808 306.368 587.16 305.072 587.16C303.616 587.16 302.176 586.312 301.36 585.048L303.248 583.832C303.648 584.472 304.416 584.92 305.072 584.92C306.272 584.92 307.152 584.184 307.152 583.304ZM313.757 585.816C313.757 586.584 313.133 587.16 312.365 587.16C311.597 587.16 310.989 586.584 310.989 585.816C310.989 585.048 311.597 584.488 312.365 584.488C313.133 584.488 313.757 585.064 313.757 585.816ZM315.537 581.752C315.537 578.12 316.849 576.312 319.457 576.312C320.929 576.312 321.985 576.888 322.545 577.912C323.121 578.936 323.345 580.152 323.345 581.752C323.345 583.352 323.121 584.536 322.545 585.56C321.985 586.584 320.929 587.16 319.457 587.16C316.849 587.16 315.537 585.352 315.537 581.752ZM317.777 581.752C317.777 583.912 318.337 584.984 319.457 584.984C320.561 584.984 321.105 583.912 321.105 581.752C321.105 579.576 320.561 578.488 319.457 578.488C318.337 578.488 317.777 579.576 317.777 581.752ZM325.194 581.752C325.194 578.12 326.506 576.312 329.114 576.312C330.586 576.312 331.642 576.888 332.202 577.912C332.778 578.936 333.002 580.152 333.002 581.752C333.002 583.352 332.778 584.536 332.202 585.56C331.642 586.584 330.586 587.16 329.114 587.16C326.506 587.16 325.194 585.352 325.194 581.752ZM327.434 581.752C327.434 583.912 327.994 584.984 329.114 584.984C330.218 584.984 330.762 583.912 330.762 581.752C330.762 579.576 330.218 578.488 329.114 578.488C327.994 578.488 327.434 579.576 327.434 581.752ZM342.546 576.52L337.394 587H336.29L341.442 576.52H342.546ZM336.626 576.408C337.218 576.408 337.714 576.616 338.13 577.032C338.562 577.448 338.77 577.96 338.77 578.552C338.77 579.144 338.562 579.656 338.146 580.072C337.73 580.472 337.218 580.68 336.626 580.68C336.034 580.68 335.522 580.472 335.106 580.072C334.706 579.656 334.498 579.144 334.498 578.552C334.498 577.96 334.706 577.448 335.106 577.032C335.522 576.616 336.034 576.408 336.626 576.408ZM336.626 579.384C337.09 579.384 337.474 579.016 337.474 578.552C337.474 578.088 337.09 577.704 336.626 577.704C336.162 577.704 335.794 578.088 335.794 578.552C335.794 579.016 336.13 579.384 336.626 579.384ZM342.29 582.888C342.882 582.888 343.378 583.096 343.794 583.528C344.226 583.944 344.434 584.44 344.434 585.032C344.434 585.624 344.226 586.136 343.81 586.552C343.394 586.952 342.882 587.16 342.29 587.16C341.698 587.16 341.186 586.952 340.77 586.552C340.37 586.136 340.162 585.624 340.162 585.032C340.162 584.44 340.37 583.928 340.77 583.512C341.186 583.096 341.698 582.888 342.29 582.888ZM341.458 585.032C341.458 585.528 341.794 585.864 342.29 585.864C343.026 585.864 343.442 584.952 342.882 584.44C342.37 583.88 341.458 584.296 341.458 585.032ZM305.628 606.456H304.524V604.536H305.628C306.316 604.536 306.652 604.152 306.652 603.4C306.652 602.968 306.3 602.392 305.596 602.392C305.1 602.392 304.732 602.584 304.492 602.968L302.684 601.864C303.324 600.856 304.556 600.232 305.948 600.312C306.844 600.36 307.596 600.664 308.188 601.256C308.78 601.832 309.068 602.504 309.052 603.256C309.052 604.088 308.524 604.856 307.708 605.304C308.268 605.512 308.732 605.896 309.068 606.456C309.404 607.016 309.548 607.576 309.5 608.152C309.42 609.048 308.972 609.784 308.156 610.376C307.34 610.952 306.412 611.208 305.372 611.128C303.916 611.048 302.604 610.152 302.028 608.936L303.996 607.96C304.108 608.2 304.332 608.44 304.636 608.648C304.94 608.856 305.244 608.952 305.548 608.968C306.316 609.016 306.988 608.424 307.052 607.848C307.084 607.64 307.196 606.408 305.628 606.456ZM313.944 609.816C313.944 610.584 313.32 611.16 312.552 611.16C311.784 611.16 311.176 610.584 311.176 609.816C311.176 609.048 311.784 608.488 312.552 608.488C313.32 608.488 313.944 609.064 313.944 609.816ZM321.277 607.304C321.277 606.168 320.493 605.592 319.341 605.592C318.525 605.592 317.565 605.912 317.037 606.744L315.805 606.104L316.669 600.52H322.813V602.568H318.445L318.173 604.264C318.573 603.896 319.213 603.72 320.093 603.72C321.069 603.72 321.885 604.04 322.541 604.664C323.197 605.288 323.517 606.168 323.517 607.304C323.517 608.44 323.117 609.368 322.333 610.088C321.549 610.808 320.493 611.16 319.197 611.16C317.741 611.16 316.301 610.312 315.485 609.048L317.373 607.832C317.773 608.472 318.541 608.92 319.197 608.92C320.397 608.92 321.277 608.184 321.277 607.304ZM325.194 605.752C325.194 602.12 326.506 600.312 329.114 600.312C330.586 600.312 331.642 600.888 332.202 601.912C332.778 602.936 333.002 604.152 333.002 605.752C333.002 607.352 332.778 608.536 332.202 609.56C331.642 610.584 330.586 611.16 329.114 611.16C326.506 611.16 325.194 609.352 325.194 605.752ZM327.434 605.752C327.434 607.912 327.994 608.984 329.114 608.984C330.218 608.984 330.762 607.912 330.762 605.752C330.762 603.576 330.218 602.488 329.114 602.488C327.994 602.488 327.434 603.576 327.434 605.752ZM342.546 600.52L337.394 611H336.29L341.442 600.52H342.546ZM336.626 600.408C337.218 600.408 337.714 600.616 338.13 601.032C338.562 601.448 338.77 601.96 338.77 602.552C338.77 603.144 338.562 603.656 338.146 604.072C337.73 604.472 337.218 604.68 336.626 604.68C336.034 604.68 335.522 604.472 335.106 604.072C334.706 603.656 334.498 603.144 334.498 602.552C334.498 601.96 334.706 601.448 335.106 601.032C335.522 600.616 336.034 600.408 336.626 600.408ZM336.626 603.384C337.09 603.384 337.474 603.016 337.474 602.552C337.474 602.088 337.09 601.704 336.626 601.704C336.162 601.704 335.794 602.088 335.794 602.552C335.794 603.016 336.13 603.384 336.626 603.384ZM342.29 606.888C342.882 606.888 343.378 607.096 343.794 607.528C344.226 607.944 344.434 608.44 344.434 609.032C344.434 609.624 344.226 610.136 343.81 610.552C343.394 610.952 342.882 611.16 342.29 611.16C341.698 611.16 341.186 610.952 340.77 610.552C340.37 610.136 340.162 609.624 340.162 609.032C340.162 608.44 340.37 607.928 340.77 607.512C341.186 607.096 341.698 606.888 342.29 606.888ZM341.458 609.032C341.458 609.528 341.794 609.864 342.29 609.864C343.026 609.864 343.442 608.952 342.882 608.44C342.37 607.88 341.458 608.296 341.458 609.032Z" fill="white"/>
    <path opacity="0.3" d="M183 392L288 392" stroke="#505D65"/>
    <path opacity="0.3" d="M173 415L288 415" stroke="#505D65"/>
    <line opacity="0.3" x1="173" y1="439.5" x2="288" y2="439.5" stroke="#505D65"/>
    <line opacity="0.3" x1="169" y1="463.5" x2="288" y2="463.5" stroke="#505D65"/>
    <line opacity="0.3" x1="224" y1="487.5" x2="288" y2="487.5" stroke="#505D65"/>
    <line opacity="0.3" x1="139" y1="511.5" x2="288" y2="511.5" stroke="#505D65"/>
    <line opacity="0.3" x1="173" y1="535.5" x2="288" y2="535.5" stroke="#505D65"/>
    <line opacity="0.3" x1="196" y1="559.5" x2="288" y2="559.5" stroke="#505D65"/>
    <line opacity="0.3" x1="161" y1="583.5" x2="288" y2="583.5" stroke="#505D65"/>
    <line opacity="0.3" x1="196" y1="607.5" x2="288" y2="607.5" stroke="#505D65"/>
    <path d="M71.326 761.504L79.894 757.424V780H75.134V764.054L71.326 765.686V761.504ZM90.5004 777.484C90.5004 779.116 89.1744 780.34 87.5424 780.34C85.9104 780.34 84.6184 779.116 84.6184 777.484C84.6184 775.852 85.9104 774.662 87.5424 774.662C89.1744 774.662 90.5004 775.886 90.5004 777.484ZM94.2845 768.848C94.2845 761.13 97.0725 757.288 102.615 757.288C105.743 757.288 107.987 758.512 109.177 760.688C110.401 762.864 110.877 765.448 110.877 768.848C110.877 772.248 110.401 774.764 109.177 776.94C107.987 779.116 105.743 780.34 102.615 780.34C97.0725 780.34 94.2845 776.498 94.2845 768.848ZM99.0445 768.848C99.0445 773.438 100.235 775.716 102.615 775.716C104.961 775.716 106.117 773.438 106.117 768.848C106.117 764.224 104.961 761.912 102.615 761.912C100.235 761.912 99.0445 764.224 99.0445 768.848ZM114.804 768.848C114.804 761.13 117.592 757.288 123.134 757.288C126.262 757.288 128.506 758.512 129.696 760.688C130.92 762.864 131.396 765.448 131.396 768.848C131.396 772.248 130.92 774.764 129.696 776.94C128.506 779.116 126.262 780.34 123.134 780.34C117.592 780.34 114.804 776.498 114.804 768.848ZM119.564 768.848C119.564 773.438 120.754 775.716 123.134 775.716C125.48 775.716 126.636 773.438 126.636 768.848C126.636 764.224 125.48 761.912 123.134 761.912C120.754 761.912 119.564 764.224 119.564 768.848ZM135.324 768.848C135.324 761.13 138.112 757.288 143.654 757.288C146.782 757.288 149.026 758.512 150.216 760.688C151.44 762.864 151.916 765.448 151.916 768.848C151.916 772.248 151.44 774.764 150.216 776.94C149.026 779.116 146.782 780.34 143.654 780.34C138.112 780.34 135.324 776.498 135.324 768.848ZM140.084 768.848C140.084 773.438 141.274 775.716 143.654 775.716C146 775.716 147.156 773.438 147.156 768.848C147.156 764.224 146 761.912 143.654 761.912C141.274 761.912 140.084 764.224 140.084 768.848ZM161.555 777.484C161.555 779.116 160.229 780.34 158.597 780.34C156.965 780.34 155.673 779.116 155.673 777.484C155.673 775.852 156.965 774.662 158.597 774.662C160.229 774.662 161.555 775.886 161.555 777.484ZM165.339 768.848C165.339 761.13 168.127 757.288 173.669 757.288C176.797 757.288 179.041 758.512 180.231 760.688C181.455 762.864 181.931 765.448 181.931 768.848C181.931 772.248 181.455 774.764 180.231 776.94C179.041 779.116 176.797 780.34 173.669 780.34C168.127 780.34 165.339 776.498 165.339 768.848ZM170.099 768.848C170.099 773.438 171.289 775.716 173.669 775.716C176.015 775.716 177.171 773.438 177.171 768.848C177.171 764.224 176.015 761.912 173.669 761.912C171.289 761.912 170.099 764.224 170.099 768.848ZM185.859 768.848C185.859 761.13 188.647 757.288 194.189 757.288C197.317 757.288 199.561 758.512 200.751 760.688C201.975 762.864 202.451 765.448 202.451 768.848C202.451 772.248 201.975 774.764 200.751 776.94C199.561 779.116 197.317 780.34 194.189 780.34C188.647 780.34 185.859 776.498 185.859 768.848ZM190.619 768.848C190.619 773.438 191.809 775.716 194.189 775.716C196.535 775.716 197.691 773.438 197.691 768.848C197.691 764.224 196.535 761.912 194.189 761.912C191.809 761.912 190.619 764.224 190.619 768.848ZM206.378 768.848C206.378 761.13 209.166 757.288 214.708 757.288C217.836 757.288 220.08 758.512 221.27 760.688C222.494 762.864 222.97 765.448 222.97 768.848C222.97 772.248 222.494 774.764 221.27 776.94C220.08 779.116 217.836 780.34 214.708 780.34C209.166 780.34 206.378 776.498 206.378 768.848ZM211.138 768.848C211.138 773.438 212.328 775.716 214.708 775.716C217.054 775.716 218.21 773.438 218.21 768.848C218.21 764.224 217.054 761.912 214.708 761.912C212.328 761.912 211.138 764.224 211.138 768.848ZM232.61 777.484C232.61 779.116 231.284 780.34 229.652 780.34C228.02 780.34 226.728 779.116 226.728 777.484C226.728 775.852 228.02 774.662 229.652 774.662C231.284 774.662 232.61 775.886 232.61 777.484ZM236.394 768.848C236.394 761.13 239.182 757.288 244.724 757.288C247.852 757.288 250.096 758.512 251.286 760.688C252.51 762.864 252.986 765.448 252.986 768.848C252.986 772.248 252.51 774.764 251.286 776.94C250.096 779.116 247.852 780.34 244.724 780.34C239.182 780.34 236.394 776.498 236.394 768.848ZM241.154 768.848C241.154 773.438 242.344 775.716 244.724 775.716C247.07 775.716 248.226 773.438 248.226 768.848C248.226 764.224 247.07 761.912 244.724 761.912C242.344 761.912 241.154 764.224 241.154 768.848ZM256.913 768.848C256.913 761.13 259.701 757.288 265.243 757.288C268.371 757.288 270.615 758.512 271.805 760.688C273.029 762.864 273.505 765.448 273.505 768.848C273.505 772.248 273.029 774.764 271.805 776.94C270.615 779.116 268.371 780.34 265.243 780.34C259.701 780.34 256.913 776.498 256.913 768.848ZM261.673 768.848C261.673 773.438 262.863 775.716 265.243 775.716C267.589 775.716 268.745 773.438 268.745 768.848C268.745 764.224 267.589 761.912 265.243 761.912C262.863 761.912 261.673 764.224 261.673 768.848ZM277.433 768.848C277.433 761.13 280.221 757.288 285.763 757.288C288.891 757.288 291.135 758.512 292.325 760.688C293.549 762.864 294.025 765.448 294.025 768.848C294.025 772.248 293.549 774.764 292.325 776.94C291.135 779.116 288.891 780.34 285.763 780.34C280.221 780.34 277.433 776.498 277.433 768.848ZM282.193 768.848C282.193 773.438 283.383 775.716 285.763 775.716C288.109 775.716 289.265 773.438 289.265 768.848C289.265 764.224 288.109 761.912 285.763 761.912C283.383 761.912 282.193 764.224 282.193 768.848Z" fill="white"/>
    <path d="M120.55 724.632H116.086V721.464H128.566V724.632H124.102V738H120.55V724.632ZM134.11 734.928C135.55 734.928 136.654 733.896 136.654 732.36C136.654 730.896 135.526 729.816 134.11 729.816C132.694 729.816 131.59 730.896 131.59 732.36C131.59 733.896 132.694 734.928 134.11 734.928ZM138.238 736.584C137.11 737.664 135.742 738.192 134.11 738.192C132.478 738.192 131.11 737.664 129.982 736.584C128.854 735.504 128.302 734.088 128.302 732.36C128.302 730.632 128.854 729.24 129.982 728.16C131.11 727.08 132.478 726.552 134.11 726.552C135.742 726.552 137.11 727.08 138.238 728.16C139.366 729.24 139.942 730.632 139.942 732.36C139.942 734.088 139.366 735.504 138.238 736.584ZM146.584 722.496V726.792H148.936V729.432H146.584V738H143.272V729.432H141.232V726.792H143.272V722.496H146.584ZM162.433 738H159.121V736.728C158.809 737.208 158.305 737.568 157.633 737.832C156.985 738.096 156.385 738.216 155.857 738.216C154.345 738.216 153.025 737.688 151.873 736.608C150.721 735.528 150.145 734.112 150.145 732.384C150.145 730.656 150.721 729.264 151.873 728.184C153.025 727.104 154.345 726.552 155.857 726.552C156.913 726.552 158.353 726.96 159.121 728.04V726.792H162.433V738ZM156.409 735.048C157.849 735.048 159.121 733.992 159.121 732.384C159.121 730.776 157.849 729.72 156.409 729.72C155.665 729.72 155.017 729.984 154.441 730.488C153.889 730.992 153.601 731.616 153.601 732.384C153.601 733.152 153.889 733.8 154.441 734.304C155.017 734.808 155.665 735.048 156.409 735.048ZM165.513 738V720.696H168.849V738H165.513ZM182.138 733.776L180.674 733.392C179.114 732.984 178.082 732.336 177.698 731.592C177.338 730.824 177.29 730.44 177.314 729.744C177.338 728.904 177.77 728.184 178.634 727.536C179.498 726.888 180.506 726.552 181.682 726.552C182.954 726.552 184.034 726.864 184.922 727.464C185.81 728.064 186.266 729 186.29 730.272H183.146C183.122 729.624 182.714 729.288 181.874 729.288C181.13 729.288 180.674 729.624 180.698 730.128C180.722 730.536 181.058 730.8 181.682 730.968L183.578 731.472C184.418 731.688 185.066 732.048 185.546 732.504C186.53 733.44 186.626 734.064 186.626 734.736C186.626 735.864 186.146 736.728 185.162 737.328C184.202 737.928 183.074 738.24 181.778 738.24C180.554 738.24 179.45 737.904 178.514 737.208C177.578 736.512 177.122 735.552 177.098 734.376H180.218C180.242 735.048 180.986 735.672 181.874 735.672C182.642 735.648 183.242 735.288 183.242 734.736C183.242 734.256 182.93 733.992 182.138 733.776ZM196.198 732.72V726.792H199.534V738H196.198V736.464C195.622 737.544 194.422 738.24 193.294 738.24C190.678 738.24 188.854 736.56 188.854 733.488V726.792H192.19V732.768C192.19 734.376 193.198 735 194.182 735C195.334 735 196.198 734.28 196.198 732.72ZM205.998 732.432C205.998 734.064 207.15 735.096 208.59 735.096C210.03 735.096 211.182 733.992 211.182 732.432C211.182 730.824 210.03 729.72 208.59 729.72C207.15 729.72 205.998 730.872 205.998 732.432ZM202.614 743.496V726.792H205.926V728.184C206.478 727.152 207.774 726.552 209.214 726.552C210.702 726.552 211.974 727.104 213.03 728.184C214.11 729.264 214.638 730.656 214.638 732.36C214.638 734.112 214.11 735.528 213.03 736.608C211.974 737.688 210.702 738.24 209.214 738.24C207.774 738.24 206.478 737.616 205.926 736.632V743.496H202.614ZM220.436 732.432C220.436 734.064 221.588 735.096 223.028 735.096C224.468 735.096 225.62 733.992 225.62 732.432C225.62 730.824 224.468 729.72 223.028 729.72C221.588 729.72 220.436 730.872 220.436 732.432ZM217.052 743.496V726.792H220.364V728.184C220.916 727.152 222.212 726.552 223.652 726.552C225.14 726.552 226.412 727.104 227.468 728.184C228.548 729.264 229.076 730.656 229.076 732.36C229.076 734.112 228.548 735.528 227.468 736.608C226.412 737.688 225.14 738.24 223.652 738.24C222.212 738.24 220.916 737.616 220.364 736.632V743.496H217.052ZM231.489 738V720.696H234.825V738H231.489ZM244.944 726.792H248.496L241.584 743.496H238.056L240.744 736.848L236.424 726.792H239.976L242.448 733.152L244.944 726.792Z" fill="white"/>
    <defs>
        <filter id="filter0_d_0_1" x="0" y="661.363" width="365" height="199.637" filterUnits="userSpaceOnUse" color-interpolation-filters="sRGB">
            <feFlood flood-opacity="0" result="BackgroundImageFix"/>
            <feColorMatrix in="SourceAlpha" type="matrix" values="0 0 0 0 0 0 0 0 0 0 0 0 0 0 0 0 0 0 127 0" result="hardAlpha"/>
            <feOffset dy="10"/>
            <feGaussianBlur stdDeviation="10"/>
            <feComposite in2="hardAlpha" operator="out"/>
            <feColorMatrix type="matrix" values="0 0 0 0 0 0 0 0 0 0 0 0 0 0 0 0 0 0 0.15 0"/>
            <feBlend mode="normal" in2="BackgroundImageFix" result="effect1_dropShadow_0_1"/>
            <feBlend mode="normal" in="SourceGraphic" in2="effect1_dropShadow_0_1" result="shape"/>
        </filter>
        <linearGradient id="paint0_linear_0_1" x1="300.031" y1="670" x2="283.547" y2="872.458" gradientUnits="userSpaceOnUse">
            <stop offset="0.19" stop-color="#505D65"/>
            <stop offset="1"/>
        </linearGradient>
        <linearGradient id="paint1_linear_0_1" x1="151.593" y1="158.691" x2="209.286" y2="158.691" gradientUnits="userSpaceOnUse">
            <stop stop-color="#03659C"/>
            <stop offset="1" stop-color="#06B2B8"/>
        </linearGradient>
        <linearGradient id="paint2_linear_0_1" x1="164.803" y1="185.812" x2="209.01" y2="150.971" gradientUnits="userSpaceOnUse">
            <stop stop-color="#06B2B8"/>
            <stop offset="0.2" stop-color="#06ABB5"/>
            <stop offset="0.49" stop-color="#0596AE"/>
            <stop offset="0.85" stop-color="#0476A2"/>
            <stop offset="1" stop-color="#03659C"/>
        </linearGradient>
    </defs>
</svg>
