<svg width="1302" height="697" viewBox="0 0 1302 697" fill="none" xmlns="http://www.w3.org/2000/svg">
    <circle opacity="0.3" cx="349.5" cy="347.5" r="341" stroke="#A6BBC8"/>
    <path opacity="0.3" d="M674.5 347.5C674.5 526.993 529.216 672.5 350 672.5C170.784 672.5 25.5 526.993 25.5 347.5C25.5 168.007 170.784 22.5 350 22.5C529.216 22.5 674.5 168.007 674.5 347.5Z" stroke="#A6BBC8"/>
    <path opacity="0.3" d="M656.5 348C656.5 517.275 519.052 654.5 349.5 654.5C179.948 654.5 42.5 517.275 42.5 348C42.5 178.725 179.948 41.5 349.5 41.5C519.052 41.5 656.5 178.725 656.5 348Z" stroke="#A6BBC8"/>
    <path opacity="0.3" d="M639.5 348C639.5 508.44 509.662 638.5 349.5 638.5C189.338 638.5 59.5 508.44 59.5 348C59.5 187.56 189.338 57.5 349.5 57.5C509.662 57.5 639.5 187.56 639.5 348Z" stroke="#A6BBC8"/>
    <path opacity="0.3" d="M621.5 347.5C621.5 497.721 499.498 619.5 349 619.5C198.502 619.5 76.5 497.721 76.5 347.5C76.5 197.279 198.502 75.5 349 75.5C499.498 75.5 621.5 197.279 621.5 347.5Z" stroke="#A6BBC8"/>
    <path opacity="0.3" d="M605.5 347.5C605.5 488.886 491.108 603.5 350 603.5C208.892 603.5 94.5 488.886 94.5 347.5C94.5 206.114 208.892 91.5 350 91.5C491.108 91.5 605.5 206.114 605.5 347.5Z" stroke="#A6BBC8"/>
    <path opacity="0.3" d="M587.5 348C587.5 479.167 480.945 585.5 349.5 585.5C218.055 585.5 111.5 479.167 111.5 348C111.5 216.833 218.055 110.5 349.5 110.5C480.945 110.5 587.5 216.833 587.5 348Z" stroke="#A6BBC8"/>
    <path opacity="0.3" d="M570.5 348C570.5 469.778 471.556 568.5 349.5 568.5C227.444 568.5 128.5 469.778 128.5 348C128.5 226.222 227.444 127.5 349.5 127.5C471.556 127.5 570.5 226.222 570.5 348Z" stroke="#A6BBC8"/>
    <path opacity="0.3" d="M552.5 347.5C552.5 459.615 461.836 550.5 350 550.5C238.163 550.5 147.5 459.615 147.5 347.5C147.5 235.385 238.163 144.5 350 144.5C461.836 144.5 552.5 235.385 552.5 347.5Z" stroke="#A6BBC8"/>
    <path opacity="0.3" d="M533.5 347.5C533.5 449.122 451.343 531.5 350 531.5C248.657 531.5 166.5 449.122 166.5 347.5C166.5 245.878 248.657 163.5 350 163.5C451.343 163.5 533.5 245.878 533.5 347.5Z" stroke="#A6BBC8"/>
    <line opacity="0.3" x1="992" y1="83.5" x2="1230" y2="83.5" stroke="#505D65"/>
    <line opacity="0.3" x1="980" y1="113.5" x2="1230" y2="113.5" stroke="#505D65"/>
    <line opacity="0.3" x1="980" y1="143.5" x2="1230" y2="143.5" stroke="#505D65"/>
    <line opacity="0.3" x1="980" y1="173.5" x2="1230" y2="173.5" stroke="#505D65"/>
    <line opacity="0.3" x1="1031" y1="203.5" x2="1230" y2="203.5" stroke="#505D65"/>
    <line opacity="0.3" x1="942" y1="233.5" x2="1230" y2="233.5" stroke="#505D65"/>
    <line opacity="0.3" x1="980" y1="263.5" x2="1230" y2="263.5" stroke="#505D65"/>
    <line opacity="0.3" x1="1003" y1="293.5" x2="1230" y2="293.5" stroke="#505D65"/>
    <line opacity="0.3" x1="968" y1="323.5" x2="1230" y2="323.5" stroke="#505D65"/>
    <line opacity="0.3" x1="1008" y1="353.5" x2="1230" y2="353.5" stroke="#505D65"/>
    <path d="M876.88 89V75.22H882.38C883.74 75.22 884.76 75.64 885.44 76.48C886.14 77.32 886.48 78.34 886.48 79.54C886.48 80.74 886.14 81.76 885.44 82.6C884.76 83.42 883.74 83.84 882.38 83.84H878.76V89H876.88ZM882.36 76.96H878.76V82.1H882.26C883.84 82.1 884.62 80.96 884.62 79.54C884.62 78.12 883.86 76.96 882.36 76.96ZM895.049 84.7V79.66H896.869V89H895.049V87.6C894.509 88.64 893.289 89.2 892.149 89.2C889.829 89.2 888.529 87.7 888.549 85.06V79.66H890.369V84.94C890.369 86.48 891.129 87.42 892.409 87.42C893.909 87.42 895.049 86.56 895.049 84.7ZM901.699 87.56V89H899.879V74.58H901.699V81.06C902.319 80.02 903.559 79.46 904.979 79.46C906.319 79.46 907.439 79.9 908.339 80.8C909.239 81.7 909.699 82.86 909.699 84.32C909.699 85.76 909.239 86.94 908.319 87.84C907.399 88.74 906.279 89.2 904.959 89.2C903.619 89.2 902.319 88.6 901.699 87.56ZM901.719 84.3C901.719 85.26 902.019 86.02 902.619 86.58C903.219 87.14 903.959 87.42 904.819 87.42C905.679 87.42 906.379 87.12 906.959 86.54C907.539 85.96 907.839 85.2 907.839 84.3C907.839 83.4 907.539 82.66 906.959 82.1C906.379 81.52 905.679 81.24 904.819 81.24C903.999 81.24 903.279 81.52 902.659 82.06C902.039 82.6 901.719 83.36 901.719 84.3ZM912.125 89V74.58H913.945V89H912.125ZM918.789 89H916.989V79.66H918.789V89ZM916.989 77.06C916.509 76.6 916.509 75.84 916.989 75.38C917.489 74.92 918.289 74.92 918.769 75.38C919.269 75.84 919.269 76.6 918.769 77.06C918.289 77.52 917.489 77.52 916.989 77.06ZM926.153 79.46C927.633 79.46 928.833 79.96 929.753 80.96L928.373 82.12C927.793 81.54 927.053 81.24 926.153 81.24C925.293 81.24 924.553 81.52 923.933 82.1C923.313 82.66 923.013 83.4 923.013 84.3C923.013 85.22 923.313 85.98 923.933 86.56C924.553 87.14 925.293 87.44 926.153 87.44C927.053 87.44 927.793 87.14 928.373 86.52L929.773 87.68C928.833 88.7 927.633 89.2 926.153 89.2C924.773 89.2 923.613 88.74 922.653 87.84C921.693 86.92 921.213 85.74 921.213 84.3C921.213 82.86 921.693 81.7 922.653 80.8C923.613 79.9 924.773 79.46 926.153 79.46ZM936.782 85.02H938.642C938.662 85.64 938.942 86.22 939.502 86.72C940.062 87.22 940.762 87.46 941.602 87.46C943.262 87.46 944.202 86.58 944.382 85.44C944.482 84.08 943.482 83.3 942.042 82.98L940.262 82.54C938.022 81.96 936.902 80.76 936.902 78.94C936.902 77.8 937.342 76.88 938.222 76.16C939.102 75.42 940.142 75.06 941.362 75.06C942.642 75.06 943.702 75.44 944.542 76.18C945.382 76.92 945.802 77.88 945.802 79.1H943.942C943.942 77.74 942.862 76.84 941.342 76.84C940.642 76.84 940.042 77.04 939.522 77.42C939.022 77.8 938.762 78.3 938.762 78.92C938.762 79.88 939.422 80.52 940.722 80.84L942.522 81.28C945.142 81.94 946.462 83.44 946.202 85.6C946.082 86.64 945.602 87.5 944.782 88.18C943.962 88.86 942.902 89.2 941.602 89.2C940.222 89.2 939.082 88.78 938.162 87.96C937.242 87.12 936.782 86.14 936.782 85.02ZM957.927 89H956.127V87.56C955.507 88.6 954.207 89.2 952.847 89.2C951.527 89.2 950.407 88.74 949.487 87.84C948.567 86.94 948.107 85.76 948.107 84.32C948.107 82.86 948.567 81.7 949.487 80.8C950.407 79.9 951.527 79.46 952.847 79.46C954.207 79.46 955.547 80.04 956.127 81.06V79.66H957.927V89ZM956.107 84.3C956.107 83.36 955.787 82.6 955.167 82.06C954.547 81.52 953.827 81.24 953.007 81.24C952.147 81.24 951.407 81.52 950.827 82.1C950.247 82.66 949.967 83.4 949.967 84.3C949.967 85.2 950.267 85.96 950.847 86.54C951.427 87.12 952.147 87.42 953.007 87.42C953.867 87.42 954.607 87.14 955.207 86.58C955.807 86.02 956.107 85.26 956.107 84.3ZM960.973 89V74.58H962.793V89H960.973ZM967.036 83.6H972.836C972.616 82.06 971.516 81.1 969.996 81.1C968.416 81.1 967.256 82.06 967.036 83.6ZM974.636 84.3C974.636 84.64 974.636 84.88 974.616 85.02H967.036C967.256 86.56 968.456 87.56 970.056 87.56C971.196 87.56 972.236 87.02 972.736 86.12C972.916 86.18 973.176 86.3 973.536 86.44L974.296 86.72C973.516 88.32 971.856 89.2 969.996 89.2C968.636 89.2 967.496 88.74 966.576 87.84C965.676 86.94 965.216 85.76 965.216 84.3C965.216 82.84 965.676 81.68 966.576 80.8C967.496 79.9 968.636 79.46 969.996 79.46C971.336 79.46 972.456 79.9 973.316 80.8C974.196 81.68 974.636 82.84 974.636 84.3ZM876.88 119V105.22H882.38C883.74 105.22 884.76 105.64 885.44 106.48C886.14 107.32 886.48 108.34 886.48 109.54C886.48 110.74 886.14 111.76 885.44 112.6C884.76 113.42 883.74 113.84 882.38 113.84H878.76V119H876.88ZM882.36 106.96H878.76V112.1H882.26C883.84 112.1 884.62 110.96 884.62 109.54C884.62 108.12 883.86 106.96 882.36 106.96ZM890.352 115.6V119H888.532V109.66H890.352V111.76C890.812 110.22 891.672 109.46 892.952 109.46C893.692 109.46 894.232 109.58 894.572 109.82L894.292 111.52C893.852 111.3 893.392 111.2 892.912 111.2C891.212 111.2 890.352 112.96 890.352 115.6ZM897.388 113.6H903.188C902.968 112.06 901.868 111.1 900.348 111.1C898.768 111.1 897.608 112.06 897.388 113.6ZM904.988 114.3C904.988 114.64 904.988 114.88 904.968 115.02H897.388C897.608 116.56 898.808 117.56 900.408 117.56C901.548 117.56 902.588 117.02 903.088 116.12C903.268 116.18 903.528 116.3 903.888 116.44L904.648 116.72C903.868 118.32 902.208 119.2 900.348 119.2C898.988 119.2 897.848 118.74 896.928 117.84C896.028 116.94 895.568 115.76 895.568 114.3C895.568 112.84 896.028 111.68 896.928 110.8C897.848 109.9 898.988 109.46 900.348 109.46C901.688 109.46 902.808 109.9 903.668 110.8C904.548 111.68 904.988 112.84 904.988 114.3ZM912.017 115.02H913.877C913.897 115.64 914.177 116.22 914.737 116.72C915.297 117.22 915.997 117.46 916.837 117.46C918.497 117.46 919.437 116.58 919.617 115.44C919.717 114.08 918.717 113.3 917.277 112.98L915.497 112.54C913.257 111.96 912.137 110.76 912.137 108.94C912.137 107.8 912.577 106.88 913.457 106.16C914.337 105.42 915.377 105.06 916.597 105.06C917.877 105.06 918.937 105.44 919.777 106.18C920.617 106.92 921.037 107.88 921.037 109.1H919.177C919.177 107.74 918.097 106.84 916.577 106.84C915.877 106.84 915.277 107.04 914.757 107.42C914.257 107.8 913.997 108.3 913.997 108.92C913.997 109.88 914.657 110.52 915.957 110.84L917.757 111.28C920.377 111.94 921.697 113.44 921.437 115.6C921.317 116.64 920.837 117.5 920.017 118.18C919.197 118.86 918.137 119.2 916.837 119.2C915.457 119.2 914.317 118.78 913.397 117.96C912.477 117.12 912.017 116.14 912.017 115.02ZM933.161 119H931.361V117.56C930.741 118.6 929.441 119.2 928.081 119.2C926.761 119.2 925.641 118.74 924.721 117.84C923.801 116.94 923.341 115.76 923.341 114.32C923.341 112.86 923.801 111.7 924.721 110.8C925.641 109.9 926.761 109.46 928.081 109.46C929.441 109.46 930.781 110.04 931.361 111.06V109.66H933.161V119ZM931.341 114.3C931.341 113.36 931.021 112.6 930.401 112.06C929.781 111.52 929.061 111.24 928.241 111.24C927.381 111.24 926.641 111.52 926.061 112.1C925.481 112.66 925.201 113.4 925.201 114.3C925.201 115.2 925.501 115.96 926.081 116.54C926.661 117.12 927.381 117.42 928.241 117.42C929.101 117.42 929.841 117.14 930.441 116.58C931.041 116.02 931.341 115.26 931.341 114.3ZM936.208 119V104.58H938.028V119H936.208ZM942.271 113.6H948.071C947.851 112.06 946.751 111.1 945.231 111.1C943.651 111.1 942.491 112.06 942.271 113.6ZM949.871 114.3C949.871 114.64 949.871 114.88 949.851 115.02H942.271C942.491 116.56 943.691 117.56 945.291 117.56C946.431 117.56 947.471 117.02 947.971 116.12C948.151 116.18 948.411 116.3 948.771 116.44L949.531 116.72C948.751 118.32 947.091 119.2 945.231 119.2C943.871 119.2 942.731 118.74 941.811 117.84C940.911 116.94 940.451 115.76 940.451 114.3C940.451 112.84 940.911 111.68 941.811 110.8C942.731 109.9 943.871 109.46 945.231 109.46C946.571 109.46 947.691 109.9 948.551 110.8C949.431 111.68 949.871 112.84 949.871 114.3ZM958.819 108.74L957.479 107.68C958.199 106.42 959.659 105.66 961.259 105.76C962.319 105.82 963.179 106.2 963.859 106.92C964.559 107.62 964.879 108.44 964.859 109.38C964.859 109.64 964.819 109.9 964.739 110.18C964.499 110.96 964.019 111.56 963.319 111.96C963.979 112.2 964.499 112.66 964.879 113.36C965.279 114.06 965.439 114.76 965.379 115.48C965.279 116.58 964.759 117.5 963.819 118.22C962.879 118.94 961.819 119.26 960.599 119.16C958.899 119.06 957.419 117.96 956.719 116.44L958.299 115.58C958.719 116.52 959.719 117.3 960.739 117.38H960.719C961.459 117.42 962.099 117.24 962.659 116.82C963.239 116.4 963.539 115.86 963.559 115.24C963.579 114.62 963.319 114.06 962.819 113.6C962.319 113.14 961.739 112.9 961.039 112.9H959.559V111.16H961.039C961.939 111.18 962.679 110.54 962.839 109.66C962.939 109.12 962.859 108.66 962.619 108.32C962.319 107.86 961.799 107.6 961.099 107.56C960.159 107.48 959.399 107.88 958.819 108.74ZM876.88 149V135.22H882.38C883.74 135.22 884.76 135.64 885.44 136.48C886.14 137.32 886.48 138.34 886.48 139.54C886.48 140.74 886.14 141.76 885.44 142.6C884.76 143.42 883.74 143.84 882.38 143.84H878.76V149H876.88ZM882.36 136.96H878.76V142.1H882.26C883.84 142.1 884.62 140.96 884.62 139.54C884.62 138.12 883.86 136.96 882.36 136.96ZM890.352 145.6V149H888.532V139.66H890.352V141.76C890.812 140.22 891.672 139.46 892.952 139.46C893.692 139.46 894.232 139.58 894.572 139.82L894.292 141.52C893.852 141.3 893.392 141.2 892.912 141.2C891.212 141.2 890.352 142.96 890.352 145.6ZM897.388 143.6H903.188C902.968 142.06 901.868 141.1 900.348 141.1C898.768 141.1 897.608 142.06 897.388 143.6ZM904.988 144.3C904.988 144.64 904.988 144.88 904.968 145.02H897.388C897.608 146.56 898.808 147.56 900.408 147.56C901.548 147.56 902.588 147.02 903.088 146.12C903.268 146.18 903.528 146.3 903.888 146.44L904.648 146.72C903.868 148.32 902.208 149.2 900.348 149.2C898.988 149.2 897.848 148.74 896.928 147.84C896.028 146.94 895.568 145.76 895.568 144.3C895.568 142.84 896.028 141.68 896.928 140.8C897.848 139.9 898.988 139.46 900.348 139.46C901.688 139.46 902.808 139.9 903.668 140.8C904.548 141.68 904.988 142.84 904.988 144.3ZM912.017 145.02H913.877C913.897 145.64 914.177 146.22 914.737 146.72C915.297 147.22 915.997 147.46 916.837 147.46C918.497 147.46 919.437 146.58 919.617 145.44C919.717 144.08 918.717 143.3 917.277 142.98L915.497 142.54C913.257 141.96 912.137 140.76 912.137 138.94C912.137 137.8 912.577 136.88 913.457 136.16C914.337 135.42 915.377 135.06 916.597 135.06C917.877 135.06 918.937 135.44 919.777 136.18C920.617 136.92 921.037 137.88 921.037 139.1H919.177C919.177 137.74 918.097 136.84 916.577 136.84C915.877 136.84 915.277 137.04 914.757 137.42C914.257 137.8 913.997 138.3 913.997 138.92C913.997 139.88 914.657 140.52 915.957 140.84L917.757 141.28C920.377 141.94 921.697 143.44 921.437 145.6C921.317 146.64 920.837 147.5 920.017 148.18C919.197 148.86 918.137 149.2 916.837 149.2C915.457 149.2 914.317 148.78 913.397 147.96C912.477 147.12 912.017 146.14 912.017 145.02ZM933.161 149H931.361V147.56C930.741 148.6 929.441 149.2 928.081 149.2C926.761 149.2 925.641 148.74 924.721 147.84C923.801 146.94 923.341 145.76 923.341 144.32C923.341 142.86 923.801 141.7 924.721 140.8C925.641 139.9 926.761 139.46 928.081 139.46C929.441 139.46 930.781 140.04 931.361 141.06V139.66H933.161V149ZM931.341 144.3C931.341 143.36 931.021 142.6 930.401 142.06C929.781 141.52 929.061 141.24 928.241 141.24C927.381 141.24 926.641 141.52 926.061 142.1C925.481 142.66 925.201 143.4 925.201 144.3C925.201 145.2 925.501 145.96 926.081 146.54C926.661 147.12 927.381 147.42 928.241 147.42C929.101 147.42 929.841 147.14 930.441 146.58C931.041 146.02 931.341 145.26 931.341 144.3ZM936.208 149V134.58H938.028V149H936.208ZM942.271 143.6H948.071C947.851 142.06 946.751 141.1 945.231 141.1C943.651 141.1 942.491 142.06 942.271 143.6ZM949.871 144.3C949.871 144.64 949.871 144.88 949.851 145.02H942.271C942.491 146.56 943.691 147.56 945.291 147.56C946.431 147.56 947.471 147.02 947.971 146.12C948.151 146.18 948.411 146.3 948.771 146.44L949.531 146.72C948.751 148.32 947.091 149.2 945.231 149.2C943.871 149.2 942.731 148.74 941.811 147.84C940.911 146.94 940.451 145.76 940.451 144.3C940.451 142.84 940.911 141.68 941.811 140.8C942.731 139.9 943.871 139.46 945.231 139.46C946.571 139.46 947.691 139.9 948.551 140.8C949.431 141.68 949.871 142.84 949.871 144.3ZM957.059 149V148.2L962.359 141.78C962.999 141.04 963.319 140.32 963.319 139.64C963.319 138.42 962.299 137.58 960.999 137.58C959.799 137.58 958.819 138.36 958.639 139.64L956.899 139.22C957.079 138.18 957.539 137.34 958.299 136.72C959.059 136.1 959.959 135.78 960.999 135.78C962.159 135.78 963.139 136.14 963.919 136.86C964.699 137.58 965.099 138.5 965.099 139.64C965.099 140.82 964.619 141.94 963.679 143.02L960.139 147.2H965.119V149H957.059ZM876.88 179V165.22H882.38C883.74 165.22 884.76 165.64 885.44 166.48C886.14 167.32 886.48 168.34 886.48 169.54C886.48 170.74 886.14 171.76 885.44 172.6C884.76 173.42 883.74 173.84 882.38 173.84H878.76V179H876.88ZM882.36 166.96H878.76V172.1H882.26C883.84 172.1 884.62 170.96 884.62 169.54C884.62 168.12 883.86 166.96 882.36 166.96ZM890.352 175.6V179H888.532V169.66H890.352V171.76C890.812 170.22 891.672 169.46 892.952 169.46C893.692 169.46 894.232 169.58 894.572 169.82L894.292 171.52C893.852 171.3 893.392 171.2 892.912 171.2C891.212 171.2 890.352 172.96 890.352 175.6ZM897.388 173.6H903.188C902.968 172.06 901.868 171.1 900.348 171.1C898.768 171.1 897.608 172.06 897.388 173.6ZM904.988 174.3C904.988 174.64 904.988 174.88 904.968 175.02H897.388C897.608 176.56 898.808 177.56 900.408 177.56C901.548 177.56 902.588 177.02 903.088 176.12C903.268 176.18 903.528 176.3 903.888 176.44L904.648 176.72C903.868 178.32 902.208 179.2 900.348 179.2C898.988 179.2 897.848 178.74 896.928 177.84C896.028 176.94 895.568 175.76 895.568 174.3C895.568 172.84 896.028 171.68 896.928 170.8C897.848 169.9 898.988 169.46 900.348 169.46C901.688 169.46 902.808 169.9 903.668 170.8C904.548 171.68 904.988 172.84 904.988 174.3ZM912.017 175.02H913.877C913.897 175.64 914.177 176.22 914.737 176.72C915.297 177.22 915.997 177.46 916.837 177.46C918.497 177.46 919.437 176.58 919.617 175.44C919.717 174.08 918.717 173.3 917.277 172.98L915.497 172.54C913.257 171.96 912.137 170.76 912.137 168.94C912.137 167.8 912.577 166.88 913.457 166.16C914.337 165.42 915.377 165.06 916.597 165.06C917.877 165.06 918.937 165.44 919.777 166.18C920.617 166.92 921.037 167.88 921.037 169.1H919.177C919.177 167.74 918.097 166.84 916.577 166.84C915.877 166.84 915.277 167.04 914.757 167.42C914.257 167.8 913.997 168.3 913.997 168.92C913.997 169.88 914.657 170.52 915.957 170.84L917.757 171.28C920.377 171.94 921.697 173.44 921.437 175.6C921.317 176.64 920.837 177.5 920.017 178.18C919.197 178.86 918.137 179.2 916.837 179.2C915.457 179.2 914.317 178.78 913.397 177.96C912.477 177.12 912.017 176.14 912.017 175.02ZM933.161 179H931.361V177.56C930.741 178.6 929.441 179.2 928.081 179.2C926.761 179.2 925.641 178.74 924.721 177.84C923.801 176.94 923.341 175.76 923.341 174.32C923.341 172.86 923.801 171.7 924.721 170.8C925.641 169.9 926.761 169.46 928.081 169.46C929.441 169.46 930.781 170.04 931.361 171.06V169.66H933.161V179ZM931.341 174.3C931.341 173.36 931.021 172.6 930.401 172.06C929.781 171.52 929.061 171.24 928.241 171.24C927.381 171.24 926.641 171.52 926.061 172.1C925.481 172.66 925.201 173.4 925.201 174.3C925.201 175.2 925.501 175.96 926.081 176.54C926.661 177.12 927.381 177.42 928.241 177.42C929.101 177.42 929.841 177.14 930.441 176.58C931.041 176.02 931.341 175.26 931.341 174.3ZM936.208 179V164.58H938.028V179H936.208ZM942.271 173.6H948.071C947.851 172.06 946.751 171.1 945.231 171.1C943.651 171.1 942.491 172.06 942.271 173.6ZM949.871 174.3C949.871 174.64 949.871 174.88 949.851 175.02H942.271C942.491 176.56 943.691 177.56 945.291 177.56C946.431 177.56 947.471 177.02 947.971 176.12C948.151 176.18 948.411 176.3 948.771 176.44L949.531 176.72C948.751 178.32 947.091 179.2 945.231 179.2C943.871 179.2 942.731 178.74 941.811 177.84C940.911 176.94 940.451 175.76 940.451 174.3C940.451 172.84 940.911 171.68 941.811 170.8C942.731 169.9 943.871 169.46 945.231 169.46C946.571 169.46 947.691 169.9 948.551 170.8C949.431 171.68 949.871 172.84 949.871 174.3ZM960.619 179H958.819V168.22L956.699 168.96V167.24L960.619 165.82V179ZM876.04 205.02H877.9C877.92 205.64 878.2 206.22 878.76 206.72C879.32 207.22 880.02 207.46 880.86 207.46C882.52 207.46 883.46 206.58 883.64 205.44C883.74 204.08 882.74 203.3 881.3 202.98L879.52 202.54C877.28 201.96 876.16 200.76 876.16 198.94C876.16 197.8 876.6 196.88 877.48 196.16C878.36 195.42 879.4 195.06 880.62 195.06C881.9 195.06 882.96 195.44 883.8 196.18C884.64 196.92 885.06 197.88 885.06 199.1H883.2C883.2 197.74 882.12 196.84 880.6 196.84C879.9 196.84 879.3 197.04 878.78 197.42C878.28 197.8 878.02 198.3 878.02 198.92C878.02 199.88 878.68 200.52 879.98 200.84L881.78 201.28C884.4 201.94 885.72 203.44 885.46 205.6C885.34 206.64 884.86 207.5 884.04 208.18C883.22 208.86 882.16 209.2 880.86 209.2C879.48 209.2 878.34 208.78 877.42 207.96C876.5 207.12 876.04 206.14 876.04 205.02ZM890.407 196.14V199.66H892.387V201.2H890.407V209H888.587V201.2H886.907V199.66H888.587V196.14H890.407ZM896.27 205.6V209H894.45V199.66H896.27V201.76C896.73 200.22 897.59 199.46 898.87 199.46C899.61 199.46 900.15 199.58 900.49 199.82L900.21 201.52C899.77 201.3 899.31 201.2 898.83 201.2C897.13 201.2 896.27 202.96 896.27 205.6ZM911.306 209H909.506V207.56C908.886 208.6 907.586 209.2 906.226 209.2C904.906 209.2 903.786 208.74 902.866 207.84C901.946 206.94 901.486 205.76 901.486 204.32C901.486 202.86 901.946 201.7 902.866 200.8C903.786 199.9 904.906 199.46 906.226 199.46C907.586 199.46 908.926 200.04 909.506 201.06V199.66H911.306V209ZM909.486 204.3C909.486 203.36 909.166 202.6 908.546 202.06C907.926 201.52 907.206 201.24 906.386 201.24C905.526 201.24 904.786 201.52 904.206 202.1C903.626 202.66 903.346 203.4 903.346 204.3C903.346 205.2 903.646 205.96 904.226 206.54C904.806 207.12 905.526 207.42 906.386 207.42C907.246 207.42 907.986 207.14 908.586 206.58C909.186 206.02 909.486 205.26 909.486 204.3ZM916.872 196.14V199.66H918.852V201.2H916.872V209H915.052V201.2H913.372V199.66H915.052V196.14H916.872ZM921.978 203.6H927.778C927.558 202.06 926.458 201.1 924.938 201.1C923.358 201.1 922.198 202.06 921.978 203.6ZM929.578 204.3C929.578 204.64 929.578 204.88 929.558 205.02H921.978C922.198 206.56 923.398 207.56 924.998 207.56C926.138 207.56 927.178 207.02 927.678 206.12C927.858 206.18 928.118 206.3 928.478 206.44L929.238 206.72C928.458 208.32 926.798 209.2 924.938 209.2C923.578 209.2 922.438 208.74 921.518 207.84C920.618 206.94 920.158 205.76 920.158 204.3C920.158 202.84 920.618 201.68 921.518 200.8C922.438 199.9 923.578 199.46 924.938 199.46C926.278 199.46 927.398 199.9 928.258 200.8C929.138 201.68 929.578 202.84 929.578 204.3ZM932.571 210.72L933.291 210.34C933.831 211.36 934.931 211.94 935.991 211.94C938.211 211.94 939.311 210.52 939.311 207.7C939.311 207.64 939.291 207.54 939.291 207.48C938.751 208.54 937.371 209.2 936.011 209.2C934.691 209.2 933.571 208.76 932.651 207.86C931.731 206.96 931.271 205.8 931.271 204.36C931.271 202.9 931.731 201.72 932.651 200.82C933.571 199.92 934.691 199.46 936.011 199.46C937.371 199.46 938.711 200.08 939.291 201.12V199.66H941.091V207.58C941.091 211.64 939.391 213.66 935.991 213.66C934.231 213.66 932.651 212.74 931.771 211.14C931.871 211.1 932.131 210.96 932.571 210.72ZM939.271 204.34C939.271 203.38 938.971 202.62 938.371 202.08C937.771 201.52 937.031 201.24 936.171 201.24C935.311 201.24 934.591 201.54 934.011 202.12C933.431 202.7 933.131 203.44 933.131 204.34C933.131 205.28 933.411 206.02 933.991 206.58C934.571 207.14 935.311 207.42 936.171 207.42C936.991 207.42 937.711 207.14 938.331 206.58C938.951 206.02 939.271 205.28 939.271 204.34ZM945.918 209H944.118V199.66H945.918V209ZM944.118 197.06C943.638 196.6 943.638 195.84 944.118 195.38C944.618 194.92 945.418 194.92 945.898 195.38C946.398 195.84 946.398 196.6 945.898 197.06C945.418 197.52 944.618 197.52 944.118 197.06ZM953.281 199.46C954.761 199.46 955.961 199.96 956.881 200.96L955.501 202.12C954.921 201.54 954.181 201.24 953.281 201.24C952.421 201.24 951.681 201.52 951.061 202.1C950.441 202.66 950.141 203.4 950.141 204.3C950.141 205.22 950.441 205.98 951.061 206.56C951.681 207.14 952.421 207.44 953.281 207.44C954.181 207.44 954.921 207.14 955.501 206.52L956.901 207.68C955.961 208.7 954.761 209.2 953.281 209.2C951.901 209.2 950.741 208.74 949.781 207.84C948.821 206.92 948.341 205.74 948.341 204.3C948.341 202.86 948.821 201.7 949.781 200.8C950.741 199.9 951.901 199.46 953.281 199.46ZM970.531 203.78L974.211 209H971.951L968.391 203.84H966.631V209H964.751V195.22H970.051C971.411 195.22 972.431 195.64 973.111 196.48C973.791 197.32 974.131 198.34 974.131 199.54C974.131 200.66 973.831 201.62 973.231 202.42C972.651 203.22 971.751 203.68 970.531 203.78ZM969.991 196.96H966.631V202.1H969.911C971.491 202.1 972.211 200.98 972.211 199.54C972.211 198.12 971.491 196.96 969.991 196.96ZM975.724 204.3C975.724 202.86 976.184 201.7 977.124 200.8C978.064 199.9 979.224 199.46 980.604 199.46C981.984 199.46 983.144 199.9 984.084 200.8C985.024 201.7 985.504 202.86 985.504 204.3C985.504 205.74 985.024 206.92 984.064 207.84C983.124 208.74 981.964 209.2 980.604 209.2C979.244 209.2 978.084 208.74 977.144 207.84C976.204 206.94 975.724 205.76 975.724 204.3ZM983.684 204.3C983.684 203.38 983.384 202.64 982.784 202.08C982.204 201.52 981.464 201.24 980.604 201.24C979.744 201.24 979.004 201.52 978.404 202.08C977.824 202.64 977.524 203.38 977.524 204.3C977.524 205.24 977.824 206 978.404 206.58C979.004 207.16 979.744 207.44 980.604 207.44C981.464 207.44 982.204 207.16 982.784 206.58C983.384 206 983.684 205.24 983.684 204.3ZM994.326 204.7V199.66H996.146V209H994.326V207.6C993.786 208.64 992.566 209.2 991.426 209.2C989.106 209.2 987.806 207.7 987.826 205.06V199.66H989.646V204.94C989.646 206.48 990.406 207.42 991.686 207.42C993.186 207.42 994.326 206.56 994.326 204.7ZM1000.98 203.96V209H999.157V199.66H1000.98V201.06C1001.52 200.02 1002.76 199.46 1003.9 199.46C1006.22 199.46 1007.5 200.96 1007.5 203.6V209H1005.68V203.72C1005.68 202.18 1004.9 201.24 1003.62 201.24C1002.16 201.24 1000.98 202.12 1000.98 203.96ZM1019.63 209H1017.81V207.56C1017.19 208.6 1015.89 209.2 1014.53 209.2C1013.21 209.2 1012.09 208.74 1011.17 207.84C1010.27 206.94 1009.81 205.76 1009.81 204.32C1009.81 202.86 1010.27 201.7 1011.17 200.8C1012.07 199.9 1013.19 199.46 1014.51 199.46C1015.93 199.46 1017.19 200.02 1017.81 201.06V194.58H1019.63V209ZM1014.69 201.24C1013.83 201.24 1013.11 201.52 1012.53 202.1C1011.95 202.66 1011.67 203.4 1011.67 204.3C1011.67 205.2 1011.95 205.96 1012.53 206.54C1013.11 207.12 1013.83 207.42 1014.69 207.42C1015.55 207.42 1016.27 207.14 1016.87 206.58C1017.49 206 1017.79 205.24 1017.79 204.3C1017.79 203.36 1017.47 202.6 1016.85 202.06C1016.23 201.52 1015.51 201.24 1014.69 201.24ZM875.56 226.98V225.22H885.8V226.98H881.62V239H879.74V226.98H875.56ZM887.271 233.6H893.071C892.851 232.06 891.751 231.1 890.231 231.1C888.651 231.1 887.491 232.06 887.271 233.6ZM894.871 234.3C894.871 234.64 894.871 234.88 894.851 235.02H887.271C887.491 236.56 888.691 237.56 890.291 237.56C891.431 237.56 892.471 237.02 892.971 236.12C893.151 236.18 893.411 236.3 893.771 236.44L894.531 236.72C893.751 238.32 892.091 239.2 890.231 239.2C888.871 239.2 887.731 238.74 886.811 237.84C885.911 236.94 885.451 235.76 885.451 234.3C885.451 232.84 885.911 231.68 886.811 230.8C887.731 229.9 888.871 229.46 890.231 229.46C891.571 229.46 892.691 229.9 893.551 230.8C894.431 231.68 894.871 232.84 894.871 234.3ZM906.384 239H904.584V237.56C903.964 238.6 902.664 239.2 901.304 239.2C899.984 239.2 898.864 238.74 897.944 237.84C897.024 236.94 896.564 235.76 896.564 234.32C896.564 232.86 897.024 231.7 897.944 230.8C898.864 229.9 899.984 229.46 901.304 229.46C902.664 229.46 904.004 230.04 904.584 231.06V229.66H906.384V239ZM904.564 234.3C904.564 233.36 904.244 232.6 903.624 232.06C903.004 231.52 902.284 231.24 901.464 231.24C900.604 231.24 899.864 231.52 899.284 232.1C898.704 232.66 898.424 233.4 898.424 234.3C898.424 235.2 898.724 235.96 899.304 236.54C899.884 237.12 900.604 237.42 901.464 237.42C902.324 237.42 903.064 237.14 903.664 236.58C904.264 236.02 904.564 235.26 904.564 234.3ZM920.17 231.24C918.65 231.22 917.69 232.36 917.69 233.96V239H915.87V233.7C915.87 232.18 915.07 231.24 913.85 231.24C912.41 231.24 911.25 232.14 911.25 233.96V239H909.43V229.66H911.25V231.06C911.71 230.12 912.89 229.58 913.83 229.5C914.19 229.48 914.53 229.5 914.85 229.56C916.03 229.74 916.85 230.36 917.29 231.38C917.95 230.1 919.03 229.46 920.53 229.46C922.85 229.46 924.13 230.96 924.13 233.6V239H922.31V233.72C922.31 232.18 921.51 231.24 920.17 231.24ZM879.48 255.22L884.34 265.34L889.2 255.22H890.9L892.58 269H890.74L889.48 258.64L885.18 267.48H883.54L879.2 258.64L877.94 269H876.1L877.78 255.22H879.48ZM904.275 269H902.475V267.56C901.855 268.6 900.555 269.2 899.195 269.2C897.875 269.2 896.755 268.74 895.835 267.84C894.915 266.94 894.455 265.76 894.455 264.32C894.455 262.86 894.915 261.7 895.835 260.8C896.755 259.9 897.875 259.46 899.195 259.46C900.555 259.46 901.895 260.04 902.475 261.06V259.66H904.275V269ZM902.455 264.3C902.455 263.36 902.135 262.6 901.515 262.06C900.895 261.52 900.175 261.24 899.355 261.24C898.495 261.24 897.755 261.52 897.175 262.1C896.595 262.66 896.315 263.4 896.315 264.3C896.315 265.2 896.615 265.96 897.195 266.54C897.775 267.12 898.495 267.42 899.355 267.42C900.215 267.42 900.955 267.14 901.555 266.58C902.155 266.02 902.455 265.26 902.455 264.3ZM909.141 265.6V269H907.321V259.66H909.141V261.76C909.601 260.22 910.461 259.46 911.741 259.46C912.481 259.46 913.021 259.58 913.361 259.82L913.081 261.52C912.641 261.3 912.181 261.2 911.701 261.2C910.001 261.2 909.141 262.96 909.141 265.6ZM921.271 269L917.011 264.44V269H915.211V254.58H917.011V262.92L920.231 259.66H922.711L918.711 263.7L923.671 269H921.271ZM925.865 263.6H931.665C931.445 262.06 930.345 261.1 928.825 261.1C927.245 261.1 926.085 262.06 925.865 263.6ZM933.465 264.3C933.465 264.64 933.465 264.88 933.445 265.02H925.865C926.085 266.56 927.285 267.56 928.885 267.56C930.025 267.56 931.065 267.02 931.565 266.12C931.745 266.18 932.005 266.3 932.365 266.44L933.125 266.72C932.345 268.32 930.685 269.2 928.825 269.2C927.465 269.2 926.325 268.74 925.405 267.84C924.505 266.94 924.045 265.76 924.045 264.3C924.045 262.84 924.505 261.68 925.405 260.8C926.325 259.9 927.465 259.46 928.825 259.46C930.165 259.46 931.285 259.9 932.145 260.8C933.025 261.68 933.465 262.84 933.465 264.3ZM938.298 256.14V259.66H940.278V261.2H938.298V269H936.478V261.2H934.798V259.66H936.478V256.14H938.298ZM944.14 269H942.34V259.66H944.14V269ZM942.34 257.06C941.86 256.6 941.86 255.84 942.34 255.38C942.84 254.92 943.64 254.92 944.12 255.38C944.62 255.84 944.62 256.6 944.12 257.06C943.64 257.52 942.84 257.52 942.34 257.06ZM949.004 263.96V269H947.184V259.66H949.004V261.06C949.544 260.02 950.784 259.46 951.924 259.46C954.244 259.46 955.524 260.96 955.524 263.6V269H953.704V263.72C953.704 262.18 952.924 261.24 951.644 261.24C950.184 261.24 949.004 262.12 949.004 263.96ZM959.134 270.72L959.854 270.34C960.394 271.36 961.494 271.94 962.554 271.94C964.774 271.94 965.874 270.52 965.874 267.7C965.874 267.64 965.854 267.54 965.854 267.48C965.314 268.54 963.934 269.2 962.574 269.2C961.254 269.2 960.134 268.76 959.214 267.86C958.294 266.96 957.834 265.8 957.834 264.36C957.834 262.9 958.294 261.72 959.214 260.82C960.134 259.92 961.254 259.46 962.574 259.46C963.934 259.46 965.274 260.08 965.854 261.12V259.66H967.654V267.58C967.654 271.64 965.954 273.66 962.554 273.66C960.794 273.66 959.214 272.74 958.334 271.14C958.434 271.1 958.694 270.96 959.134 270.72ZM965.834 264.34C965.834 263.38 965.534 262.62 964.934 262.08C964.334 261.52 963.594 261.24 962.734 261.24C961.874 261.24 961.154 261.54 960.574 262.12C959.994 262.7 959.694 263.44 959.694 264.34C959.694 265.28 959.974 266.02 960.554 266.58C961.134 267.14 961.874 267.42 962.734 267.42C963.554 267.42 964.274 267.14 964.894 266.58C965.514 266.02 965.834 265.28 965.834 264.34ZM882.66 293.78L886.34 299H884.08L880.52 293.84H878.76V299H876.88V285.22H882.18C883.54 285.22 884.56 285.64 885.24 286.48C885.92 287.32 886.26 288.34 886.26 289.54C886.26 290.66 885.96 291.62 885.36 292.42C884.78 293.22 883.88 293.68 882.66 293.78ZM882.12 286.96H878.76V292.1H882.04C883.62 292.1 884.34 290.98 884.34 289.54C884.34 288.12 883.62 286.96 882.12 286.96ZM889.673 293.6H895.473C895.253 292.06 894.153 291.1 892.633 291.1C891.053 291.1 889.893 292.06 889.673 293.6ZM897.273 294.3C897.273 294.64 897.273 294.88 897.253 295.02H889.673C889.893 296.56 891.093 297.56 892.693 297.56C893.833 297.56 894.873 297.02 895.373 296.12C895.553 296.18 895.813 296.3 896.173 296.44L896.933 296.72C896.153 298.32 894.493 299.2 892.633 299.2C891.273 299.2 890.133 298.74 889.213 297.84C888.313 296.94 887.853 295.76 887.853 294.3C887.853 292.84 888.313 291.68 889.213 290.8C890.133 289.9 891.273 289.46 892.633 289.46C893.973 289.46 895.093 289.9 895.953 290.8C896.833 291.68 897.273 292.84 897.273 294.3ZM902.986 295.18L901.706 294.88C899.926 294.4 899.046 293.5 899.206 291.84C899.266 291.16 899.626 290.6 900.246 290.14C900.866 289.68 901.606 289.46 902.446 289.46C904.186 289.46 905.526 290.32 905.686 292.1H903.946C903.846 291.44 903.226 291.04 902.486 291.04C901.786 291.04 901.226 291.38 901.086 291.88C901.006 292.18 901.006 292.42 901.106 292.62C901.246 292.92 901.626 293.16 902.206 293.34L903.586 293.68C905.206 294.08 906.006 294.98 906.006 296.4C906.006 297.24 905.646 297.92 904.946 298.44C904.246 298.94 903.406 299.2 902.386 299.2C901.486 299.2 900.686 298.92 899.986 298.38C899.286 297.84 898.926 297.1 898.906 296.2H900.566C900.646 296.7 900.906 297.04 901.326 297.26C901.746 297.52 902.226 297.62 902.806 297.58C903.666 297.52 904.206 297.02 904.226 296.36C904.246 295.72 903.766 295.36 902.986 295.18ZM909.575 293.6H915.375C915.155 292.06 914.055 291.1 912.535 291.1C910.955 291.1 909.795 292.06 909.575 293.6ZM917.175 294.3C917.175 294.64 917.175 294.88 917.155 295.02H909.575C909.795 296.56 910.995 297.56 912.595 297.56C913.735 297.56 914.775 297.02 915.275 296.12C915.455 296.18 915.715 296.3 916.075 296.44L916.835 296.72C916.055 298.32 914.395 299.2 912.535 299.2C911.175 299.2 910.035 298.74 909.115 297.84C908.215 296.94 907.755 295.76 907.755 294.3C907.755 292.84 908.215 291.68 909.115 290.8C910.035 289.9 911.175 289.46 912.535 289.46C913.875 289.46 914.995 289.9 915.855 290.8C916.735 291.68 917.175 292.84 917.175 294.3ZM921.309 295.6V299H919.489V289.66H921.309V291.76C921.769 290.22 922.629 289.46 923.909 289.46C924.649 289.46 925.189 289.58 925.529 289.82L925.249 291.52C924.809 291.3 924.349 291.2 923.869 291.2C922.169 291.2 921.309 292.96 921.309 295.6ZM930.079 299L926.199 289.66H928.119L930.959 296.68L933.779 289.66H935.719L931.819 299H931.839H930.079ZM938.56 293.6H944.36C944.14 292.06 943.04 291.1 941.52 291.1C939.94 291.1 938.78 292.06 938.56 293.6ZM946.16 294.3C946.16 294.64 946.16 294.88 946.14 295.02H938.56C938.78 296.56 939.98 297.56 941.58 297.56C942.72 297.56 943.76 297.02 944.26 296.12C944.44 296.18 944.7 296.3 945.06 296.44L945.82 296.72C945.04 298.32 943.38 299.2 941.52 299.2C940.16 299.2 939.02 298.74 938.1 297.84C937.2 296.94 936.74 295.76 936.74 294.3C936.74 292.84 937.2 291.68 938.1 290.8C939.02 289.9 940.16 289.46 941.52 289.46C942.86 289.46 943.98 289.9 944.84 290.8C945.72 291.68 946.16 292.84 946.16 294.3ZM954.028 299V285.22H959.528C960.888 285.22 961.908 285.64 962.588 286.48C963.288 287.32 963.628 288.34 963.628 289.54C963.628 290.74 963.288 291.76 962.588 292.6C961.908 293.42 960.888 293.84 959.528 293.84H955.908V299H954.028ZM959.508 286.96H955.908V292.1H959.408C960.988 292.1 961.768 290.96 961.768 289.54C961.768 288.12 961.008 286.96 959.508 286.96ZM964.826 294.3C964.826 292.86 965.286 291.7 966.226 290.8C967.166 289.9 968.326 289.46 969.706 289.46C971.086 289.46 972.246 289.9 973.186 290.8C974.126 291.7 974.606 292.86 974.606 294.3C974.606 295.74 974.126 296.92 973.166 297.84C972.226 298.74 971.066 299.2 969.706 299.2C968.346 299.2 967.186 298.74 966.246 297.84C965.306 296.94 964.826 295.76 964.826 294.3ZM972.786 294.3C972.786 293.38 972.486 292.64 971.886 292.08C971.306 291.52 970.566 291.24 969.706 291.24C968.846 291.24 968.106 291.52 967.506 292.08C966.926 292.64 966.626 293.38 966.626 294.3C966.626 295.24 966.926 296 967.506 296.58C968.106 297.16 968.846 297.44 969.706 297.44C970.566 297.44 971.306 297.16 971.886 296.58C972.486 296 972.786 295.24 972.786 294.3ZM976.408 294.3C976.408 292.86 976.868 291.7 977.808 290.8C978.748 289.9 979.908 289.46 981.288 289.46C982.668 289.46 983.828 289.9 984.768 290.8C985.708 291.7 986.188 292.86 986.188 294.3C986.188 295.74 985.708 296.92 984.748 297.84C983.808 298.74 982.648 299.2 981.288 299.2C979.928 299.2 978.768 298.74 977.828 297.84C976.888 296.94 976.408 295.76 976.408 294.3ZM984.368 294.3C984.368 293.38 984.068 292.64 983.468 292.08C982.888 291.52 982.148 291.24 981.288 291.24C980.428 291.24 979.688 291.52 979.088 292.08C978.508 292.64 978.208 293.38 978.208 294.3C978.208 295.24 978.508 296 979.088 296.58C979.688 297.16 980.428 297.44 981.288 297.44C982.148 297.44 982.888 297.16 983.468 296.58C984.068 296 984.368 295.24 984.368 294.3ZM988.61 299V284.58H990.43V299H988.61ZM876.88 329V315.22H878.74V327.26H884.36V329H876.88ZM888.222 329H886.422V319.66H888.222V329ZM886.422 317.06C885.942 316.6 885.942 315.84 886.422 315.38C886.922 314.92 887.722 314.92 888.202 315.38C888.702 315.84 888.702 316.6 888.202 317.06C887.722 317.52 886.922 317.52 886.422 317.06ZM898.586 321.12V319.66H900.406V333.54H898.586V327.6C898.006 328.64 896.706 329.2 895.326 329.2C894.006 329.2 892.886 328.76 891.986 327.86C891.086 326.96 890.646 325.8 890.646 324.36C890.646 322.9 891.106 321.72 892.006 320.82C892.906 319.92 894.026 319.46 895.326 319.46C896.666 319.46 898.006 320.08 898.586 321.12ZM898.586 324.38C898.586 323.42 898.286 322.66 897.686 322.1C897.106 321.52 896.366 321.24 895.506 321.24C894.646 321.24 893.946 321.54 893.366 322.12C892.786 322.7 892.506 323.46 892.506 324.38C892.506 325.28 892.786 326.02 893.366 326.58C893.946 327.14 894.646 327.42 895.506 327.42C896.326 327.42 897.026 327.16 897.646 326.62C898.266 326.08 898.586 325.32 898.586 324.38ZM909.854 324.7V319.66H911.674V329H909.854V327.6C909.314 328.64 908.094 329.2 906.954 329.2C904.634 329.2 903.334 327.7 903.354 325.06V319.66H905.174V324.94C905.174 326.48 905.934 327.42 907.214 327.42C908.714 327.42 909.854 326.56 909.854 324.7ZM916.484 329H914.684V319.66H916.484V329ZM914.684 317.06C914.204 316.6 914.204 315.84 914.684 315.38C915.184 314.92 915.984 314.92 916.464 315.38C916.964 315.84 916.964 316.6 916.464 317.06C915.984 317.52 915.184 317.52 914.684 317.06ZM928.728 329H926.908V327.56C926.288 328.6 924.988 329.2 923.628 329.2C922.308 329.2 921.188 328.74 920.268 327.84C919.368 326.94 918.908 325.76 918.908 324.32C918.908 322.86 919.368 321.7 920.268 320.8C921.168 319.9 922.288 319.46 923.608 319.46C925.028 319.46 926.288 320.02 926.908 321.06V314.58H928.728V329ZM923.788 321.24C922.928 321.24 922.208 321.52 921.628 322.1C921.048 322.66 920.768 323.4 920.768 324.3C920.768 325.2 921.048 325.96 921.628 326.54C922.208 327.12 922.928 327.42 923.788 327.42C924.648 327.42 925.368 327.14 925.968 326.58C926.588 326 926.888 325.24 926.888 324.3C926.888 323.36 926.568 322.6 925.948 322.06C925.328 321.52 924.608 321.24 923.788 321.24ZM933.574 329H931.774V319.66H933.574V329ZM931.774 317.06C931.294 316.6 931.294 315.84 931.774 315.38C932.274 314.92 933.074 314.92 933.554 315.38C934.054 315.84 934.054 316.6 933.554 317.06C933.074 317.52 932.274 317.52 931.774 317.06ZM939.138 316.14V319.66H941.118V321.2H939.138V329H937.318V321.2H935.638V319.66H937.318V316.14H939.138ZM951.5 319.66L945.7 333.54H943.8L945.76 328.72L942.02 319.66H943.96L946.76 326.42L949.56 319.66H951.5ZM886.78 355.64L888.18 356.82C886.92 358.32 885.06 359.2 882.96 359.2C881.02 359.2 879.36 358.52 878 357.14C876.66 355.76 875.98 354.1 875.98 352.14C875.98 350.18 876.66 348.52 878 347.14C879.36 345.76 881.02 345.06 882.96 345.06C885.04 345.06 886.88 345.94 888.14 347.4L886.74 348.56C885.7 347.42 884.44 346.86 882.96 346.86C881.52 346.86 880.3 347.38 879.32 348.4C878.34 349.42 877.84 350.68 877.84 352.14C877.84 353.6 878.34 354.86 879.32 355.88C880.3 356.9 881.52 357.4 882.96 357.4C884.5 357.4 885.78 356.82 886.78 355.64ZM889.552 354.3C889.552 352.86 890.012 351.7 890.952 350.8C891.892 349.9 893.052 349.46 894.432 349.46C895.812 349.46 896.972 349.9 897.912 350.8C898.852 351.7 899.332 352.86 899.332 354.3C899.332 355.74 898.852 356.92 897.892 357.84C896.952 358.74 895.792 359.2 894.432 359.2C893.072 359.2 891.912 358.74 890.972 357.84C890.032 356.94 889.552 355.76 889.552 354.3ZM897.512 354.3C897.512 353.38 897.212 352.64 896.612 352.08C896.032 351.52 895.292 351.24 894.432 351.24C893.572 351.24 892.832 351.52 892.232 352.08C891.652 352.64 891.352 353.38 891.352 354.3C891.352 355.24 891.652 356 892.232 356.58C892.832 357.16 893.572 357.44 894.432 357.44C895.292 357.44 896.032 357.16 896.612 356.58C897.212 356 897.512 355.24 897.512 354.3ZM912.494 351.24C910.974 351.22 910.014 352.36 910.014 353.96V359H908.194V353.7C908.194 352.18 907.394 351.24 906.174 351.24C904.734 351.24 903.574 352.14 903.574 353.96V359H901.754V349.66H903.574V351.06C904.034 350.12 905.214 349.58 906.154 349.5C906.514 349.48 906.854 349.5 907.174 349.56C908.354 349.74 909.174 350.36 909.614 351.38C910.274 350.1 911.354 349.46 912.854 349.46C915.174 349.46 916.454 350.96 916.454 353.6V359H914.634V353.72C914.634 352.18 913.834 351.24 912.494 351.24ZM930.112 351.24C928.592 351.22 927.632 352.36 927.632 353.96V359H925.812V353.7C925.812 352.18 925.012 351.24 923.792 351.24C922.352 351.24 921.192 352.14 921.192 353.96V359H919.372V349.66H921.192V351.06C921.652 350.12 922.832 349.58 923.772 349.5C924.132 349.48 924.472 349.5 924.792 349.56C925.972 349.74 926.792 350.36 927.232 351.38C927.892 350.1 928.972 349.46 930.472 349.46C932.792 349.46 934.072 350.96 934.072 353.6V359H932.252V353.72C932.252 352.18 931.452 351.24 930.112 351.24ZM938.789 359H936.989V349.66H938.789V359ZM936.989 347.06C936.509 346.6 936.509 345.84 936.989 345.38C937.489 344.92 938.289 344.92 938.769 345.38C939.269 345.84 939.269 346.6 938.769 347.06C938.289 347.52 937.489 347.52 936.989 347.06ZM945.233 355.18L943.953 354.88C942.173 354.4 941.293 353.5 941.453 351.84C941.513 351.16 941.873 350.6 942.493 350.14C943.113 349.68 943.853 349.46 944.693 349.46C946.433 349.46 947.773 350.32 947.933 352.1H946.192C946.093 351.44 945.473 351.04 944.733 351.04C944.033 351.04 943.473 351.38 943.333 351.88C943.252 352.18 943.252 352.42 943.353 352.62C943.493 352.92 943.873 353.16 944.453 353.34L945.833 353.68C947.453 354.08 948.253 354.98 948.253 356.4C948.253 357.24 947.893 357.92 947.193 358.44C946.493 358.94 945.653 359.2 944.633 359.2C943.733 359.2 942.933 358.92 942.233 358.38C941.533 357.84 941.173 357.1 941.153 356.2H942.812C942.893 356.7 943.153 357.04 943.573 357.26C943.993 357.52 944.473 357.62 945.053 357.58C945.913 357.52 946.453 357.02 946.473 356.36C946.493 355.72 946.013 355.36 945.233 355.18ZM954.022 355.18L952.742 354.88C950.962 354.4 950.082 353.5 950.242 351.84C950.302 351.16 950.662 350.6 951.282 350.14C951.902 349.68 952.642 349.46 953.482 349.46C955.222 349.46 956.562 350.32 956.722 352.1H954.982C954.882 351.44 954.262 351.04 953.522 351.04C952.822 351.04 952.262 351.38 952.122 351.88C952.042 352.18 952.042 352.42 952.142 352.62C952.282 352.92 952.662 353.16 953.242 353.34L954.622 353.68C956.242 354.08 957.042 354.98 957.042 356.4C957.042 357.24 956.682 357.92 955.982 358.44C955.282 358.94 954.442 359.2 953.422 359.2C952.522 359.2 951.722 358.92 951.022 358.38C950.322 357.84 949.962 357.1 949.942 356.2H951.602C951.682 356.7 951.942 357.04 952.362 357.26C952.782 357.52 953.262 357.62 953.842 357.58C954.702 357.52 955.242 357.02 955.262 356.36C955.282 355.72 954.802 355.36 954.022 355.18ZM961.211 359H959.411V349.66H961.211V359ZM959.411 347.06C958.931 346.6 958.931 345.84 959.411 345.38C959.911 344.92 960.711 344.92 961.191 345.38C961.691 345.84 961.691 346.6 961.191 347.06C960.711 347.52 959.911 347.52 959.411 347.06ZM963.634 354.3C963.634 352.86 964.094 351.7 965.034 350.8C965.974 349.9 967.134 349.46 968.514 349.46C969.894 349.46 971.054 349.9 971.994 350.8C972.934 351.7 973.414 352.86 973.414 354.3C973.414 355.74 972.934 356.92 971.974 357.84C971.034 358.74 969.874 359.2 968.514 359.2C967.154 359.2 965.994 358.74 965.054 357.84C964.114 356.94 963.634 355.76 963.634 354.3ZM971.594 354.3C971.594 353.38 971.294 352.64 970.694 352.08C970.114 351.52 969.374 351.24 968.514 351.24C967.654 351.24 966.914 351.52 966.314 352.08C965.734 352.64 965.434 353.38 965.434 354.3C965.434 355.24 965.734 356 966.314 356.58C966.914 357.16 967.654 357.44 968.514 357.44C969.374 357.44 970.114 357.16 970.694 356.58C971.294 356 971.594 355.24 971.594 354.3ZM977.656 353.96V359H975.836V349.66H977.656V351.06C978.196 350.02 979.436 349.46 980.576 349.46C982.896 349.46 984.176 350.96 984.176 353.6V359H982.356V353.72C982.356 352.18 981.576 351.24 980.296 351.24C978.836 351.24 977.656 352.12 977.656 353.96ZM990.506 355.18L989.226 354.88C987.446 354.4 986.566 353.5 986.726 351.84C986.786 351.16 987.146 350.6 987.766 350.14C988.386 349.68 989.126 349.46 989.966 349.46C991.706 349.46 993.046 350.32 993.206 352.1H991.466C991.366 351.44 990.746 351.04 990.006 351.04C989.306 351.04 988.746 351.38 988.606 351.88C988.526 352.18 988.526 352.42 988.626 352.62C988.766 352.92 989.146 353.16 989.726 353.34L991.106 353.68C992.726 354.08 993.526 354.98 993.526 356.4C993.526 357.24 993.166 357.92 992.466 358.44C991.766 358.94 990.926 359.2 989.906 359.2C989.006 359.2 988.206 358.92 987.506 358.38C986.806 357.84 986.446 357.1 986.426 356.2H988.086C988.166 356.7 988.426 357.04 988.846 357.26C989.266 357.52 989.746 357.62 990.326 357.58C991.186 357.52 991.726 357.02 991.746 356.36C991.766 355.72 991.286 355.36 990.506 355.18Z" fill="white"/>
    <path d="M1239.83 78.12L1244.87 75.72V89H1242.07V79.62L1239.83 80.58V78.12ZM1254.69 84.38C1254.69 82.96 1253.71 82.24 1252.27 82.24C1251.25 82.24 1250.05 82.64 1249.39 83.68L1247.85 82.88L1248.93 75.9H1256.61V78.46H1251.15L1250.81 80.58C1251.31 80.12 1252.11 79.9 1253.21 79.9C1254.43 79.9 1255.45 80.3 1256.27 81.08C1257.09 81.86 1257.49 82.96 1257.49 84.38C1257.49 85.8 1256.99 86.96 1256.01 87.86C1255.03 88.76 1253.71 89.2 1252.09 89.2C1250.27 89.2 1248.47 88.14 1247.45 86.56L1249.81 85.04C1250.31 85.84 1251.27 86.4 1252.09 86.4C1253.59 86.4 1254.69 85.48 1254.69 84.38ZM1262.95 87.52C1262.95 88.48 1262.17 89.2 1261.21 89.2C1260.25 89.2 1259.49 88.48 1259.49 87.52C1259.49 86.56 1260.25 85.86 1261.21 85.86C1262.17 85.86 1262.95 86.58 1262.95 87.52ZM1265.17 82.44C1265.17 77.9 1266.81 75.64 1270.07 75.64C1271.91 75.64 1273.23 76.36 1273.93 77.64C1274.65 78.92 1274.93 80.44 1274.93 82.44C1274.93 84.44 1274.65 85.92 1273.93 87.2C1273.23 88.48 1271.91 89.2 1270.07 89.2C1266.81 89.2 1265.17 86.94 1265.17 82.44ZM1267.97 82.44C1267.97 85.14 1268.67 86.48 1270.07 86.48C1271.45 86.48 1272.13 85.14 1272.13 82.44C1272.13 79.72 1271.45 78.36 1270.07 78.36C1268.67 78.36 1267.97 79.72 1267.97 82.44ZM1277.24 82.44C1277.24 77.9 1278.88 75.64 1282.14 75.64C1283.98 75.64 1285.3 76.36 1286 77.64C1286.72 78.92 1287 80.44 1287 82.44C1287 84.44 1286.72 85.92 1286 87.2C1285.3 88.48 1283.98 89.2 1282.14 89.2C1278.88 89.2 1277.24 86.94 1277.24 82.44ZM1280.04 82.44C1280.04 85.14 1280.74 86.48 1282.14 86.48C1283.52 86.48 1284.2 85.14 1284.2 82.44C1284.2 79.72 1283.52 78.36 1282.14 78.36C1280.74 78.36 1280.04 79.72 1280.04 82.44ZM1298.93 75.9L1292.49 89H1291.11L1297.55 75.9H1298.93ZM1291.53 75.76C1292.27 75.76 1292.89 76.02 1293.41 76.54C1293.95 77.06 1294.21 77.7 1294.21 78.44C1294.21 79.18 1293.95 79.82 1293.43 80.34C1292.91 80.84 1292.27 81.1 1291.53 81.1C1290.79 81.1 1290.15 80.84 1289.63 80.34C1289.13 79.82 1288.87 79.18 1288.87 78.44C1288.87 77.7 1289.13 77.06 1289.63 76.54C1290.15 76.02 1290.79 75.76 1291.53 75.76ZM1291.53 79.48C1292.11 79.48 1292.59 79.02 1292.59 78.44C1292.59 77.86 1292.11 77.38 1291.53 77.38C1290.95 77.38 1290.49 77.86 1290.49 78.44C1290.49 79.02 1290.91 79.48 1291.53 79.48ZM1298.61 83.86C1299.35 83.86 1299.97 84.12 1300.49 84.66C1301.03 85.18 1301.29 85.8 1301.29 86.54C1301.29 87.28 1301.03 87.92 1300.51 88.44C1299.99 88.94 1299.35 89.2 1298.61 89.2C1297.87 89.2 1297.23 88.94 1296.71 88.44C1296.21 87.92 1295.95 87.28 1295.95 86.54C1295.95 85.8 1296.21 85.16 1296.71 84.64C1297.23 84.12 1297.87 83.86 1298.61 83.86ZM1297.57 86.54C1297.57 87.16 1297.99 87.58 1298.61 87.58C1299.53 87.58 1300.05 86.44 1299.35 85.8C1298.71 85.1 1297.57 85.62 1297.57 86.54ZM1254.69 114.38C1254.69 112.96 1253.71 112.24 1252.27 112.24C1251.25 112.24 1250.05 112.64 1249.39 113.68L1247.85 112.88L1248.93 105.9H1256.61V108.46H1251.15L1250.81 110.58C1251.31 110.12 1252.11 109.9 1253.21 109.9C1254.43 109.9 1255.45 110.3 1256.27 111.08C1257.09 111.86 1257.49 112.96 1257.49 114.38C1257.49 115.8 1256.99 116.96 1256.01 117.86C1255.03 118.76 1253.71 119.2 1252.09 119.2C1250.27 119.2 1248.47 118.14 1247.45 116.56L1249.81 115.04C1250.31 115.84 1251.27 116.4 1252.09 116.4C1253.59 116.4 1254.69 115.48 1254.69 114.38ZM1262.95 117.52C1262.95 118.48 1262.17 119.2 1261.21 119.2C1260.25 119.2 1259.49 118.48 1259.49 117.52C1259.49 116.56 1260.25 115.86 1261.21 115.86C1262.17 115.86 1262.95 116.58 1262.95 117.52ZM1265.17 112.44C1265.17 107.9 1266.81 105.64 1270.07 105.64C1271.91 105.64 1273.23 106.36 1273.93 107.64C1274.65 108.92 1274.93 110.44 1274.93 112.44C1274.93 114.44 1274.65 115.92 1273.93 117.2C1273.23 118.48 1271.91 119.2 1270.07 119.2C1266.81 119.2 1265.17 116.94 1265.17 112.44ZM1267.97 112.44C1267.97 115.14 1268.67 116.48 1270.07 116.48C1271.45 116.48 1272.13 115.14 1272.13 112.44C1272.13 109.72 1271.45 108.36 1270.07 108.36C1268.67 108.36 1267.97 109.72 1267.97 112.44ZM1277.24 112.44C1277.24 107.9 1278.88 105.64 1282.14 105.64C1283.98 105.64 1285.3 106.36 1286 107.64C1286.72 108.92 1287 110.44 1287 112.44C1287 114.44 1286.72 115.92 1286 117.2C1285.3 118.48 1283.98 119.2 1282.14 119.2C1278.88 119.2 1277.24 116.94 1277.24 112.44ZM1280.04 112.44C1280.04 115.14 1280.74 116.48 1282.14 116.48C1283.52 116.48 1284.2 115.14 1284.2 112.44C1284.2 109.72 1283.52 108.36 1282.14 108.36C1280.74 108.36 1280.04 109.72 1280.04 112.44ZM1298.93 105.9L1292.49 119H1291.11L1297.55 105.9H1298.93ZM1291.53 105.76C1292.27 105.76 1292.89 106.02 1293.41 106.54C1293.95 107.06 1294.21 107.7 1294.21 108.44C1294.21 109.18 1293.95 109.82 1293.43 110.34C1292.91 110.84 1292.27 111.1 1291.53 111.1C1290.79 111.1 1290.15 110.84 1289.63 110.34C1289.13 109.82 1288.87 109.18 1288.87 108.44C1288.87 107.7 1289.13 107.06 1289.63 106.54C1290.15 106.02 1290.79 105.76 1291.53 105.76ZM1291.53 109.48C1292.11 109.48 1292.59 109.02 1292.59 108.44C1292.59 107.86 1292.11 107.38 1291.53 107.38C1290.95 107.38 1290.49 107.86 1290.49 108.44C1290.49 109.02 1290.91 109.48 1291.53 109.48ZM1298.61 113.86C1299.35 113.86 1299.97 114.12 1300.49 114.66C1301.03 115.18 1301.29 115.8 1301.29 116.54C1301.29 117.28 1301.03 117.92 1300.51 118.44C1299.99 118.94 1299.35 119.2 1298.61 119.2C1297.87 119.2 1297.23 118.94 1296.71 118.44C1296.21 117.92 1295.95 117.28 1295.95 116.54C1295.95 115.8 1296.21 115.16 1296.71 114.64C1297.23 114.12 1297.87 113.86 1298.61 113.86ZM1297.57 116.54C1297.57 117.16 1297.99 117.58 1298.61 117.58C1299.53 117.58 1300.05 116.44 1299.35 115.8C1298.71 115.1 1297.57 115.62 1297.57 116.54ZM1253.03 139.62L1250.59 143.7H1253.03V139.62ZM1257.51 143.7V146.06H1255.85V149H1253.03V146.06H1246.77L1252.89 135.9H1255.85V143.7H1257.51ZM1262.95 147.52C1262.95 148.48 1262.17 149.2 1261.21 149.2C1260.25 149.2 1259.49 148.48 1259.49 147.52C1259.49 146.56 1260.25 145.86 1261.21 145.86C1262.17 145.86 1262.95 146.58 1262.95 147.52ZM1265.17 142.44C1265.17 137.9 1266.81 135.64 1270.07 135.64C1271.91 135.64 1273.23 136.36 1273.93 137.64C1274.65 138.92 1274.93 140.44 1274.93 142.44C1274.93 144.44 1274.65 145.92 1273.93 147.2C1273.23 148.48 1271.91 149.2 1270.07 149.2C1266.81 149.2 1265.17 146.94 1265.17 142.44ZM1267.97 142.44C1267.97 145.14 1268.67 146.48 1270.07 146.48C1271.45 146.48 1272.13 145.14 1272.13 142.44C1272.13 139.72 1271.45 138.36 1270.07 138.36C1268.67 138.36 1267.97 139.72 1267.97 142.44ZM1277.24 142.44C1277.24 137.9 1278.88 135.64 1282.14 135.64C1283.98 135.64 1285.3 136.36 1286 137.64C1286.72 138.92 1287 140.44 1287 142.44C1287 144.44 1286.72 145.92 1286 147.2C1285.3 148.48 1283.98 149.2 1282.14 149.2C1278.88 149.2 1277.24 146.94 1277.24 142.44ZM1280.04 142.44C1280.04 145.14 1280.74 146.48 1282.14 146.48C1283.52 146.48 1284.2 145.14 1284.2 142.44C1284.2 139.72 1283.52 138.36 1282.14 138.36C1280.74 138.36 1280.04 139.72 1280.04 142.44ZM1298.93 135.9L1292.49 149H1291.11L1297.55 135.9H1298.93ZM1291.53 135.76C1292.27 135.76 1292.89 136.02 1293.41 136.54C1293.95 137.06 1294.21 137.7 1294.21 138.44C1294.21 139.18 1293.95 139.82 1293.43 140.34C1292.91 140.84 1292.27 141.1 1291.53 141.1C1290.79 141.1 1290.15 140.84 1289.63 140.34C1289.13 139.82 1288.87 139.18 1288.87 138.44C1288.87 137.7 1289.13 137.06 1289.63 136.54C1290.15 136.02 1290.79 135.76 1291.53 135.76ZM1291.53 139.48C1292.11 139.48 1292.59 139.02 1292.59 138.44C1292.59 137.86 1292.11 137.38 1291.53 137.38C1290.95 137.38 1290.49 137.86 1290.49 138.44C1290.49 139.02 1290.91 139.48 1291.53 139.48ZM1298.61 143.86C1299.35 143.86 1299.97 144.12 1300.49 144.66C1301.03 145.18 1301.29 145.8 1301.29 146.54C1301.29 147.28 1301.03 147.92 1300.51 148.44C1299.99 148.94 1299.35 149.2 1298.61 149.2C1297.87 149.2 1297.23 148.94 1296.71 148.44C1296.21 147.92 1295.95 147.28 1295.95 146.54C1295.95 145.8 1296.21 145.16 1296.71 144.64C1297.23 144.12 1297.87 143.86 1298.61 143.86ZM1297.57 146.54C1297.57 147.16 1297.99 147.58 1298.61 147.58C1299.53 147.58 1300.05 146.44 1299.35 145.8C1298.71 145.1 1297.57 145.62 1297.57 146.54ZM1252.55 173.32H1251.17V170.92H1252.55C1253.41 170.92 1253.83 170.44 1253.83 169.5C1253.83 168.96 1253.39 168.24 1252.51 168.24C1251.89 168.24 1251.43 168.48 1251.13 168.96L1248.87 167.58C1249.67 166.32 1251.21 165.54 1252.95 165.64C1254.07 165.7 1255.01 166.08 1255.75 166.82C1256.49 167.54 1256.85 168.38 1256.83 169.32C1256.83 170.36 1256.17 171.32 1255.15 171.88C1255.85 172.14 1256.43 172.62 1256.85 173.32C1257.27 174.02 1257.45 174.72 1257.39 175.44C1257.29 176.56 1256.73 177.48 1255.71 178.22C1254.69 178.94 1253.53 179.26 1252.23 179.16C1250.41 179.06 1248.77 177.94 1248.05 176.42L1250.51 175.2C1250.65 175.5 1250.93 175.8 1251.31 176.06C1251.69 176.32 1252.07 176.44 1252.45 176.46C1253.41 176.52 1254.25 175.78 1254.33 175.06C1254.37 174.8 1254.51 173.26 1252.55 173.32ZM1262.95 177.52C1262.95 178.48 1262.17 179.2 1261.21 179.2C1260.25 179.2 1259.49 178.48 1259.49 177.52C1259.49 176.56 1260.25 175.86 1261.21 175.86C1262.17 175.86 1262.95 176.58 1262.95 177.52ZM1265.17 172.44C1265.17 167.9 1266.81 165.64 1270.07 165.64C1271.91 165.64 1273.23 166.36 1273.93 167.64C1274.65 168.92 1274.93 170.44 1274.93 172.44C1274.93 174.44 1274.65 175.92 1273.93 177.2C1273.23 178.48 1271.91 179.2 1270.07 179.2C1266.81 179.2 1265.17 176.94 1265.17 172.44ZM1267.97 172.44C1267.97 175.14 1268.67 176.48 1270.07 176.48C1271.45 176.48 1272.13 175.14 1272.13 172.44C1272.13 169.72 1271.45 168.36 1270.07 168.36C1268.67 168.36 1267.97 169.72 1267.97 172.44ZM1277.24 172.44C1277.24 167.9 1278.88 165.64 1282.14 165.64C1283.98 165.64 1285.3 166.36 1286 167.64C1286.72 168.92 1287 170.44 1287 172.44C1287 174.44 1286.72 175.92 1286 177.2C1285.3 178.48 1283.98 179.2 1282.14 179.2C1278.88 179.2 1277.24 176.94 1277.24 172.44ZM1280.04 172.44C1280.04 175.14 1280.74 176.48 1282.14 176.48C1283.52 176.48 1284.2 175.14 1284.2 172.44C1284.2 169.72 1283.52 168.36 1282.14 168.36C1280.74 168.36 1280.04 169.72 1280.04 172.44ZM1298.93 165.9L1292.49 179H1291.11L1297.55 165.9H1298.93ZM1291.53 165.76C1292.27 165.76 1292.89 166.02 1293.41 166.54C1293.95 167.06 1294.21 167.7 1294.21 168.44C1294.21 169.18 1293.95 169.82 1293.43 170.34C1292.91 170.84 1292.27 171.1 1291.53 171.1C1290.79 171.1 1290.15 170.84 1289.63 170.34C1289.13 169.82 1288.87 169.18 1288.87 168.44C1288.87 167.7 1289.13 167.06 1289.63 166.54C1290.15 166.02 1290.79 165.76 1291.53 165.76ZM1291.53 169.48C1292.11 169.48 1292.59 169.02 1292.59 168.44C1292.59 167.86 1292.11 167.38 1291.53 167.38C1290.95 167.38 1290.49 167.86 1290.49 168.44C1290.49 169.02 1290.91 169.48 1291.53 169.48ZM1298.61 173.86C1299.35 173.86 1299.97 174.12 1300.49 174.66C1301.03 175.18 1301.29 175.8 1301.29 176.54C1301.29 177.28 1301.03 177.92 1300.51 178.44C1299.99 178.94 1299.35 179.2 1298.61 179.2C1297.87 179.2 1297.23 178.94 1296.71 178.44C1296.21 177.92 1295.95 177.28 1295.95 176.54C1295.95 175.8 1296.21 175.16 1296.71 174.64C1297.23 174.12 1297.87 173.86 1298.61 173.86ZM1297.57 176.54C1297.57 177.16 1297.99 177.58 1298.61 177.58C1299.53 177.58 1300.05 176.44 1299.35 175.8C1298.71 175.1 1297.57 175.62 1297.57 176.54ZM1248.43 199.3C1248.43 198.28 1248.83 197.42 1249.61 196.72C1250.41 196 1251.37 195.64 1252.47 195.64C1253.57 195.64 1254.53 196 1255.33 196.72C1256.13 197.42 1256.53 198.28 1256.53 199.3C1256.53 200.2 1256.21 200.92 1255.57 201.5C1256.71 202.16 1257.45 203.38 1257.45 204.8C1257.45 206.04 1256.97 207.08 1255.99 207.94C1255.03 208.78 1253.85 209.2 1252.47 209.2C1251.09 209.2 1249.91 208.78 1248.93 207.94C1247.97 207.08 1247.49 206.04 1247.49 204.8C1247.49 203.38 1248.19 202.16 1249.37 201.5C1248.75 200.9 1248.43 200.16 1248.43 199.3ZM1250.29 204.66C1250.29 205.76 1251.29 206.6 1252.47 206.6C1253.65 206.6 1254.65 205.76 1254.65 204.66C1254.65 203.6 1253.83 202.7 1252.45 202.7C1251.09 202.7 1250.29 203.6 1250.29 204.66ZM1251.13 199.38C1251.13 200.1 1251.61 200.64 1252.47 200.64C1253.33 200.64 1253.81 200.1 1253.81 199.38C1253.81 198.72 1253.29 198.16 1252.47 198.16C1251.65 198.16 1251.13 198.72 1251.13 199.38ZM1262.95 207.52C1262.95 208.48 1262.17 209.2 1261.21 209.2C1260.25 209.2 1259.49 208.48 1259.49 207.52C1259.49 206.56 1260.25 205.86 1261.21 205.86C1262.17 205.86 1262.95 206.58 1262.95 207.52ZM1265.17 202.44C1265.17 197.9 1266.81 195.64 1270.07 195.64C1271.91 195.64 1273.23 196.36 1273.93 197.64C1274.65 198.92 1274.93 200.44 1274.93 202.44C1274.93 204.44 1274.65 205.92 1273.93 207.2C1273.23 208.48 1271.91 209.2 1270.07 209.2C1266.81 209.2 1265.17 206.94 1265.17 202.44ZM1267.97 202.44C1267.97 205.14 1268.67 206.48 1270.07 206.48C1271.45 206.48 1272.13 205.14 1272.13 202.44C1272.13 199.72 1271.45 198.36 1270.07 198.36C1268.67 198.36 1267.97 199.72 1267.97 202.44ZM1277.24 202.44C1277.24 197.9 1278.88 195.64 1282.14 195.64C1283.98 195.64 1285.3 196.36 1286 197.64C1286.72 198.92 1287 200.44 1287 202.44C1287 204.44 1286.72 205.92 1286 207.2C1285.3 208.48 1283.98 209.2 1282.14 209.2C1278.88 209.2 1277.24 206.94 1277.24 202.44ZM1280.04 202.44C1280.04 205.14 1280.74 206.48 1282.14 206.48C1283.52 206.48 1284.2 205.14 1284.2 202.44C1284.2 199.72 1283.52 198.36 1282.14 198.36C1280.74 198.36 1280.04 199.72 1280.04 202.44ZM1298.93 195.9L1292.49 209H1291.11L1297.55 195.9H1298.93ZM1291.53 195.76C1292.27 195.76 1292.89 196.02 1293.41 196.54C1293.95 197.06 1294.21 197.7 1294.21 198.44C1294.21 199.18 1293.95 199.82 1293.43 200.34C1292.91 200.84 1292.27 201.1 1291.53 201.1C1290.79 201.1 1290.15 200.84 1289.63 200.34C1289.13 199.82 1288.87 199.18 1288.87 198.44C1288.87 197.7 1289.13 197.06 1289.63 196.54C1290.15 196.02 1290.79 195.76 1291.53 195.76ZM1291.53 199.48C1292.11 199.48 1292.59 199.02 1292.59 198.44C1292.59 197.86 1292.11 197.38 1291.53 197.38C1290.95 197.38 1290.49 197.86 1290.49 198.44C1290.49 199.02 1290.91 199.48 1291.53 199.48ZM1298.61 203.86C1299.35 203.86 1299.97 204.12 1300.49 204.66C1301.03 205.18 1301.29 205.8 1301.29 206.54C1301.29 207.28 1301.03 207.92 1300.51 208.44C1299.99 208.94 1299.35 209.2 1298.61 209.2C1297.87 209.2 1297.23 208.94 1296.71 208.44C1296.21 207.92 1295.95 207.28 1295.95 206.54C1295.95 205.8 1296.21 205.16 1296.71 204.64C1297.23 204.12 1297.87 203.86 1298.61 203.86ZM1297.57 206.54C1297.57 207.16 1297.99 207.58 1298.61 207.58C1299.53 207.58 1300.05 206.44 1299.35 205.8C1298.71 205.1 1297.57 205.62 1297.57 206.54ZM1239.83 228.12L1244.87 225.72V239H1242.07V229.62L1239.83 230.58V228.12ZM1254.69 234.38C1254.69 232.96 1253.71 232.24 1252.27 232.24C1251.25 232.24 1250.05 232.64 1249.39 233.68L1247.85 232.88L1248.93 225.9H1256.61V228.46H1251.15L1250.81 230.58C1251.31 230.12 1252.11 229.9 1253.21 229.9C1254.43 229.9 1255.45 230.3 1256.27 231.08C1257.09 231.86 1257.49 232.96 1257.49 234.38C1257.49 235.8 1256.99 236.96 1256.01 237.86C1255.03 238.76 1253.71 239.2 1252.09 239.2C1250.27 239.2 1248.47 238.14 1247.45 236.56L1249.81 235.04C1250.31 235.84 1251.27 236.4 1252.09 236.4C1253.59 236.4 1254.69 235.48 1254.69 234.38ZM1262.95 237.52C1262.95 238.48 1262.17 239.2 1261.21 239.2C1260.25 239.2 1259.49 238.48 1259.49 237.52C1259.49 236.56 1260.25 235.86 1261.21 235.86C1262.17 235.86 1262.95 236.58 1262.95 237.52ZM1265.17 232.44C1265.17 227.9 1266.81 225.64 1270.07 225.64C1271.91 225.64 1273.23 226.36 1273.93 227.64C1274.65 228.92 1274.93 230.44 1274.93 232.44C1274.93 234.44 1274.65 235.92 1273.93 237.2C1273.23 238.48 1271.91 239.2 1270.07 239.2C1266.81 239.2 1265.17 236.94 1265.17 232.44ZM1267.97 232.44C1267.97 235.14 1268.67 236.48 1270.07 236.48C1271.45 236.48 1272.13 235.14 1272.13 232.44C1272.13 229.72 1271.45 228.36 1270.07 228.36C1268.67 228.36 1267.97 229.72 1267.97 232.44ZM1277.24 232.44C1277.24 227.9 1278.88 225.64 1282.14 225.64C1283.98 225.64 1285.3 226.36 1286 227.64C1286.72 228.92 1287 230.44 1287 232.44C1287 234.44 1286.72 235.92 1286 237.2C1285.3 238.48 1283.98 239.2 1282.14 239.2C1278.88 239.2 1277.24 236.94 1277.24 232.44ZM1280.04 232.44C1280.04 235.14 1280.74 236.48 1282.14 236.48C1283.52 236.48 1284.2 235.14 1284.2 232.44C1284.2 229.72 1283.52 228.36 1282.14 228.36C1280.74 228.36 1280.04 229.72 1280.04 232.44ZM1298.93 225.9L1292.49 239H1291.11L1297.55 225.9H1298.93ZM1291.53 225.76C1292.27 225.76 1292.89 226.02 1293.41 226.54C1293.95 227.06 1294.21 227.7 1294.21 228.44C1294.21 229.18 1293.95 229.82 1293.43 230.34C1292.91 230.84 1292.27 231.1 1291.53 231.1C1290.79 231.1 1290.15 230.84 1289.63 230.34C1289.13 229.82 1288.87 229.18 1288.87 228.44C1288.87 227.7 1289.13 227.06 1289.63 226.54C1290.15 226.02 1290.79 225.76 1291.53 225.76ZM1291.53 229.48C1292.11 229.48 1292.59 229.02 1292.59 228.44C1292.59 227.86 1292.11 227.38 1291.53 227.38C1290.95 227.38 1290.49 227.86 1290.49 228.44C1290.49 229.02 1290.91 229.48 1291.53 229.48ZM1298.61 233.86C1299.35 233.86 1299.97 234.12 1300.49 234.66C1301.03 235.18 1301.29 235.8 1301.29 236.54C1301.29 237.28 1301.03 237.92 1300.51 238.44C1299.99 238.94 1299.35 239.2 1298.61 239.2C1297.87 239.2 1297.23 238.94 1296.71 238.44C1296.21 237.92 1295.95 237.28 1295.95 236.54C1295.95 235.8 1296.21 235.16 1296.71 234.64C1297.23 234.12 1297.87 233.86 1298.61 233.86ZM1297.57 236.54C1297.57 237.16 1297.99 237.58 1298.61 237.58C1299.53 237.58 1300.05 236.44 1299.35 235.8C1298.71 235.1 1297.57 235.62 1297.57 236.54ZM1253.03 259.62L1250.59 263.7H1253.03V259.62ZM1257.51 263.7V266.06H1255.85V269H1253.03V266.06H1246.77L1252.89 255.9H1255.85V263.7H1257.51ZM1262.95 267.52C1262.95 268.48 1262.17 269.2 1261.21 269.2C1260.25 269.2 1259.49 268.48 1259.49 267.52C1259.49 266.56 1260.25 265.86 1261.21 265.86C1262.17 265.86 1262.95 266.58 1262.95 267.52ZM1265.17 262.44C1265.17 257.9 1266.81 255.64 1270.07 255.64C1271.91 255.64 1273.23 256.36 1273.93 257.64C1274.65 258.92 1274.93 260.44 1274.93 262.44C1274.93 264.44 1274.65 265.92 1273.93 267.2C1273.23 268.48 1271.91 269.2 1270.07 269.2C1266.81 269.2 1265.17 266.94 1265.17 262.44ZM1267.97 262.44C1267.97 265.14 1268.67 266.48 1270.07 266.48C1271.45 266.48 1272.13 265.14 1272.13 262.44C1272.13 259.72 1271.45 258.36 1270.07 258.36C1268.67 258.36 1267.97 259.72 1267.97 262.44ZM1277.24 262.44C1277.24 257.9 1278.88 255.64 1282.14 255.64C1283.98 255.64 1285.3 256.36 1286 257.64C1286.72 258.92 1287 260.44 1287 262.44C1287 264.44 1286.72 265.92 1286 267.2C1285.3 268.48 1283.98 269.2 1282.14 269.2C1278.88 269.2 1277.24 266.94 1277.24 262.44ZM1280.04 262.44C1280.04 265.14 1280.74 266.48 1282.14 266.48C1283.52 266.48 1284.2 265.14 1284.2 262.44C1284.2 259.72 1283.52 258.36 1282.14 258.36C1280.74 258.36 1280.04 259.72 1280.04 262.44ZM1298.93 255.9L1292.49 269H1291.11L1297.55 255.9H1298.93ZM1291.53 255.76C1292.27 255.76 1292.89 256.02 1293.41 256.54C1293.95 257.06 1294.21 257.7 1294.21 258.44C1294.21 259.18 1293.95 259.82 1293.43 260.34C1292.91 260.84 1292.27 261.1 1291.53 261.1C1290.79 261.1 1290.15 260.84 1289.63 260.34C1289.13 259.82 1288.87 259.18 1288.87 258.44C1288.87 257.7 1289.13 257.06 1289.63 256.54C1290.15 256.02 1290.79 255.76 1291.53 255.76ZM1291.53 259.48C1292.11 259.48 1292.59 259.02 1292.59 258.44C1292.59 257.86 1292.11 257.38 1291.53 257.38C1290.95 257.38 1290.49 257.86 1290.49 258.44C1290.49 259.02 1290.91 259.48 1291.53 259.48ZM1298.61 263.86C1299.35 263.86 1299.97 264.12 1300.49 264.66C1301.03 265.18 1301.29 265.8 1301.29 266.54C1301.29 267.28 1301.03 267.92 1300.51 268.44C1299.99 268.94 1299.35 269.2 1298.61 269.2C1297.87 269.2 1297.23 268.94 1296.71 268.44C1296.21 267.92 1295.95 267.28 1295.95 266.54C1295.95 265.8 1296.21 265.16 1296.71 264.64C1297.23 264.12 1297.87 263.86 1298.61 263.86ZM1297.57 266.54C1297.57 267.16 1297.99 267.58 1298.61 267.58C1299.53 267.58 1300.05 266.44 1299.35 265.8C1298.71 265.1 1297.57 265.62 1297.57 266.54ZM1242.12 288.12L1247.16 285.72V299H1244.36V289.62L1242.12 290.58V288.12ZM1249.74 288.48V285.9H1259.62L1253.84 299H1250.66L1255.28 288.48H1249.74ZM1263.18 297.52C1263.18 298.48 1262.4 299.2 1261.44 299.2C1260.48 299.2 1259.72 298.48 1259.72 297.52C1259.72 296.56 1260.48 295.86 1261.44 295.86C1262.4 295.86 1263.18 296.58 1263.18 297.52ZM1272.35 294.38C1272.35 292.96 1271.37 292.24 1269.93 292.24C1268.91 292.24 1267.71 292.64 1267.05 293.68L1265.51 292.88L1266.59 285.9H1274.27V288.46H1268.81L1268.47 290.58C1268.97 290.12 1269.77 289.9 1270.87 289.9C1272.09 289.9 1273.11 290.3 1273.93 291.08C1274.75 291.86 1275.15 292.96 1275.15 294.38C1275.15 295.8 1274.65 296.96 1273.67 297.86C1272.69 298.76 1271.37 299.2 1269.75 299.2C1267.93 299.2 1266.13 298.14 1265.11 296.56L1267.47 295.04C1267.97 295.84 1268.93 296.4 1269.75 296.4C1271.25 296.4 1272.35 295.48 1272.35 294.38ZM1277.24 292.44C1277.24 287.9 1278.88 285.64 1282.14 285.64C1283.98 285.64 1285.3 286.36 1286 287.64C1286.72 288.92 1287 290.44 1287 292.44C1287 294.44 1286.72 295.92 1286 297.2C1285.3 298.48 1283.98 299.2 1282.14 299.2C1278.88 299.2 1277.24 296.94 1277.24 292.44ZM1280.04 292.44C1280.04 295.14 1280.74 296.48 1282.14 296.48C1283.52 296.48 1284.2 295.14 1284.2 292.44C1284.2 289.72 1283.52 288.36 1282.14 288.36C1280.74 288.36 1280.04 289.72 1280.04 292.44ZM1298.93 285.9L1292.49 299H1291.11L1297.55 285.9H1298.93ZM1291.53 285.76C1292.27 285.76 1292.89 286.02 1293.41 286.54C1293.95 287.06 1294.21 287.7 1294.21 288.44C1294.21 289.18 1293.95 289.82 1293.43 290.34C1292.91 290.84 1292.27 291.1 1291.53 291.1C1290.79 291.1 1290.15 290.84 1289.63 290.34C1289.13 289.82 1288.87 289.18 1288.87 288.44C1288.87 287.7 1289.13 287.06 1289.63 286.54C1290.15 286.02 1290.79 285.76 1291.53 285.76ZM1291.53 289.48C1292.11 289.48 1292.59 289.02 1292.59 288.44C1292.59 287.86 1292.11 287.38 1291.53 287.38C1290.95 287.38 1290.49 287.86 1290.49 288.44C1290.49 289.02 1290.91 289.48 1291.53 289.48ZM1298.61 293.86C1299.35 293.86 1299.97 294.12 1300.49 294.66C1301.03 295.18 1301.29 295.8 1301.29 296.54C1301.29 297.28 1301.03 297.92 1300.51 298.44C1299.99 298.94 1299.35 299.2 1298.61 299.2C1297.87 299.2 1297.23 298.94 1296.71 298.44C1296.21 297.92 1295.95 297.28 1295.95 296.54C1295.95 295.8 1296.21 295.16 1296.71 294.64C1297.23 294.12 1297.87 293.86 1298.61 293.86ZM1297.57 296.54C1297.57 297.16 1297.99 297.58 1298.61 297.58C1299.53 297.58 1300.05 296.44 1299.35 295.8C1298.71 295.1 1297.57 295.62 1297.57 296.54ZM1245.17 326.36V329H1236.65V327.48L1242.03 321.1C1242.49 320.56 1242.73 320.08 1242.73 319.62C1242.73 318.9 1242.11 318.32 1241.09 318.32C1240.11 318.32 1239.39 319.08 1239.23 320.14L1236.67 319.7C1237.07 317.2 1238.79 315.64 1241.25 315.64C1242.43 315.64 1243.45 316.02 1244.27 316.76C1245.11 317.5 1245.53 318.46 1245.53 319.62C1245.53 320.8 1245.07 321.9 1244.15 322.94L1241.13 326.36H1245.17ZM1254.69 324.38C1254.69 322.96 1253.71 322.24 1252.27 322.24C1251.25 322.24 1250.05 322.64 1249.39 323.68L1247.85 322.88L1248.93 315.9H1256.61V318.46H1251.15L1250.81 320.58C1251.31 320.12 1252.11 319.9 1253.21 319.9C1254.43 319.9 1255.45 320.3 1256.27 321.08C1257.09 321.86 1257.49 322.96 1257.49 324.38C1257.49 325.8 1256.99 326.96 1256.01 327.86C1255.03 328.76 1253.71 329.2 1252.09 329.2C1250.27 329.2 1248.47 328.14 1247.45 326.56L1249.81 325.04C1250.31 325.84 1251.27 326.4 1252.09 326.4C1253.59 326.4 1254.69 325.48 1254.69 324.38ZM1262.95 327.52C1262.95 328.48 1262.17 329.2 1261.21 329.2C1260.25 329.2 1259.49 328.48 1259.49 327.52C1259.49 326.56 1260.25 325.86 1261.21 325.86C1262.17 325.86 1262.95 326.58 1262.95 327.52ZM1265.17 322.44C1265.17 317.9 1266.81 315.64 1270.07 315.64C1271.91 315.64 1273.23 316.36 1273.93 317.64C1274.65 318.92 1274.93 320.44 1274.93 322.44C1274.93 324.44 1274.65 325.92 1273.93 327.2C1273.23 328.48 1271.91 329.2 1270.07 329.2C1266.81 329.2 1265.17 326.94 1265.17 322.44ZM1267.97 322.44C1267.97 325.14 1268.67 326.48 1270.07 326.48C1271.45 326.48 1272.13 325.14 1272.13 322.44C1272.13 319.72 1271.45 318.36 1270.07 318.36C1268.67 318.36 1267.97 319.72 1267.97 322.44ZM1277.24 322.44C1277.24 317.9 1278.88 315.64 1282.14 315.64C1283.98 315.64 1285.3 316.36 1286 317.64C1286.72 318.92 1287 320.44 1287 322.44C1287 324.44 1286.72 325.92 1286 327.2C1285.3 328.48 1283.98 329.2 1282.14 329.2C1278.88 329.2 1277.24 326.94 1277.24 322.44ZM1280.04 322.44C1280.04 325.14 1280.74 326.48 1282.14 326.48C1283.52 326.48 1284.2 325.14 1284.2 322.44C1284.2 319.72 1283.52 318.36 1282.14 318.36C1280.74 318.36 1280.04 319.72 1280.04 322.44ZM1298.93 315.9L1292.49 329H1291.11L1297.55 315.9H1298.93ZM1291.53 315.76C1292.27 315.76 1292.89 316.02 1293.41 316.54C1293.95 317.06 1294.21 317.7 1294.21 318.44C1294.21 319.18 1293.95 319.82 1293.43 320.34C1292.91 320.84 1292.27 321.1 1291.53 321.1C1290.79 321.1 1290.15 320.84 1289.63 320.34C1289.13 319.82 1288.87 319.18 1288.87 318.44C1288.87 317.7 1289.13 317.06 1289.63 316.54C1290.15 316.02 1290.79 315.76 1291.53 315.76ZM1291.53 319.48C1292.11 319.48 1292.59 319.02 1292.59 318.44C1292.59 317.86 1292.11 317.38 1291.53 317.38C1290.95 317.38 1290.49 317.86 1290.49 318.44C1290.49 319.02 1290.91 319.48 1291.53 319.48ZM1298.61 323.86C1299.35 323.86 1299.97 324.12 1300.49 324.66C1301.03 325.18 1301.29 325.8 1301.29 326.54C1301.29 327.28 1301.03 327.92 1300.51 328.44C1299.99 328.94 1299.35 329.2 1298.61 329.2C1297.87 329.2 1297.23 328.94 1296.71 328.44C1296.21 327.92 1295.95 327.28 1295.95 326.54C1295.95 325.8 1296.21 325.16 1296.71 324.64C1297.23 324.12 1297.87 323.86 1298.61 323.86ZM1297.57 326.54C1297.57 327.16 1297.99 327.58 1298.61 327.58C1299.53 327.58 1300.05 326.44 1299.35 325.8C1298.71 325.1 1297.57 325.62 1297.57 326.54ZM1252.79 353.32H1251.41V350.92H1252.79C1253.65 350.92 1254.07 350.44 1254.07 349.5C1254.07 348.96 1253.63 348.24 1252.75 348.24C1252.13 348.24 1251.67 348.48 1251.37 348.96L1249.11 347.58C1249.91 346.32 1251.45 345.54 1253.19 345.64C1254.31 345.7 1255.25 346.08 1255.99 346.82C1256.73 347.54 1257.09 348.38 1257.07 349.32C1257.07 350.36 1256.41 351.32 1255.39 351.88C1256.09 352.14 1256.67 352.62 1257.09 353.32C1257.51 354.02 1257.69 354.72 1257.62 355.44C1257.53 356.56 1256.97 357.48 1255.95 358.22C1254.93 358.94 1253.77 359.26 1252.47 359.16C1250.65 359.06 1249.01 357.94 1248.28 356.42L1250.75 355.2C1250.89 355.5 1251.17 355.8 1251.55 356.06C1251.93 356.32 1252.31 356.44 1252.69 356.46C1253.65 356.52 1254.49 355.78 1254.57 355.06C1254.61 354.8 1254.75 353.26 1252.79 353.32ZM1263.18 357.52C1263.18 358.48 1262.4 359.2 1261.44 359.2C1260.48 359.2 1259.72 358.48 1259.72 357.52C1259.72 356.56 1260.48 355.86 1261.44 355.86C1262.4 355.86 1263.18 356.58 1263.18 357.52ZM1272.35 354.38C1272.35 352.96 1271.37 352.24 1269.93 352.24C1268.91 352.24 1267.71 352.64 1267.05 353.68L1265.51 352.88L1266.59 345.9H1274.27V348.46H1268.81L1268.47 350.58C1268.97 350.12 1269.77 349.9 1270.87 349.9C1272.09 349.9 1273.11 350.3 1273.93 351.08C1274.75 351.86 1275.15 352.96 1275.15 354.38C1275.15 355.8 1274.65 356.96 1273.67 357.86C1272.69 358.76 1271.37 359.2 1269.75 359.2C1267.93 359.2 1266.13 358.14 1265.11 356.56L1267.47 355.04C1267.97 355.84 1268.93 356.4 1269.75 356.4C1271.25 356.4 1272.35 355.48 1272.35 354.38ZM1277.24 352.44C1277.24 347.9 1278.88 345.64 1282.14 345.64C1283.98 345.64 1285.3 346.36 1286 347.64C1286.72 348.92 1287 350.44 1287 352.44C1287 354.44 1286.72 355.92 1286 357.2C1285.3 358.48 1283.98 359.2 1282.14 359.2C1278.88 359.2 1277.24 356.94 1277.24 352.44ZM1280.04 352.44C1280.04 355.14 1280.74 356.48 1282.14 356.48C1283.52 356.48 1284.2 355.14 1284.2 352.44C1284.2 349.72 1283.52 348.36 1282.14 348.36C1280.74 348.36 1280.04 349.72 1280.04 352.44ZM1298.93 345.9L1292.49 359H1291.11L1297.55 345.9H1298.93ZM1291.53 345.76C1292.27 345.76 1292.89 346.02 1293.41 346.54C1293.95 347.06 1294.21 347.7 1294.21 348.44C1294.21 349.18 1293.95 349.82 1293.43 350.34C1292.91 350.84 1292.27 351.1 1291.53 351.1C1290.79 351.1 1290.15 350.84 1289.63 350.34C1289.13 349.82 1288.87 349.18 1288.87 348.44C1288.87 347.7 1289.13 347.06 1289.63 346.54C1290.15 346.02 1290.79 345.76 1291.53 345.76ZM1291.53 349.48C1292.11 349.48 1292.59 349.02 1292.59 348.44C1292.59 347.86 1292.11 347.38 1291.53 347.38C1290.95 347.38 1290.49 347.86 1290.49 348.44C1290.49 349.02 1290.91 349.48 1291.53 349.48ZM1298.61 353.86C1299.35 353.86 1299.97 354.12 1300.49 354.66C1301.03 355.18 1301.29 355.8 1301.29 356.54C1301.29 357.28 1301.03 357.92 1300.51 358.44C1299.99 358.94 1299.35 359.2 1298.61 359.2C1297.87 359.2 1297.23 358.94 1296.71 358.44C1296.21 357.92 1295.95 357.28 1295.95 356.54C1295.95 355.8 1296.21 355.16 1296.71 354.64C1297.23 354.12 1297.87 353.86 1298.61 353.86ZM1297.57 356.54C1297.57 357.16 1297.99 357.58 1298.61 357.58C1299.53 357.58 1300.05 356.44 1299.35 355.8C1298.71 355.1 1297.57 355.62 1297.57 356.54Z" fill="white"/>
    <path d="M405.791 304.542V303.603C405.67 302.629 405.357 301.678 404.886 300.812C398.856 289.981 367.351 295.758 334.411 313.808C301.471 331.858 279.555 355.3 285.538 366.178C289.011 372.496 301.133 373.169 317.115 369.09C322.639 357.201 331.577 347.225 342.806 340.414C353.842 333.988 366.929 332.52 379.111 328.477C387.699 325.601 398.301 320.607 403.162 313.459C404.802 310.763 405.707 307.695 405.791 304.542Z" fill="url(#paint0_linear_0_1)"/>
    <path d="M405.789 304.483V304.411C405.704 307.562 404.8 310.628 403.159 313.322C398.286 320.465 387.684 325.456 379.096 328.33C366.974 332.371 353.766 333.838 342.79 340.259C334.781 345.058 327.918 351.527 322.659 359.236C320.572 362.555 318.727 365.79 317.122 368.856C309.511 383.672 307.473 395.733 312.913 400.519C322.237 408.721 349.942 392.583 374.802 364.443C395.572 341.053 407.779 316.653 405.789 304.483Z" fill="url(#paint1_linear_0_1)"/>
    <path d="M348.5 6C404.166 6 458.992 19.5679 508.234 45.529C557.475 71.4901 599.646 109.062 631.097 154.992" stroke="#13AFB6" stroke-width="12" stroke-linecap="round" stroke-linejoin="round"/>
    <path d="M617.448 165.023C637.459 194.391 652.531 226.845 662.064 261.095" stroke="#005788" stroke-width="12" stroke-linecap="round" stroke-linejoin="round"/>
    <path d="M645.284 267.964C652.03 292.864 655.621 318.515 655.972 344.313" stroke="#1987C5" stroke-width="12" stroke-linecap="round" stroke-linejoin="round"/>
    <path d="M638.979 345.042C639.206 363.951 637.575 382.838 634.112 401.43" stroke="#77CDFE" stroke-width="12" stroke-linecap="round" stroke-linejoin="round"/>
    <path d="M617.225 399.242C608.462 445.395 587.895 488.505 557.518 524.386" stroke="#F3BA2F" stroke-width="12" stroke-linecap="round" stroke-linejoin="round"/>
    <path d="M545.839 510.292C519.476 542.239 485.705 567.288 447.45 583.268C409.196 599.247 367.613 605.674 326.307 601.99" stroke="#F35E2F" stroke-width="12" stroke-linecap="round" stroke-linejoin="round"/>
    <path d="M331.911 585.382C323.83 584.796 315.784 583.796 307.805 582.385" stroke="#9095A0" stroke-width="12" stroke-linecap="round" stroke-linejoin="round"/>
    <path d="M317.11 566.671C275.074 560.499 235.719 542.259 203.8 514.154C171.88 486.048 148.763 449.279 137.242 408.288" stroke="#505D65" stroke-width="12" stroke-linecap="round" stroke-linejoin="round"/>
    <path d="M154.42 406.502C146.496 379.787 144.13 351.726 147.47 324.057C150.809 296.388 159.782 269.703 173.833 245.654C187.883 221.606 206.71 200.707 229.148 184.254C251.585 167.8 277.153 156.143 304.268 150.002" stroke="#FFAEB2" stroke-width="12" stroke-linecap="round" stroke-linejoin="round"/>
    <path d="M307.722 168.651C322.47 165.285 337.577 163.735 352.704 164.037" stroke="#B81A21" stroke-width="12" stroke-linecap="round" stroke-linejoin="round"/>
    <path fill-rule="evenodd" clip-rule="evenodd" d="M811 82C811 78.6863 813.686 76 817 76H857C860.314 76 863 78.6863 863 82C863 85.3137 860.314 88 857 88H817C813.686 88 811 85.3137 811 82Z" fill="#13AFB6"/>
    <path fill-rule="evenodd" clip-rule="evenodd" d="M811 142C811 138.686 813.686 136 817 136H857C860.314 136 863 138.686 863 142C863 145.314 860.314 148 857 148H817C813.686 148 811 145.314 811 142Z" fill="#1987C4"/>
    <path fill-rule="evenodd" clip-rule="evenodd" d="M811 202C811 198.686 813.686 196 817 196H857C860.314 196 863 198.686 863 202C863 205.314 860.314 208 857 208H817C813.686 208 811 205.314 811 202Z" fill="#F3BA2F"/>
    <path fill-rule="evenodd" clip-rule="evenodd" d="M811 262C811 258.686 813.686 256 817 256H857C860.314 256 863 258.686 863 262C863 265.314 860.314 268 857 268H817C813.686 268 811 265.314 811 262Z" fill="#9095A0"/>
    <path fill-rule="evenodd" clip-rule="evenodd" d="M811 322C811 318.686 813.686 316 817 316H857C860.314 316 863 318.686 863 322C863 325.314 860.314 328 857 328H817C813.686 328 811 325.314 811 322Z" fill="#FFAEB2"/>
    <path fill-rule="evenodd" clip-rule="evenodd" d="M811 112C811 108.686 813.686 106 817 106H857C860.314 106 863 108.686 863 112C863 115.314 860.314 118 857 118H817C813.686 118 811 115.314 811 112Z" fill="#005788"/>
    <path fill-rule="evenodd" clip-rule="evenodd" d="M811 172C811 168.686 813.686 166 817 166H857C860.314 166 863 168.686 863 172C863 175.314 860.314 178 857 178H817C813.686 178 811 175.314 811 172Z" fill="#76CDFE"/>
    <path fill-rule="evenodd" clip-rule="evenodd" d="M811 232C811 228.686 813.686 226 817 226H857C860.314 226 863 228.686 863 232C863 235.314 860.314 238 857 238H817C813.686 238 811 235.314 811 232Z" fill="#F35E2F"/>
    <path fill-rule="evenodd" clip-rule="evenodd" d="M811 292C811 288.686 813.686 286 817 286H857C860.314 286 863 288.686 863 292C863 295.314 860.314 298 857 298H817C813.686 298 811 295.314 811 292Z" fill="#505D65"/>
    <path fill-rule="evenodd" clip-rule="evenodd" d="M811 352C811 348.686 813.686 346 817 346H857C860.314 346 863 348.686 863 352C863 355.314 860.314 358 857 358H817C813.686 358 811 355.314 811 352Z" fill="#B81A21"/>
    <g filter="url(#filter0_d_0_1)">
        <path d="M863 459C863 447.954 871.954 439 883 439H1018.69C1022.48 439 1026.2 437.919 1029.41 435.884L1051.71 421.723C1054.33 420.061 1057.67 420.061 1060.29 421.723L1082.59 435.884C1085.8 437.919 1089.52 439 1093.31 439H1229C1240.05 439 1249 447.954 1249 459V578C1249 589.046 1240.05 598 1229 598H883C871.954 598 863 589.046 863 578V459Z" fill="url(#paint2_linear_0_1)"/>
    </g>
    <path d="M897.872 530.888L909.968 525.128V557H903.248V534.488L897.872 536.792V530.888ZM924.942 553.448C924.942 555.752 923.07 557.48 920.766 557.48C918.462 557.48 916.638 555.752 916.638 553.448C916.638 551.144 918.462 549.464 920.766 549.464C923.07 549.464 924.942 551.192 924.942 553.448ZM930.284 541.256C930.284 530.36 934.22 524.936 942.044 524.936C946.46 524.936 949.628 526.664 951.308 529.736C953.036 532.808 953.708 536.456 953.708 541.256C953.708 546.056 953.036 549.608 951.308 552.68C949.628 555.752 946.46 557.48 942.044 557.48C934.22 557.48 930.284 552.056 930.284 541.256ZM937.004 541.256C937.004 547.736 938.684 550.952 942.044 550.952C945.356 550.952 946.988 547.736 946.988 541.256C946.988 534.728 945.356 531.464 942.044 531.464C938.684 531.464 937.004 534.728 937.004 541.256ZM959.253 541.256C959.253 530.36 963.189 524.936 971.013 524.936C975.429 524.936 978.597 526.664 980.277 529.736C982.005 532.808 982.677 536.456 982.677 541.256C982.677 546.056 982.005 549.608 980.277 552.68C978.597 555.752 975.429 557.48 971.013 557.48C963.189 557.48 959.253 552.056 959.253 541.256ZM965.973 541.256C965.973 547.736 967.653 550.952 971.013 550.952C974.325 550.952 975.957 547.736 975.957 541.256C975.957 534.728 974.325 531.464 971.013 531.464C967.653 531.464 965.973 534.728 965.973 541.256ZM988.222 541.256C988.222 530.36 992.158 524.936 999.982 524.936C1004.4 524.936 1007.57 526.664 1009.25 529.736C1010.97 532.808 1011.65 536.456 1011.65 541.256C1011.65 546.056 1010.97 549.608 1009.25 552.68C1007.57 555.752 1004.4 557.48 999.982 557.48C992.158 557.48 988.222 552.056 988.222 541.256ZM994.942 541.256C994.942 547.736 996.622 550.952 999.982 550.952C1003.29 550.952 1004.93 547.736 1004.93 541.256C1004.93 534.728 1003.29 531.464 999.982 531.464C996.622 531.464 994.942 534.728 994.942 541.256ZM1025.25 553.448C1025.25 555.752 1023.38 557.48 1021.08 557.48C1018.77 557.48 1016.95 555.752 1016.95 553.448C1016.95 551.144 1018.77 549.464 1021.08 549.464C1023.38 549.464 1025.25 551.192 1025.25 553.448ZM1030.6 541.256C1030.6 530.36 1034.53 524.936 1042.36 524.936C1046.77 524.936 1049.94 526.664 1051.62 529.736C1053.35 532.808 1054.02 536.456 1054.02 541.256C1054.02 546.056 1053.35 549.608 1051.62 552.68C1049.94 555.752 1046.77 557.48 1042.36 557.48C1034.53 557.48 1030.6 552.056 1030.6 541.256ZM1037.32 541.256C1037.32 547.736 1039 550.952 1042.36 550.952C1045.67 550.952 1047.3 547.736 1047.3 541.256C1047.3 534.728 1045.67 531.464 1042.36 531.464C1039 531.464 1037.32 534.728 1037.32 541.256ZM1059.57 541.256C1059.57 530.36 1063.5 524.936 1071.33 524.936C1075.74 524.936 1078.91 526.664 1080.59 529.736C1082.32 532.808 1082.99 536.456 1082.99 541.256C1082.99 546.056 1082.32 549.608 1080.59 552.68C1078.91 555.752 1075.74 557.48 1071.33 557.48C1063.5 557.48 1059.57 552.056 1059.57 541.256ZM1066.29 541.256C1066.29 547.736 1067.97 550.952 1071.33 550.952C1074.64 550.952 1076.27 547.736 1076.27 541.256C1076.27 534.728 1074.64 531.464 1071.33 531.464C1067.97 531.464 1066.29 534.728 1066.29 541.256ZM1088.53 541.256C1088.53 530.36 1092.47 524.936 1100.29 524.936C1104.71 524.936 1107.88 526.664 1109.56 529.736C1111.29 532.808 1111.96 536.456 1111.96 541.256C1111.96 546.056 1111.29 549.608 1109.56 552.68C1107.88 555.752 1104.71 557.48 1100.29 557.48C1092.47 557.48 1088.53 552.056 1088.53 541.256ZM1095.25 541.256C1095.25 547.736 1096.93 550.952 1100.29 550.952C1103.61 550.952 1105.24 547.736 1105.24 541.256C1105.24 534.728 1103.61 531.464 1100.29 531.464C1096.93 531.464 1095.25 534.728 1095.25 541.256ZM1125.57 553.448C1125.57 555.752 1123.69 557.48 1121.39 557.48C1119.09 557.48 1117.26 555.752 1117.26 553.448C1117.26 551.144 1119.09 549.464 1121.39 549.464C1123.69 549.464 1125.57 551.192 1125.57 553.448ZM1130.91 541.256C1130.91 530.36 1134.85 524.936 1142.67 524.936C1147.09 524.936 1150.25 526.664 1151.93 529.736C1153.66 532.808 1154.33 536.456 1154.33 541.256C1154.33 546.056 1153.66 549.608 1151.93 552.68C1150.25 555.752 1147.09 557.48 1142.67 557.48C1134.85 557.48 1130.91 552.056 1130.91 541.256ZM1137.63 541.256C1137.63 547.736 1139.31 550.952 1142.67 550.952C1145.98 550.952 1147.61 547.736 1147.61 541.256C1147.61 534.728 1145.98 531.464 1142.67 531.464C1139.31 531.464 1137.63 534.728 1137.63 541.256ZM1159.88 541.256C1159.88 530.36 1163.81 524.936 1171.64 524.936C1176.05 524.936 1179.22 526.664 1180.9 529.736C1182.63 532.808 1183.3 536.456 1183.3 541.256C1183.3 546.056 1182.63 549.608 1180.9 552.68C1179.22 555.752 1176.05 557.48 1171.64 557.48C1163.81 557.48 1159.88 552.056 1159.88 541.256ZM1166.6 541.256C1166.6 547.736 1168.28 550.952 1171.64 550.952C1174.95 550.952 1176.58 547.736 1176.58 541.256C1176.58 534.728 1174.95 531.464 1171.64 531.464C1168.28 531.464 1166.6 534.728 1166.6 541.256ZM1188.85 541.256C1188.85 530.36 1192.78 524.936 1200.61 524.936C1205.02 524.936 1208.19 526.664 1209.87 529.736C1211.6 532.808 1212.27 536.456 1212.27 541.256C1212.27 546.056 1211.6 549.608 1209.87 552.68C1208.19 555.752 1205.02 557.48 1200.61 557.48C1192.78 557.48 1188.85 552.056 1188.85 541.256ZM1195.57 541.256C1195.57 547.736 1197.25 550.952 1200.61 550.952C1203.92 550.952 1205.55 547.736 1205.55 541.256C1205.55 534.728 1203.92 531.464 1200.61 531.464C1197.25 531.464 1195.57 534.728 1195.57 541.256Z" fill="white"/>
    <path d="M974.067 480.176H968.115V475.952H984.755V480.176H978.803V498H974.067V480.176ZM992.146 493.904C994.066 493.904 995.538 492.528 995.538 490.48C995.538 488.528 994.034 487.088 992.146 487.088C990.258 487.088 988.786 488.528 988.786 490.48C988.786 492.528 990.258 493.904 992.146 493.904ZM997.65 496.112C996.146 497.552 994.322 498.256 992.146 498.256C989.97 498.256 988.146 497.552 986.642 496.112C985.138 494.672 984.402 492.784 984.402 490.48C984.402 488.176 985.138 486.32 986.642 484.88C988.146 483.44 989.97 482.736 992.146 482.736C994.322 482.736 996.146 483.44 997.65 484.88C999.154 486.32 999.922 488.176 999.922 490.48C999.922 492.784 999.154 494.672 997.65 496.112ZM1008.78 477.328V483.056H1011.91V486.576H1008.78V498H1004.36V486.576H1001.64V483.056H1004.36V477.328H1008.78ZM1029.91 498H1025.5V496.304C1025.08 496.944 1024.41 497.424 1023.51 497.776C1022.65 498.128 1021.85 498.288 1021.14 498.288C1019.13 498.288 1017.37 497.584 1015.83 496.144C1014.3 494.704 1013.53 492.816 1013.53 490.512C1013.53 488.208 1014.3 486.352 1015.83 484.912C1017.37 483.472 1019.13 482.736 1021.14 482.736C1022.55 482.736 1024.47 483.28 1025.5 484.72V483.056H1029.91V498ZM1021.88 494.064C1023.8 494.064 1025.5 492.656 1025.5 490.512C1025.5 488.368 1023.8 486.96 1021.88 486.96C1020.89 486.96 1020.02 487.312 1019.26 487.984C1018.52 488.656 1018.14 489.488 1018.14 490.512C1018.14 491.536 1018.52 492.4 1019.26 493.072C1020.02 493.744 1020.89 494.064 1021.88 494.064ZM1034.02 498V474.928H1038.46V498H1034.02ZM1056.18 492.368L1054.23 491.856C1052.15 491.312 1050.78 490.448 1050.26 489.456C1049.78 488.432 1049.72 487.92 1049.75 486.992C1049.78 485.872 1050.36 484.912 1051.51 484.048C1052.66 483.184 1054.01 482.736 1055.58 482.736C1057.27 482.736 1058.71 483.152 1059.9 483.952C1061.08 484.752 1061.69 486 1061.72 487.696H1057.53C1057.5 486.832 1056.95 486.384 1055.83 486.384C1054.84 486.384 1054.23 486.832 1054.26 487.504C1054.3 488.048 1054.74 488.4 1055.58 488.624L1058.1 489.296C1059.22 489.584 1060.09 490.064 1060.73 490.672C1062.04 491.92 1062.17 492.752 1062.17 493.648C1062.17 495.152 1061.53 496.304 1060.22 497.104C1058.94 497.904 1057.43 498.32 1055.7 498.32C1054.07 498.32 1052.6 497.872 1051.35 496.944C1050.1 496.016 1049.5 494.736 1049.46 493.168H1053.62C1053.66 494.064 1054.65 494.896 1055.83 494.896C1056.86 494.864 1057.66 494.384 1057.66 493.648C1057.66 493.008 1057.24 492.656 1056.18 492.368ZM1074.93 490.96V483.056H1079.38V498H1074.93V495.952C1074.16 497.392 1072.56 498.32 1071.06 498.32C1067.57 498.32 1065.14 496.08 1065.14 491.984V483.056H1069.59V491.024C1069.59 493.168 1070.93 494 1072.24 494C1073.78 494 1074.93 493.04 1074.93 490.96ZM1088 490.576C1088 492.752 1089.53 494.128 1091.45 494.128C1093.37 494.128 1094.91 492.656 1094.91 490.576C1094.91 488.432 1093.37 486.96 1091.45 486.96C1089.53 486.96 1088 488.496 1088 490.576ZM1083.49 505.328V483.056H1087.9V484.912C1088.64 483.536 1090.37 482.736 1092.29 482.736C1094.27 482.736 1095.97 483.472 1097.37 484.912C1098.81 486.352 1099.52 488.208 1099.52 490.48C1099.52 492.816 1098.81 494.704 1097.37 496.144C1095.97 497.584 1094.27 498.32 1092.29 498.32C1090.37 498.32 1088.64 497.488 1087.9 496.176V505.328H1083.49ZM1107.25 490.576C1107.25 492.752 1108.78 494.128 1110.7 494.128C1112.62 494.128 1114.16 492.656 1114.16 490.576C1114.16 488.432 1112.62 486.96 1110.7 486.96C1108.78 486.96 1107.25 488.496 1107.25 490.576ZM1102.74 505.328V483.056H1107.15V484.912C1107.89 483.536 1109.62 482.736 1111.54 482.736C1113.52 482.736 1115.22 483.472 1116.62 484.912C1118.06 486.352 1118.77 488.208 1118.77 490.48C1118.77 492.816 1118.06 494.704 1116.62 496.144C1115.22 497.584 1113.52 498.32 1111.54 498.32C1109.62 498.32 1107.89 497.488 1107.15 496.176V505.328H1102.74ZM1121.99 498V474.928H1126.43V498H1121.99ZM1139.92 483.056H1144.66L1135.44 505.328H1130.74L1134.32 496.464L1128.56 483.056H1133.3L1136.6 491.536L1139.92 483.056Z" fill="white"/>
    <defs>
        <filter id="filter0_d_0_1" x="843" y="410.477" width="426" height="217.523" filterUnits="userSpaceOnUse" color-interpolation-filters="sRGB">
            <feFlood flood-opacity="0" result="BackgroundImageFix"/>
            <feColorMatrix in="SourceAlpha" type="matrix" values="0 0 0 0 0 0 0 0 0 0 0 0 0 0 0 0 0 0 127 0" result="hardAlpha"/>
            <feOffset dy="10"/>
            <feGaussianBlur stdDeviation="10"/>
            <feComposite in2="hardAlpha" operator="out"/>
            <feColorMatrix type="matrix" values="0 0 0 0 0 0 0 0 0 0 0 0 0 0 0 0 0 0 0.15 0"/>
            <feBlend mode="normal" in2="BackgroundImageFix" result="effect1_dropShadow_0_1"/>
            <feBlend mode="normal" in="SourceGraphic" in2="effect1_dropShadow_0_1" result="shape"/>
        </filter>
        <linearGradient id="paint0_linear_0_1" x1="284.549" y1="333.495" x2="405.791" y2="333.495" gradientUnits="userSpaceOnUse">
            <stop stop-color="#03659C"/>
            <stop offset="1" stop-color="#06B2B8"/>
        </linearGradient>
        <linearGradient id="paint1_linear_0_1" x1="312.31" y1="390.49" x2="405.213" y2="317.271" gradientUnits="userSpaceOnUse">
            <stop stop-color="#06B2B8"/>
            <stop offset="0.2" stop-color="#06ABB5"/>
            <stop offset="0.49" stop-color="#0596AE"/>
            <stop offset="0.85" stop-color="#0476A2"/>
            <stop offset="1" stop-color="#03659C"/>
        </linearGradient>
        <linearGradient id="paint2_linear_0_1" x1="863" y1="463.138" x2="1284.44" y2="537.692" gradientUnits="userSpaceOnUse">
            <stop offset="0.19" stop-color="#505D65"/>
            <stop offset="1"/>
        </linearGradient>
    </defs>
</svg>
