<svg width="697" height="697" viewBox="0 0 697 697" fill="none" xmlns="http://www.w3.org/2000/svg">
    <circle opacity="0.3" cx="349.5" cy="347.5" r="341" stroke="#A6BBC8"/>
    <path opacity="0.3" d="M674.5 347.5C674.5 526.993 529.216 672.5 350 672.5C170.784 672.5 25.5 526.993 25.5 347.5C25.5 168.007 170.784 22.5 350 22.5C529.216 22.5 674.5 168.007 674.5 347.5Z" stroke="#A6BBC8"/>
    <path opacity="0.3" d="M656.5 348C656.5 517.275 519.052 654.5 349.5 654.5C179.948 654.5 42.5 517.275 42.5 348C42.5 178.725 179.948 41.5 349.5 41.5C519.052 41.5 656.5 178.725 656.5 348Z" stroke="#A6BBC8"/>
    <path opacity="0.3" d="M639.5 348C639.5 508.44 509.662 638.5 349.5 638.5C189.338 638.5 59.5 508.44 59.5 348C59.5 187.56 189.338 57.5 349.5 57.5C509.662 57.5 639.5 187.56 639.5 348Z" stroke="#A6BBC8"/>
    <path opacity="0.3" d="M621.5 347.5C621.5 497.721 499.498 619.5 349 619.5C198.502 619.5 76.5 497.721 76.5 347.5C76.5 197.279 198.502 75.5 349 75.5C499.498 75.5 621.5 197.279 621.5 347.5Z" stroke="#A6BBC8"/>
    <path opacity="0.3" d="M605.5 347.5C605.5 488.886 491.108 603.5 350 603.5C208.892 603.5 94.5 488.886 94.5 347.5C94.5 206.114 208.892 91.5 350 91.5C491.108 91.5 605.5 206.114 605.5 347.5Z" stroke="#A6BBC8"/>
    <path opacity="0.3" d="M587.5 348C587.5 479.167 480.945 585.5 349.5 585.5C218.055 585.5 111.5 479.167 111.5 348C111.5 216.833 218.055 110.5 349.5 110.5C480.945 110.5 587.5 216.833 587.5 348Z" stroke="#A6BBC8"/>
    <path opacity="0.3" d="M570.5 348C570.5 469.778 471.556 568.5 349.5 568.5C227.444 568.5 128.5 469.778 128.5 348C128.5 226.222 227.444 127.5 349.5 127.5C471.556 127.5 570.5 226.222 570.5 348Z" stroke="#A6BBC8"/>
    <path opacity="0.3" d="M552.5 347.5C552.5 459.615 461.836 550.5 350 550.5C238.163 550.5 147.5 459.615 147.5 347.5C147.5 235.385 238.163 144.5 350 144.5C461.836 144.5 552.5 235.385 552.5 347.5Z" stroke="#A6BBC8"/>
    <path opacity="0.3" d="M533.5 347.5C533.5 449.122 451.343 531.5 350 531.5C248.657 531.5 166.5 449.122 166.5 347.5C166.5 245.878 248.657 163.5 350 163.5C451.343 163.5 533.5 245.878 533.5 347.5Z" stroke="#A6BBC8"/>
    <path d="M405.791 304.542V303.603C405.67 302.629 405.357 301.678 404.886 300.812C398.856 289.981 367.351 295.758 334.411 313.808C301.471 331.858 279.555 355.3 285.538 366.178C289.011 372.496 301.133 373.169 317.115 369.09C322.639 357.201 331.576 347.225 342.806 340.414C353.842 333.988 366.929 332.52 379.111 328.477C387.699 325.601 398.301 320.607 403.162 313.459C404.802 310.763 405.707 307.695 405.791 304.542Z" fill="url(#paint0_linear_0_1)"/>
    <path d="M405.789 304.483V304.411C405.704 307.562 404.8 310.628 403.159 313.322C398.286 320.465 387.684 325.456 379.096 328.33C366.974 332.371 353.766 333.838 342.79 340.259C334.781 345.058 327.918 351.527 322.659 359.236C320.572 362.555 318.727 365.79 317.122 368.856C309.511 383.672 307.473 395.733 312.913 400.519C322.237 408.721 349.943 392.583 374.802 364.443C395.572 341.053 407.779 316.653 405.789 304.483Z" fill="url(#paint1_linear_0_1)"/>
    <path d="M348.5 6C404.166 6 458.992 19.5679 508.234 45.529C557.475 71.4901 599.646 109.062 631.097 154.992" stroke="#13AFB6" stroke-width="12" stroke-linecap="round" stroke-linejoin="round"/>
    <path d="M617.448 165.023C637.459 194.391 652.531 226.845 662.064 261.095" stroke="#005788" stroke-width="12" stroke-linecap="round" stroke-linejoin="round"/>
    <path d="M645.284 267.964C652.03 292.864 655.621 318.515 655.972 344.313" stroke="#1987C5" stroke-width="12" stroke-linecap="round" stroke-linejoin="round"/>
    <path d="M638.979 345.042C639.206 363.951 637.575 382.838 634.112 401.43" stroke="#77CDFE" stroke-width="12" stroke-linecap="round" stroke-linejoin="round"/>
    <path d="M617.225 399.242C608.462 445.395 587.895 488.505 557.518 524.386" stroke="#F3BA2F" stroke-width="12" stroke-linecap="round" stroke-linejoin="round"/>
    <path d="M545.839 510.292C519.476 542.239 485.705 567.288 447.45 583.268C409.196 599.247 367.613 605.674 326.307 601.99" stroke="#F35E2F" stroke-width="12" stroke-linecap="round" stroke-linejoin="round"/>
    <path d="M331.911 585.382C323.83 584.796 315.784 583.796 307.805 582.385" stroke="#9095A0" stroke-width="12" stroke-linecap="round" stroke-linejoin="round"/>
    <path d="M317.11 566.671C275.074 560.499 235.719 542.259 203.8 514.154C171.88 486.048 148.763 449.279 137.242 408.288" stroke="#505D65" stroke-width="12" stroke-linecap="round" stroke-linejoin="round"/>
    <path d="M154.42 406.502C146.496 379.787 144.13 351.726 147.47 324.057C150.809 296.388 159.782 269.703 173.833 245.654C187.883 221.606 206.71 200.707 229.148 184.254C251.585 167.8 277.153 156.143 304.268 150.002" stroke="#FFAEB2" stroke-width="12" stroke-linecap="round" stroke-linejoin="round"/>
    <path d="M307.722 168.651C322.47 165.285 337.577 163.735 352.704 164.037" stroke="#B81A21" stroke-width="12" stroke-linecap="round" stroke-linejoin="round"/>
    <defs>
        <linearGradient id="paint0_linear_0_1" x1="284.549" y1="333.495" x2="405.791" y2="333.495" gradientUnits="userSpaceOnUse">
            <stop stop-color="#03659C"/>
            <stop offset="1" stop-color="#06B2B8"/>
        </linearGradient>
        <linearGradient id="paint1_linear_0_1" x1="312.31" y1="390.49" x2="405.213" y2="317.271" gradientUnits="userSpaceOnUse">
            <stop stop-color="#06B2B8"/>
            <stop offset="0.2" stop-color="#06ABB5"/>
            <stop offset="0.49" stop-color="#0596AE"/>
            <stop offset="0.85" stop-color="#0476A2"/>
            <stop offset="1" stop-color="#03659C"/>
        </linearGradient>
    </defs>
</svg>
