<svg width="604" height="663" viewBox="0 0 604 663" fill="none" xmlns="http://www.w3.org/2000/svg">
<path d="M98.9686 27.9495H134.887L154.784 103.776L185.792 2.32913H232.822L172.355 180.637H139.021L116.54 93.9415L94.8341 180.637H61.2416L1.29202 2.32913H48.0631L78.8131 103.776L98.9686 27.9495Z" fill="#505D65"/>
<path d="M294.015 72.7206H348.28V2.32913H392.208V180.637H348.28V111.281H294.015V180.637H250.861V2.32913H294.015V72.7206Z" fill="#505D65"/>
<path d="M421.969 91.6124C421.969 66.2508 430.755 44.771 448.326 26.9144C466.156 9.05771 487.603 0 512.669 0C537.992 0 559.44 9.05771 577.011 26.9144C594.841 44.771 603.627 66.2508 603.627 91.6124C603.627 116.715 594.841 138.454 577.011 156.31C559.44 174.167 537.992 182.966 512.669 182.966C487.603 182.966 466.414 174.167 448.585 156.31C430.755 138.454 421.969 116.715 421.969 91.6124ZM512.669 139.489C525.847 139.489 537.217 134.831 546.261 125.514C555.564 116.198 560.215 104.811 560.215 91.6124C560.215 78.414 555.564 67.0272 546.261 57.7106C536.959 48.1353 525.847 43.4771 512.669 43.4771C499.49 43.4771 488.379 48.1353 479.335 57.7106C470.29 67.0272 465.639 78.414 465.639 91.6124C465.639 104.811 470.29 116.198 479.335 125.514C488.379 134.831 499.49 139.489 512.669 139.489Z" fill="#505D65"/>
<path d="M98.9686 268.967H134.887L154.784 344.793L185.792 243.346H232.822L172.355 421.654H139.021L116.54 334.959L94.8341 421.654H61.2416L1.29202 243.346H48.0631L78.8131 344.793L98.9686 268.967Z" fill="#505D65"/>
<path d="M368.693 383.87V421.654H250.861V243.346H366.368V281.13H294.015V315.29H357.582V352.298H294.015V383.87H368.693Z" fill="#505D65"/>
<path d="M178.04 662.671H132.303L117.315 621.782H61.2416L46.2542 662.671H0L65.6345 484.363H112.664L178.04 662.671ZM106.204 584.516L88.8908 525.77L72.8698 584.516H106.204Z" fill="#505D65"/>
<path d="M238.246 603.149V662.671H195.093V484.363H268.738C288.376 484.363 303.364 490.315 313.958 501.961C324.553 513.607 329.721 527.581 329.721 543.885C329.721 557.343 326.103 569.506 318.61 580.116C311.374 590.727 300.78 597.714 287.084 601.078L330.496 662.671H280.366L242.122 603.149H238.246ZM266.67 522.147H238.246V565.883H266.67C292.511 567.177 292.511 520.594 266.67 522.147Z" fill="#505D65"/>
<path d="M478.717 624.887V662.671H360.885V484.363H476.391V522.147H404.038V556.307H467.605V593.315H404.038V624.887H478.717Z" fill="#505D65"/>
</svg>
