<svg width="164" height="164" viewBox="0 0 164 164" fill="none" xmlns="http://www.w3.org/2000/svg">
<path d="M31.5 54.8491C31.5 53.5986 32.1671 52.4432 33.25 51.818L80.2115 24.7047C81.2944 24.0795 82.6286 24.0795 83.7115 24.7047L130.673 51.818C131.756 52.4432 132.423 53.5986 132.423 54.8491L132.423 109.076C132.423 110.326 131.756 111.481 130.673 112.107L83.7115 139.22C82.6286 139.845 81.2944 139.845 80.2115 139.22L33.25 112.107C32.1671 111.481 31.5 110.326 31.5 109.076L31.5 54.8491Z" stroke="#13AFB6" stroke-width="3"/>
<path d="M79.6241 80.9302C78.8641 80.4759 77.8801 80.723 77.4321 81.4801C76.5121 82.9145 74.9041 83.7513 73.2001 83.6955C71.4961 83.7513 69.8881 82.9145 68.9681 81.4801C68.5121 80.723 67.5281 80.4839 66.7761 80.9302C66.0241 81.3765 65.7761 82.3647 66.2241 83.1138C67.7121 85.5126 70.3681 86.9391 73.1921 86.8753C76.0241 86.9391 78.6721 85.5046 80.1601 83.1138C80.6161 82.3567 80.3681 81.3844 79.6081 80.9302H79.6241Z" fill="#13AFB6"/>
<path d="M105.096 71.3669C99.928 68.7928 94.16 67.6532 88.4 68.0676V60.8474C88.4 60.2337 88.048 59.6759 87.496 59.4129C78.5121 54.8624 67.8881 54.8624 58.9041 59.4129C58.3521 59.6759 58.0001 60.2337 58.0001 60.8474V79.9021C57.9681 88.2301 64.7121 95.012 73.0721 95.0439C74.0241 95.0439 74.9681 94.9642 75.9041 94.7889C77.5281 102.989 85.512 108.329 93.744 106.711C100.872 105.316 106 99.0844 106 91.8562V72.8014C106 72.1878 105.648 71.6299 105.096 71.3669ZM73.2001 91.8562C66.5761 91.8562 61.2001 86.5008 61.2001 79.9021V61.8674C68.7921 58.2653 77.6081 58.2653 85.2 61.8674V79.9021C85.2 86.5008 79.8241 91.8562 73.2001 91.8562ZM102.8 91.8562C102.8 98.4548 97.432 103.81 90.8 103.81C84.96 103.81 79.9761 99.6263 78.9761 93.8963C84.672 91.5613 88.392 86.0306 88.4 79.9021V71.2633C93.344 70.8569 98.304 71.7415 102.8 73.8215V91.8562Z" fill="#13AFB6"/>
<path d="M83.8321 95.02C83.3761 95.7771 83.6241 96.7573 84.3841 97.2036C85.1441 97.6579 86.128 97.4108 86.576 96.6537C88.184 94.3267 91.376 93.7369 93.712 95.3388C94.232 95.6894 94.672 96.1357 95.032 96.6537C95.488 97.4108 96.472 97.6499 97.224 97.2036C97.984 96.7494 98.224 95.7691 97.776 95.02C95.264 91.1867 90.112 90.1029 86.256 92.6053C85.2881 93.2349 84.4641 94.0557 83.8321 95.02Z" fill="#13AFB6"/>
</svg>
