<svg width="164" height="164" viewBox="0 0 164 164" fill="none" xmlns="http://www.w3.org/2000/svg">
<path d="M31.5 54.8491C31.5 53.5986 32.1671 52.4432 33.25 51.818L80.2115 24.7047C81.2944 24.0795 82.6286 24.0795 83.7115 24.7047L130.673 51.818C131.756 52.4432 132.423 53.5986 132.423 54.8491L132.423 109.076C132.423 110.326 131.756 111.481 130.673 112.107L83.7115 139.22C82.6286 139.845 81.2944 139.845 80.2115 139.22L33.25 112.107C32.1671 111.481 31.5 110.326 31.5 109.076L31.5 54.8491Z" stroke="#13AFB6" stroke-width="3"/>
<path d="M47.46 89.9679H51.5745L57.4145 99.1543C57.68 99.6869 58.2109 99.9531 58.8745 99.9531H105.86C106.391 99.9531 106.922 99.6869 107.187 99.1543L113.16 89.9679H117.275C118.204 89.9679 119 89.1691 119 88.2371C119 87.3052 118.204 86.5064 117.275 86.5064C117.142 86.5064 110.24 86.5064 110.638 86.5064C109.842 73.7253 99.8873 63.2076 87.1455 61.7431C88.4727 58.4147 85.9509 54.9531 82.5 54.9531C79.0491 54.9531 76.5273 58.5478 77.8545 61.7431C65.1127 63.2076 55.1582 73.5922 54.3618 86.5064C54.2291 86.5064 47.3273 86.5064 47.7255 86.5064C46.7964 86.5064 46 87.3052 46 88.2371C46 89.1691 46.5309 89.9679 47.46 89.9679ZM104.798 96.6247H59.6709L55.4236 89.9679H109.045L104.798 96.6247ZM82.2345 58.2815C83.1636 58.2815 83.96 59.0803 83.96 60.0123C83.96 60.9442 83.1636 61.7431 82.2345 61.7431C81.3055 61.7431 80.5091 60.9442 80.5091 60.0123C80.5091 59.0803 81.3055 58.2815 82.2345 58.2815ZM80.6418 64.9383H83.96C96.1709 64.9383 106.258 74.5241 107.055 86.6395H57.4145C58.3436 74.5241 68.4309 64.9383 80.6418 64.9383Z" fill="#13AFB6"/>
<path d="M77.3236 69.9975C70.0236 69.9975 64.0509 77.9857 64.0509 83.3111C64.0509 84.2431 64.8473 85.0419 65.7764 85.0419C66.7055 85.0419 67.5018 84.2431 67.5018 83.3111C67.5018 81.5803 68.6964 78.9176 70.5545 76.9206C71.7491 75.5892 74.2709 73.3259 77.5891 73.3259C78.5182 73.3259 79.3145 72.5271 79.3145 71.5951C79.3145 70.6632 78.2527 69.9975 77.3236 69.9975Z" fill="#13AFB6"/>
</svg>
