<svg width="164" height="164" viewBox="0 0 164 164" fill="none" xmlns="http://www.w3.org/2000/svg">
<path d="M31.5 54.8491C31.5 53.5986 32.1671 52.4432 33.25 51.818L80.2115 24.7047C81.2944 24.0795 82.6286 24.0795 83.7115 24.7047L130.673 51.818C131.756 52.4432 132.423 53.5986 132.423 54.8491L132.423 109.076C132.423 110.326 131.756 111.481 130.673 112.107L83.7115 139.22C82.6286 139.845 81.2944 139.845 80.2115 139.22L33.25 112.107C32.1671 111.481 31.5 110.326 31.5 109.076L31.5 54.8491Z" stroke="#13AFB6" stroke-width="3"/>
<path d="M103.39 74.0895L83.2277 53.4645C82.8831 53.1236 82.4522 52.9531 81.9353 52.9531H81.6768C80.9013 52.9531 80.2982 53.4645 80.0397 54.1463L60.6528 74.0895L60.5667 74.1747C57.6371 77.5838 56 82.1009 56 86.8736C56 91.6463 57.6371 96.1633 60.5667 99.5724C63.5824 103.067 67.5459 104.942 71.8541 104.942C74.7837 104.942 77.6271 104.004 80.1258 102.3V111.249C80.1258 112.186 80.9013 112.953 81.8491 112.953C82.7969 112.953 83.5724 112.186 83.5724 111.249V101.959C86.1573 103.919 89.173 104.942 92.2749 104.942C96.5831 104.942 100.547 102.982 103.562 99.5724C109.508 92.5838 109.508 81.1634 103.39 74.0895C103.447 74.1463 103.447 74.1463 103.39 74.0895ZM71.1648 68.2088L79.9535 76.902V90.027L64.7025 74.8565L71.1648 68.2088ZM83.4862 72.2145V58.5781L90.5516 65.8224L83.4862 72.2145ZM80.0397 72.1293L73.5774 65.7372L80.0397 59.0895V72.1293ZM83.4862 76.902L92.9642 68.294L99.5126 74.9418L83.4862 90.1122V76.902ZM71.8541 101.618C68.5799 101.618 65.5642 100.084 63.2377 97.4418C60.8252 94.6293 59.5327 90.9645 59.5327 86.9588C59.5327 83.4645 60.5667 80.1406 62.4623 77.4986L80.0397 94.8849V97.7827C77.7994 100.254 74.8698 101.618 71.8541 101.618ZM100.891 97.3565C98.5648 100.084 95.463 101.533 92.2749 101.533C89.0868 101.533 85.985 99.9986 83.6585 97.3565L83.5724 97.2713V94.7997L101.839 77.4986C105.803 83.3793 105.544 91.9872 100.891 97.3565Z" fill="#13AFB6"/>
</svg>
