<svg width="365" height="390" viewBox="0 0 365 390" fill="none" xmlns="http://www.w3.org/2000/svg">
    <g filter="url(#filter0_d_2007_24)">
        <path
            d="M325 21.7753C336.046 21.7753 345 30.7296 345 41.7753L345 340C345 351.046 336.046 360 325 360L40 360C28.9543 360 20 351.046 20 340L20 41.7753C20 30.7296 28.9543 21.7753 40 21.7753L153.776 21.7753C157.092 21.7753 160.357 20.9507 163.275 19.3757L177.751 11.5632C180.715 9.96347 184.285 9.96347 187.249 11.5633L201.725 19.3757C204.643 20.9507 207.908 21.7753 211.224 21.7753L325 21.7753Z"
            fill="url(#paint0_linear_2007_24)" />
    </g>
    <line opacity="0.5" x1="58" y1="105.5" x2="308" y2="105.5" stroke="white" />
    <line opacity="0.5" x1="58" y1="197.5" x2="308" y2="197.5" stroke="white" />
    <path
        d="M58.516 120.14H64.444L60.976 128H59.068L61.84 121.688H58.516V120.14ZM74.7033 119.732V128H73.1313L70.2513 122.996V128H68.4993V119.732H70.1073L72.9393 124.676V119.732H74.7033ZM76.6439 119.732H78.3959V128H76.6439V119.732ZM87.1993 120.992L85.9033 122.108C85.4073 121.548 84.8033 121.268 84.0913 121.268C83.3953 121.268 82.8073 121.524 82.3273 122.036C81.8553 122.548 81.6193 123.164 81.6193 123.884C81.6193 124.604 81.8593 125.224 82.3393 125.744C82.8193 126.256 83.4033 126.512 84.0913 126.512C84.5713 126.512 85.0233 126.38 85.4473 126.116C85.8713 125.844 86.0873 125.5 86.0953 125.084H83.8753V123.656H88.1233C88.1233 125.152 87.7593 126.272 87.0313 127.016C86.3113 127.752 85.3313 128.12 84.0913 128.12C82.9073 128.12 81.9033 127.708 81.0793 126.884C80.2633 126.052 79.8553 125.052 79.8553 123.884C79.8553 122.708 80.2633 121.708 81.0793 120.884C81.9033 120.052 82.9073 119.636 84.0913 119.636C84.7153 119.636 85.2953 119.756 85.8313 119.996C86.3753 120.236 86.8313 120.568 87.1993 120.992ZM94.0976 119.732H95.8736V128H94.0976V124.676H91.1576V128H89.4056V119.732H91.1576V123.104H94.0976V119.732ZM97.1837 121.316V119.732H103.424V121.316H101.192V128H99.4157V121.316H97.1837ZM104.29 125.576H106.054C106.07 125.856 106.186 126.092 106.402 126.284C106.618 126.476 106.914 126.572 107.29 126.572C107.65 126.572 107.938 126.492 108.154 126.332C108.378 126.172 108.494 125.96 108.502 125.696C108.51 125.488 108.442 125.308 108.298 125.156C108.162 125.004 107.898 124.872 107.506 124.76L106.51 124.484C105.086 124.044 104.374 123.252 104.374 122.108C104.374 121.38 104.646 120.788 105.19 120.332C105.734 119.868 106.41 119.636 107.218 119.636C108.034 119.636 108.702 119.864 109.222 120.32C109.75 120.776 110.014 121.392 110.014 122.168H108.262C108.262 121.888 108.17 121.664 107.986 121.496C107.802 121.32 107.538 121.232 107.194 121.232C106.882 121.232 106.626 121.312 106.426 121.472C106.226 121.624 106.126 121.82 106.126 122.06C106.126 122.452 106.422 122.732 107.014 122.9L107.998 123.212C109.55 123.66 110.306 124.492 110.266 125.708C110.258 126.228 110.106 126.68 109.81 127.064C109.514 127.44 109.146 127.712 108.706 127.88C108.274 128.048 107.802 128.132 107.29 128.132C106.394 128.132 105.67 127.896 105.118 127.424C104.566 126.944 104.29 126.328 104.29 125.576ZM63.724 146H58.612V145.088L61.84 141.26C62.12 140.94 62.26 140.644 62.26 140.372C62.26 140.156 62.172 139.972 61.996 139.82C61.82 139.668 61.58 139.592 61.276 139.592C60.98 139.592 60.732 139.696 60.532 139.904C60.332 140.104 60.208 140.364 60.16 140.684L58.624 140.42C58.744 139.668 59.048 139.076 59.536 138.644C60.024 138.204 60.636 137.984 61.372 137.984C62.084 137.984 62.688 138.208 63.184 138.656C63.688 139.104 63.94 139.676 63.94 140.372C63.94 141.076 63.664 141.74 63.112 142.364L61.3 144.416H63.724V146ZM70.2369 142.52H71.9529L71.0769 139.64L70.2369 142.52ZM72.5169 144.044H69.6609L68.9289 146H67.0569L70.1289 137.732H72.0369L75.0969 146H73.2489L72.5169 144.044ZM77.7631 139.328V144.404H79.2511C79.8831 144.404 80.3711 144.164 80.7151 143.684C81.0591 143.204 81.2311 142.604 81.2311 141.884C81.2311 141.156 81.0591 140.548 80.7151 140.06C80.3711 139.572 79.8831 139.328 79.2511 139.328H77.7631ZM79.2511 146H76.0111V137.732H79.2511C80.4111 137.732 81.3231 138.124 81.9871 138.908C82.6511 139.684 82.9831 140.676 82.9831 141.884C82.9831 143.092 82.6511 144.08 81.9871 144.848C81.3231 145.616 80.4111 146 79.2511 146ZM86.6194 144.068C86.9074 144.332 87.2434 144.464 87.6274 144.464C88.0114 144.464 88.3434 144.332 88.6234 144.068C88.9114 143.796 89.0554 143.456 89.0554 143.048V137.732H90.8194V143.048C90.8194 143.96 90.5074 144.7 89.8834 145.268C89.2594 145.836 88.5074 146.12 87.6274 146.12C86.7474 146.12 85.9914 145.836 85.3594 145.268C84.7274 144.7 84.4114 143.96 84.4114 143.048V137.732H86.1994V143.048C86.1994 143.464 86.3394 143.804 86.6194 144.068ZM92.6751 146V137.732H94.4391V144.452H97.5351V146H92.6751ZM97.4532 139.316V137.732H103.693V139.316H101.461V146H99.6852V139.316H97.4532ZM104.559 143.576H106.323C106.339 143.856 106.455 144.092 106.671 144.284C106.887 144.476 107.183 144.572 107.559 144.572C107.919 144.572 108.207 144.492 108.423 144.332C108.647 144.172 108.763 143.96 108.771 143.696C108.779 143.488 108.711 143.308 108.567 143.156C108.431 143.004 108.167 142.872 107.775 142.76L106.779 142.484C105.355 142.044 104.643 141.252 104.643 140.108C104.643 139.38 104.915 138.788 105.459 138.332C106.003 137.868 106.679 137.636 107.487 137.636C108.303 137.636 108.971 137.864 109.491 138.32C110.019 138.776 110.283 139.392 110.283 140.168H108.531C108.531 139.888 108.439 139.664 108.255 139.496C108.071 139.32 107.807 139.232 107.463 139.232C107.151 139.232 106.895 139.312 106.695 139.472C106.495 139.624 106.395 139.82 106.395 140.06C106.395 140.452 106.691 140.732 107.283 140.9L108.267 141.212C109.819 141.66 110.575 142.492 110.535 143.708C110.527 144.228 110.375 144.68 110.079 145.064C109.783 145.44 109.415 145.712 108.975 145.88C108.543 146.048 108.071 146.132 107.559 146.132C106.663 146.132 105.939 145.896 105.387 145.424C104.835 144.944 104.559 144.328 104.559 143.576ZM61.108 160.52H62.824L61.948 157.64L61.108 160.52ZM63.388 162.044H60.532L59.8 164H57.928L61 155.732H62.908L65.968 164H64.12L63.388 162.044ZM66.8822 164V155.732H68.6462V162.452H71.7422V164H66.8822ZM73.0111 164V155.732H74.7751V162.452H77.8711V164H73.0111ZM81.7298 155.732H83.4818V164H81.7298V155.732ZM91.6252 155.732V164H90.0532L87.1732 158.996V164H85.4212V155.732H87.0292L89.8612 160.676V155.732H91.6252ZM99.3018 161.324L100.718 162.308C100.35 162.868 99.8618 163.312 99.2538 163.64C98.6458 163.96 97.9738 164.12 97.2378 164.12C96.0618 164.12 95.0738 163.708 94.2738 162.884C93.4818 162.06 93.0858 161.06 93.0858 159.884C93.0858 158.7 93.4818 157.696 94.2738 156.872C95.0738 156.048 96.0618 155.636 97.2378 155.636C97.9578 155.636 98.6178 155.796 99.2178 156.116C99.8258 156.428 100.314 156.852 100.682 157.388L99.2538 158.372C98.7578 157.652 98.0858 157.292 97.2378 157.292C96.5578 157.292 95.9898 157.544 95.5338 158.048C95.0778 158.544 94.8498 159.156 94.8498 159.884C94.8498 160.604 95.0778 161.216 95.5338 161.72C95.9898 162.216 96.5578 162.464 97.2378 162.464C97.6618 162.464 98.0538 162.36 98.4138 162.152C98.7738 161.944 99.0698 161.668 99.3018 161.324ZM101.956 164V155.732H103.72V162.452H106.816V164H101.956ZM110.104 162.068C110.392 162.332 110.728 162.464 111.112 162.464C111.496 162.464 111.828 162.332 112.108 162.068C112.396 161.796 112.54 161.456 112.54 161.048V155.732H114.304V161.048C114.304 161.96 113.992 162.7 113.368 163.268C112.744 163.836 111.992 164.12 111.112 164.12C110.232 164.12 109.476 163.836 108.844 163.268C108.212 162.7 107.896 161.96 107.896 161.048V155.732H109.684V161.048C109.684 161.464 109.824 161.804 110.104 162.068ZM115.716 161.576H117.48C117.496 161.856 117.612 162.092 117.828 162.284C118.044 162.476 118.34 162.572 118.715 162.572C119.076 162.572 119.364 162.492 119.58 162.332C119.804 162.172 119.92 161.96 119.928 161.696C119.936 161.488 119.868 161.308 119.724 161.156C119.588 161.004 119.324 160.872 118.932 160.76L117.936 160.484C116.512 160.044 115.8 159.252 115.8 158.108C115.8 157.38 116.072 156.788 116.616 156.332C117.16 155.868 117.836 155.636 118.644 155.636C119.46 155.636 120.128 155.864 120.648 156.32C121.176 156.776 121.44 157.392 121.44 158.168H119.688C119.688 157.888 119.596 157.664 119.412 157.496C119.228 157.32 118.964 157.232 118.62 157.232C118.308 157.232 118.052 157.312 117.852 157.472C117.652 157.624 117.552 157.82 117.552 158.06C117.552 158.452 117.848 158.732 118.44 158.9L119.424 159.212C120.976 159.66 121.732 160.492 121.692 161.708C121.684 162.228 121.532 162.68 121.236 163.064C120.94 163.44 120.572 163.712 120.132 163.88C119.7 164.048 119.228 164.132 118.715 164.132C117.82 164.132 117.096 163.896 116.544 163.424C115.992 162.944 115.716 162.328 115.716 161.576ZM123.144 155.732H124.896V164H123.144V155.732ZM126.055 155.732H127.879L129.355 161.156L130.819 155.732H132.655L130.135 164H128.575L126.055 155.732ZM133.82 164V155.732H139.052V157.28H135.572V159.164H138.62V160.688H135.572V162.452H139.16V164H133.82ZM58.192 173.732H60.016L61.492 179.156L62.956 173.732H64.792L62.272 182H60.712L58.192 173.732ZM65.9564 173.732H67.7084V182H65.9564V173.732ZM69.6478 182V173.732H71.4118V180.452H74.5078V182H69.6478ZM75.7767 182V173.732H77.5407V180.452H80.6367V182H75.7767ZM84.0416 178.52H85.7576L84.8816 175.64L84.0416 178.52ZM86.3216 180.044H83.4656L82.7336 182H80.8616L83.9336 173.732H85.8416L88.9016 182H87.0536L86.3216 180.044ZM91.9147 179.576H93.6787C93.6947 179.856 93.8107 180.092 94.0267 180.284C94.2427 180.476 94.5387 180.572 94.9147 180.572C95.2747 180.572 95.5627 180.492 95.7787 180.332C96.0027 180.172 96.1187 179.96 96.1267 179.696C96.1347 179.488 96.0667 179.308 95.9227 179.156C95.7867 179.004 95.5227 178.872 95.1307 178.76L94.1347 178.484C92.7107 178.044 91.9987 177.252 91.9987 176.108C91.9987 175.38 92.2707 174.788 92.8147 174.332C93.3587 173.868 94.0347 173.636 94.8427 173.636C95.6587 173.636 96.3267 173.864 96.8467 174.32C97.3747 174.776 97.6387 175.392 97.6387 176.168H95.8867C95.8867 175.888 95.7947 175.664 95.6107 175.496C95.4267 175.32 95.1627 175.232 94.8187 175.232C94.5067 175.232 94.2507 175.312 94.0507 175.472C93.8507 175.624 93.7507 175.82 93.7507 176.06C93.7507 176.452 94.0467 176.732 94.6387 176.9L95.6227 177.212C97.1747 177.66 97.9307 178.492 97.8907 179.708C97.8827 180.228 97.7307 180.68 97.4347 181.064C97.1387 181.44 96.7707 181.712 96.3307 181.88C95.8987 182.048 95.4267 182.132 94.9147 182.132C94.0187 182.132 93.2947 181.896 92.7427 181.424C92.1907 180.944 91.9147 180.328 91.9147 179.576ZM98.6368 175.316V173.732H104.877V175.316H102.645V182H100.869V175.316H98.6368ZM107.667 178.52H109.383L108.507 175.64L107.667 178.52ZM109.947 180.044H107.091L106.359 182H104.487L107.559 173.732H109.467L112.527 182H110.679L109.947 180.044ZM119.645 173.732V182H118.073L115.193 176.996V182H113.441V173.732H115.049L117.881 178.676V173.732H119.645ZM123.337 175.328V180.404H124.825C125.457 180.404 125.945 180.164 126.289 179.684C126.633 179.204 126.805 178.604 126.805 177.884C126.805 177.156 126.633 176.548 126.289 176.06C125.945 175.572 125.457 175.328 124.825 175.328H123.337ZM124.825 182H121.585V173.732H124.825C125.985 173.732 126.897 174.124 127.561 174.908C128.225 175.684 128.557 176.676 128.557 177.884C128.557 179.092 128.225 180.08 127.561 180.848C126.897 181.616 125.985 182 124.825 182ZM132.077 178.52H133.793L132.917 175.64L132.077 178.52ZM134.357 180.044H131.501L130.769 182H128.897L131.969 173.732H133.877L136.937 182H135.089L134.357 180.044ZM141.151 175.28H139.615V177.608H141.103C141.423 177.608 141.675 177.488 141.859 177.248C142.051 177.008 142.147 176.74 142.147 176.444C142.147 176.156 142.055 175.892 141.871 175.652C141.695 175.404 141.455 175.28 141.151 175.28ZM141.919 179.072L143.971 182H141.859L140.011 179.144H139.615V182H137.851V173.732H141.235C142.115 173.732 142.791 174 143.263 174.536C143.743 175.064 143.983 175.7 143.983 176.444C143.983 177.076 143.807 177.636 143.455 178.124C143.103 178.612 142.591 178.928 141.919 179.072ZM147.244 175.328V180.404H148.732C149.364 180.404 149.852 180.164 150.196 179.684C150.54 179.204 150.712 178.604 150.712 177.884C150.712 177.156 150.54 176.548 150.196 176.06C149.852 175.572 149.364 175.328 148.732 175.328H147.244ZM148.732 182H145.492V173.732H148.732C149.892 173.732 150.804 174.124 151.468 174.908C152.132 175.684 152.464 176.676 152.464 177.884C152.464 179.092 152.132 180.08 151.468 180.848C150.804 181.616 149.892 182 148.732 182Z"
        fill="white" />
    <path
        d="M66.226 67.59L69.934 59.598H72.148L73.66 72H71.014L70.15 64.566L67.252 70.578H65.218L62.302 64.566L61.42 72H58.774L60.304 59.598H62.482L66.226 67.59ZM79.0975 66.78H81.6715L80.3575 62.46L79.0975 66.78ZM82.5175 69.066H78.2335L77.1355 72H74.3275L78.9355 59.598H81.7975L86.3875 72H83.6155L82.5175 69.066ZM87.7588 72V59.598H90.4048V69.678H95.0488V72H87.7588ZM99.5801 61.992V69.606H101.812C102.76 69.606 103.492 69.246 104.008 68.526C104.524 67.806 104.782 66.906 104.782 65.826C104.782 64.734 104.524 63.822 104.008 63.09C103.492 62.358 102.76 61.992 101.812 61.992H99.5801ZM101.812 72H96.9521V59.598H101.812C103.552 59.598 104.92 60.186 105.916 61.362C106.912 62.526 107.41 64.014 107.41 65.826C107.41 67.638 106.912 69.12 105.916 70.272C104.92 71.424 103.552 72 101.812 72ZM109.679 59.598H112.307V72H109.679V59.598ZM114.046 59.598H116.782L118.996 67.734L121.192 59.598H123.946L120.166 72H117.826L114.046 59.598ZM125.692 72V59.598H133.54V61.92H128.32V64.746H132.892V67.032H128.32V69.678H133.702V72H125.692ZM136.243 74.43L134.623 73.818C135.043 73.242 135.385 72.534 135.649 71.694C135.913 70.854 136.039 70.008 136.027 69.156H138.565C138.553 70.404 138.307 71.472 137.827 72.36C137.359 73.248 136.831 73.938 136.243 74.43ZM154.196 63.054C154.196 63.522 154.058 63.972 153.782 64.404C153.518 64.824 153.092 65.148 152.504 65.376C153.26 65.568 153.836 65.946 154.232 66.51C154.64 67.062 154.844 67.626 154.844 68.202C154.844 69.27 154.484 70.17 153.764 70.902C153.044 71.634 152.084 72 150.884 72H145.556V59.598H150.524C151.64 59.598 152.528 59.91 153.188 60.534C153.86 61.158 154.196 61.998 154.196 63.054ZM148.202 64.494H150.272C150.608 64.494 150.884 64.374 151.1 64.134C151.316 63.894 151.424 63.588 151.424 63.216C151.424 62.82 151.322 62.508 151.118 62.28C150.926 62.04 150.638 61.92 150.254 61.92H148.202V64.494ZM150.686 66.672H148.202V69.678H150.74C151.16 69.678 151.484 69.528 151.712 69.228C151.952 68.916 152.072 68.556 152.072 68.148C152.072 67.764 151.946 67.422 151.694 67.122C151.454 66.822 151.118 66.672 150.686 66.672ZM160.221 66.78H162.795L161.481 62.46L160.221 66.78ZM163.641 69.066H159.357L158.259 72H155.451L160.059 59.598H162.921L167.511 72H164.739L163.641 69.066ZM172.086 66.78H174.66L173.346 62.46L172.086 66.78ZM175.506 69.066H171.222L170.124 72H167.316L171.924 59.598H174.786L179.376 72H176.604L175.506 69.066ZM180.387 68.562V66.582H186.741V68.562H180.387ZM192.494 66.78H195.068L193.754 62.46L192.494 66.78ZM195.914 69.066H191.63L190.532 72H187.724L192.332 59.598H195.194L199.784 72H197.012L195.914 69.066ZM199.217 61.974V59.598H208.577V61.974H205.229V72H202.565V61.974H199.217ZM213.231 63.162C212.523 63.894 212.169 64.782 212.169 65.826C212.169 66.87 212.523 67.758 213.231 68.49C213.939 69.21 214.803 69.57 215.823 69.57C216.843 69.57 217.707 69.204 218.415 68.472C219.135 67.74 219.495 66.858 219.495 65.826C219.495 64.782 219.135 63.894 218.415 63.162C217.707 62.43 216.843 62.064 215.823 62.064C214.803 62.064 213.939 62.43 213.231 63.162ZM209.541 65.826C209.541 64.062 210.147 62.562 211.359 61.326C212.583 60.078 214.071 59.454 215.823 59.454C217.587 59.454 219.075 60.078 220.287 61.326C221.511 62.562 222.123 64.062 222.123 65.826C222.123 67.578 221.511 69.078 220.287 70.326C219.063 71.562 217.575 72.18 215.823 72.18C214.071 72.18 212.583 71.562 211.359 70.326C210.147 69.078 209.541 67.578 209.541 65.826ZM224.323 72V59.598H226.969V69.678H231.613V72H224.323ZM61.18 85.86L65.02 90H63.52L60.244 86.472V90H59.128V81.732H60.244V85.308L62.98 81.732H64.36L61.18 85.86ZM66.0655 81.732H67.1815V90H66.0655V81.732ZM75.6805 81.732V90H74.5525V86.4H70.5565V90H69.4405V81.732H70.5565V85.38H74.5525V81.732H75.6805ZM79.3166 86.892H82.0526L80.6846 83.22L79.3166 86.892ZM82.4366 87.9H78.9326L78.1286 90H76.9406L80.0846 81.732H81.2846L84.4166 90H83.2406L82.4366 87.9ZM87.051 86.892H89.787L88.419 83.22L87.051 86.892ZM90.171 87.9H86.667L85.863 90H84.675L87.819 81.732H89.019L92.151 90H90.975L90.171 87.9ZM100.624 87.804L103.54 81.732H104.56L105.568 90H104.464L103.708 83.784L101.128 89.088H100.144L97.5395 83.784L96.7835 90H95.6795L96.6875 81.732H97.7075L100.624 87.804ZM108.731 86.892H111.467L110.099 83.22L108.731 86.892ZM111.851 87.9H108.347L107.543 90H106.355L109.499 81.732H110.699L113.831 90H112.655L111.851 87.9ZM115.085 81.732H116.201V88.956H119.573V90H115.085V81.732ZM124.23 90H121.026V81.732H124.23C125.374 81.732 126.278 82.124 126.942 82.908C127.614 83.684 127.95 84.676 127.95 85.884C127.95 87.084 127.618 88.072 126.954 88.848C126.29 89.616 125.382 90 124.23 90ZM122.142 88.956H124.23C125.062 88.956 125.702 88.672 126.15 88.104C126.606 87.528 126.834 86.788 126.834 85.884C126.834 84.972 126.606 84.228 126.15 83.652C125.702 83.068 125.062 82.776 124.23 82.776H122.142V88.956ZM129.71 81.732H130.826V90H129.71V81.732ZM133.457 81.732L135.329 88.116L137.201 81.732H138.353L135.869 90H134.801L132.293 81.732H133.457ZM139.823 81.732H144.719V82.776H140.939V85.416H144.239V86.46H140.939V88.956H144.839V90H139.823V81.732ZM147.092 87.612C147.1 87.988 147.272 88.328 147.608 88.632C147.944 88.928 148.364 89.076 148.868 89.076C149.364 89.076 149.752 88.96 150.032 88.728C150.312 88.496 150.48 88.208 150.536 87.864C150.568 87.456 150.448 87.132 150.176 86.892C149.912 86.652 149.564 86.484 149.132 86.388L148.064 86.124C146.72 85.78 146.048 85.06 146.048 83.964C146.048 83.284 146.312 82.728 146.84 82.296C147.368 81.856 147.996 81.636 148.724 81.636C149.492 81.636 150.128 81.86 150.632 82.308C151.136 82.748 151.388 83.332 151.388 84.06H150.272C150.272 83.652 150.124 83.324 149.828 83.076C149.54 82.828 149.168 82.704 148.712 82.704C148.296 82.704 147.932 82.82 147.62 83.052C147.316 83.284 147.164 83.584 147.164 83.952C147.164 84.528 147.556 84.912 148.34 85.104L149.42 85.368C150.204 85.568 150.788 85.888 151.172 86.328C151.556 86.768 151.708 87.312 151.628 87.96C151.556 88.584 151.272 89.1 150.776 89.508C150.288 89.916 149.652 90.12 148.868 90.12C148.044 90.12 147.356 89.872 146.804 89.376C146.252 88.872 145.976 88.284 145.976 87.612H147.092ZM154.126 85.8L153.406 85.248L154.426 83.988L152.854 83.544L153.01 83.088C153.026 83.04 153.05 82.964 153.082 82.86C153.122 82.756 153.146 82.692 153.154 82.668L154.654 83.256L154.558 81.636H155.506L155.398 83.256C155.534 83.208 155.782 83.112 156.142 82.968C156.502 82.824 156.762 82.724 156.922 82.668L157.198 83.544L155.638 83.964L156.682 85.26L155.938 85.776L155.062 84.444L154.126 85.8ZM159.728 85.8L159.008 85.248L160.028 83.988L158.456 83.544L158.612 83.088C158.628 83.04 158.652 82.964 158.684 82.86C158.724 82.756 158.748 82.692 158.756 82.668L160.256 83.256L160.16 81.636H161.108L161 83.256C161.136 83.208 161.384 83.112 161.744 82.968C162.104 82.824 162.364 82.724 162.524 82.668L162.8 83.544L161.24 83.964L162.284 85.26L161.54 85.776L160.664 84.444L159.728 85.8ZM165.33 85.8L164.61 85.248L165.63 83.988L164.058 83.544L164.214 83.088C164.23 83.04 164.254 82.964 164.286 82.86C164.326 82.756 164.35 82.692 164.358 82.668L165.858 83.256L165.762 81.636H166.71L166.602 83.256C166.738 83.208 166.986 83.112 167.346 82.968C167.706 82.824 167.966 82.724 168.126 82.668L168.402 83.544L166.842 83.964L167.886 85.26L167.142 85.776L166.266 84.444L165.33 85.8ZM170.931 85.8L170.211 85.248L171.231 83.988L169.659 83.544L169.815 83.088C169.831 83.04 169.855 82.964 169.887 82.86C169.927 82.756 169.951 82.692 169.959 82.668L171.459 83.256L171.363 81.636H172.311L172.203 83.256C172.339 83.208 172.587 83.112 172.947 82.968C173.307 82.824 173.567 82.724 173.727 82.668L174.003 83.544L172.443 83.964L173.487 85.26L172.743 85.776L171.867 84.444L170.931 85.8Z"
        fill="white" />
    <circle cx="283.471" cy="101.471" r="50.4713" fill="url(#paint1_radial_2007_24)" />
    <path
        d="M309.724 127.26C309.724 125.927 308.804 125.25 307.452 125.25C306.494 125.25 305.367 125.626 304.748 126.603L303.301 125.851L304.316 119.297H311.527V121.701H306.4L306.081 123.692C306.55 123.26 307.302 123.053 308.335 123.053C309.48 123.053 310.438 123.429 311.208 124.161C311.978 124.894 312.353 125.927 312.353 127.26C312.353 128.593 311.884 129.683 310.964 130.528C310.043 131.373 308.804 131.786 307.283 131.786C305.574 131.786 303.884 130.791 302.926 129.307L305.142 127.88C305.611 128.631 306.513 129.157 307.283 129.157C308.691 129.157 309.724 128.293 309.724 127.26Z"
        fill="white" />
    <path
        d="M297.056 122.79L294.765 126.621H297.056V122.79ZM301.263 126.621V128.837H299.704V131.598H297.056V128.837H291.178L296.924 119.297H299.704V126.621H301.263Z"
        fill="white" />
    <path
        d="M289.49 129.119V131.598H281.49V130.171L286.542 124.18C286.974 123.673 287.199 123.222 287.199 122.79C287.199 122.114 286.617 121.57 285.659 121.57C284.739 121.57 284.063 122.283 283.913 123.279L281.509 122.865C281.884 120.518 283.5 119.053 285.809 119.053C286.918 119.053 287.875 119.41 288.645 120.105C289.434 120.8 289.828 121.701 289.828 122.79C289.828 123.898 289.396 124.931 288.533 125.908L285.697 129.119H289.49Z"
        fill="white" />
    <path
        d="M272.652 125.025H271.15V127.302H272.605C273.228 127.302 273.627 126.739 273.627 126.164C273.627 125.6 273.251 125.025 272.652 125.025ZM273.404 128.734L275.411 131.598H273.345L271.537 128.805H271.15V131.598H269.425V123.511H272.735C273.591 123.511 274.26 123.769 274.718 124.297C275.188 124.814 275.422 125.436 275.422 126.164C275.422 127.396 274.718 128.452 273.404 128.734Z"
        fill="white" />
    <path
        d="M265.884 128.711V123.511H267.609V128.711C267.609 129.603 267.304 130.33 266.694 130.882C266.084 131.434 265.344 131.715 264.487 131.715C263.63 131.715 262.891 131.434 262.269 130.882C261.647 130.33 261.342 129.603 261.342 128.711V123.511H263.091V128.711C263.091 129.121 263.231 129.45 263.501 129.708C263.783 129.967 264.112 130.096 264.487 130.096C264.863 130.096 265.192 129.967 265.462 129.708C265.743 129.438 265.884 129.11 265.884 128.711Z"
        fill="white" />
    <path
        d="M259.884 131.598H254.661V123.511H259.779V125.025H256.375V126.868H259.356V128.359H256.375V130.084H259.884V131.598Z"
        fill="white" />
    <path
        d="M305.466 113.601V105.513H310.255V106.535H306.558V109.117H309.786V110.138H306.558V112.579H310.373V113.601H305.466Z"
        fill="white" />
    <path d="M298.101 105.513H299.239L301.07 111.758L302.901 105.513H304.028L301.599 113.601H300.554L298.101 105.513Z"
        fill="white" />
    <path
        d="M294.411 106.969L293.073 110.561H295.749L294.411 106.969ZM296.911 113.601L296.125 111.547H292.697L291.911 113.601H290.749L293.824 105.513H294.998L298.061 113.601H296.911Z"
        fill="white" />
    <path
        d="M284.57 111.265H285.662C285.674 111.629 285.838 111.969 286.167 112.263C286.495 112.556 286.906 112.697 287.399 112.697C288.373 112.697 288.925 112.18 289.031 111.511C289.089 110.713 288.502 110.255 287.657 110.068L286.613 109.809C285.298 109.469 284.641 108.765 284.641 107.697C284.641 107.028 284.899 106.488 285.415 106.065C285.932 105.631 286.542 105.42 287.258 105.42C288.009 105.42 288.631 105.643 289.124 106.077C289.617 106.511 289.864 107.075 289.864 107.791H288.772C288.772 106.992 288.139 106.464 287.246 106.464C286.836 106.464 286.484 106.582 286.178 106.805C285.885 107.028 285.732 107.321 285.732 107.685C285.732 108.248 286.12 108.624 286.883 108.812L287.939 109.07C289.477 109.457 290.251 110.338 290.099 111.605C290.028 112.216 289.747 112.72 289.265 113.119C288.784 113.518 288.162 113.718 287.399 113.718C286.589 113.718 285.92 113.471 285.38 112.99C284.84 112.497 284.57 111.922 284.57 111.265Z"
        fill="white" />
    <path
        d="M278.79 110.819V105.513H279.893V110.819C279.893 111.676 279.599 112.38 279.024 112.92C278.449 113.448 277.757 113.718 276.935 113.718C276.113 113.718 275.409 113.448 274.834 112.92C274.259 112.38 273.977 111.676 273.977 110.819V105.513H275.081V110.819C275.081 111.359 275.257 111.805 275.62 112.145C275.984 112.486 276.419 112.662 276.935 112.662C277.451 112.662 277.886 112.486 278.25 112.145C278.614 111.805 278.79 111.359 278.79 110.819Z"
        fill="white" />
    <path
        d="M264.189 109.575C264.189 108.413 264.588 107.438 265.375 106.628C266.161 105.819 267.135 105.42 268.274 105.42C269.424 105.42 270.398 105.819 271.185 106.628C271.983 107.438 272.382 108.413 272.382 109.575C272.382 110.725 271.983 111.699 271.185 112.509C270.398 113.319 269.424 113.718 268.274 113.718C267.135 113.718 266.161 113.319 265.375 112.509C264.588 111.699 264.189 110.725 264.189 109.575ZM268.274 106.476C267.441 106.476 266.725 106.781 266.149 107.38C265.574 107.978 265.281 108.718 265.281 109.575C265.281 110.431 265.563 111.171 266.138 111.77C266.713 112.368 267.429 112.662 268.274 112.662C269.119 112.662 269.835 112.368 270.41 111.77C270.985 111.171 271.279 110.431 271.279 109.575C271.279 108.718 270.985 107.978 270.41 107.38C269.835 106.781 269.119 106.476 268.274 106.476Z"
        fill="white" />
    <path
        d="M260.974 109.88V113.601H259.847V109.88L256.784 105.513H258.087L260.411 108.788L262.758 105.513H264.073L260.974 109.88Z"
        fill="white" />
    <path
        d="M312.196 73.2392L303.125 91.6906H301.181L310.252 73.2392H312.196ZM301.773 73.042C302.815 73.042 303.689 73.4082 304.421 74.1406C305.182 74.873 305.548 75.7745 305.548 76.8168C305.548 77.8591 305.182 78.7605 304.449 79.4929C303.717 80.1972 302.815 80.5634 301.773 80.5634C300.731 80.5634 299.829 80.1972 299.097 79.4929C298.393 78.7605 298.026 77.8591 298.026 76.8168C298.026 75.7745 298.393 74.873 299.097 74.1406C299.829 73.4082 300.731 73.042 301.773 73.042ZM301.773 78.2816C302.59 78.2816 303.266 77.6337 303.266 76.8168C303.266 75.9998 302.59 75.3238 301.773 75.3238C300.956 75.3238 300.308 75.9998 300.308 76.8168C300.308 77.6337 300.9 78.2816 301.773 78.2816ZM311.745 84.4509C312.787 84.4509 313.661 84.8171 314.393 85.5777C315.154 86.3101 315.52 87.1834 315.52 88.2256C315.52 89.2679 315.154 90.1694 314.421 90.9018C313.689 91.606 312.787 91.9723 311.745 91.9723C310.703 91.9723 309.801 91.606 309.069 90.9018C308.365 90.1694 307.999 89.2679 307.999 88.2256C307.999 87.1834 308.365 86.2819 309.069 85.5495C309.801 84.8171 310.703 84.4509 311.745 84.4509ZM310.28 88.2256C310.28 89.0989 310.872 89.6905 311.745 89.6905C313.041 89.6905 313.773 88.0848 312.787 87.1834C311.886 86.1974 310.28 86.9298 310.28 88.2256Z"
        fill="white" />
    <path d="M282.736 76.8731V73.2392H296.651L288.51 91.6906H284.031L290.539 76.8731H282.736Z" fill="white" />
    <path
        d="M273.931 78.4788L270.494 84.2255H273.931V78.4788ZM280.241 84.2255V87.5496H277.903V91.6906H273.931V87.5496H265.113L273.733 73.2392H277.903V84.2255H280.241Z"
        fill="white" />
    <path d="M262.871 86.3101H252.927V83.2114H262.871V86.3101Z" fill="white" />
    <path fill-rule="evenodd" clip-rule="evenodd"
        d="M256.475 97.9506L311.25 97.9506V99.5156L256.475 99.5156L256.475 97.9506Z" fill="white" />
    <path
        d="M92.406 220.706L96.78 211.598H98.31L99.822 224H98.166L97.032 214.676L93.162 222.632H91.686L87.78 214.676L86.646 224H84.99L86.502 211.598H88.032L92.406 220.706ZM104.567 219.338H108.671L106.619 213.83L104.567 219.338ZM109.247 220.85H103.991L102.785 224H101.003L105.719 211.598H107.519L112.217 224H110.453L109.247 220.85ZM119.3 219.302L122.612 224H120.578L117.374 219.356H115.79V224H114.098V211.598H118.868C120.092 211.598 121.01 211.976 121.622 212.732C122.234 213.488 122.54 214.406 122.54 215.486C122.54 216.494 122.27 217.358 121.73 218.078C121.202 218.798 120.392 219.206 119.3 219.302ZM118.814 213.164H115.79V217.79H118.742C119.45 217.79 119.972 217.568 120.308 217.124C120.644 216.68 120.812 216.134 120.812 215.486C120.812 214.85 120.644 214.304 120.308 213.848C119.984 213.392 119.486 213.164 118.814 213.164ZM128.321 217.79L134.081 224H131.831L126.917 218.708V224H125.243V211.598H126.917V216.962L131.021 211.598H133.091L128.321 217.79ZM135.649 211.598H142.993V213.164H137.323V217.124H142.273V218.69H137.323V222.434H143.173V224H135.649V211.598ZM144.639 211.598H153.855V213.182H150.093V224H148.401V213.182H144.639V211.598ZM160.206 211.598H165.156C166.38 211.598 167.298 211.976 167.91 212.732C168.534 213.488 168.846 214.406 168.846 215.486C168.846 216.566 168.534 217.484 167.91 218.24C167.298 218.984 166.38 219.356 165.156 219.356H161.898V224H160.206V211.598ZM165.138 213.164H161.898V217.79H165.048C165.756 217.79 166.284 217.568 166.632 217.124C166.992 216.668 167.172 216.122 167.172 215.486C167.172 214.85 166.998 214.304 166.65 213.848C166.314 213.392 165.81 213.164 165.138 213.164ZM176.324 219.302L179.636 224H177.602L174.398 219.356H172.814V224H171.122V211.598H175.892C177.116 211.598 178.034 211.976 178.646 212.732C179.258 213.488 179.564 214.406 179.564 215.486C179.564 216.494 179.294 217.358 178.754 218.078C178.226 218.798 177.416 219.206 176.324 219.302ZM175.838 213.164H172.814V217.79H175.766C176.474 217.79 176.996 217.568 177.332 217.124C177.668 216.68 177.836 216.134 177.836 215.486C177.836 214.85 177.668 214.304 177.332 213.848C177.008 213.392 176.51 213.164 175.838 213.164ZM182.266 211.598H183.94V224H182.266V211.598ZM196.239 220.976L197.499 222.038C196.935 222.71 196.245 223.238 195.429 223.622C194.625 223.994 193.749 224.18 192.801 224.18C191.049 224.18 189.561 223.562 188.337 222.326C187.125 221.09 186.519 219.59 186.519 217.826C186.519 216.062 187.125 214.562 188.337 213.326C189.561 212.078 191.049 211.454 192.801 211.454C193.737 211.454 194.607 211.64 195.411 212.012C196.215 212.384 196.899 212.9 197.463 213.56L196.203 214.604C195.267 213.584 194.133 213.074 192.801 213.074C191.505 213.074 190.413 213.536 189.525 214.46C188.637 215.384 188.193 216.506 188.193 217.826C188.193 219.146 188.637 220.268 189.525 221.192C190.413 222.104 191.505 222.56 192.801 222.56C194.193 222.56 195.339 222.032 196.239 220.976ZM199.616 211.598H206.96V213.164H201.29V217.124H206.24V218.69H201.29V222.434H207.14V224H199.616V211.598ZM209.686 223.874C209.458 223.658 209.344 223.388 209.344 223.064C209.344 222.74 209.458 222.47 209.686 222.254C209.926 222.038 210.208 221.93 210.532 221.93C210.856 221.93 211.132 222.038 211.36 222.254C211.588 222.47 211.702 222.74 211.702 223.064C211.702 223.388 211.588 223.658 211.36 223.874C211.132 224.078 210.856 224.18 210.532 224.18C210.208 224.18 209.926 224.078 209.686 223.874ZM209.686 217.34C209.458 217.124 209.344 216.854 209.344 216.53C209.344 216.206 209.458 215.942 209.686 215.738C209.926 215.522 210.208 215.414 210.532 215.414C210.856 215.414 211.132 215.522 211.36 215.738C211.588 215.942 211.702 216.206 211.702 216.53C211.702 216.854 211.588 217.124 211.36 217.34C211.132 217.556 210.856 217.664 210.532 217.664C210.208 217.664 209.926 217.556 209.686 217.34ZM219.303 211.598H226.647V213.164H220.977V217.124H225.927V218.69H220.977V222.434H226.827V224H219.303V211.598ZM231.875 221.768C232.427 222.296 233.099 222.56 233.891 222.56C234.683 222.56 235.355 222.296 235.907 221.768C236.459 221.24 236.735 220.562 236.735 219.734V211.598H238.427V219.734C238.427 221.054 237.983 222.128 237.095 222.956C236.219 223.772 235.151 224.18 233.891 224.18C232.631 224.18 231.557 223.772 230.669 222.956C229.793 222.128 229.355 221.054 229.355 219.734V211.598H231.047V219.734C231.047 220.562 231.323 221.24 231.875 221.768ZM246.882 219.302L250.194 224H248.16L244.956 219.356H243.372V224H241.68V211.598H246.45C247.674 211.598 248.592 211.976 249.204 212.732C249.816 213.488 250.122 214.406 250.122 215.486C250.122 216.494 249.852 217.358 249.312 218.078C248.784 218.798 247.974 219.206 246.882 219.302ZM246.396 213.164H243.372V217.79H246.324C247.032 217.79 247.554 217.568 247.89 217.124C248.226 216.68 248.394 216.134 248.394 215.486C248.394 214.85 248.226 214.304 247.89 213.848C247.566 213.392 247.068 213.164 246.396 213.164ZM263.999 221.588V224H262.397V221.588H256.277L262.793 212.246H263.999V220.058H265.691V221.588H263.999ZM259.031 220.058H262.397V215.162L259.031 220.058ZM269.125 214.766L267.919 213.812C268.243 213.248 268.711 212.81 269.323 212.498C269.935 212.174 270.601 212.036 271.321 212.084C272.269 212.132 273.049 212.48 273.661 213.128C274.285 213.764 274.585 214.502 274.561 215.342C274.561 215.57 274.525 215.81 274.453 216.062C274.237 216.77 273.811 217.304 273.175 217.664C273.763 217.88 274.231 218.3 274.579 218.924C274.939 219.548 275.089 220.184 275.029 220.832C274.945 221.828 274.477 222.65 273.625 223.298C272.785 223.946 271.819 224.228 270.727 224.144C269.959 224.096 269.263 223.85 268.639 223.406C268.015 222.95 267.547 222.38 267.235 221.696L268.657 220.922C268.849 221.342 269.149 221.708 269.557 222.02C269.965 222.332 270.397 222.506 270.853 222.542H270.835C271.495 222.578 272.077 222.41 272.581 222.038C273.097 221.654 273.367 221.18 273.391 220.616C273.403 220.052 273.181 219.56 272.725 219.14C272.281 218.72 271.747 218.51 271.123 218.51H269.791V216.944H271.123C271.531 216.956 271.885 216.836 272.185 216.584C272.485 216.32 272.671 215.99 272.743 215.594C272.827 215.102 272.761 214.7 272.545 214.388C272.269 213.968 271.813 213.74 271.177 213.704C270.337 213.632 269.653 213.986 269.125 214.766ZM278.758 214.766L277.552 213.812C277.876 213.248 278.344 212.81 278.956 212.498C279.568 212.174 280.234 212.036 280.954 212.084C281.902 212.132 282.682 212.48 283.294 213.128C283.918 213.764 284.218 214.502 284.194 215.342C284.194 215.57 284.158 215.81 284.086 216.062C283.87 216.77 283.444 217.304 282.808 217.664C283.396 217.88 283.864 218.3 284.212 218.924C284.572 219.548 284.722 220.184 284.662 220.832C284.578 221.828 284.11 222.65 283.258 223.298C282.418 223.946 281.452 224.228 280.36 224.144C279.592 224.096 278.896 223.85 278.272 223.406C277.648 222.95 277.18 222.38 276.868 221.696L278.29 220.922C278.482 221.342 278.782 221.708 279.19 222.02C279.598 222.332 280.03 222.506 280.486 222.542H280.468C281.128 222.578 281.71 222.41 282.214 222.038C282.73 221.654 283 221.18 283.024 220.616C283.036 220.052 282.814 219.56 282.358 219.14C281.914 218.72 281.38 218.51 280.756 218.51H279.424V216.944H280.756C281.164 216.956 281.518 216.836 281.818 216.584C282.118 216.32 282.304 215.99 282.376 215.594C282.46 215.102 282.394 214.7 282.178 214.388C281.902 213.968 281.446 213.74 280.81 213.704C279.97 213.632 279.286 213.986 278.758 214.766ZM294.961 212.246L288.517 224H286.627L292.225 213.848H286.843V212.246H294.961Z"
        fill="white" />
    <g filter="url(#filter1_d_2007_24)">
        <rect x="58" y="240" width="250" height="80.4688" rx="20" fill="white" />
    </g>
    <path
        d="M86.1309 279.75V263.214H96.5949V266.31H89.6349V270.078H95.7309V273.126H89.6349V276.654H96.8109V279.75H86.1309ZM104.207 275.886C104.783 276.414 105.455 276.678 106.223 276.678C106.991 276.678 107.655 276.414 108.215 275.886C108.791 275.342 109.079 274.662 109.079 273.846V263.214H112.607V273.846C112.607 275.67 111.983 277.15 110.735 278.286C109.487 279.422 107.983 279.99 106.223 279.99C104.463 279.99 102.951 279.422 101.687 278.286C100.423 277.15 99.791 275.67 99.791 273.846V263.214H103.367V273.846C103.367 274.678 103.647 275.358 104.207 275.886ZM122.918 266.31H119.846V270.966H122.822C123.462 270.966 123.966 270.726 124.334 270.246C124.718 269.766 124.91 269.23 124.91 268.638C124.91 268.062 124.726 267.534 124.358 267.054C124.006 266.558 123.526 266.31 122.918 266.31ZM124.454 273.894L128.558 279.75H124.334L120.638 274.038H119.846V279.75H116.318V263.214H123.086C124.846 263.214 126.198 263.75 127.142 264.822C128.102 265.878 128.582 267.15 128.582 268.638C128.582 269.902 128.23 271.022 127.526 271.998C126.822 272.974 125.798 273.606 124.454 273.894ZM146.963 279.75H136.739V277.926L143.195 270.27C143.755 269.63 144.035 269.038 144.035 268.494C144.035 268.062 143.859 267.694 143.507 267.39C143.155 267.086 142.675 266.934 142.067 266.934C141.475 266.934 140.979 267.142 140.579 267.558C140.179 267.958 139.931 268.478 139.835 269.118L136.763 268.59C137.003 267.086 137.611 265.902 138.587 265.038C139.563 264.158 140.787 263.718 142.259 263.718C143.683 263.718 144.891 264.166 145.883 265.062C146.891 265.958 147.395 267.102 147.395 268.494C147.395 269.902 146.843 271.23 145.739 272.478L142.115 276.582H146.963V279.75ZM150.055 271.878C150.055 266.438 152.015 263.718 155.935 263.718C157.039 263.718 157.983 263.926 158.767 264.342C159.551 264.758 160.151 265.35 160.567 266.118C160.999 266.886 161.303 267.742 161.479 268.686C161.671 269.614 161.767 270.678 161.767 271.878C161.767 273.078 161.671 274.142 161.479 275.07C161.303 275.982 160.999 276.822 160.567 277.59C160.151 278.358 159.551 278.95 158.767 279.366C157.983 279.782 157.039 279.99 155.935 279.99C152.015 279.99 150.055 277.286 150.055 271.878ZM153.415 271.878C153.415 275.11 154.255 276.726 155.935 276.726C157.583 276.726 158.407 275.11 158.407 271.878C158.407 268.614 157.583 266.982 155.935 266.982C154.255 266.982 153.415 268.614 153.415 271.878ZM164.18 264.03H176.036L169.1 279.75H165.284L170.828 267.126H164.18V264.03ZM178.389 268.11C178.389 266.894 178.861 265.862 179.805 265.014C180.765 264.15 181.909 263.718 183.237 263.718C184.565 263.718 185.709 264.15 186.669 265.014C187.629 265.862 188.109 266.894 188.109 268.11C188.109 269.182 187.725 270.062 186.957 270.75C187.645 271.15 188.189 271.702 188.589 272.406C189.005 273.094 189.213 273.862 189.213 274.71C189.213 276.198 188.629 277.454 187.461 278.478C186.309 279.486 184.901 279.99 183.237 279.99C181.573 279.99 180.157 279.486 178.989 278.478C177.837 277.454 177.261 276.198 177.261 274.71C177.261 273.862 177.461 273.094 177.861 272.406C178.261 271.702 178.813 271.15 179.517 270.75C178.765 270.03 178.389 269.15 178.389 268.11ZM180.621 274.542C180.621 275.198 180.877 275.75 181.389 276.198C181.917 276.646 182.533 276.87 183.237 276.87C183.941 276.87 184.549 276.646 185.061 276.198C185.589 275.75 185.853 275.198 185.853 274.542C185.853 273.902 185.621 273.35 185.157 272.886C184.693 272.422 184.045 272.19 183.213 272.19C182.397 272.19 181.757 272.422 181.293 272.886C180.845 273.35 180.621 273.902 180.621 274.542ZM181.629 268.206C181.629 268.638 181.765 268.998 182.037 269.286C182.325 269.574 182.725 269.718 183.237 269.718C183.749 269.718 184.141 269.574 184.413 269.286C184.701 268.998 184.845 268.638 184.845 268.206C184.845 267.806 184.701 267.462 184.413 267.174C184.125 266.886 183.733 266.742 183.237 266.742C182.741 266.742 182.349 266.886 182.061 267.174C181.773 267.462 181.629 267.806 181.629 268.206ZM203.562 274.71V278.43H201.114V274.71H197.418V272.262H201.114V268.566H203.562V272.262H207.282V274.71H203.562ZM225.76 279.75H215.536V277.926L221.992 270.27C222.552 269.63 222.832 269.038 222.832 268.494C222.832 268.062 222.656 267.694 222.304 267.39C221.952 267.086 221.472 266.934 220.864 266.934C220.272 266.934 219.776 267.142 219.376 267.558C218.976 267.958 218.728 268.478 218.632 269.118L215.56 268.59C215.8 267.086 216.408 265.902 217.384 265.038C218.36 264.158 219.584 263.718 221.056 263.718C222.48 263.718 223.688 264.166 224.68 265.062C225.688 265.958 226.192 267.102 226.192 268.494C226.192 269.902 225.64 271.23 224.536 272.478L220.912 276.582H225.76V279.75ZM246.784 267.822C246.784 268.446 246.6 269.046 246.232 269.622C245.88 270.182 245.312 270.614 244.528 270.918C245.536 271.174 246.304 271.678 246.832 272.43C247.376 273.166 247.648 273.918 247.648 274.686C247.648 276.11 247.168 277.31 246.208 278.286C245.248 279.262 243.968 279.75 242.368 279.75H235.264V263.214H241.888C243.376 263.214 244.56 263.63 245.44 264.462C246.336 265.294 246.784 266.414 246.784 267.822ZM238.792 269.742H241.552C242 269.742 242.368 269.582 242.656 269.262C242.944 268.942 243.088 268.534 243.088 268.038C243.088 267.51 242.952 267.094 242.68 266.79C242.424 266.47 242.04 266.31 241.528 266.31H238.792V269.742ZM242.104 272.646H238.792V276.654H242.176C242.736 276.654 243.168 276.454 243.472 276.054C243.792 275.638 243.952 275.158 243.952 274.614C243.952 274.102 243.784 273.646 243.448 273.246C243.128 272.846 242.68 272.646 242.104 272.646ZM257.265 266.31H254.073V270.966H257.169C257.809 270.966 258.313 270.726 258.681 270.246C259.065 269.766 259.257 269.23 259.257 268.638C259.257 268.062 259.073 267.534 258.705 267.054C258.353 266.558 257.873 266.31 257.265 266.31ZM250.545 279.75V263.214H257.337C259.113 263.214 260.465 263.75 261.393 264.822C262.321 265.878 262.785 267.15 262.785 268.638C262.785 270.126 262.321 271.398 261.393 272.454C260.465 273.51 259.113 274.038 257.337 274.038H254.073V279.75H250.545ZM269.247 267.966C268.303 268.942 267.831 270.126 267.831 271.518C267.831 272.91 268.303 274.094 269.247 275.07C270.191 276.03 271.343 276.51 272.703 276.51C274.063 276.51 275.215 276.022 276.159 275.046C277.119 274.07 277.599 272.894 277.599 271.518C277.599 270.126 277.119 268.942 276.159 267.966C275.215 266.99 274.063 266.502 272.703 266.502C271.343 266.502 270.191 266.99 269.247 267.966ZM264.327 271.518C264.327 269.166 265.135 267.166 266.751 265.518C268.383 263.854 270.367 263.022 272.703 263.022C275.055 263.022 277.039 263.854 278.655 265.518C280.287 267.166 281.103 269.166 281.103 271.518C281.103 273.854 280.287 275.854 278.655 277.518C277.023 279.166 275.039 279.99 272.703 279.99C270.367 279.99 268.383 279.166 266.751 277.518C265.135 275.854 264.327 273.854 264.327 271.518Z"
        fill="#03659C" />
    <path
        d="M273.627 309.184C282.019 318.14 293.07 320.467 298.625 320.467L183 320.467L183 293.871L246.406 293.871C260.85 293.871 266.074 301.124 273.627 309.184Z"
        fill="url(#paint2_linear_2007_24)" />
    <path
        d="M92.3735 309.184C83.9807 318.14 72.9302 320.467 67.375 320.467L183 320.467L183 293.871L119.594 293.871C105.15 293.871 99.9261 301.124 92.3735 309.184Z"
        fill="url(#paint3_linear_2007_24)" />
    <path
        d="M138.957 312H137.193V303.732H142.365V305.28H138.957V307.164H141.657V308.7H138.957V312ZM143.65 312V303.732H145.402V312H143.65ZM150.641 305.28H149.105V307.608H150.593C151.229 307.608 151.637 307.032 151.637 306.444C151.637 305.868 151.253 305.28 150.641 305.28ZM151.409 309.072L153.461 312H151.349L149.501 309.144H149.105V312H147.341V303.732H150.725C151.601 303.732 152.285 303.996 152.753 304.536C153.233 305.064 153.473 305.7 153.473 306.444C153.473 307.704 152.753 308.784 151.409 309.072ZM160.322 312H154.982V303.732H160.214V305.28H156.734V307.164H159.782V308.688H156.734V310.452H160.322V312ZM163.66 312H161.896V303.732H167.068V305.28H163.66V307.164H166.36V308.7H163.66V312ZM173.213 312H168.353V303.732H170.117V310.452H173.213V312ZM174.482 312V303.732H176.234V312H174.482ZM183.513 312H178.173V303.732H183.405V305.28H179.925V307.164H182.973V308.688H179.925V310.452H183.513V312ZM184.549 309.576H186.313C186.349 310.14 186.793 310.572 187.549 310.572C188.269 310.572 188.749 310.224 188.761 309.696C188.773 309.276 188.545 308.988 187.765 308.76L186.769 308.484C185.341 308.04 184.633 307.248 184.633 306.108C184.633 305.376 184.909 304.788 185.449 304.332C185.989 303.864 186.673 303.636 187.477 303.636C188.293 303.636 188.965 303.864 189.481 304.32C190.009 304.776 190.273 305.388 190.273 306.168H188.521C188.521 305.604 188.137 305.232 187.453 305.232C186.829 305.232 186.385 305.58 186.385 306.06C186.385 306.456 186.685 306.732 187.273 306.9L188.257 307.212C189.805 307.656 190.561 308.496 190.525 309.708C190.513 310.224 190.369 310.68 190.069 311.064C189.481 311.82 188.569 312.132 187.549 312.132C186.649 312.132 185.929 311.892 185.377 311.424C184.825 310.944 184.549 310.332 184.549 309.576ZM201.064 307.884C201.064 307.188 200.824 306.6 200.344 306.108C199.876 305.616 199.3 305.376 198.616 305.376C197.932 305.376 197.356 305.616 196.888 306.108C196.42 306.6 196.18 307.188 196.18 307.884C196.18 308.58 196.42 309.168 196.888 309.66C197.356 310.14 197.932 310.38 198.616 310.38C199.3 310.38 199.876 310.14 200.344 309.648C200.824 309.156 201.064 308.568 201.064 307.884ZM194.428 307.884C194.428 306.708 194.836 305.712 195.64 304.884C196.456 304.056 197.452 303.636 198.616 303.636C199.792 303.636 200.788 304.056 201.592 304.884C202.408 305.712 202.816 306.708 202.816 307.884C202.816 309.048 202.408 310.056 201.592 310.884C200.776 311.712 199.78 312.12 198.616 312.12C197.452 312.12 196.456 311.712 195.64 310.884C194.836 310.056 194.428 309.048 194.428 307.884ZM206.047 312H204.283V303.732H209.455V305.28H206.047V307.164H208.747V308.7H206.047V312ZM212.504 312H210.74V303.732H215.912V305.28H212.504V307.164H215.204V308.7H212.504V312ZM222.537 312H217.197V303.732H222.429V305.28H218.949V307.164H221.997V308.688H218.949V310.452H222.537V312ZM227.411 305.28H225.875V307.608H227.363C227.999 307.608 228.407 307.032 228.407 306.444C228.407 305.868 228.023 305.28 227.411 305.28ZM228.179 309.072L230.231 312H228.119L226.271 309.144H225.875V312H224.111V303.732H227.495C228.371 303.732 229.055 303.996 229.523 304.536C230.003 305.064 230.243 305.7 230.243 306.444C230.243 307.704 229.523 308.784 228.179 309.072Z"
        fill="white" />
    <circle cx="282.47" cy="101.47" r="50.47" fill="url(#paint4_radial_2007_24)" />
    <path
        d="M254.278 129.598V121.33H259.51V122.878H256.03V124.762H259.078V126.286H256.03V128.05H259.618V129.598H254.278ZM263.316 127.666C263.604 127.93 263.94 128.062 264.324 128.062C264.708 128.062 265.04 127.93 265.32 127.666C265.608 127.394 265.752 127.054 265.752 126.646V121.33H267.516V126.646C267.516 127.558 267.204 128.298 266.58 128.866C265.956 129.434 265.204 129.718 264.324 129.718C263.444 129.718 262.688 129.434 262.056 128.866C261.424 128.298 261.108 127.558 261.108 126.646V121.33H262.896V126.646C262.896 127.062 263.036 127.402 263.316 127.666ZM272.672 122.878H271.136V125.206H272.624C272.944 125.206 273.196 125.086 273.38 124.846C273.572 124.606 273.668 124.338 273.668 124.042C273.668 123.754 273.576 123.49 273.392 123.25C273.216 123.002 272.976 122.878 272.672 122.878ZM273.44 126.67L275.492 129.598H273.38L271.532 126.742H271.136V129.598H269.372V121.33H272.756C273.636 121.33 274.312 121.598 274.784 122.134C275.264 122.662 275.504 123.298 275.504 124.042C275.504 124.674 275.328 125.234 274.976 125.722C274.624 126.21 274.112 126.526 273.44 126.67ZM287.579 129.598H280.763V128.382L285.067 123.278C285.44 122.851 285.627 122.456 285.627 122.094C285.627 121.806 285.509 121.56 285.275 121.358C285.04 121.155 284.72 121.054 284.315 121.054C283.92 121.054 283.589 121.192 283.323 121.47C283.056 121.736 282.891 122.083 282.827 122.51L280.779 122.158C280.939 121.155 281.344 120.366 281.995 119.79C282.645 119.203 283.461 118.91 284.443 118.91C285.392 118.91 286.197 119.208 286.859 119.806C287.531 120.403 287.867 121.166 287.867 122.094C287.867 123.032 287.499 123.918 286.763 124.75L284.347 127.486H287.579V129.598ZM293.368 118.974V129.598H291.128V122.094L289.336 122.862V120.894L293.368 118.974ZM296.279 121.838C296.279 121.027 296.594 120.339 297.223 119.774C297.863 119.198 298.626 118.91 299.511 118.91C300.397 118.91 301.159 119.198 301.799 119.774C302.439 120.339 302.759 121.027 302.759 121.838C302.759 122.552 302.503 123.139 301.991 123.598C302.45 123.864 302.813 124.232 303.079 124.702C303.357 125.16 303.495 125.672 303.495 126.238C303.495 127.23 303.106 128.067 302.327 128.75C301.559 129.422 300.621 129.758 299.511 129.758C298.402 129.758 297.458 129.422 296.679 128.75C295.911 128.067 295.527 127.23 295.527 126.238C295.527 125.672 295.661 125.16 295.927 124.702C296.194 124.232 296.562 123.864 297.031 123.598C296.53 123.118 296.279 122.531 296.279 121.838ZM297.767 126.126C297.767 126.563 297.938 126.931 298.279 127.23C298.631 127.528 299.042 127.678 299.511 127.678C299.981 127.678 300.386 127.528 300.727 127.23C301.079 126.931 301.255 126.563 301.255 126.126C301.255 125.699 301.101 125.331 300.791 125.022C300.482 124.712 300.05 124.558 299.495 124.558C298.951 124.558 298.525 124.712 298.215 125.022C297.917 125.331 297.767 125.699 297.767 126.126ZM298.439 121.902C298.439 122.19 298.53 122.43 298.711 122.622C298.903 122.814 299.17 122.91 299.511 122.91C299.853 122.91 300.114 122.814 300.295 122.622C300.487 122.43 300.583 122.19 300.583 121.902C300.583 121.635 300.487 121.406 300.295 121.214C300.103 121.022 299.842 120.926 299.511 120.926C299.181 120.926 298.919 121.022 298.727 121.214C298.535 121.406 298.439 121.635 298.439 121.902ZM308.323 125.822C307.491 125.822 306.744 125.512 306.083 124.894C305.432 124.275 305.107 123.406 305.107 122.286C305.107 121.272 305.453 120.456 306.147 119.838C306.851 119.219 307.773 118.91 308.915 118.91C309.917 118.91 310.771 119.246 311.475 119.918C312.179 120.579 312.579 121.459 312.675 122.558C312.739 123.102 312.755 123.656 312.723 124.222C312.691 124.787 312.637 125.342 312.563 125.886C312.488 126.43 312.339 126.942 312.115 127.422C311.901 127.902 311.64 128.318 311.331 128.67C311.032 129.022 310.632 129.299 310.131 129.502C309.629 129.694 309.064 129.779 308.435 129.758C307.72 129.726 307.091 129.566 306.547 129.278C306.003 128.979 305.555 128.462 305.203 127.726L307.299 126.83C307.565 127.384 307.971 127.662 308.515 127.662C308.995 127.662 309.389 127.502 309.699 127.182C310.008 126.862 310.211 126.488 310.307 126.062C310.413 125.624 310.456 125.15 310.435 124.638C310.157 125.427 309.453 125.822 308.323 125.822ZM307.827 121.454C307.56 121.72 307.427 122.04 307.427 122.414C307.427 122.787 307.56 123.112 307.827 123.39C308.104 123.656 308.429 123.79 308.803 123.79C309.176 123.79 309.496 123.656 309.763 123.39C310.04 123.112 310.179 122.787 310.179 122.414C310.179 122.04 310.04 121.72 309.763 121.454C309.496 121.176 309.176 121.038 308.803 121.038C308.429 121.038 308.104 121.176 307.827 121.454Z"
        fill="white" />
    <path
        d="M261.411 113.643H260.355V110.156L257.484 106.064H258.705L260.883 109.133L263.083 106.064H264.315L261.411 110.156V113.643ZM264.424 109.87C264.424 108.784 264.795 107.864 265.535 107.109C266.276 106.353 267.182 105.976 268.252 105.976C269.33 105.976 270.24 106.353 270.98 107.109C271.728 107.864 272.102 108.784 272.102 109.87C272.102 110.948 271.728 111.864 270.98 112.62C270.24 113.375 269.33 113.753 268.252 113.753C267.182 113.753 266.276 113.375 265.535 112.62C264.795 111.864 264.424 110.948 264.424 109.87ZM266.261 107.813C265.719 108.377 265.447 109.063 265.447 109.87C265.447 110.676 265.715 111.362 266.25 111.927C266.793 112.484 267.46 112.763 268.252 112.763C269.044 112.763 269.712 112.484 270.254 111.927C270.797 111.362 271.068 110.676 271.068 109.87C271.068 109.063 270.797 108.377 270.254 107.813C269.712 107.248 269.044 106.966 268.252 106.966C267.468 106.966 266.804 107.248 266.261 107.813ZM275.137 112.279C275.474 112.601 275.885 112.763 276.369 112.763C276.853 112.763 277.264 112.601 277.601 112.279C277.938 111.956 278.107 111.542 278.107 111.036V106.064H279.141V111.036C279.141 111.842 278.87 112.499 278.327 113.005C277.792 113.503 277.139 113.753 276.369 113.753C275.599 113.753 274.943 113.503 274.4 113.005C273.865 112.499 273.597 111.842 273.597 111.036V106.064H274.631V111.036C274.631 111.542 274.8 111.956 275.137 112.279ZM284.548 111.454C284.555 111.798 284.713 112.11 285.021 112.389C285.329 112.66 285.714 112.796 286.176 112.796C286.63 112.796 286.986 112.689 287.243 112.477C287.499 112.264 287.653 112 287.705 111.685C287.734 111.311 287.624 111.014 287.375 110.794C287.133 110.574 286.814 110.42 286.418 110.332L285.439 110.09C284.207 109.774 283.591 109.114 283.591 108.11C283.591 107.486 283.833 106.977 284.317 106.581C284.801 106.177 285.376 105.976 286.044 105.976C286.748 105.976 287.331 106.181 287.793 106.592C288.255 106.995 288.486 107.53 288.486 108.198H287.463C287.463 107.824 287.327 107.523 287.056 107.296C286.792 107.068 286.451 106.955 286.033 106.955C285.651 106.955 285.318 107.061 285.032 107.274C284.753 107.486 284.614 107.761 284.614 108.099C284.614 108.627 284.973 108.979 285.692 109.155L286.682 109.397C287.4 109.58 287.936 109.873 288.288 110.277C288.64 110.68 288.779 111.179 288.706 111.773C288.64 112.345 288.379 112.818 287.925 113.192C287.477 113.566 286.894 113.753 286.176 113.753C285.42 113.753 284.79 113.525 284.284 113.071C283.778 112.609 283.525 112.07 283.525 111.454H284.548ZM291.493 110.794H294.001L292.747 107.428L291.493 110.794ZM294.353 111.718H291.141L290.404 113.643H289.315L292.197 106.064H293.297L296.168 113.643H295.09L294.353 111.718ZM297.272 106.064L298.988 111.916L300.704 106.064H301.76L299.483 113.643H298.504L296.205 106.064H297.272ZM303.108 106.064H307.596V107.021H304.131V109.441H307.156V110.398H304.131V112.686H307.706V113.643H303.108V106.064Z"
        fill="white" />
    <path
        d="M254.461 86.118V83.258H263.639V86.118H254.461ZM275.745 85.078C275.745 84.1593 275.45 83.466 274.861 82.998C274.289 82.53 273.535 82.296 272.599 82.296C271.94 82.296 271.255 82.4433 270.545 82.738C269.851 83.0153 269.288 83.492 268.855 84.168L266.853 83.128L268.257 74.054H278.241V77.382H271.143L270.701 80.138C271.359 79.5487 272.399 79.254 273.821 79.254C275.415 79.254 276.741 79.7653 277.799 80.788C278.856 81.8107 279.385 83.2407 279.385 85.078C279.385 86.9153 278.743 88.4233 277.461 89.602C276.178 90.7633 274.479 91.344 272.365 91.344C271.186 91.344 270.051 91.032 268.959 90.408C267.867 89.7667 266.991 88.9347 266.333 87.912L269.401 85.936C269.73 86.456 270.172 86.8807 270.727 87.21C271.281 87.5393 271.827 87.704 272.365 87.704C273.335 87.704 274.141 87.444 274.783 86.924C275.424 86.404 275.745 85.7887 275.745 85.078ZM293.003 91.084H281.927V89.108L288.921 80.814C289.528 80.1207 289.831 79.4793 289.831 78.89C289.831 78.422 289.641 78.0233 289.259 77.694C288.878 77.3646 288.358 77.2 287.699 77.2C287.058 77.2 286.521 77.4253 286.087 77.876C285.654 78.3093 285.385 78.8727 285.281 79.566L281.953 78.994C282.213 77.3647 282.872 76.082 283.929 75.146C284.987 74.1927 286.313 73.716 287.907 73.716C289.45 73.716 290.759 74.2013 291.833 75.172C292.925 76.1426 293.471 77.382 293.471 78.89C293.471 80.4153 292.873 81.854 291.677 83.206L287.751 87.652H293.003V91.084ZM308.86 74.054H307.066L298.694 91.084H300.488L308.86 74.054ZM296.77 79.826C296.111 79.15 295.782 78.3267 295.782 77.356C295.782 76.3853 296.111 75.562 296.77 74.886C297.446 74.21 298.269 73.872 299.24 73.872C300.193 73.872 301.008 74.21 301.684 74.886C302.377 75.562 302.724 76.3853 302.724 77.356C302.724 78.3267 302.386 79.15 301.71 79.826C301.034 80.4847 300.21 80.814 299.24 80.814C298.269 80.814 297.446 80.4847 296.77 79.826ZM298.278 76.394C298.018 76.654 297.888 76.9747 297.888 77.356C297.888 77.7373 298.009 78.058 298.252 78.318C298.512 78.578 298.841 78.708 299.24 78.708C299.621 78.708 299.942 78.578 300.202 78.318C300.479 78.058 300.618 77.7373 300.618 77.356C300.618 76.9747 300.479 76.654 300.202 76.394C299.942 76.1167 299.621 75.978 299.24 75.978C298.858 75.978 298.538 76.1167 298.278 76.394ZM305.974 90.356C305.315 89.68 304.986 88.8567 304.986 87.886C304.986 86.9153 305.315 86.092 305.974 85.416C306.65 84.74 307.473 84.402 308.444 84.402C309.397 84.402 310.212 84.7487 310.888 85.442C311.581 86.118 311.928 86.9327 311.928 87.886C311.928 88.8567 311.59 89.68 310.914 90.356C310.238 91.0147 309.414 91.344 308.444 91.344C307.473 91.344 306.65 91.0147 305.974 90.356ZM307.092 87.886C307.092 88.2847 307.213 88.614 307.456 88.874C307.716 89.1167 308.045 89.238 308.444 89.238C308.825 89.238 309.146 89.108 309.406 88.848C309.683 88.588 309.822 88.2673 309.822 87.886C309.822 87.5047 309.683 87.184 309.406 86.924C309.146 86.6467 308.825 86.508 308.444 86.508C308.062 86.508 307.742 86.6467 307.482 86.924C307.222 87.184 307.092 87.5047 307.092 87.886Z"
        fill="white" />
    <line x1="311.248" y1="98.9482" x2="256.474" y2="98.9482" stroke="white" stroke-width="2" />
    <defs>
        <filter id="filter0_d_2007_24" x="0" y="0.363281" width="365" height="389.637" filterUnits="userSpaceOnUse"
            color-interpolation-filters="sRGB">
            <feFlood flood-opacity="0" result="BackgroundImageFix" />
            <feColorMatrix in="SourceAlpha" type="matrix" values="0 0 0 0 0 0 0 0 0 0 0 0 0 0 0 0 0 0 127 0"
                result="hardAlpha" />
            <feOffset dy="10" />
            <feGaussianBlur stdDeviation="10" />
            <feComposite in2="hardAlpha" operator="out" />
            <feColorMatrix type="matrix" values="0 0 0 0 0 0 0 0 0 0 0 0 0 0 0 0 0 0 0.15 0" />
            <feBlend mode="normal" in2="BackgroundImageFix" result="effect1_dropShadow_2007_24" />
            <feBlend mode="normal" in="SourceGraphic" in2="effect1_dropShadow_2007_24" result="shape" />
        </filter>
        <filter id="filter1_d_2007_24" x="38" y="230" width="290" height="120.469" filterUnits="userSpaceOnUse"
            color-interpolation-filters="sRGB">
            <feFlood flood-opacity="0" result="BackgroundImageFix" />
            <feColorMatrix in="SourceAlpha" type="matrix" values="0 0 0 0 0 0 0 0 0 0 0 0 0 0 0 0 0 0 127 0"
                result="hardAlpha" />
            <feOffset dy="10" />
            <feGaussianBlur stdDeviation="10" />
            <feComposite in2="hardAlpha" operator="out" />
            <feColorMatrix type="matrix" values="0 0 0 0 0 0 0 0 0 0 0 0 0 0 0 0 0 0 0.15 0" />
            <feBlend mode="normal" in2="BackgroundImageFix" result="effect1_dropShadow_2007_24" />
            <feBlend mode="normal" in="SourceGraphic" in2="effect1_dropShadow_2007_24" result="shape" />
        </filter>
        <linearGradient id="paint0_linear_2007_24" x1="19.9999" y1="299" x2="29.8257" y2="11.0216"
            gradientUnits="userSpaceOnUse">
            <stop stop-color="#03659C" />
            <stop offset="1" stop-color="#13AFB6" />
        </linearGradient>
        <radialGradient id="paint1_radial_2007_24" cx="0" cy="0" r="1" gradientUnits="userSpaceOnUse"
            gradientTransform="translate(258.431 69.78) rotate(56.9519) scale(77.4834)">
            <stop stop-color="#FFAEB2" />
            <stop offset="0.539026" stop-color="#D5484E" />
            <stop offset="0.892787" stop-color="#B81A21" />
        </radialGradient>
        <linearGradient id="paint2_linear_2007_24" x1="242.439" y1="320.824" x2="242.439" y2="294.262"
            gradientUnits="userSpaceOnUse">
            <stop stop-color="#13AFB6" />
            <stop offset="1" stop-color="#03659C" />
        </linearGradient>
        <linearGradient id="paint3_linear_2007_24" x1="123.562" y1="320.824" x2="123.562" y2="294.262"
            gradientUnits="userSpaceOnUse">
            <stop stop-color="#13AFB6" />
            <stop offset="1" stop-color="#03659C" />
        </linearGradient>
        <radialGradient id="paint4_radial_2007_24" cx="0" cy="0" r="1" gradientUnits="userSpaceOnUse"
            gradientTransform="translate(257.431 69.7795) rotate(56.9519) scale(77.4814)">
            <stop stop-color="#FFAEB2" />
            <stop offset="0.539026" stop-color="#D5484E" />
            <stop offset="0.892787" stop-color="#B81A21" />
        </radialGradient>
    </defs>
</svg>