<svg width="365" height="390" viewBox="0 0 365 390" fill="none" xmlns="http://www.w3.org/2000/svg">
    <g filter="url(#filter0_d_2007_80)">
        <path
            d="M325 21.7753C336.046 21.7753 345 30.7296 345 41.7753L345 340C345 351.046 336.046 360 325 360L40 360C28.9543 360 20 351.046 20 340L20 41.7753C20 30.7296 28.9543 21.7753 40 21.7753L153.776 21.7753C157.092 21.7753 160.357 20.9507 163.275 19.3757L177.751 11.5632C180.715 9.96347 184.285 9.96347 187.249 11.5633L201.725 19.3757C204.643 20.9507 207.908 21.7753 211.224 21.7753L325 21.7753Z"
            fill="url(#paint0_linear_2007_80)" />
    </g>
    <line opacity="0.5" x1="58" y1="105.5" x2="308" y2="105.5" stroke="white" />
    <line opacity="0.5" x1="58" y1="197.5" x2="308" y2="197.5" stroke="white" />
    <path
        d="M58.516 120.14H64.444L60.976 128H59.068L61.84 121.688H58.516V120.14ZM74.7033 119.732V128H73.1313L70.2513 122.996V128H68.4993V119.732H70.1073L72.9393 124.676V119.732H74.7033ZM76.6439 119.732H78.3959V128H76.6439V119.732ZM87.1993 120.992L85.9033 122.108C85.4073 121.548 84.8033 121.268 84.0913 121.268C83.3953 121.268 82.8073 121.524 82.3273 122.036C81.8553 122.548 81.6193 123.164 81.6193 123.884C81.6193 124.604 81.8593 125.224 82.3393 125.744C82.8193 126.256 83.4033 126.512 84.0913 126.512C84.5713 126.512 85.0233 126.38 85.4473 126.116C85.8713 125.844 86.0873 125.5 86.0953 125.084H83.8753V123.656H88.1233C88.1233 125.152 87.7593 126.272 87.0313 127.016C86.3113 127.752 85.3313 128.12 84.0913 128.12C82.9073 128.12 81.9033 127.708 81.0793 126.884C80.2633 126.052 79.8553 125.052 79.8553 123.884C79.8553 122.708 80.2633 121.708 81.0793 120.884C81.9033 120.052 82.9073 119.636 84.0913 119.636C84.7153 119.636 85.2953 119.756 85.8313 119.996C86.3753 120.236 86.8313 120.568 87.1993 120.992ZM94.0976 119.732H95.8736V128H94.0976V124.676H91.1576V128H89.4056V119.732H91.1576V123.104H94.0976V119.732ZM97.1837 121.316V119.732H103.424V121.316H101.192V128H99.4157V121.316H97.1837ZM104.29 125.576H106.054C106.07 125.856 106.186 126.092 106.402 126.284C106.618 126.476 106.914 126.572 107.29 126.572C107.65 126.572 107.938 126.492 108.154 126.332C108.378 126.172 108.494 125.96 108.502 125.696C108.51 125.488 108.442 125.308 108.298 125.156C108.162 125.004 107.898 124.872 107.506 124.76L106.51 124.484C105.086 124.044 104.374 123.252 104.374 122.108C104.374 121.38 104.646 120.788 105.19 120.332C105.734 119.868 106.41 119.636 107.218 119.636C108.034 119.636 108.702 119.864 109.222 120.32C109.75 120.776 110.014 121.392 110.014 122.168H108.262C108.262 121.888 108.17 121.664 107.986 121.496C107.802 121.32 107.538 121.232 107.194 121.232C106.882 121.232 106.626 121.312 106.426 121.472C106.226 121.624 106.126 121.82 106.126 122.06C106.126 122.452 106.422 122.732 107.014 122.9L107.998 123.212C109.55 123.66 110.306 124.492 110.266 125.708C110.258 126.228 110.106 126.68 109.81 127.064C109.514 127.44 109.146 127.712 108.706 127.88C108.274 128.048 107.802 128.132 107.29 128.132C106.394 128.132 105.67 127.896 105.118 127.424C104.566 126.944 104.29 126.328 104.29 125.576ZM63.724 146H58.612V145.088L61.84 141.26C62.12 140.94 62.26 140.644 62.26 140.372C62.26 140.156 62.172 139.972 61.996 139.82C61.82 139.668 61.58 139.592 61.276 139.592C60.98 139.592 60.732 139.696 60.532 139.904C60.332 140.104 60.208 140.364 60.16 140.684L58.624 140.42C58.744 139.668 59.048 139.076 59.536 138.644C60.024 138.204 60.636 137.984 61.372 137.984C62.084 137.984 62.688 138.208 63.184 138.656C63.688 139.104 63.94 139.676 63.94 140.372C63.94 141.076 63.664 141.74 63.112 142.364L61.3 144.416H63.724V146ZM70.2369 142.52H71.9529L71.0769 139.64L70.2369 142.52ZM72.5169 144.044H69.6609L68.9289 146H67.0569L70.1289 137.732H72.0369L75.0969 146H73.2489L72.5169 144.044ZM77.7631 139.328V144.404H79.2511C79.8831 144.404 80.3711 144.164 80.7151 143.684C81.0591 143.204 81.2311 142.604 81.2311 141.884C81.2311 141.156 81.0591 140.548 80.7151 140.06C80.3711 139.572 79.8831 139.328 79.2511 139.328H77.7631ZM79.2511 146H76.0111V137.732H79.2511C80.4111 137.732 81.3231 138.124 81.9871 138.908C82.6511 139.684 82.9831 140.676 82.9831 141.884C82.9831 143.092 82.6511 144.08 81.9871 144.848C81.3231 145.616 80.4111 146 79.2511 146ZM86.6194 144.068C86.9074 144.332 87.2434 144.464 87.6274 144.464C88.0114 144.464 88.3434 144.332 88.6234 144.068C88.9114 143.796 89.0554 143.456 89.0554 143.048V137.732H90.8194V143.048C90.8194 143.96 90.5074 144.7 89.8834 145.268C89.2594 145.836 88.5074 146.12 87.6274 146.12C86.7474 146.12 85.9914 145.836 85.3594 145.268C84.7274 144.7 84.4114 143.96 84.4114 143.048V137.732H86.1994V143.048C86.1994 143.464 86.3394 143.804 86.6194 144.068ZM92.6751 146V137.732H94.4391V144.452H97.5351V146H92.6751ZM97.4532 139.316V137.732H103.693V139.316H101.461V146H99.6852V139.316H97.4532ZM104.559 143.576H106.323C106.339 143.856 106.455 144.092 106.671 144.284C106.887 144.476 107.183 144.572 107.559 144.572C107.919 144.572 108.207 144.492 108.423 144.332C108.647 144.172 108.763 143.96 108.771 143.696C108.779 143.488 108.711 143.308 108.567 143.156C108.431 143.004 108.167 142.872 107.775 142.76L106.779 142.484C105.355 142.044 104.643 141.252 104.643 140.108C104.643 139.38 104.915 138.788 105.459 138.332C106.003 137.868 106.679 137.636 107.487 137.636C108.303 137.636 108.971 137.864 109.491 138.32C110.019 138.776 110.283 139.392 110.283 140.168H108.531C108.531 139.888 108.439 139.664 108.255 139.496C108.071 139.32 107.807 139.232 107.463 139.232C107.151 139.232 106.895 139.312 106.695 139.472C106.495 139.624 106.395 139.82 106.395 140.06C106.395 140.452 106.691 140.732 107.283 140.9L108.267 141.212C109.819 141.66 110.575 142.492 110.535 143.708C110.527 144.228 110.375 144.68 110.079 145.064C109.783 145.44 109.415 145.712 108.975 145.88C108.543 146.048 108.071 146.132 107.559 146.132C106.663 146.132 105.939 145.896 105.387 145.424C104.835 144.944 104.559 144.328 104.559 143.576ZM65.128 160.94L66.748 155.732H68.656L65.848 164H64.468L63.304 159.656L62.164 164H60.772L57.988 155.732H59.884L61.492 160.94C61.636 160.42 62.004 159.072 62.596 156.896H64.036L65.128 160.94ZM69.6009 155.732H71.3529V164H69.6009V155.732ZM72.6563 157.316V155.732H78.8963V157.316H76.6643V164H74.8883V157.316H72.6563ZM84.8984 155.732H86.6744V164H84.8984V160.676H81.9584V164H80.2064V155.732H81.9584V159.104H84.8984V155.732ZM97.3101 158.036C97.3101 158.348 97.2181 158.648 97.0341 158.936C96.8581 159.216 96.5741 159.432 96.1821 159.584C96.6861 159.712 97.0701 159.964 97.3341 160.34C97.6061 160.708 97.7421 161.084 97.7421 161.468C97.7421 162.18 97.5021 162.78 97.0221 163.268C96.5421 163.756 95.9021 164 95.1021 164H91.5501V155.732H94.8621C95.6061 155.732 96.1981 155.94 96.6381 156.356C97.0861 156.772 97.3101 157.332 97.3101 158.036ZM93.3141 158.996H94.6941C94.9181 158.996 95.1021 158.916 95.2461 158.756C95.3901 158.596 95.4621 158.392 95.4621 158.144C95.4621 157.88 95.3941 157.672 95.2581 157.52C95.1301 157.36 94.9381 157.28 94.6821 157.28H93.3141V158.996ZM94.9701 160.448H93.3141V162.452H95.0061C95.2861 162.452 95.5021 162.352 95.6541 162.152C95.8141 161.944 95.8941 161.704 95.8941 161.432C95.8941 161.176 95.8101 160.948 95.6421 160.748C95.4821 160.548 95.2581 160.448 94.9701 160.448ZM102.491 157.28H100.955V159.608H102.443C102.763 159.608 103.015 159.488 103.199 159.248C103.391 159.008 103.487 158.74 103.487 158.444C103.487 158.156 103.395 157.892 103.211 157.652C103.035 157.404 102.795 157.28 102.491 157.28ZM103.259 161.072L105.311 164H103.199L101.351 161.144H100.955V164H99.1908V155.732H102.575C103.455 155.732 104.131 156 104.603 156.536C105.083 157.064 105.323 157.7 105.323 158.444C105.323 159.076 105.147 159.636 104.795 160.124C104.443 160.612 103.931 160.928 103.259 161.072ZM106.831 164V155.732H112.063V157.28H108.583V159.164H111.631V160.688H108.583V162.452H112.171V164H106.831ZM115.881 160.52H117.597L116.721 157.64L115.881 160.52ZM118.161 162.044H115.305L114.573 164H112.701L115.773 155.732H117.681L120.741 164H118.893L118.161 162.044ZM124.32 159.824L128.196 164H125.916L123.432 161.192V164H121.656V155.732H123.432V158.444L125.388 155.732H127.452L124.32 159.824ZM128.968 164V155.732H134.14V157.28H130.732V159.164H133.432V160.7H130.732V164H128.968ZM137.104 160.52H138.82L137.944 157.64L137.104 160.52ZM139.384 162.044H136.528L135.796 164H133.924L136.996 155.732H138.904L141.964 164H140.116L139.384 162.044ZM142.434 161.576H144.198C144.214 161.856 144.33 162.092 144.546 162.284C144.762 162.476 145.058 162.572 145.434 162.572C145.794 162.572 146.082 162.492 146.298 162.332C146.522 162.172 146.638 161.96 146.646 161.696C146.654 161.488 146.586 161.308 146.442 161.156C146.306 161.004 146.042 160.872 145.65 160.76L144.654 160.484C143.23 160.044 142.518 159.252 142.518 158.108C142.518 157.38 142.79 156.788 143.334 156.332C143.878 155.868 144.554 155.636 145.362 155.636C146.178 155.636 146.846 155.864 147.366 156.32C147.894 156.776 148.158 157.392 148.158 158.168H146.406C146.406 157.888 146.314 157.664 146.13 157.496C145.946 157.32 145.682 157.232 145.338 157.232C145.026 157.232 144.77 157.312 144.57 157.472C144.37 157.624 144.27 157.82 144.27 158.06C144.27 158.452 144.566 158.732 145.158 158.9L146.142 159.212C147.694 159.66 148.45 160.492 148.41 161.708C148.402 162.228 148.25 162.68 147.954 163.064C147.658 163.44 147.29 163.712 146.85 163.88C146.418 164.048 145.946 164.132 145.434 164.132C144.538 164.132 143.814 163.896 143.262 163.424C142.71 162.944 142.434 162.328 142.434 161.576ZM149.156 157.316V155.732H155.396V157.316H153.164V164H151.388V157.316H149.156ZM58.528 179.576H60.292C60.308 179.856 60.424 180.092 60.64 180.284C60.856 180.476 61.152 180.572 61.528 180.572C61.888 180.572 62.176 180.492 62.392 180.332C62.616 180.172 62.732 179.96 62.74 179.696C62.748 179.488 62.68 179.308 62.536 179.156C62.4 179.004 62.136 178.872 61.744 178.76L60.748 178.484C59.324 178.044 58.612 177.252 58.612 176.108C58.612 175.38 58.884 174.788 59.428 174.332C59.972 173.868 60.648 173.636 61.456 173.636C62.272 173.636 62.94 173.864 63.46 174.32C63.988 174.776 64.252 175.392 64.252 176.168H62.5C62.5 175.888 62.408 175.664 62.224 175.496C62.04 175.32 61.776 175.232 61.432 175.232C61.12 175.232 60.864 175.312 60.664 175.472C60.464 175.624 60.364 175.82 60.364 176.06C60.364 176.452 60.66 176.732 61.252 176.9L62.236 177.212C63.788 177.66 64.544 178.492 64.504 179.708C64.496 180.228 64.344 180.68 64.048 181.064C63.752 181.44 63.384 181.712 62.944 181.88C62.512 182.048 62.04 182.132 61.528 182.132C60.632 182.132 59.908 181.896 59.356 181.424C58.804 180.944 58.528 180.328 58.528 179.576ZM68.0804 180.068C68.3684 180.332 68.7044 180.464 69.0884 180.464C69.4724 180.464 69.8044 180.332 70.0844 180.068C70.3724 179.796 70.5164 179.456 70.5164 179.048V173.732H72.2804V179.048C72.2804 179.96 71.9684 180.7 71.3444 181.268C70.7204 181.836 69.9684 182.12 69.0884 182.12C68.2084 182.12 67.4524 181.836 66.8204 181.268C66.1884 180.7 65.8724 179.96 65.8724 179.048V173.732H67.6604V179.048C67.6604 179.464 67.8004 179.804 68.0804 180.068ZM77.4961 175.28H75.9001V177.608H77.4481C77.7681 177.608 78.0201 177.488 78.2041 177.248C78.3961 177.008 78.4921 176.74 78.4921 176.444C78.4921 176.156 78.4001 175.892 78.2161 175.652C78.0401 175.404 77.8001 175.28 77.4961 175.28ZM74.1361 182V173.732H77.5321C78.4201 173.732 79.0961 174 79.5601 174.536C80.0241 175.064 80.2561 175.7 80.2561 176.444C80.2561 177.188 80.0241 177.824 79.5601 178.352C79.0961 178.88 78.4201 179.144 77.5321 179.144H75.9001V182H74.1361ZM81.5072 182V173.732H86.7392V175.28H83.2592V177.164H86.3072V178.688H83.2592V180.452H86.8472V182H81.5072ZM91.7212 175.28H90.1852V177.608H91.6732C91.9932 177.608 92.2452 177.488 92.4292 177.248C92.6212 177.008 92.7172 176.74 92.7172 176.444C92.7172 176.156 92.6252 175.892 92.4412 175.652C92.2652 175.404 92.0252 175.28 91.7212 175.28ZM92.4892 179.072L94.5412 182H92.4292L90.5812 179.144H90.1852V182H88.4212V173.732H91.8052C92.6852 173.732 93.3612 174 93.8332 174.536C94.3132 175.064 94.5532 175.7 94.5532 176.444C94.5532 177.076 94.3772 177.636 94.0252 178.124C93.6732 178.612 93.1612 178.928 92.4892 179.072ZM96.0618 173.732H97.8138V182H96.0618V173.732ZM101.733 176.108C101.261 176.596 101.025 177.188 101.025 177.884C101.025 178.58 101.261 179.172 101.733 179.66C102.205 180.14 102.781 180.38 103.461 180.38C104.141 180.38 104.717 180.136 105.189 179.648C105.669 179.16 105.909 178.572 105.909 177.884C105.909 177.188 105.669 176.596 105.189 176.108C104.717 175.62 104.141 175.376 103.461 175.376C102.781 175.376 102.205 175.62 101.733 176.108ZM99.2733 177.884C99.2733 176.708 99.6773 175.708 100.485 174.884C101.301 174.052 102.293 173.636 103.461 173.636C104.637 173.636 105.629 174.052 106.437 174.884C107.253 175.708 107.661 176.708 107.661 177.884C107.661 179.052 107.253 180.052 106.437 180.884C105.621 181.708 104.629 182.12 103.461 182.12C102.293 182.12 101.301 181.708 100.485 180.884C99.6773 180.052 99.2733 179.052 99.2733 177.884ZM112.428 175.28H110.892V177.608H112.38C112.7 177.608 112.952 177.488 113.136 177.248C113.328 177.008 113.424 176.74 113.424 176.444C113.424 176.156 113.332 175.892 113.148 175.652C112.972 175.404 112.732 175.28 112.428 175.28ZM113.196 179.072L115.248 182H113.136L111.288 179.144H110.892V182H109.128V173.732H112.512C113.392 173.732 114.068 174 114.54 174.536C115.02 175.064 115.26 175.7 115.26 176.444C115.26 177.076 115.084 177.636 114.732 178.124C114.38 178.612 113.868 178.928 113.196 179.072ZM122.999 175.28H121.463V177.608H122.951C123.271 177.608 123.523 177.488 123.707 177.248C123.899 177.008 123.995 176.74 123.995 176.444C123.995 176.156 123.903 175.892 123.719 175.652C123.543 175.404 123.303 175.28 122.999 175.28ZM123.767 179.072L125.819 182H123.707L121.859 179.144H121.463V182H119.699V173.732H123.083C123.963 173.732 124.639 174 125.111 174.536C125.591 175.064 125.831 175.7 125.831 176.444C125.831 177.076 125.655 177.636 125.303 178.124C124.951 178.612 124.439 178.928 123.767 179.072ZM129.319 176.108C128.847 176.596 128.611 177.188 128.611 177.884C128.611 178.58 128.847 179.172 129.319 179.66C129.791 180.14 130.367 180.38 131.047 180.38C131.727 180.38 132.303 180.136 132.775 179.648C133.255 179.16 133.495 178.572 133.495 177.884C133.495 177.188 133.255 176.596 132.775 176.108C132.303 175.62 131.727 175.376 131.047 175.376C130.367 175.376 129.791 175.62 129.319 176.108ZM126.859 177.884C126.859 176.708 127.263 175.708 128.071 174.884C128.887 174.052 129.879 173.636 131.047 173.636C132.223 173.636 133.215 174.052 134.023 174.884C134.839 175.708 135.247 176.708 135.247 177.884C135.247 179.052 134.839 180.052 134.023 180.884C133.207 181.708 132.215 182.12 131.047 182.12C129.879 182.12 128.887 181.708 128.071 180.884C127.263 180.052 126.859 179.052 126.859 177.884ZM138.694 176.108C138.222 176.596 137.986 177.188 137.986 177.884C137.986 178.58 138.222 179.172 138.694 179.66C139.166 180.14 139.742 180.38 140.422 180.38C141.102 180.38 141.678 180.136 142.15 179.648C142.63 179.16 142.87 178.572 142.87 177.884C142.87 177.188 142.63 176.596 142.15 176.108C141.678 175.62 141.102 175.376 140.422 175.376C139.742 175.376 139.166 175.62 138.694 176.108ZM136.234 177.884C136.234 176.708 136.638 175.708 137.446 174.884C138.262 174.052 139.254 173.636 140.422 173.636C141.598 173.636 142.59 174.052 143.398 174.884C144.214 175.708 144.622 176.708 144.622 177.884C144.622 179.052 144.214 180.052 143.398 180.884C142.582 181.708 141.59 182.12 140.422 182.12C139.254 182.12 138.262 181.708 137.446 180.884C136.638 180.052 136.234 179.052 136.234 177.884ZM150.601 179.06L153.073 173.732H154.549L155.557 182H153.793L153.217 177.044L151.285 181.052H149.929L147.985 177.044L147.397 182H145.633L146.653 173.732H148.105L150.601 179.06Z"
        fill="white" />
    <path
        d="M62.086 51.992V59.606H64.318C65.266 59.606 65.998 59.246 66.514 58.526C67.03 57.806 67.288 56.906 67.288 55.826C67.288 54.734 67.03 53.822 66.514 53.09C65.998 52.358 65.266 51.992 64.318 51.992H62.086ZM64.318 62H59.458V49.598H64.318C66.058 49.598 67.426 50.186 68.422 51.362C69.418 52.526 69.916 54.014 69.916 55.826C69.916 57.638 69.418 59.12 68.422 60.272C67.426 61.424 66.058 62 64.318 62ZM75.3706 59.102C75.8026 59.498 76.3066 59.696 76.8826 59.696C77.4586 59.696 77.9566 59.498 78.3766 59.102C78.8086 58.694 79.0246 58.184 79.0246 57.572V49.598H81.6706V57.572C81.6706 58.94 81.2026 60.05 80.2666 60.902C79.3306 61.754 78.2026 62.18 76.8826 62.18C75.5626 62.18 74.4286 61.754 73.4806 60.902C72.5326 60.05 72.0586 58.94 72.0586 57.572V49.598H74.7406V57.572C74.7406 58.196 74.9506 58.706 75.3706 59.102ZM93.0941 53.054C93.0941 53.522 92.9561 53.972 92.6801 54.404C92.4161 54.824 91.9901 55.148 91.4021 55.376C92.1581 55.568 92.7341 55.946 93.1301 56.51C93.5381 57.062 93.7421 57.626 93.7421 58.202C93.7421 59.27 93.3821 60.17 92.6621 60.902C91.9421 61.634 90.9821 62 89.7821 62H84.4541V49.598H89.4221C90.5381 49.598 91.4261 49.91 92.0861 50.534C92.7581 51.158 93.0941 51.998 93.0941 53.054ZM87.1001 54.494H89.1701C89.5061 54.494 89.7821 54.374 89.9981 54.134C90.2141 53.894 90.3221 53.588 90.3221 53.216C90.3221 52.82 90.2201 52.508 90.0161 52.28C89.8241 52.04 89.5361 51.92 89.1521 51.92H87.1001V54.494ZM89.5841 56.672H87.1001V59.678H89.6381C90.0581 59.678 90.3821 59.528 90.6101 59.228C90.8501 58.916 90.9701 58.556 90.9701 58.148C90.9701 57.764 90.8441 57.422 90.5921 57.122C90.3521 56.822 90.0161 56.672 89.5841 56.672ZM99.119 56.78H101.693L100.379 52.46L99.119 56.78ZM102.539 59.066H98.255L97.157 62H94.349L98.957 49.598H101.819L106.409 62H103.637L102.539 59.066ZM107.78 49.598H110.408V62H107.78V49.598ZM65.068 77.984L65.908 78.692C65.532 79.14 65.072 79.492 64.528 79.748C63.992 79.996 63.408 80.12 62.776 80.12C61.608 80.12 60.616 79.708 59.8 78.884C58.992 78.06 58.588 77.06 58.588 75.884C58.588 74.708 58.992 73.708 59.8 72.884C60.616 72.052 61.608 71.636 62.776 71.636C63.4 71.636 63.98 71.76 64.516 72.008C65.052 72.256 65.508 72.6 65.884 73.04L65.044 73.736C64.42 73.056 63.664 72.716 62.776 72.716C61.912 72.716 61.184 73.024 60.592 73.64C60 74.256 59.704 75.004 59.704 75.884C59.704 76.764 60 77.512 60.592 78.128C61.184 78.736 61.912 79.04 62.776 79.04C63.704 79.04 64.468 78.688 65.068 77.984ZM66.7794 75.884C66.7794 74.7 67.1834 73.696 67.9914 72.872C68.7994 72.048 69.7874 71.636 70.9554 71.636C72.1314 71.636 73.1234 72.048 73.9314 72.872C74.7474 73.696 75.1554 74.7 75.1554 75.884C75.1554 77.06 74.7474 78.06 73.9314 78.884C73.1234 79.708 72.1314 80.12 70.9554 80.12C69.7874 80.12 68.7994 79.708 67.9914 78.884C67.1834 78.06 66.7794 77.06 66.7794 75.884ZM68.7834 73.64C68.1914 74.256 67.8954 75.004 67.8954 75.884C67.8954 76.764 68.1874 77.512 68.7714 78.128C69.3634 78.736 70.0914 79.04 70.9554 79.04C71.8194 79.04 72.5474 78.736 73.1394 78.128C73.7314 77.512 74.0274 76.764 74.0274 75.884C74.0274 75.004 73.7314 74.256 73.1394 73.64C72.5474 73.024 71.8194 72.716 70.9554 72.716C70.0994 72.716 69.3754 73.024 68.7834 73.64ZM76.8702 71.732H80.1702C80.9862 71.732 81.5982 71.984 82.0062 72.488C82.4222 72.992 82.6302 73.604 82.6302 74.324C82.6302 75.044 82.4222 75.656 82.0062 76.16C81.5982 76.656 80.9862 76.904 80.1702 76.904H77.9982V80H76.8702V71.732ZM80.1582 72.776H77.9982V75.86H80.0982C80.5702 75.86 80.9222 75.712 81.1542 75.416C81.3942 75.112 81.5142 74.748 81.5142 74.324C81.5142 73.9 81.3982 73.536 81.1662 73.232C80.9422 72.928 80.6062 72.776 80.1582 72.776ZM83.3555 71.732H89.4995V72.788H86.9915V80H85.8635V72.788H83.3555V71.732ZM97.2078 71.732V80H96.0798V76.4H92.0838V80H90.9678V71.732H92.0838V75.38H96.0798V71.732H97.2078ZM98.9239 75.884C98.9239 74.7 99.3279 73.696 100.136 72.872C100.944 72.048 101.932 71.636 103.1 71.636C104.276 71.636 105.268 72.048 106.076 72.872C106.892 73.696 107.3 74.7 107.3 75.884C107.3 77.06 106.892 78.06 106.076 78.884C105.268 79.708 104.276 80.12 103.1 80.12C101.932 80.12 100.944 79.708 100.136 78.884C99.3279 78.06 98.9239 77.06 98.9239 75.884ZM100.928 73.64C100.336 74.256 100.04 75.004 100.04 75.884C100.04 76.764 100.332 77.512 100.916 78.128C101.508 78.736 102.236 79.04 103.1 79.04C103.964 79.04 104.692 78.736 105.284 78.128C105.876 77.512 106.172 76.764 106.172 75.884C106.172 75.004 105.876 74.256 105.284 73.64C104.692 73.024 103.964 72.716 103.1 72.716C102.244 72.716 101.52 73.024 100.928 73.64ZM112.483 76.868L114.691 80H113.335L111.199 76.904H110.143V80H109.015V71.732H112.195C113.011 71.732 113.623 71.984 114.031 72.488C114.439 72.992 114.643 73.604 114.643 74.324C114.643 74.996 114.463 75.572 114.103 76.052C113.751 76.532 113.211 76.804 112.483 76.868ZM112.159 72.776H110.143V75.86H112.111C112.583 75.86 112.931 75.712 113.155 75.416C113.379 75.12 113.491 74.756 113.491 74.324C113.491 73.9 113.379 73.536 113.155 73.232C112.939 72.928 112.607 72.776 112.159 72.776ZM122.396 80H121.328L117.56 73.772V80H116.444V71.732H117.548L121.28 77.912V71.732H122.396V80ZM124.648 71.732H129.544V72.776H125.764V75.416H129.064V76.46H125.764V78.956H129.664V80H124.648V71.732ZM140.79 71.732V80H139.662V76.4H135.666V80H134.55V71.732H135.666V75.38H139.662V71.732H140.79ZM142.506 75.884C142.506 74.7 142.91 73.696 143.718 72.872C144.526 72.048 145.514 71.636 146.682 71.636C147.858 71.636 148.85 72.048 149.658 72.872C150.474 73.696 150.882 74.7 150.882 75.884C150.882 77.06 150.474 78.06 149.658 78.884C148.85 79.708 147.858 80.12 146.682 80.12C145.514 80.12 144.526 79.708 143.718 78.884C142.91 78.06 142.506 77.06 142.506 75.884ZM144.51 73.64C143.918 74.256 143.622 75.004 143.622 75.884C143.622 76.764 143.914 77.512 144.498 78.128C145.09 78.736 145.818 79.04 146.682 79.04C147.546 79.04 148.274 78.736 148.866 78.128C149.458 77.512 149.754 76.764 149.754 75.884C149.754 75.004 149.458 74.256 148.866 73.64C148.274 73.024 147.546 72.716 146.682 72.716C145.826 72.716 145.102 73.024 144.51 73.64ZM151.512 71.732H157.656V72.788H155.148V80H154.02V72.788H151.512V71.732ZM159.124 71.732H164.02V72.776H160.24V75.416H163.54V76.46H160.24V78.956H164.14V80H159.124V71.732ZM165.909 71.732H167.025V78.956H170.397V80H165.909V71.732ZM59.74 95.612C59.748 95.988 59.92 96.328 60.256 96.632C60.592 96.928 61.012 97.076 61.516 97.076C62.012 97.076 62.4 96.96 62.68 96.728C62.96 96.496 63.128 96.208 63.184 95.864C63.216 95.456 63.096 95.132 62.824 94.892C62.56 94.652 62.212 94.484 61.78 94.388L60.712 94.124C59.368 93.78 58.696 93.06 58.696 91.964C58.696 91.284 58.96 90.728 59.488 90.296C60.016 89.856 60.644 89.636 61.372 89.636C62.14 89.636 62.776 89.86 63.28 90.308C63.784 90.748 64.036 91.332 64.036 92.06H62.92C62.92 91.652 62.772 91.324 62.476 91.076C62.188 90.828 61.816 90.704 61.36 90.704C60.944 90.704 60.58 90.82 60.268 91.052C59.964 91.284 59.812 91.584 59.812 91.952C59.812 92.528 60.204 92.912 60.988 93.104L62.068 93.368C62.852 93.568 63.436 93.888 63.82 94.328C64.204 94.768 64.356 95.312 64.276 95.96C64.204 96.584 63.92 97.1 63.424 97.508C62.936 97.916 62.3 98.12 61.516 98.12C60.692 98.12 60.004 97.872 59.452 97.376C58.9 96.872 58.624 96.284 58.624 95.612H59.74ZM72.2469 89.732V98H71.1189V94.4H67.1229V98H66.0069V89.732H67.1229V93.38H71.1189V89.732H72.2469ZM75.883 94.892H78.619L77.251 91.22L75.883 94.892ZM79.003 95.9H75.499L74.695 98H73.507L76.651 89.732H77.851L80.983 98H79.807L79.003 95.9ZM85.7054 94.868L87.9134 98H86.5574L84.4214 94.904H83.3654V98H82.2374V89.732H85.4174C86.2334 89.732 86.8454 89.984 87.2534 90.488C87.6614 90.992 87.8654 91.604 87.8654 92.324C87.8654 92.996 87.6854 93.572 87.3254 94.052C86.9734 94.532 86.4334 94.804 85.7054 94.868ZM85.3814 90.776H83.3654V93.86H85.3334C85.8054 93.86 86.1534 93.712 86.3774 93.416C86.6014 93.12 86.7134 92.756 86.7134 92.324C86.7134 91.9 86.6014 91.536 86.3774 91.232C86.1614 90.928 85.8294 90.776 85.3814 90.776ZM87.3391 100.88L87.4471 99.824C87.6391 99.888 87.9031 99.92 88.2391 99.92C88.7271 99.92 89.0871 99.772 89.3191 99.476C89.5511 99.18 89.6671 98.796 89.6671 98.324V89.732H90.7831V98.324C90.7831 99.116 90.5751 99.76 90.1591 100.256C89.7511 100.76 89.1111 101.012 88.2391 101.012C88.0631 101.012 87.7631 100.968 87.3391 100.88ZM94.4221 94.892H97.1581L95.7901 91.22L94.4221 94.892ZM97.5421 95.9H94.0381L93.2341 98H92.0461L95.1901 89.732H96.3901L99.5221 98H98.3461L97.5421 95.9ZM107.016 89.732V98H105.888V94.4H101.892V98H100.776V89.732H101.892V93.38H105.888V89.732H107.016ZM113.158 93.8L112.438 93.248L113.458 91.988L111.886 91.544L112.042 91.088C112.058 91.04 112.082 90.964 112.114 90.86C112.154 90.756 112.178 90.692 112.186 90.668L113.686 91.256L113.59 89.636H114.538L114.43 91.256C114.566 91.208 114.814 91.112 115.174 90.968C115.534 90.824 115.794 90.724 115.954 90.668L116.23 91.544L114.67 91.964L115.714 93.26L114.97 93.776L114.094 92.444L113.158 93.8ZM118.759 93.8L118.039 93.248L119.059 91.988L117.487 91.544L117.643 91.088C117.659 91.04 117.683 90.964 117.715 90.86C117.755 90.756 117.779 90.692 117.787 90.668L119.287 91.256L119.191 89.636H120.139L120.031 91.256C120.167 91.208 120.415 91.112 120.775 90.968C121.135 90.824 121.395 90.724 121.555 90.668L121.831 91.544L120.271 91.964L121.315 93.26L120.571 93.776L119.695 92.444L118.759 93.8ZM124.361 93.8L123.641 93.248L124.661 91.988L123.089 91.544L123.245 91.088C123.261 91.04 123.285 90.964 123.317 90.86C123.357 90.756 123.381 90.692 123.389 90.668L124.889 91.256L124.793 89.636H125.741L125.633 91.256C125.769 91.208 126.017 91.112 126.377 90.968C126.737 90.824 126.997 90.724 127.157 90.668L127.433 91.544L125.873 91.964L126.917 93.26L126.173 93.776L125.297 92.444L124.361 93.8ZM129.962 93.8L129.242 93.248L130.262 91.988L128.69 91.544L128.846 91.088C128.862 91.04 128.886 90.964 128.918 90.86C128.958 90.756 128.982 90.692 128.99 90.668L130.49 91.256L130.394 89.636H131.342L131.234 91.256C131.37 91.208 131.618 91.112 131.978 90.968C132.338 90.824 132.598 90.724 132.758 90.668L133.034 91.544L131.474 91.964L132.518 93.26L131.774 93.776L130.898 92.444L129.962 93.8Z"
        fill="white" />
    <circle cx="283.471" cy="101.471" r="50.4713" fill="url(#paint1_radial_2007_80)" />
    <path
        d="M309.724 127.26C309.724 125.927 308.804 125.25 307.452 125.25C306.494 125.25 305.367 125.626 304.748 126.603L303.301 125.851L304.316 119.297H311.527V121.701H306.4L306.081 123.692C306.55 123.26 307.302 123.053 308.335 123.053C309.48 123.053 310.438 123.429 311.208 124.161C311.978 124.894 312.353 125.927 312.353 127.26C312.353 128.593 311.884 129.683 310.964 130.528C310.043 131.373 308.804 131.786 307.283 131.786C305.574 131.786 303.884 130.791 302.926 129.307L305.142 127.88C305.611 128.631 306.513 129.157 307.283 129.157C308.691 129.157 309.724 128.293 309.724 127.26Z"
        fill="white" />
    <path
        d="M297.056 122.79L294.765 126.621H297.056V122.79ZM301.263 126.621V128.837H299.704V131.598H297.056V128.837H291.178L296.924 119.297H299.704V126.621H301.263Z"
        fill="white" />
    <path
        d="M289.49 129.119V131.598H281.49V130.171L286.542 124.18C286.974 123.673 287.199 123.222 287.199 122.79C287.199 122.114 286.617 121.57 285.659 121.57C284.739 121.57 284.063 122.283 283.913 123.279L281.509 122.865C281.884 120.518 283.5 119.053 285.809 119.053C286.918 119.053 287.875 119.41 288.645 120.105C289.434 120.8 289.828 121.701 289.828 122.79C289.828 123.898 289.396 124.931 288.533 125.908L285.697 129.119H289.49Z"
        fill="white" />
    <path
        d="M272.652 125.025H271.15V127.302H272.605C273.228 127.302 273.627 126.739 273.627 126.164C273.627 125.6 273.251 125.025 272.652 125.025ZM273.404 128.734L275.411 131.598H273.345L271.537 128.805H271.15V131.598H269.425V123.511H272.735C273.591 123.511 274.26 123.769 274.718 124.297C275.188 124.814 275.422 125.436 275.422 126.164C275.422 127.396 274.718 128.452 273.404 128.734Z"
        fill="white" />
    <path
        d="M265.884 128.711V123.511H267.609V128.711C267.609 129.603 267.304 130.33 266.694 130.882C266.084 131.434 265.344 131.715 264.487 131.715C263.63 131.715 262.891 131.434 262.269 130.882C261.647 130.33 261.342 129.603 261.342 128.711V123.511H263.091V128.711C263.091 129.121 263.231 129.45 263.501 129.708C263.783 129.967 264.112 130.096 264.487 130.096C264.863 130.096 265.192 129.967 265.462 129.708C265.743 129.438 265.884 129.11 265.884 128.711Z"
        fill="white" />
    <path
        d="M259.884 131.598H254.661V123.511H259.779V125.025H256.375V126.868H259.356V128.359H256.375V130.084H259.884V131.598Z"
        fill="white" />
    <path
        d="M305.466 113.601V105.513H310.255V106.535H306.558V109.117H309.786V110.138H306.558V112.579H310.373V113.601H305.466Z"
        fill="white" />
    <path d="M298.101 105.513H299.239L301.07 111.758L302.901 105.513H304.028L301.599 113.601H300.554L298.101 105.513Z"
        fill="white" />
    <path
        d="M294.411 106.969L293.073 110.561H295.749L294.411 106.969ZM296.911 113.601L296.125 111.547H292.697L291.911 113.601H290.749L293.824 105.513H294.998L298.061 113.601H296.911Z"
        fill="white" />
    <path
        d="M284.57 111.265H285.662C285.674 111.629 285.838 111.969 286.167 112.263C286.495 112.556 286.906 112.697 287.399 112.697C288.373 112.697 288.925 112.18 289.031 111.511C289.089 110.713 288.502 110.255 287.657 110.068L286.613 109.809C285.298 109.469 284.641 108.765 284.641 107.697C284.641 107.028 284.899 106.488 285.415 106.065C285.932 105.631 286.542 105.42 287.258 105.42C288.009 105.42 288.631 105.643 289.124 106.077C289.617 106.511 289.864 107.075 289.864 107.791H288.772C288.772 106.992 288.139 106.464 287.246 106.464C286.836 106.464 286.484 106.582 286.178 106.805C285.885 107.028 285.732 107.321 285.732 107.685C285.732 108.248 286.12 108.624 286.883 108.812L287.939 109.07C289.477 109.457 290.251 110.338 290.099 111.605C290.028 112.216 289.747 112.72 289.265 113.119C288.784 113.518 288.162 113.718 287.399 113.718C286.589 113.718 285.92 113.471 285.38 112.99C284.84 112.497 284.57 111.922 284.57 111.265Z"
        fill="white" />
    <path
        d="M278.79 110.819V105.513H279.893V110.819C279.893 111.676 279.599 112.38 279.024 112.92C278.449 113.448 277.757 113.718 276.935 113.718C276.113 113.718 275.409 113.448 274.834 112.92C274.259 112.38 273.977 111.676 273.977 110.819V105.513H275.081V110.819C275.081 111.359 275.257 111.805 275.62 112.145C275.984 112.486 276.419 112.662 276.935 112.662C277.451 112.662 277.886 112.486 278.25 112.145C278.614 111.805 278.79 111.359 278.79 110.819Z"
        fill="white" />
    <path
        d="M264.189 109.575C264.189 108.413 264.588 107.438 265.375 106.628C266.161 105.819 267.135 105.42 268.274 105.42C269.424 105.42 270.398 105.819 271.185 106.628C271.983 107.438 272.382 108.413 272.382 109.575C272.382 110.725 271.983 111.699 271.185 112.509C270.398 113.319 269.424 113.718 268.274 113.718C267.135 113.718 266.161 113.319 265.375 112.509C264.588 111.699 264.189 110.725 264.189 109.575ZM268.274 106.476C267.441 106.476 266.725 106.781 266.149 107.38C265.574 107.978 265.281 108.718 265.281 109.575C265.281 110.431 265.563 111.171 266.138 111.77C266.713 112.368 267.429 112.662 268.274 112.662C269.119 112.662 269.835 112.368 270.41 111.77C270.985 111.171 271.279 110.431 271.279 109.575C271.279 108.718 270.985 107.978 270.41 107.38C269.835 106.781 269.119 106.476 268.274 106.476Z"
        fill="white" />
    <path
        d="M260.974 109.88V113.601H259.847V109.88L256.784 105.513H258.087L260.411 108.788L262.758 105.513H264.073L260.974 109.88Z"
        fill="white" />
    <path
        d="M312.196 73.2392L303.125 91.6906H301.181L310.252 73.2392H312.196ZM301.773 73.042C302.815 73.042 303.689 73.4082 304.421 74.1406C305.182 74.873 305.548 75.7745 305.548 76.8168C305.548 77.8591 305.182 78.7605 304.449 79.4929C303.717 80.1972 302.815 80.5634 301.773 80.5634C300.731 80.5634 299.829 80.1972 299.097 79.4929C298.393 78.7605 298.026 77.8591 298.026 76.8168C298.026 75.7745 298.393 74.873 299.097 74.1406C299.829 73.4082 300.731 73.042 301.773 73.042ZM301.773 78.2816C302.59 78.2816 303.266 77.6337 303.266 76.8168C303.266 75.9998 302.59 75.3238 301.773 75.3238C300.956 75.3238 300.308 75.9998 300.308 76.8168C300.308 77.6337 300.9 78.2816 301.773 78.2816ZM311.745 84.4509C312.787 84.4509 313.661 84.8171 314.393 85.5777C315.154 86.3101 315.52 87.1834 315.52 88.2256C315.52 89.2679 315.154 90.1694 314.421 90.9018C313.689 91.606 312.787 91.9723 311.745 91.9723C310.703 91.9723 309.801 91.606 309.069 90.9018C308.365 90.1694 307.999 89.2679 307.999 88.2256C307.999 87.1834 308.365 86.2819 309.069 85.5495C309.801 84.8171 310.703 84.4509 311.745 84.4509ZM310.28 88.2256C310.28 89.0989 310.872 89.6905 311.745 89.6905C313.041 89.6905 313.773 88.0848 312.787 87.1834C311.886 86.1974 310.28 86.9298 310.28 88.2256Z"
        fill="white" />
    <path d="M282.736 76.8731V73.2392H296.651L288.51 91.6906H284.031L290.539 76.8731H282.736Z" fill="white" />
    <path
        d="M273.931 78.4788L270.494 84.2255H273.931V78.4788ZM280.241 84.2255V87.5496H277.903V91.6906H273.931V87.5496H265.113L273.733 73.2392H277.903V84.2255H280.241Z"
        fill="white" />
    <path d="M262.871 86.3101H252.927V83.2114H262.871V86.3101Z" fill="white" />
    <path fill-rule="evenodd" clip-rule="evenodd"
        d="M256.475 97.9506L311.25 97.9506V99.5156L256.475 99.5156L256.475 97.9506Z" fill="white" />
    <path
        d="M92.406 220.706L96.78 211.598H98.31L99.822 224H98.166L97.032 214.676L93.162 222.632H91.686L87.78 214.676L86.646 224H84.99L86.502 211.598H88.032L92.406 220.706ZM104.567 219.338H108.671L106.619 213.83L104.567 219.338ZM109.247 220.85H103.991L102.785 224H101.003L105.719 211.598H107.519L112.217 224H110.453L109.247 220.85ZM119.3 219.302L122.612 224H120.578L117.374 219.356H115.79V224H114.098V211.598H118.868C120.092 211.598 121.01 211.976 121.622 212.732C122.234 213.488 122.54 214.406 122.54 215.486C122.54 216.494 122.27 217.358 121.73 218.078C121.202 218.798 120.392 219.206 119.3 219.302ZM118.814 213.164H115.79V217.79H118.742C119.45 217.79 119.972 217.568 120.308 217.124C120.644 216.68 120.812 216.134 120.812 215.486C120.812 214.85 120.644 214.304 120.308 213.848C119.984 213.392 119.486 213.164 118.814 213.164ZM128.321 217.79L134.081 224H131.831L126.917 218.708V224H125.243V211.598H126.917V216.962L131.021 211.598H133.091L128.321 217.79ZM135.649 211.598H142.993V213.164H137.323V217.124H142.273V218.69H137.323V222.434H143.173V224H135.649V211.598ZM144.639 211.598H153.855V213.182H150.093V224H148.401V213.182H144.639V211.598ZM160.206 211.598H165.156C166.38 211.598 167.298 211.976 167.91 212.732C168.534 213.488 168.846 214.406 168.846 215.486C168.846 216.566 168.534 217.484 167.91 218.24C167.298 218.984 166.38 219.356 165.156 219.356H161.898V224H160.206V211.598ZM165.138 213.164H161.898V217.79H165.048C165.756 217.79 166.284 217.568 166.632 217.124C166.992 216.668 167.172 216.122 167.172 215.486C167.172 214.85 166.998 214.304 166.65 213.848C166.314 213.392 165.81 213.164 165.138 213.164ZM176.324 219.302L179.636 224H177.602L174.398 219.356H172.814V224H171.122V211.598H175.892C177.116 211.598 178.034 211.976 178.646 212.732C179.258 213.488 179.564 214.406 179.564 215.486C179.564 216.494 179.294 217.358 178.754 218.078C178.226 218.798 177.416 219.206 176.324 219.302ZM175.838 213.164H172.814V217.79H175.766C176.474 217.79 176.996 217.568 177.332 217.124C177.668 216.68 177.836 216.134 177.836 215.486C177.836 214.85 177.668 214.304 177.332 213.848C177.008 213.392 176.51 213.164 175.838 213.164ZM182.266 211.598H183.94V224H182.266V211.598ZM196.239 220.976L197.499 222.038C196.935 222.71 196.245 223.238 195.429 223.622C194.625 223.994 193.749 224.18 192.801 224.18C191.049 224.18 189.561 223.562 188.337 222.326C187.125 221.09 186.519 219.59 186.519 217.826C186.519 216.062 187.125 214.562 188.337 213.326C189.561 212.078 191.049 211.454 192.801 211.454C193.737 211.454 194.607 211.64 195.411 212.012C196.215 212.384 196.899 212.9 197.463 213.56L196.203 214.604C195.267 213.584 194.133 213.074 192.801 213.074C191.505 213.074 190.413 213.536 189.525 214.46C188.637 215.384 188.193 216.506 188.193 217.826C188.193 219.146 188.637 220.268 189.525 221.192C190.413 222.104 191.505 222.56 192.801 222.56C194.193 222.56 195.339 222.032 196.239 220.976ZM199.616 211.598H206.96V213.164H201.29V217.124H206.24V218.69H201.29V222.434H207.14V224H199.616V211.598ZM209.686 223.874C209.458 223.658 209.344 223.388 209.344 223.064C209.344 222.74 209.458 222.47 209.686 222.254C209.926 222.038 210.208 221.93 210.532 221.93C210.856 221.93 211.132 222.038 211.36 222.254C211.588 222.47 211.702 222.74 211.702 223.064C211.702 223.388 211.588 223.658 211.36 223.874C211.132 224.078 210.856 224.18 210.532 224.18C210.208 224.18 209.926 224.078 209.686 223.874ZM209.686 217.34C209.458 217.124 209.344 216.854 209.344 216.53C209.344 216.206 209.458 215.942 209.686 215.738C209.926 215.522 210.208 215.414 210.532 215.414C210.856 215.414 211.132 215.522 211.36 215.738C211.588 215.942 211.702 216.206 211.702 216.53C211.702 216.854 211.588 217.124 211.36 217.34C211.132 217.556 210.856 217.664 210.532 217.664C210.208 217.664 209.926 217.556 209.686 217.34ZM219.303 211.598H226.647V213.164H220.977V217.124H225.927V218.69H220.977V222.434H226.827V224H219.303V211.598ZM231.875 221.768C232.427 222.296 233.099 222.56 233.891 222.56C234.683 222.56 235.355 222.296 235.907 221.768C236.459 221.24 236.735 220.562 236.735 219.734V211.598H238.427V219.734C238.427 221.054 237.983 222.128 237.095 222.956C236.219 223.772 235.151 224.18 233.891 224.18C232.631 224.18 231.557 223.772 230.669 222.956C229.793 222.128 229.355 221.054 229.355 219.734V211.598H231.047V219.734C231.047 220.562 231.323 221.24 231.875 221.768ZM246.882 219.302L250.194 224H248.16L244.956 219.356H243.372V224H241.68V211.598H246.45C247.674 211.598 248.592 211.976 249.204 212.732C249.816 213.488 250.122 214.406 250.122 215.486C250.122 216.494 249.852 217.358 249.312 218.078C248.784 218.798 247.974 219.206 246.882 219.302ZM246.396 213.164H243.372V217.79H246.324C247.032 217.79 247.554 217.568 247.89 217.124C248.226 216.68 248.394 216.134 248.394 215.486C248.394 214.85 248.226 214.304 247.89 213.848C247.566 213.392 247.068 213.164 246.396 213.164ZM264.665 214.37L263.225 214.982C262.781 214.082 262.115 213.632 261.227 213.632C260.411 213.632 259.757 214.022 259.265 214.802C258.785 215.57 258.599 216.548 258.707 217.736C259.055 216.848 259.859 216.404 261.119 216.404C262.163 216.404 263.039 216.812 263.747 217.628C264.455 218.432 264.791 219.368 264.755 220.436C264.695 221.504 264.287 222.404 263.531 223.136C262.775 223.868 261.869 224.21 260.813 224.162C259.769 224.114 258.905 223.736 258.221 223.028C257.549 222.308 257.165 221.342 257.069 220.13C256.961 218.654 257.027 217.172 257.267 215.684C257.447 214.604 257.897 213.728 258.617 213.056C259.349 212.384 260.243 212.066 261.299 212.102C262.043 212.138 262.697 212.324 263.261 212.66C263.837 212.984 264.305 213.554 264.665 214.37ZM258.689 220.184C258.689 220.832 258.899 221.378 259.319 221.822C259.751 222.266 260.273 222.5 260.885 222.524C261.497 222.548 262.019 222.356 262.451 221.948C262.895 221.528 263.129 221 263.153 220.364C263.177 219.728 262.991 219.188 262.595 218.744C262.199 218.288 261.689 218.048 261.065 218.024C260.441 218 259.895 218.198 259.427 218.618C258.959 219.026 258.713 219.548 258.689 220.184ZM275.045 212.246L268.601 224H266.711L272.309 213.848H266.927V212.246H275.045ZM282.385 221.588V224H280.783V221.588H274.663L281.179 212.246H282.385V220.058H284.077V221.588H282.385ZM277.417 220.058H280.783V215.162L277.417 220.058Z"
        fill="white" />
    <g filter="url(#filter1_d_2007_80)">
        <rect x="58" y="240" width="250" height="80.4688" rx="20" fill="white" />
    </g>
    <path
        d="M97.8496 279.75V263.214H108.314V266.31H101.354V270.078H107.45V273.126H101.354V276.654H108.53V279.75H97.8496ZM115.926 275.886C116.502 276.414 117.174 276.678 117.942 276.678C118.71 276.678 119.374 276.414 119.934 275.886C120.51 275.342 120.798 274.662 120.798 273.846V263.214H124.326V273.846C124.326 275.67 123.702 277.15 122.454 278.286C121.206 279.422 119.702 279.99 117.942 279.99C116.182 279.99 114.67 279.422 113.406 278.286C112.142 277.15 111.51 275.67 111.51 273.846V263.214H115.086V273.846C115.086 274.678 115.366 275.358 115.926 275.886ZM134.637 266.31H131.565V270.966H134.541C135.181 270.966 135.685 270.726 136.053 270.246C136.437 269.766 136.629 269.23 136.629 268.638C136.629 268.062 136.445 267.534 136.077 267.054C135.725 266.558 135.245 266.31 134.637 266.31ZM136.173 273.894L140.277 279.75H136.053L132.357 274.038H131.565V279.75H128.037V263.214H134.805C136.565 263.214 137.917 263.75 138.861 264.822C139.821 265.878 140.301 267.15 140.301 268.638C140.301 269.902 139.949 271.022 139.245 271.998C138.541 272.974 137.517 273.606 136.173 273.894ZM153.426 272.934H151.77V270.054H153.426C154.45 270.054 154.962 269.486 154.962 268.35C154.962 268.03 154.826 267.702 154.554 267.366C154.298 267.014 153.906 266.838 153.378 266.838C152.626 266.838 152.074 267.126 151.722 267.702L149.01 266.046C149.49 265.294 150.162 264.702 151.026 264.27C151.906 263.838 152.866 263.654 153.906 263.718C155.25 263.782 156.37 264.254 157.266 265.134C158.162 265.998 158.594 266.998 158.562 268.134C158.562 268.758 158.378 269.342 158.01 269.886C157.642 270.43 157.154 270.87 156.546 271.206C157.394 271.51 158.074 272.086 158.586 272.934C159.098 273.766 159.314 274.614 159.234 275.478C159.106 276.822 158.434 277.934 157.218 278.814C156.002 279.678 154.61 280.054 153.042 279.942C151.954 279.878 150.954 279.542 150.042 278.934C149.13 278.326 148.458 277.566 148.026 276.654L150.978 275.19C151.154 275.558 151.474 275.902 151.938 276.222C152.402 276.526 152.858 276.686 153.306 276.702C153.882 276.734 154.386 276.574 154.818 276.222C155.266 275.854 155.514 275.454 155.562 275.022C155.61 274.942 155.61 274.79 155.562 274.566C155.53 274.326 155.474 274.086 155.394 273.846C155.314 273.59 155.098 273.374 154.746 273.198C154.41 273.006 153.97 272.918 153.426 272.934ZM167.46 263.814V279.75H164.1V268.494L161.412 269.646V266.694L167.46 263.814ZM175.715 272.934H174.059V270.054H175.715C176.739 270.054 177.251 269.486 177.251 268.35C177.251 268.03 177.115 267.702 176.843 267.366C176.587 267.014 176.195 266.838 175.667 266.838C174.915 266.838 174.363 267.126 174.011 267.702L171.299 266.046C171.779 265.294 172.451 264.702 173.315 264.27C174.195 263.838 175.155 263.654 176.195 263.718C177.539 263.782 178.659 264.254 179.555 265.134C180.451 265.998 180.883 266.998 180.851 268.134C180.851 268.758 180.667 269.342 180.299 269.886C179.931 270.43 179.443 270.87 178.835 271.206C179.683 271.51 180.363 272.086 180.875 272.934C181.387 273.766 181.603 274.614 181.523 275.478C181.395 276.822 180.723 277.934 179.507 278.814C178.291 279.678 176.899 280.054 175.331 279.942C174.243 279.878 173.243 279.542 172.331 278.934C171.419 278.326 170.747 277.566 170.315 276.654L173.267 275.19C173.443 275.558 173.763 275.902 174.227 276.222C174.691 276.526 175.147 276.686 175.595 276.702C176.171 276.734 176.675 276.574 177.107 276.222C177.555 275.854 177.803 275.454 177.851 275.022C177.899 274.942 177.899 274.79 177.851 274.566C177.819 274.326 177.763 274.086 177.683 273.846C177.603 273.59 177.387 273.374 177.035 273.198C176.699 273.006 176.259 272.918 175.715 272.934ZM195.944 274.71V278.43H193.496V274.71H189.8V272.262H193.496V268.566H195.944V272.262H199.664V274.71H195.944ZM213.679 263.814V279.75H210.319V268.494L207.631 269.646V266.694L213.679 263.814ZM235.065 267.822C235.065 268.446 234.881 269.046 234.513 269.622C234.161 270.182 233.593 270.614 232.809 270.918C233.817 271.174 234.585 271.678 235.113 272.43C235.657 273.166 235.929 273.918 235.929 274.686C235.929 276.11 235.449 277.31 234.489 278.286C233.529 279.262 232.249 279.75 230.649 279.75H223.545V263.214H230.169C231.657 263.214 232.841 263.63 233.721 264.462C234.617 265.294 235.065 266.414 235.065 267.822ZM227.073 269.742H229.833C230.281 269.742 230.649 269.582 230.937 269.262C231.225 268.942 231.369 268.534 231.369 268.038C231.369 267.51 231.233 267.094 230.961 266.79C230.705 266.47 230.321 266.31 229.809 266.31H227.073V269.742ZM230.385 272.646H227.073V276.654H230.457C231.017 276.654 231.449 276.454 231.753 276.054C232.073 275.638 232.233 275.158 232.233 274.614C232.233 274.102 232.065 273.646 231.729 273.246C231.409 272.846 230.961 272.646 230.385 272.646ZM245.546 266.31H242.354V270.966H245.45C246.09 270.966 246.594 270.726 246.962 270.246C247.346 269.766 247.538 269.23 247.538 268.638C247.538 268.062 247.354 267.534 246.986 267.054C246.634 266.558 246.154 266.31 245.546 266.31ZM238.826 279.75V263.214H245.618C247.394 263.214 248.746 263.75 249.674 264.822C250.602 265.878 251.066 267.15 251.066 268.638C251.066 270.126 250.602 271.398 249.674 272.454C248.746 273.51 247.394 274.038 245.618 274.038H242.354V279.75H238.826ZM257.528 267.966C256.584 268.942 256.112 270.126 256.112 271.518C256.112 272.91 256.584 274.094 257.528 275.07C258.472 276.03 259.624 276.51 260.984 276.51C262.344 276.51 263.496 276.022 264.44 275.046C265.4 274.07 265.88 272.894 265.88 271.518C265.88 270.126 265.4 268.942 264.44 267.966C263.496 266.99 262.344 266.502 260.984 266.502C259.624 266.502 258.472 266.99 257.528 267.966ZM252.608 271.518C252.608 269.166 253.416 267.166 255.032 265.518C256.664 263.854 258.648 263.022 260.984 263.022C263.336 263.022 265.32 263.854 266.936 265.518C268.568 267.166 269.384 269.166 269.384 271.518C269.384 273.854 268.568 275.854 266.936 277.518C265.304 279.166 263.32 279.99 260.984 279.99C258.648 279.99 256.664 279.166 255.032 277.518C253.416 275.854 252.608 273.854 252.608 271.518Z"
        fill="#03659C" />
    <path
        d="M273.627 309.184C282.019 318.14 293.07 320.467 298.625 320.467L183 320.467L183 293.871L246.406 293.871C260.85 293.871 266.074 301.124 273.627 309.184Z"
        fill="url(#paint2_linear_2007_80)" />
    <path
        d="M92.3735 309.184C83.9807 318.14 72.9302 320.467 67.375 320.467L183 320.467L183 293.871L119.594 293.871C105.15 293.871 99.9261 301.124 92.3735 309.184Z"
        fill="url(#paint3_linear_2007_80)" />
    <path
        d="M138.957 312H137.193V303.732H142.365V305.28H138.957V307.164H141.657V308.7H138.957V312ZM143.65 312V303.732H145.402V312H143.65ZM150.641 305.28H149.105V307.608H150.593C151.229 307.608 151.637 307.032 151.637 306.444C151.637 305.868 151.253 305.28 150.641 305.28ZM151.409 309.072L153.461 312H151.349L149.501 309.144H149.105V312H147.341V303.732H150.725C151.601 303.732 152.285 303.996 152.753 304.536C153.233 305.064 153.473 305.7 153.473 306.444C153.473 307.704 152.753 308.784 151.409 309.072ZM160.322 312H154.982V303.732H160.214V305.28H156.734V307.164H159.782V308.688H156.734V310.452H160.322V312ZM163.66 312H161.896V303.732H167.068V305.28H163.66V307.164H166.36V308.7H163.66V312ZM173.213 312H168.353V303.732H170.117V310.452H173.213V312ZM174.482 312V303.732H176.234V312H174.482ZM183.513 312H178.173V303.732H183.405V305.28H179.925V307.164H182.973V308.688H179.925V310.452H183.513V312ZM184.549 309.576H186.313C186.349 310.14 186.793 310.572 187.549 310.572C188.269 310.572 188.749 310.224 188.761 309.696C188.773 309.276 188.545 308.988 187.765 308.76L186.769 308.484C185.341 308.04 184.633 307.248 184.633 306.108C184.633 305.376 184.909 304.788 185.449 304.332C185.989 303.864 186.673 303.636 187.477 303.636C188.293 303.636 188.965 303.864 189.481 304.32C190.009 304.776 190.273 305.388 190.273 306.168H188.521C188.521 305.604 188.137 305.232 187.453 305.232C186.829 305.232 186.385 305.58 186.385 306.06C186.385 306.456 186.685 306.732 187.273 306.9L188.257 307.212C189.805 307.656 190.561 308.496 190.525 309.708C190.513 310.224 190.369 310.68 190.069 311.064C189.481 311.82 188.569 312.132 187.549 312.132C186.649 312.132 185.929 311.892 185.377 311.424C184.825 310.944 184.549 310.332 184.549 309.576ZM201.064 307.884C201.064 307.188 200.824 306.6 200.344 306.108C199.876 305.616 199.3 305.376 198.616 305.376C197.932 305.376 197.356 305.616 196.888 306.108C196.42 306.6 196.18 307.188 196.18 307.884C196.18 308.58 196.42 309.168 196.888 309.66C197.356 310.14 197.932 310.38 198.616 310.38C199.3 310.38 199.876 310.14 200.344 309.648C200.824 309.156 201.064 308.568 201.064 307.884ZM194.428 307.884C194.428 306.708 194.836 305.712 195.64 304.884C196.456 304.056 197.452 303.636 198.616 303.636C199.792 303.636 200.788 304.056 201.592 304.884C202.408 305.712 202.816 306.708 202.816 307.884C202.816 309.048 202.408 310.056 201.592 310.884C200.776 311.712 199.78 312.12 198.616 312.12C197.452 312.12 196.456 311.712 195.64 310.884C194.836 310.056 194.428 309.048 194.428 307.884ZM206.047 312H204.283V303.732H209.455V305.28H206.047V307.164H208.747V308.7H206.047V312ZM212.504 312H210.74V303.732H215.912V305.28H212.504V307.164H215.204V308.7H212.504V312ZM222.537 312H217.197V303.732H222.429V305.28H218.949V307.164H221.997V308.688H218.949V310.452H222.537V312ZM227.411 305.28H225.875V307.608H227.363C227.999 307.608 228.407 307.032 228.407 306.444C228.407 305.868 228.023 305.28 227.411 305.28ZM228.179 309.072L230.231 312H228.119L226.271 309.144H225.875V312H224.111V303.732H227.495C228.371 303.732 229.055 303.996 229.523 304.536C230.003 305.064 230.243 305.7 230.243 306.444C230.243 307.704 229.523 308.784 228.179 309.072Z"
        fill="white" />
    <circle cx="282.47" cy="101.47" r="50.47" fill="url(#paint4_radial_2007_80)" />
    <path
        d="M257.637 129.598V121.33H262.869V122.878H259.389V124.762H262.437V126.286H259.389V128.05H262.977V129.598H257.637ZM266.675 127.666C266.963 127.93 267.299 128.062 267.683 128.062C268.067 128.062 268.399 127.93 268.679 127.666C268.967 127.394 269.111 127.054 269.111 126.646V121.33H270.875V126.646C270.875 127.558 270.563 128.298 269.939 128.866C269.315 129.434 268.563 129.718 267.683 129.718C266.803 129.718 266.047 129.434 265.415 128.866C264.783 128.298 264.467 127.558 264.467 126.646V121.33H266.255V126.646C266.255 127.062 266.395 127.402 266.675 127.666ZM276.031 122.878H274.495V125.206H275.983C276.303 125.206 276.555 125.086 276.739 124.846C276.931 124.606 277.027 124.338 277.027 124.042C277.027 123.754 276.935 123.49 276.751 123.25C276.575 123.002 276.335 122.878 276.031 122.878ZM276.799 126.67L278.851 129.598H276.739L274.891 126.742H274.495V129.598H272.731V121.33H276.115C276.995 121.33 277.671 121.598 278.143 122.134C278.623 122.662 278.863 123.298 278.863 124.042C278.863 124.674 278.687 125.234 278.335 125.722C277.983 126.21 277.471 126.526 276.799 126.67ZM287.434 125.054H286.33V123.134H287.434C288.117 123.134 288.458 122.755 288.458 121.998C288.458 121.785 288.367 121.566 288.186 121.342C288.015 121.107 287.754 120.99 287.402 120.99C286.901 120.99 286.533 121.182 286.298 121.566L284.49 120.462C284.81 119.961 285.258 119.566 285.834 119.278C286.421 118.99 287.061 118.867 287.754 118.91C288.65 118.953 289.397 119.267 289.994 119.854C290.591 120.43 290.879 121.097 290.858 121.854C290.858 122.27 290.735 122.659 290.49 123.022C290.245 123.385 289.919 123.678 289.514 123.902C290.079 124.105 290.533 124.489 290.874 125.054C291.215 125.609 291.359 126.174 291.306 126.75C291.221 127.646 290.773 128.387 289.962 128.974C289.151 129.55 288.223 129.801 287.178 129.726C286.453 129.683 285.786 129.459 285.178 129.054C284.57 128.649 284.122 128.142 283.834 127.534L285.802 126.558C285.919 126.803 286.133 127.033 286.442 127.246C286.751 127.449 287.055 127.555 287.354 127.566C287.738 127.587 288.074 127.481 288.362 127.246C288.661 127.001 288.826 126.734 288.858 126.446C288.89 126.393 288.89 126.291 288.858 126.142C288.837 125.982 288.799 125.822 288.746 125.662C288.693 125.491 288.549 125.347 288.314 125.23C288.09 125.102 287.797 125.043 287.434 125.054ZM299.766 129.598H292.95V128.382L297.254 123.278C297.627 122.851 297.814 122.457 297.814 122.094C297.814 121.806 297.697 121.561 297.462 121.358C297.227 121.155 296.907 121.054 296.502 121.054C296.107 121.054 295.777 121.193 295.51 121.47C295.243 121.737 295.078 122.083 295.014 122.51L292.966 122.158C293.126 121.155 293.531 120.366 294.182 119.79C294.833 119.203 295.649 118.91 296.63 118.91C297.579 118.91 298.385 119.209 299.046 119.806C299.718 120.403 300.054 121.166 300.054 122.094C300.054 123.033 299.686 123.918 298.95 124.75L296.534 127.486H299.766V129.598ZM306.212 122.846C307.044 122.846 307.785 123.155 308.436 123.774C309.097 124.393 309.428 125.262 309.428 126.382C309.428 127.395 309.076 128.211 308.372 128.83C307.678 129.449 306.761 129.758 305.62 129.758C304.617 129.758 303.764 129.427 303.06 128.766C302.356 128.094 301.956 127.209 301.86 126.11C301.796 125.566 301.78 125.011 301.812 124.446C301.844 123.881 301.897 123.326 301.972 122.782C302.046 122.238 302.19 121.726 302.404 121.246C302.628 120.766 302.889 120.35 303.188 119.998C303.497 119.646 303.902 119.374 304.404 119.182C304.905 118.979 305.47 118.889 306.1 118.91C306.814 118.942 307.444 119.107 307.988 119.406C308.532 119.694 308.98 120.206 309.332 120.942L307.236 121.838C306.969 121.283 306.564 121.006 306.02 121.006C305.54 121.006 305.145 121.166 304.836 121.486C304.526 121.806 304.318 122.185 304.212 122.622C304.116 123.049 304.078 123.518 304.1 124.03C304.185 123.774 304.414 123.513 304.788 123.246C305.161 122.979 305.636 122.846 306.212 122.846ZM306.692 127.23C306.969 126.953 307.108 126.627 307.108 126.254C307.108 125.881 306.969 125.561 306.692 125.294C306.425 125.017 306.105 124.878 305.732 124.878C305.358 124.878 305.033 125.017 304.756 125.294C304.489 125.561 304.356 125.881 304.356 126.254C304.356 126.627 304.489 126.953 304.756 127.23C305.033 127.497 305.358 127.63 305.732 127.63C306.105 127.63 306.425 127.497 306.692 127.23Z"
        fill="white" />
    <path
        d="M261.411 113.643H260.355V110.156L257.484 106.064H258.705L260.883 109.133L263.083 106.064H264.315L261.411 110.156V113.643ZM264.424 109.87C264.424 108.785 264.795 107.864 265.535 107.109C266.276 106.354 267.182 105.976 268.252 105.976C269.33 105.976 270.24 106.354 270.98 107.109C271.728 107.864 272.102 108.785 272.102 109.87C272.102 110.948 271.728 111.865 270.98 112.62C270.24 113.375 269.33 113.753 268.252 113.753C267.182 113.753 266.276 113.375 265.535 112.62C264.795 111.865 264.424 110.948 264.424 109.87ZM266.261 107.813C265.719 108.378 265.447 109.063 265.447 109.87C265.447 110.677 265.715 111.362 266.25 111.927C266.793 112.484 267.46 112.763 268.252 112.763C269.044 112.763 269.712 112.484 270.254 111.927C270.797 111.362 271.068 110.677 271.068 109.87C271.068 109.063 270.797 108.378 270.254 107.813C269.712 107.248 269.044 106.966 268.252 106.966C267.468 106.966 266.804 107.248 266.261 107.813ZM275.137 112.279C275.474 112.602 275.885 112.763 276.369 112.763C276.853 112.763 277.264 112.602 277.601 112.279C277.938 111.956 278.107 111.542 278.107 111.036V106.064H279.141V111.036C279.141 111.843 278.87 112.499 278.327 113.005C277.792 113.504 277.139 113.753 276.369 113.753C275.599 113.753 274.943 113.504 274.4 113.005C273.865 112.499 273.597 111.843 273.597 111.036V106.064H274.631V111.036C274.631 111.542 274.8 111.956 275.137 112.279ZM284.548 111.454C284.555 111.799 284.713 112.11 285.021 112.389C285.329 112.66 285.714 112.796 286.176 112.796C286.63 112.796 286.986 112.69 287.243 112.477C287.499 112.264 287.653 112 287.705 111.685C287.734 111.311 287.624 111.014 287.375 110.794C287.133 110.574 286.814 110.42 286.418 110.332L285.439 110.09C284.207 109.775 283.591 109.115 283.591 108.11C283.591 107.487 283.833 106.977 284.317 106.581C284.801 106.178 285.376 105.976 286.044 105.976C286.748 105.976 287.331 106.181 287.793 106.592C288.255 106.995 288.486 107.531 288.486 108.198H287.463C287.463 107.824 287.327 107.523 287.056 107.296C286.792 107.069 286.451 106.955 286.033 106.955C285.651 106.955 285.318 107.061 285.032 107.274C284.753 107.487 284.614 107.762 284.614 108.099C284.614 108.627 284.973 108.979 285.692 109.155L286.682 109.397C287.4 109.58 287.936 109.874 288.288 110.277C288.64 110.68 288.779 111.179 288.706 111.773C288.64 112.345 288.379 112.818 287.925 113.192C287.477 113.566 286.894 113.753 286.176 113.753C285.42 113.753 284.79 113.526 284.284 113.071C283.778 112.609 283.525 112.07 283.525 111.454H284.548ZM291.493 110.794H294.001L292.747 107.428L291.493 110.794ZM294.353 111.718H291.141L290.404 113.643H289.315L292.197 106.064H293.297L296.168 113.643H295.09L294.353 111.718ZM297.272 106.064L298.988 111.916L300.704 106.064H301.76L299.483 113.643H298.504L296.205 106.064H297.272ZM303.108 106.064H307.596V107.021H304.131V109.441H307.156V110.398H304.131V112.686H307.706V113.643H303.108V106.064Z"
        fill="white" />
    <path
        d="M253.763 86.1185V83.2585H262.941V86.1185H253.763ZM275.047 85.0785C275.047 84.1598 274.752 83.4665 274.163 82.9985C273.591 82.5305 272.837 82.2965 271.901 82.2965C271.242 82.2965 270.557 82.4438 269.847 82.7385C269.153 83.0158 268.59 83.4925 268.157 84.1685L266.155 83.1285L267.559 74.0545H277.543V77.3825H270.445L270.003 80.1385C270.661 79.5491 271.701 79.2545 273.123 79.2545C274.717 79.2545 276.043 79.7658 277.101 80.7885C278.158 81.8111 278.687 83.2411 278.687 85.0785C278.687 86.9158 278.045 88.4238 276.763 89.6025C275.48 90.7638 273.781 91.3445 271.667 91.3445C270.488 91.3445 269.353 91.0325 268.261 90.4085C267.169 89.7671 266.293 88.9351 265.635 87.9125L268.703 85.9365C269.032 86.4565 269.474 86.8811 270.029 87.2105C270.583 87.5398 271.129 87.7045 271.667 87.7045C272.637 87.7045 273.443 87.4445 274.085 86.9245C274.726 86.4045 275.047 85.7891 275.047 85.0785ZM285.363 84.1945H288.535V78.8905L285.363 84.1945ZM294.359 87.2625H292.201V91.0845H288.535V87.2625H280.397L288.353 74.0545H292.201V84.1945H294.359V87.2625ZM309.558 74.0545H307.764L299.392 91.0845H301.186L309.558 74.0545ZM297.468 79.8265C296.809 79.1505 296.48 78.3271 296.48 77.3565C296.48 76.3858 296.809 75.5625 297.468 74.8865C298.144 74.2105 298.967 73.8725 299.938 73.8725C300.891 73.8725 301.706 74.2105 302.382 74.8865C303.075 75.5625 303.422 76.3858 303.422 77.3565C303.422 78.3271 303.084 79.1505 302.408 79.8265C301.732 80.4851 300.909 80.8145 299.938 80.8145C298.967 80.8145 298.144 80.4851 297.468 79.8265ZM298.976 76.3945C298.716 76.6545 298.586 76.9751 298.586 77.3565C298.586 77.7378 298.707 78.0585 298.95 78.3185C299.21 78.5785 299.539 78.7085 299.938 78.7085C300.319 78.7085 300.64 78.5785 300.9 78.3185C301.177 78.0585 301.316 77.7378 301.316 77.3565C301.316 76.9751 301.177 76.6545 300.9 76.3945C300.64 76.1171 300.319 75.9785 299.938 75.9785C299.557 75.9785 299.236 76.1171 298.976 76.3945ZM306.672 90.3565C306.013 89.6805 305.684 88.8571 305.684 87.8865C305.684 86.9158 306.013 86.0925 306.672 85.4165C307.348 84.7405 308.171 84.4025 309.142 84.4025C310.095 84.4025 310.91 84.7491 311.586 85.4425C312.279 86.1185 312.626 86.9331 312.626 87.8865C312.626 88.8571 312.288 89.6805 311.612 90.3565C310.936 91.0151 310.113 91.3445 309.142 91.3445C308.171 91.3445 307.348 91.0151 306.672 90.3565ZM307.79 87.8865C307.79 88.2851 307.911 88.6145 308.154 88.8745C308.414 89.1171 308.743 89.2385 309.142 89.2385C309.523 89.2385 309.844 89.1085 310.104 88.8485C310.381 88.5885 310.52 88.2678 310.52 87.8865C310.52 87.5051 310.381 87.1845 310.104 86.9245C309.844 86.6471 309.523 86.5085 309.142 86.5085C308.761 86.5085 308.44 86.6471 308.18 86.9245C307.92 87.1845 307.79 87.5051 307.79 87.8865Z"
        fill="white" />
    <line x1="311.248" y1="98.9487" x2="256.474" y2="98.9487" stroke="white" stroke-width="2" />
    <defs>
        <filter id="filter0_d_2007_80" x="0" y="0.363281" width="365" height="389.637" filterUnits="userSpaceOnUse"
            color-interpolation-filters="sRGB">
            <feFlood flood-opacity="0" result="BackgroundImageFix" />
            <feColorMatrix in="SourceAlpha" type="matrix" values="0 0 0 0 0 0 0 0 0 0 0 0 0 0 0 0 0 0 127 0"
                result="hardAlpha" />
            <feOffset dy="10" />
            <feGaussianBlur stdDeviation="10" />
            <feComposite in2="hardAlpha" operator="out" />
            <feColorMatrix type="matrix" values="0 0 0 0 0 0 0 0 0 0 0 0 0 0 0 0 0 0 0.15 0" />
            <feBlend mode="normal" in2="BackgroundImageFix" result="effect1_dropShadow_2007_80" />
            <feBlend mode="normal" in="SourceGraphic" in2="effect1_dropShadow_2007_80" result="shape" />
        </filter>
        <filter id="filter1_d_2007_80" x="38" y="230" width="290" height="120.469" filterUnits="userSpaceOnUse"
            color-interpolation-filters="sRGB">
            <feFlood flood-opacity="0" result="BackgroundImageFix" />
            <feColorMatrix in="SourceAlpha" type="matrix" values="0 0 0 0 0 0 0 0 0 0 0 0 0 0 0 0 0 0 127 0"
                result="hardAlpha" />
            <feOffset dy="10" />
            <feGaussianBlur stdDeviation="10" />
            <feComposite in2="hardAlpha" operator="out" />
            <feColorMatrix type="matrix" values="0 0 0 0 0 0 0 0 0 0 0 0 0 0 0 0 0 0 0.15 0" />
            <feBlend mode="normal" in2="BackgroundImageFix" result="effect1_dropShadow_2007_80" />
            <feBlend mode="normal" in="SourceGraphic" in2="effect1_dropShadow_2007_80" result="shape" />
        </filter>
        <linearGradient id="paint0_linear_2007_80" x1="19.9999" y1="299" x2="29.8257" y2="11.0216"
            gradientUnits="userSpaceOnUse">
            <stop stop-color="#03659C" />
            <stop offset="1" stop-color="#13AFB6" />
        </linearGradient>
        <radialGradient id="paint1_radial_2007_80" cx="0" cy="0" r="1" gradientUnits="userSpaceOnUse"
            gradientTransform="translate(258.431 69.78) rotate(56.9519) scale(77.4834)">
            <stop stop-color="#FFAEB2" />
            <stop offset="0.539026" stop-color="#D5484E" />
            <stop offset="0.892787" stop-color="#B81A21" />
        </radialGradient>
        <linearGradient id="paint2_linear_2007_80" x1="242.439" y1="320.824" x2="242.439" y2="294.262"
            gradientUnits="userSpaceOnUse">
            <stop stop-color="#13AFB6" />
            <stop offset="1" stop-color="#03659C" />
        </linearGradient>
        <linearGradient id="paint3_linear_2007_80" x1="123.562" y1="320.824" x2="123.562" y2="294.262"
            gradientUnits="userSpaceOnUse">
            <stop stop-color="#13AFB6" />
            <stop offset="1" stop-color="#03659C" />
        </linearGradient>
        <radialGradient id="paint4_radial_2007_80" cx="0" cy="0" r="1" gradientUnits="userSpaceOnUse"
            gradientTransform="translate(257.431 69.7795) rotate(56.9519) scale(77.4814)">
            <stop stop-color="#FFAEB2" />
            <stop offset="0.539026" stop-color="#D5484E" />
            <stop offset="0.892787" stop-color="#B81A21" />
        </radialGradient>
    </defs>
</svg>