<svg width="453" height="508" viewBox="0 0 453 508" fill="none" xmlns="http://www.w3.org/2000/svg">
    <path
        d="M19 20C19 8.9543 27.9543 0 39 0H433C444.046 0 453 8.95431 453 20V488C453 499.046 444.046 508 433 508H39C27.9543 508 19 499.046 19 488V296.059C19 292.739 18.1732 289.47 16.5941 286.549L1.57037 258.755C-0.0335474 255.788 -0.033551 252.212 1.57036 249.245L16.5941 221.451C18.1732 218.53 19 215.261 19 211.941V20Z"
        fill="url(#paint0_linear_0_1)" />
    <path
        d="M119.816 317.22L124.676 327.34L129.536 317.22H131.236L132.916 331H131.076L129.816 320.64L125.516 329.48H123.876L119.536 320.64L118.276 331H116.436L118.116 317.22H119.816ZM140.468 319.7L138.188 325.82H142.748L140.468 319.7ZM144.728 331L143.388 327.5H137.548L136.208 331H134.228L139.468 317.22H141.468L146.688 331H144.728ZM154.558 325.78L158.238 331H155.978L152.418 325.84H150.658V331H148.778V317.22H154.078C155.438 317.22 156.458 317.64 157.138 318.48C157.818 319.32 158.158 320.34 158.158 321.54C158.158 322.66 157.858 323.62 157.258 324.42C156.678 325.22 155.778 325.68 154.558 325.78ZM154.018 318.96H150.658V324.1H153.938C155.518 324.1 156.238 322.98 156.238 321.54C156.238 320.12 155.518 318.96 154.018 318.96ZM169.881 317.22L164.581 324.1L170.981 331H168.481L163.021 325.12V331H161.161V317.22H163.021V323.18L167.581 317.22H169.881ZM172.724 331V317.22H180.884V318.96H174.584V323.36H180.084V325.1H174.584V329.26H181.084V331H172.724ZM182.712 318.98V317.22H192.952V318.98H188.772V331H186.892V318.98H182.712ZM200.009 331V317.22H205.509C206.869 317.22 207.889 317.64 208.569 318.48C209.269 319.32 209.609 320.34 209.609 321.54C209.609 322.74 209.269 323.76 208.569 324.6C207.889 325.42 206.869 325.84 205.509 325.84H201.889V331H200.009ZM205.489 318.96H201.889V324.1H205.389C206.969 324.1 207.749 322.96 207.749 321.54C207.749 320.12 206.989 318.96 205.489 318.96ZM217.918 325.78L221.598 331H219.338L215.778 325.84H214.018V331H212.138V317.22H217.438C218.798 317.22 219.818 317.64 220.498 318.48C221.178 319.32 221.518 320.34 221.518 321.54C221.518 322.66 221.218 323.62 220.618 324.42C220.038 325.22 219.138 325.68 217.918 325.78ZM217.378 318.96H214.018V324.1H217.298C218.878 324.1 219.598 322.98 219.598 321.54C219.598 320.12 218.878 318.96 217.378 318.96ZM224.521 331V317.22H226.381V331H224.521ZM240.046 327.64L241.446 328.82C240.186 330.32 238.326 331.2 236.226 331.2C234.286 331.2 232.626 330.52 231.266 329.14C229.926 327.76 229.246 326.1 229.246 324.14C229.246 322.18 229.926 320.52 231.266 319.14C232.626 317.76 234.286 317.06 236.226 317.06C238.306 317.06 240.146 317.94 241.406 319.4L240.006 320.56C238.966 319.42 237.706 318.86 236.226 318.86C234.786 318.86 233.566 319.38 232.586 320.4C231.606 321.42 231.106 322.68 231.106 324.14C231.106 325.6 231.606 326.86 232.586 327.88C233.566 328.9 234.786 329.4 236.226 329.4C237.766 329.4 239.046 328.82 240.046 327.64ZM243.798 331V317.22H251.958V318.96H245.658V323.36H251.158V325.1H245.658V329.26H252.158V331H243.798ZM254.987 330.86C254.487 330.38 254.487 329.54 254.987 329.06C255.527 328.58 256.347 328.58 256.847 329.06C257.347 329.54 257.347 330.38 256.847 330.86C256.347 331.32 255.527 331.32 254.987 330.86ZM254.987 323.6C254.487 323.12 254.487 322.28 254.987 321.82C255.527 321.34 256.347 321.34 256.847 321.82C257.347 322.28 257.347 323.12 256.847 323.6C256.347 324.08 255.527 324.08 254.987 323.6ZM274.313 331H265.413V317.22H274.133V319.8H268.333V322.94H273.413V325.48H268.333V328.42H274.313V331ZM284.536 326.08V317.22H287.476V326.08C287.476 327.6 286.956 328.84 285.916 329.78C284.876 330.72 283.616 331.2 282.156 331.2C280.696 331.2 279.436 330.72 278.376 329.78C277.316 328.84 276.796 327.6 276.796 326.08V317.22H279.776V326.08C279.776 326.78 280.016 327.34 280.476 327.78C280.956 328.22 281.516 328.44 282.156 328.44C282.796 328.44 283.356 328.22 283.816 327.78C284.296 327.32 284.536 326.76 284.536 326.08ZM296.069 319.8H293.509V323.68H295.989C297.049 323.68 297.729 322.72 297.729 321.74C297.729 320.78 297.089 319.8 296.069 319.8ZM297.349 326.12L300.769 331H297.249L294.169 326.24H293.509V331H290.569V317.22H296.209C297.669 317.22 298.809 317.66 299.589 318.56C300.389 319.44 300.789 320.5 300.789 321.74C300.789 323.84 299.589 325.64 297.349 326.12ZM313.206 321.62L310.766 325.7H313.206V321.62ZM317.686 325.7V328.06H316.026V331H313.206V328.06H306.946L313.066 317.9H316.026V325.7H317.686ZM323.758 325.32H322.378V322.92H323.758C324.618 322.92 325.038 322.44 325.038 321.5C325.038 320.96 324.598 320.24 323.718 320.24C323.098 320.24 322.638 320.48 322.338 320.96L320.078 319.58C320.878 318.32 322.418 317.54 324.158 317.64C325.278 317.7 326.218 318.08 326.958 318.82C327.698 319.54 328.058 320.38 328.038 321.32C328.038 322.36 327.378 323.32 326.358 323.88C327.058 324.14 327.638 324.62 328.058 325.32C328.478 326.02 328.658 326.72 328.598 327.44C328.498 328.56 327.938 329.48 326.918 330.22C325.898 330.94 324.738 331.26 323.438 331.16C321.618 331.06 319.978 329.94 319.258 328.42L321.718 327.2C321.858 327.5 322.138 327.8 322.518 328.06C322.898 328.32 323.278 328.44 323.658 328.46C324.618 328.52 325.458 327.78 325.538 327.06C325.578 326.8 325.718 325.26 323.758 325.32ZM334.793 325.32H333.413V322.92H334.793C335.653 322.92 336.073 322.44 336.073 321.5C336.073 320.96 335.633 320.24 334.753 320.24C334.133 320.24 333.673 320.48 333.373 320.96L331.113 319.58C331.913 318.32 333.453 317.54 335.193 317.64C336.313 317.7 337.253 318.08 337.993 318.82C338.733 319.54 339.093 320.38 339.073 321.32C339.073 322.36 338.413 323.32 337.393 323.88C338.093 324.14 338.673 324.62 339.093 325.32C339.513 326.02 339.693 326.72 339.633 327.44C339.533 328.56 338.973 329.48 337.953 330.22C336.933 330.94 335.773 331.26 334.473 331.16C332.653 331.06 331.013 329.94 330.293 328.42L332.753 327.2C332.893 327.5 333.173 327.8 333.553 328.06C333.933 328.32 334.313 328.44 334.693 328.46C335.653 328.52 336.493 327.78 336.573 327.06C336.613 326.8 336.753 325.26 334.793 325.32ZM341.528 320.48V317.9H351.408L345.628 331H342.448L347.068 320.48H341.528Z"
        fill="white" />
    <path
        d="M80.976 60.464L85.968 71.12L90.912 60.464H93.864L95.88 77H92.352L91.2 67.088L87.336 75.104H84.624L80.736 67.088L79.56 77H76.032L78.072 60.464H80.976ZM104.81 64.28L103.13 70.04H106.562L104.81 64.28ZM109.154 77L107.69 73.088H101.978L100.514 77H96.7701L102.914 60.464H106.73L112.85 77H109.154ZM124.398 77H114.678V60.464H118.206V73.904H124.398V77ZM133.416 63.656H130.44V73.808H133.416C134.688 73.808 135.648 73.328 136.344 72.368C137.04 71.408 137.376 70.208 137.376 68.768C137.376 67.304 137.04 66.104 136.344 65.12C135.648 64.136 134.688 63.656 133.416 63.656ZM133.416 77H126.936V60.464H133.416C135.744 60.464 137.568 61.256 138.888 62.816C140.208 64.376 140.88 66.344 140.88 68.768C140.88 71.192 140.208 73.16 138.888 74.696C137.568 76.232 135.744 77 133.416 77ZM143.905 77V60.464H147.409V77H143.905ZM154.768 77L149.728 60.464H153.376L156.328 71.312L159.256 60.464H162.928L157.888 77H154.768ZM175.937 77H165.257V60.464H175.721V63.56H168.761V67.328H174.857V70.376H168.761V73.904H175.937V77ZM179.325 80.24L177.165 79.424C178.293 77.888 179.061 75.488 179.037 73.208H182.421C182.397 74.864 182.085 76.304 181.437 77.48C180.813 78.656 180.117 79.592 179.325 80.24ZM203.261 65.072C203.261 66.32 202.565 67.568 201.005 68.168C202.013 68.432 202.781 68.936 203.309 69.68C203.861 70.424 204.125 71.168 204.125 71.936C204.125 73.352 203.645 74.552 202.685 75.536C201.725 76.52 200.453 77 198.845 77H191.741V60.464H198.365C201.341 60.464 203.261 62.264 203.261 65.072ZM195.269 63.56V66.992H198.029C198.917 66.992 199.565 66.272 199.565 65.288C199.565 64.232 199.037 63.56 198.005 63.56H195.269ZM198.581 69.896H195.269V73.904H198.653C199.781 73.904 200.429 72.944 200.429 71.864C200.429 70.832 199.733 69.896 198.581 69.896ZM212.974 64.28L211.294 70.04H214.726L212.974 64.28ZM217.318 77L215.854 73.088H210.142L208.678 77H204.934L211.078 60.464H214.894L221.014 77H217.318ZM228.794 64.28L227.114 70.04H230.546L228.794 64.28ZM233.138 77L231.674 73.088H225.962L224.498 77H220.754L226.898 60.464H230.714L236.834 77H233.138ZM246.655 72.416H238.183V69.776H246.655V72.416ZM256.005 64.28L254.325 70.04H257.757L256.005 64.28ZM260.349 77L258.885 73.088H253.173L251.709 77H247.965L254.109 60.464H257.925L264.045 77H260.349ZM267.753 63.632H263.289V60.464H275.769V63.632H271.305V77H267.753V63.632ZM290.326 68.768C290.326 67.376 289.846 66.2 288.886 65.216C287.95 64.232 286.798 63.752 285.43 63.752C284.062 63.752 282.91 64.232 281.974 65.216C281.038 66.2 280.558 67.376 280.558 68.768C280.558 70.16 281.038 71.336 281.974 72.32C282.91 73.28 284.062 73.76 285.43 73.76C286.798 73.76 287.95 73.28 288.886 72.296C289.846 71.312 290.326 70.136 290.326 68.768ZM277.054 68.768C277.054 66.416 277.87 64.424 279.478 62.768C281.11 61.112 283.102 60.272 285.43 60.272C287.782 60.272 289.774 61.112 291.382 62.768C293.014 64.424 293.83 66.416 293.83 68.768C293.83 71.096 293.014 73.112 291.382 74.768C289.75 76.424 287.758 77.24 285.43 77.24C283.102 77.24 281.11 76.424 279.478 74.768C277.87 73.112 277.054 71.096 277.054 68.768ZM306.484 77H296.764V60.464H300.292V73.904H306.484V77ZM82.95 89.665L78.975 94.825L83.775 100H81.9L77.805 95.59V100H76.41V89.665H77.805V94.135L81.225 89.665H82.95ZM85.0819 100V89.665H86.4769V100H85.0819ZM95.6906 89.665H97.1006V100H95.6906V95.5H90.6956V100H89.3006V89.665H90.6956V94.225H95.6906V89.665ZM103.356 91.525L101.646 96.115H105.066L103.356 91.525ZM106.551 100L105.546 97.375H101.166L100.161 100H98.6757L102.606 89.665H104.106L108.021 100H106.551ZM113.024 91.525L111.314 96.115H114.734L113.024 91.525ZM116.219 100L115.214 97.375H110.834L109.829 100H108.344L112.274 89.665H113.774L117.689 100H116.219ZM124.634 89.665L128.279 97.255L131.924 89.665H133.199L134.459 100H133.079L132.134 92.23L128.909 98.86H127.679L124.424 92.23L123.479 100H122.099L123.359 89.665H124.634ZM140.123 91.525L138.413 96.115H141.833L140.123 91.525ZM143.318 100L142.313 97.375H137.933L136.928 100H135.443L139.373 89.665H140.873L144.788 100H143.318ZM146.356 100V89.665H147.751V98.695H151.966V100H146.356ZM157.788 100H153.783V89.665H157.788C159.213 89.665 160.353 90.16 161.178 91.135C162.018 92.11 162.438 93.34 162.438 94.855C162.438 96.355 162.018 97.585 161.193 98.56C160.368 99.52 159.228 100 157.788 100ZM155.178 90.97V98.695H157.788C158.823 98.695 159.633 98.335 160.188 97.63C160.758 96.91 161.043 95.98 161.043 94.855C161.043 93.715 160.758 92.785 160.188 92.065C159.633 91.33 158.823 90.97 157.788 90.97H155.178ZM164.638 100V89.665H166.033V100H164.638ZM167.866 89.665H169.321L171.661 97.645L174.001 89.665H175.441L172.336 100H171.001L167.866 89.665ZM177.279 100V89.665H183.399V90.97H178.674V94.27H182.799V95.575H178.674V98.695H183.549V100H177.279ZM184.969 97.015H186.364C186.379 97.48 186.589 97.915 187.009 98.29C187.429 98.665 187.954 98.845 188.584 98.845C189.829 98.845 190.534 98.185 190.669 97.33C190.744 96.31 189.994 95.725 188.914 95.485L187.579 95.155C185.899 94.72 185.059 93.82 185.059 92.455C185.059 91.6 185.389 90.91 186.049 90.37C186.709 89.815 187.489 89.545 188.404 89.545C189.364 89.545 190.159 89.83 190.789 90.385C191.419 90.94 191.734 91.66 191.734 92.575H190.339C190.339 91.555 189.529 90.88 188.389 90.88C187.864 90.88 187.414 91.03 187.024 91.315C186.649 91.6 186.454 91.975 186.454 92.44C186.454 93.16 186.949 93.64 187.924 93.88L189.274 94.21C191.239 94.705 192.229 95.83 192.034 97.45C191.944 98.23 191.584 98.875 190.969 99.385C190.354 99.895 189.559 100.15 188.584 100.15C187.549 100.15 186.694 99.835 186.004 99.22C185.314 98.59 184.969 97.855 184.969 97.015ZM196.328 93.055L195.158 94.75L194.258 94.06L195.533 92.485L193.568 91.93L193.763 91.36L193.943 90.835L195.818 91.57L195.698 89.545H196.883L196.748 91.57L197.678 91.21L198.653 90.835L198.998 91.93L197.048 92.455L198.353 94.075L197.423 94.72L196.328 93.055ZM203.33 93.055L202.16 94.75L201.26 94.06L202.535 92.485L200.57 91.93L200.765 91.36L200.945 90.835L202.82 91.57L202.7 89.545H203.885L203.75 91.57L204.68 91.21L205.655 90.835L206 91.93L204.05 92.455L205.355 94.075L204.425 94.72L203.33 93.055ZM210.332 93.055L209.162 94.75L208.262 94.06L209.537 92.485L207.572 91.93L207.767 91.36L207.947 90.835L209.822 91.57L209.702 89.545H210.887L210.752 91.57L211.682 91.21L212.657 90.835L213.002 91.93L211.052 92.455L212.357 94.075L211.427 94.72L210.332 93.055ZM217.334 93.055L216.164 94.75L215.264 94.06L216.539 92.485L214.574 91.93L214.769 91.36L214.949 90.835L216.824 91.57L216.704 89.545H217.889L217.754 91.57L218.684 91.21L219.659 90.835L220.004 91.93L218.054 92.455L219.359 94.075L218.429 94.72L217.334 93.055Z"
        fill="white" />
    <path
        d="M75.645 167.11V165.175H83.055L78.72 175H76.335L79.8 167.11H75.645ZM93.6742 164.665H95.8792V175H93.9142L90.3142 168.745V175H88.1242V164.665H90.1342L93.6742 170.845V164.665ZM98.3048 175V164.665H100.495V175H98.3048ZM111.499 166.24L109.879 167.635C109.264 166.93 108.499 166.585 107.614 166.585C106.744 166.585 106.009 166.9 105.409 167.545C104.824 168.19 104.524 168.955 104.524 169.855C104.524 170.755 104.824 171.535 105.424 172.18C106.024 172.825 106.759 173.14 107.614 173.14C108.214 173.14 108.784 172.975 109.309 172.645C109.834 172.3 110.104 171.88 110.119 171.355H107.344V169.57H112.654C112.654 171.445 112.204 172.84 111.289 173.77C110.389 174.685 109.159 175.15 107.614 175.15C106.129 175.15 104.884 174.64 103.849 173.605C102.829 172.57 102.319 171.31 102.319 169.855C102.319 168.385 102.829 167.14 103.849 166.105C104.884 165.07 106.129 164.545 107.614 164.545C109.174 164.545 110.584 165.175 111.499 166.24ZM120.122 168.88V164.665H122.342V175H120.122V170.845H116.447V175H114.257V164.665H116.447V168.88H120.122ZM126.77 166.645H123.98V164.665H131.78V166.645H128.99V175H126.77V166.645ZM132.862 171.97H135.067C135.112 172.675 135.667 173.215 136.612 173.215C137.512 173.215 138.112 172.78 138.127 172.12C138.142 171.595 137.857 171.235 136.882 170.95L135.637 170.605C133.852 170.05 132.967 169.06 132.967 167.635C132.967 166.72 133.312 165.985 133.987 165.415C134.662 164.83 135.517 164.545 136.522 164.545C137.542 164.545 138.382 164.83 139.027 165.4C139.687 165.97 140.017 166.735 140.017 167.71H137.827C137.827 167.005 137.347 166.54 136.492 166.54C135.712 166.54 135.157 166.975 135.157 167.575C135.157 168.07 135.532 168.415 136.267 168.625L137.497 169.015C139.432 169.57 140.377 170.62 140.332 172.135C140.317 172.78 140.137 173.35 139.762 173.83C139.027 174.775 137.887 175.165 136.612 175.165C135.487 175.165 134.587 174.865 133.897 174.28C133.207 173.68 132.862 172.915 132.862 171.97ZM82.155 196.02V198H75.765V196.86L79.8 192.075C80.145 191.67 80.325 191.31 80.325 190.965C80.325 190.425 79.86 189.99 79.095 189.99C78.36 189.99 77.82 190.56 77.7 191.355L75.78 191.025C76.08 189.15 77.37 187.98 79.215 187.98C80.1 187.98 80.865 188.265 81.48 188.82C82.11 189.375 82.425 190.095 82.425 190.965C82.425 191.85 82.08 192.675 81.39 193.455L79.125 196.02H82.155ZM91.3461 190.05L90.2961 193.65H92.4411L91.3461 190.05ZM94.0611 198L93.1461 195.555H89.5761L88.6611 198H86.3211L90.1611 187.665H92.5461L96.3711 198H94.0611ZM101.564 189.66H99.7038V196.005H101.564C102.359 196.005 102.959 195.705 103.394 195.105C103.829 194.505 104.039 193.755 104.039 192.855C104.039 191.94 103.829 191.19 103.394 190.575C102.959 189.96 102.359 189.66 101.564 189.66ZM101.564 198H97.5138V187.665H101.564C103.019 187.665 104.159 188.16 104.984 189.135C105.809 190.11 106.229 191.34 106.229 192.855C106.229 194.37 105.809 195.6 104.984 196.56C104.159 197.52 103.019 198 101.564 198ZM113.819 194.31V187.665H116.024V194.31C116.024 195.45 115.634 196.38 114.854 197.085C114.074 197.79 113.129 198.15 112.034 198.15C110.939 198.15 109.994 197.79 109.199 197.085C108.404 196.38 108.014 195.45 108.014 194.31V187.665H110.249V194.31C110.249 194.835 110.429 195.255 110.774 195.585C111.134 195.915 111.554 196.08 112.034 196.08C112.514 196.08 112.934 195.915 113.279 195.585C113.639 195.24 113.819 194.82 113.819 194.31ZM124.419 198H118.344V187.665H120.549V196.065H124.419V198ZM127.106 189.645H124.316V187.665H132.116V189.645H129.326V198H127.106V189.645ZM133.199 194.97H135.404C135.449 195.675 136.004 196.215 136.949 196.215C137.849 196.215 138.449 195.78 138.464 195.12C138.479 194.595 138.194 194.235 137.219 193.95L135.974 193.605C134.189 193.05 133.304 192.06 133.304 190.635C133.304 189.72 133.649 188.985 134.324 188.415C134.999 187.83 135.854 187.545 136.859 187.545C137.879 187.545 138.719 187.83 139.364 188.4C140.024 188.97 140.354 189.735 140.354 190.71H138.164C138.164 190.005 137.684 189.54 136.829 189.54C136.049 189.54 135.494 189.975 135.494 190.575C135.494 191.07 135.869 191.415 136.604 191.625L137.834 192.015C139.769 192.57 140.714 193.62 140.669 195.135C140.654 195.78 140.474 196.35 140.099 196.83C139.364 197.775 138.224 198.165 136.949 198.165C135.824 198.165 134.924 197.865 134.234 197.28C133.544 196.68 133.199 195.915 133.199 194.97ZM79.935 213.05L78.885 216.65H81.03L79.935 213.05ZM82.65 221L81.735 218.555H78.165L77.25 221H74.91L78.75 210.665H81.135L84.96 221H82.65ZM92.1777 221H86.1027V210.665H88.3077V219.065H92.1777V221ZM99.8388 221H93.7638V210.665H95.9688V219.065H99.8388V221ZM104.662 221V210.665H106.852V221H104.662ZM114.827 210.665H117.032V221H115.067L111.467 214.745V221H109.277V210.665H111.287L114.827 216.845V210.665ZM126.627 217.655L128.397 218.885C127.482 220.28 125.892 221.15 124.047 221.15C122.577 221.15 121.347 220.64 120.342 219.605C119.352 218.57 118.857 217.325 118.857 215.855C118.857 214.37 119.352 213.125 120.342 212.09C121.347 211.055 122.577 210.545 124.047 210.545C125.847 210.545 127.437 211.4 128.352 212.735L126.567 213.965C125.952 213.065 125.112 212.615 124.047 212.615C123.192 212.615 122.487 212.93 121.917 213.56C121.347 214.175 121.062 214.94 121.062 215.855C121.062 216.755 121.347 217.52 121.917 218.15C122.487 218.765 123.192 219.08 124.047 219.08C125.112 219.08 126.042 218.51 126.627 217.655ZM136.02 221H129.945V210.665H132.15V219.065H136.02V221ZM143.175 217.31V210.665H145.38V217.31C145.38 218.45 144.99 219.38 144.21 220.085C143.43 220.79 142.485 221.15 141.39 221.15C140.295 221.15 139.35 220.79 138.555 220.085C137.76 219.38 137.37 218.45 137.37 217.31V210.665H139.605V217.31C139.605 217.835 139.785 218.255 140.13 218.585C140.49 218.915 140.91 219.08 141.39 219.08C141.87 219.08 142.29 218.915 142.635 218.585C142.995 218.24 143.175 217.82 143.175 217.31ZM147.144 217.97H149.349C149.394 218.675 149.949 219.215 150.894 219.215C151.794 219.215 152.394 218.78 152.409 218.12C152.424 217.595 152.139 217.235 151.164 216.95L149.919 216.605C148.134 216.05 147.249 215.06 147.249 213.635C147.249 212.72 147.594 211.985 148.269 211.415C148.944 210.83 149.799 210.545 150.804 210.545C151.824 210.545 152.664 210.83 153.309 211.4C153.969 211.97 154.299 212.735 154.299 213.71H152.109C152.109 213.005 151.629 212.54 150.774 212.54C149.994 212.54 149.439 212.975 149.439 213.575C149.439 214.07 149.814 214.415 150.549 214.625L151.779 215.015C153.714 215.57 154.659 216.62 154.614 218.135C154.599 218.78 154.419 219.35 154.044 219.83C153.309 220.775 152.169 221.165 150.894 221.165C149.769 221.165 148.869 220.865 148.179 220.28C147.489 219.68 147.144 218.915 147.144 217.97ZM156.43 221V210.665H158.62V221H156.43ZM163.219 221L160.069 210.665H162.349L164.194 217.445L166.024 210.665H168.319L165.169 221H163.219ZM176.45 221H169.775V210.665H176.315V212.6H171.965V214.955H175.775V216.86H171.965V219.065H176.45V221ZM78.39 244L75.24 233.665H77.52L79.365 240.445L81.195 233.665H83.49L80.34 244H78.39ZM84.9455 244V233.665H87.1355V244H84.9455ZM95.6347 244H89.5597V233.665H91.7647V242.065H95.6347V244ZM103.296 244H97.2209V233.665H99.4259V242.065H103.296V244ZM108.602 236.05L107.552 239.65H109.697L108.602 236.05ZM111.317 244L110.402 241.555H106.832L105.917 244H103.577L107.417 233.665H109.802L113.627 244H111.317ZM117.393 240.97H119.598C119.643 241.675 120.198 242.215 121.143 242.215C122.043 242.215 122.643 241.78 122.658 241.12C122.673 240.595 122.388 240.235 121.413 239.95L120.168 239.605C118.383 239.05 117.498 238.06 117.498 236.635C117.498 235.72 117.843 234.985 118.518 234.415C119.193 233.83 120.048 233.545 121.053 233.545C122.073 233.545 122.913 233.83 123.558 234.4C124.218 234.97 124.548 235.735 124.548 236.71H122.358C122.358 236.005 121.878 235.54 121.023 235.54C120.243 235.54 119.688 235.975 119.688 236.575C119.688 237.07 120.063 237.415 120.798 237.625L122.028 238.015C123.963 238.57 124.908 239.62 124.863 241.135C124.848 241.78 124.668 242.35 124.293 242.83C123.558 243.775 122.418 244.165 121.143 244.165C120.018 244.165 119.118 243.865 118.428 243.28C117.738 242.68 117.393 241.915 117.393 240.97ZM128.586 235.645H125.796V233.665H133.596V235.645H130.806V244H128.586V235.645ZM138.133 236.05L137.083 239.65H139.228L138.133 236.05ZM140.848 244L139.933 241.555H136.363L135.448 244H133.108L136.948 233.665H139.333L143.158 244H140.848ZM149.851 233.665H152.056V244H150.091L146.491 237.745V244H144.301V233.665H146.311L149.851 239.845V233.665ZM158.532 235.66H156.672V242.005H158.532C159.327 242.005 159.927 241.705 160.362 241.105C160.797 240.505 161.007 239.755 161.007 238.855C161.007 237.94 160.797 237.19 160.362 236.575C159.927 235.96 159.327 235.66 158.532 235.66ZM158.532 244H154.482V233.665H158.532C159.987 233.665 161.127 234.16 161.952 235.135C162.777 236.11 163.197 237.34 163.197 238.855C163.197 240.37 162.777 241.6 161.952 242.56C161.127 243.52 159.987 244 158.532 244ZM168.646 236.05L167.596 239.65H169.741L168.646 236.05ZM171.361 244L170.446 241.555H166.876L165.961 244H163.621L167.461 233.665H169.846L173.671 244H171.361ZM178.939 235.6H177.019V238.51H178.879C179.674 238.51 180.184 237.79 180.184 237.055C180.184 236.335 179.704 235.6 178.939 235.6ZM179.899 240.34L182.464 244H179.824L177.514 240.43H177.019V244H174.814V233.665H179.044C180.139 233.665 180.994 233.995 181.579 234.67C182.179 235.33 182.479 236.125 182.479 237.055C182.479 238.63 181.579 239.98 179.899 240.34ZM188.414 235.66H186.554V242.005H188.414C189.209 242.005 189.809 241.705 190.244 241.105C190.679 240.505 190.889 239.755 190.889 238.855C190.889 237.94 190.679 237.19 190.244 236.575C189.809 235.96 189.209 235.66 188.414 235.66ZM188.414 244H184.364V233.665H188.414C189.869 233.665 191.009 234.16 191.834 235.135C192.659 236.11 193.079 237.34 193.079 238.855C193.079 240.37 192.659 241.6 191.834 242.56C191.009 243.52 189.869 244 188.414 244Z"
        fill="white" />
    <line opacity="0.5" x1="75" y1="129.5" x2="295" y2="129.5" stroke="white" />
    <line opacity="0.5" x1="75" y1="283.5" x2="395" y2="283.5" stroke="white" />
    <circle cx="373.5" cy="130.5" r="64.5" fill="url(#paint1_radial_0_1)" />
    <path
        d="M338.986 169H332.311V158.665H338.851V160.6H334.501V162.955H338.311V164.86H334.501V167.065H338.986V169ZM346.653 165.31V158.665H348.858V165.31C348.858 166.45 348.468 167.38 347.688 168.085C346.908 168.79 345.963 169.15 344.868 169.15C343.773 169.15 342.828 168.79 342.033 168.085C341.238 167.38 340.848 166.45 340.848 165.31V158.665H343.083V165.31C343.083 165.835 343.263 166.255 343.608 166.585C343.968 166.915 344.388 167.08 344.868 167.08C345.348 167.08 345.768 166.915 346.113 166.585C346.473 166.24 346.653 165.82 346.653 165.31ZM355.303 160.6H353.383V163.51H355.243C356.038 163.51 356.548 162.79 356.548 162.055C356.548 161.335 356.068 160.6 355.303 160.6ZM356.263 165.34L358.828 169H356.188L353.878 165.43H353.383V169H351.178V158.665H355.408C356.503 158.665 357.358 158.995 357.943 159.67C358.543 160.33 358.843 161.125 358.843 162.055C358.843 163.63 357.943 164.98 356.263 165.34ZM376.821 165.832V169H366.597V167.176L373.053 159.52C373.605 158.872 373.893 158.296 373.893 157.744C373.893 156.88 373.149 156.184 371.925 156.184C370.749 156.184 369.885 157.096 369.693 158.368L366.621 157.84C367.101 154.84 369.165 152.968 372.117 152.968C373.533 152.968 374.757 153.424 375.741 154.312C376.749 155.2 377.253 156.352 377.253 157.744C377.253 159.16 376.701 160.48 375.597 161.728L371.973 165.832H376.821ZM379.457 155.944L385.505 153.064V169H382.145V157.744L379.457 158.896V155.944ZM389.872 157.36C389.872 156.136 390.352 155.104 391.288 154.264C392.248 153.4 393.4 152.968 394.72 152.968C396.04 152.968 397.192 153.4 398.152 154.264C399.112 155.104 399.592 156.136 399.592 157.36C399.592 158.44 399.208 159.304 398.44 160C399.808 160.792 400.696 162.256 400.696 163.96C400.696 165.448 400.12 166.696 398.944 167.728C397.792 168.736 396.376 169.24 394.72 169.24C393.064 169.24 391.648 168.736 390.472 167.728C389.32 166.696 388.744 165.448 388.744 163.96C388.744 162.256 389.584 160.792 391 160C390.256 159.28 389.872 158.392 389.872 157.36ZM392.104 163.792C392.104 165.112 393.304 166.12 394.72 166.12C396.136 166.12 397.336 165.112 397.336 163.792C397.336 162.52 396.352 161.44 394.696 161.44C393.064 161.44 392.104 162.52 392.104 163.792ZM393.112 157.456C393.112 158.32 393.688 158.968 394.72 158.968C395.752 158.968 396.328 158.32 396.328 157.456C396.328 156.664 395.704 155.992 394.72 155.992C393.736 155.992 393.112 156.664 393.112 157.456ZM407.937 163.336C406.689 163.336 405.561 162.88 404.577 161.944C403.593 161.008 403.113 159.712 403.113 158.032C403.113 156.52 403.641 155.296 404.673 154.36C405.729 153.424 407.121 152.968 408.825 152.968C410.337 152.968 411.609 153.472 412.665 154.48C413.721 155.464 414.321 156.784 414.465 158.44C414.849 163.288 414.009 169.456 408.105 169.24C405.969 169.144 404.313 168.4 403.257 166.192L406.401 164.848C406.809 165.688 407.409 166.096 408.225 166.096C408.945 166.096 409.545 165.856 410.001 165.376C410.937 164.416 411.177 163.096 411.105 161.56C410.697 162.736 409.641 163.336 407.937 163.336ZM407.193 156.784C406.401 157.576 406.401 158.848 407.193 159.688C408.033 160.48 409.305 160.48 410.097 159.688C410.937 158.848 410.937 157.576 410.097 156.784C409.305 155.944 408.033 155.944 407.193 156.784Z"
        fill="white" />
    <path
        d="M344.75 141.245V146H343.31V141.245L339.395 135.665H341.06L344.03 139.85L347.03 135.665H348.71L344.75 141.245ZM348.859 140.855C348.859 139.37 349.369 138.125 350.374 137.09C351.379 136.055 352.624 135.545 354.079 135.545C355.549 135.545 356.794 136.055 357.799 137.09C358.819 138.125 359.329 139.37 359.329 140.855C359.329 142.325 358.819 143.57 357.799 144.605C356.794 145.64 355.549 146.15 354.079 146.15C352.624 146.15 351.379 145.64 350.374 144.605C349.369 143.57 348.859 142.325 348.859 140.855ZM354.079 136.895C353.014 136.895 352.099 137.285 351.364 138.05C350.629 138.815 350.254 139.76 350.254 140.855C350.254 141.95 350.614 142.895 351.349 143.66C352.084 144.425 352.999 144.8 354.079 144.8C355.159 144.8 356.074 144.425 356.809 143.66C357.544 142.895 357.919 141.95 357.919 140.855C357.919 139.76 357.544 138.815 356.809 138.05C356.074 137.285 355.159 136.895 354.079 136.895ZM367.517 142.445V135.665H368.927V142.445C368.927 143.54 368.552 144.44 367.817 145.13C367.082 145.805 366.197 146.15 365.147 146.15C364.097 146.15 363.197 145.805 362.462 145.13C361.727 144.44 361.367 143.54 361.367 142.445V135.665H362.777V142.445C362.777 143.135 363.002 143.705 363.467 144.14C363.932 144.575 364.487 144.8 365.147 144.8C365.807 144.8 366.362 144.575 366.827 144.14C367.292 143.705 367.517 143.135 367.517 142.445ZM374.905 143.015H376.3C376.315 143.48 376.525 143.915 376.945 144.29C377.365 144.665 377.89 144.845 378.52 144.845C379.765 144.845 380.47 144.185 380.605 143.33C380.68 142.31 379.93 141.725 378.85 141.485L377.515 141.155C375.835 140.72 374.995 139.82 374.995 138.455C374.995 137.6 375.325 136.91 375.985 136.37C376.645 135.815 377.425 135.545 378.34 135.545C379.3 135.545 380.095 135.83 380.725 136.385C381.355 136.94 381.67 137.66 381.67 138.575H380.275C380.275 137.555 379.465 136.88 378.325 136.88C377.8 136.88 377.35 137.03 376.96 137.315C376.585 137.6 376.39 137.975 376.39 138.44C376.39 139.16 376.885 139.64 377.86 139.88L379.21 140.21C381.175 140.705 382.165 141.83 381.97 143.45C381.88 144.23 381.52 144.875 380.905 145.385C380.29 145.895 379.495 146.15 378.52 146.15C377.485 146.15 376.63 145.835 375.94 145.22C375.25 144.59 374.905 143.855 374.905 143.015ZM387.48 137.525L385.77 142.115H389.19L387.48 137.525ZM390.675 146L389.67 143.375H385.29L384.285 146H382.8L386.73 135.665H388.23L392.145 146H390.675ZM392.196 135.665H393.651L395.991 143.645L398.331 135.665H399.771L396.666 146H395.331L392.196 135.665ZM401.609 146V135.665H407.729V136.97H403.004V140.27H407.129V141.575H403.004V144.695H407.879V146H401.609Z"
        fill="white" />
    <path
        d="M347.384 111.124H334.676V107.164H347.384V111.124ZM364.146 109.684C364.146 107.128 362.382 105.832 359.79 105.832C357.954 105.832 355.794 106.552 354.606 108.424L351.834 106.984L353.778 94.42H367.602V99.028H357.774L357.162 102.844C358.062 102.016 359.502 101.62 361.482 101.62C363.678 101.62 365.514 102.34 366.99 103.744C368.466 105.148 369.186 107.128 369.186 109.684C369.186 112.24 368.286 114.328 366.522 115.948C364.758 117.568 362.382 118.36 359.466 118.36C356.19 118.36 352.95 116.452 351.114 113.608L355.362 110.872C356.262 112.312 357.99 113.32 359.466 113.32C362.166 113.32 364.146 111.664 364.146 109.684ZM388.043 113.248V118H372.707V115.264L382.391 103.78C383.219 102.808 383.651 101.944 383.651 101.116C383.651 99.82 382.535 98.776 380.699 98.776C378.935 98.776 377.639 100.144 377.351 102.052L372.743 101.26C373.463 96.76 376.559 93.952 380.987 93.952C383.111 93.952 384.947 94.636 386.423 95.968C387.935 97.3 388.691 99.028 388.691 101.116C388.691 103.24 387.863 105.22 386.207 107.092L380.771 113.248H388.043ZM409.998 94.42L398.406 118H395.922L407.514 94.42H409.998ZM396.678 94.168C398.01 94.168 399.126 94.636 400.062 95.572C401.034 96.508 401.502 97.66 401.502 98.992C401.502 100.324 401.034 101.476 400.098 102.412C399.162 103.312 398.01 103.78 396.678 103.78C395.346 103.78 394.194 103.312 393.258 102.412C392.358 101.476 391.89 100.324 391.89 98.992C391.89 97.66 392.358 96.508 393.258 95.572C394.194 94.636 395.346 94.168 396.678 94.168ZM396.678 100.864C397.722 100.864 398.586 100.036 398.586 98.992C398.586 97.948 397.722 97.084 396.678 97.084C395.634 97.084 394.806 97.948 394.806 98.992C394.806 100.036 395.562 100.864 396.678 100.864ZM409.422 108.748C410.754 108.748 411.87 109.216 412.806 110.188C413.778 111.124 414.246 112.24 414.246 113.572C414.246 114.904 413.778 116.056 412.842 116.992C411.906 117.892 410.754 118.36 409.422 118.36C408.09 118.36 406.938 117.892 406.002 116.992C405.102 116.056 404.634 114.904 404.634 113.572C404.634 112.24 405.102 111.088 406.002 110.152C406.938 109.216 408.09 108.748 409.422 108.748ZM407.55 113.572C407.55 114.688 408.306 115.444 409.422 115.444C411.078 115.444 412.014 113.392 410.754 112.24C409.602 110.98 407.55 111.916 407.55 113.572Z"
        fill="white" />
    <line x1="409" y1="127" x2="339" y2="127" stroke="white" stroke-width="2" />
    <g filter="url(#filter0_d_0_1)">
        <rect x="75" y="359" width="320" height="103" rx="20" fill="white" />
    </g>
    <path
        d="M119.895 410H105.655V387.952H119.607V392.08H110.327V397.104H118.455V401.168H110.327V405.872H119.895V410ZM136.252 402.128V387.952H140.956V402.128C140.956 404.56 140.124 406.544 138.46 408.048C136.796 409.552 134.78 410.32 132.444 410.32C130.108 410.32 128.092 409.552 126.396 408.048C124.7 406.544 123.868 404.56 123.868 402.128V387.952H128.636V402.128C128.636 403.248 129.02 404.144 129.756 404.848C130.524 405.552 131.42 405.904 132.444 405.904C133.468 405.904 134.364 405.552 135.1 404.848C135.868 404.112 136.252 403.216 136.252 402.128ZM154.705 392.08H150.609V398.288H154.577C156.273 398.288 157.361 396.752 157.361 395.184C157.361 393.648 156.337 392.08 154.705 392.08ZM156.753 402.192L162.225 410H156.593L151.665 402.384H150.609V410H145.905V387.952H154.929C157.265 387.952 159.089 388.656 160.337 390.096C161.617 391.504 162.257 393.2 162.257 395.184C162.257 398.544 160.337 401.424 156.753 402.192ZM186.764 405.776V410H173.132V407.568L181.74 397.36C182.476 396.496 182.86 395.728 182.86 394.992C182.86 393.84 181.868 392.912 180.236 392.912C178.668 392.912 177.516 394.128 177.26 395.824L173.164 395.12C173.804 391.12 176.556 388.624 180.492 388.624C182.38 388.624 184.012 389.232 185.324 390.416C186.668 391.6 187.34 393.136 187.34 394.992C187.34 396.88 186.604 398.64 185.132 400.304L180.3 405.776H186.764ZM190.887 399.504C190.887 392.24 193.511 388.624 198.727 388.624C201.671 388.624 203.783 389.776 204.903 391.824C206.055 393.872 206.503 396.304 206.503 399.504C206.503 402.704 206.055 405.072 204.903 407.12C203.783 409.168 201.671 410.32 198.727 410.32C193.511 410.32 190.887 406.704 190.887 399.504ZM195.367 399.504C195.367 403.824 196.487 405.968 198.727 405.968C200.935 405.968 202.023 403.824 202.023 399.504C202.023 395.152 200.935 392.976 198.727 392.976C196.487 392.976 195.367 395.152 195.367 399.504ZM209.72 393.168V389.04H225.528L216.28 410H211.192L218.584 393.168H209.72ZM228.666 394.48C228.666 392.848 229.306 391.472 230.554 390.352C231.834 389.2 233.37 388.624 235.13 388.624C236.89 388.624 238.426 389.2 239.706 390.352C240.986 391.472 241.626 392.848 241.626 394.48C241.626 395.92 241.114 397.072 240.09 398C241.914 399.056 243.098 401.008 243.098 403.28C243.098 405.264 242.33 406.928 240.762 408.304C239.226 409.648 237.338 410.32 235.13 410.32C232.922 410.32 231.034 409.648 229.466 408.304C227.93 406.928 227.162 405.264 227.162 403.28C227.162 401.008 228.282 399.056 230.17 398C229.178 397.04 228.666 395.856 228.666 394.48ZM231.642 403.056C231.642 404.816 233.242 406.16 235.13 406.16C237.018 406.16 238.618 404.816 238.618 403.056C238.618 401.36 237.306 399.92 235.098 399.92C232.922 399.92 231.642 401.36 231.642 403.056ZM232.986 394.608C232.986 395.76 233.754 396.624 235.13 396.624C236.506 396.624 237.274 395.76 237.274 394.608C237.274 393.552 236.442 392.656 235.13 392.656C233.818 392.656 232.986 393.552 232.986 394.608ZM267.189 403.28H262.229V408.24H258.965V403.28H254.037V400.016H258.965V395.088H262.229V400.016H267.189V403.28ZM291.827 405.776V410H278.195V407.568L286.803 397.36C287.539 396.496 287.923 395.728 287.923 394.992C287.923 393.84 286.931 392.912 285.299 392.912C283.731 392.912 282.579 394.128 282.323 395.824L278.227 395.12C278.867 391.12 281.619 388.624 285.555 388.624C287.443 388.624 289.075 389.232 290.387 390.416C291.731 391.6 292.403 393.136 292.403 394.992C292.403 396.88 291.667 398.64 290.195 400.304L285.363 405.776H291.827ZM319.858 394.096C319.858 395.76 318.93 397.424 316.85 398.224C318.194 398.576 319.218 399.248 319.922 400.24C320.658 401.232 321.01 402.224 321.01 403.248C321.01 405.136 320.37 406.736 319.09 408.048C317.81 409.36 316.114 410 313.97 410H304.498V387.952H313.33C317.298 387.952 319.858 390.352 319.858 394.096ZM309.202 392.08V396.656H312.882C314.066 396.656 314.93 395.696 314.93 394.384C314.93 392.976 314.226 392.08 312.85 392.08H309.202ZM313.618 400.528H309.202V405.872H313.714C315.218 405.872 316.082 404.592 316.082 403.152C316.082 401.776 315.154 400.528 313.618 400.528ZM333.833 392.08H329.577V398.288H333.705C335.401 398.288 336.489 396.752 336.489 395.184C336.489 393.648 335.465 392.08 333.833 392.08ZM329.577 410H324.873V387.952H333.929C336.297 387.952 338.089 388.656 339.337 390.096C340.585 391.504 341.193 393.2 341.193 395.184C341.193 397.168 340.585 398.864 339.337 400.272C338.089 401.68 336.297 402.384 333.929 402.384H329.577V410ZM360.946 399.024C360.946 397.168 360.306 395.6 359.026 394.288C357.778 392.976 356.242 392.336 354.418 392.336C352.594 392.336 351.058 392.976 349.81 394.288C348.562 395.6 347.922 397.168 347.922 399.024C347.922 400.88 348.562 402.448 349.81 403.76C351.058 405.04 352.594 405.68 354.418 405.68C356.242 405.68 357.778 405.04 359.026 403.728C360.306 402.416 360.946 400.848 360.946 399.024ZM343.25 399.024C343.25 395.888 344.338 393.232 346.482 391.024C348.658 388.816 351.314 387.696 354.418 387.696C357.554 387.696 360.21 388.816 362.354 391.024C364.53 393.232 365.618 395.888 365.618 399.024C365.618 402.128 364.53 404.816 362.354 407.024C360.178 409.232 357.522 410.32 354.418 410.32C351.314 410.32 348.658 409.232 346.482 407.024C344.338 404.816 343.25 402.128 343.25 399.024Z"
        fill="#03659C" />
    <path
        d="M351.002 447.557C361.745 459.021 375.889 462 383 462L235 462L235 427.957L316.16 427.957C334.647 427.957 341.335 437.241 351.002 447.557Z"
        fill="url(#paint2_linear_0_1)" />
    <path
        d="M118.998 447.557C108.255 459.021 94.1107 462 87 462L235 462L235 427.957L153.84 427.957C135.353 427.957 128.665 437.241 118.998 447.557Z"
        fill="url(#paint3_linear_0_1)" />
    <path
        d="M179.42 449H177.215V438.665H183.68V440.6H179.42V442.955H182.795V444.875H179.42V449ZM185.286 449V438.665H187.476V449H185.286ZM194.026 440.6H192.106V443.51H193.966C194.761 443.51 195.271 442.79 195.271 442.055C195.271 441.335 194.791 440.6 194.026 440.6ZM194.986 445.34L197.551 449H194.911L192.601 445.43H192.106V449H189.901V438.665H194.131C195.226 438.665 196.081 438.995 196.666 439.67C197.266 440.33 197.566 441.125 197.566 442.055C197.566 443.63 196.666 444.98 194.986 445.34ZM206.126 449H199.451V438.665H205.991V440.6H201.641V442.955H205.451V444.86H201.641V447.065H206.126V449ZM210.299 449H208.094V438.665H214.559V440.6H210.299V442.955H213.674V444.875H210.299V449ZM222.24 449H216.165V438.665H218.37V447.065H222.24V449ZM223.826 449V438.665H226.016V449H223.826ZM235.116 449H228.441V438.665H234.981V440.6H230.631V442.955H234.441V444.86H230.631V447.065H235.116V449ZM236.411 445.97H238.616C238.661 446.675 239.216 447.215 240.161 447.215C241.061 447.215 241.661 446.78 241.676 446.12C241.691 445.595 241.406 445.235 240.431 444.95L239.186 444.605C237.401 444.05 236.516 443.06 236.516 441.635C236.516 440.72 236.861 439.985 237.536 439.415C238.211 438.83 239.066 438.545 240.071 438.545C241.091 438.545 241.931 438.83 242.576 439.4C243.236 439.97 243.566 440.735 243.566 441.71H241.376C241.376 441.005 240.896 440.54 240.041 440.54C239.261 440.54 238.706 440.975 238.706 441.575C238.706 442.07 239.081 442.415 239.816 442.625L241.046 443.015C242.981 443.57 243.926 444.62 243.881 446.135C243.866 446.78 243.686 447.35 243.311 447.83C242.576 448.775 241.436 449.165 240.161 449.165C239.036 449.165 238.136 448.865 237.446 448.28C236.756 447.68 236.411 446.915 236.411 445.97ZM257.054 443.855C257.054 442.985 256.754 442.25 256.154 441.635C255.569 441.02 254.849 440.72 253.994 440.72C253.139 440.72 252.419 441.02 251.834 441.635C251.249 442.25 250.949 442.985 250.949 443.855C250.949 444.725 251.249 445.46 251.834 446.075C252.419 446.675 253.139 446.975 253.994 446.975C254.849 446.975 255.569 446.675 256.154 446.06C256.754 445.445 257.054 444.71 257.054 443.855ZM248.759 443.855C248.759 442.385 249.269 441.14 250.274 440.105C251.294 439.07 252.539 438.545 253.994 438.545C255.464 438.545 256.709 439.07 257.714 440.105C258.734 441.14 259.244 442.385 259.244 443.855C259.244 445.31 258.734 446.57 257.714 447.605C256.694 448.64 255.449 449.15 253.994 449.15C252.539 449.15 251.294 448.64 250.274 447.605C249.269 446.57 248.759 445.31 248.759 443.855ZM263.282 449H261.077V438.665H267.542V440.6H263.282V442.955H266.657V444.875H263.282V449ZM271.354 449H269.149V438.665H275.614V440.6H271.354V442.955H274.729V444.875H271.354V449ZM283.895 449H277.22V438.665H283.76V440.6H279.41V442.955H283.22V444.86H279.41V447.065H283.895V449ZM289.987 440.6H288.067V443.51H289.927C290.722 443.51 291.232 442.79 291.232 442.055C291.232 441.335 290.752 440.6 289.987 440.6ZM290.947 445.34L293.512 449H290.872L288.562 445.43H288.067V449H285.862V438.665H290.092C291.187 438.665 292.042 438.995 292.627 439.67C293.227 440.33 293.527 441.125 293.527 442.055C293.527 443.63 292.627 444.98 290.947 445.34Z"
        fill="white" />
    <defs>
        <filter id="filter0_d_0_1" x="55" y="349" width="360" height="143" filterUnits="userSpaceOnUse"
            color-interpolation-filters="sRGB">
            <feFlood flood-opacity="0" result="BackgroundImageFix" />
            <feColorMatrix in="SourceAlpha" type="matrix" values="0 0 0 0 0 0 0 0 0 0 0 0 0 0 0 0 0 0 127 0"
                result="hardAlpha" />
            <feOffset dy="10" />
            <feGaussianBlur stdDeviation="10" />
            <feComposite in2="hardAlpha" operator="out" />
            <feColorMatrix type="matrix" values="0 0 0 0 0 0 0 0 0 0 0 0 0 0 0 0 0 0 0.15 0" />
            <feBlend mode="normal" in2="BackgroundImageFix" result="effect1_dropShadow_0_1" />
            <feBlend mode="normal" in="SourceGraphic" in2="effect1_dropShadow_0_1" result="shape" />
        </filter>
        <linearGradient id="paint0_linear_0_1" x1="453" y1="508" x2="2.1665" y2="492.594"
            gradientUnits="userSpaceOnUse">
            <stop stop-color="#03659C" />
            <stop offset="1" stop-color="#13AFB6" />
        </linearGradient>
        <radialGradient id="paint1_radial_0_1" cx="0" cy="0" r="1" gradientUnits="userSpaceOnUse"
            gradientTransform="translate(341.5 90) rotate(56.9519) scale(99.0202)">
            <stop stop-color="#FFAEB2" />
            <stop offset="0.539026" stop-color="#D5484E" />
            <stop offset="0.892787" stop-color="#B81A21" />
        </radialGradient>
        <linearGradient id="paint2_linear_0_1" x1="311.081" y1="462.457" x2="311.081" y2="428.457"
            gradientUnits="userSpaceOnUse">
            <stop stop-color="#13AFB6" />
            <stop offset="1" stop-color="#03659C" />
        </linearGradient>
        <linearGradient id="paint3_linear_0_1" x1="158.919" y1="462.457" x2="158.919" y2="428.457"
            gradientUnits="userSpaceOnUse">
            <stop stop-color="#13AFB6" />
            <stop offset="1" stop-color="#03659C" />
        </linearGradient>
    </defs>
</svg>