<svg width="453" height="508" viewBox="0 0 453 508" fill="none" xmlns="http://www.w3.org/2000/svg">
    <path
        d="M19 20C19 8.9543 27.9543 0 39 0H433C444.046 0 453 8.95431 453 20V488C453 499.046 444.046 508 433 508H39C27.9543 508 19 499.046 19 488V296.059C19 292.739 18.1732 289.47 16.5941 286.549L1.57037 258.755C-0.0335475 255.788 -0.033551 252.212 1.57036 249.245L16.5941 221.451C18.1732 218.53 19 215.261 19 211.941V20Z"
        fill="url(#paint0_linear_0_1)" />
    <path
        d="M112.798 317.22L117.658 327.34L122.518 317.22H124.218L125.898 331H124.058L122.798 320.64L118.498 329.48H116.858L112.518 320.64L111.258 331H109.418L111.098 317.22H112.798ZM133.45 319.7L131.17 325.82H135.73L133.45 319.7ZM137.71 331L136.37 327.5H130.53L129.19 331H127.21L132.45 317.22H134.45L139.67 331H137.71ZM147.541 325.78L151.221 331H148.961L145.401 325.84H143.641V331H141.761V317.22H147.061C148.421 317.22 149.441 317.64 150.121 318.48C150.801 319.32 151.141 320.34 151.141 321.54C151.141 322.66 150.841 323.62 150.241 324.42C149.661 325.22 148.761 325.68 147.541 325.78ZM147.001 318.96H143.641V324.1H146.921C148.501 324.1 149.221 322.98 149.221 321.54C149.221 320.12 148.501 318.96 147.001 318.96ZM162.864 317.22L157.564 324.1L163.964 331H161.464L156.004 325.12V331H154.144V317.22H156.004V323.18L160.564 317.22H162.864ZM165.706 331V317.22H173.866V318.96H167.566V323.36H173.066V325.1H167.566V329.26H174.066V331H165.706ZM175.695 318.98V317.22H185.935V318.98H181.755V331H179.875V318.98H175.695ZM192.991 331V317.22H198.491C199.851 317.22 200.871 317.64 201.551 318.48C202.251 319.32 202.591 320.34 202.591 321.54C202.591 322.74 202.251 323.76 201.551 324.6C200.871 325.42 199.851 325.84 198.491 325.84H194.871V331H192.991ZM198.471 318.96H194.871V324.1H198.371C199.951 324.1 200.731 322.96 200.731 321.54C200.731 320.12 199.971 318.96 198.471 318.96ZM210.9 325.78L214.58 331H212.32L208.76 325.84H207V331H205.12V317.22H210.42C211.78 317.22 212.8 317.64 213.48 318.48C214.16 319.32 214.5 320.34 214.5 321.54C214.5 322.66 214.2 323.62 213.6 324.42C213.02 325.22 212.12 325.68 210.9 325.78ZM210.36 318.96H207V324.1H210.28C211.86 324.1 212.58 322.98 212.58 321.54C212.58 320.12 211.86 318.96 210.36 318.96ZM217.503 331V317.22H219.363V331H217.503ZM233.028 327.64L234.428 328.82C233.168 330.32 231.308 331.2 229.208 331.2C227.268 331.2 225.608 330.52 224.248 329.14C222.908 327.76 222.228 326.1 222.228 324.14C222.228 322.18 222.908 320.52 224.248 319.14C225.608 317.76 227.268 317.06 229.208 317.06C231.288 317.06 233.128 317.94 234.388 319.4L232.988 320.56C231.948 319.42 230.688 318.86 229.208 318.86C227.768 318.86 226.548 319.38 225.568 320.4C224.588 321.42 224.088 322.68 224.088 324.14C224.088 325.6 224.588 326.86 225.568 327.88C226.548 328.9 227.768 329.4 229.208 329.4C230.748 329.4 232.028 328.82 233.028 327.64ZM236.78 331V317.22H244.94V318.96H238.64V323.36H244.14V325.1H238.64V329.26H245.14V331H236.78ZM247.969 330.86C247.469 330.38 247.469 329.54 247.969 329.06C248.509 328.58 249.329 328.58 249.829 329.06C250.329 329.54 250.329 330.38 249.829 330.86C249.329 331.32 248.509 331.32 247.969 330.86ZM247.969 323.6C247.469 323.12 247.469 322.28 247.969 321.82C248.509 321.34 249.329 321.34 249.829 321.82C250.329 322.28 250.329 323.12 249.829 323.6C249.329 324.08 248.509 324.08 247.969 323.6ZM267.295 331H258.395V317.22H267.115V319.8H261.315V322.94H266.395V325.48H261.315V328.42H267.295V331ZM277.519 326.08V317.22H280.459V326.08C280.459 327.6 279.939 328.84 278.899 329.78C277.859 330.72 276.599 331.2 275.139 331.2C273.679 331.2 272.419 330.72 271.359 329.78C270.299 328.84 269.779 327.6 269.779 326.08V317.22H272.759V326.08C272.759 326.78 272.999 327.34 273.459 327.78C273.939 328.22 274.499 328.44 275.139 328.44C275.779 328.44 276.339 328.22 276.799 327.78C277.279 327.32 277.519 326.76 277.519 326.08ZM289.052 319.8H286.492V323.68H288.972C290.032 323.68 290.712 322.72 290.712 321.74C290.712 320.78 290.072 319.8 289.052 319.8ZM290.332 326.12L293.752 331H290.232L287.152 326.24H286.492V331H283.552V317.22H289.192C290.652 317.22 291.792 317.66 292.572 318.56C293.372 319.44 293.772 320.5 293.772 321.74C293.772 323.84 292.572 325.64 290.332 326.12ZM309.089 328.36V331H300.569V329.48L305.949 323.1C306.409 322.56 306.649 322.08 306.649 321.62C306.649 320.9 306.029 320.32 305.009 320.32C304.029 320.32 303.309 321.08 303.149 322.14L300.589 321.7C300.989 319.2 302.709 317.64 305.169 317.64C306.349 317.64 307.369 318.02 308.189 318.76C309.029 319.5 309.449 320.46 309.449 321.62C309.449 322.8 308.989 323.9 308.069 324.94L305.049 328.36H309.089ZM311.666 324.44C311.666 319.9 313.306 317.64 316.566 317.64C318.406 317.64 319.726 318.36 320.426 319.64C321.146 320.92 321.426 322.44 321.426 324.44C321.426 326.44 321.146 327.92 320.426 329.2C319.726 330.48 318.406 331.2 316.566 331.2C313.306 331.2 311.666 328.94 311.666 324.44ZM314.466 324.44C314.466 327.14 315.166 328.48 316.566 328.48C317.946 328.48 318.626 327.14 318.626 324.44C318.626 321.72 317.946 320.36 316.566 320.36C315.166 320.36 314.466 321.72 314.466 324.44ZM327.736 325.32H326.356V322.92H327.736C328.596 322.92 329.016 322.44 329.016 321.5C329.016 320.96 328.576 320.24 327.696 320.24C327.076 320.24 326.616 320.48 326.316 320.96L324.056 319.58C324.856 318.32 326.396 317.54 328.136 317.64C329.256 317.7 330.196 318.08 330.936 318.82C331.676 319.54 332.036 320.38 332.016 321.32C332.016 322.36 331.356 323.32 330.336 323.88C331.036 324.14 331.616 324.62 332.036 325.32C332.456 326.02 332.636 326.72 332.576 327.44C332.476 328.56 331.916 329.48 330.896 330.22C329.876 330.94 328.716 331.26 327.416 331.16C325.596 331.06 323.956 329.94 323.236 328.42L325.696 327.2C325.836 327.5 326.116 327.8 326.496 328.06C326.876 328.32 327.256 328.44 327.636 328.46C328.596 328.52 329.436 327.78 329.516 327.06C329.556 326.8 329.696 325.26 327.736 325.32ZM334.771 324.44C334.771 319.9 336.411 317.64 339.671 317.64C341.511 317.64 342.831 318.36 343.531 319.64C344.251 320.92 344.531 322.44 344.531 324.44C344.531 326.44 344.251 327.92 343.531 329.2C342.831 330.48 341.511 331.2 339.671 331.2C336.411 331.2 334.771 328.94 334.771 324.44ZM337.571 324.44C337.571 327.14 338.271 328.48 339.671 328.48C341.051 328.48 341.731 327.14 341.731 324.44C341.731 321.72 341.051 320.36 339.671 320.36C338.271 320.36 337.571 321.72 337.571 324.44Z"
        fill="white" />
    <path
        d="M80.136 63.632H75.672V60.464H88.152V63.632H83.688V77H80.136V63.632ZM99.8921 71.096V60.464H103.42V71.096C103.42 72.92 102.796 74.408 101.548 75.536C100.3 76.664 98.7881 77.24 97.0361 77.24C95.2841 77.24 93.7721 76.664 92.5001 75.536C91.2281 74.408 90.6041 72.92 90.6041 71.096V60.464H94.1801V71.096C94.1801 71.936 94.4681 72.608 95.0201 73.136C95.5961 73.664 96.2681 73.928 97.0361 73.928C97.8041 73.928 98.4761 73.664 99.0281 73.136C99.6041 72.584 99.8921 71.912 99.8921 71.096ZM113.732 63.56H110.66V68.216H113.636C114.908 68.216 115.724 67.064 115.724 65.888C115.724 64.736 114.956 63.56 113.732 63.56ZM115.268 71.144L119.372 77H115.148L111.452 71.288H110.66V77H107.132V60.464H113.9C115.652 60.464 117.02 60.992 117.956 62.072C118.916 63.128 119.396 64.4 119.396 65.888C119.396 68.408 117.956 70.568 115.268 71.144ZM134.005 60.464L127.741 68.648L135.493 77H130.933L125.965 71.384V77H122.413V60.464H125.965V65.888L129.877 60.464H134.005ZM147.718 77H137.038V60.464H147.502V63.56H140.542V67.328H146.638V70.376H140.542V73.904H147.718V77ZM158.522 69.56V77H154.946V69.512L148.562 60.464H152.738L156.722 66.656L160.754 60.464H164.93L158.522 69.56ZM165.004 80.24L162.844 79.424C163.972 77.888 164.74 75.488 164.716 73.208H168.1C168.076 74.864 167.764 76.304 167.116 77.48C166.492 78.656 165.796 79.592 165.004 80.24ZM182.623 64.28L180.943 70.04H184.375L182.623 64.28ZM186.967 77L185.503 73.088H179.791L178.327 77H174.583L180.727 60.464H184.543L190.663 77H186.967ZM201.371 60.464H204.899V77H201.755L195.995 66.992V77H192.491V60.464H195.707L201.371 70.352V60.464ZM211.972 63.632H207.508V60.464H219.988V63.632H215.524V77H211.972V63.632ZM227.248 64.28L225.568 70.04H229L227.248 64.28ZM231.592 77L230.128 73.088H224.416L222.952 77H219.208L225.352 60.464H229.168L235.288 77H231.592ZM246.836 77H237.116V60.464H240.644V73.904H246.836V77ZM255.038 69.56V77H251.462V69.512L245.077 60.464H249.254L253.238 66.656L257.27 60.464H261.446L255.038 69.56ZM79.845 91.525L78.135 96.115H81.555L79.845 91.525ZM83.04 100L82.035 97.375H77.655L76.65 100H75.165L79.095 89.665H80.595L84.51 100H83.04ZM90.413 96.085L93.173 100H91.478L88.808 96.13H87.488V100H86.078V89.665H90.053C91.073 89.665 91.838 89.98 92.348 90.61C92.858 91.24 93.113 92.005 93.113 92.905C93.113 93.745 92.888 94.465 92.438 95.065C92.003 95.665 91.328 96.01 90.413 96.085ZM90.008 90.97H87.488V94.825H89.948C91.133 94.825 91.673 93.985 91.673 92.905C91.673 91.84 91.133 90.97 90.008 90.97ZM95.3651 100V89.665H101.485V90.97H96.7601V94.27H100.885V95.575H96.7601V98.695H101.635V100H95.3651ZM103.055 97.015H104.45C104.465 97.48 104.675 97.915 105.095 98.29C105.515 98.665 106.04 98.845 106.67 98.845C107.915 98.845 108.62 98.185 108.755 97.33C108.83 96.31 108.08 95.725 107 95.485L105.665 95.155C103.985 94.72 103.145 93.82 103.145 92.455C103.145 91.6 103.475 90.91 104.135 90.37C104.795 89.815 105.575 89.545 106.49 89.545C107.45 89.545 108.245 89.83 108.875 90.385C109.505 90.94 109.82 91.66 109.82 92.575H108.425C108.425 91.555 107.615 90.88 106.475 90.88C105.95 90.88 105.5 91.03 105.11 91.315C104.735 91.6 104.54 91.975 104.54 92.44C104.54 93.16 105.035 93.64 106.01 93.88L107.36 94.21C109.325 94.705 110.315 95.83 110.12 97.45C110.03 98.23 109.67 98.875 109.055 99.385C108.44 99.895 107.645 100.15 106.67 100.15C105.635 100.15 104.78 99.835 104.09 99.22C103.4 98.59 103.055 97.855 103.055 97.015ZM120.186 100H116.181V89.665H120.186C121.611 89.665 122.751 90.16 123.576 91.135C124.416 92.11 124.836 93.34 124.836 94.855C124.836 96.355 124.416 97.585 123.591 98.56C122.766 99.52 121.626 100 120.186 100ZM117.576 90.97V98.695H120.186C121.221 98.695 122.031 98.335 122.586 97.63C123.156 96.91 123.441 95.98 123.441 94.855C123.441 93.715 123.156 92.785 122.586 92.065C122.031 91.33 121.221 90.97 120.186 90.97H117.576ZM131.37 96.085L134.13 100H132.435L129.765 96.13H128.445V100H127.035V89.665H131.01C132.03 89.665 132.795 89.98 133.305 90.61C133.815 91.24 134.07 92.005 134.07 92.905C134.07 93.745 133.845 94.465 133.395 95.065C132.96 95.665 132.285 96.01 131.37 96.085ZM130.965 90.97H128.445V94.825H130.905C132.09 94.825 132.63 93.985 132.63 92.905C132.63 91.84 132.09 90.97 130.965 90.97ZM136.322 100V89.665H142.442V90.97H137.717V94.27H141.842V95.575H137.717V98.695H142.592V100H136.322ZM148.239 91.525L146.529 96.115H149.949L148.239 91.525ZM151.434 100L150.429 97.375H146.049L145.044 100H143.559L147.489 89.665H148.989L152.904 100H151.434ZM156.422 89.665L160.067 97.255L163.712 89.665H164.987L166.247 100H164.867L163.922 92.23L160.697 98.86H159.467L156.212 92.23L155.267 100H153.887L155.147 89.665H156.422ZM178.762 89.665H180.172V100H178.762V95.5H173.767V100H172.372V89.665H173.767V94.225H178.762V89.665ZM182.317 94.855C182.317 93.37 182.827 92.125 183.832 91.09C184.837 90.055 186.082 89.545 187.537 89.545C189.007 89.545 190.252 90.055 191.257 91.09C192.277 92.125 192.787 93.37 192.787 94.855C192.787 96.325 192.277 97.57 191.257 98.605C190.252 99.64 189.007 100.15 187.537 100.15C186.082 100.15 184.837 99.64 183.832 98.605C182.827 97.57 182.317 96.325 182.317 94.855ZM187.537 90.895C186.472 90.895 185.557 91.285 184.822 92.05C184.087 92.815 183.712 93.76 183.712 94.855C183.712 95.95 184.072 96.895 184.807 97.66C185.542 98.425 186.457 98.8 187.537 98.8C188.617 98.8 189.532 98.425 190.267 97.66C191.002 96.895 191.377 95.95 191.377 94.855C191.377 93.76 191.002 92.815 190.267 92.05C189.532 91.285 188.617 90.895 187.537 90.895ZM193.574 90.985V89.665H201.254V90.985H198.119V100H196.709V90.985H193.574ZM203.09 100V89.665H209.21V90.97H204.485V94.27H208.61V95.575H204.485V98.695H209.36V100H203.09ZM211.571 100V89.665H212.966V98.695H217.181V100H211.571ZM224.585 93.055L223.415 94.75L222.515 94.06L223.79 92.485L221.825 91.93L222.02 91.36L222.2 90.835L224.075 91.57L223.955 89.545H225.14L225.005 91.57L225.935 91.21L226.91 90.835L227.255 91.93L225.305 92.455L226.61 94.075L225.68 94.72L224.585 93.055ZM231.587 93.055L230.417 94.75L229.517 94.06L230.792 92.485L228.827 91.93L229.022 91.36L229.202 90.835L231.077 91.57L230.957 89.545H232.142L232.007 91.57L232.937 91.21L233.912 90.835L234.257 91.93L232.307 92.455L233.612 94.075L232.682 94.72L231.587 93.055ZM238.589 93.055L237.419 94.75L236.519 94.06L237.794 92.485L235.829 91.93L236.024 91.36L236.204 90.835L238.079 91.57L237.959 89.545H239.144L239.009 91.57L239.939 91.21L240.914 90.835L241.259 91.93L239.309 92.455L240.614 94.075L239.684 94.72L238.589 93.055ZM245.591 93.055L244.421 94.75L243.521 94.06L244.796 92.485L242.831 91.93L243.026 91.36L243.206 90.835L245.081 91.57L244.961 89.545H246.146L246.011 91.57L246.941 91.21L247.916 90.835L248.261 91.93L246.311 92.455L247.616 94.075L246.686 94.72L245.591 93.055Z"
        fill="white" />
    <path
        d="M75.645 167.11V165.175H83.055L78.72 175H76.335L79.8 167.11H75.645ZM93.6742 164.665H95.8792V175H93.9142L90.3142 168.745V175H88.1242V164.665H90.1342L93.6742 170.845V164.665ZM98.3048 175V164.665H100.495V175H98.3048ZM111.499 166.24L109.879 167.635C109.264 166.93 108.499 166.585 107.614 166.585C106.744 166.585 106.009 166.9 105.409 167.545C104.824 168.19 104.524 168.955 104.524 169.855C104.524 170.755 104.824 171.535 105.424 172.18C106.024 172.825 106.759 173.14 107.614 173.14C108.214 173.14 108.784 172.975 109.309 172.645C109.834 172.3 110.104 171.88 110.119 171.355H107.344V169.57H112.654C112.654 171.445 112.204 172.84 111.289 173.77C110.389 174.685 109.159 175.15 107.614 175.15C106.129 175.15 104.884 174.64 103.849 173.605C102.829 172.57 102.319 171.31 102.319 169.855C102.319 168.385 102.829 167.14 103.849 166.105C104.884 165.07 106.129 164.545 107.614 164.545C109.174 164.545 110.584 165.175 111.499 166.24ZM120.122 168.88V164.665H122.342V175H120.122V170.845H116.447V175H114.257V164.665H116.447V168.88H120.122ZM126.77 166.645H123.98V164.665H131.78V166.645H128.99V175H126.77V166.645ZM132.862 171.97H135.067C135.112 172.675 135.667 173.215 136.612 173.215C137.512 173.215 138.112 172.78 138.127 172.12C138.142 171.595 137.857 171.235 136.882 170.95L135.637 170.605C133.852 170.05 132.967 169.06 132.967 167.635C132.967 166.72 133.312 165.985 133.987 165.415C134.662 164.83 135.517 164.545 136.522 164.545C137.542 164.545 138.382 164.83 139.027 165.4C139.687 165.97 140.017 166.735 140.017 167.71H137.827C137.827 167.005 137.347 166.54 136.492 166.54C135.712 166.54 135.157 166.975 135.157 167.575C135.157 168.07 135.532 168.415 136.267 168.625L137.497 169.015C139.432 169.57 140.377 170.62 140.332 172.135C140.317 172.78 140.137 173.35 139.762 173.83C139.027 174.775 137.887 175.165 136.612 175.165C135.487 175.165 134.587 174.865 133.897 174.28C133.207 173.68 132.862 172.915 132.862 171.97ZM79.98 190.965L78.15 194.025H79.98V190.965ZM83.34 194.025V195.795H82.095V198H79.98V195.795H75.285L79.875 188.175H82.095V194.025H83.34ZM92.1518 190.05L91.1018 193.65H93.2468L92.1518 190.05ZM94.8668 198L93.9518 195.555H90.3818L89.4668 198H87.1268L90.9668 187.665H93.3518L97.1768 198H94.8668ZM102.369 189.66H100.509V196.005H102.369C103.164 196.005 103.764 195.705 104.199 195.105C104.634 194.505 104.844 193.755 104.844 192.855C104.844 191.94 104.634 191.19 104.199 190.575C103.764 189.96 103.164 189.66 102.369 189.66ZM102.369 198H98.3195V187.665H102.369C103.824 187.665 104.964 188.16 105.789 189.135C106.614 190.11 107.034 191.34 107.034 192.855C107.034 194.37 106.614 195.6 105.789 196.56C104.964 197.52 103.824 198 102.369 198ZM114.625 194.31V187.665H116.83V194.31C116.83 195.45 116.44 196.38 115.66 197.085C114.88 197.79 113.935 198.15 112.84 198.15C111.745 198.15 110.8 197.79 110.005 197.085C109.21 196.38 108.82 195.45 108.82 194.31V187.665H111.055V194.31C111.055 194.835 111.235 195.255 111.58 195.585C111.94 195.915 112.36 196.08 112.84 196.08C113.32 196.08 113.74 195.915 114.085 195.585C114.445 195.24 114.625 194.82 114.625 194.31ZM125.225 198H119.15V187.665H121.355V196.065H125.225V198ZM127.912 189.645H125.122V187.665H132.922V189.645H130.132V198H127.912V189.645ZM134.005 194.97H136.21C136.255 195.675 136.81 196.215 137.755 196.215C138.655 196.215 139.255 195.78 139.27 195.12C139.285 194.595 139 194.235 138.025 193.95L136.78 193.605C134.995 193.05 134.11 192.06 134.11 190.635C134.11 189.72 134.455 188.985 135.13 188.415C135.805 187.83 136.66 187.545 137.665 187.545C138.685 187.545 139.525 187.83 140.17 188.4C140.83 188.97 141.16 189.735 141.16 190.71H138.97C138.97 190.005 138.49 189.54 137.635 189.54C136.855 189.54 136.3 189.975 136.3 190.575C136.3 191.07 136.675 191.415 137.41 191.625L138.64 192.015C140.575 192.57 141.52 193.62 141.475 195.135C141.46 195.78 141.28 196.35 140.905 196.83C140.17 197.775 139.03 198.165 137.755 198.165C136.63 198.165 135.73 197.865 135.04 197.28C134.35 196.68 134.005 195.915 134.005 194.97ZM79.935 213.05L78.885 216.65H81.03L79.935 213.05ZM82.65 221L81.735 218.555H78.165L77.25 221H74.91L78.75 210.665H81.135L84.96 221H82.65ZM92.1777 221H86.1027V210.665H88.3077V219.065H92.1777V221ZM99.8388 221H93.7638V210.665H95.9688V219.065H99.8388V221ZM104.662 221V210.665H106.852V221H104.662ZM114.827 210.665H117.032V221H115.067L111.467 214.745V221H109.277V210.665H111.287L114.827 216.845V210.665ZM126.627 217.655L128.397 218.885C127.482 220.28 125.892 221.15 124.047 221.15C122.577 221.15 121.347 220.64 120.342 219.605C119.352 218.57 118.857 217.325 118.857 215.855C118.857 214.37 119.352 213.125 120.342 212.09C121.347 211.055 122.577 210.545 124.047 210.545C125.847 210.545 127.437 211.4 128.352 212.735L126.567 213.965C125.952 213.065 125.112 212.615 124.047 212.615C123.192 212.615 122.487 212.93 121.917 213.56C121.347 214.175 121.062 214.94 121.062 215.855C121.062 216.755 121.347 217.52 121.917 218.15C122.487 218.765 123.192 219.08 124.047 219.08C125.112 219.08 126.042 218.51 126.627 217.655ZM136.02 221H129.945V210.665H132.15V219.065H136.02V221ZM143.175 217.31V210.665H145.38V217.31C145.38 218.45 144.99 219.38 144.21 220.085C143.43 220.79 142.485 221.15 141.39 221.15C140.295 221.15 139.35 220.79 138.555 220.085C137.76 219.38 137.37 218.45 137.37 217.31V210.665H139.605V217.31C139.605 217.835 139.785 218.255 140.13 218.585C140.49 218.915 140.91 219.08 141.39 219.08C141.87 219.08 142.29 218.915 142.635 218.585C142.995 218.24 143.175 217.82 143.175 217.31ZM147.144 217.97H149.349C149.394 218.675 149.949 219.215 150.894 219.215C151.794 219.215 152.394 218.78 152.409 218.12C152.424 217.595 152.139 217.235 151.164 216.95L149.919 216.605C148.134 216.05 147.249 215.06 147.249 213.635C147.249 212.72 147.594 211.985 148.269 211.415C148.944 210.83 149.799 210.545 150.804 210.545C151.824 210.545 152.664 210.83 153.309 211.4C153.969 211.97 154.299 212.735 154.299 213.71H152.109C152.109 213.005 151.629 212.54 150.774 212.54C149.994 212.54 149.439 212.975 149.439 213.575C149.439 214.07 149.814 214.415 150.549 214.625L151.779 215.015C153.714 215.57 154.659 216.62 154.614 218.135C154.599 218.78 154.419 219.35 154.044 219.83C153.309 220.775 152.169 221.165 150.894 221.165C149.769 221.165 148.869 220.865 148.179 220.28C147.489 219.68 147.144 218.915 147.144 217.97ZM156.43 221V210.665H158.62V221H156.43ZM163.219 221L160.069 210.665H162.349L164.194 217.445L166.024 210.665H168.319L165.169 221H163.219ZM176.45 221H169.775V210.665H176.315V212.6H171.965V214.955H175.775V216.86H171.965V219.065H176.45V221ZM82.155 242.02V244H75.765V242.86L79.8 238.075C80.145 237.67 80.325 237.31 80.325 236.965C80.325 236.425 79.86 235.99 79.095 235.99C78.36 235.99 77.82 236.56 77.7 237.355L75.78 237.025C76.08 235.15 77.37 233.98 79.215 233.98C80.1 233.98 80.865 234.265 81.48 234.82C82.11 235.375 82.425 236.095 82.425 236.965C82.425 237.85 82.08 238.675 81.39 239.455L79.125 242.02H82.155ZM86.9399 244L89.6999 240.205L87.3899 236.995H89.8199L90.8699 238.54L91.9049 236.995H94.3199L92.0099 240.205L94.7549 244H92.3399L90.8549 241.855L89.3549 244H86.9399ZM99.1561 240.97H101.361C101.406 241.675 101.961 242.215 102.906 242.215C103.806 242.215 104.406 241.78 104.421 241.12C104.436 240.595 104.151 240.235 103.176 239.95L101.931 239.605C100.146 239.05 99.2611 238.06 99.2611 236.635C99.2611 235.72 99.6061 234.985 100.281 234.415C100.956 233.83 101.811 233.545 102.816 233.545C103.836 233.545 104.676 233.83 105.321 234.4C105.981 234.97 106.311 235.735 106.311 236.71H104.121C104.121 236.005 103.641 235.54 102.786 235.54C102.006 235.54 101.451 235.975 101.451 236.575C101.451 237.07 101.826 237.415 102.561 237.625L103.791 238.015C105.726 238.57 106.671 239.62 106.626 241.135C106.611 241.78 106.431 242.35 106.056 242.83C105.321 243.775 104.181 244.165 102.906 244.165C101.781 244.165 100.881 243.865 100.191 243.28C99.5011 242.68 99.1561 241.915 99.1561 240.97ZM110.349 235.645H107.559V233.665H115.359V235.645H112.569V244H110.349V235.645ZM119.896 236.05L118.846 239.65H120.991L119.896 236.05ZM122.611 244L121.696 241.555H118.126L117.211 244H114.871L118.711 233.665H121.096L124.921 244H122.611ZM131.614 233.665H133.819V244H131.854L128.254 237.745V244H126.064V233.665H128.074L131.614 239.845V233.665ZM140.294 235.66H138.434V242.005H140.294C141.089 242.005 141.689 241.705 142.124 241.105C142.559 240.505 142.769 239.755 142.769 238.855C142.769 237.94 142.559 237.19 142.124 236.575C141.689 235.96 141.089 235.66 140.294 235.66ZM140.294 244H136.244V233.665H140.294C141.749 233.665 142.889 234.16 143.714 235.135C144.539 236.11 144.959 237.34 144.959 238.855C144.959 240.37 144.539 241.6 143.714 242.56C142.889 243.52 141.749 244 140.294 244ZM150.409 236.05L149.359 239.65H151.504L150.409 236.05ZM153.124 244L152.209 241.555H148.639L147.724 244H145.384L149.224 233.665H151.609L155.434 244H153.124ZM160.701 235.6H158.781V238.51H160.641C161.436 238.51 161.946 237.79 161.946 237.055C161.946 236.335 161.466 235.6 160.701 235.6ZM161.661 240.34L164.226 244H161.586L159.276 240.43H158.781V244H156.576V233.665H160.806C161.901 233.665 162.756 233.995 163.341 234.67C163.941 235.33 164.241 236.125 164.241 237.055C164.241 238.63 163.341 239.98 161.661 240.34ZM170.177 235.66H168.317V242.005H170.177C170.972 242.005 171.572 241.705 172.007 241.105C172.442 240.505 172.652 239.755 172.652 238.855C172.652 237.94 172.442 237.19 172.007 236.575C171.572 235.96 170.972 235.66 170.177 235.66ZM170.177 244H166.127V233.665H170.177C171.632 233.665 172.772 234.16 173.597 235.135C174.422 236.11 174.842 237.34 174.842 238.855C174.842 240.37 174.422 241.6 173.597 242.56C172.772 243.52 171.632 244 170.177 244ZM184.52 235.6H182.6V238.51H184.46C185.255 238.51 185.765 237.79 185.765 237.055C185.765 236.335 185.285 235.6 184.52 235.6ZM185.48 240.34L188.045 244H185.405L183.095 240.43H182.6V244H180.395V233.665H184.625C185.72 233.665 186.575 233.995 187.16 234.67C187.76 235.33 188.06 236.125 188.06 237.055C188.06 238.63 187.16 239.98 185.48 240.34ZM197.64 238.855C197.64 237.985 197.34 237.25 196.74 236.635C196.155 236.02 195.435 235.72 194.58 235.72C193.725 235.72 193.005 236.02 192.42 236.635C191.835 237.25 191.535 237.985 191.535 238.855C191.535 239.725 191.835 240.46 192.42 241.075C193.005 241.675 193.725 241.975 194.58 241.975C195.435 241.975 196.155 241.675 196.74 241.06C197.34 240.445 197.64 239.71 197.64 238.855ZM189.345 238.855C189.345 237.385 189.855 236.14 190.86 235.105C191.88 234.07 193.125 233.545 194.58 233.545C196.05 233.545 197.295 234.07 198.3 235.105C199.32 236.14 199.83 237.385 199.83 238.855C199.83 240.31 199.32 241.57 198.3 242.605C197.28 243.64 196.035 244.15 194.58 244.15C193.125 244.15 191.88 243.64 190.86 242.605C189.855 241.57 189.345 240.31 189.345 238.855ZM209.359 238.855C209.359 237.985 209.059 237.25 208.459 236.635C207.874 236.02 207.154 235.72 206.299 235.72C205.444 235.72 204.724 236.02 204.139 236.635C203.554 237.25 203.254 237.985 203.254 238.855C203.254 239.725 203.554 240.46 204.139 241.075C204.724 241.675 205.444 241.975 206.299 241.975C207.154 241.975 207.874 241.675 208.459 241.06C209.059 240.445 209.359 239.71 209.359 238.855ZM201.064 238.855C201.064 237.385 201.574 236.14 202.579 235.105C203.599 234.07 204.844 233.545 206.299 233.545C207.769 233.545 209.014 234.07 210.019 235.105C211.039 236.14 211.549 237.385 211.549 238.855C211.549 240.31 211.039 241.57 210.019 242.605C208.999 243.64 207.754 244.15 206.299 244.15C204.844 244.15 203.599 243.64 202.579 242.605C201.574 241.57 201.064 240.31 201.064 238.855ZM215.903 233.665L219.023 240.325L222.113 233.665H223.958L225.218 244H223.013L222.293 237.805L219.878 242.815H218.183L215.753 237.805L215.018 244H212.813L214.088 233.665H215.903Z"
        fill="white" />
    <line opacity="0.5" x1="75" y1="129.5" x2="295" y2="129.5" stroke="white" />
    <line opacity="0.5" x1="75" y1="283.5" x2="395" y2="283.5" stroke="white" />
    <circle cx="373.5" cy="130.5" r="64.5" fill="url(#paint1_radial_0_1)" />
    <path
        d="M338.286 169H331.611V158.665H338.151V160.6H333.801V162.955H337.611V164.86H333.801V167.065H338.286V169ZM345.954 165.31V158.665H348.159V165.31C348.159 166.45 347.769 167.38 346.989 168.085C346.209 168.79 345.264 169.15 344.169 169.15C343.074 169.15 342.129 168.79 341.334 168.085C340.539 167.38 340.149 166.45 340.149 165.31V158.665H342.384V165.31C342.384 165.835 342.564 166.255 342.909 166.585C343.269 166.915 343.689 167.08 344.169 167.08C344.649 167.08 345.069 166.915 345.414 166.585C345.774 166.24 345.954 165.82 345.954 165.31ZM354.604 160.6H352.684V163.51H354.544C355.339 163.51 355.849 162.79 355.849 162.055C355.849 161.335 355.369 160.6 354.604 160.6ZM355.564 165.34L358.129 169H355.489L353.179 165.43H352.684V169H350.479V158.665H354.709C355.804 158.665 356.659 158.995 357.244 159.67C357.844 160.33 358.144 161.125 358.144 162.055C358.144 163.63 357.244 164.98 355.564 165.34ZM365.61 155.944L371.658 153.064V169H368.298V157.744L365.61 158.896V155.944ZM385.169 165.832V169H374.945V167.176L381.401 159.52C381.953 158.872 382.241 158.296 382.241 157.744C382.241 156.88 381.497 156.184 380.273 156.184C379.097 156.184 378.233 157.096 378.041 158.368L374.969 157.84C375.449 154.84 377.513 152.968 380.465 152.968C381.881 152.968 383.105 153.424 384.089 154.312C385.097 155.2 385.601 156.352 385.601 157.744C385.601 159.16 385.049 160.48 383.945 161.728L380.321 165.832H385.169ZM394.837 157.744L391.909 162.64H394.837V157.744ZM400.213 162.64V165.472H398.221V169H394.837V165.472H387.325L394.669 153.28H398.221V162.64H400.213ZM403.611 157.36C403.611 156.136 404.091 155.104 405.027 154.264C405.987 153.4 407.139 152.968 408.459 152.968C409.779 152.968 410.931 153.4 411.891 154.264C412.851 155.104 413.331 156.136 413.331 157.36C413.331 158.44 412.947 159.304 412.179 160C413.547 160.792 414.435 162.256 414.435 163.96C414.435 165.448 413.859 166.696 412.683 167.728C411.531 168.736 410.115 169.24 408.459 169.24C406.803 169.24 405.387 168.736 404.211 167.728C403.059 166.696 402.483 165.448 402.483 163.96C402.483 162.256 403.323 160.792 404.739 160C403.995 159.28 403.611 158.392 403.611 157.36ZM405.843 163.792C405.843 165.112 407.043 166.12 408.459 166.12C409.875 166.12 411.075 165.112 411.075 163.792C411.075 162.52 410.091 161.44 408.435 161.44C406.803 161.44 405.843 162.52 405.843 163.792ZM406.851 157.456C406.851 158.32 407.427 158.968 408.459 158.968C409.491 158.968 410.067 158.32 410.067 157.456C410.067 156.664 409.443 155.992 408.459 155.992C407.475 155.992 406.851 156.664 406.851 157.456Z"
        fill="white" />
    <path
        d="M344.75 141.245V146H343.31V141.245L339.395 135.665H341.06L344.03 139.85L347.03 135.665H348.71L344.75 141.245ZM348.859 140.855C348.859 139.37 349.369 138.125 350.374 137.09C351.379 136.055 352.624 135.545 354.079 135.545C355.549 135.545 356.794 136.055 357.799 137.09C358.819 138.125 359.329 139.37 359.329 140.855C359.329 142.325 358.819 143.57 357.799 144.605C356.794 145.64 355.549 146.15 354.079 146.15C352.624 146.15 351.379 145.64 350.374 144.605C349.369 143.57 348.859 142.325 348.859 140.855ZM354.079 136.895C353.014 136.895 352.099 137.285 351.364 138.05C350.629 138.815 350.254 139.76 350.254 140.855C350.254 141.95 350.614 142.895 351.349 143.66C352.084 144.425 352.999 144.8 354.079 144.8C355.159 144.8 356.074 144.425 356.809 143.66C357.544 142.895 357.919 141.95 357.919 140.855C357.919 139.76 357.544 138.815 356.809 138.05C356.074 137.285 355.159 136.895 354.079 136.895ZM367.517 142.445V135.665H368.927V142.445C368.927 143.54 368.552 144.44 367.817 145.13C367.082 145.805 366.197 146.15 365.147 146.15C364.097 146.15 363.197 145.805 362.462 145.13C361.727 144.44 361.367 143.54 361.367 142.445V135.665H362.777V142.445C362.777 143.135 363.002 143.705 363.467 144.14C363.932 144.575 364.487 144.8 365.147 144.8C365.807 144.8 366.362 144.575 366.827 144.14C367.292 143.705 367.517 143.135 367.517 142.445ZM374.905 143.015H376.3C376.315 143.48 376.525 143.915 376.945 144.29C377.365 144.665 377.89 144.845 378.52 144.845C379.765 144.845 380.47 144.185 380.605 143.33C380.68 142.31 379.93 141.725 378.85 141.485L377.515 141.155C375.835 140.72 374.995 139.82 374.995 138.455C374.995 137.6 375.325 136.91 375.985 136.37C376.645 135.815 377.425 135.545 378.34 135.545C379.3 135.545 380.095 135.83 380.725 136.385C381.355 136.94 381.67 137.66 381.67 138.575H380.275C380.275 137.555 379.465 136.88 378.325 136.88C377.8 136.88 377.35 137.03 376.96 137.315C376.585 137.6 376.39 137.975 376.39 138.44C376.39 139.16 376.885 139.64 377.86 139.88L379.21 140.21C381.175 140.705 382.165 141.83 381.97 143.45C381.88 144.23 381.52 144.875 380.905 145.385C380.29 145.895 379.495 146.15 378.52 146.15C377.485 146.15 376.63 145.835 375.94 145.22C375.25 144.59 374.905 143.855 374.905 143.015ZM387.48 137.525L385.77 142.115H389.19L387.48 137.525ZM390.675 146L389.67 143.375H385.29L384.285 146H382.8L386.73 135.665H388.23L392.145 146H390.675ZM392.196 135.665H393.651L395.991 143.645L398.331 135.665H399.771L396.666 146H395.331L392.196 135.665ZM401.609 146V135.665H407.729V136.97H403.004V140.27H407.129V141.575H403.004V144.695H407.879V146H401.609Z"
        fill="white" />
    <path
        d="M347.129 111.124H334.421V107.164H347.129V111.124ZM361.371 102.808C363.243 102.808 364.899 103.492 366.375 104.896C367.851 106.3 368.607 108.244 368.607 110.764C368.607 113.032 367.815 114.868 366.231 116.272C364.683 117.676 362.595 118.36 360.039 118.36C357.771 118.36 355.863 117.604 354.279 116.128C352.695 114.616 351.795 112.636 351.579 110.152C351.003 102.88 352.263 93.628 361.119 93.952C364.323 94.096 366.807 95.212 368.391 98.524L363.675 100.54C363.063 99.28 362.163 98.668 360.939 98.668C357.591 98.74 356.367 102.232 356.619 105.472C356.799 104.896 357.339 104.32 358.167 103.708C358.995 103.096 360.075 102.808 361.371 102.808ZM362.451 112.672C363.711 111.412 363.711 109.504 362.451 108.316C361.263 107.056 359.355 107.056 358.095 108.316C356.907 109.504 356.907 111.412 358.095 112.672C359.355 113.86 361.263 113.86 362.451 112.672ZM373.86 100.54C373.86 98.704 374.58 97.156 375.984 95.896C377.424 94.6 379.152 93.952 381.132 93.952C383.112 93.952 384.84 94.6 386.28 95.896C387.72 97.156 388.44 98.704 388.44 100.54C388.44 102.16 387.864 103.456 386.712 104.5C388.764 105.688 390.096 107.884 390.096 110.44C390.096 112.672 389.232 114.544 387.468 116.092C385.74 117.604 383.616 118.36 381.132 118.36C378.648 118.36 376.524 117.604 374.76 116.092C373.032 114.544 372.168 112.672 372.168 110.44C372.168 107.884 373.428 105.688 375.552 104.5C374.436 103.42 373.86 102.088 373.86 100.54ZM377.208 110.188C377.208 112.168 379.008 113.68 381.132 113.68C383.256 113.68 385.056 112.168 385.056 110.188C385.056 108.28 383.58 106.66 381.096 106.66C378.648 106.66 377.208 108.28 377.208 110.188ZM378.72 100.684C378.72 101.98 379.584 102.952 381.132 102.952C382.68 102.952 383.544 101.98 383.544 100.684C383.544 99.496 382.608 98.488 381.132 98.488C379.656 98.488 378.72 99.496 378.72 100.684ZM411.254 94.42L399.662 118H397.178L408.77 94.42H411.254ZM397.934 94.168C399.266 94.168 400.382 94.636 401.318 95.572C402.29 96.508 402.758 97.66 402.758 98.992C402.758 100.324 402.29 101.476 401.354 102.412C400.418 103.312 399.266 103.78 397.934 103.78C396.602 103.78 395.45 103.312 394.514 102.412C393.614 101.476 393.146 100.324 393.146 98.992C393.146 97.66 393.614 96.508 394.514 95.572C395.45 94.636 396.602 94.168 397.934 94.168ZM397.934 100.864C398.978 100.864 399.842 100.036 399.842 98.992C399.842 97.948 398.978 97.084 397.934 97.084C396.89 97.084 396.062 97.948 396.062 98.992C396.062 100.036 396.818 100.864 397.934 100.864ZM410.678 108.748C412.01 108.748 413.126 109.216 414.062 110.188C415.034 111.124 415.502 112.24 415.502 113.572C415.502 114.904 415.034 116.056 414.098 116.992C413.162 117.892 412.01 118.36 410.678 118.36C409.346 118.36 408.194 117.892 407.258 116.992C406.358 116.056 405.89 114.904 405.89 113.572C405.89 112.24 406.358 111.088 407.258 110.152C408.194 109.216 409.346 108.748 410.678 108.748ZM408.806 113.572C408.806 114.688 409.562 115.444 410.678 115.444C412.334 115.444 413.27 113.392 412.01 112.24C410.858 110.98 408.806 111.916 408.806 113.572Z"
        fill="white" />
    <line x1="409" y1="127" x2="339" y2="127" stroke="white" stroke-width="2" />
    <g filter="url(#filter0_d_0_1)">
        <rect x="75" y="359" width="320" height="103" rx="20" fill="white" />
    </g>
    <path
        d="M127.832 410H113.592V387.952H127.544V392.08H118.264V397.104H126.392V401.168H118.264V405.872H127.832V410ZM144.19 402.128V387.952H148.894V402.128C148.894 404.56 148.062 406.544 146.398 408.048C144.734 409.552 142.718 410.32 140.382 410.32C138.046 410.32 136.03 409.552 134.334 408.048C132.638 406.544 131.806 404.56 131.806 402.128V387.952H136.574V402.128C136.574 403.248 136.958 404.144 137.694 404.848C138.462 405.552 139.358 405.904 140.382 405.904C141.406 405.904 142.302 405.552 143.038 404.848C143.806 404.112 144.19 403.216 144.19 402.128ZM162.642 392.08H158.546V398.288H162.514C164.21 398.288 165.298 396.752 165.298 395.184C165.298 393.648 164.274 392.08 162.642 392.08ZM164.69 402.192L170.162 410H164.53L159.602 402.384H158.546V410H153.842V387.952H162.866C165.202 387.952 167.026 388.656 168.274 390.096C169.554 391.504 170.194 393.2 170.194 395.184C170.194 398.544 168.274 401.424 164.69 402.192ZM190.158 396.496C191.822 396.496 193.294 397.104 194.606 398.352C195.918 399.6 196.59 401.328 196.59 403.568C196.59 405.584 195.885 407.216 194.478 408.464C193.102 409.712 191.246 410.32 188.974 410.32C186.958 410.32 185.262 409.648 183.854 408.336C182.446 406.992 181.646 405.232 181.454 403.024C180.942 396.56 182.062 388.336 189.934 388.624C192.782 388.752 194.99 389.744 196.398 392.688L192.206 394.48C191.662 393.36 190.862 392.816 189.774 392.816C186.798 392.88 185.71 395.984 185.934 398.864C186.094 398.352 186.574 397.84 187.31 397.296C188.046 396.752 189.006 396.496 190.158 396.496ZM191.118 405.264C192.238 404.144 192.238 402.448 191.118 401.392C190.062 400.272 188.366 400.272 187.246 401.392C186.19 402.448 186.19 404.144 187.246 405.264C188.366 406.32 190.062 406.32 191.118 405.264ZM199.564 393.168V389.04H215.372L206.124 410H201.036L208.428 393.168H199.564ZM217.637 399.504C217.637 392.24 220.261 388.624 225.477 388.624C228.421 388.624 230.533 389.776 231.653 391.824C232.805 393.872 233.253 396.304 233.253 399.504C233.253 402.704 232.805 405.072 231.653 407.12C230.533 409.168 228.421 410.32 225.477 410.32C220.261 410.32 217.637 406.704 217.637 399.504ZM222.117 399.504C222.117 403.824 223.237 405.968 225.477 405.968C227.685 405.968 228.773 403.824 228.773 399.504C228.773 395.152 227.685 392.976 225.477 392.976C223.237 392.976 222.117 395.152 222.117 399.504ZM257.626 403.28H252.666V408.24H249.402V403.28H244.474V400.016H249.402V395.088H252.666V400.016H257.626V403.28ZM277.624 394.992L273.72 401.52H277.624V394.992ZM284.792 401.52V405.296H282.136V410H277.624V405.296H267.608L277.4 389.04H282.136V401.52H284.792ZM312.015 394.096C312.015 395.76 311.087 397.424 309.007 398.224C310.351 398.576 311.375 399.248 312.079 400.24C312.815 401.232 313.167 402.224 313.167 403.248C313.167 405.136 312.527 406.736 311.247 408.048C309.967 409.36 308.271 410 306.127 410H296.655V387.952H305.487C309.455 387.952 312.015 390.352 312.015 394.096ZM301.359 392.08V396.656H305.039C306.223 396.656 307.087 395.696 307.087 394.384C307.087 392.976 306.383 392.08 305.007 392.08H301.359ZM305.775 400.528H301.359V405.872H305.871C307.375 405.872 308.239 404.592 308.239 403.152C308.239 401.776 307.311 400.528 305.775 400.528ZM325.99 392.08H321.734V398.288H325.862C327.558 398.288 328.646 396.752 328.646 395.184C328.646 393.648 327.622 392.08 325.99 392.08ZM321.734 410H317.03V387.952H326.086C328.454 387.952 330.246 388.656 331.494 390.096C332.742 391.504 333.35 393.2 333.35 395.184C333.35 397.168 332.742 398.864 331.494 400.272C330.246 401.68 328.454 402.384 326.086 402.384H321.734V410ZM353.102 399.024C353.102 397.168 352.462 395.6 351.182 394.288C349.934 392.976 348.398 392.336 346.574 392.336C344.75 392.336 343.214 392.976 341.966 394.288C340.718 395.6 340.078 397.168 340.078 399.024C340.078 400.88 340.718 402.448 341.966 403.76C343.214 405.04 344.75 405.68 346.574 405.68C348.398 405.68 349.934 405.04 351.182 403.728C352.462 402.416 353.102 400.848 353.102 399.024ZM335.406 399.024C335.406 395.888 336.494 393.232 338.638 391.024C340.814 388.816 343.47 387.696 346.574 387.696C349.71 387.696 352.366 388.816 354.51 391.024C356.686 393.232 357.774 395.888 357.774 399.024C357.774 402.128 356.686 404.816 354.51 407.024C352.334 409.232 349.678 410.32 346.574 410.32C343.47 410.32 340.814 409.232 338.638 407.024C336.494 404.816 335.406 402.128 335.406 399.024Z"
        fill="#03659C" />
    <path
        d="M351.002 447.557C361.745 459.021 375.889 462 383 462L235 462L235 427.957L316.16 427.957C334.647 427.957 341.335 437.241 351.002 447.557Z"
        fill="url(#paint2_linear_0_1)" />
    <path
        d="M118.998 447.557C108.255 459.021 94.1107 462 87 462L235 462L235 427.957L153.84 427.957C135.353 427.957 128.665 437.241 118.998 447.557Z"
        fill="url(#paint3_linear_0_1)" />
    <path
        d="M179.42 449H177.215V438.665H183.68V440.6H179.42V442.955H182.795V444.875H179.42V449ZM185.286 449V438.665H187.476V449H185.286ZM194.026 440.6H192.106V443.51H193.966C194.761 443.51 195.271 442.79 195.271 442.055C195.271 441.335 194.791 440.6 194.026 440.6ZM194.986 445.34L197.551 449H194.911L192.601 445.43H192.106V449H189.901V438.665H194.131C195.226 438.665 196.081 438.995 196.666 439.67C197.266 440.33 197.566 441.125 197.566 442.055C197.566 443.63 196.666 444.98 194.986 445.34ZM206.126 449H199.451V438.665H205.991V440.6H201.641V442.955H205.451V444.86H201.641V447.065H206.126V449ZM210.299 449H208.094V438.665H214.559V440.6H210.299V442.955H213.674V444.875H210.299V449ZM222.24 449H216.165V438.665H218.37V447.065H222.24V449ZM223.826 449V438.665H226.016V449H223.826ZM235.116 449H228.441V438.665H234.981V440.6H230.631V442.955H234.441V444.86H230.631V447.065H235.116V449ZM236.411 445.97H238.616C238.661 446.675 239.216 447.215 240.161 447.215C241.061 447.215 241.661 446.78 241.676 446.12C241.691 445.595 241.406 445.235 240.431 444.95L239.186 444.605C237.401 444.05 236.516 443.06 236.516 441.635C236.516 440.72 236.861 439.985 237.536 439.415C238.211 438.83 239.066 438.545 240.071 438.545C241.091 438.545 241.931 438.83 242.576 439.4C243.236 439.97 243.566 440.735 243.566 441.71H241.376C241.376 441.005 240.896 440.54 240.041 440.54C239.261 440.54 238.706 440.975 238.706 441.575C238.706 442.07 239.081 442.415 239.816 442.625L241.046 443.015C242.981 443.57 243.926 444.62 243.881 446.135C243.866 446.78 243.686 447.35 243.311 447.83C242.576 448.775 241.436 449.165 240.161 449.165C239.036 449.165 238.136 448.865 237.446 448.28C236.756 447.68 236.411 446.915 236.411 445.97ZM257.054 443.855C257.054 442.985 256.754 442.25 256.154 441.635C255.569 441.02 254.849 440.72 253.994 440.72C253.139 440.72 252.419 441.02 251.834 441.635C251.249 442.25 250.949 442.985 250.949 443.855C250.949 444.725 251.249 445.46 251.834 446.075C252.419 446.675 253.139 446.975 253.994 446.975C254.849 446.975 255.569 446.675 256.154 446.06C256.754 445.445 257.054 444.71 257.054 443.855ZM248.759 443.855C248.759 442.385 249.269 441.14 250.274 440.105C251.294 439.07 252.539 438.545 253.994 438.545C255.464 438.545 256.709 439.07 257.714 440.105C258.734 441.14 259.244 442.385 259.244 443.855C259.244 445.31 258.734 446.57 257.714 447.605C256.694 448.64 255.449 449.15 253.994 449.15C252.539 449.15 251.294 448.64 250.274 447.605C249.269 446.57 248.759 445.31 248.759 443.855ZM263.282 449H261.077V438.665H267.542V440.6H263.282V442.955H266.657V444.875H263.282V449ZM271.354 449H269.149V438.665H275.614V440.6H271.354V442.955H274.729V444.875H271.354V449ZM283.895 449H277.22V438.665H283.76V440.6H279.41V442.955H283.22V444.86H279.41V447.065H283.895V449ZM289.987 440.6H288.067V443.51H289.927C290.722 443.51 291.232 442.79 291.232 442.055C291.232 441.335 290.752 440.6 289.987 440.6ZM290.947 445.34L293.512 449H290.872L288.562 445.43H288.067V449H285.862V438.665H290.092C291.187 438.665 292.042 438.995 292.627 439.67C293.227 440.33 293.527 441.125 293.527 442.055C293.527 443.63 292.627 444.98 290.947 445.34Z"
        fill="white" />
    <defs>
        <filter id="filter0_d_0_1" x="55" y="349" width="360" height="143" filterUnits="userSpaceOnUse"
            color-interpolation-filters="sRGB">
            <feFlood flood-opacity="0" result="BackgroundImageFix" />
            <feColorMatrix in="SourceAlpha" type="matrix" values="0 0 0 0 0 0 0 0 0 0 0 0 0 0 0 0 0 0 127 0"
                result="hardAlpha" />
            <feOffset dy="10" />
            <feGaussianBlur stdDeviation="10" />
            <feComposite in2="hardAlpha" operator="out" />
            <feColorMatrix type="matrix" values="0 0 0 0 0 0 0 0 0 0 0 0 0 0 0 0 0 0 0.15 0" />
            <feBlend mode="normal" in2="BackgroundImageFix" result="effect1_dropShadow_0_1" />
            <feBlend mode="normal" in="SourceGraphic" in2="effect1_dropShadow_0_1" result="shape" />
        </filter>
        <linearGradient id="paint0_linear_0_1" x1="453" y1="508" x2="2.1665" y2="492.594"
            gradientUnits="userSpaceOnUse">
            <stop stop-color="#03659C" />
            <stop offset="1" stop-color="#13AFB6" />
        </linearGradient>
        <radialGradient id="paint1_radial_0_1" cx="0" cy="0" r="1" gradientUnits="userSpaceOnUse"
            gradientTransform="translate(341.5 90) rotate(56.9519) scale(99.0202)">
            <stop stop-color="#FFAEB2" />
            <stop offset="0.539026" stop-color="#D5484E" />
            <stop offset="0.892787" stop-color="#B81A21" />
        </radialGradient>
        <linearGradient id="paint2_linear_0_1" x1="311.081" y1="462.457" x2="311.081" y2="428.457"
            gradientUnits="userSpaceOnUse">
            <stop stop-color="#13AFB6" />
            <stop offset="1" stop-color="#03659C" />
        </linearGradient>
        <linearGradient id="paint3_linear_0_1" x1="158.919" y1="462.457" x2="158.919" y2="428.457"
            gradientUnits="userSpaceOnUse">
            <stop stop-color="#13AFB6" />
            <stop offset="1" stop-color="#03659C" />
        </linearGradient>
    </defs>
</svg>