<svg width="453" height="508" viewBox="0 0 453 508" fill="none" xmlns="http://www.w3.org/2000/svg">
    <path
        d="M19 20C19 8.9543 27.9543 0 39 0H433C444.046 0 453 8.95431 453 20V488C453 499.046 444.046 508 433 508H39C27.9543 508 19 499.046 19 488V296.059C19 292.739 18.1732 289.47 16.5941 286.549L1.57037 258.755C-0.0335475 255.788 -0.033551 252.212 1.57036 249.245L16.5941 221.451C18.1732 218.53 19 215.261 19 211.941V20Z"
        fill="url(#paint0_linear_0_1)" />
    <path
        d="M126.96 317.22L131.82 327.34L136.68 317.22H138.38L140.06 331H138.22L136.96 320.64L132.66 329.48H131.02L126.68 320.64L125.42 331H123.58L125.26 317.22H126.96ZM147.612 319.7L145.332 325.82H149.892L147.612 319.7ZM151.872 331L150.532 327.5H144.692L143.352 331H141.372L146.612 317.22H148.612L153.832 331H151.872ZM161.703 325.78L165.383 331H163.123L159.563 325.84H157.803V331H155.923V317.22H161.223C162.583 317.22 163.603 317.64 164.283 318.48C164.963 319.32 165.303 320.34 165.303 321.54C165.303 322.66 165.003 323.62 164.403 324.42C163.823 325.22 162.923 325.68 161.703 325.78ZM161.163 318.96H157.803V324.1H161.083C162.663 324.1 163.383 322.98 163.383 321.54C163.383 320.12 162.663 318.96 161.163 318.96ZM177.026 317.22L171.726 324.1L178.126 331H175.626L170.166 325.12V331H168.306V317.22H170.166V323.18L174.726 317.22H177.026ZM179.868 331V317.22H188.028V318.96H181.728V323.36H187.228V325.1H181.728V329.26H188.228V331H179.868ZM189.857 318.98V317.22H200.097V318.98H195.917V331H194.037V318.98H189.857ZM207.153 331V317.22H212.653C214.013 317.22 215.033 317.64 215.713 318.48C216.413 319.32 216.753 320.34 216.753 321.54C216.753 322.74 216.413 323.76 215.713 324.6C215.033 325.42 214.013 325.84 212.653 325.84H209.033V331H207.153ZM212.633 318.96H209.033V324.1H212.533C214.113 324.1 214.893 322.96 214.893 321.54C214.893 320.12 214.133 318.96 212.633 318.96ZM225.062 325.78L228.742 331H226.482L222.922 325.84H221.162V331H219.282V317.22H224.582C225.942 317.22 226.962 317.64 227.642 318.48C228.322 319.32 228.662 320.34 228.662 321.54C228.662 322.66 228.362 323.62 227.762 324.42C227.182 325.22 226.282 325.68 225.062 325.78ZM224.522 318.96H221.162V324.1H224.442C226.022 324.1 226.742 322.98 226.742 321.54C226.742 320.12 226.022 318.96 224.522 318.96ZM231.665 331V317.22H233.525V331H231.665ZM247.19 327.64L248.59 328.82C247.33 330.32 245.47 331.2 243.37 331.2C241.43 331.2 239.77 330.52 238.41 329.14C237.07 327.76 236.39 326.1 236.39 324.14C236.39 322.18 237.07 320.52 238.41 319.14C239.77 317.76 241.43 317.06 243.37 317.06C245.45 317.06 247.29 317.94 248.55 319.4L247.15 320.56C246.11 319.42 244.85 318.86 243.37 318.86C241.93 318.86 240.71 319.38 239.73 320.4C238.75 321.42 238.25 322.68 238.25 324.14C238.25 325.6 238.75 326.86 239.73 327.88C240.71 328.9 241.93 329.4 243.37 329.4C244.91 329.4 246.19 328.82 247.19 327.64ZM250.943 331V317.22H259.103V318.96H252.803V323.36H258.303V325.1H252.803V329.26H259.303V331H250.943ZM262.131 330.86C261.631 330.38 261.631 329.54 262.131 329.06C262.671 328.58 263.491 328.58 263.991 329.06C264.491 329.54 264.491 330.38 263.991 330.86C263.491 331.32 262.671 331.32 262.131 330.86ZM262.131 323.6C261.631 323.12 261.631 322.28 262.131 321.82C262.671 321.34 263.491 321.34 263.991 321.82C264.491 322.28 264.491 323.12 263.991 323.6C263.491 324.08 262.671 324.08 262.131 323.6ZM281.458 331H272.558V317.22H281.278V319.8H275.478V322.94H280.558V325.48H275.478V328.42H281.458V331ZM291.681 326.08V317.22H294.621V326.08C294.621 327.6 294.101 328.84 293.061 329.78C292.021 330.72 290.761 331.2 289.301 331.2C287.841 331.2 286.581 330.72 285.521 329.78C284.461 328.84 283.941 327.6 283.941 326.08V317.22H286.921V326.08C286.921 326.78 287.161 327.34 287.621 327.78C288.101 328.22 288.661 328.44 289.301 328.44C289.941 328.44 290.501 328.22 290.961 327.78C291.441 327.32 291.681 326.76 291.681 326.08ZM303.214 319.8H300.654V323.68H303.134C304.194 323.68 304.874 322.72 304.874 321.74C304.874 320.78 304.234 319.8 303.214 319.8ZM304.494 326.12L307.914 331H304.394L301.314 326.24H300.654V331H297.714V317.22H303.354C304.814 317.22 305.954 317.66 306.734 318.56C307.534 319.44 307.934 320.5 307.934 321.74C307.934 323.84 306.734 325.64 304.494 326.12ZM320.411 322.56C321.451 322.56 322.371 322.94 323.191 323.72C324.011 324.5 324.431 325.58 324.431 326.98C324.431 328.24 323.991 329.26 323.111 330.04C322.251 330.82 321.091 331.2 319.671 331.2C318.411 331.2 317.351 330.78 316.471 329.96C315.591 329.12 315.091 328.02 314.971 326.64C314.651 322.6 315.351 317.46 320.271 317.64C322.051 317.72 323.431 318.34 324.311 320.18L321.691 321.3C321.351 320.6 320.851 320.26 320.171 320.26C318.311 320.3 317.631 322.24 317.771 324.04C317.871 323.72 318.171 323.4 318.631 323.06C319.091 322.72 319.691 322.56 320.411 322.56ZM321.011 328.04C321.711 327.34 321.711 326.28 321.011 325.62C320.351 324.92 319.291 324.92 318.591 325.62C317.931 326.28 317.931 327.34 318.591 328.04C319.291 328.7 320.351 328.7 321.011 328.04ZM326.29 320.48V317.9H336.17L330.39 331H327.21L331.83 320.48H326.29ZM342.128 321.62L339.688 325.7H342.128V321.62ZM346.608 325.7V328.06H344.948V331H342.128V328.06H335.868L341.988 317.9H344.948V325.7H346.608Z"
        fill="white" />
    <path
        d="M83.424 63.656H80.448V73.808H83.424C84.696 73.808 85.656 73.328 86.352 72.368C87.048 71.408 87.384 70.208 87.384 68.768C87.384 67.304 87.048 66.104 86.352 65.12C85.656 64.136 84.696 63.656 83.424 63.656ZM83.424 77H76.944V60.464H83.424C85.752 60.464 87.576 61.256 88.896 62.816C90.216 64.376 90.888 66.344 90.888 68.768C90.888 71.192 90.216 73.16 88.896 74.696C87.576 76.232 85.752 77 83.424 77ZM103.033 71.096V60.464H106.561V71.096C106.561 72.92 105.937 74.408 104.689 75.536C103.441 76.664 101.929 77.24 100.177 77.24C98.4248 77.24 96.9128 76.664 95.6408 75.536C94.3688 74.408 93.7448 72.92 93.7448 71.096V60.464H97.3208V71.096C97.3208 71.936 97.6088 72.608 98.1608 73.136C98.7368 73.664 99.4088 73.928 100.177 73.928C100.945 73.928 101.617 73.664 102.169 73.136C102.745 72.584 103.033 71.912 103.033 71.096ZM121.792 65.072C121.792 66.32 121.096 67.568 119.536 68.168C120.544 68.432 121.312 68.936 121.84 69.68C122.392 70.424 122.656 71.168 122.656 71.936C122.656 73.352 122.176 74.552 121.216 75.536C120.256 76.52 118.984 77 117.376 77H110.272V60.464H116.896C119.872 60.464 121.792 62.264 121.792 65.072ZM113.8 63.56V66.992H116.56C117.448 66.992 118.096 66.272 118.096 65.288C118.096 64.232 117.568 63.56 116.536 63.56H113.8ZM117.112 69.896H113.8V73.904H117.184C118.312 73.904 118.96 72.944 118.96 71.864C118.96 70.832 118.264 69.896 117.112 69.896ZM131.505 64.28L129.825 70.04H133.257L131.505 64.28ZM135.849 77L134.385 73.088H128.673L127.209 77H123.465L129.609 60.464H133.425L139.545 77H135.849ZM141.374 77V60.464H144.878V77H141.374ZM83.835 97.48L84.885 98.365C83.94 99.49 82.545 100.15 80.97 100.15C79.515 100.15 78.27 99.64 77.25 98.605C76.245 97.57 75.735 96.325 75.735 94.855C75.735 93.385 76.245 92.14 77.25 91.105C78.27 90.07 79.515 89.545 80.97 89.545C82.53 89.545 83.91 90.205 84.855 91.3L83.805 92.17C83.025 91.315 82.08 90.895 80.97 90.895C79.89 90.895 78.975 91.285 78.24 92.05C77.505 92.815 77.13 93.76 77.13 94.855C77.13 95.95 77.505 96.895 78.24 97.66C78.975 98.425 79.89 98.8 80.97 98.8C82.125 98.8 83.085 98.365 83.835 97.48ZM85.9743 94.855C85.9743 93.37 86.4843 92.125 87.4893 91.09C88.4943 90.055 89.7393 89.545 91.1943 89.545C92.6643 89.545 93.9093 90.055 94.9143 91.09C95.9343 92.125 96.4443 93.37 96.4443 94.855C96.4443 96.325 95.9343 97.57 94.9143 98.605C93.9093 99.64 92.6643 100.15 91.1943 100.15C89.7393 100.15 88.4943 99.64 87.4893 98.605C86.4843 97.57 85.9743 96.325 85.9743 94.855ZM91.1943 90.895C90.1293 90.895 89.2143 91.285 88.4793 92.05C87.7443 92.815 87.3693 93.76 87.3693 94.855C87.3693 95.95 87.7293 96.895 88.4643 97.66C89.1993 98.425 90.1143 98.8 91.1943 98.8C92.2743 98.8 93.1893 98.425 93.9243 97.66C94.6593 96.895 95.0343 95.95 95.0343 94.855C95.0343 93.76 94.6593 92.815 93.9243 92.05C93.1893 91.285 92.2743 90.895 91.1943 90.895ZM98.5877 100V89.665H102.713C103.733 89.665 104.498 89.98 105.008 90.61C105.533 91.24 105.788 92.005 105.788 92.905C105.788 93.805 105.533 94.57 105.008 95.2C104.498 95.815 103.733 96.13 102.713 96.13H99.9977V100H98.5877ZM102.698 90.97H99.9977V94.825H102.623C103.808 94.825 104.393 93.97 104.393 92.905C104.393 91.84 103.823 90.97 102.698 90.97ZM106.694 90.985V89.665H114.374V90.985H111.239V100H109.829V90.985H106.694ZM122.6 89.665H124.01V100H122.6V95.5H117.605V100H116.21V89.665H117.605V94.225H122.6V89.665ZM126.155 94.855C126.155 93.37 126.665 92.125 127.67 91.09C128.675 90.055 129.92 89.545 131.375 89.545C132.845 89.545 134.09 90.055 135.095 91.09C136.115 92.125 136.625 93.37 136.625 94.855C136.625 96.325 136.115 97.57 135.095 98.605C134.09 99.64 132.845 100.15 131.375 100.15C129.92 100.15 128.675 99.64 127.67 98.605C126.665 97.57 126.155 96.325 126.155 94.855ZM131.375 90.895C130.31 90.895 129.395 91.285 128.66 92.05C127.925 92.815 127.55 93.76 127.55 94.855C127.55 95.95 127.91 96.895 128.645 97.66C129.38 98.425 130.295 98.8 131.375 98.8C132.455 98.8 133.37 98.425 134.105 97.66C134.84 96.895 135.215 95.95 135.215 94.855C135.215 93.76 134.84 92.815 134.105 92.05C133.37 91.285 132.455 90.895 131.375 90.895ZM143.103 96.085L145.863 100H144.168L141.498 96.13H140.178V100H138.768V89.665H142.743C143.763 89.665 144.528 89.98 145.038 90.61C145.548 91.24 145.803 92.005 145.803 92.905C145.803 93.745 145.578 94.465 145.128 95.065C144.693 95.665 144.018 96.01 143.103 96.085ZM142.698 90.97H140.178V94.825H142.638C143.823 94.825 144.363 93.985 144.363 92.905C144.363 91.84 143.823 90.97 142.698 90.97ZM155.496 89.665V100H154.161L149.451 92.215V100H148.056V89.665H149.436L154.101 97.39V89.665H155.496ZM158.309 100V89.665H164.429V90.97H159.704V94.27H163.829V95.575H159.704V98.695H164.579V100H158.309ZM177.077 89.665H178.487V100H177.077V95.5H172.082V100H170.687V89.665H172.082V94.225H177.077V89.665ZM180.632 94.855C180.632 93.37 181.142 92.125 182.147 91.09C183.152 90.055 184.397 89.545 185.852 89.545C187.322 89.545 188.567 90.055 189.572 91.09C190.592 92.125 191.102 93.37 191.102 94.855C191.102 96.325 190.592 97.57 189.572 98.605C188.567 99.64 187.322 100.15 185.852 100.15C184.397 100.15 183.152 99.64 182.147 98.605C181.142 97.57 180.632 96.325 180.632 94.855ZM185.852 90.895C184.787 90.895 183.872 91.285 183.137 92.05C182.402 92.815 182.027 93.76 182.027 94.855C182.027 95.95 182.387 96.895 183.122 97.66C183.857 98.425 184.772 98.8 185.852 98.8C186.932 98.8 187.847 98.425 188.582 97.66C189.317 96.895 189.692 95.95 189.692 94.855C189.692 93.76 189.317 92.815 188.582 92.05C187.847 91.285 186.932 90.895 185.852 90.895ZM191.89 90.985V89.665H199.57V90.985H196.435V100H195.025V90.985H191.89ZM201.405 100V89.665H207.525V90.97H202.8V94.27H206.925V95.575H202.8V98.695H207.675V100H201.405ZM209.887 100V89.665H211.282V98.695H215.497V100H209.887ZM220.14 97.015H221.535C221.55 97.48 221.76 97.915 222.18 98.29C222.6 98.665 223.125 98.845 223.755 98.845C225 98.845 225.705 98.185 225.84 97.33C225.915 96.31 225.165 95.725 224.085 95.485L222.75 95.155C221.07 94.72 220.23 93.82 220.23 92.455C220.23 91.6 220.56 90.91 221.22 90.37C221.88 89.815 222.66 89.545 223.575 89.545C224.535 89.545 225.33 89.83 225.96 90.385C226.59 90.94 226.905 91.66 226.905 92.575H225.51C225.51 91.555 224.7 90.88 223.56 90.88C223.035 90.88 222.585 91.03 222.195 91.315C221.82 91.6 221.625 91.975 221.625 92.44C221.625 93.16 222.12 93.64 223.095 93.88L224.445 94.21C226.41 94.705 227.4 95.83 227.205 97.45C227.115 98.23 226.755 98.875 226.14 99.385C225.525 99.895 224.73 100.15 223.755 100.15C222.72 100.15 221.865 99.835 221.175 99.22C220.485 98.59 220.14 97.855 220.14 97.015ZM235.759 89.665H237.169V100H235.759V95.5H230.764V100H229.369V89.665H230.764V94.225H235.759V89.665ZM243.424 91.525L241.714 96.115H245.134L243.424 91.525ZM246.619 100L245.614 97.375H241.234L240.229 100H238.744L242.674 89.665H244.174L248.089 100H246.619ZM253.992 96.085L256.752 100H255.057L252.387 96.13H251.067V100H249.657V89.665H253.632C254.652 89.665 255.417 89.98 255.927 90.61C256.437 91.24 256.692 92.005 256.692 92.905C256.692 93.745 256.467 94.465 256.017 95.065C255.582 95.665 254.907 96.01 253.992 96.085ZM253.587 90.97H251.067V94.825H253.527C254.712 94.825 255.252 93.985 255.252 92.905C255.252 91.84 254.712 90.97 253.587 90.97ZM256.034 103.6L256.169 102.28C256.409 102.355 256.739 102.4 257.159 102.4C258.374 102.4 258.944 101.59 258.944 100.405V89.665H260.339V100.405C260.339 102.385 259.334 103.765 257.159 103.765C256.934 103.765 256.559 103.705 256.034 103.6ZM266.598 91.525L264.888 96.115H268.308L266.598 91.525ZM269.793 100L268.788 97.375H264.408L263.403 100H261.918L265.848 89.665H267.348L271.263 100H269.793ZM279.221 89.665H280.631V100H279.221V95.5H274.226V100H272.831V89.665H274.226V94.225H279.221V89.665ZM289.478 93.055L288.308 94.75L287.408 94.06L288.683 92.485L286.718 91.93L286.913 91.36L287.093 90.835L288.968 91.57L288.848 89.545H290.033L289.897 91.57L290.828 91.21L291.803 90.835L292.148 91.93L290.198 92.455L291.503 94.075L290.573 94.72L289.478 93.055ZM296.479 93.055L295.309 94.75L294.409 94.06L295.684 92.485L293.719 91.93L293.914 91.36L294.094 90.835L295.969 91.57L295.849 89.545H297.034L296.899 91.57L297.829 91.21L298.804 90.835L299.149 91.93L297.199 92.455L298.504 94.075L297.574 94.72L296.479 93.055ZM303.481 93.055L302.311 94.75L301.411 94.06L302.686 92.485L300.721 91.93L300.916 91.36L301.096 90.835L302.971 91.57L302.851 89.545H304.036L303.901 91.57L304.831 91.21L305.806 90.835L306.151 91.93L304.201 92.455L305.506 94.075L304.576 94.72L303.481 93.055ZM310.483 93.055L309.313 94.75L308.413 94.06L309.688 92.485L307.723 91.93L307.918 91.36L308.098 90.835L309.973 91.57L309.853 89.545H311.038L310.903 91.57L311.833 91.21L312.808 90.835L313.153 91.93L311.203 92.455L312.508 94.075L311.578 94.72L310.483 93.055Z"
        fill="white" />
    <path
        d="M75.645 167.11V165.175H83.055L78.72 175H76.335L79.8 167.11H75.645ZM93.6742 164.665H95.8792V175H93.9142L90.3142 168.745V175H88.1242V164.665H90.1342L93.6742 170.845V164.665ZM98.3048 175V164.665H100.495V175H98.3048ZM111.499 166.24L109.879 167.635C109.264 166.93 108.499 166.585 107.614 166.585C106.744 166.585 106.009 166.9 105.409 167.545C104.824 168.19 104.524 168.955 104.524 169.855C104.524 170.755 104.824 171.535 105.424 172.18C106.024 172.825 106.759 173.14 107.614 173.14C108.214 173.14 108.784 172.975 109.309 172.645C109.834 172.3 110.104 171.88 110.119 171.355H107.344V169.57H112.654C112.654 171.445 112.204 172.84 111.289 173.77C110.389 174.685 109.159 175.15 107.614 175.15C106.129 175.15 104.884 174.64 103.849 173.605C102.829 172.57 102.319 171.31 102.319 169.855C102.319 168.385 102.829 167.14 103.849 166.105C104.884 165.07 106.129 164.545 107.614 164.545C109.174 164.545 110.584 165.175 111.499 166.24ZM120.122 168.88V164.665H122.342V175H120.122V170.845H116.447V175H114.257V164.665H116.447V168.88H120.122ZM126.77 166.645H123.98V164.665H131.78V166.645H128.99V175H126.77V166.645ZM132.862 171.97H135.067C135.112 172.675 135.667 173.215 136.612 173.215C137.512 173.215 138.112 172.78 138.127 172.12C138.142 171.595 137.857 171.235 136.882 170.95L135.637 170.605C133.852 170.05 132.967 169.06 132.967 167.635C132.967 166.72 133.312 165.985 133.987 165.415C134.662 164.83 135.517 164.545 136.522 164.545C137.542 164.545 138.382 164.83 139.027 165.4C139.687 165.97 140.017 166.735 140.017 167.71H137.827C137.827 167.005 137.347 166.54 136.492 166.54C135.712 166.54 135.157 166.975 135.157 167.575C135.157 168.07 135.532 168.415 136.267 168.625L137.497 169.015C139.432 169.57 140.377 170.62 140.332 172.135C140.317 172.78 140.137 173.35 139.762 173.83C139.027 174.775 137.887 175.165 136.612 175.165C135.487 175.165 134.587 174.865 133.897 174.28C133.207 173.68 132.862 172.915 132.862 171.97ZM82.155 196.02V198H75.765V196.86L79.8 192.075C80.145 191.67 80.325 191.31 80.325 190.965C80.325 190.425 79.86 189.99 79.095 189.99C78.36 189.99 77.82 190.56 77.7 191.355L75.78 191.025C76.08 189.15 77.37 187.98 79.215 187.98C80.1 187.98 80.865 188.265 81.48 188.82C82.11 189.375 82.425 190.095 82.425 190.965C82.425 191.85 82.08 192.675 81.39 193.455L79.125 196.02H82.155ZM91.3461 190.05L90.2961 193.65H92.4411L91.3461 190.05ZM94.0611 198L93.1461 195.555H89.5761L88.6611 198H86.3211L90.1611 187.665H92.5461L96.3711 198H94.0611ZM101.564 189.66H99.7038V196.005H101.564C102.359 196.005 102.959 195.705 103.394 195.105C103.829 194.505 104.039 193.755 104.039 192.855C104.039 191.94 103.829 191.19 103.394 190.575C102.959 189.96 102.359 189.66 101.564 189.66ZM101.564 198H97.5138V187.665H101.564C103.019 187.665 104.159 188.16 104.984 189.135C105.809 190.11 106.229 191.34 106.229 192.855C106.229 194.37 105.809 195.6 104.984 196.56C104.159 197.52 103.019 198 101.564 198ZM113.819 194.31V187.665H116.024V194.31C116.024 195.45 115.634 196.38 114.854 197.085C114.074 197.79 113.129 198.15 112.034 198.15C110.939 198.15 109.994 197.79 109.199 197.085C108.404 196.38 108.014 195.45 108.014 194.31V187.665H110.249V194.31C110.249 194.835 110.429 195.255 110.774 195.585C111.134 195.915 111.554 196.08 112.034 196.08C112.514 196.08 112.934 195.915 113.279 195.585C113.639 195.24 113.819 194.82 113.819 194.31ZM124.419 198H118.344V187.665H120.549V196.065H124.419V198ZM127.106 189.645H124.316V187.665H132.116V189.645H129.326V198H127.106V189.645ZM133.199 194.97H135.404C135.449 195.675 136.004 196.215 136.949 196.215C137.849 196.215 138.449 195.78 138.464 195.12C138.479 194.595 138.194 194.235 137.219 193.95L135.974 193.605C134.189 193.05 133.304 192.06 133.304 190.635C133.304 189.72 133.649 188.985 134.324 188.415C134.999 187.83 135.854 187.545 136.859 187.545C137.879 187.545 138.719 187.83 139.364 188.4C140.024 188.97 140.354 189.735 140.354 190.71H138.164C138.164 190.005 137.684 189.54 136.829 189.54C136.049 189.54 135.494 189.975 135.494 190.575C135.494 191.07 135.869 191.415 136.604 191.625L137.834 192.015C139.769 192.57 140.714 193.62 140.669 195.135C140.654 195.78 140.474 196.35 140.099 196.83C139.364 197.775 138.224 198.165 136.949 198.165C135.824 198.165 134.924 197.865 134.234 197.28C133.544 196.68 133.199 195.915 133.199 194.97ZM82.545 212.12L83.91 217.175L85.935 210.665H88.32L84.81 221H83.085L81.63 215.57L80.205 221H78.465L74.985 210.665H77.355L79.365 217.175L80.745 212.12H82.545ZM89.5011 221V210.665H91.6911V221H89.5011ZM96.1104 212.645H93.3204V210.665H101.12V212.645H98.3304V221H96.1104V212.645ZM108.623 214.88V210.665H110.843V221H108.623V216.845H104.948V221H102.758V210.665H104.948V214.88H108.623ZM124.138 213.545C124.138 214.325 123.703 215.105 122.728 215.48C123.358 215.645 123.838 215.96 124.168 216.425C124.513 216.89 124.678 217.355 124.678 217.835C124.678 218.72 124.378 219.47 123.778 220.085C123.178 220.7 122.383 221 121.378 221H116.938V210.665H121.078C122.938 210.665 124.138 211.79 124.138 213.545ZM119.143 212.6V214.745H120.868C121.423 214.745 121.828 214.295 121.828 213.68C121.828 213.02 121.498 212.6 120.853 212.6H119.143ZM121.213 216.56H119.143V219.065H121.258C121.963 219.065 122.368 218.465 122.368 217.79C122.368 217.145 121.933 216.56 121.213 216.56ZM130.613 212.6H128.693V215.51H130.553C131.348 215.51 131.858 214.79 131.858 214.055C131.858 213.335 131.378 212.6 130.613 212.6ZM131.573 217.34L134.138 221H131.498L129.188 217.43H128.693V221H126.488V210.665H130.718C131.813 210.665 132.668 210.995 133.253 211.67C133.853 212.33 134.153 213.125 134.153 214.055C134.153 215.63 133.253 216.98 131.573 217.34ZM142.714 221H136.039V210.665H142.579V212.6H138.229V214.955H142.039V216.86H138.229V219.065H142.714V221ZM148.402 213.05L147.352 216.65H149.497L148.402 213.05ZM151.117 221L150.202 218.555H146.632L145.717 221H143.377L147.217 210.665H149.602L153.427 221H151.117ZM161.814 210.665L157.899 215.78L162.744 221H159.894L156.789 217.49V221H154.569V210.665H156.789V214.055L159.234 210.665H161.814ZM165.915 221H163.71V210.665H170.175V212.6H165.915V214.955H169.29V216.875H165.915V221ZM174.93 213.05L173.88 216.65H176.025L174.93 213.05ZM177.645 221L176.73 218.555H173.16L172.245 221H169.905L173.745 210.665H176.13L179.955 221H177.645ZM180.543 217.97H182.748C182.793 218.675 183.348 219.215 184.293 219.215C185.193 219.215 185.793 218.78 185.808 218.12C185.823 217.595 185.538 217.235 184.563 216.95L183.318 216.605C181.533 216.05 180.648 215.06 180.648 213.635C180.648 212.72 180.993 211.985 181.668 211.415C182.343 210.83 183.198 210.545 184.203 210.545C185.223 210.545 186.063 210.83 186.708 211.4C187.368 211.97 187.698 212.735 187.698 213.71H185.508C185.508 213.005 185.028 212.54 184.173 212.54C183.393 212.54 182.838 212.975 182.838 213.575C182.838 214.07 183.213 214.415 183.948 214.625L185.178 215.015C187.113 215.57 188.058 216.62 188.013 218.135C187.998 218.78 187.818 219.35 187.443 219.83C186.708 220.775 185.568 221.165 184.293 221.165C183.168 221.165 182.268 220.865 181.578 220.28C180.888 219.68 180.543 218.915 180.543 217.97ZM191.735 212.645H188.945V210.665H196.745V212.645H193.955V221H191.735V212.645ZM75.66 240.97H77.865C77.91 241.675 78.465 242.215 79.41 242.215C80.31 242.215 80.91 241.78 80.925 241.12C80.94 240.595 80.655 240.235 79.68 239.95L78.435 239.605C76.65 239.05 75.765 238.06 75.765 236.635C75.765 235.72 76.11 234.985 76.785 234.415C77.46 233.83 78.315 233.545 79.32 233.545C80.34 233.545 81.18 233.83 81.825 234.4C82.485 234.97 82.815 235.735 82.815 236.71H80.625C80.625 236.005 80.145 235.54 79.29 235.54C78.51 235.54 77.955 235.975 77.955 236.575C77.955 237.07 78.33 237.415 79.065 237.625L80.295 238.015C82.23 238.57 83.175 239.62 83.13 241.135C83.115 241.78 82.935 242.35 82.56 242.83C81.825 243.775 80.685 244.165 79.41 244.165C78.285 244.165 77.385 243.865 76.695 243.28C76.005 242.68 75.66 241.915 75.66 240.97ZM90.6455 240.31V233.665H92.8505V240.31C92.8505 241.45 92.4605 242.38 91.6805 243.085C90.9005 243.79 89.9555 244.15 88.8605 244.15C87.7655 244.15 86.8205 243.79 86.0255 243.085C85.2305 242.38 84.8405 241.45 84.8405 240.31V233.665H87.0755V240.31C87.0755 240.835 87.2555 241.255 87.6005 241.585C87.9605 241.915 88.3805 242.08 88.8605 242.08C89.3405 242.08 89.7605 241.915 90.1055 241.585C90.4655 241.24 90.6455 240.82 90.6455 240.31ZM99.3701 235.6H97.3751V238.51H99.3101C100.105 238.51 100.615 237.79 100.615 237.055C100.615 236.335 100.135 235.6 99.3701 235.6ZM97.3751 244H95.1701V233.665H99.4151C100.525 233.665 101.365 233.995 101.95 234.67C102.535 235.33 102.82 236.125 102.82 237.055C102.82 237.985 102.535 238.78 101.95 239.44C101.365 240.1 100.525 240.43 99.4151 240.43H97.3751V244ZM111.059 244H104.384V233.665H110.924V235.6H106.574V237.955H110.384V239.86H106.574V242.065H111.059V244ZM117.152 235.6H115.232V238.51H117.092C117.887 238.51 118.397 237.79 118.397 237.055C118.397 236.335 117.917 235.6 117.152 235.6ZM118.112 240.34L120.677 244H118.037L115.727 240.43H115.232V244H113.027V233.665H117.257C118.352 233.665 119.207 233.995 119.792 234.67C120.392 235.33 120.692 236.125 120.692 237.055C120.692 238.63 119.792 239.98 118.112 240.34ZM122.577 244V233.665H124.767V244H122.577ZM134.887 238.855C134.887 237.985 134.587 237.25 133.987 236.635C133.402 236.02 132.682 235.72 131.827 235.72C130.972 235.72 130.252 236.02 129.667 236.635C129.082 237.25 128.782 237.985 128.782 238.855C128.782 239.725 129.082 240.46 129.667 241.075C130.252 241.675 130.972 241.975 131.827 241.975C132.682 241.975 133.402 241.675 133.987 241.06C134.587 240.445 134.887 239.71 134.887 238.855ZM126.592 238.855C126.592 237.385 127.102 236.14 128.107 235.105C129.127 234.07 130.372 233.545 131.827 233.545C133.297 233.545 134.542 234.07 135.547 235.105C136.567 236.14 137.077 237.385 137.077 238.855C137.077 240.31 136.567 241.57 135.547 242.605C134.527 243.64 133.282 244.15 131.827 244.15C130.372 244.15 129.127 243.64 128.107 242.605C127.102 241.57 126.592 240.31 126.592 238.855ZM143.035 235.6H141.115V238.51H142.975C143.77 238.51 144.28 237.79 144.28 237.055C144.28 236.335 143.8 235.6 143.035 235.6ZM143.995 240.34L146.56 244H143.92L141.61 240.43H141.115V244H138.91V233.665H143.14C144.235 233.665 145.09 233.995 145.675 234.67C146.275 235.33 146.575 236.125 146.575 237.055C146.575 238.63 145.675 239.98 143.995 240.34ZM156.248 235.6H154.328V238.51H156.188C156.983 238.51 157.493 237.79 157.493 237.055C157.493 236.335 157.013 235.6 156.248 235.6ZM157.208 240.34L159.773 244H157.133L154.823 240.43H154.328V244H152.123V233.665H156.353C157.448 233.665 158.303 233.995 158.888 234.67C159.488 235.33 159.788 236.125 159.788 237.055C159.788 238.63 158.888 239.98 157.208 240.34ZM169.369 238.855C169.369 237.985 169.069 237.25 168.469 236.635C167.884 236.02 167.164 235.72 166.309 235.72C165.454 235.72 164.734 236.02 164.149 236.635C163.564 237.25 163.264 237.985 163.264 238.855C163.264 239.725 163.564 240.46 164.149 241.075C164.734 241.675 165.454 241.975 166.309 241.975C167.164 241.975 167.884 241.675 168.469 241.06C169.069 240.445 169.369 239.71 169.369 238.855ZM161.074 238.855C161.074 237.385 161.584 236.14 162.589 235.105C163.609 234.07 164.854 233.545 166.309 233.545C167.779 233.545 169.024 234.07 170.029 235.105C171.049 236.14 171.559 237.385 171.559 238.855C171.559 240.31 171.049 241.57 170.029 242.605C169.009 243.64 167.764 244.15 166.309 244.15C164.854 244.15 163.609 243.64 162.589 242.605C161.584 241.57 161.074 240.31 161.074 238.855ZM181.088 238.855C181.088 237.985 180.788 237.25 180.188 236.635C179.603 236.02 178.883 235.72 178.028 235.72C177.173 235.72 176.453 236.02 175.868 236.635C175.283 237.25 174.983 237.985 174.983 238.855C174.983 239.725 175.283 240.46 175.868 241.075C176.453 241.675 177.173 241.975 178.028 241.975C178.883 241.975 179.603 241.675 180.188 241.06C180.788 240.445 181.088 239.71 181.088 238.855ZM172.793 238.855C172.793 237.385 173.303 236.14 174.308 235.105C175.328 234.07 176.573 233.545 178.028 233.545C179.498 233.545 180.743 234.07 181.748 235.105C182.768 236.14 183.278 237.385 183.278 238.855C183.278 240.31 182.768 241.57 181.748 242.605C180.728 243.64 179.483 244.15 178.028 244.15C176.573 244.15 175.328 243.64 174.308 242.605C173.303 241.57 172.793 240.31 172.793 238.855ZM187.631 233.665L190.751 240.325L193.841 233.665H195.686L196.946 244H194.741L194.021 237.805L191.606 242.815H189.911L187.481 237.805L186.746 244H184.541L185.816 233.665H187.631Z"
        fill="white" />
    <line opacity="0.5" x1="75" y1="129.5" x2="295" y2="129.5" stroke="white" />
    <line opacity="0.5" x1="75" y1="283.5" x2="395" y2="283.5" stroke="white" />
    <circle cx="373.5" cy="130.5" r="64.5" fill="url(#paint1_radial_0_1)" />
    <path
        d="M344.025 169H337.35V158.665H343.89V160.6H339.54V162.955H343.35V164.86H339.54V167.065H344.025V169ZM351.692 165.31V158.665H353.897V165.31C353.897 166.45 353.507 167.38 352.727 168.085C351.947 168.79 351.002 169.15 349.907 169.15C348.812 169.15 347.867 168.79 347.072 168.085C346.277 167.38 345.887 166.45 345.887 165.31V158.665H348.122V165.31C348.122 165.835 348.302 166.255 348.647 166.585C349.007 166.915 349.427 167.08 349.907 167.08C350.387 167.08 350.807 166.915 351.152 166.585C351.512 166.24 351.692 165.82 351.692 165.31ZM360.342 160.6H358.422V163.51H360.282C361.077 163.51 361.587 162.79 361.587 162.055C361.587 161.335 361.107 160.6 360.342 160.6ZM361.302 165.34L363.867 169H361.227L358.917 165.43H358.422V169H356.217V158.665H360.447C361.542 158.665 362.397 158.995 362.982 159.67C363.582 160.33 363.882 161.125 363.882 162.055C363.882 163.63 362.982 164.98 361.302 165.34ZM376.604 162.184H374.948V159.304H376.604C377.636 159.304 378.14 158.728 378.14 157.6C378.14 156.952 377.612 156.088 376.556 156.088C375.812 156.088 375.26 156.376 374.9 156.952L372.188 155.296C373.148 153.784 374.996 152.848 377.084 152.968C378.428 153.04 379.556 153.496 380.444 154.384C381.332 155.248 381.764 156.256 381.74 157.384C381.74 158.632 380.948 159.784 379.724 160.456C380.564 160.768 381.26 161.344 381.764 162.184C382.268 163.024 382.484 163.864 382.412 164.728C382.292 166.072 381.62 167.176 380.396 168.064C379.172 168.928 377.78 169.312 376.22 169.192C374.036 169.072 372.068 167.728 371.204 165.904L374.156 164.44C374.324 164.8 374.66 165.16 375.116 165.472C375.572 165.784 376.028 165.928 376.484 165.952C377.636 166.024 378.644 165.136 378.74 164.272C378.788 163.96 378.956 162.112 376.604 162.184ZM395.102 165.832V169H384.878V167.176L391.334 159.52C391.886 158.872 392.174 158.296 392.174 157.744C392.174 156.88 391.43 156.184 390.206 156.184C389.03 156.184 388.166 157.096 387.974 158.368L384.902 157.84C385.382 154.84 387.446 152.968 390.398 152.968C391.814 152.968 393.038 153.424 394.022 154.312C395.03 155.2 395.534 156.352 395.534 157.744C395.534 159.16 394.982 160.48 393.878 161.728L390.254 165.832H395.102ZM404.843 158.872C406.091 158.872 407.195 159.328 408.179 160.264C409.163 161.2 409.667 162.496 409.667 164.176C409.667 165.688 409.139 166.912 408.083 167.848C407.051 168.784 405.659 169.24 403.955 169.24C402.443 169.24 401.171 168.736 400.115 167.752C399.059 166.744 398.459 165.424 398.315 163.768C397.931 158.92 398.771 152.752 404.675 152.968C406.811 153.064 408.467 153.808 409.523 156.016L406.379 157.36C405.971 156.52 405.371 156.112 404.555 156.112C402.323 156.16 401.507 158.488 401.675 160.648C401.795 160.264 402.155 159.88 402.707 159.472C403.259 159.064 403.979 158.872 404.843 158.872ZM405.563 165.448C406.403 164.608 406.403 163.336 405.563 162.544C404.771 161.704 403.499 161.704 402.659 162.544C401.867 163.336 401.867 164.608 402.659 165.448C403.499 166.24 404.771 166.24 405.563 165.448Z"
        fill="white" />
    <path
        d="M344.75 141.245V146H343.31V141.245L339.395 135.665H341.06L344.03 139.85L347.03 135.665H348.71L344.75 141.245ZM348.859 140.855C348.859 139.37 349.369 138.125 350.374 137.09C351.379 136.055 352.624 135.545 354.079 135.545C355.549 135.545 356.794 136.055 357.799 137.09C358.819 138.125 359.329 139.37 359.329 140.855C359.329 142.325 358.819 143.57 357.799 144.605C356.794 145.64 355.549 146.15 354.079 146.15C352.624 146.15 351.379 145.64 350.374 144.605C349.369 143.57 348.859 142.325 348.859 140.855ZM354.079 136.895C353.014 136.895 352.099 137.285 351.364 138.05C350.629 138.815 350.254 139.76 350.254 140.855C350.254 141.95 350.614 142.895 351.349 143.66C352.084 144.425 352.999 144.8 354.079 144.8C355.159 144.8 356.074 144.425 356.809 143.66C357.544 142.895 357.919 141.95 357.919 140.855C357.919 139.76 357.544 138.815 356.809 138.05C356.074 137.285 355.159 136.895 354.079 136.895ZM367.517 142.445V135.665H368.927V142.445C368.927 143.54 368.552 144.44 367.817 145.13C367.082 145.805 366.197 146.15 365.147 146.15C364.097 146.15 363.197 145.805 362.462 145.13C361.727 144.44 361.367 143.54 361.367 142.445V135.665H362.777V142.445C362.777 143.135 363.002 143.705 363.467 144.14C363.932 144.575 364.487 144.8 365.147 144.8C365.807 144.8 366.362 144.575 366.827 144.14C367.292 143.705 367.517 143.135 367.517 142.445ZM374.905 143.015H376.3C376.315 143.48 376.525 143.915 376.945 144.29C377.365 144.665 377.89 144.845 378.52 144.845C379.765 144.845 380.47 144.185 380.605 143.33C380.68 142.31 379.93 141.725 378.85 141.485L377.515 141.155C375.835 140.72 374.995 139.82 374.995 138.455C374.995 137.6 375.325 136.91 375.985 136.37C376.645 135.815 377.425 135.545 378.34 135.545C379.3 135.545 380.095 135.83 380.725 136.385C381.355 136.94 381.67 137.66 381.67 138.575H380.275C380.275 137.555 379.465 136.88 378.325 136.88C377.8 136.88 377.35 137.03 376.96 137.315C376.585 137.6 376.39 137.975 376.39 138.44C376.39 139.16 376.885 139.64 377.86 139.88L379.21 140.21C381.175 140.705 382.165 141.83 381.97 143.45C381.88 144.23 381.52 144.875 380.905 145.385C380.29 145.895 379.495 146.15 378.52 146.15C377.485 146.15 376.63 145.835 375.94 145.22C375.25 144.59 374.905 143.855 374.905 143.015ZM387.48 137.525L385.77 142.115H389.19L387.48 137.525ZM390.675 146L389.67 143.375H385.29L384.285 146H382.8L386.73 135.665H388.23L392.145 146H390.675ZM392.196 135.665H393.651L395.991 143.645L398.331 135.665H399.771L396.666 146H395.331L392.196 135.665ZM401.609 146V135.665H407.729V136.97H403.004V140.27H407.129V141.575H403.004V144.695H407.879V146H401.609Z"
        fill="white" />
    <path
        d="M346.918 111.124H334.21V107.164H346.918V111.124ZM363.68 109.684C363.68 107.128 361.916 105.832 359.324 105.832C357.488 105.832 355.328 106.552 354.14 108.424L351.368 106.984L353.312 94.42H367.136V99.028H357.308L356.696 102.844C357.596 102.016 359.036 101.62 361.016 101.62C363.212 101.62 365.048 102.34 366.524 103.744C368 105.148 368.72 107.128 368.72 109.684C368.72 112.24 367.82 114.328 366.056 115.948C364.292 117.568 361.916 118.36 359 118.36C355.724 118.36 352.484 116.452 350.648 113.608L354.896 110.872C355.796 112.312 357.524 113.32 359 113.32C361.7 113.32 363.68 111.664 363.68 109.684ZM382.356 101.116L377.964 108.46H382.356V101.116ZM390.42 108.46V112.708H387.432V118H382.356V112.708H371.088L382.104 94.42H387.432V108.46H390.42ZM411.465 94.42L399.873 118H397.389L408.981 94.42H411.465ZM398.145 94.168C399.477 94.168 400.593 94.636 401.529 95.572C402.501 96.508 402.969 97.66 402.969 98.992C402.969 100.324 402.501 101.476 401.565 102.412C400.629 103.312 399.477 103.78 398.145 103.78C396.813 103.78 395.661 103.312 394.725 102.412C393.825 101.476 393.357 100.324 393.357 98.992C393.357 97.66 393.825 96.508 394.725 95.572C395.661 94.636 396.813 94.168 398.145 94.168ZM398.145 100.864C399.189 100.864 400.053 100.036 400.053 98.992C400.053 97.948 399.189 97.084 398.145 97.084C397.101 97.084 396.273 97.948 396.273 98.992C396.273 100.036 397.029 100.864 398.145 100.864ZM410.889 108.748C412.221 108.748 413.337 109.216 414.273 110.188C415.245 111.124 415.713 112.24 415.713 113.572C415.713 114.904 415.245 116.056 414.309 116.992C413.373 117.892 412.221 118.36 410.889 118.36C409.557 118.36 408.405 117.892 407.469 116.992C406.569 116.056 406.101 114.904 406.101 113.572C406.101 112.24 406.569 111.088 407.469 110.152C408.405 109.216 409.557 108.748 410.889 108.748ZM409.017 113.572C409.017 114.688 409.773 115.444 410.889 115.444C412.545 115.444 413.481 113.392 412.221 112.24C411.069 110.98 409.017 111.916 409.017 113.572Z"
        fill="white" />
    <line x1="409" y1="127" x2="339" y2="127" stroke="white" stroke-width="2" />
    <g filter="url(#filter0_d_0_1)">
        <rect x="75" y="359" width="320" height="103" rx="20" fill="white" />
    </g>
    <path
        d="M136.02 410H121.78V387.952H135.732V392.08H126.452V397.104H134.58V401.168H126.452V405.872H136.02V410ZM152.377 402.128V387.952H157.081V402.128C157.081 404.56 156.249 406.544 154.585 408.048C152.921 409.552 150.905 410.32 148.569 410.32C146.233 410.32 144.217 409.552 142.521 408.048C140.825 406.544 139.993 404.56 139.993 402.128V387.952H144.761V402.128C144.761 403.248 145.145 404.144 145.881 404.848C146.649 405.552 147.545 405.904 148.569 405.904C149.593 405.904 150.489 405.552 151.225 404.848C151.993 404.112 152.377 403.216 152.377 402.128ZM170.83 392.08H166.734V398.288H170.702C172.398 398.288 173.486 396.752 173.486 395.184C173.486 393.648 172.462 392.08 170.83 392.08ZM172.878 402.192L178.35 410H172.718L167.79 402.384H166.734V410H162.03V387.952H171.054C173.39 387.952 175.214 388.656 176.462 390.096C177.742 391.504 178.382 393.2 178.382 395.184C178.382 398.544 176.462 401.424 172.878 402.192ZM195.881 400.912H193.673V397.072H195.881C197.257 397.072 197.929 396.304 197.929 394.8C197.929 393.936 197.225 392.784 195.817 392.784C194.825 392.784 194.089 393.168 193.609 393.936L189.993 391.728C191.273 389.712 193.737 388.464 196.521 388.624C198.313 388.72 199.817 389.328 201.001 390.512C202.185 391.664 202.761 393.008 202.729 394.512C202.729 396.176 201.673 397.712 200.041 398.608C201.161 399.024 202.089 399.792 202.761 400.912C203.433 402.032 203.721 403.152 203.625 404.304C203.465 406.096 202.569 407.568 200.937 408.752C199.305 409.904 197.449 410.416 195.369 410.256C192.457 410.096 189.833 408.304 188.681 405.872L192.617 403.92C192.841 404.4 193.289 404.88 193.897 405.296C194.505 405.712 195.113 405.904 195.721 405.936C197.257 406.032 198.601 404.848 198.729 403.696C198.793 403.28 199.017 400.816 195.881 400.912ZM206.529 392.592L214.593 388.752V410H210.113V394.992L206.529 396.528V392.592ZM225.6 400.912H223.392V397.072H225.6C226.976 397.072 227.648 396.304 227.648 394.8C227.648 393.936 226.944 392.784 225.536 392.784C224.544 392.784 223.808 393.168 223.328 393.936L219.712 391.728C220.992 389.712 223.456 388.464 226.24 388.624C228.032 388.72 229.536 389.328 230.72 390.512C231.904 391.664 232.48 393.008 232.448 394.512C232.448 396.176 231.392 397.712 229.76 398.608C230.88 399.024 231.808 399.792 232.48 400.912C233.152 402.032 233.44 403.152 233.344 404.304C233.184 406.096 232.288 407.568 230.656 408.752C229.024 409.904 227.168 410.416 225.088 410.256C222.176 410.096 219.552 408.304 218.4 405.872L222.336 403.92C222.56 404.4 223.008 404.88 223.616 405.296C224.224 405.712 224.832 405.904 225.44 405.936C226.976 406.032 228.32 404.848 228.448 403.696C228.512 403.28 228.736 400.816 225.6 400.912ZM257.533 403.28H252.573V408.24H249.309V403.28H244.381V400.016H249.309V395.088H252.573V400.016H257.533V403.28ZM268.154 392.592L276.218 388.752V410H271.738V394.992L268.154 396.528V392.592ZM304.733 394.096C304.733 395.76 303.805 397.424 301.725 398.224C303.069 398.576 304.093 399.248 304.797 400.24C305.533 401.232 305.885 402.224 305.885 403.248C305.885 405.136 305.245 406.736 303.965 408.048C302.685 409.36 300.989 410 298.845 410H289.373V387.952H298.205C302.173 387.952 304.733 390.352 304.733 394.096ZM294.077 392.08V396.656H297.757C298.941 396.656 299.805 395.696 299.805 394.384C299.805 392.976 299.101 392.08 297.725 392.08H294.077ZM298.493 400.528H294.077V405.872H298.589C300.093 405.872 300.957 404.592 300.957 403.152C300.957 401.776 300.029 400.528 298.493 400.528ZM318.708 392.08H314.452V398.288H318.58C320.276 398.288 321.364 396.752 321.364 395.184C321.364 393.648 320.34 392.08 318.708 392.08ZM314.452 410H309.748V387.952H318.804C321.172 387.952 322.964 388.656 324.212 390.096C325.46 391.504 326.068 393.2 326.068 395.184C326.068 397.168 325.46 398.864 324.212 400.272C322.964 401.68 321.172 402.384 318.804 402.384H314.452V410ZM345.821 399.024C345.821 397.168 345.181 395.6 343.901 394.288C342.653 392.976 341.117 392.336 339.293 392.336C337.469 392.336 335.933 392.976 334.685 394.288C333.437 395.6 332.797 397.168 332.797 399.024C332.797 400.88 333.437 402.448 334.685 403.76C335.933 405.04 337.469 405.68 339.293 405.68C341.117 405.68 342.653 405.04 343.901 403.728C345.181 402.416 345.821 400.848 345.821 399.024ZM328.125 399.024C328.125 395.888 329.213 393.232 331.357 391.024C333.533 388.816 336.189 387.696 339.293 387.696C342.429 387.696 345.085 388.816 347.229 391.024C349.405 393.232 350.493 395.888 350.493 399.024C350.493 402.128 349.405 404.816 347.229 407.024C345.053 409.232 342.397 410.32 339.293 410.32C336.189 410.32 333.533 409.232 331.357 407.024C329.213 404.816 328.125 402.128 328.125 399.024Z"
        fill="#03659C" />
    <path
        d="M351.002 447.557C361.745 459.021 375.889 462 383 462L235 462L235 427.957L316.16 427.957C334.647 427.957 341.335 437.241 351.002 447.557Z"
        fill="url(#paint2_linear_0_1)" />
    <path
        d="M118.998 447.557C108.255 459.021 94.1107 462 87 462L235 462L235 427.957L153.84 427.957C135.353 427.957 128.665 437.241 118.998 447.557Z"
        fill="url(#paint3_linear_0_1)" />
    <path
        d="M179.42 449H177.215V438.665H183.68V440.6H179.42V442.955H182.795V444.875H179.42V449ZM185.286 449V438.665H187.476V449H185.286ZM194.026 440.6H192.106V443.51H193.966C194.761 443.51 195.271 442.79 195.271 442.055C195.271 441.335 194.791 440.6 194.026 440.6ZM194.986 445.34L197.551 449H194.911L192.601 445.43H192.106V449H189.901V438.665H194.131C195.226 438.665 196.081 438.995 196.666 439.67C197.266 440.33 197.566 441.125 197.566 442.055C197.566 443.63 196.666 444.98 194.986 445.34ZM206.126 449H199.451V438.665H205.991V440.6H201.641V442.955H205.451V444.86H201.641V447.065H206.126V449ZM210.299 449H208.094V438.665H214.559V440.6H210.299V442.955H213.674V444.875H210.299V449ZM222.24 449H216.165V438.665H218.37V447.065H222.24V449ZM223.826 449V438.665H226.016V449H223.826ZM235.116 449H228.441V438.665H234.981V440.6H230.631V442.955H234.441V444.86H230.631V447.065H235.116V449ZM236.411 445.97H238.616C238.661 446.675 239.216 447.215 240.161 447.215C241.061 447.215 241.661 446.78 241.676 446.12C241.691 445.595 241.406 445.235 240.431 444.95L239.186 444.605C237.401 444.05 236.516 443.06 236.516 441.635C236.516 440.72 236.861 439.985 237.536 439.415C238.211 438.83 239.066 438.545 240.071 438.545C241.091 438.545 241.931 438.83 242.576 439.4C243.236 439.97 243.566 440.735 243.566 441.71H241.376C241.376 441.005 240.896 440.54 240.041 440.54C239.261 440.54 238.706 440.975 238.706 441.575C238.706 442.07 239.081 442.415 239.816 442.625L241.046 443.015C242.981 443.57 243.926 444.62 243.881 446.135C243.866 446.78 243.686 447.35 243.311 447.83C242.576 448.775 241.436 449.165 240.161 449.165C239.036 449.165 238.136 448.865 237.446 448.28C236.756 447.68 236.411 446.915 236.411 445.97ZM257.054 443.855C257.054 442.985 256.754 442.25 256.154 441.635C255.569 441.02 254.849 440.72 253.994 440.72C253.139 440.72 252.419 441.02 251.834 441.635C251.249 442.25 250.949 442.985 250.949 443.855C250.949 444.725 251.249 445.46 251.834 446.075C252.419 446.675 253.139 446.975 253.994 446.975C254.849 446.975 255.569 446.675 256.154 446.06C256.754 445.445 257.054 444.71 257.054 443.855ZM248.759 443.855C248.759 442.385 249.269 441.14 250.274 440.105C251.294 439.07 252.539 438.545 253.994 438.545C255.464 438.545 256.709 439.07 257.714 440.105C258.734 441.14 259.244 442.385 259.244 443.855C259.244 445.31 258.734 446.57 257.714 447.605C256.694 448.64 255.449 449.15 253.994 449.15C252.539 449.15 251.294 448.64 250.274 447.605C249.269 446.57 248.759 445.31 248.759 443.855ZM263.282 449H261.077V438.665H267.542V440.6H263.282V442.955H266.657V444.875H263.282V449ZM271.354 449H269.149V438.665H275.614V440.6H271.354V442.955H274.729V444.875H271.354V449ZM283.895 449H277.22V438.665H283.76V440.6H279.41V442.955H283.22V444.86H279.41V447.065H283.895V449ZM289.987 440.6H288.067V443.51H289.927C290.722 443.51 291.232 442.79 291.232 442.055C291.232 441.335 290.752 440.6 289.987 440.6ZM290.947 445.34L293.512 449H290.872L288.562 445.43H288.067V449H285.862V438.665H290.092C291.187 438.665 292.042 438.995 292.627 439.67C293.227 440.33 293.527 441.125 293.527 442.055C293.527 443.63 292.627 444.98 290.947 445.34Z"
        fill="white" />
    <defs>
        <filter id="filter0_d_0_1" x="55" y="349" width="360" height="143" filterUnits="userSpaceOnUse"
            color-interpolation-filters="sRGB">
            <feFlood flood-opacity="0" result="BackgroundImageFix" />
            <feColorMatrix in="SourceAlpha" type="matrix" values="0 0 0 0 0 0 0 0 0 0 0 0 0 0 0 0 0 0 127 0"
                result="hardAlpha" />
            <feOffset dy="10" />
            <feGaussianBlur stdDeviation="10" />
            <feComposite in2="hardAlpha" operator="out" />
            <feColorMatrix type="matrix" values="0 0 0 0 0 0 0 0 0 0 0 0 0 0 0 0 0 0 0.15 0" />
            <feBlend mode="normal" in2="BackgroundImageFix" result="effect1_dropShadow_0_1" />
            <feBlend mode="normal" in="SourceGraphic" in2="effect1_dropShadow_0_1" result="shape" />
        </filter>
        <linearGradient id="paint0_linear_0_1" x1="453" y1="508" x2="2.1665" y2="492.594"
            gradientUnits="userSpaceOnUse">
            <stop stop-color="#03659C" />
            <stop offset="1" stop-color="#13AFB6" />
        </linearGradient>
        <radialGradient id="paint1_radial_0_1" cx="0" cy="0" r="1" gradientUnits="userSpaceOnUse"
            gradientTransform="translate(341.5 90) rotate(56.9519) scale(99.0202)">
            <stop stop-color="#FFAEB2" />
            <stop offset="0.539026" stop-color="#D5484E" />
            <stop offset="0.892787" stop-color="#B81A21" />
        </radialGradient>
        <linearGradient id="paint2_linear_0_1" x1="311.081" y1="462.457" x2="311.081" y2="428.457"
            gradientUnits="userSpaceOnUse">
            <stop stop-color="#13AFB6" />
            <stop offset="1" stop-color="#03659C" />
        </linearGradient>
        <linearGradient id="paint3_linear_0_1" x1="158.919" y1="462.457" x2="158.919" y2="428.457"
            gradientUnits="userSpaceOnUse">
            <stop stop-color="#13AFB6" />
            <stop offset="1" stop-color="#03659C" />
        </linearGradient>
    </defs>
</svg>