<svg width="453" height="508" viewBox="0 0 453 508" fill="none" xmlns="http://www.w3.org/2000/svg">
    <path
        d="M19 20C19 8.9543 27.9543 0 39 0H433C444.046 0 453 8.95431 453 20V488C453 499.046 444.046 508 433 508H39C27.9543 508 19 499.046 19 488V296.059C19 292.739 18.1732 289.47 16.5941 286.549L1.57037 258.755C-0.0335475 255.788 -0.033551 252.212 1.57036 249.245L16.5941 221.451C18.1732 218.53 19 215.261 19 211.941V20Z"
        fill="url(#paint0_linear_0_1)" />
    <path
        d="M120.48 317.22L125.34 327.34L130.2 317.22H131.9L133.58 331H131.74L130.48 320.64L126.18 329.48H124.54L120.2 320.64L118.94 331H117.1L118.78 317.22H120.48ZM141.132 319.7L138.852 325.82H143.412L141.132 319.7ZM145.392 331L144.052 327.5H138.212L136.872 331H134.892L140.132 317.22H142.132L147.352 331H145.392ZM155.223 325.78L158.903 331H156.643L153.083 325.84H151.323V331H149.443V317.22H154.743C156.103 317.22 157.123 317.64 157.803 318.48C158.483 319.32 158.823 320.34 158.823 321.54C158.823 322.66 158.523 323.62 157.923 324.42C157.343 325.22 156.443 325.68 155.223 325.78ZM154.683 318.96H151.323V324.1H154.603C156.183 324.1 156.903 322.98 156.903 321.54C156.903 320.12 156.183 318.96 154.683 318.96ZM170.545 317.22L165.245 324.1L171.645 331H169.145L163.685 325.12V331H161.825V317.22H163.685V323.18L168.245 317.22H170.545ZM173.388 331V317.22H181.548V318.96H175.248V323.36H180.748V325.1H175.248V329.26H181.748V331H173.388ZM183.376 318.98V317.22H193.616V318.98H189.436V331H187.556V318.98H183.376ZM200.673 331V317.22H206.173C207.533 317.22 208.553 317.64 209.233 318.48C209.933 319.32 210.273 320.34 210.273 321.54C210.273 322.74 209.933 323.76 209.233 324.6C208.553 325.42 207.533 325.84 206.173 325.84H202.553V331H200.673ZM206.153 318.96H202.553V324.1H206.053C207.633 324.1 208.413 322.96 208.413 321.54C208.413 320.12 207.653 318.96 206.153 318.96ZM218.582 325.78L222.262 331H220.002L216.442 325.84H214.682V331H212.802V317.22H218.102C219.462 317.22 220.482 317.64 221.162 318.48C221.842 319.32 222.182 320.34 222.182 321.54C222.182 322.66 221.882 323.62 221.282 324.42C220.702 325.22 219.802 325.68 218.582 325.78ZM218.042 318.96H214.682V324.1H217.962C219.542 324.1 220.262 322.98 220.262 321.54C220.262 320.12 219.542 318.96 218.042 318.96ZM225.185 331V317.22H227.045V331H225.185ZM240.71 327.64L242.11 328.82C240.85 330.32 238.99 331.2 236.89 331.2C234.95 331.2 233.29 330.52 231.93 329.14C230.59 327.76 229.91 326.1 229.91 324.14C229.91 322.18 230.59 320.52 231.93 319.14C233.29 317.76 234.95 317.06 236.89 317.06C238.97 317.06 240.81 317.94 242.07 319.4L240.67 320.56C239.63 319.42 238.37 318.86 236.89 318.86C235.45 318.86 234.23 319.38 233.25 320.4C232.27 321.42 231.77 322.68 231.77 324.14C231.77 325.6 232.27 326.86 233.25 327.88C234.23 328.9 235.45 329.4 236.89 329.4C238.43 329.4 239.71 328.82 240.71 327.64ZM244.462 331V317.22H252.622V318.96H246.322V323.36H251.822V325.1H246.322V329.26H252.822V331H244.462ZM255.651 330.86C255.151 330.38 255.151 329.54 255.651 329.06C256.191 328.58 257.011 328.58 257.511 329.06C258.011 329.54 258.011 330.38 257.511 330.86C257.011 331.32 256.191 331.32 255.651 330.86ZM255.651 323.6C255.151 323.12 255.151 322.28 255.651 321.82C256.191 321.34 257.011 321.34 257.511 321.82C258.011 322.28 258.011 323.12 257.511 323.6C257.011 324.08 256.191 324.08 255.651 323.6ZM274.977 331H266.077V317.22H274.797V319.8H268.997V322.94H274.077V325.48H268.997V328.42H274.977V331ZM285.2 326.08V317.22H288.14V326.08C288.14 327.6 287.62 328.84 286.58 329.78C285.54 330.72 284.28 331.2 282.82 331.2C281.36 331.2 280.1 330.72 279.04 329.78C277.98 328.84 277.46 327.6 277.46 326.08V317.22H280.44V326.08C280.44 326.78 280.68 327.34 281.14 327.78C281.62 328.22 282.18 328.44 282.82 328.44C283.46 328.44 284.02 328.22 284.48 327.78C284.96 327.32 285.2 326.76 285.2 326.08ZM296.733 319.8H294.173V323.68H296.653C297.713 323.68 298.393 322.72 298.393 321.74C298.393 320.78 297.753 319.8 296.733 319.8ZM298.013 326.12L301.433 331H297.913L294.833 326.24H294.173V331H291.233V317.22H296.873C298.333 317.22 299.473 317.66 300.253 318.56C301.053 319.44 301.453 320.5 301.453 321.74C301.453 323.84 300.253 325.64 298.013 326.12ZM315.33 326.38C315.33 324.96 314.35 324.24 312.91 324.24C311.89 324.24 310.69 324.64 310.03 325.68L308.49 324.88L309.57 317.9H317.25V320.46H311.79L311.45 322.58C311.95 322.12 312.75 321.9 313.85 321.9C315.07 321.9 316.09 322.3 316.91 323.08C317.73 323.86 318.13 324.96 318.13 326.38C318.13 327.8 317.63 328.96 316.65 329.86C315.67 330.76 314.35 331.2 312.73 331.2C310.91 331.2 309.11 330.14 308.09 328.56L310.45 327.04C310.95 327.84 311.91 328.4 312.73 328.4C314.23 328.4 315.33 327.48 315.33 326.38ZM320.986 321.3C320.986 320.28 321.386 319.42 322.166 318.72C322.966 318 323.926 317.64 325.026 317.64C326.126 317.64 327.086 318 327.886 318.72C328.686 319.42 329.086 320.28 329.086 321.3C329.086 322.2 328.766 322.92 328.126 323.5C329.266 324.16 330.006 325.38 330.006 326.8C330.006 328.04 329.526 329.08 328.546 329.94C327.586 330.78 326.406 331.2 325.026 331.2C323.646 331.2 322.466 330.78 321.486 329.94C320.526 329.08 320.046 328.04 320.046 326.8C320.046 325.38 320.746 324.16 321.926 323.5C321.306 322.9 320.986 322.16 320.986 321.3ZM322.846 326.66C322.846 327.76 323.846 328.6 325.026 328.6C326.206 328.6 327.206 327.76 327.206 326.66C327.206 325.6 326.386 324.7 325.006 324.7C323.646 324.7 322.846 325.6 322.846 326.66ZM323.686 321.38C323.686 322.1 324.166 322.64 325.026 322.64C325.886 322.64 326.366 322.1 326.366 321.38C326.366 320.72 325.846 320.16 325.026 320.16C324.206 320.16 323.686 320.72 323.686 321.38ZM331.84 320.48V317.9H341.72L335.94 331H332.76L337.38 320.48H331.84ZM351.517 328.36V331H342.997V329.48L348.377 323.1C348.837 322.56 349.077 322.08 349.077 321.62C349.077 320.9 348.457 320.32 347.437 320.32C346.457 320.32 345.737 321.08 345.577 322.14L343.017 321.7C343.417 319.2 345.137 317.64 347.597 317.64C348.777 317.64 349.797 318.02 350.617 318.76C351.457 319.5 351.877 320.46 351.877 321.62C351.877 322.8 351.417 323.9 350.497 324.94L347.477 328.36H351.517Z"
        fill="white" />
    <path
        d="M90.672 62.984L88.08 65.216C87.096 64.088 85.872 63.536 84.456 63.536C83.064 63.536 81.888 64.04 80.928 65.072C79.992 66.104 79.512 67.328 79.512 68.768C79.512 70.208 79.992 71.456 80.952 72.488C81.912 73.52 83.088 74.024 84.456 74.024C85.416 74.024 86.328 73.76 87.168 73.232C88.008 72.68 88.44 72.008 88.464 71.168H84.024V68.312H92.52C92.52 71.312 91.8 73.544 90.336 75.032C88.896 76.496 86.928 77.24 84.456 77.24C82.08 77.24 80.088 76.424 78.432 74.768C76.8 73.112 75.984 71.096 75.984 68.768C75.984 66.416 76.8 64.424 78.432 62.768C80.088 61.112 82.08 60.272 84.456 60.272C86.952 60.272 89.208 61.28 90.672 62.984ZM101.685 63.56H98.6126V68.216H101.589C102.861 68.216 103.677 67.064 103.677 65.888C103.677 64.736 102.909 63.56 101.685 63.56ZM103.221 71.144L107.325 77H103.101L99.4046 71.288H98.6126V77H95.0846V60.464H101.853C103.605 60.464 104.973 60.992 105.909 62.072C106.869 63.128 107.349 64.4 107.349 65.888C107.349 68.408 105.909 70.568 103.221 71.144ZM121.046 77H110.366V60.464H120.83V63.56H113.87V67.328H119.966V70.376H113.87V73.904H121.046V77ZM134.874 77H124.194V60.464H134.658V63.56H127.698V67.328H133.794V70.376H127.698V73.904H134.874V77ZM149.189 71.648L152.021 73.616C150.557 75.848 148.013 77.24 145.061 77.24C142.709 77.24 140.741 76.424 139.133 74.768C137.549 73.112 136.757 71.12 136.757 68.768C136.757 66.392 137.549 64.4 139.133 62.744C140.741 61.088 142.709 60.272 145.061 60.272C147.941 60.272 150.485 61.64 151.949 63.776L149.093 65.744C148.109 64.304 146.765 63.584 145.061 63.584C143.693 63.584 142.565 64.088 141.653 65.096C140.741 66.08 140.285 67.304 140.285 68.768C140.285 70.208 140.741 71.432 141.653 72.44C142.565 73.424 143.693 73.928 145.061 73.928C146.765 73.928 148.253 73.016 149.189 71.648ZM165.179 77H154.499V60.464H164.963V63.56H158.003V67.328H164.099V70.376H158.003V73.904H165.179V77ZM80.415 100H76.41V89.665H80.415C81.84 89.665 82.98 90.16 83.805 91.135C84.645 92.11 85.065 93.34 85.065 94.855C85.065 96.355 84.645 97.585 83.82 98.56C82.995 99.52 81.855 100 80.415 100ZM77.805 90.97V98.695H80.415C81.45 98.695 82.26 98.335 82.815 97.63C83.385 96.91 83.67 95.98 83.67 94.855C83.67 93.715 83.385 92.785 82.815 92.065C82.26 91.33 81.45 90.97 80.415 90.97H77.805ZM86.5895 94.855C86.5895 93.37 87.0995 92.125 88.1045 91.09C89.1095 90.055 90.3545 89.545 91.8095 89.545C93.2795 89.545 94.5245 90.055 95.5295 91.09C96.5495 92.125 97.0595 93.37 97.0595 94.855C97.0595 96.325 96.5495 97.57 95.5295 98.605C94.5245 99.64 93.2795 100.15 91.8095 100.15C90.3545 100.15 89.1095 99.64 88.1045 98.605C87.0995 97.57 86.5895 96.325 86.5895 94.855ZM91.8095 90.895C90.7445 90.895 89.8295 91.285 89.0945 92.05C88.3595 92.815 87.9845 93.76 87.9845 94.855C87.9845 95.95 88.3445 96.895 89.0795 97.66C89.8145 98.425 90.7295 98.8 91.8095 98.8C92.8895 98.8 93.8045 98.425 94.5395 97.66C95.2745 96.895 95.6495 95.95 95.6495 94.855C95.6495 93.76 95.2745 92.815 94.5395 92.05C93.8045 91.285 92.8895 90.895 91.8095 90.895ZM99.203 100V89.665H100.598V98.695H104.813V100H99.203ZM113.659 97.48L114.709 98.365C113.764 99.49 112.369 100.15 110.794 100.15C109.339 100.15 108.094 99.64 107.074 98.605C106.069 97.57 105.559 96.325 105.559 94.855C105.559 93.385 106.069 92.14 107.074 91.105C108.094 90.07 109.339 89.545 110.794 89.545C112.354 89.545 113.734 90.205 114.679 91.3L113.629 92.17C112.849 91.315 111.904 90.895 110.794 90.895C109.714 90.895 108.799 91.285 108.064 92.05C107.329 92.815 106.954 93.76 106.954 94.855C106.954 95.95 107.329 96.895 108.064 97.66C108.799 98.425 109.714 98.8 110.794 98.8C111.949 98.8 112.909 98.365 113.659 97.48ZM116.473 100V89.665H122.593V90.97H117.868V94.27H121.993V95.575H117.868V98.695H122.743V100H116.473ZM131.818 91.525L130.108 96.115H133.528L131.818 91.525ZM135.013 100L134.008 97.375H129.628L128.623 100H127.138L131.068 89.665H132.568L136.483 100H135.013ZM136.299 90.985V89.665H143.979V90.985H140.844V100H139.434V90.985H136.299ZM152.204 89.665H153.614V100H152.204V95.5H147.209V100H145.814V89.665H147.209V94.225H152.204V89.665ZM156.434 100V89.665H162.554V90.97H157.829V94.27H161.954V95.575H157.829V98.695H162.704V100H156.434ZM172.356 89.665V100H171.021L166.311 92.215V100H164.916V89.665H166.296L170.961 97.39V89.665H172.356ZM174.54 97.015H175.935C175.95 97.48 176.16 97.915 176.58 98.29C177 98.665 177.525 98.845 178.155 98.845C179.4 98.845 180.105 98.185 180.24 97.33C180.315 96.31 179.565 95.725 178.485 95.485L177.15 95.155C175.47 94.72 174.63 93.82 174.63 92.455C174.63 91.6 174.96 90.91 175.62 90.37C176.28 89.815 177.06 89.545 177.975 89.545C178.935 89.545 179.73 89.83 180.36 90.385C180.99 90.94 181.305 91.66 181.305 92.575H179.91C179.91 91.555 179.1 90.88 177.96 90.88C177.435 90.88 176.985 91.03 176.595 91.315C176.22 91.6 176.025 91.975 176.025 92.44C176.025 93.16 176.52 93.64 177.495 93.88L178.845 94.21C180.81 94.705 181.8 95.83 181.605 97.45C181.515 98.23 181.155 98.875 180.54 99.385C179.925 99.895 179.13 100.15 178.155 100.15C177.12 100.15 176.265 99.835 175.575 99.22C174.885 98.59 174.54 97.855 174.54 97.015ZM190.631 91.525L188.921 96.115H192.341L190.631 91.525ZM193.826 100L192.821 97.375H188.441L187.436 100H185.951L189.881 89.665H191.381L195.296 100H193.826ZM195.112 90.985V89.665H202.792V90.985H199.657V100H198.247V90.985H195.112ZM203.638 90.985V89.665H211.318V90.985H208.183V100H206.773V90.985H203.638ZM213.153 100V89.665H214.548V100H213.153ZM224.797 97.48L225.847 98.365C224.902 99.49 223.507 100.15 221.932 100.15C220.477 100.15 219.232 99.64 218.212 98.605C217.207 97.57 216.697 96.325 216.697 94.855C216.697 93.385 217.207 92.14 218.212 91.105C219.232 90.07 220.477 89.545 221.932 89.545C223.492 89.545 224.872 90.205 225.817 91.3L224.767 92.17C223.987 91.315 223.042 90.895 221.932 90.895C220.852 90.895 219.937 91.285 219.202 92.05C218.467 92.815 218.092 93.76 218.092 94.855C218.092 95.95 218.467 96.895 219.202 97.66C219.937 98.425 220.852 98.8 221.932 98.8C223.087 98.8 224.047 98.365 224.797 97.48ZM231.046 91.525L229.336 96.115H232.756L231.046 91.525ZM234.241 100L233.236 97.375H228.856L227.851 100H226.366L230.296 89.665H231.796L235.711 100H234.241ZM80.745 119.085L83.505 123H81.81L79.14 119.13H77.82V123H76.41V112.665H80.385C81.405 112.665 82.17 112.98 82.68 113.61C83.19 114.24 83.445 115.005 83.445 115.905C83.445 116.745 83.22 117.465 82.77 118.065C82.335 118.665 81.66 119.01 80.745 119.085ZM80.34 113.97H77.82V117.825H80.28C81.465 117.825 82.005 116.985 82.005 115.905C82.005 114.84 81.465 113.97 80.34 113.97ZM85.6971 123V112.665H87.0921V123H85.6971ZM88.9259 112.665H90.3809L92.7209 120.645L95.0609 112.665H96.5009L93.3959 123H92.0609L88.9259 112.665ZM98.3387 123V112.665H99.7337V123H98.3387ZM102.557 123V112.665H108.677V113.97H103.952V117.27H108.077V118.575H103.952V121.695H108.827V123H102.557ZM115.374 119.085L118.134 123H116.439L113.769 119.13H112.449V123H111.039V112.665H115.014C116.034 112.665 116.799 112.98 117.309 113.61C117.819 114.24 118.074 115.005 118.074 115.905C118.074 116.745 117.849 117.465 117.399 118.065C116.964 118.665 116.289 119.01 115.374 119.085ZM114.969 113.97H112.449V117.825H114.909C116.094 117.825 116.634 116.985 116.634 115.905C116.634 114.84 116.094 113.97 114.969 113.97ZM123.761 114.525L122.051 119.115H125.471L123.761 114.525ZM126.956 123L125.951 120.375H121.571L120.566 123H119.081L123.011 112.665H124.511L128.426 123H126.956ZM135.552 116.055L134.382 117.75L133.482 117.06L134.757 115.485L132.792 114.93L132.987 114.36L133.167 113.835L135.042 114.57L134.922 112.545H136.107L135.972 114.57L136.902 114.21L137.877 113.835L138.222 114.93L136.272 115.455L137.577 117.075L136.647 117.72L135.552 116.055ZM142.554 116.055L141.384 117.75L140.484 117.06L141.759 115.485L139.794 114.93L139.989 114.36L140.169 113.835L142.044 114.57L141.924 112.545H143.109L142.974 114.57L143.904 114.21L144.879 113.835L145.224 114.93L143.274 115.455L144.579 117.075L143.649 117.72L142.554 116.055ZM149.556 116.055L148.386 117.75L147.486 117.06L148.761 115.485L146.796 114.93L146.991 114.36L147.171 113.835L149.046 114.57L148.926 112.545H150.111L149.976 114.57L150.906 114.21L151.881 113.835L152.226 114.93L150.276 115.455L151.581 117.075L150.651 117.72L149.556 116.055ZM156.558 116.055L155.388 117.75L154.488 117.06L155.763 115.485L153.798 114.93L153.993 114.36L154.173 113.835L156.048 114.57L155.928 112.545H157.113L156.978 114.57L157.908 114.21L158.883 113.835L159.228 114.93L157.278 115.455L158.583 117.075L157.653 117.72L156.558 116.055ZM163.56 116.055L162.39 117.75L161.49 117.06L162.765 115.485L160.8 114.93L160.995 114.36L161.175 113.835L163.05 114.57L162.93 112.545H164.115L163.98 114.57L164.91 114.21L165.885 113.835L166.23 114.93L164.28 115.455L165.585 117.075L164.655 117.72L163.56 116.055Z"
        fill="white" />
    <path
        d="M75.645 177.11V175.175H83.055L78.72 185H76.335L79.8 177.11H75.645ZM93.6742 174.665H95.8792V185H93.9142L90.3142 178.745V185H88.1242V174.665H90.1342L93.6742 180.845V174.665ZM98.3048 185V174.665H100.495V185H98.3048ZM111.499 176.24L109.879 177.635C109.264 176.93 108.499 176.585 107.614 176.585C106.744 176.585 106.009 176.9 105.409 177.545C104.824 178.19 104.524 178.955 104.524 179.855C104.524 180.755 104.824 181.535 105.424 182.18C106.024 182.825 106.759 183.14 107.614 183.14C108.214 183.14 108.784 182.975 109.309 182.645C109.834 182.3 110.104 181.88 110.119 181.355H107.344V179.57H112.654C112.654 181.445 112.204 182.84 111.289 183.77C110.389 184.685 109.159 185.15 107.614 185.15C106.129 185.15 104.884 184.64 103.849 183.605C102.829 182.57 102.319 181.31 102.319 179.855C102.319 178.385 102.829 177.14 103.849 176.105C104.884 175.07 106.129 174.545 107.614 174.545C109.174 174.545 110.584 175.175 111.499 176.24ZM120.122 178.88V174.665H122.342V185H120.122V180.845H116.447V185H114.257V174.665H116.447V178.88H120.122ZM126.77 176.645H123.98V174.665H131.78V176.645H128.99V185H126.77V176.645ZM132.862 181.97H135.067C135.112 182.675 135.667 183.215 136.612 183.215C137.512 183.215 138.112 182.78 138.127 182.12C138.142 181.595 137.857 181.235 136.882 180.95L135.637 180.605C133.852 180.05 132.967 179.06 132.967 177.635C132.967 176.72 133.312 175.985 133.987 175.415C134.662 174.83 135.517 174.545 136.522 174.545C137.542 174.545 138.382 174.83 139.027 175.4C139.687 175.97 140.017 176.735 140.017 177.71H137.827C137.827 177.005 137.347 176.54 136.492 176.54C135.712 176.54 135.157 176.975 135.157 177.575C135.157 178.07 135.532 178.415 136.267 178.625L137.497 179.015C139.432 179.57 140.377 180.62 140.332 182.135C140.317 182.78 140.137 183.35 139.762 183.83C139.027 184.775 137.887 185.165 136.612 185.165C135.487 185.165 134.587 184.865 133.897 184.28C133.207 183.68 132.862 182.915 132.862 181.97ZM79.98 200.965L78.15 204.025H79.98V200.965ZM83.34 204.025V205.795H82.095V208H79.98V205.795H75.285L79.875 198.175H82.095V204.025H83.34ZM92.1518 200.05L91.1018 203.65H93.2468L92.1518 200.05ZM94.8668 208L93.9518 205.555H90.3818L89.4668 208H87.1268L90.9668 197.665H93.3518L97.1768 208H94.8668ZM102.369 199.66H100.509V206.005H102.369C103.164 206.005 103.764 205.705 104.199 205.105C104.634 204.505 104.844 203.755 104.844 202.855C104.844 201.94 104.634 201.19 104.199 200.575C103.764 199.96 103.164 199.66 102.369 199.66ZM102.369 208H98.3195V197.665H102.369C103.824 197.665 104.964 198.16 105.789 199.135C106.614 200.11 107.034 201.34 107.034 202.855C107.034 204.37 106.614 205.6 105.789 206.56C104.964 207.52 103.824 208 102.369 208ZM114.625 204.31V197.665H116.83V204.31C116.83 205.45 116.44 206.38 115.66 207.085C114.88 207.79 113.935 208.15 112.84 208.15C111.745 208.15 110.8 207.79 110.005 207.085C109.21 206.38 108.82 205.45 108.82 204.31V197.665H111.055V204.31C111.055 204.835 111.235 205.255 111.58 205.585C111.94 205.915 112.36 206.08 112.84 206.08C113.32 206.08 113.74 205.915 114.085 205.585C114.445 205.24 114.625 204.82 114.625 204.31ZM125.225 208H119.15V197.665H121.355V206.065H125.225V208ZM127.912 199.645H125.122V197.665H132.922V199.645H130.132V208H127.912V199.645ZM134.005 204.97H136.21C136.255 205.675 136.81 206.215 137.755 206.215C138.655 206.215 139.255 205.78 139.27 205.12C139.285 204.595 139 204.235 138.025 203.95L136.78 203.605C134.995 203.05 134.11 202.06 134.11 200.635C134.11 199.72 134.455 198.985 135.13 198.415C135.805 197.83 136.66 197.545 137.665 197.545C138.685 197.545 139.525 197.83 140.17 198.4C140.83 198.97 141.16 199.735 141.16 200.71H138.97C138.97 200.005 138.49 199.54 137.635 199.54C136.855 199.54 136.3 199.975 136.3 200.575C136.3 201.07 136.675 201.415 137.41 201.625L138.64 202.015C140.575 202.57 141.52 203.62 141.475 205.135C141.46 205.78 141.28 206.35 140.905 206.83C140.17 207.775 139.03 208.165 137.755 208.165C136.63 208.165 135.73 207.865 135.04 207.28C134.35 206.68 134.005 205.915 134.005 204.97ZM80.34 222.6H78.42V225.51H80.28C81.075 225.51 81.585 224.79 81.585 224.055C81.585 223.335 81.105 222.6 80.34 222.6ZM81.3 227.34L83.865 231H81.225L78.915 227.43H78.42V231H76.215V220.665H80.445C81.54 220.665 82.395 220.995 82.98 221.67C83.58 222.33 83.88 223.125 83.88 224.055C83.88 225.63 82.98 226.98 81.3 227.34ZM93.4608 225.855C93.4608 224.985 93.1608 224.25 92.5608 223.635C91.9758 223.02 91.2558 222.72 90.4008 222.72C89.5458 222.72 88.8258 223.02 88.2408 223.635C87.6558 224.25 87.3558 224.985 87.3558 225.855C87.3558 226.725 87.6558 227.46 88.2408 228.075C88.8258 228.675 89.5458 228.975 90.4008 228.975C91.2558 228.975 91.9758 228.675 92.5608 228.06C93.1608 227.445 93.4608 226.71 93.4608 225.855ZM85.1658 225.855C85.1658 224.385 85.6758 223.14 86.6808 222.105C87.7008 221.07 88.9458 220.545 90.4008 220.545C91.8708 220.545 93.1158 221.07 94.1208 222.105C95.1408 223.14 95.6508 224.385 95.6508 225.855C95.6508 227.31 95.1408 228.57 94.1208 229.605C93.1008 230.64 91.8558 231.15 90.4008 231.15C88.9458 231.15 87.7008 230.64 86.6808 229.605C85.6758 228.57 85.1658 227.31 85.1658 225.855ZM105.18 225.855C105.18 224.985 104.88 224.25 104.28 223.635C103.695 223.02 102.975 222.72 102.12 222.72C101.265 222.72 100.545 223.02 99.9595 223.635C99.3745 224.25 99.0745 224.985 99.0745 225.855C99.0745 226.725 99.3745 227.46 99.9595 228.075C100.545 228.675 101.265 228.975 102.12 228.975C102.975 228.975 103.695 228.675 104.28 228.06C104.88 227.445 105.18 226.71 105.18 225.855ZM96.8845 225.855C96.8845 224.385 97.3945 223.14 98.3995 222.105C99.4195 221.07 100.665 220.545 102.12 220.545C103.59 220.545 104.835 221.07 105.84 222.105C106.86 223.14 107.37 224.385 107.37 225.855C107.37 227.31 106.86 228.57 105.84 229.605C104.82 230.64 103.575 231.15 102.12 231.15C100.665 231.15 99.4195 230.64 98.3995 229.605C97.3945 228.57 96.8845 227.31 96.8845 225.855ZM111.723 220.665L114.843 227.325L117.933 220.665H119.778L121.038 231H118.833L118.113 224.805L115.698 229.815H114.003L111.573 224.805L110.838 231H108.633L109.908 220.665H111.723ZM134.257 225.855C134.257 224.985 133.957 224.25 133.357 223.635C132.772 223.02 132.052 222.72 131.197 222.72C130.342 222.72 129.622 223.02 129.037 223.635C128.452 224.25 128.152 224.985 128.152 225.855C128.152 226.725 128.452 227.46 129.037 228.075C129.622 228.675 130.342 228.975 131.197 228.975C132.052 228.975 132.772 228.675 133.357 228.06C133.957 227.445 134.257 226.71 134.257 225.855ZM125.962 225.855C125.962 224.385 126.472 223.14 127.477 222.105C128.497 221.07 129.742 220.545 131.197 220.545C132.667 220.545 133.912 221.07 134.917 222.105C135.937 223.14 136.447 224.385 136.447 225.855C136.447 227.31 135.937 228.57 134.917 229.605C133.897 230.64 132.652 231.15 131.197 231.15C129.742 231.15 128.497 230.64 127.477 229.605C126.472 228.57 125.962 227.31 125.962 225.855ZM143.83 220.665H146.035V231H144.07L140.47 224.745V231H138.28V220.665H140.29L143.83 226.845V220.665ZM154.536 231H148.461V220.665H150.666V229.065H154.536V231ZM159.662 226.35V231H157.427V226.32L153.437 220.665H156.047L158.537 224.535L161.057 220.665H163.667L159.662 226.35ZM80.265 245.66H78.405V252.005H80.265C81.06 252.005 81.66 251.705 82.095 251.105C82.53 250.505 82.74 249.755 82.74 248.855C82.74 247.94 82.53 247.19 82.095 246.575C81.66 245.96 81.06 245.66 80.265 245.66ZM80.265 254H76.215V243.665H80.265C81.72 243.665 82.86 244.16 83.685 245.135C84.51 246.11 84.93 247.34 84.93 248.855C84.93 250.37 84.51 251.6 83.685 252.56C82.86 253.52 81.72 254 80.265 254ZM94.5155 248.855C94.5155 247.985 94.2155 247.25 93.6155 246.635C93.0305 246.02 92.3105 245.72 91.4555 245.72C90.6005 245.72 89.8805 246.02 89.2955 246.635C88.7105 247.25 88.4105 247.985 88.4105 248.855C88.4105 249.725 88.7105 250.46 89.2955 251.075C89.8805 251.675 90.6005 251.975 91.4555 251.975C92.3105 251.975 93.0305 251.675 93.6155 251.06C94.2155 250.445 94.5155 249.71 94.5155 248.855ZM86.2205 248.855C86.2205 247.385 86.7305 246.14 87.7355 245.105C88.7555 244.07 90.0005 243.545 91.4555 243.545C92.9255 243.545 94.1705 244.07 95.1755 245.105C96.1955 246.14 96.7055 247.385 96.7055 248.855C96.7055 250.31 96.1955 251.57 95.1755 252.605C94.1555 253.64 92.9105 254.15 91.4555 254.15C90.0005 254.15 88.7555 253.64 87.7355 252.605C86.7305 251.57 86.2205 250.31 86.2205 248.855ZM104.239 250.31V243.665H106.444V250.31C106.444 251.45 106.054 252.38 105.274 253.085C104.494 253.79 103.549 254.15 102.454 254.15C101.359 254.15 100.414 253.79 99.6192 253.085C98.8242 252.38 98.4342 251.45 98.4342 250.31V243.665H100.669V250.31C100.669 250.835 100.849 251.255 101.194 251.585C101.554 251.915 101.974 252.08 102.454 252.08C102.934 252.08 103.354 251.915 103.699 251.585C104.059 251.24 104.239 250.82 104.239 250.31ZM115.964 246.545C115.964 247.325 115.529 248.105 114.554 248.48C115.184 248.645 115.664 248.96 115.994 249.425C116.339 249.89 116.504 250.355 116.504 250.835C116.504 251.72 116.204 252.47 115.604 253.085C115.004 253.7 114.209 254 113.204 254H108.764V243.665H112.904C114.764 243.665 115.964 244.79 115.964 246.545ZM110.969 245.6V247.745H112.694C113.249 247.745 113.654 247.295 113.654 246.68C113.654 246.02 113.324 245.6 112.679 245.6H110.969ZM113.039 249.56H110.969V252.065H113.084C113.789 252.065 114.194 251.465 114.194 250.79C114.194 250.145 113.759 249.56 113.039 249.56ZM124.39 254H118.315V243.665H120.52V252.065H124.39V254ZM132.651 254H125.976V243.665H132.516V245.6H128.166V247.955H131.976V249.86H128.166V252.065H132.651V254ZM142.405 245.6H140.485V248.51H142.345C143.14 248.51 143.65 247.79 143.65 247.055C143.65 246.335 143.17 245.6 142.405 245.6ZM143.365 250.34L145.93 254H143.29L140.98 250.43H140.485V254H138.28V243.665H142.51C143.605 243.665 144.46 243.995 145.045 244.67C145.645 245.33 145.945 246.125 145.945 247.055C145.945 248.63 145.045 249.98 143.365 250.34ZM155.526 248.855C155.526 247.985 155.226 247.25 154.626 246.635C154.041 246.02 153.321 245.72 152.466 245.72C151.611 245.72 150.891 246.02 150.306 246.635C149.721 247.25 149.421 247.985 149.421 248.855C149.421 249.725 149.721 250.46 150.306 251.075C150.891 251.675 151.611 251.975 152.466 251.975C153.321 251.975 154.041 251.675 154.626 251.06C155.226 250.445 155.526 249.71 155.526 248.855ZM147.231 248.855C147.231 247.385 147.741 246.14 148.746 245.105C149.766 244.07 151.011 243.545 152.466 243.545C153.936 243.545 155.181 244.07 156.186 245.105C157.206 246.14 157.716 247.385 157.716 248.855C157.716 250.31 157.206 251.57 156.186 252.605C155.166 253.64 153.921 254.15 152.466 254.15C151.011 254.15 149.766 253.64 148.746 252.605C147.741 251.57 147.231 250.31 147.231 248.855ZM167.245 248.855C167.245 247.985 166.945 247.25 166.345 246.635C165.76 246.02 165.04 245.72 164.185 245.72C163.33 245.72 162.61 246.02 162.025 246.635C161.44 247.25 161.14 247.985 161.14 248.855C161.14 249.725 161.44 250.46 162.025 251.075C162.61 251.675 163.33 251.975 164.185 251.975C165.04 251.975 165.76 251.675 166.345 251.06C166.945 250.445 167.245 249.71 167.245 248.855ZM158.95 248.855C158.95 247.385 159.46 246.14 160.465 245.105C161.485 244.07 162.73 243.545 164.185 243.545C165.655 243.545 166.9 244.07 167.905 245.105C168.925 246.14 169.435 247.385 169.435 248.855C169.435 250.31 168.925 251.57 167.905 252.605C166.885 253.64 165.64 254.15 164.185 254.15C162.73 254.15 161.485 253.64 160.465 252.605C159.46 251.57 158.95 250.31 158.95 248.855ZM173.789 243.665L176.909 250.325L179.999 243.665H181.844L183.104 254H180.899L180.179 247.805L177.764 252.815H176.069L173.639 247.805L172.904 254H170.699L171.974 243.665H173.789Z"
        fill="white" />
    <line opacity="0.5" x1="75" y1="149.5" x2="295" y2="149.5" stroke="white" />
    <line opacity="0.5" x1="75" y1="283.5" x2="395" y2="283.5" stroke="white" />
    <circle cx="373.5" cy="130.5" r="64.5" fill="url(#paint1_radial_0_1)" />
    <path
        d="M337.947 169H331.272V158.665H337.812V160.6H333.462V162.955H337.272V164.86H333.462V167.065H337.947V169ZM345.614 165.31V158.665H347.819V165.31C347.819 166.45 347.429 167.38 346.649 168.085C345.869 168.79 344.924 169.15 343.829 169.15C342.734 169.15 341.789 168.79 340.994 168.085C340.199 167.38 339.809 166.45 339.809 165.31V158.665H342.044V165.31C342.044 165.835 342.224 166.255 342.569 166.585C342.929 166.915 343.349 167.08 343.829 167.08C344.309 167.08 344.729 166.915 345.074 166.585C345.434 166.24 345.614 165.82 345.614 165.31ZM354.264 160.6H352.344V163.51H354.204C354.999 163.51 355.509 162.79 355.509 162.055C355.509 161.335 355.029 160.6 354.264 160.6ZM355.224 165.34L357.789 169H355.149L352.839 165.43H352.344V169H350.139V158.665H354.369C355.464 158.665 356.319 158.995 356.904 159.67C357.504 160.33 357.804 161.125 357.804 162.055C357.804 163.63 356.904 164.98 355.224 165.34ZM374.054 163.456C374.054 161.752 372.878 160.888 371.15 160.888C369.926 160.888 368.486 161.368 367.694 162.616L365.846 161.656L367.142 153.28H376.358V156.352H369.806L369.398 158.896C369.998 158.344 370.958 158.08 372.278 158.08C373.742 158.08 374.966 158.56 375.95 159.496C376.934 160.432 377.414 161.752 377.414 163.456C377.414 165.16 376.814 166.552 375.638 167.632C374.462 168.712 372.878 169.24 370.934 169.24C368.75 169.24 366.59 167.968 365.366 166.072L368.198 164.248C368.798 165.208 369.95 165.88 370.934 165.88C372.734 165.88 374.054 164.776 374.054 163.456ZM379.473 155.944L385.521 153.064V169H382.161V157.744L379.473 158.896V155.944ZM389.888 157.36C389.888 156.136 390.368 155.104 391.304 154.264C392.264 153.4 393.416 152.968 394.736 152.968C396.056 152.968 397.208 153.4 398.168 154.264C399.128 155.104 399.608 156.136 399.608 157.36C399.608 158.44 399.224 159.304 398.456 160C399.824 160.792 400.712 162.256 400.712 163.96C400.712 165.448 400.136 166.696 398.96 167.728C397.808 168.736 396.392 169.24 394.736 169.24C393.08 169.24 391.664 168.736 390.488 167.728C389.336 166.696 388.76 165.448 388.76 163.96C388.76 162.256 389.6 160.792 391.016 160C390.272 159.28 389.888 158.392 389.888 157.36ZM392.12 163.792C392.12 165.112 393.32 166.12 394.736 166.12C396.152 166.12 397.352 165.112 397.352 163.792C397.352 162.52 396.368 161.44 394.712 161.44C393.08 161.44 392.12 162.52 392.12 163.792ZM393.128 157.456C393.128 158.32 393.704 158.968 394.736 158.968C395.768 158.968 396.344 158.32 396.344 157.456C396.344 156.664 395.72 155.992 394.736 155.992C393.752 155.992 393.128 156.664 393.128 157.456ZM409.921 158.872C411.169 158.872 412.273 159.328 413.257 160.264C414.241 161.2 414.745 162.496 414.745 164.176C414.745 165.688 414.217 166.912 413.161 167.848C412.129 168.784 410.737 169.24 409.033 169.24C407.521 169.24 406.249 168.736 405.193 167.752C404.137 166.744 403.537 165.424 403.393 163.768C403.009 158.92 403.849 152.752 409.753 152.968C411.889 153.064 413.545 153.808 414.601 156.016L411.457 157.36C411.049 156.52 410.449 156.112 409.633 156.112C407.401 156.16 406.585 158.488 406.753 160.648C406.873 160.264 407.233 159.88 407.785 159.472C408.337 159.064 409.057 158.872 409.921 158.872ZM410.641 165.448C411.481 164.608 411.481 163.336 410.641 162.544C409.849 161.704 408.577 161.704 407.737 162.544C406.945 163.336 406.945 164.608 407.737 165.448C408.577 166.24 409.849 166.24 410.641 165.448Z"
        fill="white" />
    <path
        d="M344.75 141.245V146H343.31V141.245L339.395 135.665H341.06L344.03 139.85L347.03 135.665H348.71L344.75 141.245ZM348.859 140.855C348.859 139.37 349.369 138.125 350.374 137.09C351.379 136.055 352.624 135.545 354.079 135.545C355.549 135.545 356.794 136.055 357.799 137.09C358.819 138.125 359.329 139.37 359.329 140.855C359.329 142.325 358.819 143.57 357.799 144.605C356.794 145.64 355.549 146.15 354.079 146.15C352.624 146.15 351.379 145.64 350.374 144.605C349.369 143.57 348.859 142.325 348.859 140.855ZM354.079 136.895C353.014 136.895 352.099 137.285 351.364 138.05C350.629 138.815 350.254 139.76 350.254 140.855C350.254 141.95 350.614 142.895 351.349 143.66C352.084 144.425 352.999 144.8 354.079 144.8C355.159 144.8 356.074 144.425 356.809 143.66C357.544 142.895 357.919 141.95 357.919 140.855C357.919 139.76 357.544 138.815 356.809 138.05C356.074 137.285 355.159 136.895 354.079 136.895ZM367.517 142.445V135.665H368.927V142.445C368.927 143.54 368.552 144.44 367.817 145.13C367.082 145.805 366.197 146.15 365.147 146.15C364.097 146.15 363.197 145.805 362.462 145.13C361.727 144.44 361.367 143.54 361.367 142.445V135.665H362.777V142.445C362.777 143.135 363.002 143.705 363.467 144.14C363.932 144.575 364.487 144.8 365.147 144.8C365.807 144.8 366.362 144.575 366.827 144.14C367.292 143.705 367.517 143.135 367.517 142.445ZM374.905 143.015H376.3C376.315 143.48 376.525 143.915 376.945 144.29C377.365 144.665 377.89 144.845 378.52 144.845C379.765 144.845 380.47 144.185 380.605 143.33C380.68 142.31 379.93 141.725 378.85 141.485L377.515 141.155C375.835 140.72 374.995 139.82 374.995 138.455C374.995 137.6 375.325 136.91 375.985 136.37C376.645 135.815 377.425 135.545 378.34 135.545C379.3 135.545 380.095 135.83 380.725 136.385C381.355 136.94 381.67 137.66 381.67 138.575H380.275C380.275 137.555 379.465 136.88 378.325 136.88C377.8 136.88 377.35 137.03 376.96 137.315C376.585 137.6 376.39 137.975 376.39 138.44C376.39 139.16 376.885 139.64 377.86 139.88L379.21 140.21C381.175 140.705 382.165 141.83 381.97 143.45C381.88 144.23 381.52 144.875 380.905 145.385C380.29 145.895 379.495 146.15 378.52 146.15C377.485 146.15 376.63 145.835 375.94 145.22C375.25 144.59 374.905 143.855 374.905 143.015ZM387.48 137.525L385.77 142.115H389.19L387.48 137.525ZM390.675 146L389.67 143.375H385.29L384.285 146H382.8L386.73 135.665H388.23L392.145 146H390.675ZM392.196 135.665H393.651L395.991 143.645L398.331 135.665H399.771L396.666 146H395.331L392.196 135.665ZM401.609 146V135.665H407.729V136.97H403.004V140.27H407.129V141.575H403.004V144.695H407.879V146H401.609Z"
        fill="white" />
    <path
        d="M348.008 111.124H335.3V107.164H348.008V111.124ZM359.297 109.504C357.425 109.504 355.733 108.82 354.257 107.416C352.781 106.012 352.061 104.068 352.061 101.548C352.061 99.28 352.853 97.444 354.401 96.04C355.985 94.636 358.073 93.952 360.629 93.952C362.897 93.952 364.805 94.708 366.389 96.22C367.973 97.696 368.873 99.676 369.089 102.16C369.665 109.432 368.405 118.684 359.549 118.36C356.345 118.216 353.861 117.1 352.277 113.788L356.993 111.772C357.605 113.032 358.505 113.644 359.729 113.644C360.809 113.644 361.709 113.284 362.393 112.564C363.797 111.124 364.157 109.144 364.049 106.84C363.437 108.604 361.853 109.504 359.297 109.504ZM358.181 99.676C356.993 100.864 356.993 102.772 358.181 104.032C359.441 105.22 361.349 105.22 362.537 104.032C363.797 102.772 363.797 100.864 362.537 99.676C361.349 98.416 359.441 98.416 358.181 99.676ZM388.42 113.248V118H373.084V115.264L382.768 103.78C383.596 102.808 384.028 101.944 384.028 101.116C384.028 99.82 382.912 98.776 381.076 98.776C379.312 98.776 378.016 100.144 377.728 102.052L373.12 101.26C373.84 96.76 376.936 93.952 381.364 93.952C383.488 93.952 385.324 94.636 386.8 95.968C388.312 97.3 389.068 99.028 389.068 101.116C389.068 103.24 388.24 105.22 386.584 107.092L381.148 113.248H388.42ZM410.375 94.42L398.783 118H396.299L407.891 94.42H410.375ZM397.055 94.168C398.387 94.168 399.503 94.636 400.439 95.572C401.411 96.508 401.879 97.66 401.879 98.992C401.879 100.324 401.411 101.476 400.475 102.412C399.539 103.312 398.387 103.78 397.055 103.78C395.723 103.78 394.571 103.312 393.635 102.412C392.735 101.476 392.267 100.324 392.267 98.992C392.267 97.66 392.735 96.508 393.635 95.572C394.571 94.636 395.723 94.168 397.055 94.168ZM397.055 100.864C398.099 100.864 398.963 100.036 398.963 98.992C398.963 97.948 398.099 97.084 397.055 97.084C396.011 97.084 395.183 97.948 395.183 98.992C395.183 100.036 395.939 100.864 397.055 100.864ZM409.799 108.748C411.131 108.748 412.247 109.216 413.183 110.188C414.155 111.124 414.623 112.24 414.623 113.572C414.623 114.904 414.155 116.056 413.219 116.992C412.283 117.892 411.131 118.36 409.799 118.36C408.467 118.36 407.315 117.892 406.379 116.992C405.479 116.056 405.011 114.904 405.011 113.572C405.011 112.24 405.479 111.088 406.379 110.152C407.315 109.216 408.467 108.748 409.799 108.748ZM407.927 113.572C407.927 114.688 408.683 115.444 409.799 115.444C411.455 115.444 412.391 113.392 411.131 112.24C409.979 110.98 407.927 111.916 407.927 113.572Z"
        fill="white" />
    <line x1="409" y1="127" x2="339" y2="127" stroke="white" stroke-width="2" />
    <g filter="url(#filter0_d_0_1)">
        <rect x="75" y="359" width="320" height="103" rx="20" fill="white" />
    </g>
    <path
        d="M128.066 410H113.826V387.952H127.778V392.08H118.498V397.104H126.626V401.168H118.498V405.872H128.066V410ZM144.424 402.128V387.952H149.128V402.128C149.128 404.56 148.296 406.544 146.632 408.048C144.968 409.552 142.952 410.32 140.616 410.32C138.28 410.32 136.264 409.552 134.568 408.048C132.872 406.544 132.04 404.56 132.04 402.128V387.952H136.808V402.128C136.808 403.248 137.192 404.144 137.928 404.848C138.696 405.552 139.592 405.904 140.616 405.904C141.64 405.904 142.536 405.552 143.272 404.848C144.04 404.112 144.424 403.216 144.424 402.128ZM162.876 392.08H158.78V398.288H162.748C164.444 398.288 165.532 396.752 165.532 395.184C165.532 393.648 164.508 392.08 162.876 392.08ZM164.924 402.192L170.396 410H164.764L159.836 402.384H158.78V410H154.076V387.952H163.1C165.436 387.952 167.26 388.656 168.508 390.096C169.788 391.504 170.428 393.2 170.428 395.184C170.428 398.544 168.508 401.424 164.924 402.192ZM190.296 394.992L186.392 401.52H190.296V394.992ZM197.464 401.52V405.296H194.808V410H190.296V405.296H180.28L190.072 389.04H194.808V401.52H197.464ZM200.298 393.168V389.04H216.106L206.858 410H201.77L209.162 393.168H200.298ZM227.236 396.496C228.9 396.496 230.372 397.104 231.684 398.352C232.996 399.6 233.668 401.328 233.668 403.568C233.668 405.584 232.964 407.216 231.556 408.464C230.18 409.712 228.324 410.32 226.052 410.32C224.036 410.32 222.34 409.648 220.932 408.336C219.524 406.992 218.724 405.232 218.532 403.024C218.02 396.56 219.14 388.336 227.012 388.624C229.86 388.752 232.068 389.744 233.476 392.688L229.284 394.48C228.74 393.36 227.94 392.816 226.852 392.816C223.876 392.88 222.788 395.984 223.012 398.864C223.172 398.352 223.652 397.84 224.388 397.296C225.124 396.752 226.084 396.496 227.236 396.496ZM228.196 405.264C229.316 404.144 229.316 402.448 228.196 401.392C227.14 400.272 225.444 400.272 224.324 401.392C223.268 402.448 223.268 404.144 224.324 405.264C225.444 406.32 227.14 406.32 228.196 405.264ZM257.798 403.28H252.838V408.24H249.574V403.28H244.646V400.016H249.574V395.088H252.838V400.016H257.798V403.28ZM277.892 396.496C279.556 396.496 281.028 397.104 282.34 398.352C283.652 399.6 284.324 401.328 284.324 403.568C284.324 405.584 283.62 407.216 282.212 408.464C280.836 409.712 278.98 410.32 276.708 410.32C274.692 410.32 272.996 409.648 271.588 408.336C270.18 406.992 269.38 405.232 269.188 403.024C268.676 396.56 269.796 388.336 277.668 388.624C280.516 388.752 282.724 389.744 284.132 392.688L279.94 394.48C279.396 393.36 278.596 392.816 277.508 392.816C274.532 392.88 273.444 395.984 273.668 398.864C273.828 398.352 274.308 397.84 275.044 397.296C275.78 396.752 276.74 396.496 277.892 396.496ZM278.852 405.264C279.972 404.144 279.972 402.448 278.852 401.392C277.796 400.272 276.1 400.272 274.98 401.392C273.924 402.448 273.924 404.144 274.98 405.264C276.1 406.32 277.796 406.32 278.852 405.264ZM311.686 394.096C311.686 395.76 310.758 397.424 308.678 398.224C310.022 398.576 311.046 399.248 311.75 400.24C312.486 401.232 312.838 402.224 312.838 403.248C312.838 405.136 312.198 406.736 310.918 408.048C309.638 409.36 307.942 410 305.798 410H296.326V387.952H305.158C309.126 387.952 311.686 390.352 311.686 394.096ZM301.03 392.08V396.656H304.71C305.894 396.656 306.758 395.696 306.758 394.384C306.758 392.976 306.054 392.08 304.678 392.08H301.03ZM305.446 400.528H301.03V405.872H305.542C307.046 405.872 307.91 404.592 307.91 403.152C307.91 401.776 306.982 400.528 305.446 400.528ZM325.661 392.08H321.405V398.288H325.533C327.229 398.288 328.317 396.752 328.317 395.184C328.317 393.648 327.293 392.08 325.661 392.08ZM321.405 410H316.701V387.952H325.757C328.125 387.952 329.917 388.656 331.165 390.096C332.413 391.504 333.021 393.2 333.021 395.184C333.021 397.168 332.413 398.864 331.165 400.272C329.917 401.68 328.125 402.384 325.757 402.384H321.405V410ZM352.774 399.024C352.774 397.168 352.134 395.6 350.854 394.288C349.606 392.976 348.07 392.336 346.246 392.336C344.422 392.336 342.886 392.976 341.638 394.288C340.39 395.6 339.75 397.168 339.75 399.024C339.75 400.88 340.39 402.448 341.638 403.76C342.886 405.04 344.422 405.68 346.246 405.68C348.07 405.68 349.606 405.04 350.854 403.728C352.134 402.416 352.774 400.848 352.774 399.024ZM335.078 399.024C335.078 395.888 336.166 393.232 338.31 391.024C340.486 388.816 343.142 387.696 346.246 387.696C349.382 387.696 352.038 388.816 354.182 391.024C356.358 393.232 357.446 395.888 357.446 399.024C357.446 402.128 356.358 404.816 354.182 407.024C352.006 409.232 349.35 410.32 346.246 410.32C343.142 410.32 340.486 409.232 338.31 407.024C336.166 404.816 335.078 402.128 335.078 399.024Z"
        fill="#03659C" />
    <path
        d="M351.002 447.557C361.745 459.021 375.889 462 383 462L235 462L235 427.957L316.16 427.957C334.647 427.957 341.335 437.241 351.002 447.557Z"
        fill="url(#paint2_linear_0_1)" />
    <path
        d="M118.998 447.557C108.255 459.021 94.1107 462 87 462L235 462L235 427.957L153.84 427.957C135.353 427.957 128.665 437.241 118.998 447.557Z"
        fill="url(#paint3_linear_0_1)" />
    <path
        d="M179.42 449H177.215V438.665H183.68V440.6H179.42V442.955H182.795V444.875H179.42V449ZM185.286 449V438.665H187.476V449H185.286ZM194.026 440.6H192.106V443.51H193.966C194.761 443.51 195.271 442.79 195.271 442.055C195.271 441.335 194.791 440.6 194.026 440.6ZM194.986 445.34L197.551 449H194.911L192.601 445.43H192.106V449H189.901V438.665H194.131C195.226 438.665 196.081 438.995 196.666 439.67C197.266 440.33 197.566 441.125 197.566 442.055C197.566 443.63 196.666 444.98 194.986 445.34ZM206.126 449H199.451V438.665H205.991V440.6H201.641V442.955H205.451V444.86H201.641V447.065H206.126V449ZM210.299 449H208.094V438.665H214.559V440.6H210.299V442.955H213.674V444.875H210.299V449ZM222.24 449H216.165V438.665H218.37V447.065H222.24V449ZM223.826 449V438.665H226.016V449H223.826ZM235.116 449H228.441V438.665H234.981V440.6H230.631V442.955H234.441V444.86H230.631V447.065H235.116V449ZM236.411 445.97H238.616C238.661 446.675 239.216 447.215 240.161 447.215C241.061 447.215 241.661 446.78 241.676 446.12C241.691 445.595 241.406 445.235 240.431 444.95L239.186 444.605C237.401 444.05 236.516 443.06 236.516 441.635C236.516 440.72 236.861 439.985 237.536 439.415C238.211 438.83 239.066 438.545 240.071 438.545C241.091 438.545 241.931 438.83 242.576 439.4C243.236 439.97 243.566 440.735 243.566 441.71H241.376C241.376 441.005 240.896 440.54 240.041 440.54C239.261 440.54 238.706 440.975 238.706 441.575C238.706 442.07 239.081 442.415 239.816 442.625L241.046 443.015C242.981 443.57 243.926 444.62 243.881 446.135C243.866 446.78 243.686 447.35 243.311 447.83C242.576 448.775 241.436 449.165 240.161 449.165C239.036 449.165 238.136 448.865 237.446 448.28C236.756 447.68 236.411 446.915 236.411 445.97ZM257.054 443.855C257.054 442.985 256.754 442.25 256.154 441.635C255.569 441.02 254.849 440.72 253.994 440.72C253.139 440.72 252.419 441.02 251.834 441.635C251.249 442.25 250.949 442.985 250.949 443.855C250.949 444.725 251.249 445.46 251.834 446.075C252.419 446.675 253.139 446.975 253.994 446.975C254.849 446.975 255.569 446.675 256.154 446.06C256.754 445.445 257.054 444.71 257.054 443.855ZM248.759 443.855C248.759 442.385 249.269 441.14 250.274 440.105C251.294 439.07 252.539 438.545 253.994 438.545C255.464 438.545 256.709 439.07 257.714 440.105C258.734 441.14 259.244 442.385 259.244 443.855C259.244 445.31 258.734 446.57 257.714 447.605C256.694 448.64 255.449 449.15 253.994 449.15C252.539 449.15 251.294 448.64 250.274 447.605C249.269 446.57 248.759 445.31 248.759 443.855ZM263.282 449H261.077V438.665H267.542V440.6H263.282V442.955H266.657V444.875H263.282V449ZM271.354 449H269.149V438.665H275.614V440.6H271.354V442.955H274.729V444.875H271.354V449ZM283.895 449H277.22V438.665H283.76V440.6H279.41V442.955H283.22V444.86H279.41V447.065H283.895V449ZM289.987 440.6H288.067V443.51H289.927C290.722 443.51 291.232 442.79 291.232 442.055C291.232 441.335 290.752 440.6 289.987 440.6ZM290.947 445.34L293.512 449H290.872L288.562 445.43H288.067V449H285.862V438.665H290.092C291.187 438.665 292.042 438.995 292.627 439.67C293.227 440.33 293.527 441.125 293.527 442.055C293.527 443.63 292.627 444.98 290.947 445.34Z"
        fill="white" />
    <defs>
        <filter id="filter0_d_0_1" x="55" y="349" width="360" height="143" filterUnits="userSpaceOnUse"
            color-interpolation-filters="sRGB">
            <feFlood flood-opacity="0" result="BackgroundImageFix" />
            <feColorMatrix in="SourceAlpha" type="matrix" values="0 0 0 0 0 0 0 0 0 0 0 0 0 0 0 0 0 0 127 0"
                result="hardAlpha" />
            <feOffset dy="10" />
            <feGaussianBlur stdDeviation="10" />
            <feComposite in2="hardAlpha" operator="out" />
            <feColorMatrix type="matrix" values="0 0 0 0 0 0 0 0 0 0 0 0 0 0 0 0 0 0 0.15 0" />
            <feBlend mode="normal" in2="BackgroundImageFix" result="effect1_dropShadow_0_1" />
            <feBlend mode="normal" in="SourceGraphic" in2="effect1_dropShadow_0_1" result="shape" />
        </filter>
        <linearGradient id="paint0_linear_0_1" x1="453" y1="508" x2="2.1665" y2="492.594"
            gradientUnits="userSpaceOnUse">
            <stop stop-color="#03659C" />
            <stop offset="1" stop-color="#13AFB6" />
        </linearGradient>
        <radialGradient id="paint1_radial_0_1" cx="0" cy="0" r="1" gradientUnits="userSpaceOnUse"
            gradientTransform="translate(341.5 90) rotate(56.9519) scale(99.0202)">
            <stop stop-color="#FFAEB2" />
            <stop offset="0.539026" stop-color="#D5484E" />
            <stop offset="0.892787" stop-color="#B81A21" />
        </radialGradient>
        <linearGradient id="paint2_linear_0_1" x1="311.081" y1="462.457" x2="311.081" y2="428.457"
            gradientUnits="userSpaceOnUse">
            <stop stop-color="#13AFB6" />
            <stop offset="1" stop-color="#03659C" />
        </linearGradient>
        <linearGradient id="paint3_linear_0_1" x1="158.919" y1="462.457" x2="158.919" y2="428.457"
            gradientUnits="userSpaceOnUse">
            <stop stop-color="#13AFB6" />
            <stop offset="1" stop-color="#03659C" />
        </linearGradient>
    </defs>
</svg>