<svg width="365" height="390" viewBox="0 0 365 390" fill="none" xmlns="http://www.w3.org/2000/svg">
    <g filter="url(#filter0_d_2007_136)">
        <path
            d="M325 21.7753C336.046 21.7753 345 30.7296 345 41.7753L345 340C345 351.046 336.046 360 325 360L40 360C28.9543 360 20 351.046 20 340L20 41.7753C20 30.7296 28.9543 21.7753 40 21.7753L153.776 21.7753C157.092 21.7753 160.357 20.9507 163.275 19.3757L177.751 11.5632C180.715 9.96347 184.285 9.96347 187.249 11.5633L201.725 19.3757C204.643 20.9507 207.908 21.7753 211.224 21.7753L325 21.7753Z"
            fill="url(#paint0_linear_2007_136)" />
    </g>
    <line opacity="0.5" x1="58" y1="105.5" x2="308" y2="105.5" stroke="white" />
    <line opacity="0.5" x1="58" y1="197.5" x2="308" y2="197.5" stroke="white" />
    <path
        d="M58.516 120.14H64.444L60.976 128H59.068L61.84 121.688H58.516V120.14ZM74.7033 119.732V128H73.1313L70.2513 122.996V128H68.4993V119.732H70.1073L72.9393 124.676V119.732H74.7033ZM76.6439 119.732H78.3959V128H76.6439V119.732ZM87.1993 120.992L85.9033 122.108C85.4073 121.548 84.8033 121.268 84.0913 121.268C83.3953 121.268 82.8073 121.524 82.3273 122.036C81.8553 122.548 81.6193 123.164 81.6193 123.884C81.6193 124.604 81.8593 125.224 82.3393 125.744C82.8193 126.256 83.4033 126.512 84.0913 126.512C84.5713 126.512 85.0233 126.38 85.4473 126.116C85.8713 125.844 86.0873 125.5 86.0953 125.084H83.8753V123.656H88.1233C88.1233 125.152 87.7593 126.272 87.0313 127.016C86.3113 127.752 85.3313 128.12 84.0913 128.12C82.9073 128.12 81.9033 127.708 81.0793 126.884C80.2633 126.052 79.8553 125.052 79.8553 123.884C79.8553 122.708 80.2633 121.708 81.0793 120.884C81.9033 120.052 82.9073 119.636 84.0913 119.636C84.7153 119.636 85.2953 119.756 85.8313 119.996C86.3753 120.236 86.8313 120.568 87.1993 120.992ZM94.0976 119.732H95.8736V128H94.0976V124.676H91.1576V128H89.4056V119.732H91.1576V123.104H94.0976V119.732ZM97.1837 121.316V119.732H103.424V121.316H101.192V128H99.4157V121.316H97.1837ZM104.29 125.576H106.054C106.07 125.856 106.186 126.092 106.402 126.284C106.618 126.476 106.914 126.572 107.29 126.572C107.65 126.572 107.938 126.492 108.154 126.332C108.378 126.172 108.494 125.96 108.502 125.696C108.51 125.488 108.442 125.308 108.298 125.156C108.162 125.004 107.898 124.872 107.506 124.76L106.51 124.484C105.086 124.044 104.374 123.252 104.374 122.108C104.374 121.38 104.646 120.788 105.19 120.332C105.734 119.868 106.41 119.636 107.218 119.636C108.034 119.636 108.702 119.864 109.222 120.32C109.75 120.776 110.014 121.392 110.014 122.168H108.262C108.262 121.888 108.17 121.664 107.986 121.496C107.802 121.32 107.538 121.232 107.194 121.232C106.882 121.232 106.626 121.312 106.426 121.472C106.226 121.624 106.126 121.82 106.126 122.06C106.126 122.452 106.422 122.732 107.014 122.9L107.998 123.212C109.55 123.66 110.306 124.492 110.266 125.708C110.258 126.228 110.106 126.68 109.81 127.064C109.514 127.44 109.146 127.712 108.706 127.88C108.274 128.048 107.802 128.132 107.29 128.132C106.394 128.132 105.67 127.896 105.118 127.424C104.566 126.944 104.29 126.328 104.29 125.576ZM60.52 142.82H61.984V140.372L60.52 142.82ZM64.672 144.236H63.676V146H61.984V144.236H58.228L61.9 138.14H63.676V142.82H64.672V144.236ZM70.8814 142.52H72.5974L71.7214 139.64L70.8814 142.52ZM73.1614 144.044H70.3054L69.5734 146H67.7014L70.7734 137.732H72.6814L75.7414 146H73.8934L73.1614 144.044ZM78.4076 139.328V144.404H79.8956C80.5276 144.404 81.0156 144.164 81.3596 143.684C81.7036 143.204 81.8756 142.604 81.8756 141.884C81.8756 141.156 81.7036 140.548 81.3596 140.06C81.0156 139.572 80.5276 139.328 79.8956 139.328H78.4076ZM79.8956 146H76.6556V137.732H79.8956C81.0556 137.732 81.9676 138.124 82.6316 138.908C83.2956 139.684 83.6276 140.676 83.6276 141.884C83.6276 143.092 83.2956 144.08 82.6316 144.848C81.9676 145.616 81.0556 146 79.8956 146ZM87.264 144.068C87.552 144.332 87.888 144.464 88.272 144.464C88.656 144.464 88.988 144.332 89.268 144.068C89.556 143.796 89.7 143.456 89.7 143.048V137.732H91.464V143.048C91.464 143.96 91.152 144.7 90.528 145.268C89.904 145.836 89.152 146.12 88.272 146.12C87.392 146.12 86.636 145.836 86.004 145.268C85.372 144.7 85.056 143.96 85.056 143.048V137.732H86.844V143.048C86.844 143.464 86.984 143.804 87.264 144.068ZM93.3197 146V137.732H95.0837V144.452H98.1797V146H93.3197ZM98.0977 139.316V137.732H104.338V139.316H102.106V146H100.33V139.316H98.0977ZM105.204 143.576H106.968C106.984 143.856 107.1 144.092 107.316 144.284C107.532 144.476 107.828 144.572 108.204 144.572C108.564 144.572 108.852 144.492 109.068 144.332C109.292 144.172 109.408 143.96 109.416 143.696C109.424 143.488 109.356 143.308 109.212 143.156C109.076 143.004 108.812 142.872 108.42 142.76L107.424 142.484C106 142.044 105.288 141.252 105.288 140.108C105.288 139.38 105.56 138.788 106.104 138.332C106.648 137.868 107.324 137.636 108.132 137.636C108.948 137.636 109.616 137.864 110.136 138.32C110.664 138.776 110.928 139.392 110.928 140.168H109.176C109.176 139.888 109.084 139.664 108.9 139.496C108.716 139.32 108.452 139.232 108.108 139.232C107.796 139.232 107.54 139.312 107.34 139.472C107.14 139.624 107.04 139.82 107.04 140.06C107.04 140.452 107.336 140.732 107.928 140.9L108.912 141.212C110.464 141.66 111.22 142.492 111.18 143.708C111.172 144.228 111.02 144.68 110.724 145.064C110.428 145.44 110.06 145.712 109.62 145.88C109.188 146.048 108.716 146.132 108.204 146.132C107.308 146.132 106.584 145.896 106.032 145.424C105.48 144.944 105.204 144.328 105.204 143.576ZM61.108 160.52H62.824L61.948 157.64L61.108 160.52ZM63.388 162.044H60.532L59.8 164H57.928L61 155.732H62.908L65.968 164H64.12L63.388 162.044ZM66.8822 164V155.732H68.6462V162.452H71.7422V164H66.8822ZM73.0111 164V155.732H74.7751V162.452H77.8711V164H73.0111ZM81.7298 155.732H83.4818V164H81.7298V155.732ZM91.6252 155.732V164H90.0532L87.1732 158.996V164H85.4212V155.732H87.0292L89.8612 160.676V155.732H91.6252ZM99.3018 161.324L100.718 162.308C100.35 162.868 99.8618 163.312 99.2538 163.64C98.6458 163.96 97.9738 164.12 97.2378 164.12C96.0618 164.12 95.0738 163.708 94.2738 162.884C93.4818 162.06 93.0858 161.06 93.0858 159.884C93.0858 158.7 93.4818 157.696 94.2738 156.872C95.0738 156.048 96.0618 155.636 97.2378 155.636C97.9578 155.636 98.6178 155.796 99.2178 156.116C99.8258 156.428 100.314 156.852 100.682 157.388L99.2538 158.372C98.7578 157.652 98.0858 157.292 97.2378 157.292C96.5578 157.292 95.9898 157.544 95.5338 158.048C95.0778 158.544 94.8498 159.156 94.8498 159.884C94.8498 160.604 95.0778 161.216 95.5338 161.72C95.9898 162.216 96.5578 162.464 97.2378 162.464C97.6618 162.464 98.0538 162.36 98.4138 162.152C98.7738 161.944 99.0698 161.668 99.3018 161.324ZM101.956 164V155.732H103.72V162.452H106.816V164H101.956ZM110.104 162.068C110.392 162.332 110.728 162.464 111.112 162.464C111.496 162.464 111.828 162.332 112.108 162.068C112.396 161.796 112.54 161.456 112.54 161.048V155.732H114.304V161.048C114.304 161.96 113.992 162.7 113.368 163.268C112.744 163.836 111.992 164.12 111.112 164.12C110.232 164.12 109.476 163.836 108.844 163.268C108.212 162.7 107.896 161.96 107.896 161.048V155.732H109.684V161.048C109.684 161.464 109.824 161.804 110.104 162.068ZM115.716 161.576H117.48C117.496 161.856 117.612 162.092 117.828 162.284C118.044 162.476 118.34 162.572 118.715 162.572C119.076 162.572 119.364 162.492 119.58 162.332C119.804 162.172 119.92 161.96 119.928 161.696C119.936 161.488 119.868 161.308 119.724 161.156C119.588 161.004 119.324 160.872 118.932 160.76L117.936 160.484C116.512 160.044 115.8 159.252 115.8 158.108C115.8 157.38 116.072 156.788 116.616 156.332C117.16 155.868 117.836 155.636 118.644 155.636C119.46 155.636 120.128 155.864 120.648 156.32C121.176 156.776 121.44 157.392 121.44 158.168H119.688C119.688 157.888 119.596 157.664 119.412 157.496C119.228 157.32 118.964 157.232 118.62 157.232C118.308 157.232 118.052 157.312 117.852 157.472C117.652 157.624 117.552 157.82 117.552 158.06C117.552 158.452 117.848 158.732 118.44 158.9L119.424 159.212C120.976 159.66 121.732 160.492 121.692 161.708C121.684 162.228 121.532 162.68 121.236 163.064C120.94 163.44 120.572 163.712 120.132 163.88C119.7 164.048 119.228 164.132 118.715 164.132C117.82 164.132 117.096 163.896 116.544 163.424C115.992 162.944 115.716 162.328 115.716 161.576ZM123.144 155.732H124.896V164H123.144V155.732ZM126.055 155.732H127.879L129.355 161.156L130.819 155.732H132.655L130.135 164H128.575L126.055 155.732ZM133.82 164V155.732H139.052V157.28H135.572V159.164H138.62V160.688H135.572V162.452H139.16V164H133.82ZM63.724 182H58.612V181.088L61.84 177.26C62.12 176.94 62.26 176.644 62.26 176.372C62.26 176.156 62.172 175.972 61.996 175.82C61.82 175.668 61.58 175.592 61.276 175.592C60.98 175.592 60.732 175.696 60.532 175.904C60.332 176.104 60.208 176.364 60.16 176.684L58.624 176.42C58.744 175.668 59.048 175.076 59.536 174.644C60.024 174.204 60.636 173.984 61.372 173.984C62.084 173.984 62.688 174.208 63.184 174.656C63.688 175.104 63.94 175.676 63.94 176.372C63.94 177.076 63.664 177.74 63.112 178.364L61.3 180.416H63.724V182ZM69.7599 178.964L67.9119 176.396H69.8559L70.6959 177.632L71.5239 176.396H73.4559L71.6079 178.964L73.8039 182H71.8719L70.6839 180.284L69.4839 182H67.5519L69.7599 178.964ZM77.3249 179.576H79.0889C79.1049 179.856 79.2209 180.092 79.4369 180.284C79.6529 180.476 79.9489 180.572 80.3249 180.572C80.6849 180.572 80.9729 180.492 81.1889 180.332C81.4129 180.172 81.5289 179.96 81.5369 179.696C81.5449 179.488 81.4769 179.308 81.3329 179.156C81.1969 179.004 80.9329 178.872 80.5409 178.76L79.5449 178.484C78.1209 178.044 77.4089 177.252 77.4089 176.108C77.4089 175.38 77.6809 174.788 78.2249 174.332C78.7689 173.868 79.4449 173.636 80.2529 173.636C81.0689 173.636 81.7369 173.864 82.2569 174.32C82.7849 174.776 83.0489 175.392 83.0489 176.168H81.2969C81.2969 175.888 81.2049 175.664 81.0209 175.496C80.8369 175.32 80.5729 175.232 80.2289 175.232C79.9169 175.232 79.6609 175.312 79.4609 175.472C79.2609 175.624 79.1609 175.82 79.1609 176.06C79.1609 176.452 79.4569 176.732 80.0489 176.9L81.0329 177.212C82.5849 177.66 83.3409 178.492 83.3009 179.708C83.2929 180.228 83.1409 180.68 82.8449 181.064C82.5489 181.44 82.1809 181.712 81.7409 181.88C81.3089 182.048 80.8369 182.132 80.3249 182.132C79.4289 182.132 78.7049 181.896 78.1529 181.424C77.6009 180.944 77.3249 180.328 77.3249 179.576ZM84.0469 175.316V173.732H90.2869V175.316H88.0549V182H86.2789V175.316H84.0469ZM93.0768 178.52H94.7928L93.9168 175.64L93.0768 178.52ZM95.3568 180.044H92.5008L91.7688 182H89.8967L92.9688 173.732H94.8768L97.9368 182H96.0888L95.3568 180.044ZM105.055 173.732V182H103.483L100.603 176.996V182H98.8509V173.732H100.459L103.291 178.676V173.732H105.055ZM108.747 175.328V180.404H110.235C110.867 180.404 111.355 180.164 111.699 179.684C112.043 179.204 112.215 178.604 112.215 177.884C112.215 177.156 112.043 176.548 111.699 176.06C111.355 175.572 110.867 175.328 110.235 175.328H108.747ZM110.235 182H106.995V173.732H110.235C111.395 173.732 112.307 174.124 112.971 174.908C113.635 175.684 113.967 176.676 113.967 177.884C113.967 179.092 113.635 180.08 112.971 180.848C112.307 181.616 111.395 182 110.235 182ZM117.487 178.52H119.203L118.327 175.64L117.487 178.52ZM119.767 180.044H116.911L116.179 182H114.307L117.379 173.732H119.287L122.347 182H120.499L119.767 180.044ZM126.561 175.28H125.025V177.608H126.513C126.833 177.608 127.085 177.488 127.269 177.248C127.461 177.008 127.557 176.74 127.557 176.444C127.557 176.156 127.465 175.892 127.281 175.652C127.105 175.404 126.865 175.28 126.561 175.28ZM127.329 179.072L129.381 182H127.269L125.421 179.144H125.025V182H123.261V173.732H126.645C127.525 173.732 128.201 174 128.673 174.536C129.153 175.064 129.393 175.7 129.393 176.444C129.393 177.076 129.217 177.636 128.865 178.124C128.513 178.612 128.001 178.928 127.329 179.072ZM132.654 175.328V180.404H134.142C134.774 180.404 135.262 180.164 135.606 179.684C135.95 179.204 136.122 178.604 136.122 177.884C136.122 177.156 135.95 176.548 135.606 176.06C135.262 175.572 134.774 175.328 134.142 175.328H132.654ZM134.142 182H130.902V173.732H134.142C135.302 173.732 136.214 174.124 136.878 174.908C137.542 175.684 137.874 176.676 137.874 177.884C137.874 179.092 137.542 180.08 136.878 180.848C136.214 181.616 135.302 182 134.142 182ZM145.616 175.28H144.08V177.608H145.568C145.888 177.608 146.14 177.488 146.324 177.248C146.516 177.008 146.612 176.74 146.612 176.444C146.612 176.156 146.52 175.892 146.336 175.652C146.16 175.404 145.92 175.28 145.616 175.28ZM146.384 179.072L148.436 182H146.324L144.476 179.144H144.08V182H142.316V173.732H145.7C146.58 173.732 147.256 174 147.728 174.536C148.208 175.064 148.448 175.7 148.448 176.444C148.448 177.076 148.272 177.636 147.92 178.124C147.568 178.612 147.056 178.928 146.384 179.072ZM151.936 176.108C151.464 176.596 151.228 177.188 151.228 177.884C151.228 178.58 151.464 179.172 151.936 179.66C152.408 180.14 152.984 180.38 153.664 180.38C154.344 180.38 154.92 180.136 155.392 179.648C155.872 179.16 156.112 178.572 156.112 177.884C156.112 177.188 155.872 176.596 155.392 176.108C154.92 175.62 154.344 175.376 153.664 175.376C152.984 175.376 152.408 175.62 151.936 176.108ZM149.476 177.884C149.476 176.708 149.88 175.708 150.688 174.884C151.504 174.052 152.496 173.636 153.664 173.636C154.84 173.636 155.832 174.052 156.64 174.884C157.456 175.708 157.864 176.708 157.864 177.884C157.864 179.052 157.456 180.052 156.64 180.884C155.824 181.708 154.832 182.12 153.664 182.12C152.496 182.12 151.504 181.708 150.688 180.884C149.88 180.052 149.476 179.052 149.476 177.884ZM161.311 176.108C160.839 176.596 160.603 177.188 160.603 177.884C160.603 178.58 160.839 179.172 161.311 179.66C161.783 180.14 162.359 180.38 163.039 180.38C163.719 180.38 164.295 180.136 164.767 179.648C165.247 179.16 165.487 178.572 165.487 177.884C165.487 177.188 165.247 176.596 164.767 176.108C164.295 175.62 163.719 175.376 163.039 175.376C162.359 175.376 161.783 175.62 161.311 176.108ZM158.851 177.884C158.851 176.708 159.255 175.708 160.063 174.884C160.879 174.052 161.871 173.636 163.039 173.636C164.215 173.636 165.207 174.052 166.015 174.884C166.831 175.708 167.239 176.708 167.239 177.884C167.239 179.052 166.831 180.052 166.015 180.884C165.199 181.708 164.207 182.12 163.039 182.12C161.871 182.12 160.879 181.708 160.063 180.884C159.255 180.052 158.851 179.052 158.851 177.884ZM173.218 179.06L175.69 173.732H177.166L178.174 182H176.41L175.834 177.044L173.902 181.052H172.546L170.602 177.044L170.014 182H168.25L169.27 173.732H170.722L173.218 179.06Z"
        fill="white" />
    <path
        d="M58.504 66.974V64.598H67.864V66.974H64.516V77H61.852V66.974H58.504ZM73.0151 74.102C73.4471 74.498 73.9511 74.696 74.5271 74.696C75.1031 74.696 75.6011 74.498 76.0211 74.102C76.4531 73.694 76.6691 73.184 76.6691 72.572V64.598H79.3151V72.572C79.3151 73.94 78.8471 75.05 77.9111 75.902C76.9751 76.754 75.8471 77.18 74.5271 77.18C73.2071 77.18 72.0731 76.754 71.1251 75.902C70.1771 75.05 69.7031 73.94 69.7031 72.572V64.598H72.3851V72.572C72.3851 73.196 72.5951 73.706 73.0151 74.102ZM87.0486 66.92H84.7446V70.412H86.9766C87.4566 70.412 87.8346 70.232 88.1106 69.872C88.3986 69.512 88.5426 69.11 88.5426 68.666C88.5426 68.234 88.4046 67.838 88.1286 67.478C87.8646 67.106 87.5046 66.92 87.0486 66.92ZM88.2006 72.608L91.2786 77H88.1106L85.3386 72.716H84.7446V77H82.0986V64.598H87.1746C88.4946 64.598 89.5086 65 90.2166 65.804C90.9366 66.596 91.2966 67.55 91.2966 68.666C91.2966 69.614 91.0326 70.454 90.5046 71.186C89.9766 71.918 89.2086 72.392 88.2006 72.608ZM97.5556 70.736L103.37 77H99.9496L96.2236 72.788V77H93.5596V64.598H96.2236V68.666L99.1576 64.598H102.254L97.5556 70.736ZM104.528 77V64.598H112.376V66.92H107.156V69.746H111.728V72.032H107.156V74.678H112.538V77H104.528ZM120.641 77H117.959V71.384L113.171 64.598H116.303L119.291 69.242L122.315 64.598H125.447L120.641 71.42V77ZM125.503 79.43L123.883 78.818C124.303 78.242 124.645 77.534 124.909 76.694C125.173 75.854 125.299 75.008 125.287 74.156H127.825C127.813 75.404 127.567 76.472 127.087 77.36C126.619 78.248 126.091 78.938 125.503 79.43ZM137.457 71.78H140.031L138.717 67.46L137.457 71.78ZM140.877 74.066H136.593L135.495 77H132.687L137.295 64.598H140.157L144.747 77H141.975L140.877 74.066ZM155.424 64.598V77H153.066L148.746 69.494V77H146.118V64.598H148.53L152.778 72.014V64.598H155.424ZM157.381 66.974V64.598H166.741V66.974H163.393V77H160.729V66.974H157.381ZM170.926 71.78H173.5L172.186 67.46L170.926 71.78ZM174.346 74.066H170.062L168.964 77H166.156L170.764 64.598H173.626L178.216 77H175.444L174.346 74.066ZM179.587 77V64.598H182.233V74.678H186.877V77H179.587ZM193.028 77H190.346V71.384L185.558 64.598H188.69L191.678 69.242L194.702 64.598H197.834L193.028 71.42V77ZM60.508 91.892H63.244L61.876 88.22L60.508 91.892ZM63.628 92.9H60.124L59.32 95H58.132L61.276 86.732H62.476L65.608 95H64.432L63.628 92.9ZM70.3304 91.868L72.5384 95H71.1824L69.0464 91.904H67.9904V95H66.8624V86.732H70.0424C70.8584 86.732 71.4704 86.984 71.8784 87.488C72.2864 87.992 72.4904 88.604 72.4904 89.324C72.4904 89.996 72.3104 90.572 71.9504 91.052C71.5984 91.532 71.0584 91.804 70.3304 91.868ZM70.0064 87.776H67.9904V90.86H69.9584C70.4304 90.86 70.7784 90.712 71.0024 90.416C71.2264 90.12 71.3384 89.756 71.3384 89.324C71.3384 88.9 71.2264 88.536 71.0024 88.232C70.7864 87.928 70.4544 87.776 70.0064 87.776ZM74.2921 86.732H79.1881V87.776H75.4081V90.416H78.7081V91.46H75.4081V93.956H79.3081V95H74.2921V86.732ZM81.5603 92.612C81.5683 92.988 81.7403 93.328 82.0763 93.632C82.4123 93.928 82.8323 94.076 83.3363 94.076C83.8323 94.076 84.2203 93.96 84.5003 93.728C84.7803 93.496 84.9483 93.208 85.0043 92.864C85.0363 92.456 84.9163 92.132 84.6443 91.892C84.3803 91.652 84.0323 91.484 83.6003 91.388L82.5323 91.124C81.1883 90.78 80.5163 90.06 80.5163 88.964C80.5163 88.284 80.7803 87.728 81.3083 87.296C81.8363 86.856 82.4643 86.636 83.1923 86.636C83.9603 86.636 84.5963 86.86 85.1003 87.308C85.6043 87.748 85.8563 88.332 85.8563 89.06H84.7403C84.7403 88.652 84.5923 88.324 84.2963 88.076C84.0083 87.828 83.6363 87.704 83.1803 87.704C82.7643 87.704 82.4003 87.82 82.0883 88.052C81.7843 88.284 81.6323 88.584 81.6323 88.952C81.6323 89.528 82.0243 89.912 82.8083 90.104L83.8883 90.368C84.6723 90.568 85.2563 90.888 85.6403 91.328C86.0243 91.768 86.1763 92.312 86.0963 92.96C86.0243 93.584 85.7403 94.1 85.2443 94.508C84.7563 94.916 84.1203 95.12 83.3363 95.12C82.5123 95.12 81.8243 94.872 81.2723 94.376C80.7203 93.872 80.4443 93.284 80.4443 92.612H81.5603ZM94.1484 95H90.9444V86.732H94.1484C95.2924 86.732 96.1964 87.124 96.8604 87.908C97.5324 88.684 97.8684 89.676 97.8684 90.884C97.8684 92.084 97.5364 93.072 96.8724 93.848C96.2084 94.616 95.3004 95 94.1484 95ZM92.0604 93.956H94.1484C94.9804 93.956 95.6204 93.672 96.0684 93.104C96.5244 92.528 96.7524 91.788 96.7524 90.884C96.7524 89.972 96.5244 89.228 96.0684 88.652C95.6204 88.068 94.9804 87.776 94.1484 87.776H92.0604V93.956ZM103.096 91.868L105.304 95H103.948L101.812 91.904H100.756V95H99.628V86.732H102.808C103.624 86.732 104.236 86.984 104.644 87.488C105.052 87.992 105.256 88.604 105.256 89.324C105.256 89.996 105.076 90.572 104.716 91.052C104.364 91.532 103.824 91.804 103.096 91.868ZM102.772 87.776H100.756V90.86H102.724C103.196 90.86 103.544 90.712 103.768 90.416C103.992 90.12 104.104 89.756 104.104 89.324C104.104 88.9 103.992 88.536 103.768 88.232C103.552 87.928 103.22 87.776 102.772 87.776ZM107.058 86.732H111.954V87.776H108.174V90.416H111.474V91.46H108.174V93.956H112.074V95H107.058V86.732ZM115.223 91.892H117.959L116.591 88.22L115.223 91.892ZM118.343 92.9H114.839L114.035 95H112.847L115.991 86.732H117.191L120.323 95H119.147L118.343 92.9ZM126.053 92.804L128.969 86.732H129.989L130.997 95H129.893L129.137 88.784L126.557 94.088H125.573L122.969 88.784L122.213 95H121.109L122.117 86.732H123.137L126.053 92.804ZM142.138 86.732V95H141.01V91.4H137.014V95H135.898V86.732H137.014V90.38H141.01V86.732H142.138ZM143.854 90.884C143.854 89.7 144.258 88.696 145.066 87.872C145.874 87.048 146.862 86.636 148.03 86.636C149.206 86.636 150.198 87.048 151.006 87.872C151.822 88.696 152.23 89.7 152.23 90.884C152.23 92.06 151.822 93.06 151.006 93.884C150.198 94.708 149.206 95.12 148.03 95.12C146.862 95.12 145.874 94.708 145.066 93.884C144.258 93.06 143.854 92.06 143.854 90.884ZM145.858 88.64C145.266 89.256 144.97 90.004 144.97 90.884C144.97 91.764 145.262 92.512 145.846 93.128C146.438 93.736 147.166 94.04 148.03 94.04C148.894 94.04 149.622 93.736 150.214 93.128C150.806 92.512 151.102 91.764 151.102 90.884C151.102 90.004 150.806 89.256 150.214 88.64C149.622 88.024 148.894 87.716 148.03 87.716C147.174 87.716 146.45 88.024 145.858 88.64ZM152.859 86.732H159.003V87.788H156.495V95H155.367V87.788H152.859V86.732ZM160.472 86.732H165.368V87.776H161.588V90.416H164.888V91.46H161.588V93.956H165.488V95H160.472V86.732ZM167.257 86.732H168.373V93.956H171.745V95H167.257V86.732ZM176.732 90.8L176.012 90.248L177.032 88.988L175.46 88.544L175.616 88.088C175.632 88.04 175.656 87.964 175.688 87.86C175.728 87.756 175.752 87.692 175.76 87.668L177.26 88.256L177.164 86.636H178.112L178.004 88.256C178.14 88.208 178.388 88.112 178.748 87.968C179.108 87.824 179.368 87.724 179.528 87.668L179.804 88.544L178.244 88.964L179.288 90.26L178.544 90.776L177.668 89.444L176.732 90.8ZM182.334 90.8L181.614 90.248L182.634 88.988L181.062 88.544L181.218 88.088C181.234 88.04 181.258 87.964 181.29 87.86C181.33 87.756 181.354 87.692 181.362 87.668L182.862 88.256L182.766 86.636H183.714L183.605 88.256C183.742 88.208 183.99 88.112 184.35 87.968C184.71 87.824 184.97 87.724 185.13 87.668L185.406 88.544L183.846 88.964L184.89 90.26L184.146 90.776L183.27 89.444L182.334 90.8ZM187.935 90.8L187.215 90.248L188.235 88.988L186.663 88.544L186.819 88.088C186.835 88.04 186.859 87.964 186.891 87.86C186.931 87.756 186.955 87.692 186.963 87.668L188.463 88.256L188.367 86.636H189.315L189.207 88.256C189.343 88.208 189.591 88.112 189.951 87.968C190.311 87.824 190.571 87.724 190.731 87.668L191.007 88.544L189.447 88.964L190.491 90.26L189.747 90.776L188.871 89.444L187.935 90.8ZM193.537 90.8L192.817 90.248L193.837 88.988L192.265 88.544L192.421 88.088C192.437 88.04 192.461 87.964 192.493 87.86C192.533 87.756 192.557 87.692 192.565 87.668L194.065 88.256L193.969 86.636H194.917L194.809 88.256C194.945 88.208 195.193 88.112 195.553 87.968C195.913 87.824 196.173 87.724 196.333 87.668L196.609 88.544L195.049 88.964L196.093 90.26L195.349 90.776L194.473 89.444L193.537 90.8Z"
        fill="white" />
    <circle cx="283.471" cy="101.471" r="50.4713" fill="url(#paint1_radial_2007_136)" />
    <path
        d="M309.724 127.26C309.724 125.927 308.804 125.25 307.452 125.25C306.494 125.25 305.367 125.626 304.748 126.603L303.301 125.851L304.316 119.297H311.527V121.701H306.4L306.081 123.692C306.55 123.26 307.302 123.053 308.335 123.053C309.48 123.053 310.438 123.429 311.208 124.161C311.978 124.894 312.353 125.927 312.353 127.26C312.353 128.593 311.884 129.683 310.964 130.528C310.043 131.373 308.804 131.786 307.283 131.786C305.574 131.786 303.884 130.791 302.926 129.307L305.142 127.88C305.611 128.631 306.513 129.157 307.283 129.157C308.691 129.157 309.724 128.293 309.724 127.26Z"
        fill="white" />
    <path
        d="M297.056 122.79L294.765 126.621H297.056V122.79ZM301.263 126.621V128.837H299.704V131.598H297.056V128.837H291.178L296.924 119.297H299.704V126.621H301.263Z"
        fill="white" />
    <path
        d="M289.49 129.119V131.598H281.49V130.171L286.542 124.18C286.974 123.673 287.199 123.222 287.199 122.79C287.199 122.114 286.617 121.57 285.659 121.57C284.739 121.57 284.063 122.283 283.913 123.279L281.509 122.865C281.884 120.518 283.5 119.053 285.809 119.053C286.918 119.053 287.875 119.41 288.645 120.105C289.434 120.8 289.828 121.701 289.828 122.79C289.828 123.898 289.396 124.931 288.533 125.908L285.697 129.119H289.49Z"
        fill="white" />
    <path
        d="M272.652 125.025H271.15V127.302H272.605C273.228 127.302 273.627 126.739 273.627 126.164C273.627 125.6 273.251 125.025 272.652 125.025ZM273.404 128.734L275.411 131.598H273.345L271.537 128.805H271.15V131.598H269.425V123.511H272.735C273.591 123.511 274.26 123.769 274.718 124.297C275.188 124.814 275.422 125.436 275.422 126.164C275.422 127.396 274.718 128.452 273.404 128.734Z"
        fill="white" />
    <path
        d="M265.884 128.711V123.511H267.609V128.711C267.609 129.603 267.304 130.33 266.694 130.882C266.084 131.434 265.344 131.715 264.487 131.715C263.63 131.715 262.891 131.434 262.269 130.882C261.647 130.33 261.342 129.603 261.342 128.711V123.511H263.091V128.711C263.091 129.121 263.231 129.45 263.501 129.708C263.783 129.967 264.112 130.096 264.487 130.096C264.863 130.096 265.192 129.967 265.462 129.708C265.743 129.438 265.884 129.11 265.884 128.711Z"
        fill="white" />
    <path
        d="M259.884 131.598H254.661V123.511H259.779V125.025H256.375V126.868H259.356V128.359H256.375V130.084H259.884V131.598Z"
        fill="white" />
    <path
        d="M305.466 113.601V105.513H310.255V106.535H306.558V109.117H309.786V110.138H306.558V112.579H310.373V113.601H305.466Z"
        fill="white" />
    <path d="M298.101 105.513H299.239L301.07 111.758L302.901 105.513H304.028L301.599 113.601H300.554L298.101 105.513Z"
        fill="white" />
    <path
        d="M294.411 106.969L293.073 110.561H295.749L294.411 106.969ZM296.911 113.601L296.125 111.547H292.697L291.911 113.601H290.749L293.824 105.513H294.998L298.061 113.601H296.911Z"
        fill="white" />
    <path
        d="M284.57 111.265H285.662C285.674 111.629 285.838 111.969 286.167 112.263C286.495 112.556 286.906 112.697 287.399 112.697C288.373 112.697 288.925 112.18 289.031 111.511C289.089 110.713 288.502 110.255 287.657 110.068L286.613 109.809C285.298 109.469 284.641 108.765 284.641 107.697C284.641 107.028 284.899 106.488 285.415 106.065C285.932 105.631 286.542 105.42 287.258 105.42C288.009 105.42 288.631 105.643 289.124 106.077C289.617 106.511 289.864 107.075 289.864 107.791H288.772C288.772 106.992 288.139 106.464 287.246 106.464C286.836 106.464 286.484 106.582 286.178 106.805C285.885 107.028 285.732 107.321 285.732 107.685C285.732 108.248 286.12 108.624 286.883 108.812L287.939 109.07C289.477 109.457 290.251 110.338 290.099 111.605C290.028 112.216 289.747 112.72 289.265 113.119C288.784 113.518 288.162 113.718 287.399 113.718C286.589 113.718 285.92 113.471 285.38 112.99C284.84 112.497 284.57 111.922 284.57 111.265Z"
        fill="white" />
    <path
        d="M278.79 110.819V105.513H279.893V110.819C279.893 111.676 279.599 112.38 279.024 112.92C278.449 113.448 277.757 113.718 276.935 113.718C276.113 113.718 275.409 113.448 274.834 112.92C274.259 112.38 273.977 111.676 273.977 110.819V105.513H275.081V110.819C275.081 111.359 275.257 111.805 275.62 112.145C275.984 112.486 276.419 112.662 276.935 112.662C277.451 112.662 277.886 112.486 278.25 112.145C278.614 111.805 278.79 111.359 278.79 110.819Z"
        fill="white" />
    <path
        d="M264.189 109.575C264.189 108.413 264.588 107.438 265.375 106.628C266.161 105.819 267.135 105.42 268.274 105.42C269.424 105.42 270.398 105.819 271.185 106.628C271.983 107.438 272.382 108.413 272.382 109.575C272.382 110.725 271.983 111.699 271.185 112.509C270.398 113.319 269.424 113.718 268.274 113.718C267.135 113.718 266.161 113.319 265.375 112.509C264.588 111.699 264.189 110.725 264.189 109.575ZM268.274 106.476C267.441 106.476 266.725 106.781 266.149 107.38C265.574 107.978 265.281 108.718 265.281 109.575C265.281 110.431 265.563 111.171 266.138 111.77C266.713 112.368 267.429 112.662 268.274 112.662C269.119 112.662 269.835 112.368 270.41 111.77C270.985 111.171 271.279 110.431 271.279 109.575C271.279 108.718 270.985 107.978 270.41 107.38C269.835 106.781 269.119 106.476 268.274 106.476Z"
        fill="white" />
    <path
        d="M260.974 109.88V113.601H259.847V109.88L256.784 105.513H258.087L260.411 108.788L262.758 105.513H264.073L260.974 109.88Z"
        fill="white" />
    <path
        d="M312.196 73.2392L303.125 91.6906H301.181L310.252 73.2392H312.196ZM301.773 73.042C302.815 73.042 303.689 73.4082 304.421 74.1406C305.182 74.873 305.548 75.7745 305.548 76.8168C305.548 77.8591 305.182 78.7605 304.449 79.4929C303.717 80.1972 302.815 80.5634 301.773 80.5634C300.731 80.5634 299.829 80.1972 299.097 79.4929C298.393 78.7605 298.026 77.8591 298.026 76.8168C298.026 75.7745 298.393 74.873 299.097 74.1406C299.829 73.4082 300.731 73.042 301.773 73.042ZM301.773 78.2816C302.59 78.2816 303.266 77.6337 303.266 76.8168C303.266 75.9998 302.59 75.3238 301.773 75.3238C300.956 75.3238 300.308 75.9998 300.308 76.8168C300.308 77.6337 300.9 78.2816 301.773 78.2816ZM311.745 84.4509C312.787 84.4509 313.661 84.8171 314.393 85.5777C315.154 86.3101 315.52 87.1834 315.52 88.2256C315.52 89.2679 315.154 90.1694 314.421 90.9018C313.689 91.606 312.787 91.9723 311.745 91.9723C310.703 91.9723 309.801 91.606 309.069 90.9018C308.365 90.1694 307.999 89.2679 307.999 88.2256C307.999 87.1834 308.365 86.2819 309.069 85.5495C309.801 84.8171 310.703 84.4509 311.745 84.4509ZM310.28 88.2256C310.28 89.0989 310.872 89.6905 311.745 89.6905C313.041 89.6905 313.773 88.0848 312.787 87.1834C311.886 86.1974 310.28 86.9298 310.28 88.2256Z"
        fill="white" />
    <path d="M282.736 76.8731V73.2392H296.651L288.51 91.6906H284.031L290.539 76.8731H282.736Z" fill="white" />
    <path
        d="M273.931 78.4788L270.494 84.2255H273.931V78.4788ZM280.241 84.2255V87.5496H277.903V91.6906H273.931V87.5496H265.113L273.733 73.2392H277.903V84.2255H280.241Z"
        fill="white" />
    <path d="M262.871 86.3101H252.927V83.2114H262.871V86.3101Z" fill="white" />
    <path fill-rule="evenodd" clip-rule="evenodd"
        d="M256.475 97.9506L311.25 97.9506V99.5156L256.475 99.5156L256.475 97.9506Z" fill="white" />
    <path
        d="M92.406 220.706L96.78 211.598H98.31L99.822 224H98.166L97.032 214.676L93.162 222.632H91.686L87.78 214.676L86.646 224H84.99L86.502 211.598H88.032L92.406 220.706ZM104.567 219.338H108.671L106.619 213.83L104.567 219.338ZM109.247 220.85H103.991L102.785 224H101.003L105.719 211.598H107.519L112.217 224H110.453L109.247 220.85ZM119.3 219.302L122.612 224H120.578L117.374 219.356H115.79V224H114.098V211.598H118.868C120.092 211.598 121.01 211.976 121.622 212.732C122.234 213.488 122.54 214.406 122.54 215.486C122.54 216.494 122.27 217.358 121.73 218.078C121.202 218.798 120.392 219.206 119.3 219.302ZM118.814 213.164H115.79V217.79H118.742C119.45 217.79 119.972 217.568 120.308 217.124C120.644 216.68 120.812 216.134 120.812 215.486C120.812 214.85 120.644 214.304 120.308 213.848C119.984 213.392 119.486 213.164 118.814 213.164ZM128.321 217.79L134.081 224H131.831L126.917 218.708V224H125.243V211.598H126.917V216.962L131.021 211.598H133.091L128.321 217.79ZM135.649 211.598H142.993V213.164H137.323V217.124H142.273V218.69H137.323V222.434H143.173V224H135.649V211.598ZM144.639 211.598H153.855V213.182H150.093V224H148.401V213.182H144.639V211.598ZM160.206 211.598H165.156C166.38 211.598 167.298 211.976 167.91 212.732C168.534 213.488 168.846 214.406 168.846 215.486C168.846 216.566 168.534 217.484 167.91 218.24C167.298 218.984 166.38 219.356 165.156 219.356H161.898V224H160.206V211.598ZM165.138 213.164H161.898V217.79H165.048C165.756 217.79 166.284 217.568 166.632 217.124C166.992 216.668 167.172 216.122 167.172 215.486C167.172 214.85 166.998 214.304 166.65 213.848C166.314 213.392 165.81 213.164 165.138 213.164ZM176.324 219.302L179.636 224H177.602L174.398 219.356H172.814V224H171.122V211.598H175.892C177.116 211.598 178.034 211.976 178.646 212.732C179.258 213.488 179.564 214.406 179.564 215.486C179.564 216.494 179.294 217.358 178.754 218.078C178.226 218.798 177.416 219.206 176.324 219.302ZM175.838 213.164H172.814V217.79H175.766C176.474 217.79 176.996 217.568 177.332 217.124C177.668 216.68 177.836 216.134 177.836 215.486C177.836 214.85 177.668 214.304 177.332 213.848C177.008 213.392 176.51 213.164 175.838 213.164ZM182.266 211.598H183.94V224H182.266V211.598ZM196.239 220.976L197.499 222.038C196.935 222.71 196.245 223.238 195.429 223.622C194.625 223.994 193.749 224.18 192.801 224.18C191.049 224.18 189.561 223.562 188.337 222.326C187.125 221.09 186.519 219.59 186.519 217.826C186.519 216.062 187.125 214.562 188.337 213.326C189.561 212.078 191.049 211.454 192.801 211.454C193.737 211.454 194.607 211.64 195.411 212.012C196.215 212.384 196.899 212.9 197.463 213.56L196.203 214.604C195.267 213.584 194.133 213.074 192.801 213.074C191.505 213.074 190.413 213.536 189.525 214.46C188.637 215.384 188.193 216.506 188.193 217.826C188.193 219.146 188.637 220.268 189.525 221.192C190.413 222.104 191.505 222.56 192.801 222.56C194.193 222.56 195.339 222.032 196.239 220.976ZM199.616 211.598H206.96V213.164H201.29V217.124H206.24V218.69H201.29V222.434H207.14V224H199.616V211.598ZM209.686 223.874C209.458 223.658 209.344 223.388 209.344 223.064C209.344 222.74 209.458 222.47 209.686 222.254C209.926 222.038 210.208 221.93 210.532 221.93C210.856 221.93 211.132 222.038 211.36 222.254C211.588 222.47 211.702 222.74 211.702 223.064C211.702 223.388 211.588 223.658 211.36 223.874C211.132 224.078 210.856 224.18 210.532 224.18C210.208 224.18 209.926 224.078 209.686 223.874ZM209.686 217.34C209.458 217.124 209.344 216.854 209.344 216.53C209.344 216.206 209.458 215.942 209.686 215.738C209.926 215.522 210.208 215.414 210.532 215.414C210.856 215.414 211.132 215.522 211.36 215.738C211.588 215.942 211.702 216.206 211.702 216.53C211.702 216.854 211.588 217.124 211.36 217.34C211.132 217.556 210.856 217.664 210.532 217.664C210.208 217.664 209.926 217.556 209.686 217.34ZM219.303 211.598H226.647V213.164H220.977V217.124H225.927V218.69H220.977V222.434H226.827V224H219.303V211.598ZM231.875 221.768C232.427 222.296 233.099 222.56 233.891 222.56C234.683 222.56 235.355 222.296 235.907 221.768C236.459 221.24 236.735 220.562 236.735 219.734V211.598H238.427V219.734C238.427 221.054 237.983 222.128 237.095 222.956C236.219 223.772 235.151 224.18 233.891 224.18C232.631 224.18 231.557 223.772 230.669 222.956C229.793 222.128 229.355 221.054 229.355 219.734V211.598H231.047V219.734C231.047 220.562 231.323 221.24 231.875 221.768ZM246.882 219.302L250.194 224H248.16L244.956 219.356H243.372V224H241.68V211.598H246.45C247.674 211.598 248.592 211.976 249.204 212.732C249.816 213.488 250.122 214.406 250.122 215.486C250.122 216.494 249.852 217.358 249.312 218.078C248.784 218.798 247.974 219.206 246.882 219.302ZM246.396 213.164H243.372V217.79H246.324C247.032 217.79 247.554 217.568 247.89 217.124C248.226 216.68 248.394 216.134 248.394 215.486C248.394 214.85 248.226 214.304 247.89 213.848C247.566 213.392 247.068 213.164 246.396 213.164ZM256.889 223.28L261.659 217.502C262.235 216.83 262.523 216.188 262.523 215.576C262.523 215.024 262.319 214.58 261.911 214.244C261.515 213.896 261.023 213.722 260.435 213.722C259.895 213.722 259.427 213.89 259.031 214.226C258.635 214.55 258.395 215 258.311 215.576L256.745 215.198C256.901 214.262 257.321 213.512 258.005 212.948C258.689 212.384 259.499 212.102 260.435 212.102C261.479 212.102 262.355 212.426 263.063 213.074C263.771 213.722 264.125 214.556 264.125 215.576C264.125 216.632 263.699 217.646 262.847 218.618C262.295 219.254 261.743 219.902 261.191 220.562C260.651 221.21 260.141 221.816 259.661 222.38H264.143V224H256.889V223.28ZM266.489 218.15C266.489 217.262 266.555 216.476 266.687 215.792C266.819 215.096 267.035 214.46 267.335 213.884C267.647 213.308 268.091 212.87 268.667 212.57C269.243 212.258 269.939 212.102 270.755 212.102C271.583 212.102 272.279 212.258 272.843 212.57C273.419 212.87 273.857 213.308 274.157 213.884C274.469 214.46 274.685 215.09 274.805 215.774C274.937 216.458 275.003 217.25 275.003 218.15C275.003 219.038 274.937 219.824 274.805 220.508C274.685 221.18 274.469 221.804 274.157 222.38C273.857 222.956 273.419 223.4 272.843 223.712C272.267 224.012 271.571 224.162 270.755 224.162C270.095 224.162 269.513 224.06 269.009 223.856C268.517 223.64 268.109 223.358 267.785 223.01C267.473 222.65 267.215 222.212 267.011 221.696C266.819 221.168 266.681 220.622 266.597 220.058C266.525 219.482 266.489 218.846 266.489 218.15ZM268.109 218.15C268.109 219.518 268.301 220.598 268.685 221.39C269.081 222.17 269.771 222.56 270.755 222.56C271.739 222.56 272.423 222.17 272.807 221.39C273.203 220.598 273.401 219.518 273.401 218.15C273.401 216.77 273.203 215.69 272.807 214.91C272.423 214.118 271.739 213.722 270.755 213.722C269.771 213.722 269.081 214.118 268.685 214.91C268.301 215.69 268.109 216.77 268.109 218.15ZM278.863 214.766L277.657 213.812C277.981 213.248 278.449 212.81 279.061 212.498C279.673 212.174 280.339 212.036 281.059 212.084C282.007 212.132 282.787 212.48 283.399 213.128C284.023 213.764 284.323 214.502 284.299 215.342C284.299 215.57 284.263 215.81 284.191 216.062C283.975 216.77 283.549 217.304 282.913 217.664C283.501 217.88 283.969 218.3 284.317 218.924C284.677 219.548 284.827 220.184 284.767 220.832C284.683 221.828 284.215 222.65 283.363 223.298C282.523 223.946 281.557 224.228 280.465 224.144C279.697 224.096 279.001 223.85 278.377 223.406C277.753 222.95 277.285 222.38 276.973 221.696L278.395 220.922C278.587 221.342 278.887 221.708 279.295 222.02C279.703 222.332 280.135 222.506 280.591 222.542H280.573C281.233 222.578 281.815 222.41 282.319 222.038C282.835 221.654 283.105 221.18 283.129 220.616C283.141 220.052 282.919 219.56 282.463 219.14C282.019 218.72 281.485 218.51 280.861 218.51H279.529V216.944H280.861C281.269 216.956 281.623 216.836 281.923 216.584C282.223 216.32 282.409 215.99 282.481 215.594C282.565 215.102 282.499 214.7 282.283 214.388C282.007 213.968 281.551 213.74 280.915 213.704C280.075 213.632 279.391 213.986 278.863 214.766ZM287.02 218.15C287.02 217.262 287.086 216.476 287.218 215.792C287.35 215.096 287.566 214.46 287.866 213.884C288.178 213.308 288.622 212.87 289.198 212.57C289.774 212.258 290.47 212.102 291.286 212.102C292.114 212.102 292.81 212.258 293.374 212.57C293.95 212.87 294.388 213.308 294.688 213.884C295 214.46 295.216 215.09 295.336 215.774C295.468 216.458 295.534 217.25 295.534 218.15C295.534 219.038 295.468 219.824 295.336 220.508C295.216 221.18 295 221.804 294.688 222.38C294.388 222.956 293.95 223.4 293.374 223.712C292.798 224.012 292.102 224.162 291.286 224.162C290.626 224.162 290.044 224.06 289.54 223.856C289.048 223.64 288.64 223.358 288.316 223.01C288.004 222.65 287.746 222.212 287.542 221.696C287.35 221.168 287.212 220.622 287.128 220.058C287.056 219.482 287.02 218.846 287.02 218.15ZM288.64 218.15C288.64 219.518 288.832 220.598 289.216 221.39C289.612 222.17 290.302 222.56 291.286 222.56C292.27 222.56 292.954 222.17 293.338 221.39C293.734 220.598 293.932 219.518 293.932 218.15C293.932 216.77 293.734 215.69 293.338 214.91C292.954 214.118 292.27 213.722 291.286 213.722C290.302 213.722 289.612 214.118 289.216 214.91C288.832 215.69 288.64 216.77 288.64 218.15Z"
        fill="white" />
    <g filter="url(#filter1_d_2007_136)">
        <rect x="58" y="240" width="250" height="80.4688" rx="20" fill="white" />
    </g>
    <path
        d="M92.0488 279.75V263.214H102.513V266.31H95.5528V270.078H101.649V273.126H95.5528V276.654H102.729V279.75H92.0488ZM110.125 275.886C110.701 276.414 111.373 276.678 112.141 276.678C112.909 276.678 113.573 276.414 114.133 275.886C114.709 275.342 114.997 274.662 114.997 273.846V263.214H118.525V273.846C118.525 275.67 117.901 277.15 116.653 278.286C115.405 279.422 113.901 279.99 112.141 279.99C110.381 279.99 108.869 279.422 107.605 278.286C106.341 277.15 105.709 275.67 105.709 273.846V263.214H109.285V273.846C109.285 274.678 109.565 275.358 110.125 275.886ZM128.836 266.31H125.764V270.966H128.74C129.38 270.966 129.884 270.726 130.252 270.246C130.636 269.766 130.828 269.23 130.828 268.638C130.828 268.062 130.644 267.534 130.276 267.054C129.924 266.558 129.444 266.31 128.836 266.31ZM130.372 273.894L134.476 279.75H130.252L126.556 274.038H125.764V279.75H122.236V263.214H129.004C130.764 263.214 132.116 263.75 133.06 264.822C134.02 265.878 134.5 267.15 134.5 268.638C134.5 269.902 134.148 271.022 133.444 271.998C132.74 272.974 131.716 273.606 130.372 273.894ZM149.401 269.622C150.649 269.622 151.761 270.086 152.737 271.014C153.729 271.942 154.225 273.246 154.225 274.926C154.225 276.446 153.697 277.67 152.641 278.598C151.601 279.526 150.225 279.99 148.513 279.99C147.009 279.99 145.729 279.494 144.673 278.502C143.617 277.494 143.017 276.166 142.873 274.518C142.777 273.702 142.753 272.87 142.801 272.022C142.849 271.174 142.929 270.342 143.041 269.526C143.153 268.71 143.369 267.942 143.689 267.222C144.025 266.502 144.417 265.878 144.865 265.35C145.329 264.822 145.937 264.414 146.689 264.126C147.441 263.822 148.289 263.686 149.233 263.718C150.305 263.766 151.249 264.014 152.065 264.462C152.881 264.894 153.553 265.662 154.081 266.766L150.937 268.11C150.537 267.278 149.929 266.862 149.113 266.862C148.393 266.862 147.801 267.102 147.337 267.582C146.873 268.062 146.561 268.63 146.401 269.286C146.257 269.926 146.201 270.63 146.233 271.398C146.361 271.014 146.705 270.622 147.265 270.222C147.825 269.822 148.537 269.622 149.401 269.622ZM150.121 276.198C150.537 275.782 150.745 275.294 150.745 274.734C150.745 274.174 150.537 273.694 150.121 273.294C149.721 272.878 149.241 272.67 148.681 272.67C148.121 272.67 147.633 272.878 147.217 273.294C146.817 273.694 146.617 274.174 146.617 274.734C146.617 275.294 146.817 275.782 147.217 276.198C147.633 276.598 148.121 276.798 148.681 276.798C149.241 276.798 149.721 276.598 150.121 276.198ZM156.527 264.03H168.383L161.447 279.75H157.631L163.175 267.126H156.527V264.03ZM170.083 271.878C170.083 266.438 172.043 263.718 175.963 263.718C177.067 263.718 178.011 263.926 178.795 264.342C179.579 264.758 180.179 265.35 180.595 266.118C181.027 266.886 181.331 267.742 181.507 268.686C181.699 269.614 181.795 270.678 181.795 271.878C181.795 273.078 181.699 274.142 181.507 275.07C181.331 275.982 181.027 276.822 180.595 277.59C180.179 278.358 179.579 278.95 178.795 279.366C178.011 279.782 177.067 279.99 175.963 279.99C172.043 279.99 170.083 277.286 170.083 271.878ZM173.443 271.878C173.443 275.11 174.283 276.726 175.963 276.726C177.611 276.726 178.435 275.11 178.435 271.878C178.435 268.614 177.611 266.982 175.963 266.982C174.283 266.982 173.443 268.614 173.443 271.878ZM196.355 274.71V278.43H193.907V274.71H190.211V272.262H193.907V268.566H196.355V272.262H200.075V274.71H196.355ZM212.145 273.39H215.073V268.494L212.145 273.39ZM220.449 276.222H218.457V279.75H215.073V276.222H207.561L214.905 264.03H218.457V273.39H220.449V276.222ZM240.866 267.822C240.866 268.446 240.682 269.046 240.314 269.622C239.962 270.182 239.394 270.614 238.61 270.918C239.618 271.174 240.386 271.678 240.914 272.43C241.458 273.166 241.73 273.918 241.73 274.686C241.73 276.11 241.25 277.31 240.29 278.286C239.33 279.262 238.05 279.75 236.45 279.75H229.346V263.214H235.97C237.458 263.214 238.642 263.63 239.522 264.462C240.418 265.294 240.866 266.414 240.866 267.822ZM232.874 269.742H235.634C236.082 269.742 236.45 269.582 236.738 269.262C237.026 268.942 237.17 268.534 237.17 268.038C237.17 267.51 237.034 267.094 236.762 266.79C236.506 266.47 236.122 266.31 235.61 266.31H232.874V269.742ZM236.186 272.646H232.874V276.654H236.258C236.818 276.654 237.25 276.454 237.554 276.054C237.874 275.638 238.034 275.158 238.034 274.614C238.034 274.102 237.866 273.646 237.53 273.246C237.21 272.846 236.762 272.646 236.186 272.646ZM251.347 266.31H248.155V270.966H251.251C251.891 270.966 252.395 270.726 252.763 270.246C253.147 269.766 253.339 269.23 253.339 268.638C253.339 268.062 253.155 267.534 252.787 267.054C252.435 266.558 251.955 266.31 251.347 266.31ZM244.627 279.75V263.214H251.419C253.195 263.214 254.547 263.75 255.475 264.822C256.403 265.878 256.867 267.15 256.867 268.638C256.867 270.126 256.403 271.398 255.475 272.454C254.547 273.51 253.195 274.038 251.419 274.038H248.155V279.75H244.627ZM263.329 267.966C262.385 268.942 261.913 270.126 261.913 271.518C261.913 272.91 262.385 274.094 263.329 275.07C264.273 276.03 265.425 276.51 266.785 276.51C268.145 276.51 269.297 276.022 270.241 275.046C271.201 274.07 271.681 272.894 271.681 271.518C271.681 270.126 271.201 268.942 270.241 267.966C269.297 266.99 268.145 266.502 266.785 266.502C265.425 266.502 264.273 266.99 263.329 267.966ZM258.409 271.518C258.409 269.166 259.217 267.166 260.833 265.518C262.465 263.854 264.449 263.022 266.785 263.022C269.137 263.022 271.121 263.854 272.737 265.518C274.369 267.166 275.185 269.166 275.185 271.518C275.185 273.854 274.369 275.854 272.737 277.518C271.105 279.166 269.121 279.99 266.785 279.99C264.449 279.99 262.465 279.166 260.833 277.518C259.217 275.854 258.409 273.854 258.409 271.518Z"
        fill="#03659C" />
    <path
        d="M273.627 309.184C282.019 318.14 293.07 320.467 298.625 320.467L183 320.467L183 293.871L246.406 293.871C260.85 293.871 266.074 301.124 273.627 309.184Z"
        fill="url(#paint2_linear_2007_136)" />
    <path
        d="M92.3735 309.184C83.9807 318.14 72.9302 320.467 67.375 320.467L183 320.467L183 293.871L119.594 293.871C105.15 293.871 99.9261 301.124 92.3735 309.184Z"
        fill="url(#paint3_linear_2007_136)" />
    <path
        d="M138.957 312H137.193V303.732H142.365V305.28H138.957V307.164H141.657V308.7H138.957V312ZM143.65 312V303.732H145.402V312H143.65ZM150.641 305.28H149.105V307.608H150.593C151.229 307.608 151.637 307.032 151.637 306.444C151.637 305.868 151.253 305.28 150.641 305.28ZM151.409 309.072L153.461 312H151.349L149.501 309.144H149.105V312H147.341V303.732H150.725C151.601 303.732 152.285 303.996 152.753 304.536C153.233 305.064 153.473 305.7 153.473 306.444C153.473 307.704 152.753 308.784 151.409 309.072ZM160.322 312H154.982V303.732H160.214V305.28H156.734V307.164H159.782V308.688H156.734V310.452H160.322V312ZM163.66 312H161.896V303.732H167.068V305.28H163.66V307.164H166.36V308.7H163.66V312ZM173.213 312H168.353V303.732H170.117V310.452H173.213V312ZM174.482 312V303.732H176.234V312H174.482ZM183.513 312H178.173V303.732H183.405V305.28H179.925V307.164H182.973V308.688H179.925V310.452H183.513V312ZM184.549 309.576H186.313C186.349 310.14 186.793 310.572 187.549 310.572C188.269 310.572 188.749 310.224 188.761 309.696C188.773 309.276 188.545 308.988 187.765 308.76L186.769 308.484C185.341 308.04 184.633 307.248 184.633 306.108C184.633 305.376 184.909 304.788 185.449 304.332C185.989 303.864 186.673 303.636 187.477 303.636C188.293 303.636 188.965 303.864 189.481 304.32C190.009 304.776 190.273 305.388 190.273 306.168H188.521C188.521 305.604 188.137 305.232 187.453 305.232C186.829 305.232 186.385 305.58 186.385 306.06C186.385 306.456 186.685 306.732 187.273 306.9L188.257 307.212C189.805 307.656 190.561 308.496 190.525 309.708C190.513 310.224 190.369 310.68 190.069 311.064C189.481 311.82 188.569 312.132 187.549 312.132C186.649 312.132 185.929 311.892 185.377 311.424C184.825 310.944 184.549 310.332 184.549 309.576ZM201.064 307.884C201.064 307.188 200.824 306.6 200.344 306.108C199.876 305.616 199.3 305.376 198.616 305.376C197.932 305.376 197.356 305.616 196.888 306.108C196.42 306.6 196.18 307.188 196.18 307.884C196.18 308.58 196.42 309.168 196.888 309.66C197.356 310.14 197.932 310.38 198.616 310.38C199.3 310.38 199.876 310.14 200.344 309.648C200.824 309.156 201.064 308.568 201.064 307.884ZM194.428 307.884C194.428 306.708 194.836 305.712 195.64 304.884C196.456 304.056 197.452 303.636 198.616 303.636C199.792 303.636 200.788 304.056 201.592 304.884C202.408 305.712 202.816 306.708 202.816 307.884C202.816 309.048 202.408 310.056 201.592 310.884C200.776 311.712 199.78 312.12 198.616 312.12C197.452 312.12 196.456 311.712 195.64 310.884C194.836 310.056 194.428 309.048 194.428 307.884ZM206.047 312H204.283V303.732H209.455V305.28H206.047V307.164H208.747V308.7H206.047V312ZM212.504 312H210.74V303.732H215.912V305.28H212.504V307.164H215.204V308.7H212.504V312ZM222.537 312H217.197V303.732H222.429V305.28H218.949V307.164H221.997V308.688H218.949V310.452H222.537V312ZM227.411 305.28H225.875V307.608H227.363C227.999 307.608 228.407 307.032 228.407 306.444C228.407 305.868 228.023 305.28 227.411 305.28ZM228.179 309.072L230.231 312H228.119L226.271 309.144H225.875V312H224.111V303.732H227.495C228.371 303.732 229.055 303.996 229.523 304.536C230.003 305.064 230.243 305.7 230.243 306.444C230.243 307.704 229.523 308.784 228.179 309.072Z"
        fill="white" />
    <circle cx="282.47" cy="101.47" r="50.47" fill="url(#paint4_radial_2007_136)" />
    <path
        d="M254.145 129.598V121.33H259.377V122.878H255.897V124.762H258.945V126.286H255.897V128.05H259.485V129.598H254.145ZM263.183 127.666C263.471 127.93 263.807 128.062 264.191 128.062C264.575 128.062 264.907 127.93 265.187 127.666C265.475 127.394 265.619 127.054 265.619 126.646V121.33H267.383V126.646C267.383 127.558 267.071 128.298 266.447 128.866C265.823 129.434 265.071 129.718 264.191 129.718C263.311 129.718 262.555 129.434 261.923 128.866C261.291 128.298 260.975 127.558 260.975 126.646V121.33H262.763V126.646C262.763 127.062 262.903 127.402 263.183 127.666ZM272.539 122.878H271.003V125.206H272.491C272.811 125.206 273.063 125.086 273.247 124.846C273.439 124.606 273.535 124.338 273.535 124.042C273.535 123.754 273.443 123.49 273.259 123.25C273.083 123.002 272.843 122.878 272.539 122.878ZM273.307 126.67L275.359 129.598H273.247L271.399 126.742H271.003V129.598H269.239V121.33H272.623C273.503 121.33 274.179 121.598 274.651 122.134C275.131 122.662 275.371 123.298 275.371 124.042C275.371 124.674 275.195 125.234 274.843 125.722C274.491 126.21 273.979 126.526 273.307 126.67ZM284.47 118.974V129.598H282.23V122.094L280.438 122.862V120.894L284.47 118.974ZM293.477 129.598H286.661V128.382L290.965 123.278C291.338 122.851 291.525 122.457 291.525 122.094C291.525 121.806 291.408 121.561 291.173 121.358C290.938 121.155 290.618 121.054 290.213 121.054C289.818 121.054 289.488 121.193 289.221 121.47C288.954 121.737 288.789 122.083 288.725 122.51L286.677 122.158C286.837 121.155 287.242 120.366 287.893 119.79C288.544 119.203 289.36 118.91 290.341 118.91C291.29 118.91 292.096 119.209 292.757 119.806C293.429 120.403 293.765 121.166 293.765 122.094C293.765 123.033 293.397 123.918 292.661 124.75L290.245 127.486H293.477V129.598ZM297.971 125.358H299.923V122.094L297.971 125.358ZM303.507 127.246H302.179V129.598H299.923V127.246H294.915L299.811 119.118H302.179V125.358H303.507V127.246ZM305.772 121.838C305.772 121.027 306.086 120.339 306.716 119.774C307.356 119.198 308.118 118.91 309.004 118.91C309.889 118.91 310.652 119.198 311.292 119.774C311.932 120.339 312.252 121.027 312.252 121.838C312.252 122.553 311.996 123.139 311.484 123.598C311.942 123.865 312.305 124.233 312.572 124.702C312.849 125.161 312.988 125.673 312.988 126.238C312.988 127.23 312.598 128.067 311.82 128.75C311.052 129.422 310.113 129.758 309.004 129.758C307.894 129.758 306.95 129.422 306.172 128.75C305.404 128.067 305.02 127.23 305.02 126.238C305.02 125.673 305.153 125.161 305.42 124.702C305.686 124.233 306.054 123.865 306.524 123.598C306.022 123.118 305.772 122.531 305.772 121.838ZM307.26 126.126C307.26 126.563 307.43 126.931 307.772 127.23C308.124 127.529 308.534 127.678 309.004 127.678C309.473 127.678 309.878 127.529 310.22 127.23C310.572 126.931 310.748 126.563 310.748 126.126C310.748 125.699 310.593 125.331 310.284 125.022C309.974 124.713 309.542 124.558 308.988 124.558C308.444 124.558 308.017 124.713 307.708 125.022C307.409 125.331 307.26 125.699 307.26 126.126ZM307.932 121.902C307.932 122.19 308.022 122.43 308.204 122.622C308.396 122.814 308.662 122.91 309.004 122.91C309.345 122.91 309.606 122.814 309.788 122.622C309.98 122.43 310.076 122.19 310.076 121.902C310.076 121.635 309.98 121.406 309.788 121.214C309.596 121.022 309.334 120.926 309.004 120.926C308.673 120.926 308.412 121.022 308.22 121.214C308.028 121.406 307.932 121.635 307.932 121.902Z"
        fill="white" />
    <path
        d="M261.411 113.643H260.355V110.156L257.484 106.064H258.705L260.883 109.133L263.083 106.064H264.315L261.411 110.156V113.643ZM264.424 109.87C264.424 108.785 264.795 107.864 265.535 107.109C266.276 106.354 267.182 105.976 268.252 105.976C269.33 105.976 270.24 106.354 270.98 107.109C271.728 107.864 272.102 108.785 272.102 109.87C272.102 110.948 271.728 111.865 270.98 112.62C270.24 113.375 269.33 113.753 268.252 113.753C267.182 113.753 266.276 113.375 265.535 112.62C264.795 111.865 264.424 110.948 264.424 109.87ZM266.261 107.813C265.719 108.378 265.447 109.063 265.447 109.87C265.447 110.677 265.715 111.362 266.25 111.927C266.793 112.484 267.46 112.763 268.252 112.763C269.044 112.763 269.712 112.484 270.254 111.927C270.797 111.362 271.068 110.677 271.068 109.87C271.068 109.063 270.797 108.378 270.254 107.813C269.712 107.248 269.044 106.966 268.252 106.966C267.468 106.966 266.804 107.248 266.261 107.813ZM275.137 112.279C275.474 112.602 275.885 112.763 276.369 112.763C276.853 112.763 277.264 112.602 277.601 112.279C277.938 111.956 278.107 111.542 278.107 111.036V106.064H279.141V111.036C279.141 111.843 278.87 112.499 278.327 113.005C277.792 113.504 277.139 113.753 276.369 113.753C275.599 113.753 274.943 113.504 274.4 113.005C273.865 112.499 273.597 111.843 273.597 111.036V106.064H274.631V111.036C274.631 111.542 274.8 111.956 275.137 112.279ZM284.548 111.454C284.555 111.799 284.713 112.11 285.021 112.389C285.329 112.66 285.714 112.796 286.176 112.796C286.63 112.796 286.986 112.69 287.243 112.477C287.499 112.264 287.653 112 287.705 111.685C287.734 111.311 287.624 111.014 287.375 110.794C287.133 110.574 286.814 110.42 286.418 110.332L285.439 110.09C284.207 109.775 283.591 109.115 283.591 108.11C283.591 107.487 283.833 106.977 284.317 106.581C284.801 106.178 285.376 105.976 286.044 105.976C286.748 105.976 287.331 106.181 287.793 106.592C288.255 106.995 288.486 107.531 288.486 108.198H287.463C287.463 107.824 287.327 107.523 287.056 107.296C286.792 107.069 286.451 106.955 286.033 106.955C285.651 106.955 285.318 107.061 285.032 107.274C284.753 107.487 284.614 107.762 284.614 108.099C284.614 108.627 284.973 108.979 285.692 109.155L286.682 109.397C287.4 109.58 287.936 109.874 288.288 110.277C288.64 110.68 288.779 111.179 288.706 111.773C288.64 112.345 288.379 112.818 287.925 113.192C287.477 113.566 286.894 113.753 286.176 113.753C285.42 113.753 284.79 113.526 284.284 113.071C283.778 112.609 283.525 112.07 283.525 111.454H284.548ZM291.493 110.794H294.001L292.747 107.428L291.493 110.794ZM294.353 111.718H291.141L290.404 113.643H289.315L292.197 106.064H293.297L296.168 113.643H295.09L294.353 111.718ZM297.272 106.064L298.988 111.916L300.704 106.064H301.76L299.483 113.643H298.504L296.205 106.064H297.272ZM303.108 106.064H307.596V107.021H304.131V109.441H307.156V110.398H304.131V112.686H307.706V113.643H303.108V106.064Z"
        fill="white" />
    <path
        d="M253.915 86.1185V83.2585H263.093V86.1185H253.915ZM273.301 80.1125C274.653 80.1125 275.858 80.6151 276.915 81.6205C277.99 82.6258 278.527 84.0385 278.527 85.8585C278.527 87.5051 277.955 88.8311 276.811 89.8365C275.684 90.8418 274.194 91.3445 272.339 91.3445C270.71 91.3445 269.323 90.8071 268.179 89.7325C267.035 88.6405 266.385 87.2018 266.229 85.4165C266.125 84.5325 266.099 83.6311 266.151 82.7125C266.203 81.7938 266.29 80.8925 266.411 80.0085C266.532 79.1245 266.766 78.2925 267.113 77.5125C267.477 76.7325 267.902 76.0565 268.387 75.4845C268.89 74.9125 269.548 74.4705 270.363 74.1585C271.178 73.8291 272.096 73.6818 273.119 73.7165C274.28 73.7685 275.303 74.0371 276.187 74.5225C277.071 74.9905 277.799 75.8225 278.371 77.0185L274.965 78.4745C274.532 77.5731 273.873 77.1225 272.989 77.1225C272.209 77.1225 271.568 77.3825 271.065 77.9025C270.562 78.4225 270.224 79.0378 270.051 79.7485C269.895 80.4418 269.834 81.2045 269.869 82.0365C270.008 81.6205 270.38 81.1958 270.987 80.7625C271.594 80.3291 272.365 80.1125 273.301 80.1125ZM274.081 87.2365C274.532 86.7858 274.757 86.2571 274.757 85.6505C274.757 85.0438 274.532 84.5238 274.081 84.0905C273.648 83.6398 273.128 83.4145 272.521 83.4145C271.914 83.4145 271.386 83.6398 270.935 84.0905C270.502 84.5238 270.285 85.0438 270.285 85.6505C270.285 86.2571 270.502 86.7858 270.935 87.2365C271.386 87.6698 271.914 87.8865 272.521 87.8865C273.128 87.8865 273.648 87.6698 274.081 87.2365ZM282.399 78.4745C282.399 77.1571 282.911 76.0391 283.933 75.1205C284.973 74.1845 286.213 73.7165 287.651 73.7165C289.09 73.7165 290.329 74.1845 291.369 75.1205C292.409 76.0391 292.929 77.1571 292.929 78.4745C292.929 79.6358 292.513 80.5891 291.681 81.3345C292.427 81.7678 293.016 82.3658 293.449 83.1285C293.9 83.8738 294.125 84.7058 294.125 85.6245C294.125 87.2365 293.493 88.5971 292.227 89.7065C290.979 90.7985 289.454 91.3445 287.651 91.3445C285.849 91.3445 284.315 90.7985 283.049 89.7065C281.801 88.5971 281.177 87.2365 281.177 85.6245C281.177 84.7058 281.394 83.8738 281.827 83.1285C282.261 82.3658 282.859 81.7678 283.621 81.3345C282.807 80.5545 282.399 79.6011 282.399 78.4745ZM284.817 85.4425C284.817 86.1531 285.095 86.7511 285.649 87.2365C286.221 87.7218 286.889 87.9645 287.651 87.9645C288.414 87.9645 289.073 87.7218 289.627 87.2365C290.199 86.7511 290.485 86.1531 290.485 85.4425C290.485 84.7491 290.234 84.1511 289.731 83.6485C289.229 83.1458 288.527 82.8945 287.625 82.8945C286.741 82.8945 286.048 83.1458 285.545 83.6485C285.06 84.1511 284.817 84.7491 284.817 85.4425ZM285.909 78.5785C285.909 79.0465 286.057 79.4365 286.351 79.7485C286.663 80.0605 287.097 80.2165 287.651 80.2165C288.206 80.2165 288.631 80.0605 288.925 79.7485C289.237 79.4365 289.393 79.0465 289.393 78.5785C289.393 78.1451 289.237 77.7725 288.925 77.4605C288.613 77.1485 288.189 76.9925 287.651 76.9925C287.114 76.9925 286.689 77.1485 286.377 77.4605C286.065 77.7725 285.909 78.1451 285.909 78.5785ZM309.406 74.0545H307.612L299.24 91.0845H301.034L309.406 74.0545ZM297.316 79.8265C296.657 79.1505 296.328 78.3271 296.328 77.3565C296.328 76.3858 296.657 75.5625 297.316 74.8865C297.992 74.2105 298.815 73.8725 299.786 73.8725C300.739 73.8725 301.554 74.2105 302.23 74.8865C302.923 75.5625 303.27 76.3858 303.27 77.3565C303.27 78.3271 302.932 79.1505 302.256 79.8265C301.58 80.4851 300.756 80.8145 299.786 80.8145C298.815 80.8145 297.992 80.4851 297.316 79.8265ZM298.824 76.3945C298.564 76.6545 298.434 76.9751 298.434 77.3565C298.434 77.7378 298.555 78.0585 298.798 78.3185C299.058 78.5785 299.387 78.7085 299.786 78.7085C300.167 78.7085 300.488 78.5785 300.748 78.3185C301.025 78.0585 301.164 77.7378 301.164 77.3565C301.164 76.9751 301.025 76.6545 300.748 76.3945C300.488 76.1171 300.167 75.9785 299.786 75.9785C299.404 75.9785 299.084 76.1171 298.824 76.3945ZM306.52 90.3565C305.861 89.6805 305.532 88.8571 305.532 87.8865C305.532 86.9158 305.861 86.0925 306.52 85.4165C307.196 84.7405 308.019 84.4025 308.99 84.4025C309.943 84.4025 310.758 84.7491 311.434 85.4425C312.127 86.1185 312.474 86.9331 312.474 87.8865C312.474 88.8571 312.136 89.6805 311.46 90.3565C310.784 91.0151 309.96 91.3445 308.99 91.3445C308.019 91.3445 307.196 91.0151 306.52 90.3565ZM307.638 87.8865C307.638 88.2851 307.759 88.6145 308.002 88.8745C308.262 89.1171 308.591 89.2385 308.99 89.2385C309.371 89.2385 309.692 89.1085 309.952 88.8485C310.229 88.5885 310.368 88.2678 310.368 87.8865C310.368 87.5051 310.229 87.1845 309.952 86.9245C309.692 86.6471 309.371 86.5085 308.99 86.5085C308.608 86.5085 308.288 86.6471 308.028 86.9245C307.768 87.1845 307.638 87.5051 307.638 87.8865Z"
        fill="white" />
    <line x1="311.248" y1="98.9487" x2="256.474" y2="98.9487" stroke="white" stroke-width="2" />
    <defs>
        <filter id="filter0_d_2007_136" x="0" y="0.363281" width="365" height="389.637" filterUnits="userSpaceOnUse"
            color-interpolation-filters="sRGB">
            <feFlood flood-opacity="0" result="BackgroundImageFix" />
            <feColorMatrix in="SourceAlpha" type="matrix" values="0 0 0 0 0 0 0 0 0 0 0 0 0 0 0 0 0 0 127 0"
                result="hardAlpha" />
            <feOffset dy="10" />
            <feGaussianBlur stdDeviation="10" />
            <feComposite in2="hardAlpha" operator="out" />
            <feColorMatrix type="matrix" values="0 0 0 0 0 0 0 0 0 0 0 0 0 0 0 0 0 0 0.15 0" />
            <feBlend mode="normal" in2="BackgroundImageFix" result="effect1_dropShadow_2007_136" />
            <feBlend mode="normal" in="SourceGraphic" in2="effect1_dropShadow_2007_136" result="shape" />
        </filter>
        <filter id="filter1_d_2007_136" x="38" y="230" width="290" height="120.469" filterUnits="userSpaceOnUse"
            color-interpolation-filters="sRGB">
            <feFlood flood-opacity="0" result="BackgroundImageFix" />
            <feColorMatrix in="SourceAlpha" type="matrix" values="0 0 0 0 0 0 0 0 0 0 0 0 0 0 0 0 0 0 127 0"
                result="hardAlpha" />
            <feOffset dy="10" />
            <feGaussianBlur stdDeviation="10" />
            <feComposite in2="hardAlpha" operator="out" />
            <feColorMatrix type="matrix" values="0 0 0 0 0 0 0 0 0 0 0 0 0 0 0 0 0 0 0.15 0" />
            <feBlend mode="normal" in2="BackgroundImageFix" result="effect1_dropShadow_2007_136" />
            <feBlend mode="normal" in="SourceGraphic" in2="effect1_dropShadow_2007_136" result="shape" />
        </filter>
        <linearGradient id="paint0_linear_2007_136" x1="19.9999" y1="299" x2="29.8257" y2="11.0216"
            gradientUnits="userSpaceOnUse">
            <stop stop-color="#03659C" />
            <stop offset="1" stop-color="#13AFB6" />
        </linearGradient>
        <radialGradient id="paint1_radial_2007_136" cx="0" cy="0" r="1" gradientUnits="userSpaceOnUse"
            gradientTransform="translate(258.431 69.78) rotate(56.9519) scale(77.4834)">
            <stop stop-color="#FFAEB2" />
            <stop offset="0.539026" stop-color="#D5484E" />
            <stop offset="0.892787" stop-color="#B81A21" />
        </radialGradient>
        <linearGradient id="paint2_linear_2007_136" x1="242.439" y1="320.824" x2="242.439" y2="294.262"
            gradientUnits="userSpaceOnUse">
            <stop stop-color="#13AFB6" />
            <stop offset="1" stop-color="#03659C" />
        </linearGradient>
        <linearGradient id="paint3_linear_2007_136" x1="123.562" y1="320.824" x2="123.562" y2="294.262"
            gradientUnits="userSpaceOnUse">
            <stop stop-color="#13AFB6" />
            <stop offset="1" stop-color="#03659C" />
        </linearGradient>
        <radialGradient id="paint4_radial_2007_136" cx="0" cy="0" r="1" gradientUnits="userSpaceOnUse"
            gradientTransform="translate(257.431 69.7795) rotate(56.9519) scale(77.4814)">
            <stop stop-color="#FFAEB2" />
            <stop offset="0.539026" stop-color="#D5484E" />
            <stop offset="0.892787" stop-color="#B81A21" />
        </radialGradient>
    </defs>
</svg>