<svg width="365" height="390" viewBox="0 0 365 390" fill="none" xmlns="http://www.w3.org/2000/svg">
    <g filter="url(#filter0_d_2007_108)">
        <path
            d="M325 21.7753C336.046 21.7753 345 30.7296 345 41.7753L345 340C345 351.046 336.046 360 325 360L40 360C28.9543 360 20 351.046 20 340L20 41.7753C20 30.7296 28.9543 21.7753 40 21.7753L153.776 21.7753C157.092 21.7753 160.357 20.9507 163.275 19.3757L177.751 11.5632C180.715 9.96347 184.285 9.96347 187.249 11.5633L201.725 19.3757C204.643 20.9507 207.908 21.7753 211.224 21.7753L325 21.7753Z"
            fill="url(#paint0_linear_2007_108)" />
    </g>
    <line opacity="0.5" x1="58" y1="105.5" x2="308" y2="105.5" stroke="white" />
    <line opacity="0.5" x1="58" y1="197.5" x2="308" y2="197.5" stroke="white" />
    <path
        d="M58.516 120.14H64.444L60.976 128H59.068L61.84 121.688H58.516V120.14ZM74.7033 119.732V128H73.1313L70.2513 122.996V128H68.4993V119.732H70.1073L72.9393 124.676V119.732H74.7033ZM76.6439 119.732H78.3959V128H76.6439V119.732ZM87.1993 120.992L85.9033 122.108C85.4073 121.548 84.8033 121.268 84.0913 121.268C83.3953 121.268 82.8073 121.524 82.3273 122.036C81.8553 122.548 81.6193 123.164 81.6193 123.884C81.6193 124.604 81.8593 125.224 82.3393 125.744C82.8193 126.256 83.4033 126.512 84.0913 126.512C84.5713 126.512 85.0233 126.38 85.4473 126.116C85.8713 125.844 86.0873 125.5 86.0953 125.084H83.8753V123.656H88.1233C88.1233 125.152 87.7593 126.272 87.0313 127.016C86.3113 127.752 85.3313 128.12 84.0913 128.12C82.9073 128.12 81.9033 127.708 81.0793 126.884C80.2633 126.052 79.8553 125.052 79.8553 123.884C79.8553 122.708 80.2633 121.708 81.0793 120.884C81.9033 120.052 82.9073 119.636 84.0913 119.636C84.7153 119.636 85.2953 119.756 85.8313 119.996C86.3753 120.236 86.8313 120.568 87.1993 120.992ZM94.0976 119.732H95.8736V128H94.0976V124.676H91.1576V128H89.4056V119.732H91.1576V123.104H94.0976V119.732ZM97.1837 121.316V119.732H103.424V121.316H101.192V128H99.4157V121.316H97.1837ZM104.29 125.576H106.054C106.07 125.856 106.186 126.092 106.402 126.284C106.618 126.476 106.914 126.572 107.29 126.572C107.65 126.572 107.938 126.492 108.154 126.332C108.378 126.172 108.494 125.96 108.502 125.696C108.51 125.488 108.442 125.308 108.298 125.156C108.162 125.004 107.898 124.872 107.506 124.76L106.51 124.484C105.086 124.044 104.374 123.252 104.374 122.108C104.374 121.38 104.646 120.788 105.19 120.332C105.734 119.868 106.41 119.636 107.218 119.636C108.034 119.636 108.702 119.864 109.222 120.32C109.75 120.776 110.014 121.392 110.014 122.168H108.262C108.262 121.888 108.17 121.664 107.986 121.496C107.802 121.32 107.538 121.232 107.194 121.232C106.882 121.232 106.626 121.312 106.426 121.472C106.226 121.624 106.126 121.82 106.126 122.06C106.126 122.452 106.422 122.732 107.014 122.9L107.998 123.212C109.55 123.66 110.306 124.492 110.266 125.708C110.258 126.228 110.106 126.68 109.81 127.064C109.514 127.44 109.146 127.712 108.706 127.88C108.274 128.048 107.802 128.132 107.29 128.132C106.394 128.132 105.67 127.896 105.118 127.424C104.566 126.944 104.29 126.328 104.29 125.576ZM60.52 142.82H61.984V140.372L60.52 142.82ZM64.672 144.236H63.676V146H61.984V144.236H58.228L61.9 138.14H63.676V142.82H64.672V144.236ZM70.8814 142.52H72.5974L71.7214 139.64L70.8814 142.52ZM73.1614 144.044H70.3054L69.5734 146H67.7014L70.7734 137.732H72.6814L75.7414 146H73.8934L73.1614 144.044ZM78.4076 139.328V144.404H79.8956C80.5276 144.404 81.0156 144.164 81.3596 143.684C81.7036 143.204 81.8756 142.604 81.8756 141.884C81.8756 141.156 81.7036 140.548 81.3596 140.06C81.0156 139.572 80.5276 139.328 79.8956 139.328H78.4076ZM79.8956 146H76.6556V137.732H79.8956C81.0556 137.732 81.9676 138.124 82.6316 138.908C83.2956 139.684 83.6276 140.676 83.6276 141.884C83.6276 143.092 83.2956 144.08 82.6316 144.848C81.9676 145.616 81.0556 146 79.8956 146ZM87.264 144.068C87.552 144.332 87.888 144.464 88.272 144.464C88.656 144.464 88.988 144.332 89.268 144.068C89.556 143.796 89.7 143.456 89.7 143.048V137.732H91.464V143.048C91.464 143.96 91.152 144.7 90.528 145.268C89.904 145.836 89.152 146.12 88.272 146.12C87.392 146.12 86.636 145.836 86.004 145.268C85.372 144.7 85.056 143.96 85.056 143.048V137.732H86.844V143.048C86.844 143.464 86.984 143.804 87.264 144.068ZM93.3197 146V137.732H95.0837V144.452H98.1797V146H93.3197ZM98.0977 139.316V137.732H104.338V139.316H102.106V146H100.33V139.316H98.0977ZM105.204 143.576H106.968C106.984 143.856 107.1 144.092 107.316 144.284C107.532 144.476 107.828 144.572 108.204 144.572C108.564 144.572 108.852 144.492 109.068 144.332C109.292 144.172 109.408 143.96 109.416 143.696C109.424 143.488 109.356 143.308 109.212 143.156C109.076 143.004 108.812 142.872 108.42 142.76L107.424 142.484C106 142.044 105.288 141.252 105.288 140.108C105.288 139.38 105.56 138.788 106.104 138.332C106.648 137.868 107.324 137.636 108.132 137.636C108.948 137.636 109.616 137.864 110.136 138.32C110.664 138.776 110.928 139.392 110.928 140.168H109.176C109.176 139.888 109.084 139.664 108.9 139.496C108.716 139.32 108.452 139.232 108.108 139.232C107.796 139.232 107.54 139.312 107.34 139.472C107.14 139.624 107.04 139.82 107.04 140.06C107.04 140.452 107.336 140.732 107.928 140.9L108.912 141.212C110.464 141.66 111.22 142.492 111.18 143.708C111.172 144.228 111.02 144.68 110.724 145.064C110.428 145.44 110.06 145.712 109.62 145.88C109.188 146.048 108.716 146.132 108.204 146.132C107.308 146.132 106.584 145.896 106.032 145.424C105.48 144.944 105.204 144.328 105.204 143.576ZM62.272 157.28H60.736V159.608H62.224C62.544 159.608 62.796 159.488 62.98 159.248C63.172 159.008 63.268 158.74 63.268 158.444C63.268 158.156 63.176 157.892 62.992 157.652C62.816 157.404 62.576 157.28 62.272 157.28ZM63.04 161.072L65.092 164H62.98L61.132 161.144H60.736V164H58.972V155.732H62.356C63.236 155.732 63.912 156 64.384 156.536C64.864 157.064 65.104 157.7 65.104 158.444C65.104 159.076 64.928 159.636 64.576 160.124C64.224 160.612 63.712 160.928 63.04 161.072ZM68.5926 158.108C68.1206 158.596 67.8846 159.188 67.8846 159.884C67.8846 160.58 68.1206 161.172 68.5926 161.66C69.0646 162.14 69.6406 162.38 70.3206 162.38C71.0006 162.38 71.5766 162.136 72.0486 161.648C72.5286 161.16 72.7686 160.572 72.7686 159.884C72.7686 159.188 72.5286 158.596 72.0486 158.108C71.5766 157.62 71.0006 157.376 70.3206 157.376C69.6406 157.376 69.0646 157.62 68.5926 158.108ZM66.1326 159.884C66.1326 158.708 66.5366 157.708 67.3446 156.884C68.1606 156.052 69.1526 155.636 70.3206 155.636C71.4966 155.636 72.4886 156.052 73.2966 156.884C74.1126 157.708 74.5206 158.708 74.5206 159.884C74.5206 161.052 74.1126 162.052 73.2966 162.884C72.4806 163.708 71.4886 164.12 70.3206 164.12C69.1526 164.12 68.1606 163.708 67.3446 162.884C66.5366 162.052 66.1326 161.052 66.1326 159.884ZM77.9676 158.108C77.4956 158.596 77.2596 159.188 77.2596 159.884C77.2596 160.58 77.4956 161.172 77.9676 161.66C78.4396 162.14 79.0156 162.38 79.6956 162.38C80.3756 162.38 80.9516 162.136 81.4236 161.648C81.9036 161.16 82.1436 160.572 82.1436 159.884C82.1436 159.188 81.9036 158.596 81.4236 158.108C80.9516 157.62 80.3756 157.376 79.6956 157.376C79.0156 157.376 78.4396 157.62 77.9676 158.108ZM75.5076 159.884C75.5076 158.708 75.9116 157.708 76.7196 156.884C77.5356 156.052 78.5276 155.636 79.6956 155.636C80.8716 155.636 81.8636 156.052 82.6716 156.884C83.4876 157.708 83.8956 158.708 83.8956 159.884C83.8956 161.052 83.4876 162.052 82.6716 162.884C81.8556 163.708 80.8636 164.12 79.6956 164.12C78.5276 164.12 77.5356 163.708 76.7196 162.884C75.9116 162.052 75.5076 161.052 75.5076 159.884ZM89.8746 161.06L92.3466 155.732H93.8226L94.8306 164H93.0666L92.4906 159.044L90.5586 163.052H89.2026L87.2586 159.044L86.6706 164H84.9066L85.9266 155.732H87.3786L89.8746 161.06ZM101.229 158.108C100.757 158.596 100.521 159.188 100.521 159.884C100.521 160.58 100.757 161.172 101.229 161.66C101.701 162.14 102.277 162.38 102.957 162.38C103.637 162.38 104.213 162.136 104.685 161.648C105.165 161.16 105.405 160.572 105.405 159.884C105.405 159.188 105.165 158.596 104.685 158.108C104.213 157.62 103.637 157.376 102.957 157.376C102.277 157.376 101.701 157.62 101.229 158.108ZM98.7693 159.884C98.7693 158.708 99.1733 157.708 99.9813 156.884C100.797 156.052 101.789 155.636 102.957 155.636C104.133 155.636 105.125 156.052 105.933 156.884C106.749 157.708 107.157 158.708 107.157 159.884C107.157 161.052 106.749 162.052 105.933 162.884C105.117 163.708 104.125 164.12 102.957 164.12C101.789 164.12 100.797 163.708 99.9813 162.884C99.1733 162.052 98.7693 161.052 98.7693 159.884ZM114.828 155.732V164H113.256L110.376 158.996V164H108.624V155.732H110.232L113.064 160.676V155.732H114.828ZM116.769 164V155.732H118.533V162.452H121.629V164H116.769ZM125.73 164H123.942V160.256L120.75 155.732H122.838L124.83 158.828L126.846 155.732H128.934L125.73 160.28V164ZM60.724 175.328V180.404H62.212C62.844 180.404 63.332 180.164 63.676 179.684C64.02 179.204 64.192 178.604 64.192 177.884C64.192 177.156 64.02 176.548 63.676 176.06C63.332 175.572 62.844 175.328 62.212 175.328H60.724ZM62.212 182H58.972V173.732H62.212C63.372 173.732 64.284 174.124 64.948 174.908C65.612 175.684 65.944 176.676 65.944 177.884C65.944 179.092 65.612 180.08 64.948 180.848C64.284 181.616 63.372 182 62.212 182ZM69.4364 176.108C68.9644 176.596 68.7284 177.188 68.7284 177.884C68.7284 178.58 68.9644 179.172 69.4364 179.66C69.9084 180.14 70.4844 180.38 71.1644 180.38C71.8444 180.38 72.4204 180.136 72.8924 179.648C73.3724 179.16 73.6124 178.572 73.6124 177.884C73.6124 177.188 73.3724 176.596 72.8924 176.108C72.4204 175.62 71.8444 175.376 71.1644 175.376C70.4844 175.376 69.9084 175.62 69.4364 176.108ZM66.9764 177.884C66.9764 176.708 67.3804 175.708 68.1884 174.884C69.0044 174.052 69.9964 173.636 71.1644 173.636C72.3404 173.636 73.3324 174.052 74.1404 174.884C74.9564 175.708 75.3644 176.708 75.3644 177.884C75.3644 179.052 74.9564 180.052 74.1404 180.884C73.3244 181.708 72.3324 182.12 71.1644 182.12C69.9964 182.12 69.0044 181.708 68.1884 180.884C67.3804 180.052 66.9764 179.052 66.9764 177.884ZM78.9554 180.068C79.2434 180.332 79.5794 180.464 79.9634 180.464C80.3474 180.464 80.6794 180.332 80.9594 180.068C81.2474 179.796 81.3914 179.456 81.3914 179.048V173.732H83.1554V179.048C83.1554 179.96 82.8434 180.7 82.2194 181.268C81.5954 181.836 80.8434 182.12 79.9634 182.12C79.0834 182.12 78.3274 181.836 77.6954 181.268C77.0634 180.7 76.7474 179.96 76.7474 179.048V173.732H78.5354V179.048C78.5354 179.464 78.6754 179.804 78.9554 180.068ZM90.7711 176.036C90.7711 176.348 90.6791 176.648 90.4951 176.936C90.3191 177.216 90.0351 177.432 89.6431 177.584C90.1471 177.712 90.5311 177.964 90.7951 178.34C91.0671 178.708 91.2031 179.084 91.2031 179.468C91.2031 180.18 90.9631 180.78 90.4831 181.268C90.0031 181.756 89.3631 182 88.5631 182H85.0111V173.732H88.3231C89.0671 173.732 89.6591 173.94 90.0991 174.356C90.5471 174.772 90.7711 175.332 90.7711 176.036ZM86.7751 176.996H88.1551C88.3791 176.996 88.5631 176.916 88.7071 176.756C88.8511 176.596 88.9231 176.392 88.9231 176.144C88.9231 175.88 88.8551 175.672 88.7191 175.52C88.5911 175.36 88.3991 175.28 88.1431 175.28H86.7751V176.996ZM88.4311 178.448H86.7751V180.452H88.4671C88.7471 180.452 88.9631 180.352 89.1151 180.152C89.2751 179.944 89.3551 179.704 89.3551 179.432C89.3551 179.176 89.2711 178.948 89.1031 178.748C88.9431 178.548 88.7191 178.448 88.4311 178.448ZM92.6517 182V173.732H94.4157V180.452H97.5117V182H92.6517ZM98.7806 182V173.732H104.013V175.28H100.533V177.164H103.581V178.688H100.533V180.452H104.121V182H98.7806ZM111.924 175.28H110.388V177.608H111.876C112.196 177.608 112.448 177.488 112.632 177.248C112.824 177.008 112.92 176.74 112.92 176.444C112.92 176.156 112.828 175.892 112.644 175.652C112.468 175.404 112.228 175.28 111.924 175.28ZM112.692 179.072L114.744 182H112.632L110.784 179.144H110.388V182H108.624V173.732H112.008C112.888 173.732 113.564 174 114.036 174.536C114.516 175.064 114.756 175.7 114.756 176.444C114.756 177.076 114.58 177.636 114.228 178.124C113.876 178.612 113.364 178.928 112.692 179.072ZM118.245 176.108C117.773 176.596 117.537 177.188 117.537 177.884C117.537 178.58 117.773 179.172 118.245 179.66C118.717 180.14 119.293 180.38 119.973 180.38C120.653 180.38 121.229 180.136 121.701 179.648C122.181 179.16 122.421 178.572 122.421 177.884C122.421 177.188 122.181 176.596 121.701 176.108C121.229 175.62 120.653 175.376 119.973 175.376C119.293 175.376 118.717 175.62 118.245 176.108ZM115.785 177.884C115.785 176.708 116.189 175.708 116.997 174.884C117.813 174.052 118.805 173.636 119.973 173.636C121.149 173.636 122.141 174.052 122.949 174.884C123.765 175.708 124.173 176.708 124.173 177.884C124.173 179.052 123.765 180.052 122.949 180.884C122.133 181.708 121.141 182.12 119.973 182.12C118.805 182.12 117.813 181.708 116.997 180.884C116.189 180.052 115.785 179.052 115.785 177.884ZM127.62 176.108C127.148 176.596 126.912 177.188 126.912 177.884C126.912 178.58 127.148 179.172 127.62 179.66C128.092 180.14 128.668 180.38 129.348 180.38C130.028 180.38 130.604 180.136 131.076 179.648C131.556 179.16 131.796 178.572 131.796 177.884C131.796 177.188 131.556 176.596 131.076 176.108C130.604 175.62 130.028 175.376 129.348 175.376C128.668 175.376 128.092 175.62 127.62 176.108ZM125.16 177.884C125.16 176.708 125.564 175.708 126.372 174.884C127.188 174.052 128.18 173.636 129.348 173.636C130.524 173.636 131.516 174.052 132.324 174.884C133.14 175.708 133.548 176.708 133.548 177.884C133.548 179.052 133.14 180.052 132.324 180.884C131.508 181.708 130.516 182.12 129.348 182.12C128.18 182.12 127.188 181.708 126.372 180.884C125.564 180.052 125.16 179.052 125.16 177.884ZM139.527 179.06L141.999 173.732H143.475L144.483 182H142.719L142.143 177.044L140.211 181.052H138.855L136.911 177.044L136.323 182H134.559L135.579 173.732H137.031L139.527 179.06Z"
        fill="white" />
    <path
        d="M69.754 51.488L67.81 53.162C67.066 52.322 66.16 51.902 65.092 51.902C64.048 51.902 63.166 52.286 62.446 53.054C61.738 53.822 61.384 54.746 61.384 55.826C61.384 56.906 61.744 57.836 62.464 58.616C63.184 59.384 64.06 59.768 65.092 59.768C65.812 59.768 66.49 59.57 67.126 59.174C67.762 58.766 68.086 58.25 68.098 57.626H64.768V55.484H71.14C71.14 57.728 70.594 59.408 69.502 60.524C68.422 61.628 66.952 62.18 65.092 62.18C63.316 62.18 61.81 61.562 60.574 60.326C59.35 59.078 58.738 57.578 58.738 55.826C58.738 54.062 59.35 52.562 60.574 51.326C61.81 50.078 63.316 49.454 65.092 49.454C66.028 49.454 66.898 49.634 67.702 49.994C68.518 50.354 69.202 50.852 69.754 51.488ZM78.0135 51.92H75.7095V55.412H77.9415C78.4215 55.412 78.7995 55.232 79.0755 54.872C79.3635 54.512 79.5075 54.11 79.5075 53.666C79.5075 53.234 79.3695 52.838 79.0935 52.478C78.8295 52.106 78.4695 51.92 78.0135 51.92ZM79.1655 57.608L82.2435 62H79.0755L76.3035 57.716H75.7095V62H73.0635V49.598H78.1395C79.4595 49.598 80.4735 50 81.1815 50.804C81.9015 51.596 82.2615 52.55 82.2615 53.666C82.2615 54.614 81.9975 55.454 81.4695 56.186C80.9415 56.918 80.1735 57.392 79.1655 57.608ZM84.5244 62V49.598H92.3724V51.92H87.1524V54.746H91.7244V57.032H87.1524V59.678H92.5344V62H84.5244ZM94.8955 62V49.598H102.744V51.92H97.5235V54.746H102.096V57.032H97.5235V59.678H102.906V62H94.8955ZM113.642 57.986L115.766 59.462C115.214 60.302 114.482 60.968 113.57 61.46C112.658 61.94 111.65 62.18 110.546 62.18C108.782 62.18 107.3 61.562 106.1 60.326C104.912 59.09 104.318 57.59 104.318 55.826C104.318 54.05 104.912 52.544 106.1 51.308C107.3 50.072 108.782 49.454 110.546 49.454C111.626 49.454 112.616 49.694 113.516 50.174C114.428 50.642 115.16 51.278 115.712 52.082L113.57 53.558C112.826 52.478 111.818 51.938 110.546 51.938C109.526 51.938 108.674 52.316 107.99 53.072C107.306 53.816 106.964 54.734 106.964 55.826C106.964 56.906 107.306 57.824 107.99 58.58C108.674 59.324 109.526 59.696 110.546 59.696C111.182 59.696 111.77 59.54 112.31 59.228C112.85 58.916 113.294 58.502 113.642 57.986ZM117.624 62V49.598H125.472V51.92H120.252V54.746H124.824V57.032H120.252V59.678H125.634V62H117.624ZM62.332 80H59.128V71.732H62.332C63.476 71.732 64.38 72.124 65.044 72.908C65.716 73.684 66.052 74.676 66.052 75.884C66.052 77.084 65.72 78.072 65.056 78.848C64.392 79.616 63.484 80 62.332 80ZM60.244 78.956H62.332C63.164 78.956 63.804 78.672 64.252 78.104C64.708 77.528 64.936 76.788 64.936 75.884C64.936 74.972 64.708 74.228 64.252 73.652C63.804 73.068 63.164 72.776 62.332 72.776H60.244V78.956ZM67.2716 75.884C67.2716 74.7 67.6756 73.696 68.4836 72.872C69.2916 72.048 70.2796 71.636 71.4476 71.636C72.6236 71.636 73.6156 72.048 74.4236 72.872C75.2396 73.696 75.6476 74.7 75.6476 75.884C75.6476 77.06 75.2396 78.06 74.4236 78.884C73.6156 79.708 72.6236 80.12 71.4476 80.12C70.2796 80.12 69.2916 79.708 68.4836 78.884C67.6756 78.06 67.2716 77.06 67.2716 75.884ZM69.2756 73.64C68.6836 74.256 68.3876 75.004 68.3876 75.884C68.3876 76.764 68.6796 77.512 69.2636 78.128C69.8556 78.736 70.5836 79.04 71.4476 79.04C72.3116 79.04 73.0396 78.736 73.6316 78.128C74.2236 77.512 74.5196 76.764 74.5196 75.884C74.5196 75.004 74.2236 74.256 73.6316 73.64C73.0396 73.024 72.3116 72.716 71.4476 72.716C70.5916 72.716 69.8676 73.024 69.2756 73.64ZM77.3624 71.732H78.4784V78.956H81.8504V80H77.3624V71.732ZM88.9274 77.984L89.7674 78.692C89.3914 79.14 88.9314 79.492 88.3874 79.748C87.8514 79.996 87.2674 80.12 86.6354 80.12C85.4674 80.12 84.4754 79.708 83.6594 78.884C82.8514 78.06 82.4474 77.06 82.4474 75.884C82.4474 74.708 82.8514 73.708 83.6594 72.884C84.4754 72.052 85.4674 71.636 86.6354 71.636C87.2594 71.636 87.8394 71.76 88.3754 72.008C88.9114 72.256 89.3674 72.6 89.7434 73.04L88.9034 73.736C88.2794 73.056 87.5234 72.716 86.6354 72.716C85.7714 72.716 85.0434 73.024 84.4514 73.64C83.8594 74.256 83.5634 75.004 83.5634 75.884C83.5634 76.764 83.8594 77.512 84.4514 78.128C85.0434 78.736 85.7714 79.04 86.6354 79.04C87.5634 79.04 88.3274 78.688 88.9274 77.984ZM91.1788 71.732H96.0748V72.776H92.2948V75.416H95.5948V76.46H92.2948V78.956H96.1948V80H91.1788V71.732ZM102.086 76.892H104.822L103.454 73.22L102.086 76.892ZM105.206 77.9H101.702L100.898 80H99.7101L102.854 71.732H104.054L107.186 80H106.01L105.206 77.9ZM107.039 71.732H113.183V72.788H110.675V80H109.547V72.788H107.039V71.732ZM120.891 71.732V80H119.763V76.4H115.767V80H114.651V71.732H115.767V75.38H119.763V71.732H120.891ZM123.148 71.732H128.044V72.776H124.264V75.416H127.564V76.46H124.264V78.956H128.164V80H123.148V71.732ZM135.885 80H134.817L131.049 73.772V80H129.933V71.732H131.037L134.769 77.912V71.732H135.885V80ZM138.748 77.612C138.756 77.988 138.928 78.328 139.264 78.632C139.6 78.928 140.02 79.076 140.524 79.076C141.02 79.076 141.408 78.96 141.688 78.728C141.968 78.496 142.136 78.208 142.192 77.864C142.224 77.456 142.104 77.132 141.832 76.892C141.568 76.652 141.22 76.484 140.788 76.388L139.72 76.124C138.376 75.78 137.704 75.06 137.704 73.964C137.704 73.284 137.968 72.728 138.496 72.296C139.024 71.856 139.652 71.636 140.38 71.636C141.148 71.636 141.784 71.86 142.288 72.308C142.792 72.748 143.044 73.332 143.044 74.06H141.928C141.928 73.652 141.78 73.324 141.484 73.076C141.196 72.828 140.824 72.704 140.368 72.704C139.952 72.704 139.588 72.82 139.276 73.052C138.972 73.284 138.82 73.584 138.82 73.952C138.82 74.528 139.212 74.912 139.996 75.104L141.076 75.368C141.86 75.568 142.444 75.888 142.828 76.328C143.212 76.768 143.364 77.312 143.284 77.96C143.212 78.584 142.928 79.1 142.432 79.508C141.944 79.916 141.308 80.12 140.524 80.12C139.7 80.12 139.012 79.872 138.46 79.376C137.908 78.872 137.632 78.284 137.632 77.612H138.748ZM149.137 76.892H151.873L150.505 73.22L149.137 76.892ZM152.257 77.9H148.753L147.949 80H146.761L149.905 71.732H151.105L154.237 80H153.061L152.257 77.9ZM154.09 71.732H160.234V72.788H157.726V80H156.598V72.788H154.09V71.732ZM160.91 71.732H167.054V72.788H164.546V80H163.418V72.788H160.91V71.732ZM168.523 71.732H169.639V80H168.523V71.732ZM177.838 77.984L178.678 78.692C178.302 79.14 177.842 79.492 177.298 79.748C176.762 79.996 176.178 80.12 175.546 80.12C174.378 80.12 173.386 79.708 172.57 78.884C171.762 78.06 171.358 77.06 171.358 75.884C171.358 74.708 171.762 73.708 172.57 72.884C173.386 72.052 174.378 71.636 175.546 71.636C176.17 71.636 176.75 71.76 177.286 72.008C177.822 72.256 178.278 72.6 178.654 73.04L177.814 73.736C177.19 73.056 176.434 72.716 175.546 72.716C174.682 72.716 173.954 73.024 173.362 73.64C172.77 74.256 172.474 75.004 172.474 75.884C172.474 76.764 172.77 77.512 173.362 78.128C173.954 78.736 174.682 79.04 175.546 79.04C176.474 79.04 177.238 78.688 177.838 77.984ZM181.469 76.892H184.205L182.837 73.22L181.469 76.892ZM184.589 77.9H181.085L180.281 80H179.093L182.237 71.732H183.437L186.569 80H185.393L184.589 77.9ZM62.596 94.868L64.804 98H63.448L61.312 94.904H60.256V98H59.128V89.732H62.308C63.124 89.732 63.736 89.984 64.144 90.488C64.552 90.992 64.756 91.604 64.756 92.324C64.756 92.996 64.576 93.572 64.216 94.052C63.864 94.532 63.324 94.804 62.596 94.868ZM62.272 90.776H60.256V93.86H62.224C62.696 93.86 63.044 93.712 63.268 93.416C63.492 93.12 63.604 92.756 63.604 92.324C63.604 91.9 63.492 91.536 63.268 91.232C63.052 90.928 62.72 90.776 62.272 90.776ZM66.5577 89.732H67.6737V98H66.5577V89.732ZM70.3047 89.732L72.1767 96.116L74.0487 89.732H75.2007L72.7167 98H71.6487L69.1407 89.732H70.3047ZM76.671 89.732H77.787V98H76.671V89.732ZM80.046 89.732H84.942V90.776H81.162V93.416H84.462V94.46H81.162V96.956H85.062V98H80.046V89.732ZM90.2991 94.868L92.5071 98H91.1511L89.0151 94.904H87.9591V98H86.8311V89.732H90.0111C90.8271 89.732 91.4391 89.984 91.8471 90.488C92.2551 90.992 92.4591 91.604 92.4591 92.324C92.4591 92.996 92.2791 93.572 91.9191 94.052C91.5671 94.532 91.0271 94.804 90.2991 94.868ZM89.9751 90.776H87.9591V93.86H89.9271C90.3991 93.86 90.7471 93.712 90.9711 93.416C91.1951 93.12 91.3071 92.756 91.3071 92.324C91.3071 91.9 91.1951 91.536 90.9711 91.232C90.7551 90.928 90.4231 90.776 89.9751 90.776ZM95.6408 94.892H98.3768L97.0088 91.22L95.6408 94.892ZM98.7608 95.9H95.2568L94.4528 98H93.2648L96.4088 89.732H97.6088L100.741 98H99.5648L98.7608 95.9ZM105.505 93.8L104.785 93.248L105.805 91.988L104.233 91.544L104.389 91.088C104.405 91.04 104.429 90.964 104.461 90.86C104.501 90.756 104.525 90.692 104.533 90.668L106.033 91.256L105.937 89.636H106.885L106.777 91.256C106.913 91.208 107.161 91.112 107.521 90.968C107.881 90.824 108.141 90.724 108.301 90.668L108.577 91.544L107.017 91.964L108.061 93.26L107.317 93.776L106.441 92.444L105.505 93.8ZM111.107 93.8L110.387 93.248L111.407 91.988L109.835 91.544L109.991 91.088C110.007 91.04 110.031 90.964 110.063 90.86C110.103 90.756 110.127 90.692 110.135 90.668L111.635 91.256L111.539 89.636H112.487L112.379 91.256C112.515 91.208 112.763 91.112 113.123 90.968C113.483 90.824 113.743 90.724 113.903 90.668L114.179 91.544L112.619 91.964L113.663 93.26L112.919 93.776L112.043 92.444L111.107 93.8ZM116.709 93.8L115.989 93.248L117.009 91.988L115.437 91.544L115.593 91.088C115.609 91.04 115.633 90.964 115.665 90.86C115.705 90.756 115.729 90.692 115.737 90.668L117.237 91.256L117.141 89.636H118.089L117.98 91.256C118.117 91.208 118.365 91.112 118.725 90.968C119.085 90.824 119.345 90.724 119.505 90.668L119.781 91.544L118.221 91.964L119.265 93.26L118.521 93.776L117.645 92.444L116.709 93.8ZM122.31 93.8L121.59 93.248L122.61 91.988L121.038 91.544L121.194 91.088C121.21 91.04 121.234 90.964 121.266 90.86C121.306 90.756 121.33 90.692 121.338 90.668L122.838 91.256L122.742 89.636H123.69L123.582 91.256C123.718 91.208 123.966 91.112 124.326 90.968C124.686 90.824 124.946 90.724 125.106 90.668L125.382 91.544L123.822 91.964L124.866 93.26L124.122 93.776L123.246 92.444L122.31 93.8ZM127.912 93.8L127.192 93.248L128.212 91.988L126.64 91.544L126.796 91.088C126.812 91.04 126.836 90.964 126.868 90.86C126.908 90.756 126.932 90.692 126.94 90.668L128.44 91.256L128.344 89.636H129.292L129.184 91.256C129.32 91.208 129.568 91.112 129.928 90.968C130.288 90.824 130.548 90.724 130.708 90.668L130.984 91.544L129.424 91.964L130.468 93.26L129.724 93.776L128.848 92.444L127.912 93.8Z"
        fill="white" />
    <circle cx="283.471" cy="101.471" r="50.4713" fill="url(#paint1_radial_2007_108)" />
    <path
        d="M309.724 127.26C309.724 125.927 308.804 125.25 307.452 125.25C306.494 125.25 305.367 125.626 304.748 126.603L303.301 125.851L304.316 119.297H311.527V121.701H306.4L306.081 123.692C306.55 123.26 307.302 123.053 308.335 123.053C309.48 123.053 310.438 123.429 311.208 124.161C311.978 124.894 312.353 125.927 312.353 127.26C312.353 128.593 311.884 129.683 310.964 130.528C310.043 131.373 308.804 131.786 307.283 131.786C305.574 131.786 303.884 130.791 302.926 129.307L305.142 127.88C305.611 128.631 306.513 129.157 307.283 129.157C308.691 129.157 309.724 128.293 309.724 127.26Z"
        fill="white" />
    <path
        d="M297.056 122.79L294.765 126.621H297.056V122.79ZM301.263 126.621V128.837H299.704V131.598H297.056V128.837H291.178L296.924 119.297H299.704V126.621H301.263Z"
        fill="white" />
    <path
        d="M289.49 129.119V131.598H281.49V130.171L286.542 124.18C286.974 123.673 287.199 123.222 287.199 122.79C287.199 122.114 286.617 121.57 285.659 121.57C284.739 121.57 284.063 122.283 283.913 123.279L281.509 122.865C281.884 120.518 283.5 119.053 285.809 119.053C286.918 119.053 287.875 119.41 288.645 120.105C289.434 120.8 289.828 121.701 289.828 122.79C289.828 123.898 289.396 124.931 288.533 125.908L285.697 129.119H289.49Z"
        fill="white" />
    <path
        d="M272.652 125.025H271.15V127.302H272.605C273.228 127.302 273.627 126.739 273.627 126.164C273.627 125.6 273.251 125.025 272.652 125.025ZM273.404 128.734L275.411 131.598H273.345L271.537 128.805H271.15V131.598H269.425V123.511H272.735C273.591 123.511 274.26 123.769 274.718 124.297C275.188 124.814 275.422 125.436 275.422 126.164C275.422 127.396 274.718 128.452 273.404 128.734Z"
        fill="white" />
    <path
        d="M265.884 128.711V123.511H267.609V128.711C267.609 129.603 267.304 130.33 266.694 130.882C266.084 131.434 265.344 131.715 264.487 131.715C263.63 131.715 262.891 131.434 262.269 130.882C261.647 130.33 261.342 129.603 261.342 128.711V123.511H263.091V128.711C263.091 129.121 263.231 129.45 263.501 129.708C263.783 129.967 264.112 130.096 264.487 130.096C264.863 130.096 265.192 129.967 265.462 129.708C265.743 129.438 265.884 129.11 265.884 128.711Z"
        fill="white" />
    <path
        d="M259.884 131.598H254.661V123.511H259.779V125.025H256.375V126.868H259.356V128.359H256.375V130.084H259.884V131.598Z"
        fill="white" />
    <path
        d="M305.466 113.601V105.513H310.255V106.535H306.558V109.117H309.786V110.138H306.558V112.579H310.373V113.601H305.466Z"
        fill="white" />
    <path d="M298.101 105.513H299.239L301.07 111.758L302.901 105.513H304.028L301.599 113.601H300.554L298.101 105.513Z"
        fill="white" />
    <path
        d="M294.411 106.969L293.073 110.561H295.749L294.411 106.969ZM296.911 113.601L296.125 111.547H292.697L291.911 113.601H290.749L293.824 105.513H294.998L298.061 113.601H296.911Z"
        fill="white" />
    <path
        d="M284.57 111.265H285.662C285.674 111.629 285.838 111.969 286.167 112.263C286.495 112.556 286.906 112.697 287.399 112.697C288.373 112.697 288.925 112.18 289.031 111.511C289.089 110.713 288.502 110.255 287.657 110.068L286.613 109.809C285.298 109.469 284.641 108.765 284.641 107.697C284.641 107.028 284.899 106.488 285.415 106.065C285.932 105.631 286.542 105.42 287.258 105.42C288.009 105.42 288.631 105.643 289.124 106.077C289.617 106.511 289.864 107.075 289.864 107.791H288.772C288.772 106.992 288.139 106.464 287.246 106.464C286.836 106.464 286.484 106.582 286.178 106.805C285.885 107.028 285.732 107.321 285.732 107.685C285.732 108.248 286.12 108.624 286.883 108.812L287.939 109.07C289.477 109.457 290.251 110.338 290.099 111.605C290.028 112.216 289.747 112.72 289.265 113.119C288.784 113.518 288.162 113.718 287.399 113.718C286.589 113.718 285.92 113.471 285.38 112.99C284.84 112.497 284.57 111.922 284.57 111.265Z"
        fill="white" />
    <path
        d="M278.79 110.819V105.513H279.893V110.819C279.893 111.676 279.599 112.38 279.024 112.92C278.449 113.448 277.757 113.718 276.935 113.718C276.113 113.718 275.409 113.448 274.834 112.92C274.259 112.38 273.977 111.676 273.977 110.819V105.513H275.081V110.819C275.081 111.359 275.257 111.805 275.62 112.145C275.984 112.486 276.419 112.662 276.935 112.662C277.451 112.662 277.886 112.486 278.25 112.145C278.614 111.805 278.79 111.359 278.79 110.819Z"
        fill="white" />
    <path
        d="M264.189 109.575C264.189 108.413 264.588 107.438 265.375 106.628C266.161 105.819 267.135 105.42 268.274 105.42C269.424 105.42 270.398 105.819 271.185 106.628C271.983 107.438 272.382 108.413 272.382 109.575C272.382 110.725 271.983 111.699 271.185 112.509C270.398 113.319 269.424 113.718 268.274 113.718C267.135 113.718 266.161 113.319 265.375 112.509C264.588 111.699 264.189 110.725 264.189 109.575ZM268.274 106.476C267.441 106.476 266.725 106.781 266.149 107.38C265.574 107.978 265.281 108.718 265.281 109.575C265.281 110.431 265.563 111.171 266.138 111.77C266.713 112.368 267.429 112.662 268.274 112.662C269.119 112.662 269.835 112.368 270.41 111.77C270.985 111.171 271.279 110.431 271.279 109.575C271.279 108.718 270.985 107.978 270.41 107.38C269.835 106.781 269.119 106.476 268.274 106.476Z"
        fill="white" />
    <path
        d="M260.974 109.88V113.601H259.847V109.88L256.784 105.513H258.087L260.411 108.788L262.758 105.513H264.073L260.974 109.88Z"
        fill="white" />
    <path
        d="M312.196 73.2392L303.125 91.6906H301.181L310.252 73.2392H312.196ZM301.773 73.042C302.815 73.042 303.689 73.4082 304.421 74.1406C305.182 74.873 305.548 75.7745 305.548 76.8168C305.548 77.8591 305.182 78.7605 304.449 79.4929C303.717 80.1972 302.815 80.5634 301.773 80.5634C300.731 80.5634 299.829 80.1972 299.097 79.4929C298.393 78.7605 298.026 77.8591 298.026 76.8168C298.026 75.7745 298.393 74.873 299.097 74.1406C299.829 73.4082 300.731 73.042 301.773 73.042ZM301.773 78.2816C302.59 78.2816 303.266 77.6337 303.266 76.8168C303.266 75.9998 302.59 75.3238 301.773 75.3238C300.956 75.3238 300.308 75.9998 300.308 76.8168C300.308 77.6337 300.9 78.2816 301.773 78.2816ZM311.745 84.4509C312.787 84.4509 313.661 84.8171 314.393 85.5777C315.154 86.3101 315.52 87.1834 315.52 88.2256C315.52 89.2679 315.154 90.1694 314.421 90.9018C313.689 91.606 312.787 91.9723 311.745 91.9723C310.703 91.9723 309.801 91.606 309.069 90.9018C308.365 90.1694 307.999 89.2679 307.999 88.2256C307.999 87.1834 308.365 86.2819 309.069 85.5495C309.801 84.8171 310.703 84.4509 311.745 84.4509ZM310.28 88.2256C310.28 89.0989 310.872 89.6905 311.745 89.6905C313.041 89.6905 313.773 88.0848 312.787 87.1834C311.886 86.1974 310.28 86.9298 310.28 88.2256Z"
        fill="white" />
    <path d="M282.736 76.8731V73.2392H296.651L288.51 91.6906H284.031L290.539 76.8731H282.736Z" fill="white" />
    <path
        d="M273.931 78.4788L270.494 84.2255H273.931V78.4788ZM280.241 84.2255V87.5496H277.903V91.6906H273.931V87.5496H265.113L273.733 73.2392H277.903V84.2255H280.241Z"
        fill="white" />
    <path d="M262.871 86.3101H252.927V83.2114H262.871V86.3101Z" fill="white" />
    <path fill-rule="evenodd" clip-rule="evenodd"
        d="M256.475 97.9506L311.25 97.9506V99.5156L256.475 99.5156L256.475 97.9506Z" fill="white" />
    <path
        d="M92.406 220.706L96.78 211.598H98.31L99.822 224H98.166L97.032 214.676L93.162 222.632H91.686L87.78 214.676L86.646 224H84.99L86.502 211.598H88.032L92.406 220.706ZM104.567 219.338H108.671L106.619 213.83L104.567 219.338ZM109.247 220.85H103.991L102.785 224H101.003L105.719 211.598H107.519L112.217 224H110.453L109.247 220.85ZM119.3 219.302L122.612 224H120.578L117.374 219.356H115.79V224H114.098V211.598H118.868C120.092 211.598 121.01 211.976 121.622 212.732C122.234 213.488 122.54 214.406 122.54 215.486C122.54 216.494 122.27 217.358 121.73 218.078C121.202 218.798 120.392 219.206 119.3 219.302ZM118.814 213.164H115.79V217.79H118.742C119.45 217.79 119.972 217.568 120.308 217.124C120.644 216.68 120.812 216.134 120.812 215.486C120.812 214.85 120.644 214.304 120.308 213.848C119.984 213.392 119.486 213.164 118.814 213.164ZM128.321 217.79L134.081 224H131.831L126.917 218.708V224H125.243V211.598H126.917V216.962L131.021 211.598H133.091L128.321 217.79ZM135.649 211.598H142.993V213.164H137.323V217.124H142.273V218.69H137.323V222.434H143.173V224H135.649V211.598ZM144.639 211.598H153.855V213.182H150.093V224H148.401V213.182H144.639V211.598ZM160.206 211.598H165.156C166.38 211.598 167.298 211.976 167.91 212.732C168.534 213.488 168.846 214.406 168.846 215.486C168.846 216.566 168.534 217.484 167.91 218.24C167.298 218.984 166.38 219.356 165.156 219.356H161.898V224H160.206V211.598ZM165.138 213.164H161.898V217.79H165.048C165.756 217.79 166.284 217.568 166.632 217.124C166.992 216.668 167.172 216.122 167.172 215.486C167.172 214.85 166.998 214.304 166.65 213.848C166.314 213.392 165.81 213.164 165.138 213.164ZM176.324 219.302L179.636 224H177.602L174.398 219.356H172.814V224H171.122V211.598H175.892C177.116 211.598 178.034 211.976 178.646 212.732C179.258 213.488 179.564 214.406 179.564 215.486C179.564 216.494 179.294 217.358 178.754 218.078C178.226 218.798 177.416 219.206 176.324 219.302ZM175.838 213.164H172.814V217.79H175.766C176.474 217.79 176.996 217.568 177.332 217.124C177.668 216.68 177.836 216.134 177.836 215.486C177.836 214.85 177.668 214.304 177.332 213.848C177.008 213.392 176.51 213.164 175.838 213.164ZM182.266 211.598H183.94V224H182.266V211.598ZM196.239 220.976L197.499 222.038C196.935 222.71 196.245 223.238 195.429 223.622C194.625 223.994 193.749 224.18 192.801 224.18C191.049 224.18 189.561 223.562 188.337 222.326C187.125 221.09 186.519 219.59 186.519 217.826C186.519 216.062 187.125 214.562 188.337 213.326C189.561 212.078 191.049 211.454 192.801 211.454C193.737 211.454 194.607 211.64 195.411 212.012C196.215 212.384 196.899 212.9 197.463 213.56L196.203 214.604C195.267 213.584 194.133 213.074 192.801 213.074C191.505 213.074 190.413 213.536 189.525 214.46C188.637 215.384 188.193 216.506 188.193 217.826C188.193 219.146 188.637 220.268 189.525 221.192C190.413 222.104 191.505 222.56 192.801 222.56C194.193 222.56 195.339 222.032 196.239 220.976ZM199.616 211.598H206.96V213.164H201.29V217.124H206.24V218.69H201.29V222.434H207.14V224H199.616V211.598ZM209.686 223.874C209.458 223.658 209.344 223.388 209.344 223.064C209.344 222.74 209.458 222.47 209.686 222.254C209.926 222.038 210.208 221.93 210.532 221.93C210.856 221.93 211.132 222.038 211.36 222.254C211.588 222.47 211.702 222.74 211.702 223.064C211.702 223.388 211.588 223.658 211.36 223.874C211.132 224.078 210.856 224.18 210.532 224.18C210.208 224.18 209.926 224.078 209.686 223.874ZM209.686 217.34C209.458 217.124 209.344 216.854 209.344 216.53C209.344 216.206 209.458 215.942 209.686 215.738C209.926 215.522 210.208 215.414 210.532 215.414C210.856 215.414 211.132 215.522 211.36 215.738C211.588 215.942 211.702 216.206 211.702 216.53C211.702 216.854 211.588 217.124 211.36 217.34C211.132 217.556 210.856 217.664 210.532 217.664C210.208 217.664 209.926 217.556 209.686 217.34ZM219.303 211.598H226.647V213.164H220.977V217.124H225.927V218.69H220.977V222.434H226.827V224H219.303V211.598ZM231.875 221.768C232.427 222.296 233.099 222.56 233.891 222.56C234.683 222.56 235.355 222.296 235.907 221.768C236.459 221.24 236.735 220.562 236.735 219.734V211.598H238.427V219.734C238.427 221.054 237.983 222.128 237.095 222.956C236.219 223.772 235.151 224.18 233.891 224.18C232.631 224.18 231.557 223.772 230.669 222.956C229.793 222.128 229.355 221.054 229.355 219.734V211.598H231.047V219.734C231.047 220.562 231.323 221.24 231.875 221.768ZM246.882 219.302L250.194 224H248.16L244.956 219.356H243.372V224H241.68V211.598H246.45C247.674 211.598 248.592 211.976 249.204 212.732C249.816 213.488 250.122 214.406 250.122 215.486C250.122 216.494 249.852 217.358 249.312 218.078C248.784 218.798 247.974 219.206 246.882 219.302ZM246.396 213.164H243.372V217.79H246.324C247.032 217.79 247.554 217.568 247.89 217.124C248.226 216.68 248.394 216.134 248.394 215.486C248.394 214.85 248.226 214.304 247.89 213.848C247.566 213.392 247.068 213.164 246.396 213.164ZM256.673 221.498L258.059 220.742C258.287 221.318 258.623 221.774 259.067 222.11C259.523 222.446 260.027 222.614 260.579 222.614C261.515 222.614 262.217 222.392 262.685 221.948C263.165 221.504 263.405 220.928 263.405 220.22C263.405 219.5 263.171 218.948 262.703 218.564C262.247 218.168 261.671 217.97 260.975 217.97C260.471 217.97 260.015 218.042 259.607 218.186C259.199 218.318 258.683 218.57 258.059 218.942L257.051 218.114L258.077 212.264H264.341V213.812H259.409L258.761 217.142C259.025 216.95 259.367 216.788 259.787 216.656C260.219 216.524 260.615 216.458 260.975 216.458C262.115 216.458 263.069 216.794 263.837 217.466C264.605 218.126 264.989 219.044 264.989 220.22C264.989 221.42 264.581 222.38 263.765 223.1C262.961 223.82 261.899 224.18 260.579 224.18C259.751 224.18 258.983 223.94 258.275 223.46C257.567 222.968 257.033 222.314 256.673 221.498ZM267.895 215.108C267.895 214.268 268.195 213.56 268.795 212.984C269.395 212.396 270.139 212.102 271.027 212.102C271.915 212.102 272.665 212.396 273.277 212.984C273.889 213.56 274.195 214.268 274.195 215.108C274.195 215.936 273.889 216.626 273.277 217.178C273.841 217.526 274.279 217.976 274.591 218.528C274.915 219.08 275.077 219.68 275.077 220.328C275.077 221.396 274.687 222.302 273.907 223.046C273.127 223.79 272.167 224.162 271.027 224.162C269.875 224.162 268.909 223.796 268.129 223.064C267.361 222.32 266.977 221.408 266.977 220.328C266.977 219.68 267.133 219.08 267.445 218.528C267.769 217.964 268.207 217.514 268.759 217.178C268.183 216.626 267.895 215.936 267.895 215.108ZM268.597 220.328C268.597 220.952 268.831 221.48 269.299 221.912C269.767 222.344 270.343 222.56 271.027 222.56C271.711 222.56 272.287 222.344 272.755 221.912C273.223 221.48 273.457 220.952 273.457 220.328C273.457 219.704 273.223 219.17 272.755 218.726C272.287 218.282 271.711 218.06 271.027 218.06H270.901C270.253 218.072 269.707 218.306 269.263 218.762C268.819 219.206 268.597 219.728 268.597 220.328ZM269.929 214.136C269.641 214.4 269.497 214.724 269.497 215.108C269.497 215.492 269.635 215.828 269.911 216.116C270.187 216.392 270.529 216.536 270.937 216.548H271.081C271.513 216.536 271.867 216.392 272.143 216.116C272.431 215.828 272.575 215.492 272.575 215.108C272.575 214.724 272.425 214.4 272.125 214.136C271.837 213.86 271.471 213.722 271.027 213.722C270.595 213.722 270.229 213.86 269.929 214.136ZM285.31 212.246L278.866 224H276.976L282.574 213.848H277.192V212.246H285.31ZM286.701 223.28L291.471 217.502C292.047 216.83 292.335 216.188 292.335 215.576C292.335 215.024 292.131 214.58 291.723 214.244C291.327 213.896 290.835 213.722 290.247 213.722C289.707 213.722 289.239 213.89 288.843 214.226C288.447 214.55 288.207 215 288.123 215.576L286.557 215.198C286.713 214.262 287.133 213.512 287.817 212.948C288.501 212.384 289.311 212.102 290.247 212.102C291.291 212.102 292.167 212.426 292.875 213.074C293.583 213.722 293.937 214.556 293.937 215.576C293.937 216.632 293.511 217.646 292.659 218.618C292.107 219.254 291.555 219.902 291.003 220.562C290.463 221.21 289.953 221.816 289.473 222.38H293.955V224H286.701V223.28Z"
        fill="white" />
    <g filter="url(#filter1_d_2007_108)">
        <rect x="58" y="240" width="250" height="80.4688" rx="20" fill="white" />
    </g>
    <path
        d="M92.2598 279.75V263.214H102.724V266.31H95.7638V270.078H101.86V273.126H95.7638V276.654H102.94V279.75H92.2598ZM110.336 275.886C110.912 276.414 111.584 276.678 112.352 276.678C113.12 276.678 113.784 276.414 114.344 275.886C114.92 275.342 115.208 274.662 115.208 273.846V263.214H118.736V273.846C118.736 275.67 118.112 277.15 116.864 278.286C115.616 279.422 114.112 279.99 112.352 279.99C110.592 279.99 109.08 279.422 107.816 278.286C106.552 277.15 105.92 275.67 105.92 273.846V263.214H109.496V273.846C109.496 274.678 109.776 275.358 110.336 275.886ZM129.047 266.31H125.975V270.966H128.951C129.591 270.966 130.095 270.726 130.463 270.246C130.847 269.766 131.039 269.23 131.039 268.638C131.039 268.062 130.855 267.534 130.487 267.054C130.135 266.558 129.655 266.31 129.047 266.31ZM130.583 273.894L134.687 279.75H130.463L126.767 274.038H125.975V279.75H122.447V263.214H129.215C130.975 263.214 132.327 263.75 133.271 264.822C134.231 265.878 134.711 267.15 134.711 268.638C134.711 269.902 134.359 271.022 133.655 271.998C132.951 272.974 131.927 273.606 130.583 273.894ZM146.684 273.39H149.612V268.494L146.684 273.39ZM154.988 276.222H152.996V279.75H149.612V276.222H142.1L149.444 264.03H152.996V273.39H154.988V276.222ZM157.113 264.03H168.969L162.033 279.75H158.217L163.761 267.126H157.113V264.03ZM177.245 269.622C178.493 269.622 179.605 270.086 180.581 271.014C181.573 271.942 182.069 273.246 182.069 274.926C182.069 276.446 181.541 277.67 180.485 278.598C179.445 279.526 178.069 279.99 176.357 279.99C174.853 279.99 173.573 279.494 172.517 278.502C171.461 277.494 170.861 276.166 170.717 274.518C170.621 273.702 170.597 272.87 170.645 272.022C170.693 271.174 170.773 270.342 170.885 269.526C170.997 268.71 171.213 267.942 171.533 267.222C171.869 266.502 172.261 265.878 172.709 265.35C173.173 264.822 173.781 264.414 174.533 264.126C175.285 263.822 176.133 263.686 177.077 263.718C178.149 263.766 179.093 264.014 179.909 264.462C180.725 264.894 181.397 265.662 181.925 266.766L178.781 268.11C178.381 267.278 177.773 266.862 176.957 266.862C176.237 266.862 175.645 267.102 175.181 267.582C174.717 268.062 174.405 268.63 174.245 269.286C174.101 269.926 174.045 270.63 174.077 271.398C174.205 271.014 174.549 270.622 175.109 270.222C175.669 269.822 176.381 269.622 177.245 269.622ZM177.965 276.198C178.381 275.782 178.589 275.294 178.589 274.734C178.589 274.174 178.381 273.694 177.965 273.294C177.565 272.878 177.085 272.67 176.525 272.67C175.965 272.67 175.477 272.878 175.061 273.294C174.661 273.694 174.461 274.174 174.461 274.734C174.461 275.294 174.661 275.782 175.061 276.198C175.477 276.598 175.965 276.798 176.525 276.798C177.085 276.798 177.565 276.598 177.965 276.198ZM196.519 274.71V278.43H194.071V274.71H190.375V272.262H194.071V268.566H196.519V272.262H200.239V274.71H196.519ZM215.237 269.622C216.485 269.622 217.597 270.086 218.573 271.014C219.565 271.942 220.061 273.246 220.061 274.926C220.061 276.446 219.533 277.67 218.477 278.598C217.437 279.526 216.061 279.99 214.349 279.99C212.845 279.99 211.565 279.494 210.509 278.502C209.453 277.494 208.853 276.166 208.709 274.518C208.613 273.702 208.589 272.87 208.637 272.022C208.685 271.174 208.765 270.342 208.877 269.526C208.989 268.71 209.205 267.942 209.525 267.222C209.861 266.502 210.253 265.878 210.701 265.35C211.165 264.822 211.773 264.414 212.525 264.126C213.277 263.822 214.125 263.686 215.069 263.718C216.141 263.766 217.085 264.014 217.901 264.462C218.717 264.894 219.389 265.662 219.917 266.766L216.773 268.11C216.373 267.278 215.765 266.862 214.949 266.862C214.229 266.862 213.637 267.102 213.173 267.582C212.709 268.062 212.397 268.63 212.237 269.286C212.093 269.926 212.037 270.63 212.069 271.398C212.197 271.014 212.541 270.622 213.101 270.222C213.661 269.822 214.373 269.622 215.237 269.622ZM215.957 276.198C216.373 275.782 216.581 275.294 216.581 274.734C216.581 274.174 216.373 273.694 215.957 273.294C215.557 272.878 215.077 272.67 214.517 272.67C213.957 272.67 213.469 272.878 213.053 273.294C212.653 273.694 212.453 274.174 212.453 274.734C212.453 275.294 212.653 275.782 213.053 276.198C213.469 276.598 213.957 276.798 214.517 276.798C215.077 276.798 215.557 276.598 215.957 276.198ZM240.655 267.822C240.655 268.446 240.471 269.046 240.103 269.622C239.751 270.182 239.183 270.614 238.399 270.918C239.407 271.174 240.175 271.678 240.703 272.43C241.247 273.166 241.519 273.918 241.519 274.686C241.519 276.11 241.039 277.31 240.079 278.286C239.119 279.262 237.839 279.75 236.239 279.75H229.135V263.214H235.759C237.247 263.214 238.431 263.63 239.311 264.462C240.207 265.294 240.655 266.414 240.655 267.822ZM232.663 269.742H235.423C235.871 269.742 236.239 269.582 236.527 269.262C236.815 268.942 236.959 268.534 236.959 268.038C236.959 267.51 236.823 267.094 236.551 266.79C236.295 266.47 235.911 266.31 235.399 266.31H232.663V269.742ZM235.975 272.646H232.663V276.654H236.047C236.607 276.654 237.039 276.454 237.343 276.054C237.663 275.638 237.823 275.158 237.823 274.614C237.823 274.102 237.655 273.646 237.319 273.246C236.999 272.846 236.551 272.646 235.975 272.646ZM251.136 266.31H247.944V270.966H251.04C251.68 270.966 252.184 270.726 252.552 270.246C252.936 269.766 253.128 269.23 253.128 268.638C253.128 268.062 252.944 267.534 252.576 267.054C252.224 266.558 251.744 266.31 251.136 266.31ZM244.416 279.75V263.214H251.208C252.984 263.214 254.336 263.75 255.264 264.822C256.192 265.878 256.656 267.15 256.656 268.638C256.656 270.126 256.192 271.398 255.264 272.454C254.336 273.51 252.984 274.038 251.208 274.038H247.944V279.75H244.416ZM263.118 267.966C262.174 268.942 261.702 270.126 261.702 271.518C261.702 272.91 262.174 274.094 263.118 275.07C264.062 276.03 265.214 276.51 266.574 276.51C267.934 276.51 269.086 276.022 270.03 275.046C270.99 274.07 271.47 272.894 271.47 271.518C271.47 270.126 270.99 268.942 270.03 267.966C269.086 266.99 267.934 266.502 266.574 266.502C265.214 266.502 264.062 266.99 263.118 267.966ZM258.198 271.518C258.198 269.166 259.006 267.166 260.622 265.518C262.254 263.854 264.238 263.022 266.574 263.022C268.926 263.022 270.91 263.854 272.526 265.518C274.158 267.166 274.974 269.166 274.974 271.518C274.974 273.854 274.158 275.854 272.526 277.518C270.894 279.166 268.91 279.99 266.574 279.99C264.238 279.99 262.254 279.166 260.622 277.518C259.006 275.854 258.198 273.854 258.198 271.518Z"
        fill="#03659C" />
    <path
        d="M273.627 309.184C282.019 318.14 293.07 320.467 298.625 320.467L183 320.467L183 293.871L246.406 293.871C260.85 293.871 266.074 301.124 273.627 309.184Z"
        fill="url(#paint2_linear_2007_108)" />
    <path
        d="M92.3735 309.184C83.9807 318.14 72.9302 320.467 67.375 320.467L183 320.467L183 293.871L119.594 293.871C105.15 293.871 99.9261 301.124 92.3735 309.184Z"
        fill="url(#paint3_linear_2007_108)" />
    <path
        d="M138.957 312H137.193V303.732H142.365V305.28H138.957V307.164H141.657V308.7H138.957V312ZM143.65 312V303.732H145.402V312H143.65ZM150.641 305.28H149.105V307.608H150.593C151.229 307.608 151.637 307.032 151.637 306.444C151.637 305.868 151.253 305.28 150.641 305.28ZM151.409 309.072L153.461 312H151.349L149.501 309.144H149.105V312H147.341V303.732H150.725C151.601 303.732 152.285 303.996 152.753 304.536C153.233 305.064 153.473 305.7 153.473 306.444C153.473 307.704 152.753 308.784 151.409 309.072ZM160.322 312H154.982V303.732H160.214V305.28H156.734V307.164H159.782V308.688H156.734V310.452H160.322V312ZM163.66 312H161.896V303.732H167.068V305.28H163.66V307.164H166.36V308.7H163.66V312ZM173.213 312H168.353V303.732H170.117V310.452H173.213V312ZM174.482 312V303.732H176.234V312H174.482ZM183.513 312H178.173V303.732H183.405V305.28H179.925V307.164H182.973V308.688H179.925V310.452H183.513V312ZM184.549 309.576H186.313C186.349 310.14 186.793 310.572 187.549 310.572C188.269 310.572 188.749 310.224 188.761 309.696C188.773 309.276 188.545 308.988 187.765 308.76L186.769 308.484C185.341 308.04 184.633 307.248 184.633 306.108C184.633 305.376 184.909 304.788 185.449 304.332C185.989 303.864 186.673 303.636 187.477 303.636C188.293 303.636 188.965 303.864 189.481 304.32C190.009 304.776 190.273 305.388 190.273 306.168H188.521C188.521 305.604 188.137 305.232 187.453 305.232C186.829 305.232 186.385 305.58 186.385 306.06C186.385 306.456 186.685 306.732 187.273 306.9L188.257 307.212C189.805 307.656 190.561 308.496 190.525 309.708C190.513 310.224 190.369 310.68 190.069 311.064C189.481 311.82 188.569 312.132 187.549 312.132C186.649 312.132 185.929 311.892 185.377 311.424C184.825 310.944 184.549 310.332 184.549 309.576ZM201.064 307.884C201.064 307.188 200.824 306.6 200.344 306.108C199.876 305.616 199.3 305.376 198.616 305.376C197.932 305.376 197.356 305.616 196.888 306.108C196.42 306.6 196.18 307.188 196.18 307.884C196.18 308.58 196.42 309.168 196.888 309.66C197.356 310.14 197.932 310.38 198.616 310.38C199.3 310.38 199.876 310.14 200.344 309.648C200.824 309.156 201.064 308.568 201.064 307.884ZM194.428 307.884C194.428 306.708 194.836 305.712 195.64 304.884C196.456 304.056 197.452 303.636 198.616 303.636C199.792 303.636 200.788 304.056 201.592 304.884C202.408 305.712 202.816 306.708 202.816 307.884C202.816 309.048 202.408 310.056 201.592 310.884C200.776 311.712 199.78 312.12 198.616 312.12C197.452 312.12 196.456 311.712 195.64 310.884C194.836 310.056 194.428 309.048 194.428 307.884ZM206.047 312H204.283V303.732H209.455V305.28H206.047V307.164H208.747V308.7H206.047V312ZM212.504 312H210.74V303.732H215.912V305.28H212.504V307.164H215.204V308.7H212.504V312ZM222.537 312H217.197V303.732H222.429V305.28H218.949V307.164H221.997V308.688H218.949V310.452H222.537V312ZM227.411 305.28H225.875V307.608H227.363C227.999 307.608 228.407 307.032 228.407 306.444C228.407 305.868 228.023 305.28 227.411 305.28ZM228.179 309.072L230.231 312H228.119L226.271 309.144H225.875V312H224.111V303.732H227.495C228.371 303.732 229.055 303.996 229.523 304.536C230.003 305.064 230.243 305.7 230.243 306.444C230.243 307.704 229.523 308.784 228.179 309.072Z"
        fill="white" />
    <circle cx="282.47" cy="101.47" r="50.47" fill="url(#paint4_radial_2007_108)" />
    <path
        d="M253.919 129.598V121.33H259.151V122.878H255.671V124.762H258.719V126.286H255.671V128.05H259.259V129.598H253.919ZM262.957 127.666C263.245 127.93 263.581 128.062 263.965 128.062C264.349 128.062 264.681 127.93 264.961 127.666C265.249 127.394 265.393 127.054 265.393 126.646V121.33H267.157V126.646C267.157 127.558 266.845 128.298 266.221 128.866C265.597 129.434 264.845 129.718 263.965 129.718C263.085 129.718 262.329 129.434 261.697 128.866C261.065 128.298 260.749 127.558 260.749 126.646V121.33H262.537V126.646C262.537 127.062 262.677 127.402 262.957 127.666ZM272.312 122.878H270.776V125.206H272.264C272.584 125.206 272.836 125.086 273.02 124.846C273.212 124.606 273.308 124.338 273.308 124.042C273.308 123.754 273.216 123.49 273.032 123.25C272.856 123.002 272.616 122.878 272.312 122.878ZM273.08 126.67L275.132 129.598H273.02L271.172 126.742H270.776V129.598H269.012V121.33H272.396C273.276 121.33 273.952 121.598 274.424 122.134C274.904 122.662 275.144 123.298 275.144 124.042C275.144 124.674 274.968 125.234 274.616 125.722C274.264 126.21 273.752 126.526 273.08 126.67ZM286.067 125.902C286.067 125.337 285.886 124.91 285.523 124.622C285.171 124.334 284.707 124.19 284.131 124.19C283.726 124.19 283.305 124.281 282.867 124.462C282.441 124.633 282.094 124.926 281.827 125.342L280.595 124.702L281.459 119.118H287.603V121.166H283.235L282.963 122.862C283.369 122.499 284.009 122.318 284.883 122.318C285.865 122.318 286.681 122.633 287.331 123.262C287.982 123.891 288.307 124.771 288.307 125.902C288.307 127.033 287.913 127.961 287.123 128.686C286.334 129.401 285.289 129.758 283.987 129.758C283.262 129.758 282.563 129.566 281.891 129.182C281.219 128.787 280.681 128.275 280.275 127.646L282.163 126.43C282.366 126.75 282.638 127.011 282.979 127.214C283.321 127.417 283.657 127.518 283.987 127.518C284.585 127.518 285.081 127.358 285.475 127.038C285.87 126.718 286.067 126.339 286.067 125.902ZM293.712 118.974V129.598H291.472V122.094L289.68 122.862V120.894L293.712 118.974ZM296.623 121.838C296.623 121.027 296.938 120.339 297.567 119.774C298.207 119.198 298.97 118.91 299.855 118.91C300.741 118.91 301.503 119.198 302.143 119.774C302.783 120.339 303.103 121.027 303.103 121.838C303.103 122.553 302.847 123.139 302.335 123.598C302.794 123.865 303.157 124.233 303.423 124.702C303.701 125.161 303.839 125.673 303.839 126.238C303.839 127.23 303.45 128.067 302.671 128.75C301.903 129.422 300.965 129.758 299.855 129.758C298.746 129.758 297.802 129.422 297.023 128.75C296.255 128.067 295.871 127.23 295.871 126.238C295.871 125.673 296.005 125.161 296.271 124.702C296.538 124.233 296.906 123.865 297.375 123.598C296.874 123.118 296.623 122.531 296.623 121.838ZM298.111 126.126C298.111 126.563 298.282 126.931 298.623 127.23C298.975 127.529 299.386 127.678 299.855 127.678C300.325 127.678 300.73 127.529 301.071 127.23C301.423 126.931 301.599 126.563 301.599 126.126C301.599 125.699 301.445 125.331 301.135 125.022C300.826 124.713 300.394 124.558 299.839 124.558C299.295 124.558 298.869 124.713 298.559 125.022C298.261 125.331 298.111 125.699 298.111 126.126ZM298.783 121.902C298.783 122.19 298.874 122.43 299.055 122.622C299.247 122.814 299.514 122.91 299.855 122.91C300.197 122.91 300.458 122.814 300.639 122.622C300.831 122.43 300.927 122.19 300.927 121.902C300.927 121.635 300.831 121.406 300.639 121.214C300.447 121.022 300.186 120.926 299.855 120.926C299.525 120.926 299.263 121.022 299.071 121.214C298.879 121.406 298.783 121.635 298.783 121.902ZM309.93 122.846C310.762 122.846 311.504 123.155 312.154 123.774C312.816 124.393 313.146 125.262 313.146 126.382C313.146 127.395 312.794 128.211 312.09 128.83C311.397 129.449 310.48 129.758 309.338 129.758C308.336 129.758 307.482 129.427 306.778 128.766C306.074 128.094 305.674 127.209 305.578 126.11C305.514 125.566 305.498 125.011 305.53 124.446C305.562 123.881 305.616 123.326 305.69 122.782C305.765 122.238 305.909 121.726 306.122 121.246C306.346 120.766 306.608 120.35 306.906 119.998C307.216 119.646 307.621 119.374 308.122 119.182C308.624 118.979 309.189 118.889 309.818 118.91C310.533 118.942 311.162 119.107 311.706 119.406C312.25 119.694 312.698 120.206 313.05 120.942L310.954 121.838C310.688 121.283 310.282 121.006 309.738 121.006C309.258 121.006 308.864 121.166 308.554 121.486C308.245 121.806 308.037 122.185 307.93 122.622C307.834 123.049 307.797 123.518 307.818 124.03C307.904 123.774 308.133 123.513 308.506 123.246C308.88 122.979 309.354 122.846 309.93 122.846ZM310.41 127.23C310.688 126.953 310.826 126.627 310.826 126.254C310.826 125.881 310.688 125.561 310.41 125.294C310.144 125.017 309.824 124.878 309.45 124.878C309.077 124.878 308.752 125.017 308.474 125.294C308.208 125.561 308.074 125.881 308.074 126.254C308.074 126.627 308.208 126.953 308.474 127.23C308.752 127.497 309.077 127.63 309.45 127.63C309.824 127.63 310.144 127.497 310.41 127.23Z"
        fill="white" />
    <path
        d="M261.411 113.643H260.355V110.156L257.484 106.064H258.705L260.883 109.133L263.083 106.064H264.315L261.411 110.156V113.643ZM264.424 109.87C264.424 108.785 264.795 107.864 265.535 107.109C266.276 106.354 267.182 105.976 268.252 105.976C269.33 105.976 270.24 106.354 270.98 107.109C271.728 107.864 272.102 108.785 272.102 109.87C272.102 110.948 271.728 111.865 270.98 112.62C270.24 113.375 269.33 113.753 268.252 113.753C267.182 113.753 266.276 113.375 265.535 112.62C264.795 111.865 264.424 110.948 264.424 109.87ZM266.261 107.813C265.719 108.378 265.447 109.063 265.447 109.87C265.447 110.677 265.715 111.362 266.25 111.927C266.793 112.484 267.46 112.763 268.252 112.763C269.044 112.763 269.712 112.484 270.254 111.927C270.797 111.362 271.068 110.677 271.068 109.87C271.068 109.063 270.797 108.378 270.254 107.813C269.712 107.248 269.044 106.966 268.252 106.966C267.468 106.966 266.804 107.248 266.261 107.813ZM275.137 112.279C275.474 112.602 275.885 112.763 276.369 112.763C276.853 112.763 277.264 112.602 277.601 112.279C277.938 111.956 278.107 111.542 278.107 111.036V106.064H279.141V111.036C279.141 111.843 278.87 112.499 278.327 113.005C277.792 113.504 277.139 113.753 276.369 113.753C275.599 113.753 274.943 113.504 274.4 113.005C273.865 112.499 273.597 111.843 273.597 111.036V106.064H274.631V111.036C274.631 111.542 274.8 111.956 275.137 112.279ZM284.548 111.454C284.555 111.799 284.713 112.11 285.021 112.389C285.329 112.66 285.714 112.796 286.176 112.796C286.63 112.796 286.986 112.69 287.243 112.477C287.499 112.264 287.653 112 287.705 111.685C287.734 111.311 287.624 111.014 287.375 110.794C287.133 110.574 286.814 110.42 286.418 110.332L285.439 110.09C284.207 109.775 283.591 109.115 283.591 108.11C283.591 107.487 283.833 106.977 284.317 106.581C284.801 106.178 285.376 105.976 286.044 105.976C286.748 105.976 287.331 106.181 287.793 106.592C288.255 106.995 288.486 107.531 288.486 108.198H287.463C287.463 107.824 287.327 107.523 287.056 107.296C286.792 107.069 286.451 106.955 286.033 106.955C285.651 106.955 285.318 107.061 285.032 107.274C284.753 107.487 284.614 107.762 284.614 108.099C284.614 108.627 284.973 108.979 285.692 109.155L286.682 109.397C287.4 109.58 287.936 109.874 288.288 110.277C288.64 110.68 288.779 111.179 288.706 111.773C288.64 112.345 288.379 112.818 287.925 113.192C287.477 113.566 286.894 113.753 286.176 113.753C285.42 113.753 284.79 113.526 284.284 113.071C283.778 112.609 283.525 112.07 283.525 111.454H284.548ZM291.493 110.794H294.001L292.747 107.428L291.493 110.794ZM294.353 111.718H291.141L290.404 113.643H289.315L292.197 106.064H293.297L296.168 113.643H295.09L294.353 111.718ZM297.272 106.064L298.988 111.916L300.704 106.064H301.76L299.483 113.643H298.504L296.205 106.064H297.272ZM303.108 106.064H307.596V107.021H304.131V109.441H307.156V110.398H304.131V112.686H307.706V113.643H303.108V106.064Z"
        fill="white" />
    <path
        d="M254.55 86.1185V83.2585H263.728V86.1185H254.55ZM271.882 84.9485C270.53 84.9485 269.316 84.4458 268.242 83.4405C267.184 82.4351 266.656 81.0225 266.656 79.2025C266.656 77.5558 267.219 76.2298 268.346 75.2245C269.49 74.2191 270.989 73.7165 272.844 73.7165C274.473 73.7165 275.86 74.2625 277.004 75.3545C278.148 76.4291 278.798 77.8591 278.954 79.6445C279.058 80.5285 279.084 81.4298 279.032 82.3485C278.98 83.2671 278.893 84.1685 278.772 85.0525C278.65 85.9365 278.408 86.7685 278.044 87.5485C277.697 88.3285 277.272 89.0045 276.77 89.5765C276.284 90.1485 275.634 90.5991 274.82 90.9285C274.005 91.2405 273.086 91.3791 272.064 91.3445C270.902 91.2925 269.88 91.0325 268.996 90.5645C268.112 90.0791 267.384 89.2385 266.812 88.0425L270.218 86.5865C270.651 87.4878 271.31 87.9385 272.194 87.9385C272.974 87.9385 273.615 87.6785 274.118 87.1585C274.62 86.6385 274.95 86.0318 275.106 85.3385C275.279 84.6278 275.348 83.8565 275.314 83.0245C274.863 84.3071 273.719 84.9485 271.882 84.9485ZM271.076 77.8505C270.642 78.2838 270.426 78.8038 270.426 79.4105C270.426 80.0171 270.642 80.5458 271.076 80.9965C271.526 81.4298 272.055 81.6465 272.662 81.6465C273.268 81.6465 273.788 81.4298 274.222 80.9965C274.672 80.5458 274.898 80.0171 274.898 79.4105C274.898 78.8038 274.672 78.2838 274.222 77.8505C273.788 77.3998 273.268 77.1745 272.662 77.1745C272.055 77.1745 271.526 77.3998 271.076 77.8505ZM292.915 91.0845H281.839V89.1085L288.833 80.8145C289.439 80.1211 289.743 79.4798 289.743 78.8905C289.743 78.4225 289.552 78.0238 289.171 77.6945C288.789 77.3651 288.269 77.2005 287.611 77.2005C286.969 77.2005 286.432 77.4258 285.999 77.8765C285.565 78.3098 285.297 78.8731 285.193 79.5665L281.865 78.9945C282.125 77.3651 282.783 76.0825 283.841 75.1465C284.898 74.1931 286.224 73.7165 287.819 73.7165C289.361 73.7165 290.67 74.2018 291.745 75.1725C292.837 76.1431 293.383 77.3825 293.383 78.8905C293.383 80.4158 292.785 81.8545 291.589 83.2065L287.663 87.6525H292.915V91.0845ZM308.771 74.0545H306.977L298.605 91.0845H300.399L308.771 74.0545ZM296.681 79.8265C296.022 79.1505 295.693 78.3271 295.693 77.3565C295.693 76.3858 296.022 75.5625 296.681 74.8865C297.357 74.2105 298.18 73.8725 299.151 73.8725C300.104 73.8725 300.919 74.2105 301.595 74.8865C302.288 75.5625 302.635 76.3858 302.635 77.3565C302.635 78.3271 302.297 79.1505 301.621 79.8265C300.945 80.4851 300.121 80.8145 299.151 80.8145C298.18 80.8145 297.357 80.4851 296.681 79.8265ZM298.189 76.3945C297.929 76.6545 297.799 76.9751 297.799 77.3565C297.799 77.7378 297.92 78.0585 298.163 78.3185C298.423 78.5785 298.752 78.7085 299.151 78.7085C299.532 78.7085 299.853 78.5785 300.113 78.3185C300.39 78.0585 300.529 77.7378 300.529 77.3565C300.529 76.9751 300.39 76.6545 300.113 76.3945C299.853 76.1171 299.532 75.9785 299.151 75.9785C298.769 75.9785 298.449 76.1171 298.189 76.3945ZM305.885 90.3565C305.226 89.6805 304.897 88.8571 304.897 87.8865C304.897 86.9158 305.226 86.0925 305.885 85.4165C306.561 84.7405 307.384 84.4025 308.355 84.4025C309.308 84.4025 310.123 84.7491 310.799 85.4425C311.492 86.1185 311.839 86.9331 311.839 87.8865C311.839 88.8571 311.501 89.6805 310.825 90.3565C310.149 91.0151 309.325 91.3445 308.355 91.3445C307.384 91.3445 306.561 91.0151 305.885 90.3565ZM307.003 87.8865C307.003 88.2851 307.124 88.6145 307.367 88.8745C307.627 89.1171 307.956 89.2385 308.355 89.2385C308.736 89.2385 309.057 89.1085 309.317 88.8485C309.594 88.5885 309.733 88.2678 309.733 87.8865C309.733 87.5051 309.594 87.1845 309.317 86.9245C309.057 86.6471 308.736 86.5085 308.355 86.5085C307.973 86.5085 307.653 86.6471 307.393 86.9245C307.133 87.1845 307.003 87.5051 307.003 87.8865Z"
        fill="white" />
    <line x1="311.248" y1="98.9487" x2="256.474" y2="98.9487" stroke="white" stroke-width="2" />
    <defs>
        <filter id="filter0_d_2007_108" x="0" y="0.363281" width="365" height="389.637" filterUnits="userSpaceOnUse"
            color-interpolation-filters="sRGB">
            <feFlood flood-opacity="0" result="BackgroundImageFix" />
            <feColorMatrix in="SourceAlpha" type="matrix" values="0 0 0 0 0 0 0 0 0 0 0 0 0 0 0 0 0 0 127 0"
                result="hardAlpha" />
            <feOffset dy="10" />
            <feGaussianBlur stdDeviation="10" />
            <feComposite in2="hardAlpha" operator="out" />
            <feColorMatrix type="matrix" values="0 0 0 0 0 0 0 0 0 0 0 0 0 0 0 0 0 0 0.15 0" />
            <feBlend mode="normal" in2="BackgroundImageFix" result="effect1_dropShadow_2007_108" />
            <feBlend mode="normal" in="SourceGraphic" in2="effect1_dropShadow_2007_108" result="shape" />
        </filter>
        <filter id="filter1_d_2007_108" x="38" y="230" width="290" height="120.469" filterUnits="userSpaceOnUse"
            color-interpolation-filters="sRGB">
            <feFlood flood-opacity="0" result="BackgroundImageFix" />
            <feColorMatrix in="SourceAlpha" type="matrix" values="0 0 0 0 0 0 0 0 0 0 0 0 0 0 0 0 0 0 127 0"
                result="hardAlpha" />
            <feOffset dy="10" />
            <feGaussianBlur stdDeviation="10" />
            <feComposite in2="hardAlpha" operator="out" />
            <feColorMatrix type="matrix" values="0 0 0 0 0 0 0 0 0 0 0 0 0 0 0 0 0 0 0.15 0" />
            <feBlend mode="normal" in2="BackgroundImageFix" result="effect1_dropShadow_2007_108" />
            <feBlend mode="normal" in="SourceGraphic" in2="effect1_dropShadow_2007_108" result="shape" />
        </filter>
        <linearGradient id="paint0_linear_2007_108" x1="19.9999" y1="299" x2="29.8257" y2="11.0216"
            gradientUnits="userSpaceOnUse">
            <stop stop-color="#03659C" />
            <stop offset="1" stop-color="#13AFB6" />
        </linearGradient>
        <radialGradient id="paint1_radial_2007_108" cx="0" cy="0" r="1" gradientUnits="userSpaceOnUse"
            gradientTransform="translate(258.431 69.78) rotate(56.9519) scale(77.4834)">
            <stop stop-color="#FFAEB2" />
            <stop offset="0.539026" stop-color="#D5484E" />
            <stop offset="0.892787" stop-color="#B81A21" />
        </radialGradient>
        <linearGradient id="paint2_linear_2007_108" x1="242.439" y1="320.824" x2="242.439" y2="294.262"
            gradientUnits="userSpaceOnUse">
            <stop stop-color="#13AFB6" />
            <stop offset="1" stop-color="#03659C" />
        </linearGradient>
        <linearGradient id="paint3_linear_2007_108" x1="123.562" y1="320.824" x2="123.562" y2="294.262"
            gradientUnits="userSpaceOnUse">
            <stop stop-color="#13AFB6" />
            <stop offset="1" stop-color="#03659C" />
        </linearGradient>
        <radialGradient id="paint4_radial_2007_108" cx="0" cy="0" r="1" gradientUnits="userSpaceOnUse"
            gradientTransform="translate(257.431 69.7795) rotate(56.9519) scale(77.4814)">
            <stop stop-color="#FFAEB2" />
            <stop offset="0.539026" stop-color="#D5484E" />
            <stop offset="0.892787" stop-color="#B81A21" />
        </radialGradient>
    </defs>
</svg>